<?xml version="1.0" encoding="iso-8859-1"?>
<!-- Generator: Adobe Illustrator 19.0.0, SVG Export Plug-In . SVG Version: 6.00 Build 0)  -->
<svg version="1.1" id="Capa_1" xmlns="http://www.w3.org/2000/svg" xmlns:xlink="http://www.w3.org/1999/xlink" x="0px" y="0px"
	 viewBox="0 0 512 512" style="enable-background:new 0 0 512 512;" xml:space="preserve">
<circle style="fill:#C3DDF4;" cx="256" cy="267" r="245"/>
<g>
	<path style="fill:#2E4C89;" d="M420.423,55.5c-2.628-3.85-4.169-8.498-4.169-13.5c0-4.164,1.067-8.083,2.941-11.5h-25.024
		c1.069,3.651,1.653,7.508,1.653,11.5c0,4.729-0.814,9.27-2.295,13.5H420.423z"/>
	<path style="fill:#2E4C89;" d="M428.5,89.498c3.757-0.977,7.695-1.498,11.754-1.498c4.601,0,9.044,0.679,13.246,1.923V63
		c0-0.33-0.016-0.656-0.025-0.984C449.681,64.531,445.137,66,440.254,66c-4.271,0-8.281-1.127-11.759-3.09
		c0.001,0.03,0.005,0.06,0.005,0.09V89.498z"/>
</g>
<path style="fill:#94C2ED;" d="M488,264V134.746C488,108.377,466.623,87,440.254,87s-47.746,21.377-47.746,47.746V264H488z"/>
<path style="fill:#6A8AC4;" d="M447.42,87.561c-2.339-0.357-4.727-0.561-7.166-0.561c-26.369,0-47.746,21.377-47.746,47.746V264H407
	V134.746C407,110.868,424.528,91.086,447.42,87.561z"/>
<polygon style="fill:#FFCA51;" points="385.982,264 352.664,83 278.232,83 246.78,264 "/>
<path style="fill:#2E4C89;" d="M80,258c0-2.883,0.21-5.717,0.582-8.5H68.111c-6.892,0-12.5-5.607-12.5-12.5V63
	c0-6.893,5.607-12.5,12.5-12.5h31.484v-15H68.111c-15.163,0-27.5,12.337-27.5,27.5v174c0,15.163,12.337,27.5,27.5,27.5H80.34
	C80.119,262.352,80,260.183,80,258z"/>
<path style="fill:#445EA0;" d="M116.176,42c0-5.674,1.16-11.081,3.253-16H103c-2.75,0-5,2.25-5,5v26c0,2.75,2.25,5,5,5h18.404
	C118.08,56.079,116.176,49.26,116.176,42z"/>
<path style="fill:#FFE2B8;" d="M106.515,311.086H179c10.477,0,19,8.523,19,19V353h287.44c10.04-26.761,15.56-55.731,15.56-86
	c0-1.338-0.029-2.668-0.051-4H232c-8.521,0-16.594,1.912-23.823,5.316c0.536-3.36,0.823-6.805,0.823-10.316
	c0-35.898-29.102-65-65-65s-65,29.102-65,65C79,279.934,89.875,299.315,106.515,311.086z"/>
<path style="fill:#FFC987;" d="M100,258c0-32.322,23.597-59.123,54.5-64.144C151.081,193.3,147.576,193,144,193
	c-35.898,0-65,29.102-65,65c0,21.934,10.875,41.315,27.515,53.086h21C110.875,299.315,100,279.934,100,258z"/>
<path style="fill:#02AF8E;" d="M199,353v-22.914c0-11-9-20-20-20H77c-11,0-20,9-20,20V353H199z"/>
<g>
	<path style="fill:#159E97;" d="M107,310.086H77c-11,0-20,9-20,20V353h30v-22.914C87,319.086,96,310.086,107,310.086z"/>
	<path style="fill:#159E97;" d="M25.783,351.001C60.066,444.936,150.2,512,256,512s195.934-67.064,230.217-160.999H25.783z"/>
</g>
<path style="fill:#2E4C89;" d="M256,512c73.677,0,139.748-32.529,184.66-84H71.34C116.252,479.471,182.323,512,256,512z"/>
<path style="fill:#37C47A;" d="M500.949,263H356v18.188c0,2.206-1.794,4-4,4h-74c-2.206,0-4-1.794-4-4V263h-35v47h152.5
	c11.321,0,20.5,9.179,20.5,20.5s-9.179,20.5-20.5,20.5H239v89c0,2.75,2.25,5,5,5h180.335C471.542,400.341,501,337.113,501,267
	C501,265.662,500.971,264.332,500.949,263z"/>
<path style="fill:#02AF8E;" d="M500.949,263H356v18.188c0,2.206-1.794,4-4,4h-74c-2.206,0-4-1.794-4-4V263h-10.752v47H391.5
	c11.321,0,20.5,9.179,20.5,20.5s-9.179,20.5-20.5,20.5H263.248v94h161.087C471.542,400.341,501,337.113,501,267
	C501,265.662,500.971,264.332,500.949,263z"/>
<path style="fill:#FFC987;" d="M273,263v18.188c0,2.75,2.25,5,5,5h74c2.75,0,5-2.25,5-5V263H273z"/>
<path style="fill:#FF8DB9;" d="M293,281.188V263h-20v18.188c0,2.75,2.25,5,5,5h20C295.25,286.188,293,283.938,293,281.188z"/>
<path style="fill:#EBAA48;" d="M177.746,240.09c-1.919,0-3.839-0.732-5.304-2.196l-13.679-13.679c-2.929-2.93-2.929-7.678,0-10.607
	c2.93-2.928,7.678-2.928,10.607,0l13.679,13.679c2.929,2.93,2.929,7.678,0,10.607C181.585,239.357,179.665,240.09,177.746,240.09z"
	/>
<g>
	<path style="fill:#2E4C89;" d="M274.248,146v18h15v-18c0-9.649-7.85-17.5-17.5-17.5h-76.894c-1.355,0-2.5-1.145-2.5-2.5v-23h-15v23
		c0,9.649,7.851,17.5,17.5,17.5h76.894C273.103,143.5,274.248,144.645,274.248,146z"/>
	<path style="fill:#2E4C89;" d="M274.248,196.501V216c0,4.143,3.358,7.5,7.5,7.5c4.143,0,7.5-3.357,7.5-7.5v-19.499H274.248z"/>
</g>
<path style="fill:#159E97;" d="M162.926,83v16.001c0,2.75,2.25,5,5,5h35c2.75,0,5-2.25,5-5V83H162.926z"/>
<path style="fill:#0F9390;" d="M183,99.001V83h-20.074v16.001c0,2.75,2.25,5,5,5H188C185.25,104.001,183,101.751,183,99.001z"/>
<rect x="319" y="103" style="fill:#2E4C89;" width="15" height="76"/>
<path style="fill:#159E97;" d="M304,83v16.001c0,2.75,2.25,5,5,5h35c2.75,0,5-2.25,5-5V83H304z"/>
<path style="fill:#0F9390;" d="M324,99.001V83h-20v16.001c0,2.75,2.25,5,5,5h20C326.25,104.001,324,101.751,324,99.001z"/>
<g>
	<path style="fill:#159E97;" d="M340,205v-22c0-2.75-2.25-5-5-5h-17c-2.75,0-5,2.25-5,5v22H340z"/>
	<path style="fill:#159E97;" d="M267.793,184h27.914c0.529,0,1.045,0.057,1.543,0.16V168c0-2.75-2.25-5-5-5h-21c-2.75,0-5,2.25-5,5
		v16.16C266.748,184.057,267.264,184,267.793,184z"/>
</g>
<path style="fill:#02AF8E;" d="M347,220.001c0,2.75-2.25,5-5,5h-31c-2.75,0-5-2.25-5-5V209c0-2.75,2.25-5,5-5h31c2.75,0,5,2.25,5,5
	V220.001z"/>
<path style="fill:#94C2ED;" d="M396.824,42c0,23.195-18.805,42-42,42H157.176c-23.195,0-42-18.805-42-42l0,0
	c0-23.195,18.805-42,42-42h197.648C378.02,0,396.824,18.805,396.824,42L396.824,42z"/>
<circle style="fill:#C3DDF4;" cx="160" cy="42" r="25"/>
<path style="fill:#94C2ED;" d="M145,42c0-12.094,8.59-22.182,20-24.498c-1.615-0.328-3.287-0.501-5-0.501
	c-13.807,0-25,11.192-25,24.999c0,13.808,11.193,25,25,25c1.713,0,3.385-0.173,5-0.501C153.59,64.183,145,54.095,145,42z"/>
<circle style="fill:#C3DDF4;" cx="350" cy="42" r="25"/>
<g>
	<path style="fill:#94C2ED;" d="M335,42c0-12.094,8.59-22.182,20-24.498c-1.615-0.328-3.287-0.501-5-0.501
		c-13.807,0-25,11.192-25,24.999c0,13.808,11.193,25,25,25c1.713,0,3.385-0.173,5-0.501C343.59,64.183,335,54.095,335,42z"/>
	<circle style="fill:#94C2ED;" cx="440.25" cy="42" r="25"/>
</g>
<circle style="fill:#C3DDF4;" cx="440.25" cy="42" r="11"/>
<circle style="fill:#69CDFF;" cx="219.73" cy="42" r="8.919"/>
<circle style="fill:#9CE2D8;" cx="256" cy="42" r="8.919"/>
<circle style="fill:#60D882;" cx="292.27" cy="42" r="8.92"/>
<path style="fill:#FFFFFF;" d="M459.325,184.929c0,10.533-8.538,19.071-19.071,19.071l0,0c-10.533,0-19.071-8.538-19.071-19.071
	v-50.857c0-10.533,8.538-19.071,19.071-19.071l0,0c10.533,0,19.071,8.538,19.071,19.071V184.929z"/>
<rect x="428.25" y="144.67" style="fill:#52BBEF;" width="24.02" height="12.714"/>
<path style="fill:#60D882;" d="M452.263,230.714c2.75,0,5-2.25,5-5V223c0-2.75-2.25-5-5-5h-24.017c-2.75,0-5,2.25-5,5v2.714
	c0,2.75,2.25,5,5,5H452.263z"/>
<path style="fill:#69CDFF;" d="M428.246,164.444v20.484c0,6.62,5.388,12.008,12.008,12.008c6.621,0,12.009-5.388,12.009-12.008
	v-20.484H428.246z"/>
<path style="fill:#445EA0;" d="M295.707,197.501h-27.914c-4.143,0-7.5-3.357-7.5-7.5s3.357-7.5,7.5-7.5h27.914
	c4.143,0,7.5,3.357,7.5,7.5C303.207,194.144,299.85,197.501,295.707,197.501z"/>
<g>
</g>
<g>
</g>
<g>
</g>
<g>
</g>
<g>
</g>
<g>
</g>
<g>
</g>
<g>
</g>
<g>
</g>
<g>
</g>
<g>
</g>
<g>
</g>
<g>
</g>
<g>
</g>
<g>
</g>
</svg>
