<?xml version="1.0" encoding="iso-8859-1"?>
<!-- Generator: Adobe Illustrator 19.0.0, SVG Export Plug-In . SVG Version: 6.00 Build 0)  -->
<svg version="1.1" id="Capa_1" xmlns="http://www.w3.org/2000/svg" xmlns:xlink="http://www.w3.org/1999/xlink" x="0px" y="0px"
	 viewBox="0 0 512 512" style="enable-background:new 0 0 512 512;" xml:space="preserve">
<circle style="fill:#FF8DB9;" cx="250.5" cy="267" r="245"/>
<path style="fill:#FFCA51;" d="M506.5,5c0-2.75-2.25-5-5-5h-159c-2.75,0-5,2.25-5,5v119c0,2.75,2.25,5,5,5h38c2.75,0,5,2.25,5,5v28
	c0,2.75,1.778,3.621,3.951,1.936l41.098-31.871c2.173-1.686,6.201-3.064,8.951-3.064h62c2.75,0,5-2.25,5-5L506.5,5L506.5,5z"/>
<path style="fill:#FFAF10;" d="M358,124V5c0-2.75,2.25-5,5-5h-20.5c-2.75,0-5,2.25-5,5v119c0,2.75,2.25,5,5,5H363
	C360.25,129,358,126.75,358,124z"/>
<path style="fill:#FFFFFF;" d="M459.5,52.5c0-1.65-1.35-3-3-3H440c-1.65,0-3-1.35-3-3V30c0-1.65-1.35-3-3-3h-24c-1.65,0-3,1.35-3,3
	v16.5c0,1.65-1.35,3-3,3h-16.5c-1.65,0-3,1.35-3,3v24c0,1.65,1.35,3,3,3H404c1.65,0,3,1.35,3,3V99c0,1.65,1.35,3,3,3h24
	c1.65,0,3-1.35,3-3V82.5c0-1.65,1.35-3,3-3h16.5c1.65,0,3-1.35,3-3V52.5z"/>
<g>
	<path style="fill:#EEF6FF;" d="M81.305,444.191c7.553,7.214,15.575,13.936,24,20.146v-89.929c-8.884-0.774-17.089-3.907-24-8.758
		V444.191z"/>
	<path style="fill:#EEF6FF;" d="M395.695,374.408v89.929c8.425-6.209,16.447-12.932,24-20.146V365.65
		C412.784,370.501,404.58,373.634,395.695,374.408z"/>
</g>
<g>
	<path style="fill:#0F9390;" d="M87.107,293.069c-0.553,0-1,0.447-1,1v31.841c0,0.553,0.447,1,1,1h13.267
		c1.888,0,3.423,1.535,3.423,3.423v15.92c0,1.888-1.535,3.424-3.423,3.424H66.122c7.685,14.295,22.198,24.373,39.183,25.854V293.07
		H87.107V293.069z"/>
	<path style="fill:#0F9390;" d="M395.295,277.122c0.261,1.253,0.4,2.549,0.4,3.878v94.53c25.242-2.2,45.049-23.375,45.049-49.189
		C440.744,300.393,420.728,279.132,395.295,277.122z"/>
</g>
<path style="fill:#EEF6FF;" d="M362.5,237v-71.434c0-61.273-49.671-110.943-110.943-110.943h-2.113
	c-61.273,0-110.943,49.67-110.943,110.943V237H362.5z"/>
<path style="fill:#D9EAFC;" d="M260.75,55.005c-3.032-0.249-6.097-0.382-9.193-0.382h-2.113
	c-61.273,0-110.943,49.67-110.943,110.943V237H159v-71.434C159,107.39,203.779,59.679,260.75,55.005z"/>
<path style="fill:#0F9390;" d="M373,256v-10c0-5.5-4.5-10-10-10H138c-5.5,0-10,4.5-10,10v10H373z"/>
<path style="fill:#057C76;" d="M158,236h-20c-5.5,0-10,4.5-10,10v10h20v-10C148,240.5,152.5,236,158,236z"/>
<path style="fill:#159E97;" d="M376.695,255h-252.39c-7.358,0-13.806,4.038-17.278,9.997h2.192c1.887,0,3.422,1.535,3.422,3.423
	v21.227c0,1.888-1.535,3.423-3.422,3.423h-4.914v170.544C145.114,494.007,195.705,512,250.5,512s105.387-17.993,146.195-48.387V275
	C396.695,264,387.695,255,376.695,255z"/>
<path style="fill:#EEF6FF;" d="M331.71,295H169.29c-11,0-20,9-20,20v109c0,11,9,20,20,20h24.12
	c0.052-16.444,13.443-29.808,29.899-29.808h54.38c16.456,0,29.849,13.363,29.9,29.808h24.12c11,0,20-9,20-20V315
	C351.71,304,342.71,295,331.71,295z"/>
<path style="fill:#D9EAFC;" d="M163,424V315c0-11,9-20,20-20h-13.71c-11,0-20,9-20,20v109c0,11,9,20,20,20H183
	C172,444,163,435,163,424z"/>
<path style="fill:#159E97;" d="M326.56,201.943c0,8.832-7.225,16.057-16.055,16.057H190.496c-8.831,0-16.056-7.225-16.056-16.057
	v-65.826c0-8.83,7.225-16.055,16.056-16.055h120.009c8.83,0,16.055,7.225,16.055,16.055V201.943z"/>
<path style="fill:#0F9390;" d="M191.385,201.943v-65.826c0-8.83,7.225-16.055,16.056-16.055h-16.944
	c-8.831,0-16.056,7.225-16.056,16.055v65.826c0,8.832,7.225,16.057,16.056,16.057h16.944
	C198.609,218,191.385,210.775,191.385,201.943z"/>
<path style="fill:#60D882;" d="M207.69,120.063v1.873c0,8.83,7.225,16.055,16.056,16.055h53.509c8.83,0,16.055-7.225,16.055-16.055
	v-1.873C293.31,120.063,207.69,120.063,207.69,120.063z"/>
<path style="fill:#37C47A;" d="M228.381,121.936v-1.873H207.69v1.873c0,8.83,7.225,16.055,16.056,16.055h20.69
	C235.605,137.99,228.381,130.766,228.381,121.936z"/>
<g>
	<path style="fill:#EEF6FF;" d="M227.156,189.857c0,2.75-2.25,5-5,5H208.24c-2.75,0-5-2.25-5-5V160c0-2.75,2.25-5,5-5h13.916
		c2.75,0,5,2.25,5,5V189.857z"/>
	<path style="fill:#EEF6FF;" d="M297.76,189.857c0,2.75-2.25,5-5,5h-13.914c-2.75,0-5-2.25-5-5V160c0-2.75,2.25-5,5-5h13.914
		c2.75,0,5,2.25,5,5V189.857z"/>
</g>
<path style="fill:#0F9390;" d="M223.31,475c-17.04,0-30.902-13.863-30.902-30.904c0-17.04,13.862-30.903,30.902-30.903h54.38
	c17.04,0,30.903,13.863,30.903,30.903c0,17.041-13.863,30.904-30.903,30.904H223.31z"/>
<path style="fill:#FFFFFF;" d="M277.69,426.207h-26.612v35.777h26.612c9.878,0,17.889-8.011,17.889-17.889
	C295.578,434.217,287.567,426.207,277.69,426.207z"/>
<path style="fill:#FF8DB9;" d="M252.5,426.207h-29.19c-9.879,0-17.887,8.01-17.887,17.889c0,9.878,8.008,17.889,17.887,17.889h29.19
	V426.207z"/>
<path style="fill:#2E4C89;" d="M79.57,103.354V7.5c0-4.143-3.357-7.5-7.5-7.5s-7.5,3.357-7.5,7.5v95.854H79.57z"/>
<path style="fill:#0F9390;" d="M92.414,120v-13.438c0-2.433-1.991-4.423-4.424-4.423H56.15c-2.433,0-4.424,1.99-4.424,4.423V120
	H92.414z"/>
<path style="fill:#057C76;" d="M71.736,102.139H56.15c-2.433,0-4.424,1.99-4.424,4.423V120h15.586v-13.438
	C67.313,104.129,69.304,102.139,71.736,102.139z"/>
<rect x="41.11" y="180" style="fill:#EEF6FF;" width="61.914" height="85"/>
<rect x="41.11" y="180" style="fill:#D9EAFC;" width="16.973" height="85"/>
<rect x="57.03" y="293" style="fill:#EEF6FF;" width="30.07" height="34"/>
<path style="fill:#C3DDF4;" d="M113.641,268.42c0-2.432-1.99-4.423-4.422-4.423H34.922c-2.431,0-4.422,1.991-4.422,4.423v21.227
	c0,2.435,1.991,4.423,4.422,4.423h74.297c2.432,0,4.422-1.988,4.422-4.423C113.641,289.647,113.641,268.42,113.641,268.42z"/>
<path style="fill:#94C2ED;" d="M51,289.647V268.42c0-2.432,1.991-4.423,4.422-4.423h-20.5c-2.431,0-4.422,1.991-4.422,4.423v21.227
	c0,2.435,1.991,4.423,4.422,4.423h20.5C52.991,294.069,51,292.081,51,289.647z"/>
<path style="fill:#C3DDF4;" d="M104.797,330.333c0-2.433-1.99-4.423-4.423-4.423H43.767c-2.433,0-4.422,1.99-4.422,4.423v15.92
	c0,2.433,1.989,4.424,4.422,4.424h56.607c2.433,0,4.423-1.991,4.423-4.424C104.797,346.253,104.797,330.333,104.797,330.333z"/>
<path style="fill:#94C2ED;" d="M60,346.253v-15.92c0-2.433,1.989-4.423,4.422-4.423H43.767c-2.433,0-4.422,1.99-4.422,4.423v15.92
	c0,2.433,1.989,4.424,4.422,4.424h20.655C61.989,350.677,60,348.685,60,346.253z"/>
<path style="fill:#02AF8E;" d="M94.183,118.943H49.958c-4.864,0-8.845,3.981-8.845,8.846v54.838h61.914v-54.838
	C103.027,122.925,99.047,118.943,94.183,118.943z"/>
<path style="fill:#159E97;" d="M66.931,118.943H49.958c-4.864,0-8.845,3.981-8.845,8.846v54.838h16.973v-54.838
	C58.086,122.925,62.066,118.943,66.931,118.943z"/>
<path style="fill:#0F9390;" d="M239.25,341.3c0-1.65-1.35-3-3-3h-15.3c-1.65,0-3-1.35-3-3V320c0-1.65-1.35-3-3-3h-22.4
	c-1.65,0-3,1.35-3,3v15.3c0,1.65-1.35,3-3,3h-15.3c-1.65,0-3,1.35-3,3v22.4c0,1.65,1.35,3,3,3h15.3c1.65,0,3,1.35,3,3V385
	c0,1.65,1.35,3,3,3h22.4c1.65,0,3-1.35,3-3v-15.3c0-1.65,1.35-3,3-3h15.3c1.65,0,3-1.35,3-3V341.3z"/>
<g>
	<path style="fill:#2E4C89;" d="M325.25,369.066h-64c-4.143,0-7.5-3.357-7.5-7.5s3.357-7.5,7.5-7.5h64c4.143,0,7.5,3.357,7.5,7.5
		S329.393,369.066,325.25,369.066z"/>
	<path style="fill:#2E4C89;" d="M291.25,389.5h-30c-4.143,0-7.5-3.357-7.5-7.5s3.357-7.5,7.5-7.5h30c4.143,0,7.5,3.357,7.5,7.5
		S295.393,389.5,291.25,389.5z"/>
</g>
<g>
	<path style="fill:#EA2A3D;" d="M265.008,317c0.314,0,0.605,0.168,0.762,0.44l7.512,13.063c0.971,1.551,1.482,3.338,1.482,5.171
		c0,5.379-4.376,9.757-9.756,9.757s-9.758-4.378-9.758-9.757c0-1.833,0.514-3.62,1.484-5.171l7.512-13.063
		C264.402,317.168,264.693,317,265.008,317z"/>
	<path style="fill:#EA2A3D;" d="M290.008,317c0.314,0,0.605,0.168,0.762,0.44l7.512,13.063c0.971,1.551,1.482,3.338,1.482,5.171
		c0,5.379-4.376,9.757-9.756,9.757s-9.758-4.378-9.758-9.757c0-1.833,0.514-3.62,1.484-5.171l7.512-13.063
		C289.402,317.168,289.693,317,290.008,317z"/>
</g>
<path style="fill:#FF8DB9;" d="M315.008,317c0.314,0,0.605,0.168,0.762,0.44l7.512,13.063c0.971,1.551,1.482,3.338,1.482,5.171
	c0,5.379-4.376,9.757-9.756,9.757s-9.758-4.378-9.758-9.757c0-1.833,0.514-3.62,1.484-5.171l7.512-13.063
	C314.402,317.168,314.693,317,315.008,317z"/>
<g>
</g>
<g>
</g>
<g>
</g>
<g>
</g>
<g>
</g>
<g>
</g>
<g>
</g>
<g>
</g>
<g>
</g>
<g>
</g>
<g>
</g>
<g>
</g>
<g>
</g>
<g>
</g>
<g>
</g>
</svg>
