<?xml version="1.0" encoding="iso-8859-1"?>
<!-- Generator: Adobe Illustrator 19.0.0, SVG Export Plug-In . SVG Version: 6.00 Build 0)  -->
<svg version="1.1" id="Capa_1" xmlns="http://www.w3.org/2000/svg" xmlns:xlink="http://www.w3.org/1999/xlink" x="0px" y="0px"
	 viewBox="0 0 512 512" style="enable-background:new 0 0 512 512;" xml:space="preserve">
<circle style="fill:#9CE2D8;" cx="245" cy="267" r="245"/>
<path style="fill:#FFE2B8;" d="M507,261.154h-55.518v-3.955h46.568c2.75,0,5-2.25,5-5v-4.498c0-2.75-2.25-5-5-5h-51.568h-0.943
	l6.908-6.908c3.977-3.977,3.978-10.484,0-14.462l-0.269-0.27c-3.978-3.979-10.485-3.979-14.463,0l-21.642,21.64h-2.489
	c-2.75,0-5,2.25-5,5v7.263h-27.469v15.272c0,3.96-3.222,7.182-7.182,7.182h-23.522c-3.96,0-7.182-3.222-7.182-7.182v-15.272h-24.484
	v45.001h89.838v7.594c0,2.75,2.25,5,5,5h77.111c2.75,0,5-2.25,5-5v-4.5c0-2.75-2.25-5-5-5H451.48v-3.952h50.246c2.75,0,5-2.25,5-5
	v-4.501c0-2.75-2.25-5-5-5H451.48v-3.953H507c2.75,0,5-2.25,5-5v-4.498C512,263.404,509.75,261.154,507,261.154z"/>
<path style="fill:#EF8318;" d="M161.451,21.338c8.117,8.902,13.322,20.39,14.382,34.097c24.42,10.235,40.608,30.117,40.608,61.451
	v-38.22C216.441,45.879,192.625,25.114,161.451,21.338z"/>
<path style="fill:#DB722C;" d="M128.488,47c18.107,0,34.934,2.922,48.921,9.116C175.053,20.809,145.361,0,109.057,0
	C71.213,0,40.535,22.6,40.535,60.675v56.211C40.535,68.015,79.913,47,128.488,47z"/>
<path style="fill:#C65E24;" d="M61.125,60.675c0-34.55,25.262-56.355,58.216-60.097C115.986,0.197,112.553,0,109.057,0
	C71.213,0,40.535,22.6,40.535,60.675v56.211c0-21.665,7.743-37.85,20.59-49.163V60.675z"/>
<path style="fill:#FFE2B8;" d="M41.535,155.058v-39.116H28.524c-8.284,0-14.997,6.712-14.997,14.993v27.492
	c0,8.282,6.713,14.995,14.997,14.995h14.944C42.206,167.498,41.535,161.355,41.535,155.058z"/>
<path style="fill:#FFC987;" d="M228.453,115.941h-13.012v39.116c0,6.298-0.671,12.44-1.933,18.364h14.945
	c8.283,0,14.997-6.713,14.997-14.995v-27.492C243.45,122.653,236.736,115.941,228.453,115.941z"/>
<path style="fill:#445EA0;" d="M292.253,252.249H199.54h-35.445v-17.375c-10.873,4.931-22.926,7.677-35.606,7.677
	c-12.679,0-24.732-2.746-35.605-7.676v17.374H57.437c-12.845,0-23.296,10.451-23.296,23.296v116.25
	c39.125,65.965,108.314,111.986,188.694,119.196v-201.53h69.417v-57.212H292.253z"/>
<path style="fill:#2E4C89;" d="M34.141,310.992v80.803c6.218,10.483,13.198,20.461,20.859,29.861V290.133L34.141,310.992z"/>
<path style="fill:#FFE2B8;" d="M216.441,155.058c0,48.872-39.377,88.493-87.953,88.493l0,0c-48.576,0-87.953-39.621-87.953-88.493
	V115.56c0-48.871,39.377-69.886,87.953-69.886l0,0c48.576,0,87.953,21.015,87.953,69.886V155.058z"/>
<path style="fill:#FFC987;" d="M56.094,155.058V115.56c0-46.233,35.243-67.532,80.174-69.697c-2.564-0.123-5.157-0.188-7.779-0.188
	c-48.576,0-87.953,21.015-87.953,69.886v39.498c0,48.872,39.377,88.493,87.953,88.493c2.622,0,5.215-0.122,7.779-0.349
	C91.337,239.239,56.094,201.291,56.094,155.058z"/>
<g>
	<path style="fill:#293D7C;" d="M92.883,252.249H57.437c-12.845,0-23.296,10.451-23.296,23.296v35.447L92.883,252.249z"/>
	<path style="fill:#293D7C;" d="M164.094,252.249h35.445c12.845,0,23.296,10.451,23.296,23.296v35.447L164.094,252.249z"/>
</g>
<g>
	<path style="fill:#EBAA48;" d="M87.015,153.249c-4.142,0-7.5-3.357-7.5-7.5v-13.131c0-4.143,3.358-7.5,7.5-7.5s7.5,3.357,7.5,7.5
		v13.131C94.515,149.892,91.157,153.249,87.015,153.249z"/>
	<path style="fill:#EBAA48;" d="M169.962,153.249c-4.142,0-7.5-3.357-7.5-7.5v-13.131c0-4.143,3.358-7.5,7.5-7.5s7.5,3.357,7.5,7.5
		v13.131C177.462,149.892,174.105,153.249,169.962,153.249z"/>
</g>
<path style="fill:#EF8318;" d="M512,5c0-2.75-2.25-5-5-5H293.637c-2.75,0-5,2.25-5,5v206.793c0,2.75,2.25,5,5,5h40.789
	c2.75,0,6.288,1.846,7.861,4.101l15.233,21.832c1.574,2.255,4.149,2.255,5.723,0l15.233-21.832c1.574-2.255,5.111-4.101,7.861-4.101
	H507c2.75,0,5-2.25,5-5V5z"/>
<path style="fill:#DB722C;" d="M309.637,211.793V5c0-2.75,2.25-5,5-5h-21c-2.75,0-5,2.25-5,5v206.793c0,2.75,2.25,5,5,5h21
	C311.887,216.793,309.637,214.543,309.637,211.793z"/>
<g>
	<path style="fill:#FFFFFF;" d="M377.03,44.184V31.42c0-4.143-3.358-7.5-7.5-7.5s-7.5,3.357-7.5,7.5v12.764H377.03z"/>
	<path style="fill:#FFFFFF;" d="M323.345,85.105h12.761v-15h-12.761c-4.142,0-7.5,3.357-7.5,7.5S319.203,85.105,323.345,85.105z"/>
	<path style="fill:#FFFFFF;" d="M407.818,44.184V31.42c0-4.143-3.358-7.5-7.5-7.5s-7.5,3.357-7.5,7.5v12.764H407.818z"/>
	<path style="fill:#FFFFFF;" d="M323.345,115.894h12.761v-15h-12.761c-4.142,0-7.5,3.357-7.5,7.5
		C315.845,112.536,319.203,115.894,323.345,115.894z"/>
	<path style="fill:#FFFFFF;" d="M464.532,85.105h12.761c4.142,0,7.5-3.357,7.5-7.5s-3.358-7.5-7.5-7.5h-12.761V85.105z"/>
	<path style="fill:#FFFFFF;" d="M438.609,44.184V31.42c0-4.143-3.358-7.5-7.5-7.5s-7.5,3.357-7.5,7.5v12.764H438.609z"/>
	<path style="fill:#FFFFFF;" d="M362.03,172.607v12.764c0,4.143,3.358,7.5,7.5,7.5s7.5-3.357,7.5-7.5v-12.764H362.03z"/>
	<path style="fill:#FFFFFF;" d="M477.293,131.686h-12.761v15h12.761c4.142,0,7.5-3.357,7.5-7.5S481.435,131.686,477.293,131.686z"/>
	<path style="fill:#FFFFFF;" d="M423.609,172.607v12.764c0,4.143,3.358,7.5,7.5,7.5s7.5-3.357,7.5-7.5v-12.764H423.609z"/>
	<path style="fill:#FFFFFF;" d="M477.293,100.894h-12.761v15h12.761c4.142,0,7.5-3.357,7.5-7.5S481.435,100.894,477.293,100.894z"/>
	<path style="fill:#FFFFFF;" d="M336.106,131.686h-12.761c-4.142,0-7.5,3.357-7.5,7.5s3.358,7.5,7.5,7.5h12.761V131.686z"/>
	<path style="fill:#FFFFFF;" d="M392.818,172.607v12.764c0,4.143,3.358,7.5,7.5,7.5s7.5-3.357,7.5-7.5v-12.764H392.818z"/>
</g>
<path style="fill:#445EA0;" d="M465.532,168.607c0,2.75-2.25,5-5,5H340.106c-2.75,0-5-2.25-5-5V48.184c0-2.75,2.25-5,5-5h120.426
	c2.75,0,5,2.25,5,5L465.532,168.607L465.532,168.607z"/>
<path style="fill:#2E4C89;" d="M350.574,168.607V48.184c0-2.75,2.25-5,5-5h-15.468c-2.75,0-5,2.25-5,5v120.424c0,2.75,2.25,5,5,5
	h15.468C352.824,173.607,350.574,171.357,350.574,168.607z"/>
<path style="fill:#293D7C;" d="M442.568,145.642c0,2.75-2.25,5-5,5h-74.5c-2.75,0-5-2.25-5-5V71.146c0-2.75,2.25-5,5-5h74.5
	c2.75,0,5,2.25,5,5V145.642z"/>
<g>
	<path style="fill:#FFFFFF;" d="M421.24,102.003h-41.841c-4.142,0-7.5-3.357-7.5-7.5s3.358-7.5,7.5-7.5h41.841
		c4.142,0,7.5,3.357,7.5,7.5C428.74,98.646,425.382,102.003,421.24,102.003z"/>
	<path style="fill:#FFFFFF;" d="M412.632,128.107h-24.626c-4.142,0-7.5-3.357-7.5-7.5s3.358-7.5,7.5-7.5h24.626
		c4.142,0,7.5,3.357,7.5,7.5S416.774,128.107,412.632,128.107z"/>
</g>
<g>
	<path style="fill:#EBAA48;" d="M140.757,181.602h-9.205c-9.21,0-16.704-7.851-16.704-17.5V139.33c0-4.143,3.358-7.5,7.5-7.5
		s7.5,3.357,7.5,7.5v24.771c0,1.408,0.916,2.5,1.704,2.5h9.205c4.142,0,7.5,3.357,7.5,7.5
		C148.257,178.244,144.899,181.602,140.757,181.602z"/>
	<path style="fill:#EBAA48;" d="M152.007,214.328h-43.976c-4.142,0-7.5-3.357-7.5-7.5s3.358-7.5,7.5-7.5h43.976
		c4.142,0,7.5,3.357,7.5,7.5C159.507,210.971,156.149,214.328,152.007,214.328z"/>
</g>
<g>
	<path style="fill:#DB722C;" d="M100.872,114.273H67.123c-4.236,0-7.67-3.434-7.67-7.671c0-4.236,3.434-7.67,7.67-7.67h33.749
		c4.236,0,7.671,3.434,7.671,7.67C108.543,110.84,105.108,114.273,100.872,114.273z"/>
	<path style="fill:#DB722C;" d="M185.756,114.273h-33.749c-4.236,0-7.67-3.434-7.67-7.671c0-4.236,3.434-7.67,7.67-7.67h33.749
		c4.236,0,7.671,3.434,7.671,7.67C193.427,110.84,189.993,114.273,185.756,114.273z"/>
</g>
<path style="fill:#FFC987;" d="M342.231,254.964v15.272c0,4.5,3.682,8.182,8.182,8.182h23.522c4.5,0,8.182-3.682,8.182-8.182
	v-15.272L342.231,254.964L342.231,254.964z"/>
<path style="fill:#94C2ED;" d="M361.112,380.677c-17.898,0-35.791-6.811-49.415-20.437c-2.929-2.929-2.929-7.678,0-10.606
	c2.929-2.929,7.678-2.928,10.606,0.001c21.399,21.399,56.219,21.398,77.62-0.001c2.929-2.929,7.678-2.928,10.607,0.001
	c2.929,2.929,2.928,7.678-0.001,10.606C396.906,373.863,379.006,380.677,361.112,380.677z"/>
<path style="fill:#445EA0;" d="M361.113,357.293L361.113,357.293c-13.217-0.001-25.63-5.136-34.953-14.46
	c-2.929-2.929-2.928-7.678,0-10.606c2.93-2.928,7.678-2.929,10.607,0.001c6.49,6.49,15.136,10.065,24.345,10.065
	c9.21,0,17.856-3.574,24.347-10.065c2.93-2.928,7.677-2.929,10.607,0.001c2.929,2.929,2.928,7.678-0.001,10.606
	C386.742,352.158,374.329,357.293,361.113,357.293z"/>
<g>
	<path style="fill:#2E4C89;" d="M361.112,333.791c-7.74,0-15.017-3.015-20.49-8.487c-2.929-2.93-2.929-7.678,0-10.607
		c2.929-2.928,7.678-2.928,10.606,0c2.64,2.641,6.15,4.095,9.884,4.095s7.243-1.454,9.883-4.094
		c2.929-2.93,7.678-2.929,10.607-0.001c2.929,2.929,2.929,7.678,0,10.606C376.129,330.776,368.853,333.791,361.112,333.791z"/>
	<path style="fill:#2E4C89;" d="M319.842,310.552c0,1.649-1.35,3-3,3h-22.747c-1.65,0-3-1.351-3-3v-59.394c0-1.65,1.35-3,3-3h22.747
		c1.65,0,3,1.35,3,3V310.552z"/>
</g>
<g>
</g>
<g>
</g>
<g>
</g>
<g>
</g>
<g>
</g>
<g>
</g>
<g>
</g>
<g>
</g>
<g>
</g>
<g>
</g>
<g>
</g>
<g>
</g>
<g>
</g>
<g>
</g>
<g>
</g>
</svg>
