<?xml version="1.0" encoding="iso-8859-1"?>
<!-- Generator: Adobe Illustrator 19.0.0, SVG Export Plug-In . SVG Version: 6.00 Build 0)  -->
<svg version="1.1" id="Capa_1" xmlns="http://www.w3.org/2000/svg" xmlns:xlink="http://www.w3.org/1999/xlink" x="0px" y="0px"
	 viewBox="0 0 512 512" style="enable-background:new 0 0 512 512;" xml:space="preserve">
<circle style="fill:#94C2ED;" cx="261.5" cy="267" r="245"/>
<circle style="fill:#FFAF10;" cx="261.5" cy="267" r="245"/>
<path style="fill:#02AF8E;" d="M5.5,5c0-2.75,2.25-5,5-5h159c2.75,0,5,2.25,5,5v119c0,2.75-2.25,5-5,5h-42c-2.75,0-5,2.25-5,5v25
	c0,2.75-1.831,3.692-4.069,2.094l-40.862-29.188C75.331,130.308,71.25,129,68.5,129h-58c-2.75,0-5-2.25-5-5V5z"/>
<path style="fill:#159E97;" d="M26,124V5c0-2.75,2.25-5,5-5H10.5c-2.75,0-5,2.25-5,5v119c0,2.75,2.25,5,5,5H31
	C28.25,129,26,126.75,26,124z"/>
<path style="fill:#FFFFFF;" d="M123.776,102.82c-9.826,9.827-35.443,0.815-55.938-19.682C47.342,62.644,38.329,37.027,48.156,27.2
	l11.913-11.913c1.716-1.717,4.499-1.717,6.216,0L77.68,26.683c1.717,1.717,1.716,4.498,0,6.214L65.766,44.811
	c-1.143,1.142-1.142,3.002-0.001,4.145l36.258,36.257c1.142,1.143,3,1.143,4.144-0.002l11.913-11.912
	c1.716-1.716,4.499-1.716,6.215,0l11.395,11.395c1.717,1.718,1.716,4.5,0,6.216L123.776,102.82z"/>
<g>
	<path style="fill:#1A2B63;" d="M221,58c0-0.755,0.103-1.484,0.28-2.186c-48.827,10.616-83.081,50.263-83.081,100.432v17.114h15
		c0.552,0,1-0.447,1-1v-16.114c0-24.605,9.73-46.975,27.398-62.987c10.969-9.942,24.479-17.032,39.403-20.89V58z"/>
	<path style="fill:#1A2B63;" d="M301.72,55.814C301.896,56.516,302,57.245,302,58v14.369c14.925,3.857,28.434,10.947,39.403,20.89
		c17.668,16.013,27.397,38.382,27.397,62.987v16.114c0,0.553,0.448,1,1,1h15v-17.114C384.801,106.077,350.547,66.431,301.72,55.814z
		"/>
</g>
<path style="fill:#445EA0;" d="M247.862,69h27.276c9.645,0,19.008,1.24,27.862,3.624V58c0-5.5-4.5-10-10-10h-63c-5.5,0-10,4.5-10,10
	v14.624C228.853,70.24,238.218,69,247.862,69z"/>
<g>
	<path style="fill:#2E4C89;" d="M154.199,272.522V172.36H129.5c-7.732,0-14,6.268-14,14v78c0,7.732,6.268,14,14,14h24.905
		C154.273,276.414,154.199,274.468,154.199,272.522z"/>
	<path style="fill:#2E4C89;" d="M393.5,172.36h-24.699v9.333h0.699c4.962,0,9,4.037,9,9v11h27.727c0.433,0,0.856,0.041,1.273,0.1
		V186.36C407.5,178.628,401.232,172.36,393.5,172.36z"/>
	<path style="fill:#2E4C89;" d="M406.227,247.693H378.5v11c0,4.963-4.038,9-9,9h-0.699v4.829c0,1.945-0.074,3.892-0.206,5.838H393.5
		c7.732,0,14-6.268,14-14v-16.768C407.083,247.652,406.661,247.693,406.227,247.693z"/>
</g>
<path style="fill:#1A2B63;" d="M406.227,200.693H378.5v48h27.727c5.5,0,10-4.5,10-10v-28
	C416.227,205.193,411.727,200.693,406.227,200.693z"/>
<path style="fill:#2E4C89;" d="M365.438,383.964h-51.851v-23.722c-13.375,6.98-27.962,10.758-42.46,10.758h-19.253
	c-14.497,0-29.084-3.777-42.459-10.757v23.721h-51.853c-18.79,0-34.079,15.29-34.079,34.08v51.396
	C162.789,496.289,210.307,512,261.5,512s98.711-15.711,138.017-42.56v-51.396C399.517,399.254,384.228,383.964,365.438,383.964z"/>
<path style="fill:#293D7C;" d="M136.966,428.984c0-17.138,13.942-31.08,31.079-31.08h51.853c1.657,0,3-1.343,3-3v-28.863
	c-4.593-1.578-9.104-3.513-13.483-5.798v23.721h-51.853c-18.79,0-34.079,15.29-34.079,34.08v51.396
	c4.392,3,8.892,5.853,13.483,8.568V428.984z"/>
<path style="fill:#1A2B63;" d="M261.5,395c-3.861,0-7.423-1.272-10.32-3.398v120.166c3.424,0.143,6.861,0.232,10.32,0.232
	s6.896-0.09,10.32-0.232V391.602C268.923,393.728,265.361,395,261.5,395z"/>
<path style="fill:#60D882;" d="M271.126,371h-19.253c-2.516,0-5.035-0.12-7.55-0.344c-0.845,2.118-1.323,4.424-1.323,6.844
	c0,10.217,8.283,18.5,18.5,18.5c10.217,0,18.5-8.283,18.5-18.5c0-2.42-0.478-4.726-1.323-6.844
	C276.162,370.88,273.643,371,271.126,371z"/>
<path style="fill:#2BB381;" d="M253,377.5c0-2.292,0.44-4.476,1.204-6.5h-2.331c-2.516,0-5.035-0.12-7.55-0.344
	c-0.845,2.118-1.323,4.424-1.323,6.844c0,10.217,8.283,18.5,18.5,18.5c1.735,0,3.408-0.256,5-0.703
	C258.715,393.113,253,385.981,253,377.5z"/>
<path style="fill:#DB722C;" d="M366.732,181.693h2.768c0.102,0,0.2,0.012,0.301,0.016v-25.463c0-52.281-42.381-88.246-94.663-88.246
	h-27.276c-52.282,0-94.663,35.965-94.663,88.246v49c0-52.281,42.381-88.246,94.663-88.246h27.276
	C319.132,117,356.112,142.469,366.732,181.693z"/>
<path style="fill:#C65E24;" d="M268.663,68h-20.801c-52.282,0-94.663,35.965-94.663,88.246v49c0-22.607,7.929-42.159,21.152-57.076
	C178.474,100.299,219.12,68,268.663,68z"/>
<path style="fill:#FFE2B8;" d="M369.5,267.693h-84c-4.962,0-9-4.037-9-9v-68c0-4.963,4.038-9,9-9h81.674
	c-9.995-40.195-47.405-66.408-92.036-66.408h-27.276c-52.282,0-94.663,35.965-94.663,88.246v68.991
	c0,52.28,46.393,99.478,98.674,99.478h19.253c52.281,0,98.674-47.197,98.674-99.478v-4.845
	C369.7,267.682,369.602,267.693,369.5,267.693z"/>
<g>
	<path style="fill:#FFC987;" d="M369.801,267.693v-0.016c-0.101,0.004-0.199,0.016-0.301,0.016H369.801z"/>
	<path style="fill:#FFC987;" d="M174,272.522v-68.991c0-52.281,42.381-88.246,94.663-88.246h-20.801
		c-52.282,0-94.663,35.965-94.663,88.246v68.991c0,52.28,46.393,99.478,98.674,99.478h19.253c0.258,0,0.516-0.009,0.774-0.011
		C219.936,371.525,174,324.545,174,272.522z"/>
</g>
<g>
	<path style="fill:#EBAA48;" d="M207.355,251.549c-4.142,0-7.5-3.357-7.5-7.5v-20.158c0-4.143,3.358-7.5,7.5-7.5s7.5,3.357,7.5,7.5
		v20.158C214.855,248.191,211.498,251.549,207.355,251.549z"/>
	<path style="fill:#EBAA48;" d="M272.329,291.254h-13.048c-6.893,0-12.5-5.607-12.5-12.5v-32.9c0-4.143,3.358-7.5,7.5-7.5
		s7.5,3.357,7.5,7.5v30.4h10.548c4.142,0,7.5,3.357,7.5,7.5S276.471,291.254,272.329,291.254z"/>
	<path style="fill:#EBAA48;" d="M261.5,335.32c-14.899,0-29.797-5.671-41.14-17.013c-2.929-2.93-2.929-7.678,0-10.607
		c2.929-2.928,7.678-2.928,10.606,0c16.836,16.837,44.23,16.835,61.066,0c2.929-2.928,7.678-2.928,10.607,0
		c2.929,2.93,2.929,7.678,0,10.607C291.297,329.649,276.398,335.32,261.5,335.32z"/>
</g>
<path style="fill:#445EA0;" d="M379.5,258.693c0,5.5-4.5,10-10,10h-84c-5.5,0-10-4.5-10-10v-68c0-5.5,4.5-10,10-10h84
	c5.5,0,10,4.5,10,10V258.693z"/>
<path style="fill:#2E4C89;" d="M291,258.693v-68c0-5.5,4.5-10,10-10h-15.5c-5.5,0-10,4.5-10,10v68c0,5.5,4.5,10,10,10H301
	C295.5,268.693,291,264.193,291,258.693z"/>
<circle style="fill:#293D7C;" cx="327.5" cy="224.69" r="32"/>
<path style="fill:#69CDFF;" d="M327.5,240.693c-8.822,0-16-7.177-16-16s7.178-16,16-16s16,7.177,16,16
	C343.5,233.517,336.322,240.693,327.5,240.693z"/>
<path style="fill:#2DA1DC;" d="M322,224.693c0-6.982,4.502-12.918,10.75-15.098c-1.648-0.574-3.409-0.902-5.25-0.902
	c-8.822,0-16,7.177-16,16s7.178,16,16,16c1.841,0,3.602-0.328,5.25-0.902C326.502,237.611,322,231.676,322,224.693z"/>
<circle style="fill:#FFCA51;" cx="135.62" cy="251.87" r="9.126"/>
<circle style="fill:#FFFFFF;" cx="135.62" cy="224.66" r="9.126"/>
<circle style="fill:#2E4C89;" cx="365.63" cy="253.12" r="9.126"/>
<path style="fill:#60D882;" d="M63.743,274.727c-1.92,0-3.839-0.732-5.304-2.197c-27.247-27.249-27.247-71.585,0-98.833
	c2.929-2.928,7.678-2.928,10.606,0c2.929,2.93,2.929,7.678,0,10.607c-21.399,21.398-21.399,56.219,0,77.62
	c2.929,2.929,2.928,7.678,0,10.607C67.582,273.994,65.662,274.727,63.743,274.727z"/>
<path style="fill:#2BB381;" d="M81.148,260.262c-1.919,0-3.839-0.732-5.303-2.196c-19.272-19.272-19.271-50.632,0.002-69.906
	c2.929-2.928,7.678-2.928,10.606,0c2.929,2.93,2.929,7.678,0,10.607c-13.425,13.425-13.426,35.268-0.002,48.691
	c2.929,2.93,2.929,7.678,0,10.607C84.987,259.529,83.068,260.262,81.148,260.262z"/>
<path style="fill:#159E97;" d="M98.681,245.799c-1.92,0-3.838-0.732-5.303-2.196c-5.473-5.473-8.488-12.75-8.488-20.49
	s3.015-15.018,8.488-20.49c2.93-2.928,7.678-2.929,10.607,0.001c2.929,2.929,2.928,7.678,0,10.607
	c-2.64,2.64-4.094,6.149-4.094,9.883s1.454,7.243,4.094,9.883c2.929,2.929,2.929,7.678,0,10.606
	C102.52,245.066,100.6,245.799,98.681,245.799z"/>
<path style="fill:#60D882;" d="M464.937,274.723c-1.919,0-3.839-0.732-5.303-2.196c-2.929-2.93-2.929-7.678,0-10.607
	c21.399-21.398,21.399-56.219,0-77.62c-2.929-2.929-2.928-7.678,0-10.606c2.929-2.929,7.678-2.928,10.607,0.001
	c27.247,27.249,27.247,71.585,0,98.833C468.776,273.99,466.857,274.723,464.937,274.723z"/>
<path style="fill:#2BB381;" d="M447.53,260.26c-1.919,0-3.839-0.732-5.303-2.196c-2.929-2.93-2.929-7.678,0-10.607
	c13.425-13.425,13.426-35.268,0.002-48.691c-2.929-2.93-2.929-7.678,0-10.607c2.929-2.928,7.678-2.928,10.606,0
	c19.272,19.273,19.271,50.632-0.002,69.906C451.369,259.527,449.45,260.26,447.53,260.26z"/>
<path style="fill:#159E97;" d="M430,245.797c-1.919,0-3.839-0.732-5.304-2.197c-2.929-2.929-2.928-7.678,0-10.606
	c2.64-2.64,4.094-6.149,4.094-9.883s-1.454-7.243-4.094-9.883c-2.929-2.929-2.929-7.678,0-10.606
	c2.929-2.93,7.677-2.929,10.607-0.001c5.473,5.473,8.488,12.75,8.488,20.49s-3.015,15.018-8.488,20.49
	C433.838,245.064,431.919,245.797,430,245.797z"/>
<g>
</g>
<g>
</g>
<g>
</g>
<g>
</g>
<g>
</g>
<g>
</g>
<g>
</g>
<g>
</g>
<g>
</g>
<g>
</g>
<g>
</g>
<g>
</g>
<g>
</g>
<g>
</g>
<g>
</g>
</svg>
