<?xml version="1.0" encoding="iso-8859-1"?>
<!-- Generator: Adobe Illustrator 19.0.0, SVG Export Plug-In . SVG Version: 6.00 Build 0)  -->
<svg version="1.1" id="Capa_1" xmlns="http://www.w3.org/2000/svg" xmlns:xlink="http://www.w3.org/1999/xlink" x="0px" y="0px"
	 viewBox="0 0 512 512" style="enable-background:new 0 0 512 512;" xml:space="preserve">
<circle style="fill:#9CE2D8;" cx="256" cy="267" r="245"/>
<g>
	<path style="fill:#69CDFF;" d="M236.405,70.154h39.189C263.811,62.151,248.187,62.15,236.405,70.154z"/>
	<path style="fill:#69CDFF;" d="M480.641,0H188.985c-7.145,0-12.991,5.262-12.991,11.693s5.847,11.691,12.991,11.691h16.239
		c7.145,0,12.99,5.262,12.99,11.692c0,0.485-0.044,0.961-0.108,1.431c11.212-7.156,24.249-11.008,37.895-11.008
		c18.872,0,36.594,7.331,49.905,20.644c2.929,2.929,2.929,7.678-0.001,10.606c-1.464,1.464-3.384,2.196-5.303,2.196
		c-1.92,0-3.839-0.732-5.304-2.197C284.822,46.271,270.865,40.5,256.001,40.5c-14.865,0-28.822,5.771-39.301,16.25
		c-2.929,2.929-7.678,2.928-10.607-0.001c-2.733-2.733-2.913-7.05-0.545-9.994c-0.108,0.002-0.214,0.015-0.323,0.015h-74.049
		c-7.148,0-12.993,5.26-12.993,11.691c0,6.433,5.845,11.693,12.993,11.693h87.436c-0.338-2.271,0.358-4.666,2.106-6.414
		c9.412-9.41,21.942-14.593,35.281-14.593c0.001,0,0.001,0,0.002,0c13.341,0,25.87,5.184,35.281,14.596
		c1.747,1.747,2.443,4.142,2.105,6.411h97.285c7.145,0,12.991-5.261,12.991-11.693s-5.846-11.691-12.991-11.691h-64.627
		c-7.147,0-12.991-5.261-12.991-11.692s5.844-11.692,12.991-11.692H480.64c7.147,0,12.991-5.261,12.991-11.691
		C493.632,5.262,487.787,0,480.641,0z"/>
	<path style="fill:#69CDFF;" d="M115.57,21.714c0,6.43-5.847,11.693-12.99,11.693H51.912c-7.145,0-12.991-5.264-12.991-11.693
		c0-6.432,5.847-11.692,12.991-11.692h50.668C109.724,10.021,115.57,15.282,115.57,21.714z"/>
	<path style="fill:#69CDFF;" d="M138,91.901c0,6.431-5.846,11.694-12.991,11.694H74.343c-7.145,0-12.991-5.264-12.991-11.694
		s5.847-11.693,12.991-11.693h50.666C132.154,80.208,138,85.472,138,91.901z"/>
	<path style="fill:#69CDFF;" d="M403,107.985c0,6.431-5.846,11.694-12.99,11.694h-50.666c-7.146,0-12.992-5.264-12.992-11.694
		s5.847-11.693,12.992-11.693h50.666C397.154,96.292,403,101.556,403,107.985z"/>
</g>
<path style="fill:#FFFFFF;" d="M326.81,222v-43.773c0-39.108-31.703-70.81-70.81-70.81c-39.108,0-70.811,31.702-70.811,70.81V222
	H326.81z"/>
<path style="fill:#EEF6FF;" d="M266.405,108.185c-3.396-0.5-6.869-0.768-10.405-0.768c-39.108,0-70.811,31.702-70.811,70.81V222H206
	v-43.773C206,142.655,232.232,113.219,266.405,108.185z"/>
<circle style="fill:#C3DDF4;" cx="256" cy="172.92" r="37.5"/>
<g>
	<path style="fill:#2E4C89;" d="M380.627,257.307h-24.994l-3.32,15h28.315c1.355,0,2.5,1.145,2.5,2.5v124.221
		c0,1.355-1.145,2.5-2.5,2.5H347v15h33.627c9.649,0,17.5-7.851,17.5-17.5V274.807C398.127,265.157,390.276,257.307,380.627,257.307z
		"/>
	<path style="fill:#2E4C89;" d="M165,401.527h-33.627c-1.355,0-2.5-1.145-2.5-2.5v-124.22c0-1.355,1.145-2.5,2.5-2.5h28.314
		l-3.32-15h-24.994c-9.649,0-17.5,7.851-17.5,17.5v124.221c0,9.649,7.851,17.5,17.5,17.5H165V401.527z"/>
</g>
<g>
	<path style="fill:#445EA0;" d="M181.5,387.417H169c-2.75,0-5,2.25-5,5v31c0,2.75,2.25,5,5,5h12.5V387.417z"/>
	<path style="fill:#445EA0;" d="M343,387.417h-12.5v41H343c2.75,0,5-2.25,5-5v-31C348,389.667,345.75,387.417,343,387.417z"/>
</g>
<path style="fill:#EBAA48;" d="M274.5,374v19.417c0,2.206-1.794,4-4,4h-29c-2.206,0-4-1.794-4-4V374h-57v92.417c0,2.75,2.25,5,5,5
	h141c2.75,0,5-2.25,5-5V374H274.5z"/>
<path style="fill:#EF9614;" d="M201,466.417V374h-20.5v92.417c0,2.75,2.25,5,5,5H206C203.25,471.417,201,469.167,201,466.417z"/>
<path style="fill:#FFFFFF;" d="M250,456.917c0,1.649-1.35,3-3,3h-48.909c-1.65,0-3-1.351-3-3v-45c0-1.649,1.35-3,3-3H247
	c1.65,0,3,1.351,3,3V456.917z"/>
<path style="fill:#EEF6FF;" d="M206,456.917v-45c0-1.649,1.35-3,3-3h-10.909c-1.65,0-3,1.351-3,3v45c0,1.649,1.35,3,3,3H209
	C207.35,459.917,206,458.566,206,456.917z"/>
<g>
	<path style="fill:#FFAF10;" d="M333.5,339.417h-59v36h59c2.75,0,5-2.25,5-5v-26C338.5,341.667,336.25,339.417,333.5,339.417z"/>
	<path style="fill:#FFAF10;" d="M237.5,339.417h-59c-2.75,0-5,2.25-5,5v26c0,2.75,2.25,5,5,5h59V339.417z"/>
</g>
<path style="fill:#FF9518;" d="M194,370.417v-26c0-2.75,2.25-5,5-5h-20.5c-2.75,0-5,2.25-5,5v26c0,2.75,2.25,5,5,5H199
	C196.25,375.417,194,373.167,194,370.417z"/>
<path style="fill:#EEF6FF;" d="M151.733,241l10.105,45.653c1.188,5.37,6.661,9.764,12.161,9.764h164
	c5.5,0,10.973-4.394,12.161-9.764L360.267,241H151.733z"/>
<path style="fill:#C3DDF4;" d="M182.572,286.653L172.467,241h-20.733l10.105,45.653c1.188,5.37,6.661,9.764,12.161,9.764h20.733
	C189.233,296.417,183.761,292.023,182.572,286.653z"/>
<path style="fill:#60D882;" d="M206.425,241c1.363,8.956,9.124,15.883,18.447,15.883h62.258c9.321,0,17.082-6.927,18.445-15.883
	H206.425z"/>
<path style="fill:#37C47A;" d="M227,241h-20.575c1.363,8.956,9.124,15.883,18.447,15.883h20.575
	C236.124,256.883,228.363,249.956,227,241z"/>
<path style="fill:#EF8318;" d="M236.5,339.417v54c0,2.75,2.25,5,5,5h29c2.75,0,5-2.25,5-5v-54H236.5z"/>
<g>
	<path style="fill:#DB722C;" d="M266.538,423.417h46.924c4.143,0,7.5-3.357,7.5-7.5s-3.357-7.5-7.5-7.5h-46.924
		c-4.143,0-7.5,3.357-7.5,7.5S262.395,423.417,266.538,423.417z"/>
	<path style="fill:#DB722C;" d="M313.462,426.417h-46.924c-4.143,0-7.5,3.357-7.5,7.5s3.357,7.5,7.5,7.5h46.924
		c4.143,0,7.5-3.357,7.5-7.5S317.604,426.417,313.462,426.417z"/>
	<path style="fill:#DB722C;" d="M293.754,444.417h-27.216c-4.143,0-7.5,3.357-7.5,7.5s3.357,7.5,7.5,7.5h27.216
		c4.143,0,7.5-3.357,7.5-7.5S297.897,444.417,293.754,444.417z"/>
</g>
<circle style="fill:#52BBEF;" cx="256" cy="172.92" r="24.569"/>
<path style="fill:#2DA1DC;" d="M241.862,172.917c0-11.779,8.291-21.616,19.353-24.009c-1.681-0.363-3.425-0.56-5.215-0.56
	c-13.569,0-24.569,10.999-24.569,24.568c0,13.569,10.999,24.568,24.569,24.568c1.79,0,3.534-0.196,5.215-0.56
	C250.152,194.533,241.862,184.696,241.862,172.917z"/>
<g>
	<path style="fill:#445EA0;" d="M79.5,157.917v-8.5c0-2.75-2.25-5-5-5h-9c-2.75,0-5,2.25-5,5v8.5H79.5z"/>
	<rect x="60.5" y="170.92" style="fill:#445EA0;" width="19" height="34.5"/>
</g>
<path style="fill:#2E4C89;" d="M132.5,171.917H7.5c-4.142,0-7.5-3.357-7.5-7.5s3.358-7.5,7.5-7.5h125c4.142,0,7.5,3.357,7.5,7.5
	C140,168.56,136.642,171.917,132.5,171.917z"/>
<g>
	<path style="fill:#445EA0;" d="M451.5,157.917v-8.5c0-2.75-2.25-5-5-5h-9c-2.75,0-5,2.25-5,5v8.5H451.5z"/>
	<rect x="432.5" y="170.92" style="fill:#445EA0;" width="19" height="34.5"/>
</g>
<path id="SVGCleanerId_0" style="fill:#0F9390;" d="M98.5,223.583V209c0-2.75-2.25-5-5-5h-47c-2.75,0-5,2.25-5,5v14.583
	L98.5,223.583L98.5,223.583z"/>
<g>
	<path id="SVGCleanerId_0_1_" style="fill:#0F9390;" d="M98.5,223.583V209c0-2.75-2.25-5-5-5h-47c-2.75,0-5,2.25-5,5v14.583
		L98.5,223.583L98.5,223.583z"/>
</g>
<path style="fill:#0F9390;" d="M470.5,223.583V209c0-2.75-2.25-5-5-5h-47c-2.75,0-5,2.25-5,5v14.583L470.5,223.583L470.5,223.583z"
	/>
<path style="fill:#2E4C89;" d="M504.5,171.917h-125c-4.143,0-7.5-3.357-7.5-7.5s3.357-7.5,7.5-7.5h125c4.143,0,7.5,3.357,7.5,7.5
	C512,168.56,508.643,171.917,504.5,171.917z"/>
<path style="fill:#02AF8E;" d="M489,232.417c0,5.5-4.5,10-10,10H33c-5.5,0-10-4.5-10-10v-2c0-5.5,4.5-10,10-10h446
	c5.5,0,10,4.5,10,10V232.417z"/>
<path style="fill:#159E97;" d="M53,232.417v-2c0-5.5,4.5-10,10-10H33c-5.5,0-10,4.5-10,10v2c0,5.5,4.5,10,10,10h30
	C57.5,242.417,53,237.917,53,232.417z"/>
<circle style="fill:#2E4C89;" cx="283.25" cy="275.54" r="9.125"/>
<g>
	<circle style="fill:#02AF8E;" cx="256.03" cy="275.54" r="9.125"/>
	<circle style="fill:#02AF8E;" cx="228.75" cy="275.54" r="9.125"/>
</g>
<g>
	<path style="fill:#2E4C89;" d="M300.603,58.946c-1.92,0-3.839-0.732-5.304-2.197C284.822,46.271,270.865,40.5,256.001,40.5
		c-14.865,0-28.822,5.771-39.301,16.25c-2.929,2.929-7.678,2.928-10.607-0.001s-2.928-7.678,0.001-10.606
		C219.406,32.831,237.13,25.5,256.001,25.5c18.872,0,36.594,7.331,49.905,20.644c2.929,2.929,2.929,7.678-0.001,10.606
		C304.441,58.214,302.522,58.946,300.603,58.946z"/>
	<path style="fill:#2E4C89;" d="M285.978,76.546c-1.92,0-3.839-0.732-5.304-2.197c-13.605-13.605-35.744-13.606-49.35-0.001
		c-2.93,2.928-7.677,2.929-10.607-0.001c-2.929-2.929-2.928-7.678,0.001-10.607c9.412-9.41,21.942-14.593,35.281-14.593
		c0.001,0,0.001,0,0.002,0c13.341,0,25.87,5.184,35.281,14.596c2.929,2.929,2.929,7.678-0.001,10.606
		C289.817,75.813,287.897,76.546,285.978,76.546z"/>
	<path style="fill:#2E4C89;" d="M271.356,94.272c-1.92,0-3.84-0.732-5.305-2.197c-2.684-2.686-6.254-4.165-10.051-4.165
		s-7.367,1.479-10.051,4.165c-2.929,2.93-7.677,2.931-10.607,0.001c-2.929-2.928-2.93-7.677-0.001-10.606
		c5.518-5.52,12.855-8.56,20.66-8.56c7.805,0,15.142,3.04,20.66,8.56c2.928,2.93,2.927,7.679-0.002,10.607
		C275.194,93.541,273.275,94.272,271.356,94.272z"/>
</g>
<g>
</g>
<g>
</g>
<g>
</g>
<g>
</g>
<g>
</g>
<g>
</g>
<g>
</g>
<g>
</g>
<g>
</g>
<g>
</g>
<g>
</g>
<g>
</g>
<g>
</g>
<g>
</g>
<g>
</g>
</svg>
