<?xml version="1.0" encoding="iso-8859-1"?>
<!-- Generator: Adobe Illustrator 19.0.0, SVG Export Plug-In . SVG Version: 6.00 Build 0)  -->
<svg version="1.1" id="Capa_1" xmlns="http://www.w3.org/2000/svg" xmlns:xlink="http://www.w3.org/1999/xlink" x="0px" y="0px"
	 viewBox="0 0 512 512" style="enable-background:new 0 0 512 512;" xml:space="preserve">
<circle style="fill:#FFAF10;" cx="256" cy="267" r="245"/>
<path style="fill:#FFE2B8;" d="M443.15,140.464l-0.619-0.616c-9.132-9.131-24.072-9.131-33.201,0.002l-12.142,12.142v-6.058V30.545
	c0-5.5-4.5-10-10-10h-13.284c-5.5,0-10,4.5-10,10v95.389h-9.08V10c0-5.5-4.5-10-10-10H331.54c-5.5,0-10,4.5-10,10v115.934h-9.075
	V22.102c0-5.5-4.5-10-10-10h-13.291c-5.5,0-10,4.5-10,10v103.832h-9.073V47.428c0-5.5-4.5-10-10-10h-13.289c-5.5,0-10,4.5-10,10
	v169.986c0,11,9,20,20,20h10.39V264H367.54v-26.586h9.649c10.196,0,18.66-7.736,19.845-17.627l46.117-46.119
	C452.283,164.538,452.283,149.598,443.15,140.464z"/>
<path style="fill:#FFC987;" d="M282.39,264v-38.586c0-1.657-1.343-3-3-3H269c-9.374,0-17-7.626-17-17V37.428h-5.189
	c-5.5,0-10,4.5-10,10v169.986c0,11,9,20,20,20h10.39V264H282.39z"/>
<g>
	<path style="fill:#FFFFFF;" d="M134.941,140.22v-14.201c0-4.143-3.357-7.5-7.5-7.5s-7.5,3.357-7.5,7.5v14.201H134.941z"/>
	<path style="fill:#FFFFFF;" d="M92,168.963h14.198v-15H92c-4.143,0-7.5,3.357-7.5,7.5C84.5,165.605,87.857,168.963,92,168.963z"/>
	<path style="fill:#FFFFFF;" d="M158.568,140.22v-14.201c0-4.143-3.357-7.5-7.5-7.5s-7.5,3.357-7.5,7.5v14.201H158.568z"/>
	<path style="fill:#FFFFFF;" d="M195.939,168.963h14.198c4.143,0,7.5-3.357,7.5-7.5s-3.357-7.5-7.5-7.5h-14.198V168.963z"/>
	<path style="fill:#FFFFFF;" d="M182.195,140.22v-14.201c0-4.143-3.357-7.5-7.5-7.5s-7.5,3.357-7.5,7.5v14.201H182.195z"/>
	<path style="fill:#FFFFFF;" d="M92,192.589h14.198v-15H92c-4.143,0-7.5,3.357-7.5,7.5C84.5,189.231,87.857,192.589,92,192.589z"/>
	<path style="fill:#FFFFFF;" d="M210.137,201.215h-14.198v15h14.198c4.143,0,7.5-3.357,7.5-7.5
		C217.637,204.572,214.279,201.215,210.137,201.215z"/>
	<path style="fill:#FFFFFF;" d="M167.195,229.957v14.201c0,4.143,3.357,7.5,7.5,7.5s7.5-3.357,7.5-7.5v-14.201H167.195z"/>
	<path style="fill:#FFFFFF;" d="M210.137,177.589h-14.198v15h14.198c4.143,0,7.5-3.357,7.5-7.5S214.279,177.589,210.137,177.589z"/>
	<path style="fill:#FFFFFF;" d="M106.198,201.215H92c-4.143,0-7.5,3.357-7.5,7.5s3.357,7.5,7.5,7.5h14.198V201.215z"/>
	<path style="fill:#FFFFFF;" d="M143.568,229.957v14.201c0,4.143,3.357,7.5,7.5,7.5s7.5-3.357,7.5-7.5v-14.201H143.568z"/>
	<path style="fill:#FFFFFF;" d="M119.941,229.957v14.201c0,4.143,3.357,7.5,7.5,7.5s7.5-3.357,7.5-7.5v-14.201H119.941z"/>
</g>
<path style="fill:#1A2B63;" d="M196.939,220.957c0,5.5-4.5,10-10,10h-71.74c-5.5,0-10-4.5-10-10V149.22c0-5.5,4.5-10,10-10h71.74
	c5.5,0,10,4.5,10,10V220.957z"/>
<path style="fill:#445EA0;" d="M174.464,203.483c0,2.75-2.25,5-5,5h-36.791c-2.75,0-5-2.25-5-5v-36.79c0-2.75,2.25-5,5-5h36.791
	c2.75,0,5,2.25,5,5V203.483z"/>
<g>
	<path style="fill:#2E4C89;" d="M141,203.483v-36.79c0-2.75,2.25-5,5-5h-13.327c-2.75,0-5,2.25-5,5v36.79c0,2.75,2.25,5,5,5H146
		C143.25,208.483,141,206.233,141,203.483z"/>
	<path style="fill:#2E4C89;" d="M253.021,305v206.963c0.993,0.012,1.982,0.037,2.979,0.037c45.963,0,88.961-12.668,125.717-34.686
		V305H253.021z"/>
</g>
<path style="fill:#293D7C;" d="M284.305,305h-31.283v206.963c0.993,0.012,1.982,0.037,2.979,0.037
	c9.574,0,19.018-0.558,28.305-1.627L284.305,305L284.305,305z"/>
<path style="fill:#445EA0;" d="M242.115,296.449c0,5.5,4.5,10,10,10h130.508c5.5,0,10-4.5,10-10v-23.625c0-5.5-4.5-10-10-10H252.115
	c-5.5,0-10,4.5-10,10V296.449z"/>
<path style="fill:#2E4C89;" d="M273.492,296.449v-23.625c0-5.5,4.5-10,10-10h-31.377c-5.5,0-10,4.5-10,10v23.625c0,5.5,4.5,10,10,10
	h31.377C277.992,306.449,273.492,301.949,273.492,296.449z"/>
<path style="fill:#FFC987;" d="M330,216.889c-4.143,0-7.5-3.357-7.5-7.5c0-28.656,23.315-51.971,51.971-51.971
	c4.143,0,7.5,3.357,7.5,7.5s-3.357,7.5-7.5,7.5c-20.386,0-36.971,16.585-36.971,36.971C337.5,213.531,334.143,216.889,330,216.889z"
	/>
<path style="fill:#1A2B63;" d="M200.49,370c0,5.5-4.5,10-10,10h-78.844c-5.5,0-10-4.5-10-10v-78.842c0-5.5,4.5-10,10-10h78.844
	c5.5,0,10,4.5,10,10V370z"/>
<g>
	<path style="fill:#FFCA51;" d="M152.999,297.795c0.074,0,0.152,0.007,0.228,0.021c0.59,0.109,1.015,0.623,1.015,1.221v27.122h9.327
		c0.408,0,0.791,0.201,1.023,0.539c0.231,0.336,0.282,0.767,0.135,1.148l-14.431,37.501c-0.188,0.486-0.652,0.797-1.158,0.797
		c-0.074,0-0.152-0.008-0.227-0.021c-0.588-0.109-1.016-0.623-1.016-1.221V337.78h-9.325c-0.409,0-0.792-0.202-1.024-0.54
		c-0.231-0.336-0.282-0.767-0.135-1.148l14.431-37.501C152.028,298.104,152.493,297.795,152.999,297.795z"/>
	<circle style="fill:#FFCA51;" cx="356" cy="359" r="9.126"/>
</g>
<circle style="fill:#FFFFFF;" cx="356" cy="331.78" r="9.126"/>
<g>
</g>
<g>
</g>
<g>
</g>
<g>
</g>
<g>
</g>
<g>
</g>
<g>
</g>
<g>
</g>
<g>
</g>
<g>
</g>
<g>
</g>
<g>
</g>
<g>
</g>
<g>
</g>
<g>
</g>
</svg>
