<?xml version="1.0" encoding="iso-8859-1"?>
<!-- Generator: Adobe Illustrator 19.0.0, SVG Export Plug-In . SVG Version: 6.00 Build 0)  -->
<svg version="1.1" id="Capa_1" xmlns="http://www.w3.org/2000/svg" xmlns:xlink="http://www.w3.org/1999/xlink" x="0px" y="0px"
	 viewBox="0 0 512 512" style="enable-background:new 0 0 512 512;" xml:space="preserve">
<circle style="fill:#9CE2D8;" cx="256" cy="267" r="245"/>
<path style="fill:#FF8DB9;" d="M81.571,439c44.427,45.055,106.156,73,174.429,73s130.002-27.945,174.429-73H81.571z"/>
<path style="fill:#159E97;" d="M249.437,110.506V51c0-3.584,2.916-6.5,6.5-6.5s6.5,2.916,6.5,6.5v59.506
	c18.875-11.101,30.784-31.568,30.784-53.714c0-24.188-14.202-46.385-36.178-56.549C256.692,0.081,256.314,0,255.937,0
	s-0.754,0.081-1.104,0.243c-21.978,10.163-36.179,32.36-36.179,56.549C218.654,78.937,230.562,99.405,249.437,110.506z"/>
<path style="fill:#0F9390;" d="M229,56.792c0-22.661,12.465-43.573,32.111-54.481c-1.324-0.735-2.68-1.426-4.068-2.067
	C256.692,0.081,256.314,0,255.937,0s-0.754,0.081-1.104,0.243c-21.978,10.163-36.179,32.36-36.179,56.549
	c0,22.145,11.908,42.613,30.783,53.714v-7.638C236.665,91.232,229,74.554,229,56.792z"/>
<path style="fill:#2BB381;" d="M347.857,89.052c-0.098-0.268-0.252-0.508-0.45-0.705c-0.196-0.195-0.435-0.35-0.703-0.448
	c-16.769-6.164-35.76-1.992-48.38,10.628c-11.251,11.252-15.78,27.563-12.264,42.854l24.879-24.88
	c1.228-1.227,2.86-1.902,4.596-1.902c1.736,0,3.369,0.676,4.596,1.902c2.534,2.534,2.534,6.659,0,9.193l-24.311,24.311
	c14.865,2.915,30.511-1.676,41.408-12.573C349.85,124.811,354.02,105.82,347.857,89.052z"/>
<g>
	<path style="fill:#159E97;" d="M308.431,98.526c7.511-7.511,17.277-12.027,27.489-13.156c-13.684-1.504-27.627,3.188-37.596,13.156
		c-11.251,11.252-15.78,27.563-12.264,42.854l8.967-8.968C294.669,119.953,299.362,107.596,308.431,98.526z"/>
	<path style="fill:#159E97;" d="M215.905,149.856l-24.163-24.163c-2.534-2.534-2.534-6.659,0-9.193
		c1.228-1.227,2.86-1.902,4.596-1.902s3.369,0.676,4.596,1.902l24.154,24.154c3.21-15.078-1.357-31.055-12.43-42.128
		c-12.621-12.62-31.611-16.792-48.38-10.628c-0.268,0.099-0.507,0.253-0.703,0.448c-0.197,0.197-0.352,0.438-0.45,0.705
		c-6.163,16.768-1.992,35.759,10.629,48.379C184.832,148.51,200.82,153.075,215.905,149.856z"/>
</g>
<path style="fill:#0F9390;" d="M184.437,137.431c-12.621-12.62-16.792-31.61-10.629-48.379c0.099-0.268,0.253-0.508,0.45-0.705
	c0.196-0.195,0.436-0.35,0.703-0.448c3.429-1.261,6.951-2.082,10.492-2.494c-7.037-0.821-14.293-0.035-21.176,2.494
	c-0.268,0.099-0.507,0.253-0.703,0.448c-0.197,0.197-0.352,0.438-0.45,0.705c-6.163,16.768-1.992,35.759,10.629,48.379
	c10.038,10.038,24.104,14.706,37.878,13.105C201.528,149.355,191.875,144.869,184.437,137.431z"/>
<path style="fill:#159E97;" d="M347.857,162.051c-0.098-0.267-0.252-0.507-0.45-0.704c-0.196-0.196-0.435-0.35-0.703-0.449
	c-16.769-6.163-35.76-1.991-48.38,10.629c-11.251,11.252-15.78,27.563-12.264,42.854l24.879-24.88
	c1.228-1.227,2.86-1.902,4.596-1.902c1.736,0,3.369,0.676,4.596,1.902c2.534,2.534,2.534,6.659,0,9.193l-24.311,24.311
	c14.865,2.915,30.511-1.676,41.408-12.573C349.85,197.811,354.02,178.82,347.857,162.051z"/>
<path style="fill:#0F9390;" d="M308.431,171.526c7.511-7.511,17.278-12.028,27.491-13.156c-13.684-1.504-27.628,3.188-37.597,13.156
	c-11.251,11.252-15.78,27.563-12.264,42.854l8.967-8.968C294.669,192.953,299.362,180.596,308.431,171.526z"/>
<path style="fill:#2BB381;" d="M191.742,198.693c-2.534-2.534-2.534-6.659,0-9.193c1.228-1.227,2.86-1.902,4.596-1.902
	s3.369,0.676,4.596,1.902l24.154,24.154c3.21-15.078-1.357-31.055-12.43-42.128c-12.621-12.62-31.611-16.792-48.38-10.629
	c-0.268,0.1-0.507,0.253-0.703,0.449c-0.197,0.197-0.352,0.438-0.45,0.704c-6.163,16.77-1.992,35.76,10.629,48.38
	c11.079,11.079,27.066,15.645,42.151,12.426L191.742,198.693z"/>
<path style="fill:#159E97;" d="M184.437,210.431c-12.621-12.62-16.792-31.61-10.629-48.38c0.099-0.267,0.253-0.507,0.45-0.704
	c0.196-0.196,0.436-0.35,0.703-0.449c3.429-1.26,6.95-2.081,10.491-2.493c-7.037-0.821-14.292-0.036-21.175,2.493
	c-0.268,0.1-0.507,0.253-0.703,0.449c-0.197,0.197-0.352,0.438-0.45,0.704c-6.163,16.77-1.992,35.76,10.629,48.38
	c10.038,10.038,24.104,14.706,37.878,13.105C201.528,222.355,191.875,217.869,184.437,210.431z"/>
<path style="fill:#2E4C89;" d="M310.233,188.793l-46.795,46.796v-51.787l57.402-57.401c2.929-2.93,2.929-7.678,0-10.607
	c-2.929-2.928-7.678-2.928-10.607,0l-46.795,46.796V51c0-4.143-3.358-7.5-7.5-7.5s-7.5,3.357-7.5,7.5v111.589l-46.796-46.796
	c-2.929-2.928-7.678-2.928-10.606,0c-2.929,2.93-2.929,7.678,0,10.607l57.402,57.401v51.787l-46.796-46.796
	c-2.929-2.928-7.678-2.928-10.606,0c-2.929,2.93-2.929,7.678,0,10.607l57.402,57.401V267h15v-10.198l57.402-57.401
	c2.929-2.93,2.929-7.678,0-10.607S313.162,185.865,310.233,188.793z"/>
<g>
	<path style="fill:#445EA0;" d="M125.261,91.569c0.669,0,1.286,0.356,1.62,0.938l15.966,27.766
		c2.064,3.295,3.153,7.094,3.153,10.988c0,11.435-9.304,20.739-20.739,20.739s-20.739-9.305-20.739-20.739
		c0-3.894,1.091-7.693,3.153-10.988l15.967-27.766C123.975,91.926,124.592,91.569,125.261,91.569z"/>
	<path style="fill:#445EA0;" d="M374.261,28c0.669,0,1.286,0.356,1.62,0.938l15.966,27.766c2.064,3.295,3.153,7.094,3.153,10.988
		c0,11.435-9.304,20.739-20.739,20.739c-11.435,0-20.739-9.305-20.739-20.739c0-3.894,1.091-7.693,3.153-10.988l15.967-27.766
		C372.975,28.356,373.592,28,374.261,28z"/>
	<path style="fill:#445EA0;" d="M179.261,0c0.669,0,1.286,0.356,1.62,0.938l15.966,27.766c2.064,3.295,3.153,7.094,3.153,10.988
		c0,11.435-9.304,20.739-20.739,20.739s-20.739-9.305-20.739-20.739c0-3.894,1.091-7.693,3.153-10.988l15.967-27.766
		C177.975,0.356,178.592,0,179.261,0z"/>
</g>
<g>
	<path style="fill:#2E4C89;" d="M115,131.261c0-3.894,1.091-7.693,3.153-10.988L130.5,98.801l-3.62-6.294
		c-0.334-0.581-0.951-0.938-1.62-0.938c-0.669,0-1.286,0.356-1.619,0.938l-15.967,27.766c-2.062,3.295-3.153,7.094-3.153,10.988
		c0,11.435,9.304,20.739,20.739,20.739c1.813,0,3.562-0.258,5.239-0.696C121.598,148.973,115,140.883,115,131.261z"/>
	<path style="fill:#2E4C89;" d="M364,67.691c0-3.894,1.091-7.693,3.153-10.988L379.5,35.232l-3.62-6.295
		c-0.334-0.581-0.951-0.938-1.62-0.938s-1.286,0.356-1.619,0.938l-15.967,27.766c-2.062,3.295-3.153,7.094-3.153,10.988
		c0,11.435,9.304,20.739,20.739,20.739c1.813,0,3.562-0.258,5.239-0.696C370.598,85.404,364,77.313,364,67.691z"/>
	<path style="fill:#2E4C89;" d="M169,39.691c0-3.894,1.091-7.693,3.153-10.988L184.5,7.232l-3.62-6.295
		C180.547,0.356,179.93,0,179.261,0c-0.669,0-1.286,0.356-1.619,0.938l-15.967,27.766c-2.062,3.295-3.153,7.094-3.153,10.988
		c0,11.435,9.304,20.739,20.739,20.739c1.813,0,3.562-0.258,5.239-0.696C175.598,57.404,169,49.313,169,39.691z"/>
</g>
<path style="fill:#FFFFFF;" d="M198.176,390.511c3.86,0,7,3.141,7,7V416h101.123v-18.489c0-3.859,3.14-7,7-7h22.958v-26.372
	c-6.918-1.822-13.324-5.431-18.397-10.503c-11.14-11.141-14.822-27.904-9.382-42.707c0.038-0.103,0.099-0.198,0.176-0.275
	c0.076-0.075,0.169-0.135,0.27-0.171c0.631-0.232,1.268-0.443,1.907-0.643H202.998c0.636,0.199,1.27,0.409,1.898,0.641
	c0.104,0.038,0.198,0.099,0.278,0.177c0.072,0.073,0.132,0.167,0.17,0.272c5.442,14.802,1.759,31.565-9.381,42.707
	c-5.515,5.516-12.608,9.3-20.22,10.938v25.937h22.433V390.511z"/>
<path style="fill:#EEF6FF;" d="M162.286,311h13.35c4.829-1.953,10.034-3,15.303-3c4.786,0,9.481,0.834,13.958,2.479
	c0.104,0.038,0.198,0.099,0.278,0.177c0.072,0.073,0.132,0.167,0.17,0.272c0.009,0.023,0.015,0.048,0.023,0.071h103.088
	c0.009-0.023,0.015-0.048,0.023-0.071c0.038-0.103,0.099-0.198,0.176-0.275c0.076-0.075,0.169-0.135,0.27-0.171
	c4.48-1.647,9.176-2.481,13.961-2.481c5.268,0,10.473,1.047,15.301,2.999h11.527c2.75,0,5-2.25,5-5v-35.839c0-2.75-2.25-5-5-5
	H162.286c-2.75,0-5,2.25-5,5V306C157.286,308.75,159.536,311,162.286,311z"/>
<path style="fill:#C3DDF4;" d="M167.571,306v-35.839c0-2.75,2.25-5,5-5h-10.286c-2.75,0-5,2.25-5,5V306c0,2.75,2.25,5,5,5h10.286
	C169.821,311,167.571,308.75,167.571,306z"/>
<path style="fill:#60D882;" d="M289.372,287.003c3.607,0,7.384-2.834,8.392-6.297l4.523-15.545h-92.574l4.524,15.545
	c1.008,3.463,4.783,6.297,8.391,6.297H289.372z"/>
<path style="fill:#2BB381;" d="M234.95,280.706l-4.524-15.545h-20.713l4.524,15.545c1.008,3.463,4.783,6.297,8.391,6.297h20.713
	C239.733,287.003,235.958,284.169,234.95,280.706z"/>
<path style="fill:#C3DDF4;" d="M297.5,392c0,5.5-4.5,10-10,10h-63c-5.5,0-10-4.5-10-10v-63c0-5.5,4.5-10,10-10h63
	c5.5,0,10,4.5,10,10V392z"/>
<path style="fill:#94C2ED;" d="M225,392v-63c0-5.5,4.5-10,10-10h-10.5c-5.5,0-10,4.5-10,10v63c0,5.5,4.5,10,10,10H235
	C229.5,402,225,397.5,225,392z"/>
<path style="fill:#D9EAFC;" d="M256,395.356c-14.454,0-26.212-11.76-26.212-26.213c0-4.872,1.351-9.63,3.91-13.768l14.501-25.218
	c1.59-2.778,4.583-4.514,7.802-4.514c3.212,0,6.203,1.73,7.804,4.516l14.499,25.214c2.559,4.136,3.91,8.894,3.91,13.77
	C282.212,383.597,270.454,395.356,256,395.356z"/>
<path style="fill:#999CAD;" d="M262.418,342.389l-4.941-8.592c-0.304-0.53-0.867-0.855-1.477-0.855s-1.173,0.325-1.477,0.855
	l-4.94,8.592H262.418z"/>
<path style="fill:#3EB7FF;" d="M237.084,369.144c0,0.205,0.024,0.404,0.031,0.607h37.77c0.006-0.203,0.031-0.402,0.031-0.607
	c0-2.633-0.548-5.216-1.597-7.602h-34.636C237.634,363.928,237.084,366.511,237.084,369.144z"/>
<polygon style="fill:#6DC3ED;" points="246.435,347.861 241.715,356.069 270.285,356.069 265.565,347.861 "/>
<path style="fill:#1E99D6;" d="M238.105,375.224c2.54,7.452,9.594,12.836,17.895,12.836c8.301,0,15.354-5.384,17.895-12.836H238.105
	z"/>
<circle style="fill:#3EB7FF;" cx="328.5" cy="286.66" r="10.5"/>
<g>
	<path style="fill:#2E4C89;" d="M421.635,265.886c-4.142,0-7.5-3.357-7.5-7.5c0-30.263-24.622-54.884-54.886-54.886
		c-4.142,0-7.499-3.358-7.499-7.5c0-4.143,3.358-7.5,7.5-7.5l0,0c38.535,0.002,69.885,31.352,69.885,69.886
		C429.135,262.528,425.777,265.886,421.635,265.886z"/>
	<path style="fill:#2E4C89;" d="M399.1,267.968c-4.142,0-7.5-3.357-7.5-7.5c0-9.18-3.586-17.821-10.098-24.334
		c-6.512-6.512-15.153-10.098-24.331-10.098c-4.142,0-7.501-3.357-7.501-7.5c0-4.142,3.357-7.5,7.5-7.5
		c13.185-0.001,25.593,5.145,34.938,14.491s14.492,21.754,14.492,34.941C406.6,264.61,403.242,267.968,399.1,267.968z"/>
	<path style="fill:#2E4C89;" d="M376.477,270.137L376.477,270.137c-4.143,0-7.5-3.358-7.5-7.5c0-3.733-1.454-7.243-4.094-9.884
		c-2.64-2.64-6.149-4.093-9.883-4.093c-4.142,0-7.5-3.357-7.5-7.499c-0.001-4.143,3.357-7.501,7.499-7.501h0.003
		c7.74,0,15.015,3.014,20.488,8.486c5.474,5.474,8.488,12.75,8.487,20.49C383.977,266.779,380.619,270.137,376.477,270.137z"/>
</g>
<path style="fill:#2BB381;" d="M152.275,363.548c-0.179-0.177-0.317-0.394-0.406-0.636c-5.576-15.167-1.802-32.343,9.612-43.759
	c11.415-11.414,28.592-15.188,43.76-9.612c0.242,0.088,0.458,0.229,0.636,0.404c0.179,0.18,0.317,0.396,0.406,0.639
	c5.575,15.166,1.803,32.342-9.613,43.759c-11.414,11.415-28.591,15.186-43.759,9.611
	C152.67,363.866,152.454,363.726,152.275,363.548z"/>
<g>
	<path style="fill:#159E97;" d="M128.425,363.549c0.179-0.178,0.317-0.393,0.406-0.637c5.576-15.167,1.803-32.342-9.611-43.759
		c-11.416-11.413-28.592-15.188-43.76-9.611c-0.242,0.088-0.459,0.229-0.636,0.404c-0.179,0.179-0.318,0.397-0.407,0.638
		c-5.574,15.167-1.802,32.343,9.613,43.759c11.415,11.415,28.591,15.186,43.759,9.612
		C128.031,363.867,128.247,363.727,128.425,363.549z"/>
	<path style="fill:#159E97;" d="M163.035,363.954c-0.241-0.088-0.457-0.229-0.636-0.406s-0.317-0.394-0.406-0.636
		c-5.576-15.167-1.802-32.343,9.612-43.759c6.685-6.684,15.35-10.726,24.426-11.825c-12.551-1.549-25.4,2.677-34.55,11.825
		c-11.414,11.416-15.188,28.592-9.612,43.759c0.089,0.242,0.228,0.459,0.406,0.636c0.179,0.178,0.395,0.318,0.636,0.406
		c6.286,2.31,12.913,2.992,19.336,2.214C169.137,365.784,166.046,365.06,163.035,363.954z"/>
</g>
<path style="fill:#0F9390;" d="M94.154,354.343c-11.415-11.416-15.188-28.592-9.613-43.759c0.089-0.241,0.229-0.459,0.407-0.638
	c0.177-0.176,0.394-0.316,0.636-0.404c3.011-1.107,6.102-1.83,9.21-2.214c-6.422-0.778-13.048-0.097-19.333,2.214
	c-0.242,0.088-0.459,0.229-0.636,0.404c-0.179,0.179-0.318,0.397-0.407,0.638c-5.574,15.167-1.802,32.343,9.613,43.759
	c9.149,9.149,21.998,13.372,34.549,11.825C109.503,365.067,100.839,361.027,94.154,354.343z"/>
<path style="fill:#2E4C89;" d="M172.38,333.383l-31.752,31.753l-31.752-31.753c-2.929-2.928-7.678-2.928-10.606,0
	c-2.929,2.93-2.929,7.678,0,10.607L131.28,377h18.697l33.01-33.01c2.929-2.93,2.929-7.678,0-10.607
	C180.058,330.455,175.309,330.455,172.38,333.383z"/>
<path style="fill:#159E97;" d="M171.676,391v-5.489c0-5.5-4.5-10-10-10h-45c-5.5,0-10,4.5-10,10V391H171.676z"/>
<path style="fill:#057C76;" d="M137,375.511h-20.324c-5.5,0-10,4.5-10,10V391H127v-5.489C127,380.011,131.5,375.511,137,375.511z"/>
<path style="fill:#C3DDF4;" d="M206.176,416v-18.489c0-4.418-3.582-8-8-8h-118c-4.419,0-8,3.582-8,8V416H206.176z"/>
<path style="fill:#94C2ED;" d="M101,389.511H80.176c-4.419,0-8,3.582-8,8V416H93v-18.489C93,393.093,96.581,389.511,101,389.511z"/>
<path style="fill:#2BB381;" d="M385.399,363.548c-0.179-0.177-0.317-0.394-0.406-0.636c-5.576-15.167-1.802-32.343,9.612-43.759
	c11.415-11.414,28.592-15.188,43.76-9.612c0.242,0.088,0.458,0.229,0.636,0.404c0.179,0.18,0.317,0.396,0.406,0.639
	c5.575,15.166,1.803,32.342-9.613,43.759c-11.414,11.415-28.591,15.186-43.759,9.611
	C385.793,363.866,385.578,363.726,385.399,363.548z"/>
<g>
	<path style="fill:#159E97;" d="M396.087,363.954c-0.241-0.088-0.457-0.229-0.636-0.406s-0.317-0.394-0.406-0.636
		c-5.576-15.167-1.802-32.343,9.612-43.759c6.693-6.692,15.371-10.735,24.46-11.829c-12.539-1.535-25.372,2.69-34.512,11.829
		c-11.414,11.416-15.189,28.592-9.612,43.759c0.089,0.242,0.228,0.459,0.406,0.636c0.179,0.178,0.395,0.318,0.636,0.406
		c6.274,2.307,12.89,2.989,19.302,2.218C402.215,365.789,399.11,365.065,396.087,363.954z"/>
	<path style="fill:#159E97;" d="M361.548,363.549c0.179-0.178,0.317-0.393,0.406-0.637c5.576-15.167,1.803-32.342-9.611-43.759
		c-11.416-11.413-28.592-15.188-43.76-9.611c-0.242,0.088-0.459,0.229-0.636,0.404c-0.179,0.179-0.318,0.397-0.407,0.638
		c-5.574,15.167-1.802,32.343,9.613,43.759c11.415,11.415,28.591,15.186,43.759,9.612
		C361.155,363.867,361.371,363.727,361.548,363.549z"/>
</g>
<path style="fill:#0F9390;" d="M327.658,354.343c-11.415-11.416-15.188-28.592-9.613-43.759c0.089-0.241,0.229-0.459,0.407-0.638
	c0.177-0.176,0.393-0.316,0.636-0.404c2.946-1.083,5.968-1.804,9.009-2.193c-6.478-0.813-13.169-0.139-19.513,2.193
	c-0.242,0.088-0.459,0.229-0.636,0.404c-0.179,0.179-0.318,0.397-0.407,0.638c-5.574,15.167-1.802,32.343,9.613,43.759
	c9.198,9.198,22.135,13.423,34.75,11.805C342.893,365.016,334.299,360.984,327.658,354.343z"/>
<path style="fill:#2E4C89;" d="M416.11,333.383c-2.929-2.928-7.678-2.928-10.607,0l-31.752,31.753l-31.753-31.753
	c-2.929-2.928-7.678-2.928-10.606,0c-2.929,2.93-2.929,7.678,0,10.607l33.01,33.01H383.1l33.01-33.01
	C419.04,341.06,419.04,336.313,416.11,333.383z"/>
<path style="fill:#159E97;" d="M404.799,391v-5.489c0-5.5-4.5-10-10-10h-45c-5.5,0-10,4.5-10,10V391H404.799z"/>
<path style="fill:#057C76;" d="M370.123,375.511h-20.324c-5.5,0-10,4.5-10,10V391h20.324v-5.489
	C360.123,380.011,364.623,375.511,370.123,375.511z"/>
<path style="fill:#C3DDF4;" d="M439.299,416v-18.489c0-4.418-3.582-8-8-8h-118c-4.419,0-8,3.582-8,8V416H439.299z"/>
<path style="fill:#94C2ED;" d="M334,389.511h-20.701c-4.419,0-8,3.582-8,8V416H326v-18.489C326,393.093,329.581,389.511,334,389.511
	z"/>
<path style="fill:#BF7E52;" d="M451.244,415H60.756c6.694,8.817,13.963,17.175,21.767,25h346.953
	C437.281,432.175,444.55,423.817,451.244,415z"/>
<g>
</g>
<g>
</g>
<g>
</g>
<g>
</g>
<g>
</g>
<g>
</g>
<g>
</g>
<g>
</g>
<g>
</g>
<g>
</g>
<g>
</g>
<g>
</g>
<g>
</g>
<g>
</g>
<g>
</g>
</svg>
