<?xml version="1.0" encoding="iso-8859-1"?>
<!-- Generator: Adobe Illustrator 19.0.0, SVG Export Plug-In . SVG Version: 6.00 Build 0)  -->
<svg version="1.1" id="Capa_1" xmlns="http://www.w3.org/2000/svg" xmlns:xlink="http://www.w3.org/1999/xlink" x="0px" y="0px"
	 viewBox="0 0 512 512" style="enable-background:new 0 0 512 512;" xml:space="preserve">
<g>
	<g transform="translate(1 1)">
		<path style="fill:#607D8B;" d="M365.933,24.6v477.867H24.6c-9.414-0.028-17.039-7.653-17.067-17.067V24.6
			C7.561,15.186,15.186,7.561,24.6,7.533h324.267C358.281,7.561,365.906,15.186,365.933,24.6z"/>
		<path style="fill:#CFD8DC;" d="M340.333,24.6v477.867H24.6c-9.414-0.028-17.039-7.653-17.067-17.067V24.6
			C7.561,15.186,15.186,7.561,24.6,7.533h298.667C332.681,7.561,340.306,15.186,340.333,24.6z"/>
		<path style="fill:#FFEB3A;" d="M237.933,148.333c0.014,3.593-0.186,7.183-0.598,10.752c-0.483,4.516-1.281,8.993-2.389,13.397
			c-0.256,0.939-0.511,1.878-0.768,2.73c-0.256,0.939-0.512,1.793-0.768,2.646c-0.085,0.085-0.085,0.256-0.171,0.341
			c-0.683,2.353-1.509,4.661-2.475,6.913h-0.085c-1.685,4.404-3.74,8.658-6.145,12.715c-0.511,0.852-1.023,1.792-1.535,2.645h-0.085
			c-0.171,0.256-0.341,0.597-0.513,0.853c-0.597,0.94-1.194,1.792-1.792,2.646c-0.066,0.153-0.152,0.297-0.256,0.427
			c-0.852,1.194-1.707,2.389-2.645,3.498c-0.939,1.28-1.963,2.56-2.987,3.754c-3.157,3.768-6.61,7.278-10.325,10.496
			c-1.281,1.11-2.56,2.133-3.841,3.158c-0.853,0.683-1.707,1.365-2.645,2.133c-1.793,1.279-3.499,2.475-5.292,3.583
			c-1.792,1.11-3.583,2.219-5.375,3.244c-1.707,0.937-3.499,1.877-5.292,2.73c-0.085,0-0.171,0.084-0.256,0.084
			c-34.607,16.347-75.565,11.048-104.873-13.567c-7.333-6.08-13.693-13.245-18.859-21.248c-3.318-4.843-6.121-10.02-8.363-15.446
			c-3.471-7.884-5.825-16.213-6.997-24.747c-0.615-4.554-0.929-9.143-0.939-13.739c-0.028-1.453,0.029-2.906,0.171-4.352
			c0.17-5.72,0.914-11.409,2.219-16.981c2.728-12.437,7.891-24.212,15.189-34.646c14.92-21.493,37.808-36.135,63.575-40.67
			s52.279,1.413,73.641,16.521c1.963,1.451,3.925,2.901,5.803,4.523c1.877,1.537,3.754,3.157,5.46,4.864
			c1.195,1.109,2.389,2.304,3.499,3.499c1.398,1.427,2.709,2.937,3.926,4.522h0.085c0.852,1.025,1.707,2.133,2.559,3.244
			l1.024,1.279c1.279,1.793,2.56,3.67,3.754,5.463c0.854,1.365,1.707,2.815,2.475,4.181c1.024,1.706,1.877,3.412,2.731,5.119
			c1.539,3.08,2.906,6.242,4.096,9.473c0.511,1.365,0.939,2.645,1.365,4.011c0.94,2.817,1.707,5.631,2.389,8.619
			c0.683,3.072,1.195,6.229,1.621,9.472c0.171,1.963,0.427,3.926,0.513,5.889c0,0.511,0.085,1.023,0.085,1.621
			C237.933,145.431,237.933,146.883,237.933,148.333z"/>
		<path style="fill:#607D8B;" d="M502.467,178.2v298.667c0.009,6.792-2.685,13.309-7.488,18.112
			c-4.803,4.803-11.319,7.497-18.112,7.488H340.333c-6.792,0.009-13.309-2.685-18.112-7.488c-4.803-4.803-7.497-11.319-7.488-18.112
			V178.2c-0.005-6.706,2.632-13.144,7.339-17.921c4.786-4.941,11.382-7.715,18.261-7.679h136.533
			c6.792-0.009,13.309,2.685,18.112,7.488C499.782,164.891,502.476,171.408,502.467,178.2z"/>
		<path style="fill:#CFD8DC;" d="M476.867,178.2v298.667c0.009,6.792-2.685,13.309-7.488,18.112
			c-4.803,4.803-11.319,7.497-18.112,7.488H340.333c-6.792,0.009-13.309-2.685-18.112-7.488c-4.803-4.803-7.497-11.319-7.488-18.112
			V178.2c-0.005-6.706,2.632-13.144,7.339-17.921c4.786-4.941,11.382-7.715,18.261-7.679h110.933
			c6.792-0.009,13.309,2.685,18.112,7.488C474.182,164.891,476.876,171.408,476.867,178.2z"/>
		<path style="fill:#3F51B5;" d="M468.333,152.6l-12.373,24.661c-2.882,5.8-8.798,9.469-15.275,9.472h-64.171
			c-6.476-0.003-12.393-3.672-15.275-9.472L348.867,152.6H468.333z"/>
		<path style="fill:#FDD834;" d="M322.072,160.279c-4.707,4.776-7.344,11.215-7.339,17.921v26.453h-3.498l-129.281,32.341
			c30.679-14.66,51.618-44.117,55.381-77.909c0.412-3.569,0.612-7.159,0.598-10.752c0.04-22.925-7.997-45.131-22.698-62.721h-0.085
			c-1.217-1.584-2.528-3.094-3.926-4.522c-4.512-4.742-9.454-9.056-14.763-12.885L322.072,160.279z"/>
	</g>
	<g>
		<path d="M51.2,324.267c12.135,0.992,24.229-2.351,34.133-9.433c9.904,7.083,21.998,10.425,34.133,9.433
			c12.135,0.992,24.229-2.351,34.133-9.433c9.904,7.083,21.998,10.425,34.133,9.433c12.135,0.992,24.229-2.351,34.133-9.433
			c9.904,7.083,21.998,10.425,34.133,9.433c4.713,0,8.533-3.821,8.533-8.533c0-4.713-3.821-8.533-8.533-8.533
			c-19.308,0-25.2-5.892-25.6-8.533c0.025-4.758-3.768-8.658-8.525-8.767c-2.216-0.052-4.361,0.782-5.961,2.316
			c-1.6,1.534-2.522,3.643-2.563,5.859l-0.009,0.183c-0.492,3.133-6.434,8.942-25.609,8.942c-19.308,0-25.2-5.892-25.6-8.533
			c0.025-4.758-3.768-8.658-8.525-8.767c-2.216-0.052-4.361,0.782-5.961,2.316c-1.6,1.534-2.522,3.643-2.563,5.859l-0.009,0.183
			c-0.492,3.133-6.434,8.942-25.609,8.942c-19.308,0-25.2-5.892-25.6-8.533c0.025-4.758-3.768-8.658-8.525-8.767
			c-2.216-0.052-4.361,0.782-5.961,2.316c-1.6,1.534-2.522,3.643-2.563,5.859l-0.009,0.183c-0.492,3.133-6.434,8.942-25.609,8.942
			c-4.713,0-8.533,3.821-8.533,8.533C42.667,320.446,46.487,324.267,51.2,324.267z"/>
		<path d="M51.2,384c11.406,0.899,22.758-2.314,32-9.058c9.242,6.744,20.594,9.958,32,9.058c11.406,0.899,22.758-2.314,32-9.058
			c9.242,6.744,20.594,9.958,32,9.058c4.713,0,8.533-3.821,8.533-8.533c0-4.713-3.82-8.533-8.533-8.533
			c-17.766,0-23.133-5.85-23.467-8.533c0.019-4.75-3.775-8.638-8.525-8.733c-2.223-0.046-4.373,0.796-5.973,2.34
			c-1.6,1.544-2.519,3.662-2.552,5.885l-0.009,0.158c-0.408,3.108-5.817,8.883-23.475,8.883c-17.766,0-23.133-5.85-23.467-8.533
			c0.019-4.75-3.775-8.638-8.525-8.733c-2.223-0.046-4.373,0.796-5.973,2.34c-1.6,1.544-2.519,3.662-2.552,5.885l-0.009,0.158
			c-0.409,3.108-5.817,8.883-23.475,8.883c-4.713,0-8.533,3.821-8.533,8.533C42.667,380.18,46.487,384,51.2,384z"/>
		<path d="M119.467,426.667c-19.308,0-25.2-5.892-25.6-8.533c0.025-4.758-3.768-8.658-8.525-8.767
			c-2.216-0.052-4.361,0.782-5.961,2.316c-1.6,1.534-2.522,3.643-2.563,5.859l-0.009,0.183c-0.492,3.133-6.434,8.942-25.609,8.942
			c-4.713,0-8.533,3.82-8.533,8.533s3.821,8.533,8.533,8.533c12.135,0.992,24.229-2.351,34.133-9.433
			c9.904,7.083,21.998,10.425,34.133,9.433c4.713,0,8.533-3.821,8.533-8.533S124.179,426.667,119.467,426.667z"/>
		<path d="M221.867,426.667c-19.308,0-25.2-5.892-25.6-8.533c0.025-4.758-3.768-8.658-8.525-8.767
			c-2.216-0.052-4.361,0.782-5.961,2.316c-1.6,1.534-2.522,3.643-2.563,5.859l-0.009,0.183c-0.492,3.133-6.434,8.942-25.609,8.942
			c-4.713,0-8.533,3.82-8.533,8.533s3.82,8.533,8.533,8.533c12.135,0.992,24.229-2.351,34.133-9.433
			c9.904,7.083,21.998,10.425,34.133,9.433c4.713,0,8.533-3.821,8.533-8.533S226.579,426.667,221.867,426.667z"/>
		<path d="M281.6,366.933c-19.308,0-25.2-5.892-25.6-8.533c0.025-4.758-3.768-8.658-8.525-8.767
			c-2.216-0.052-4.361,0.782-5.961,2.316c-1.6,1.534-2.522,3.643-2.563,5.859l-0.009,0.183c-0.492,3.133-6.434,8.942-25.609,8.942
			c-4.713,0-8.533,3.821-8.533,8.533c0,4.713,3.82,8.533,8.533,8.533c12.135,0.992,24.229-2.351,34.133-9.433
			c9.904,7.083,21.998,10.425,34.133,9.433c4.713,0,8.533-3.821,8.533-8.533C290.133,370.754,286.313,366.933,281.6,366.933z"/>
		<path d="M477.867,145.067h-102.4V25.6c-0.015-14.132-11.468-25.585-25.6-25.6H25.6C11.468,0.015,0.015,11.468,0,25.6v460.8
			c0.015,14.132,11.468,25.585,25.6,25.6h452.267c18.844-0.019,34.115-15.29,34.133-34.133V179.2
			C511.981,160.356,496.71,145.085,477.867,145.067z M455.525,162.133l-6.175,12.35c-1.436,2.9-4.397,4.73-7.633,4.717h-64.233
			c-3.236,0.013-6.197-1.817-7.633-4.717l-6.175-12.35H455.525z M17.067,486.4V25.6c0.003-4.712,3.822-8.53,8.533-8.533h324.267
			c4.712,0.003,8.53,3.822,8.533,8.533v119.467h-17.067c-6.558-0.01-12.977,1.892-18.471,5.473L201.317,61.383
			c-0.244-0.129-0.495-0.245-0.752-0.348c-32.684-22.1-74.897-24.356-109.75-5.865s-56.654,54.709-56.681,94.163
			c0.01,4.998,0.352,9.989,1.025,14.942c1.767,12.29,5.67,24.176,11.533,35.121c0.126,0.244,0.215,0.497,0.36,0.725
			C65.714,234.507,101.677,255.943,140.8,256c1.081,0,2.131-0.142,3.204-0.173c0.347,0.08,0.699,0.138,1.054,0.173
			c0.774-0.001,1.545-0.104,2.292-0.308l0.205-0.056c13.214-0.748,26.166-3.999,38.168-9.579L307.2,215.7v262.167
			c0.034,6.01,1.672,11.902,4.746,17.067H25.6C20.888,494.93,17.07,491.112,17.067,486.4z M140.8,238.933
			c-29.184-0.045-56.522-14.284-73.289-38.171c3.366-1.29,6.504-3.109,9.297-5.388c9.903,7.078,21.993,10.417,34.125,9.425
			c12.135,0.992,24.229-2.351,34.133-9.433c9.904,7.083,21.998,10.425,34.133,9.433l0.042-0.009v0.009
			c11.935,0.902,23.805-2.439,33.517-9.433c1.02,0.834,2.092,1.603,3.21,2.3c-9.021,14.136-21.814,25.468-36.935,32.717
			C167.091,236.063,154.024,238.985,140.8,238.933z M206.017,87.942c1.161,1.182,2.252,2.432,3.267,3.742
			c0.291,0.395,0.618,0.763,0.975,1.1c8.199,10.053,14.109,21.773,17.317,34.344c-10.332-1.729-13.938-5.653-14.242-7.66
			c0.025-4.76-3.766-8.663-8.525-8.775c-2.217-0.051-4.364,0.783-5.964,2.319c-1.6,1.536-2.522,3.647-2.561,5.864l-0.009,0.183
			c-0.438,2.777-5.516,8.068-21.604,8.836c-16.271-0.777-21.315-6.139-21.671-8.428c0.025-4.758-3.768-8.658-8.525-8.767
			c-2.217-0.051-4.364,0.783-5.964,2.319c-1.6,1.536-2.522,3.647-2.561,5.864l-0.009,0.175c-0.483,3.091-6.298,8.845-25.587,8.941
			c-18.865-0.096-24.63-5.934-25.021-8.533c0.025-4.76-3.766-8.663-8.525-8.775c-2.217-0.051-4.364,0.783-5.964,2.319
			c-1.6,1.536-2.522,3.647-2.561,5.864l-0.009,0.183c-0.375,2.367-4.015,6.3-14.24,8.046c8.087-31.652,32.771-56.387,64.406-64.539
			S183.641,64.14,206.017,87.942L206.017,87.942z M76.783,135.633c9.726,6.992,21.606,10.333,33.55,9.433h0.6l0.042-0.009v0.009
			c11.949,0.902,23.832-2.448,33.55-9.458c8.738,6.371,19.34,9.668,30.15,9.375h0.258l0.069-0.013l0.04,0.005
			c10.678,0.286,21.146-2.996,29.75-9.325c7.351,5.524,16.217,8.664,25.406,8.998c0.081,1.56,0.202,3.117,0.202,4.685
			c0.016,3.286-0.167,6.57-0.55,9.833c-0.896,8.008-2.887,15.855-5.918,23.321c-1.188-0.822-2.113-1.969-2.666-3.304v0.017
			c0.025-4.758-3.768-8.658-8.525-8.767c-2.217-0.051-4.364,0.783-5.964,2.319c-1.6,1.536-2.522,3.647-2.561,5.864l-0.009,0.175
			c-0.481,3.075-6.262,8.777-25.323,8.929c-19.035-0.069-24.888-5.895-25.285-8.521c0.025-4.758-3.768-8.658-8.525-8.767
			c-2.216-0.052-4.361,0.782-5.961,2.316c-1.6,1.534-2.522,3.643-2.563,5.859l-0.009,0.183c-0.492,3.133-6.434,8.942-25.609,8.942
			c-19.308,0-25.2-5.892-25.6-8.533c0.025-4.76-3.766-8.663-8.525-8.775c-2.217-0.051-4.364,0.783-5.964,2.319
			c-1.6,1.536-2.522,3.647-2.561,5.864l-0.009,0.175c-0.096,0.545-1.215,4.44-9.361,6.927c-3.375-7.564-5.679-15.561-6.847-23.76
			c-0.569-4.182-0.858-8.397-0.867-12.617c0-1.573,0.096-3.131,0.177-4.692C60.566,144.299,69.43,141.155,76.783,135.633z
			 M236.015,196.964c0.092-0.232,0.271-0.403,0.344-0.647c0.013-0.042,0-0.083,0.011-0.125c5.507-10.993,9.04-22.868,10.439-35.083
			c0.455-3.908,0.675-7.84,0.658-11.775c-0.031-4.247-0.317-8.488-0.856-12.701l0.006-0.032c0-0.062-0.033-0.112-0.033-0.175
			c-1.05-8.644-3.154-17.127-6.267-25.259l71.013,52.089c-2.672,4.893-4.09,10.371-4.129,15.946v18.917l-86.542,21.621
			C226.726,212.831,231.887,205.178,236.015,196.964z M494.933,477.867c-0.012,9.421-7.646,17.054-17.067,17.067H341.333
			c-9.421-0.012-17.054-7.646-17.067-17.067V179.2c-0.004-4.498,1.776-8.813,4.95-12c3.175-3.276,7.554-5.108,12.117-5.067h3.258
			l9.992,19.983c4.314,8.694,13.194,14.181,22.9,14.15h64.233c9.706,0.031,18.586-5.456,22.9-14.15l9.992-19.983h3.258
			c9.421,0.012,17.054,7.646,17.067,17.067V477.867z"/>
		<path d="M435.2,460.8H384c-4.713,0-8.533,3.821-8.533,8.533c0,4.713,3.821,8.533,8.533,8.533h51.2
			c4.713,0,8.533-3.821,8.533-8.533C443.733,464.621,439.913,460.8,435.2,460.8z"/>
		<path d="M469.333,230.4H349.867c-4.713,0-8.533,3.821-8.533,8.533c0,4.713,3.821,8.533,8.533,8.533h119.467
			c4.713,0,8.533-3.821,8.533-8.533C477.867,234.221,474.046,230.4,469.333,230.4z"/>
		<path d="M452.267,264.533h-102.4c-4.713,0-8.533,3.82-8.533,8.533s3.821,8.533,8.533,8.533h102.4c4.713,0,8.533-3.82,8.533-8.533
			S456.98,264.533,452.267,264.533z"/>
		<path d="M452.267,332.8h-102.4c-4.713,0-8.533,3.82-8.533,8.533s3.821,8.533,8.533,8.533h102.4c4.713,0,8.533-3.821,8.533-8.533
			S456.98,332.8,452.267,332.8z"/>
		<path d="M349.867,384H384c4.713,0,8.533-3.821,8.533-8.533c0-4.713-3.82-8.533-8.533-8.533h-34.133
			c-4.713,0-8.533,3.821-8.533,8.533C341.333,380.18,345.154,384,349.867,384z"/>
		<path d="M392.533,409.6c0.001-2.264-0.897-4.435-2.498-6.035c-1.601-1.601-3.772-2.499-6.035-2.498h-34.133
			c-4.713,0-8.533,3.821-8.533,8.533c0,4.713,3.821,8.533,8.533,8.533H384c2.264,0.001,4.435-0.897,6.035-2.498
			C391.636,414.035,392.535,411.864,392.533,409.6z"/>
		<path d="M452.267,366.933h-34.133c-4.713,0-8.533,3.821-8.533,8.533c0,4.713,3.82,8.533,8.533,8.533h34.133
			c4.713,0,8.533-3.821,8.533-8.533C460.8,370.754,456.98,366.933,452.267,366.933z"/>
		<path d="M349.867,315.733h76.8c4.713,0,8.533-3.82,8.533-8.533s-3.82-8.533-8.533-8.533h-76.8c-4.713,0-8.533,3.82-8.533,8.533
			S345.154,315.733,349.867,315.733z"/>
	</g>
</g>
<g>
</g>
<g>
</g>
<g>
</g>
<g>
</g>
<g>
</g>
<g>
</g>
<g>
</g>
<g>
</g>
<g>
</g>
<g>
</g>
<g>
</g>
<g>
</g>
<g>
</g>
<g>
</g>
<g>
</g>
</svg>
