<?xml version="1.0" encoding="iso-8859-1"?>
<!-- Generator: Adobe Illustrator 19.0.0, SVG Export Plug-In . SVG Version: 6.00 Build 0)  -->
<svg version="1.1" id="Capa_1" xmlns="http://www.w3.org/2000/svg" xmlns:xlink="http://www.w3.org/1999/xlink" x="0px" y="0px"
	 viewBox="0 0 512 512" style="enable-background:new 0 0 512 512;" xml:space="preserve">
<g>
	<g transform="translate(1 1)">
		<rect x="50.2" y="323.267" style="fill:#F44335;" width="34.133" height="153.6"/>
		<rect x="417.133" y="101.4" style="fill:#2296F3;" width="51.2" height="102.4"/>
		<path style="fill:#0377BC;" d="M502.467,24.295v83.809c-0.112,9.33-7.737,16.818-17.067,16.762H365.933
			c-9.33,0.056-16.954-7.432-17.067-16.762V24.295c0.112-9.33,7.736-16.818,17.067-16.762H485.4
			C494.73,7.477,502.355,14.966,502.467,24.295z"/>
		<path style="fill:#02A9F4;" d="M476.867,24.295v83.809c-0.112,9.33-7.737,16.818-17.067,16.762h-93.867
			c-9.33,0.056-16.954-7.432-17.067-16.762V24.295c0.112-9.33,7.736-16.818,17.067-16.762H459.8
			C469.13,7.477,476.755,14.966,476.867,24.295z"/>
		<path style="fill:#FFEB3A;" d="M348.871,92.867v17.067c0.028,9.414,7.653,17.039,17.067,17.067h34.133v-25.6
			c-0.014-4.707-3.826-8.52-8.533-8.533H348.871z"/>
		<rect x="417.133" y="323.267" style="fill:#2296F3;" width="51.2" height="145.067"/>
		<circle style="fill:#FFEB3A;" cx="451.267" cy="58.733" r="17.067"/>
		<path style="fill:#0377BC;" d="M502.467,195.267v128c-0.028,9.414-7.653,17.039-17.067,17.067h-85.333
			c-7.635-0.015-14.328-5.105-16.383-12.459L383,272.067v-76.8c0.027-9.414,7.652-17.039,17.067-17.067H485.4
			C494.814,178.227,502.439,185.852,502.467,195.267z"/>
		<path style="fill:#02A9F4;" d="M476.867,195.267v128c-0.028,9.414-7.653,17.039-17.067,17.067h-59.733
			c-7.635-0.015-14.328-5.105-16.383-12.459L383,272.067v-76.8c0.027-9.414,7.652-17.039,17.067-17.067H459.8
			C469.214,178.227,476.839,185.852,476.867,195.267z"/>
		<path style="fill:#0377BC;" d="M485.4,459.8v34.133c-0.013,4.707-3.826,8.52-8.533,8.533h-102.4
			c-4.707-0.013-8.52-3.826-8.533-8.533v-17.067c-0.009-6.792,2.685-13.309,7.488-18.112c4.803-4.803,11.32-7.497,18.112-7.488
			h85.333C481.574,451.28,485.387,455.093,485.4,459.8z"/>
		<path style="fill:#02A9F4;" d="M459.8,459.8v34.133c-0.013,4.707-3.826,8.52-8.533,8.533h-76.8
			c-4.707-0.013-8.52-3.826-8.533-8.533v-17.067c-0.009-6.792,2.685-13.309,7.488-18.112c4.803-4.803,11.32-7.497,18.112-7.488
			h59.733C455.974,451.28,459.787,455.093,459.8,459.8z"/>
		<path style="fill:#2296F3;" d="M417.139,280.6v-76.8c0-14.139,11.462-25.6,25.6-25.6s25.6,11.462,25.6,25.6v76.8H417.139z"/>
		<path style="fill:#607D8B;" d="M50.2,451.267h34.133c9.426,0,17.067,7.641,17.067,17.067V485.4
			c0,9.426-7.641,17.067-17.067,17.067H50.2c-9.426,0-17.067-7.641-17.067-17.067v-17.067
			C33.133,458.908,40.774,451.267,50.2,451.267z"/>
		<path style="fill:#F44335;" d="M41.667,127C88.795,127,127,165.205,127,212.333v110.933c0,14.138-11.462,25.6-25.6,25.6H33.133
			c-14.138,0-25.6-11.462-25.6-25.6V161.133C7.533,142.282,22.815,127,41.667,127z"/>
		<path style="fill:#CFD8DC;" d="M109.933,246.467H127v68.267h-17.067c-9.426,0-17.067-7.641-17.067-17.067v-34.133
			C92.867,254.108,100.508,246.467,109.933,246.467z"/>
		<path style="fill:#4CAF50;" d="M280.6,280.6c0,14.138-11.461,25.6-25.6,25.6h-9.302c-1.791-5.111-6.615-8.533-12.031-8.533
			c-5.416,0-10.241,3.422-12.031,8.533H203.8c-4.713,0-8.533-3.82-8.533-8.533v-34.133c0-4.713,3.821-8.533,8.533-8.533h17.835
			c1.791,5.111,6.615,8.533,12.031,8.533c5.416,0,10.241-3.422,12.031-8.533H255C269.139,255,280.6,266.462,280.6,280.6z"/>
		<path style="fill:#2296F3;" d="M434.2,255h-93.867l9.472,49.323c0.256,0-9.728,1.963-9.472,1.877l101.035-0.085L434.2,255z"/>
		<g>
			<circle style="fill:#607D8B;" cx="340.333" cy="280.6" r="25.6"/>
			<circle style="fill:#607D8B;" cx="442.733" cy="280.6" r="25.6"/>
		</g>
		<path style="fill:#00BCD4;" d="M127,212.333l-42.667,0c-6.792,0.009-13.309-2.685-18.112-7.488
			c-4.803-4.803-7.497-11.319-7.488-18.112l0-58.027C98.452,136.848,126.975,171.789,127,212.333z"/>
	</g>
	<g>
		<path d="M486.4,0H366.933c-14.132,0.015-25.585,11.468-25.6,25.6v85.333c0.015,14.132,11.468,25.585,25.6,25.6H409.6v34.133
			h-8.533c-14.132,0.015-25.585,11.468-25.6,25.6v51.2h-34.133c-3.253,0.047-6.483,0.566-9.588,1.54l-1.929-3.215
			c-5.614-9.331-15.616-15.136-26.502-15.383s-21.141,5.1-27.172,14.166l-4.546,6.84c-4.804-2.556-10.155-3.911-15.596-3.948h-9.3
			c-3.64,0.001-6.879,2.309-8.067,5.75c-0.747,1.508-2.284,2.462-3.967,2.462c-1.683,0-3.22-0.954-3.967-2.462
			c-1.188-3.441-4.427-5.749-8.067-5.75H204.8c-9.421,0.012-17.054,7.646-17.067,17.067v8.533h-51.2v-59.733
			c-0.059-51.817-42.05-93.808-93.867-93.867C19.114,119.494,0.028,138.581,0,162.133v162.133
			c0.019,18.844,15.29,34.115,34.133,34.133h8.533v86.906c-10.199,3.592-17.034,13.214-17.067,24.027V486.4
			c0.015,14.132,11.468,25.585,25.6,25.6h34.133c14.132-0.015,25.585-11.468,25.6-25.6v-17.067
			c-0.033-10.813-6.868-20.435-17.067-24.027V358.4h8.533c18.844-0.019,34.115-15.29,34.133-34.133v-34.133h51.2v8.533
			c0.012,9.421,7.646,17.054,17.067,17.067h17.833c3.64-0.001,6.879-2.309,8.067-5.75c0.747-1.508,2.284-2.462,3.967-2.462
			c1.683,0,3.22,0.954,3.967,2.462c1.188,3.441,4.427,5.749,8.067,5.75h9.3c5.442-0.038,10.793-1.392,15.598-3.948l4.544,6.831
			c6.028,9.072,16.284,14.422,27.172,14.175c10.889-0.247,20.892-6.056,26.502-15.392l1.927-3.206
			c3.105,0.974,6.336,1.493,9.59,1.54h0.009l34.125-0.028v8.561c0.002,0.418,0.032,0.836,0.092,1.25l0.683,4.608
			c0.048,0.337,0.117,0.672,0.208,1c3.063,11.069,13.132,18.735,24.617,18.742h8.533v93.867h-17.067
			c-18.844,0.019-34.115,15.29-34.133,34.133v17.067c0.012,9.421,7.646,17.054,17.067,17.067h102.4
			c9.421-0.012,17.054-7.646,17.067-17.067V460.8c-0.012-9.421-7.646-17.054-17.067-17.067v-93.867h8.533
			c14.132-0.015,25.585-11.468,25.6-25.6v-128c-0.015-14.132-11.468-25.585-25.6-25.6h-8.533v-34.133h8.533
			c14.132-0.015,25.585-11.468,25.6-25.6V25.6C511.985,11.468,500.532,0.015,486.4,0z M119.467,307.2h-8.533
			c-4.712-0.003-8.53-3.822-8.533-8.533v-34.133c0.003-4.712,3.822-8.53,8.533-8.533h8.533V307.2z M118.963,204.8h-33.63
			c-9.421-0.012-17.054-7.646-17.067-17.067v-46.72C95.964,150.843,115.639,175.598,118.963,204.8z M93.867,486.4
			c-0.003,4.712-3.822,8.53-8.533,8.533H51.2c-4.712-0.003-8.53-3.822-8.533-8.533v-17.067c0.003-4.712,3.822-8.53,8.533-8.533
			h34.133c4.712,0.003,8.53,3.822,8.533,8.533V486.4z M76.8,443.733H59.733V358.4H76.8V443.733z M102.4,341.333H34.133
			c-9.421-0.012-17.054-7.646-17.067-17.067V162.133c0.015-14.132,11.468-25.585,25.6-25.6c2.852,0.01,5.7,0.178,8.533,0.503v50.697
			c0.019,18.844,15.29,34.115,34.133,34.133h34.133v17.067h-8.533c-14.132,0.015-25.585,11.468-25.6,25.6v34.133
			c0.015,14.132,11.468,25.585,25.6,25.6h8.533C119.454,333.687,111.821,341.321,102.4,341.333z M358.4,110.933V102.4h34.133v17.067
			h-25.6C362.222,119.464,358.403,115.645,358.4,110.933z M370.734,298.642c6.315-10.494,6.309-23.619-0.013-34.108H409.6V281.6
			c0.035,5.986,1.661,11.856,4.713,17.006L370.734,298.642z M340.843,298.617c-8.673-0.258-15.769-6.987-16.486-15.635
			c-0.717-8.647,5.175-16.453,13.687-18.136c8.512-1.682,16.93,3.296,19.556,11.566c2.626,8.27-1.376,17.193-9.299,20.73
			C346.792,297.458,342.719,298.263,340.843,298.617z M443.733,298.667c-9.426,0-17.067-7.641-17.067-17.067
			s7.641-17.067,17.067-17.067c9.426,0,17.067,7.641,17.067,17.067C460.788,291.021,453.154,298.654,443.733,298.667z M460.8,204.8
			v47.412c-10.498-6.328-23.635-6.328-34.133,0V204.8c0-9.426,7.641-17.067,17.067-17.067
			C453.159,187.733,460.8,195.374,460.8,204.8z M392.533,196.267c0.003-4.712,3.822-8.53,8.533-8.533h13.264
			c-3.066,5.167-4.699,11.058-4.73,17.067v42.667h-17.067V196.267z M251.725,298.667c-4.025-5.372-10.346-8.533-17.058-8.533
			c-6.712,0-13.033,3.162-17.058,8.533H204.8v-34.133h12.809c4.025,5.372,10.346,8.533,17.058,8.533
			c6.712,0,13.033-3.162,17.058-8.533H256c9.426,0,17.067,7.641,17.067,17.067s-7.641,17.067-17.067,17.067H251.725z
			 M302.583,315.733c-4.918,0.008-9.512-2.456-12.225-6.558l-5.877-8.842c7.536-11.353,7.536-26.116,0-37.469l5.877-8.848
			c2.792-4.191,7.534-6.661,12.568-6.546c5.034,0.115,9.659,2.799,12.257,7.113l1.857,3.092
			c-13.12,13.25-13.121,34.595-0.001,47.846l-1.856,3.087C312.514,313.018,307.739,315.718,302.583,315.733z M477.867,494.933
			h-102.4v-17.067c0.012-9.421,7.646-17.054,17.067-17.067h85.333V494.933z M460.8,443.733h-34.133v-93.867H460.8V443.733z
			 M494.933,196.267v128c-0.003,4.712-3.822,8.53-8.533,8.533h-85.333c-3.63-0.031-6.848-2.344-8.033-5.775l-0.5-3.383v-7.95
			l49.842-0.042c0.062,0,0.115-0.034,0.178-0.035c0.401,0.014,0.776,0.119,1.18,0.119c18.844-0.019,34.115-15.29,34.133-34.133
			v-76.8c-0.034-6.01-1.672-11.902-4.746-17.067H486.4C491.112,187.736,494.93,191.555,494.933,196.267z M460.8,170.667h-34.133
			v-34.133H460.8V170.667z M494.933,110.933c-0.003,4.712-3.822,8.53-8.533,8.533h-76.8V102.4
			c-0.012-9.421-7.646-17.054-17.067-17.067H358.4V51.2H384c4.713,0,8.533-3.821,8.533-8.533s-3.82-8.533-8.533-8.533h-25.6V25.6
			c0.003-4.712,3.822-8.53,8.533-8.533H486.4c4.712,0.003,8.53,3.822,8.533,8.533V110.933z"/>
		<path d="M452.267,34.133c-14.138,0-25.6,11.462-25.6,25.6s11.462,25.6,25.6,25.6s25.6-11.462,25.6-25.6
			C477.851,45.601,466.399,34.149,452.267,34.133z M452.267,68.267c-4.713,0-8.533-3.821-8.533-8.533s3.82-8.533,8.533-8.533
			s8.533,3.821,8.533,8.533C460.797,64.445,456.978,68.264,452.267,68.267z"/>
	</g>
</g>
<g>
</g>
<g>
</g>
<g>
</g>
<g>
</g>
<g>
</g>
<g>
</g>
<g>
</g>
<g>
</g>
<g>
</g>
<g>
</g>
<g>
</g>
<g>
</g>
<g>
</g>
<g>
</g>
<g>
</g>
</svg>
