<?xml version="1.0" encoding="iso-8859-1"?>
<!-- Generator: Adobe Illustrator 19.0.0, SVG Export Plug-In . SVG Version: 6.00 Build 0)  -->
<svg version="1.1" id="Capa_1" xmlns="http://www.w3.org/2000/svg" xmlns:xlink="http://www.w3.org/1999/xlink" x="0px" y="0px"
	 viewBox="0 0 512 512" style="enable-background:new 0 0 512 512;" xml:space="preserve">
<g>
	<g transform="translate(1 1)">
		<g>
			<path style="fill:#00695C;" d="M420.253,92.867v324.267c-4.437,9.983-10.411,30.293-11.775,68.693
				c-0.261,9.212-7.766,16.566-16.982,16.64H237.213c-9.216-0.074-16.72-7.428-16.981-16.64c-1.365-38.4-7.339-58.71-11.775-68.693
				V92.867c4.437-9.984,10.411-30.293,11.775-68.693c0.261-9.212,7.766-16.566,16.981-16.64h154.283
				c9.216,0.074,16.72,7.428,16.981,16.64C409.842,62.573,415.816,82.883,420.253,92.867z"/>
			<path style="fill:#009688;" d="M395.421,92.867v324.267c-4.437,9.983-10.411,30.293-11.776,68.693
				c-0.261,9.212-7.766,16.566-16.981,16.64H237.213c-9.216-0.074-16.72-7.428-16.981-16.64c-1.365-38.4-7.339-58.71-11.775-68.693
				V92.867c4.437-9.984,10.411-30.293,11.775-68.693c0.261-9.212,7.766-16.566,16.981-16.64h129.451
				c9.216,0.074,16.72,7.428,16.981,16.64C385.01,62.573,390.984,82.883,395.421,92.867z"/>
			<g>
				<path style="fill:#3F51B5;" d="M459.421,152.6h34.133c9.426,0,17.067,7.641,17.067,17.067v8.533
					c0,9.426-7.641,17.067-17.067,17.067h-34.133V152.6z"/>
				<path style="fill:#3F51B5;" d="M459.421,255h34.133c9.426,0,17.067,7.641,17.067,17.067V331.8
					c0,9.426-7.641,17.067-17.067,17.067h-34.133V255z"/>
			</g>
			<path style="fill:#283593;" d="M211.954,101.4h204.8c28.277,0,51.2,22.923,51.2,51.2v204.8c0,28.277-22.923,51.2-51.2,51.2
				h-204.8c-28.277,0-51.2-22.923-51.2-51.2V152.6C160.754,124.323,183.677,101.4,211.954,101.4z"/>
			<path style="fill:#3F51B5;" d="M211.954,101.4h179.2c28.277,0,51.2,22.923,51.2,51.2v204.8c0,28.277-22.923,51.2-51.2,51.2
				h-179.2c-28.277,0-51.2-22.923-51.2-51.2V152.6C160.754,124.323,183.677,101.4,211.954,101.4z"/>
		</g>
		<path style="fill:#E91E63;" d="M196.253,192.707c1.952-12.809,8.106-24.606,17.493-33.536
			c25.173-22.955,75.435-22.955,100.608,22.955c25.173-45.909,75.435-45.909,100.608-22.954s25.173,68.949,0,114.859
			c-17.579,34.474-62.891,68.949-100.608,91.903c-7.509-4.608-15.275-9.557-23.125-15.019"/>
		<g>
			<path style="fill:#7F8C8D;" d="M128.584,404.76c0.332,2.577-0.551,5.161-2.389,6.997l-87.467,87.467
				c-1.594,1.598-3.759,2.496-6.016,2.496c-2.257,0-4.422-0.898-6.016-2.496l-16.299-16.299c-1.598-1.594-2.496-3.758-2.496-6.016
				c0-2.257,0.898-4.422,2.496-6.016l87.467-87.467c2.734-2.743,6.972-3.303,10.325-1.365c0.666,0.357,1.271,0.818,1.792,1.365
				l16.213,16.212C127.573,401.009,128.42,402.824,128.584,404.76z"/>
			<path style="fill:#CFD8DC;" d="M211.954,323.267L99.912,431.981c-1.129,1.11-2.549,1.879-4.096,2.219
				c-0.163-1.936-1.01-3.752-2.389-5.121l-16.213-16.212c-0.521-0.548-1.126-1.009-1.792-1.365c0.379-0.895,0.929-1.707,1.621-2.389
				l111.616-108.288c2.732,3.914,5.817,7.571,9.216,10.923C202.164,316.055,206.882,319.915,211.954,323.267z"/>
			<path style="fill:#607D8B;" d="M128.584,404.76c0.332,2.577-0.551,5.161-2.389,6.997l-87.467,87.467
				c-1.594,1.598-3.759,2.496-6.016,2.496c-2.257,0-4.422-0.898-6.016-2.496l-16.299-16.299c-1.598-1.594-2.496-3.758-2.496-6.016
				c0-2.257,0.898-4.422,2.496-6.016l87.467-87.467c2.734-2.743,6.972-3.303,10.325-1.365c0.666,0.357,1.271,0.818,1.792,1.365
				l16.213,16.212C127.573,401.009,128.42,402.824,128.584,404.76z"/>
			<path style="fill:#AD1457;" d="M295.41,346.989c-1.365,1.365-2.731,2.645-4.181,3.925c-3.01,2.694-6.203,5.174-9.557,7.424
				c-33.109-25.089-63.488-54.187-78.507-83.285c-13.073-22.616-21.46-47.632-24.661-73.557c5.577-3.571,11.529-6.518,17.749-8.789
				c34.411-12.88,73.173-4.474,99.157,21.504c6.068,6.05,11.267,12.914,15.445,20.395c4.733,8.313,8.104,17.33,9.984,26.709
				C327.387,292.335,317.821,324.564,295.41,346.989z"/>
			<path style="fill:#00BCD4;" d="M281.672,358.339c-31.687,21.428-73.204,21.495-104.96,0.171
				c-5.073-3.351-9.791-7.211-14.08-11.52c-3.399-3.352-6.484-7.008-9.216-10.923c-3.671-4.83-6.817-10.036-9.387-15.531
				c-4.085-8.627-6.792-17.841-8.021-27.307c-4.984-36.256,11.617-72.091,42.496-91.733c3.201,25.926,11.588,50.942,24.661,73.558
				C218.184,304.152,248.562,333.25,281.672,358.339z"/>
		</g>
		<path style="fill:#AD1457;" d="M414.962,274.029c-17.579,34.475-62.891,68.95-100.608,91.904
			c-2.219-1.365-4.437-2.731-6.741-4.181c32.256-22.784,69.035-55.296,83.797-87.723c22.442-45.909,22.442-91.904,0-114.859
			c-7.384-7.494-16.936-12.479-27.307-14.251c18.232-3.122,36.903,2.109,50.859,14.251
			C440.136,182.125,440.136,228.12,414.962,274.029z"/>
	</g>
	<path d="M486.021,145.067h-9.215c-3.519-24.099-21.299-43.657-44.954-49.45c-2.62-4.019-12.072-21.77-13.822-70.767
		C417.635,11.01,406.3-0.004,392.454,0h-154.2c-13.845-0.003-25.18,11.01-25.575,24.85c-1.745,48.916-11.177,66.708-13.813,70.765
		c-26.75,6.515-45.594,30.454-45.645,57.985v60.481c-19.731,22.155-28.753,51.848-24.683,81.235
		c1.343,10.345,4.301,20.414,8.767,29.842c1.793,3.752,3.816,7.39,6.057,10.894l-37.424,37.431
		c-4.858-0.321-9.62,1.461-13.074,4.892L5.387,465.859c-3.205,3.199-5.007,7.541-5.008,12.069c-0.002,4.528,1.797,8.871,5,12.073
		l16.267,16.267c6.668,6.656,17.466,6.656,24.133,0l87.475-87.484c2.1-2.116,3.603-4.75,4.355-7.635
		c0.742-0.468,1.445-0.994,2.104-1.573l21.562-21.563c8.118,14.129,21.662,24.322,37.485,28.214
		c2.493,3.755,12.151,21.38,13.92,70.924c0.395,13.84,11.73,24.854,25.575,24.85h154.2c13.845,0.004,25.18-11.01,25.575-24.85
		c1.737-48.708,11.103-66.567,13.785-70.723c26.846-6.399,45.761-30.429,45.673-58.027h8.533c14.132-0.015,25.585-11.468,25.6-25.6
		v-59.733c-0.015-14.132-11.468-25.585-25.6-25.6h-8.533V204.8h8.533c14.132-0.015,25.585-11.468,25.6-25.6v-8.533
		C511.606,156.535,500.153,145.082,486.021,145.067z M229.729,25.45c0.105-4.641,3.883-8.357,8.525-8.383h154.2
		c4.642,0.027,8.42,3.742,8.525,8.383c-0.053,23.262,3.712,46.374,11.143,68.417H218.586
		C226.018,71.824,229.782,48.712,229.729,25.45z M169.638,221.267c1.171-1.161,2.433-2.179,3.654-3.263
		c4.493,21.74,12.35,42.645,23.287,61.962c12.753,24.693,36.65,50.991,70.868,78.265c-37.504,18.403-82.82,6.89-106.992-27.183
		l-0.01-0.015l-0.003-0.002c-2.956-4.139-5.533-8.537-7.697-13.14c-3.713-7.84-6.17-16.214-7.283-24.817
		C141.748,266.666,150.708,240.052,169.638,221.267L169.638,221.267z M330.204,260.634c-2.046-10.249-5.726-20.102-10.9-29.183
		c-4.563-8.169-10.236-15.665-16.858-22.275c-24.22-24.111-58.857-34.576-92.375-27.912c2.452-5.574,5.997-10.6,10.426-14.78
		c12.124-10.426,28.284-14.866,44.033-12.1c18.779,3.588,34.808,15.733,43.342,32.842c1.631,2.554,4.453,4.1,7.483,4.1
		s5.852-1.546,7.483-4.1c8.534-17.108,24.563-29.254,43.342-32.842c15.749-2.757,31.905,1.683,44.033,12.1
		c22.15,20.183,21.45,62.167-1.85,104.675c-18.308,35.9-68.133,70.225-93,85.742c-3.51-2.194-6.767-4.283-9.873-6.327
		C327.758,326.337,336.961,292.845,330.204,260.634z M200.238,201.7c31.283-11.64,66.48-4.009,90.133,19.541
		c5.533,5.519,10.271,11.782,14.075,18.608c4.297,7.536,7.35,15.716,9.042,24.225c5.975,28.203-2.724,57.514-23.117,77.892
		c-1.242,1.242-2.483,2.4-3.792,3.558c-1.23,1.087-2.529,2.044-3.804,3.048c-34.422-26.795-59.005-53.152-71.163-76.673
		c-11.481-20.047-19.234-42.01-22.881-64.823C192.426,204.997,196.272,203.2,200.238,201.7z M33.713,494.2l-16.267-16.267
		l87.408-87.417c0.161,0.096,0.292,0.226,0.462,0.312l15.88,15.879L33.713,494.2z M131.895,393.274l-10.808-10.807l32.646-32.653
		c1.271,1.42,2.515,2.861,3.871,4.22c2.283,2.277,4.67,4.391,7.11,6.409L131.895,393.274z M400.979,486.55
		c-0.105,4.641-3.883,8.356-8.525,8.383h-154.2c-4.642-0.027-8.42-3.742-8.525-8.383c0.053-23.262-3.712-46.374-11.143-68.417
		h193.536C404.691,440.176,400.927,463.289,400.979,486.55z M460.421,358.4c0.082,20.871-15.011,38.71-35.608,42.083
		c-2.335,0.373-4.694,0.568-7.058,0.583h-204.8c-2.374,0.001-4.742-0.219-7.075-0.658c-14.202-2.403-26.23-11.815-31.978-25.022
		l5.124-5.124c33.485,19.316,75.007,18.068,107.273-3.223c0.146-0.069,0.257-0.188,0.399-0.265c2.017-1.34,3.999-2.744,5.938-4.244
		c5.518,3.706,11.445,7.498,18.252,11.677c2.729,1.672,6.164,1.679,8.9,0.017c29.883-18.183,83.092-54.741,103.658-95.092
		c27.042-49.325,26.35-99.667-1.733-125.267c-15.952-14.032-37.424-20.037-58.341-16.317c-19.278,3.352-36.497,14.068-48.017,29.883
		c-11.521-15.816-28.74-26.532-48.017-29.883c-20.925-3.732-42.411,2.281-58.358,16.333c-9.534,9.072-16.13,20.794-18.936,33.652
		c-5.049,2.086-9.919,4.579-14.562,7.456l-0.177,0.1c-1.722,1.088-3.355,2.329-5.016,3.523V153.6
		c0.028-23.553,19.114-42.639,42.667-42.667h204.8c23.553,0.028,42.639,19.114,42.667,42.667V358.4z M486.021,264.533
		c4.712,0.003,8.53,3.822,8.533,8.533V332.8c-0.003,4.712-3.822,8.53-8.533,8.533h-8.533v-76.8H486.021z M494.554,179.2
		c-0.003,4.712-3.822,8.53-8.533,8.533h-8.533v-25.6h8.533c4.712,0.003,8.53,3.822,8.533,8.533V179.2z"/>
</g>
<g>
</g>
<g>
</g>
<g>
</g>
<g>
</g>
<g>
</g>
<g>
</g>
<g>
</g>
<g>
</g>
<g>
</g>
<g>
</g>
<g>
</g>
<g>
</g>
<g>
</g>
<g>
</g>
<g>
</g>
</svg>
