<?xml version="1.0" encoding="iso-8859-1"?>
<!-- Generator: Adobe Illustrator 19.0.0, SVG Export Plug-In . SVG Version: 6.00 Build 0)  -->
<svg version="1.1" id="Capa_1" xmlns="http://www.w3.org/2000/svg" xmlns:xlink="http://www.w3.org/1999/xlink" x="0px" y="0px"
	 viewBox="0 0 512 512" style="enable-background:new 0 0 512 512;" xml:space="preserve">
<g>
	<g transform="translate(1 1)">
		<g>
			<path style="fill:#607D8B;" d="M283.672,350.061c52.139,3.584,90.795,16.981,90.795,33.024
				c0,18.773-53.504,34.048-119.467,34.048s-119.467-15.275-119.467-34.048c0-16.043,38.656-29.44,90.795-33.024H283.672z"/>
			<path style="fill:#607D8B;" d="M306.2,383c0,0-25.6-8.533-25.6-76.8h-51.2c0,68.267-25.6,76.8-25.6,76.8H306.2z"/>
		</g>
		<path style="fill:#00838F;" d="M24.6,7.533h460.8c9.426,0,17.067,7.641,17.067,17.067v273.067c0,9.426-7.641,17.067-17.067,17.067
			H24.6c-9.426,0-17.067-7.641-17.067-17.067V24.6C7.533,15.174,15.174,7.533,24.6,7.533z"/>
		<path style="fill:#00BCD4;" d="M24.6,7.533h435.2c9.426,0,17.067,7.641,17.067,17.067v273.067c0,9.426-7.641,17.067-17.067,17.067
			H24.6c-9.426,0-17.067-7.641-17.067-17.067V24.6C7.533,15.174,15.174,7.533,24.6,7.533z"/>
		<path style="fill:#CFD8DC;" d="M476.867,417.133H459.8c-6.792-0.009-13.309,2.685-18.112,7.488
			c-4.803,4.803-7.497,11.32-7.488,18.112v51.2c0.014,4.707,3.826,8.52,8.533,8.533h51.2c4.707-0.014,8.52-3.826,8.533-8.533v-51.2
			c0.009-6.792-2.685-13.309-7.488-18.112C490.176,419.819,483.659,417.124,476.867,417.133z"/>
		<g>
			<path style="fill:#607D8B;" d="M502.467,442.733l0,17.067h-34.133v-42.667l8.533,0c6.792-0.009,13.309,2.685,18.112,7.488
				C499.782,429.424,502.476,435.941,502.467,442.733z"/>
			<path style="fill:#607D8B;" d="M468.333,417.133V459.8H434.2l0-17.067c-0.009-6.792,2.685-13.309,7.488-18.112
				c4.803-4.803,11.32-7.497,18.112-7.488L468.333,417.133z"/>
			<path style="fill:#607D8B;" d="M118.467,417.133h273.067c4.713,0,8.533,3.82,8.533,8.533v68.267c0,4.713-3.82,8.533-8.533,8.533
				H118.467c-4.713,0-8.533-3.821-8.533-8.533v-68.267C109.933,420.954,113.754,417.133,118.467,417.133z"/>
		</g>
		<path style="fill:#CFD8DC;" d="M118.467,417.133h247.467c4.713,0,8.533,3.82,8.533,8.533v68.267c0,4.713-3.82,8.533-8.533,8.533
			H118.467c-4.713,0-8.533-3.821-8.533-8.533v-68.267C109.933,420.954,113.754,417.133,118.467,417.133z"/>
		<path style="fill:#F44335;" d="M344.088,186.981c4.062,5.231,6.261,11.668,6.25,18.291c-0.01,14.775-10.759,27.351-25.353,29.661
			c-0.139,0.75-0.316,1.492-0.53,2.225c-0.085,0.432-0.203,0.857-0.353,1.271c-0.248,0.902-0.554,1.787-0.918,2.648
			c-0.25,0.69-0.544,1.362-0.883,2.013c-0.135,0.366-0.301,0.72-0.494,1.059c-0.236,0.524-0.507,1.031-0.812,1.518
			c-0.141,0.282-0.318,0.565-0.494,0.847c-0.586,0.974-1.223,1.917-1.907,2.825c-0.424,0.565-0.847,1.095-1.271,1.624
			c-1.745,2.069-3.724,3.93-5.897,5.544c-0.459,0.353-0.918,0.671-1.377,0.988c-1.418,0.957-2.905,1.807-4.449,2.543
			c-0.99,0.486-2.003,0.922-3.037,1.306c-0.671,0.247-1.342,0.459-2.012,0.671c-0.459,0.141-0.953,0.282-1.413,0.388
			c-1.138,0.306-2.293,0.542-3.46,0.706c-0.424,0.07-0.883,0.141-1.342,0.176c-1.335,0.173-2.68,0.255-4.025,0.247
			c-19.499-0.007-35.304-15.812-35.31-35.311c-0.007,19.498-15.812,35.303-35.31,35.31c-1.346,0.008-2.691-0.075-4.025-0.247
			c-0.459-0.035-0.918-0.106-1.342-0.176c-1.167-0.164-2.323-0.4-3.46-0.706c-0.459-0.106-0.954-0.247-1.413-0.388
			c-0.671-0.212-1.342-0.424-2.012-0.671c-1.034-0.384-2.047-0.82-3.037-1.306c-1.544-0.736-3.031-1.586-4.449-2.543
			c-0.459-0.318-0.918-0.636-1.377-0.988c-2.173-1.614-4.152-3.475-5.897-5.544c-0.424-0.53-0.847-1.059-1.271-1.624
			c-0.684-0.908-1.32-1.851-1.907-2.825c-0.176-0.283-0.353-0.565-0.494-0.847c-0.305-0.487-0.577-0.994-0.812-1.518
			c-0.194-0.339-0.359-0.693-0.494-1.059c-0.338-0.651-0.633-1.323-0.883-2.013c-0.364-0.862-0.671-1.746-0.918-2.648
			c-0.15-0.414-0.268-0.839-0.353-1.271c-0.214-0.732-0.391-1.475-0.53-2.225c-14.593-2.31-25.342-14.886-25.353-29.661
			c-0.011-6.622,2.188-13.059,6.25-18.29c-9.103-6.499-14.118-17.304-13.206-28.452c0.912-11.147,7.617-20.994,17.655-25.927
			c-2.399-4.218-3.653-8.989-3.637-13.842c-0.002-7.493,2.973-14.679,8.271-19.977c5.298-5.298,12.484-8.273,19.977-8.271h0.035
			c-0.035-0.6-0.035-1.165-0.035-1.766c0-16.576,13.438-30.014,30.014-30.014S255,72.171,255,88.747
			c0-16.576,13.438-30.014,30.014-30.014c16.576,0,30.014,13.438,30.014,30.014c0,0.6,0,1.165-0.035,1.766h0.035
			c7.493-0.002,14.679,2.973,19.977,8.271c5.298,5.298,8.274,12.484,8.271,19.977c0.016,4.852-1.238,9.624-3.637,13.842
			c10.038,4.933,16.743,14.779,17.655,25.926S353.191,180.482,344.088,186.981z"/>
		<g>
			<circle style="fill:#FFEB3A;" cx="58.733" cy="58.733" r="17.067"/>
			<circle style="fill:#FFEB3A;" cx="92.867" cy="263.533" r="17.067"/>
			<circle style="fill:#FFEB3A;" cx="408.6" cy="58.733" r="17.067"/>
			<circle style="fill:#FFEB3A;" cx="434.2" cy="255" r="17.067"/>
		</g>
	</g>
	<g>
		<path d="M486.4,0H25.6C11.468,0.015,0.015,11.468,0,25.6v273.067c0.015,14.132,11.468,25.585,25.6,25.6h196.115
			c-0.202,6.299-0.761,12.581-1.674,18.817c-45.685,3.971-92.041,16.571-92.041,41c0,10.546,8.706,18.99,22.617,25.517h-31.15
			c-9.421,0.012-17.054,7.646-17.067,17.067v68.267c0.012,9.421,7.646,17.054,17.067,17.067h273.067
			c9.421-0.012,17.054-7.646,17.067-17.067v-68.267c-0.012-9.421-7.646-17.054-17.067-17.067h-31.151
			C375.294,403.073,384,394.629,384,384.083c0-24.429-46.355-37.029-92.04-41c-0.914-6.235-1.474-12.518-1.676-18.817H460.8v8.533
			c-0.003,4.712-3.822,8.53-8.533,8.533H435.2c-14.138,0-25.6,11.462-25.6,25.6s11.462,25.6,25.6,25.6h17.067
			c4.712,0.003,8.53,3.822,8.533,8.533v8.533c-18.844,0.019-34.115,15.29-34.133,34.133v51.2
			c0.012,9.421,7.646,17.054,17.067,17.067h51.2c9.421-0.012,17.054-7.646,17.067-17.067v-51.2
			c-0.019-18.844-15.29-34.115-34.133-34.133v-8.533c-0.015-14.132-11.468-25.585-25.6-25.6H435.2c-4.713,0-8.533-3.82-8.533-8.533
			s3.82-8.533,8.533-8.533h17.067c14.132-0.015,25.585-11.468,25.6-25.6v-8.533h8.533c14.132-0.015,25.585-11.468,25.6-25.6V25.6
			C511.985,11.468,500.532,0.015,486.4,0z M460.8,426.667v25.6h-17.067v-8.533C443.746,434.313,451.379,426.679,460.8,426.667z
			 M443.733,494.933v-25.6h51.2v25.6H443.733z M494.933,443.733v8.533h-17.067v-25.6
			C487.287,426.679,494.921,434.313,494.933,443.733z M392.533,426.667l0.017,68.267H119.467v-68.267H392.533z M276.508,353.113
			c0.053,0.311,0.123,0.618,0.21,0.921c8.203,37,27.732,38.5,30.481,38.5c4.765,0.027,8.676-3.762,8.8-8.525
			c0.059-2.233-0.784-4.396-2.34-5.999c-1.556-1.603-3.693-2.511-5.926-2.518c-2.64-0.382-7.551-4.154-11.519-14.87
			c50.128,5.111,70.719,18.317,70.719,23.461c0,7.633-37.742,25.517-110.933,25.517s-110.933-17.883-110.933-25.517
			c0-5.144,20.591-18.35,70.719-23.461c-3.93,10.611-8.783,14.413-11.444,14.853c-4.617,0.25-8.195,4.13-8.071,8.752
			c0.124,4.622,3.906,8.305,8.53,8.306c2.749,0,22.278-1.5,30.481-38.499c0.088-0.304,0.159-0.614,0.212-0.926
			c1.905-9.503,2.981-19.153,3.217-28.842h34.58C273.526,333.957,274.602,343.609,276.508,353.113z M494.933,298.667
			c-0.003,4.712-3.822,8.53-8.533,8.533H25.6c-4.712-0.003-8.53-3.822-8.533-8.533V25.6c0.003-4.712,3.822-8.53,8.533-8.533h460.8
			c4.712,0.003,8.53,3.822,8.533,8.533V298.667z"/>
		<path d="M145.067,460.8c2.264,0.001,4.435-0.897,6.035-2.498c1.601-1.601,2.499-3.772,2.498-6.035v-8.533
			c0-4.713-3.821-8.533-8.533-8.533c-4.713,0-8.533,3.821-8.533,8.533v8.533c-0.001,2.264,0.897,4.435,2.498,6.035
			C140.632,459.903,142.803,460.801,145.067,460.8z"/>
		<path d="M179.2,460.8c2.264,0.001,4.435-0.897,6.035-2.498c1.601-1.601,2.499-3.772,2.498-6.035v-8.533
			c0-4.713-3.82-8.533-8.533-8.533s-8.533,3.821-8.533,8.533v8.533c-0.001,2.264,0.897,4.435,2.498,6.035
			C174.765,459.903,176.936,460.801,179.2,460.8z"/>
		<path d="M221.867,460.8c2.264,0.001,4.435-0.897,6.035-2.498c1.601-1.601,2.499-3.772,2.498-6.035v-8.533
			c0-4.713-3.821-8.533-8.533-8.533c-4.713,0-8.533,3.821-8.533,8.533v8.533c-0.001,2.264,0.897,4.435,2.498,6.035
			C217.432,459.903,219.603,460.801,221.867,460.8z"/>
		<path d="M256,460.8c2.264,0.001,4.435-0.897,6.035-2.498c1.601-1.601,2.499-3.772,2.498-6.035v-8.533
			c0-4.713-3.821-8.533-8.533-8.533c-4.713,0-8.533,3.821-8.533,8.533v8.533c-0.001,2.264,0.897,4.435,2.498,6.035
			C251.565,459.903,253.736,460.801,256,460.8z"/>
		<path d="M290.133,460.8c2.264,0.001,4.435-0.897,6.035-2.498c1.601-1.601,2.499-3.772,2.498-6.035v-8.533
			c0-4.713-3.821-8.533-8.533-8.533c-4.713,0-8.533,3.821-8.533,8.533v8.533c-0.001,2.264,0.897,4.435,2.498,6.035
			C285.699,459.903,287.87,460.801,290.133,460.8z"/>
		<path d="M332.8,460.8c2.264,0.001,4.435-0.897,6.035-2.498c1.601-1.601,2.499-3.772,2.498-6.035v-8.533
			c0-4.713-3.82-8.533-8.533-8.533s-8.533,3.821-8.533,8.533v8.533c-0.001,2.264,0.897,4.435,2.498,6.035
			C328.365,459.903,330.536,460.801,332.8,460.8z"/>
		<path d="M366.933,460.8c2.264,0.001,4.435-0.897,6.035-2.498c1.601-1.601,2.499-3.772,2.498-6.035v-8.533
			c0-4.713-3.82-8.533-8.533-8.533s-8.533,3.821-8.533,8.533v8.533c-0.001,2.264,0.897,4.435,2.498,6.035
			C362.499,459.903,364.67,460.801,366.933,460.8z"/>
		<path d="M145.067,486.4c1.115-0.014,2.216-0.246,3.242-0.683c1.034-0.434,1.986-1.04,2.817-1.792
			c1.603-1.607,2.494-3.789,2.475-6.058c-0.033-2.259-0.917-4.422-2.475-6.059c-1.994-2.072-4.909-2.981-7.727-2.41
			c-2.818,0.571-5.15,2.542-6.181,5.227c-1.124,2.624-0.847,5.638,0.736,8.013C139.537,485.013,142.212,486.428,145.067,486.4z"/>
		<path d="M179.2,486.4c1.115-0.014,2.216-0.246,3.242-0.683c1.034-0.434,1.986-1.04,2.817-1.792
			c1.603-1.607,2.494-3.789,2.475-6.058c-0.033-2.259-0.917-4.422-2.475-6.059c-2.441-2.462-6.129-3.201-9.331-1.872
			c-3.202,1.329-5.281,4.464-5.261,7.931c-0.022,2.27,0.87,4.453,2.475,6.058C174.747,485.53,176.93,486.422,179.2,486.4z"/>
		<path d="M218.625,485.717c3.175,1.362,6.859,0.653,9.302-1.79c2.443-2.443,3.152-6.127,1.79-9.302
			c-0.412-1.045-1.02-2.001-1.792-2.817c-0.817-0.77-1.773-1.378-2.817-1.792c-1.556-0.684-3.287-0.865-4.95-0.517
			c-0.534,0.096-1.05,0.27-1.533,0.517c-0.546,0.184-1.065,0.442-1.542,0.767c-0.445,0.316-0.871,0.658-1.275,1.025
			c-1.561,1.634-2.445,3.799-2.475,6.059c-0.023,2.27,0.869,4.454,2.475,6.059C216.638,484.679,217.59,485.285,218.625,485.717z"/>
		<path d="M256,486.4c2.855,0.03,5.532-1.385,7.115-3.761c1.584-2.376,1.86-5.39,0.735-8.014c-0.412-1.045-1.02-2.001-1.792-2.817
			c-0.831-0.752-1.783-1.358-2.817-1.792c-1.556-0.684-3.287-0.865-4.95-0.517c-0.534,0.096-1.05,0.27-1.533,0.517
			c-0.546,0.184-1.065,0.442-1.542,0.767c-0.445,0.316-0.871,0.658-1.275,1.025c-1.561,1.634-2.445,3.799-2.475,6.059
			c-0.022,2.27,0.87,4.453,2.475,6.058C251.547,485.53,253.73,486.422,256,486.4z"/>
		<path d="M290.133,486.4c2.855,0.03,5.532-1.385,7.115-3.761c1.584-2.376,1.86-5.39,0.735-8.014
			c-0.412-1.045-1.02-2.001-1.792-2.817c-0.831-0.752-1.783-1.358-2.817-1.792c-1.556-0.684-3.286-0.865-4.95-0.517
			c-0.534,0.096-1.05,0.27-1.533,0.517c-0.546,0.184-1.065,0.442-1.542,0.767c-0.445,0.316-0.871,0.658-1.275,1.025
			c-1.561,1.634-2.445,3.799-2.475,6.059c-0.022,2.27,0.87,4.453,2.475,6.058C285.68,485.53,287.863,486.422,290.133,486.4z"/>
		<path d="M332.8,486.4c1.115-0.014,2.216-0.246,3.242-0.683c1.034-0.434,1.986-1.04,2.817-1.792
			c1.603-1.607,2.494-3.789,2.475-6.058c-0.033-2.259-0.917-4.422-2.475-6.059c-0.407-0.367-0.836-0.709-1.283-1.025
			c-0.474-0.324-0.99-0.582-1.533-0.767c-0.484-0.245-1-0.419-1.533-0.517c-1.125-0.25-2.292-0.25-3.417,0
			c-0.534,0.096-1.05,0.27-1.533,0.517c-0.546,0.184-1.065,0.442-1.542,0.767c-0.445,0.316-0.871,0.658-1.276,1.025
			c-0.754,0.829-1.36,1.782-1.792,2.817c-0.48,1.012-0.714,2.123-0.683,3.242c-0.022,2.27,0.87,4.453,2.475,6.058
			C328.347,485.53,330.53,486.422,332.8,486.4z"/>
		<path d="M366.933,486.4c1.115-0.014,2.216-0.246,3.242-0.683c1.034-0.434,1.986-1.04,2.817-1.792
			c2.444-2.441,3.154-6.125,1.792-9.3c-0.432-1.035-1.038-1.987-1.792-2.817c-0.407-0.367-0.836-0.709-1.283-1.025
			c-0.474-0.324-0.99-0.582-1.533-0.767c-0.484-0.245-1-0.419-1.533-0.517c-1.664-0.348-3.394-0.167-4.95,0.517
			c-1.045,0.412-2.001,1.02-2.817,1.792c-0.754,0.829-1.36,1.782-1.792,2.817c-0.48,1.012-0.714,2.122-0.683,3.242
			c-0.022,2.27,0.87,4.453,2.475,6.058C362.48,485.53,364.663,486.422,366.933,486.4z"/>
		<path d="M443.733,231.973v-18.64c0.001-2.264-0.897-4.435-2.498-6.035c-1.601-1.601-3.772-2.499-6.035-2.498h-75.489
			c-0.142-5.257-1.374-10.428-3.619-15.183c9.036-9.639,12.743-23.112,9.908-36.017h43.6c2.264,0.001,4.435-0.897,6.035-2.498
			c1.601-1.601,2.499-3.772,2.498-6.035V83.76c11.755-4.156,18.806-16.176,16.698-28.465c-2.108-12.289-12.763-21.271-25.231-21.271
			c-12.468,0-23.123,8.982-25.231,21.271c-2.108,12.289,4.943,24.309,16.698,28.465v52.773h-43.26
			c-1.927-2.342-4.112-4.458-6.515-6.308c2.893-9.76,1.612-20.283-3.537-29.064c-5.15-8.781-13.707-15.037-23.638-17.277
			c-2.32-15.098-13.338-27.4-28.09-31.364c-14.752-3.963-30.452,1.161-40.026,13.064c-9.571-11.901-25.269-17.026-40.019-13.065
			s-25.768,16.261-28.089,31.356c-13.534,3.114-24.165,13.576-27.496,27.058H68.267V83.76c11.755-4.156,18.806-16.176,16.698-28.465
			S72.201,34.024,59.733,34.024S36.61,43.007,34.502,55.295C32.394,67.584,39.445,79.604,51.2,83.76v35.706
			c-0.001,2.264,0.897,4.435,2.498,6.035c1.601,1.601,3.772,2.499,6.035,2.498H160.22c0.171,0.74,0.272,1.498,0.488,2.225
			c-8.661,6.655-14.227,16.56-15.408,27.419c-1.18,10.859,2.127,21.729,9.156,30.089H93.867c-2.264-0.001-4.435,0.897-6.035,2.498
			c-1.601,1.601-2.499,3.772-2.498,6.035v44.24c-11.755,4.156-18.806,16.176-16.698,28.465
			c2.108,12.289,12.763,21.271,25.231,21.271s23.123-8.982,25.231-21.271c2.108-12.289-4.943-24.309-16.698-28.465V204.8h49.889
			c-0.019,0.5-0.164,0.972-0.164,1.475c-0.072,16.853,10.866,31.778,26.958,36.783c0.242,0.742,0.5,1.425,0.733,1.983
			c0.327,0.899,0.705,1.778,1.133,2.633c0.149,0.393,0.327,0.775,0.533,1.142c0.358,0.742,0.717,1.45,1.142,2.15
			c0.192,0.341,0.392,0.675,0.592,0.992c0.738,1.224,1.539,2.409,2.4,3.55l1.55,1.975c2.138,2.543,4.566,4.828,7.233,6.808
			c0.567,0.433,1.133,0.825,1.766,1.267c1.732,1.178,3.551,2.223,5.442,3.125c1.257,0.619,2.545,1.172,3.858,1.658
			c0.717,0.267,1.417,0.492,2.467,0.825c0.516,0.176,1.042,0.321,1.575,0.433c1.422,0.402,2.87,0.705,4.333,0.908
			c0.7,0.133,1.417,0.358,1.633,0.225c1.729,0.23,3.472,0.342,5.217,0.333c13.945-0.001,27.057-6.641,35.308-17.883
			c8.252,11.242,21.363,17.883,35.308,17.883c1.552,0.017,3.103-0.075,4.642-0.275c0.668-0.047,1.332-0.128,1.992-0.242
			c1.356-0.182,2.698-0.455,4.017-0.817c0.828-0.182,1.646-0.407,2.45-0.675c0.708-0.225,1.408-0.45,2.167-0.733
			c1.283-0.483,2.567-1.017,3.708-1.583c1.952-0.932,3.83-2.013,5.617-3.233c0.567-0.392,1.133-0.783,1.608-1.142
			c2.767-2.058,5.282-4.436,7.492-7.083l1.375-1.758c0.853-1.134,1.649-2.311,2.383-3.525c0.217-0.341,0.417-0.692,0.608-1.033
			c0.315-0.484,0.588-0.994,0.817-1.525c0.326-0.567,0.615-1.155,0.867-1.758c0.387-0.766,0.729-1.553,1.025-2.359
			c0.317-0.783,0.625-1.583,0.85-2.267c10.558-3.316,19.159-11.046,23.578-21.191h70.164v10.106
			c-11.755,4.156-18.806,16.176-16.698,28.465c2.108,12.289,12.763,21.271,25.231,21.271c12.468,0,23.123-8.982,25.231-21.271
			C462.54,248.149,455.488,236.129,443.733,231.973z M409.6,51.2c4.713,0,8.533,3.821,8.533,8.533s-3.821,8.533-8.533,8.533
			c-4.713,0-8.533-3.821-8.533-8.533C401.07,55.022,404.888,51.203,409.6,51.2z M59.733,51.2c4.713,0,8.533,3.821,8.533,8.533
			s-3.821,8.533-8.533,8.533S51.2,64.446,51.2,59.733C51.203,55.022,55.022,51.203,59.733,51.2z M93.867,273.067
			c-4.713,0-8.533-3.82-8.533-8.533S89.154,256,93.867,256c4.713,0,8.533,3.821,8.533,8.533
			C102.397,269.245,98.578,273.064,93.867,273.067z M324.658,227.5c-3.582,0.565-6.416,3.332-7.067,6.9
			c-0.092,0.508-0.217,0.967-0.467,1.958c-0.025,0.075-0.258,0.817-0.275,0.892c-0.182,0.633-0.405,1.254-0.667,1.858
			c-0.125,0.333-0.25,0.658-0.75,1.75c-0.117,0.208-0.458,0.892-0.558,1.1c-0.058,0.092-0.608,1.025-0.658,1.117
			c-0.435,0.724-0.908,1.425-1.417,2.1l-0.983,1.275c-1.352,1.596-2.885,3.031-4.567,4.275l-0.983,0.7
			c-1.104,0.74-2.26,1.4-3.458,1.975c-0.733,0.358-1.5,0.675-2.208,0.942l-1.658,0.55l2.608,8.125l-3.758-7.817
			c-0.784,0.205-1.58,0.361-2.383,0.467l1.267,8.442l-2.533-8.275c-0.939,0.123-1.886,0.179-2.833,0.167
			c-14.781-0.015-26.76-11.994-26.775-26.775c0-4.713-3.821-8.533-8.533-8.533c-4.713,0-8.533,3.82-8.533,8.533
			c-0.015,14.781-11.994,26.76-26.775,26.775c-0.947,0.012-1.894-0.043-2.833-0.167c-0.192-0.025-1.075-0.15-1.267-0.167
			c-0.803-0.106-1.599-0.262-2.383-0.467c-0.175-0.05-1.233-0.35-1.417-0.392l-1.35-0.45c-0.803-0.299-1.59-0.638-2.358-1.017
			c-1.137-0.545-2.234-1.168-3.283-1.867l-1.142-0.825c-1.582-1.167-3.027-2.509-4.308-4l-1.158-1.492
			c-0.557-0.741-1.075-1.512-1.55-2.308c-0.083-0.158-0.4-0.692-0.483-0.842l-0.551-1.117c-0.108-0.274-0.234-0.542-0.375-0.8
			c-0.199-0.412-0.374-0.835-0.525-1.267c-0.292-0.7-0.537-1.418-0.733-2.15l-8.092,2.7l7.875-3.525
			c-0.133-0.483-0.258-0.942-0.35-1.45c-0.651-3.568-3.485-6.335-7.067-6.9c-10.416-1.703-18.084-10.671-18.15-21.225
			c0-0.5,0.086-0.981,0.119-1.475h44.023c4.713,0,8.533-3.821,8.533-8.533s-3.821-8.533-8.533-8.533h-38.038
			c0.038-0.326,0.056-0.655,0.054-0.983c-0.334-2.296-1.588-4.357-3.475-5.708c-6.662-4.755-10.332-12.663-9.664-20.821
			c0.668-8.157,5.576-15.363,12.923-18.971c2.108-1.039,3.693-2.901,4.382-5.147s0.421-4.677-0.741-6.719
			c-0.25-0.44-0.351-0.93-0.563-1.383h43.655c4.713,0,8.533-3.821,8.533-8.533s-3.821-8.533-8.533-8.533h-43.425
			c3.329-6.656,10.125-10.866,17.567-10.883c2.344,0.002,4.586-0.962,6.198-2.665c1.611-1.703,2.45-3.995,2.319-6.335l-0.017-1.3
			c0-7.674,4.094-14.765,10.74-18.602c6.646-3.837,14.833-3.837,21.479,0c6.646,3.837,10.74,10.928,10.74,18.602
			c0,4.713,3.821,8.533,8.533,8.533c4.713,0,8.533-3.821,8.533-8.533c0-11.863,9.617-21.479,21.479-21.479
			c11.863,0,21.479,9.617,21.479,21.479l-0.017,1.3c-0.124,2.345,0.722,4.637,2.339,6.339c1.617,1.702,3.863,2.664,6.211,2.661
			c10.882,0.009,19.703,8.826,19.717,19.708c0.017,3.373-0.851,6.692-2.517,9.625c-1.165,2.04-1.434,4.472-0.742,6.717
			c0.049,0.16,0.179,0.277,0.237,0.433h-34.053c-4.713,0-8.533,3.821-8.533,8.533s3.82,8.533,8.533,8.533h49.381
			c1.145,2.703,1.762,5.599,1.819,8.534c-0.013,7.504-3.639,14.542-9.742,18.908c-1.886,1.352-3.14,3.414-3.475,5.71
			c-0.335,2.296,0.279,4.63,1.7,6.465c2.575,3.339,4.086,7.375,4.338,11.583h-44.022c-4.713,0-8.533,3.82-8.533,8.533
			s3.82,8.533,8.533,8.533h37.263C332.828,224.841,328.899,226.805,324.658,227.5z M435.2,264.533c-4.713,0-8.533-3.821-8.533-8.533
			c0-4.713,3.82-8.533,8.533-8.533s8.533,3.821,8.533,8.533C443.73,260.712,439.912,264.53,435.2,264.533z"/>
	</g>
</g>
<g>
</g>
<g>
</g>
<g>
</g>
<g>
</g>
<g>
</g>
<g>
</g>
<g>
</g>
<g>
</g>
<g>
</g>
<g>
</g>
<g>
</g>
<g>
</g>
<g>
</g>
<g>
</g>
<g>
</g>
</svg>
