<?xml version="1.0" encoding="iso-8859-1"?>
<!-- Generator: Adobe Illustrator 19.0.0, SVG Export Plug-In . SVG Version: 6.00 Build 0)  -->
<svg version="1.1" id="Capa_1" xmlns="http://www.w3.org/2000/svg" xmlns:xlink="http://www.w3.org/1999/xlink" x="0px" y="0px"
	 viewBox="0 0 512.013 512.013" style="enable-background:new 0 0 512.013 512.013;" xml:space="preserve">
<g transform="translate(0 -1)">
	<g transform="translate(1 2)">
		<path style="fill:#37474F;" d="M314.74,451.621v38.059c0,7.083-26.709,12.8-59.733,12.8c-4.437,0-8.704-0.085-12.8-0.341
			c-26.88-1.194-46.933-6.315-46.933-12.459v-38.4c1.195,0.171,2.56,0.256,3.84,0.341c12.715,1.108,27.392,1.792,43.093,1.963
			c4.181,0.171,8.448,0.171,12.8,0.171c11.947,0,23.467-0.256,34.133-0.769c7.765-0.341,15.019-0.768,21.76-1.365H314.74z"/>
		<g>
			<path style="fill:#607D8B;" d="M289.14,451.621v38.059c0,6.144-20.053,11.265-46.933,12.459
				c-26.88-1.194-46.933-6.315-46.933-12.459v-36.693c10.667,0.513,22.187,0.769,34.133,0.769c4.352,0,8.619,0,12.8-0.171
				c15.701-0.171,30.379-0.854,43.093-1.963L289.14,451.621z"/>
			<polygon style="fill:#607D8B;" points="357.406,425.679 434.206,476.879 434.206,323.279 357.406,272.079 152.606,272.079 
				75.806,323.279 75.806,476.879 152.606,425.679 			"/>
			<path style="fill:#607D8B;" d="M357.406,135.546v320c0,4.352-16.811,8.107-42.667,10.325c-1.195,0.171-2.56,0.256-3.84,0.341
				c-16.128,1.365-35.328,2.133-55.893,2.133c-4.352,0-8.619,0-12.8-0.171c-15.701-0.171-30.379-0.853-43.093-1.963
				c-1.28-0.085-2.645-0.171-3.84-0.341c-25.856-2.219-42.667-5.973-42.667-10.325v-320c0-40.277,61.696-98.219,89.344-123.051
				c0.085-0.084,0.171-0.17,0.256-0.17c7.457-6.393,18.483-6.321,25.856,0.17C295.71,37.327,357.406,95.269,357.406,135.546z"/>
		</g>
		<path style="fill:#CFD8DC;" d="M331.806,135.546v320c0,4.352-16.811,8.107-42.667,10.325c-1.195,0.171-2.56,0.256-3.84,0.341
			c-12.715,1.109-27.392,1.792-43.093,1.963c-15.701-0.171-30.379-0.853-43.093-1.963c-1.28-0.085-2.645-0.171-3.84-0.341
			c-25.856-2.219-42.667-5.973-42.667-10.325v-320c0-40.277,61.696-98.219,89.344-123.051c0.085-0.084,0.171-0.17,0.256-0.17
			c0.085,0,0.171,0.085,0.256,0.17C270.11,37.327,331.806,95.269,331.806,135.546z"/>
		<path style="fill:#1566C0;" d="M357.406,135.546h-25.6c0-40.277-61.696-98.219-89.344-123.051c-0.085-0.084-0.171-0.17-0.256-0.17
			c7.457-6.393,18.483-6.321,25.856,0.17C295.71,37.327,357.406,95.269,357.406,135.546z"/>
		<path style="fill:#2296F3;" d="M331.806,135.546h-179.2c0-40.277,61.696-98.219,89.344-123.051c0.085-0.084,0.171-0.17,0.256-0.17
			c0.085,0,0.171,0.085,0.256,0.17C270.11,37.327,331.806,95.269,331.806,135.546z"/>
		<path style="fill:#4CAF50;" d="M212.34,246.479h85.333c4.713,0,8.533,3.821,8.533,8.533v85.333c0,4.713-3.82,8.533-8.533,8.533
			H212.34c-4.713,0-8.533-3.821-8.533-8.533v-85.333C203.806,250.3,207.627,246.479,212.34,246.479z"/>
		<g>
			<path style="fill:#2296F3;" d="M84.34,314.746v170.667c0,9.426-7.641,17.067-17.067,17.067s-17.067-7.641-17.067-17.067V314.746
				c0.027-9.414,7.652-17.039,17.067-17.067C76.671,297.747,84.272,305.349,84.34,314.746z"/>
			<path style="fill:#2296F3;" d="M459.806,314.746v170.667c0,9.426-7.641,17.067-17.067,17.067
				c-9.426,0-17.067-7.641-17.067-17.067V314.746c0.068-9.397,7.669-16.999,17.067-17.067
				C452.154,297.707,459.779,305.332,459.806,314.746z"/>
		</g>
	</g>
	<g>
		<path d="M443.74,291.146c-11.178,0.039-21.033,7.341-24.325,18.024l-52.475-39.356V137.546c0-31.275-30.142-73.617-92.15-129.434
			c-10.728-9.483-26.842-9.483-37.571,0c-62.004,55.817-92.146,98.159-92.146,129.434v132.268l-52.474,39.355
			c-3.718-12.088-15.726-19.632-28.229-17.734c-12.504,1.898-21.733,12.665-21.696,25.311v170.667c0,14.138,11.462,25.6,25.6,25.6
			s25.6-11.461,25.6-25.6v-4.268l51.2-38.4v12.801c0,7.169,3.6,13.939,42.667,18.077v16.056c0,19.258,47.742,21.333,68.267,21.333
			s68.267-2.075,68.267-21.333v-16.054c39.068-4.145,42.667-10.913,42.667-18.079v-12.801l51.2,38.4v4.268
			c0,14.138,11.462,25.6,25.6,25.6c14.138,0,25.6-11.461,25.6-25.6V316.746C469.324,302.614,457.872,291.162,443.74,291.146z
			 M248.631,20.796c4.262-3.583,10.483-3.583,14.746,0c61.467,55.337,81.133,88.671,85.451,108.217H163.185
			C167.503,109.467,187.168,76.134,248.631,20.796z M76.806,487.413c0,4.713-3.821,8.533-8.533,8.533s-8.533-3.82-8.533-8.533
			V316.746c0-4.713,3.821-8.533,8.533-8.533s8.533,3.821,8.533,8.533V487.413z M93.873,461.813V329.546l51.2-38.4v132.267
			L93.873,461.813z M204.806,489.05v-11.951c15.472,1.147,32.969,1.78,51.2,1.78c18.244,0,35.753-0.635,51.2-1.777v11.948
			c-16.479,5.505-33.851,7.845-51.2,6.896C238.658,496.895,221.286,494.556,204.806,489.05z M349.873,453.763
			c-12.649,3.419-25.641,5.415-38.733,5.95c-36.719,2.755-73.594,2.753-110.313-0.009c-13.077-0.536-26.053-2.529-38.687-5.941
			V146.079h187.733V453.763z M366.94,423.413V291.146l51.2,38.4v132.267L366.94,423.413z M452.273,487.413
			c0,4.713-3.821,8.533-8.533,8.533c-4.713,0-8.533-3.82-8.533-8.533V316.746c0-4.713,3.821-8.533,8.533-8.533
			c4.713,0,8.533,3.821,8.533,8.533V487.413z"/>
		<path d="M324.273,274.079c4.713,0,8.533-3.82,8.533-8.533s-3.821-8.533-8.533-8.533h-8.533
			c-0.011-9.421-7.645-17.056-17.067-17.067v-8.533c0-4.713-3.821-8.533-8.533-8.533s-8.533,3.821-8.533,8.533v8.533H264.54v-8.533
			c0-4.713-3.821-8.533-8.533-8.533c-4.713,0-8.533,3.821-8.533,8.533v8.533h-17.067v-8.533c0-4.713-3.821-8.533-8.533-8.533
			s-8.533,3.821-8.533,8.533v8.533c-9.421,0.011-17.056,7.645-17.067,17.067h-8.533c-4.713,0-8.533,3.821-8.533,8.533
			s3.821,8.533,8.533,8.533h8.533v17.067h-8.533c-4.713,0-8.533,3.82-8.533,8.533s3.821,8.533,8.533,8.533h8.533v17.067h-8.533
			c-4.713,0-8.533,3.82-8.533,8.533s3.821,8.533,8.533,8.533h8.533c0.011,9.421,7.645,17.056,17.067,17.067v8.533
			c0,4.713,3.82,8.533,8.533,8.533s8.533-3.82,8.533-8.533v-8.533h17.067v8.533c0,4.713,3.821,8.533,8.533,8.533
			c4.713,0,8.533-3.82,8.533-8.533v-8.533h17.067v8.533c0,4.713,3.82,8.533,8.533,8.533s8.533-3.82,8.533-8.533v-8.533
			c9.421-0.011,17.056-7.645,17.067-17.067h8.533c4.713,0,8.533-3.82,8.533-8.533s-3.821-8.533-8.533-8.533h-8.533v-17.067h8.533
			c4.713,0,8.533-3.82,8.533-8.533s-3.821-8.533-8.533-8.533h-8.533v-17.067H324.273z M213.34,342.346v-85.333h85.333l0.001,8.527
			l-0.001,0.006l0.001,0.006l0.005,34.096l-0.006,0.031l0.006,0.031l0.005,34.046l-0.011,0.056l0.011,0.056l0.001,8.477H213.34z"/>
		<path d="M244.998,276.554c-2.453-2.425-6.126-3.133-9.304-1.792c-1.033,0.433-1.984,1.039-2.813,1.792
			c-0.773,0.815-1.383,1.772-1.796,2.817c-0.906,2.066-0.906,4.417,0,6.483c0.78,2.141,2.467,3.828,4.608,4.608
			c2.067,0.911,4.421,0.911,6.487,0c1.034-0.433,1.987-1.039,2.817-1.792c0.751-0.832,1.357-1.784,1.792-2.817
			c0.911-2.065,0.911-4.418,0-6.483C246.377,278.326,245.769,277.371,244.998,276.554z"/>
		<path d="M246.79,313.504c-0.187-0.546-0.447-1.064-0.771-1.542c-0.338-0.425-0.679-0.85-1.021-1.275
			c-2.457-2.418-6.125-3.125-9.304-1.792c-3.249,1.231-5.368,4.377-5.288,7.851c0.012,1.115,0.243,2.216,0.679,3.242
			c0.435,1.034,1.042,1.986,1.796,2.817c1.628,1.571,3.797,2.457,6.059,2.475c1.115-0.014,2.216-0.246,3.242-0.683
			c1.034-0.433,1.987-1.039,2.817-1.792c0.751-0.832,1.357-1.784,1.792-2.817c0.478-1.012,0.712-2.122,0.683-3.241
			c-0.016-0.545-0.073-1.088-0.171-1.625C247.22,314.558,247.047,314.012,246.79,313.504z"/>
		<path d="M279.132,276.554c-0.816-0.771-1.772-1.379-2.817-1.792c-1.526-0.679-3.228-0.86-4.862-0.517
			c-0.566,0.083-1.115,0.257-1.625,0.517c-0.524,0.169-1.015,0.428-1.45,0.767c-0.489,0.293-0.946,0.637-1.363,1.025
			c-0.773,0.815-1.383,1.772-1.796,2.817c-0.906,2.066-0.906,4.417,0,6.483c0.78,2.141,2.467,3.828,4.608,4.608
			c2.067,0.911,4.421,0.911,6.487,0c1.034-0.433,1.987-1.039,2.817-1.792c0.751-0.832,1.357-1.784,1.792-2.817
			c0.478-1.012,0.713-2.122,0.684-3.241c-0.014-1.115-0.246-2.216-0.683-3.242C280.51,278.327,279.902,277.371,279.132,276.554z"/>
		<path d="M277.852,309.663c-0.475-0.325-0.992-0.582-1.538-0.767c-0.509-0.259-1.056-0.433-1.621-0.517
			c-2.784-0.558-5.664,0.307-7.679,2.308l-1.025,1.275c-0.324,0.477-0.583,0.996-0.771,1.542c-0.258,0.507-0.43,1.053-0.508,1.617
			c-0.1,0.536-0.157,1.08-0.17,1.625c-0.029,1.119,0.204,2.229,0.679,3.242c0.78,2.141,2.467,3.828,4.608,4.608
			c2.066,0.911,4.421,0.911,6.487,0c1.034-0.433,1.987-1.039,2.817-1.792c0.751-0.832,1.357-1.784,1.792-2.817
			c0.437-1.025,0.67-2.126,0.683-3.241c-0.016-2.262-0.902-4.432-2.475-6.059C278.725,310.322,278.298,309.98,277.852,309.663z"/>
	</g>
</g>
<g>
</g>
<g>
</g>
<g>
</g>
<g>
</g>
<g>
</g>
<g>
</g>
<g>
</g>
<g>
</g>
<g>
</g>
<g>
</g>
<g>
</g>
<g>
</g>
<g>
</g>
<g>
</g>
<g>
</g>
</svg>
