<?xml version="1.0" encoding="iso-8859-1"?>
<!-- Generator: Adobe Illustrator 19.0.0, SVG Export Plug-In . SVG Version: 6.00 Build 0)  -->
<svg version="1.1" id="Capa_1" xmlns="http://www.w3.org/2000/svg" xmlns:xlink="http://www.w3.org/1999/xlink" x="0px" y="0px"
	 viewBox="0 0 512 512" style="enable-background:new 0 0 512 512;" xml:space="preserve">
<g>
	<g transform="translate(1 1)">
		<path style="fill:#02A9F4;" d="M499.053,269.507l-56.32-48.64h-51.2l-56.32,48.64c-2.134,1.624-3.395,4.145-3.413,6.827V331.8
			c-0.014,4.526,1.802,8.865,5.035,12.031l31.487,31.659h97.621l31.487-31.659c3.233-3.167,5.049-7.506,5.035-12.031v-55.467
			C502.448,273.652,501.188,271.13,499.053,269.507z M468.333,321.219c0.023,2.245-0.871,4.402-2.475,5.973l-20.735,20.907h-55.979
			l-20.736-20.907c-1.604-1.571-2.497-3.728-2.475-5.973V293.4c0.018-2.682,1.279-5.203,3.413-6.827l22.187-21.163h51.2
			l22.187,21.163c2.134,1.624,3.395,4.145,3.413,6.827V321.219z"/>
		<path style="fill:#FFEB3A;" d="M408.6,29.169C397.226,41.702,391.533,75.8,391.533,75.8v204.8c0,14.138,11.462,25.6,25.6,25.6
			c14.138,0,25.6-11.462,25.6-25.6V75.8c0,0-5.693-34.098-17.067-46.631H408.6z"/>
		<rect x="383" y="429.592" style="fill:#02A9F4;" width="68.267" height="72.875"/>
		<path style="fill:#607D8B;" d="M331.8,24.6v460.8c-0.028,9.414-7.652,17.039-17.067,17.067H24.6
			c-9.414-0.028-17.039-7.653-17.067-17.067V92.867L92.867,7.534h221.867C324.148,7.561,331.773,15.186,331.8,24.6z"/>
		<path style="fill:#CFD8DC;" d="M306.2,24.6v460.8c-0.028,9.414-7.652,17.039-17.067,17.067H24.6
			c-9.414-0.028-17.039-7.653-17.067-17.067V92.867L92.867,7.534h196.267C298.548,7.561,306.173,15.186,306.2,24.6z"/>
		<circle style="fill:#2296F3;" cx="417.133" cy="391.534" r="51.2"/>
		<circle style="fill:#3F51B5;" cx="417.133" cy="390.936" r="17.067"/>
		<g>
			<path style="fill:#FEC108;" d="M442.733,255v25.6c0,14.138-11.462,25.6-25.6,25.6c-14.138,0-25.6-11.462-25.6-25.6V255H442.733z"
				/>
			<path style="fill:#FEC108;" d="M391.533,75.8c0,0,8.533-51.2,25.6-51.2c17.067,0,25.6,51.2,25.6,51.2H391.533z"/>
		</g>
		<path style="fill:#607D8B;" d="M92.867,7.534V75.8c-0.028,9.414-7.653,17.039-17.067,17.067H7.533L92.867,7.534z"/>
	</g>
	<g>
		<path d="M51.2,153.6h93.867c4.713,0,8.533-3.821,8.533-8.533c0-4.713-3.821-8.533-8.533-8.533H51.2
			c-4.713,0-8.533,3.821-8.533,8.533C42.667,149.78,46.487,153.6,51.2,153.6z"/>
		<path d="M196.267,136.534H179.2c-4.713,0-8.533,3.821-8.533,8.533c0,4.713,3.821,8.533,8.533,8.533h17.067
			c4.713,0,8.533-3.821,8.533-8.533C204.8,140.354,200.98,136.534,196.267,136.534z"/>
		<path d="M51.2,358.4h85.333c4.713,0,8.533-3.821,8.533-8.533c0-4.713-3.821-8.533-8.533-8.533H51.2
			c-4.713,0-8.533,3.821-8.533,8.533C42.667,354.58,46.487,358.4,51.2,358.4z"/>
		<path d="M196.267,341.334h-25.6c-4.713,0-8.533,3.821-8.533,8.533c0,4.713,3.821,8.533,8.533,8.533h25.6
			c4.713,0,8.533-3.821,8.533-8.533C204.8,345.154,200.98,341.334,196.267,341.334z"/>
		<path d="M102.4,409.6H51.2c-4.713,0-8.533,3.821-8.533,8.533s3.821,8.533,8.533,8.533h51.2c4.713,0,8.533-3.82,8.533-8.533
			S107.113,409.6,102.4,409.6z"/>
		<path d="M196.267,409.6h-59.733c-4.713,0-8.533,3.821-8.533,8.533s3.821,8.533,8.533,8.533h59.733c4.713,0,8.533-3.82,8.533-8.533
			S200.98,409.6,196.267,409.6z"/>
		<path d="M196.267,204.8h-85.333c-4.713,0-8.533,3.821-8.533,8.533s3.821,8.533,8.533,8.533h85.333c4.713,0,8.533-3.82,8.533-8.533
			S200.98,204.8,196.267,204.8z"/>
		<path d="M51.2,221.867h25.6c4.713,0,8.533-3.82,8.533-8.533s-3.82-8.533-8.533-8.533H51.2c-4.713,0-8.533,3.821-8.533,8.533
			S46.487,221.867,51.2,221.867z"/>
		<path d="M196.267,273.067h-8.533c-4.713,0-8.533,3.82-8.533,8.533s3.821,8.533,8.533,8.533h8.533c4.713,0,8.533-3.82,8.533-8.533
			S200.98,273.067,196.267,273.067z"/>
		<path d="M51.2,290.134h51.2c4.713,0,8.533-3.82,8.533-8.533s-3.821-8.533-8.533-8.533H51.2c-4.713,0-8.533,3.82-8.533,8.533
			S46.487,290.134,51.2,290.134z"/>
		<path d="M292.634,121.967l-28.1,28.1L253.5,139.033c-3.338-3.296-8.711-3.279-12.029,0.038c-3.317,3.317-3.334,8.691-0.038,12.029
			l17.067,17.067c1.6,1.601,3.77,2.5,6.033,2.5s4.434-0.899,6.033-2.5l34.133-34.133c2.178-2.151,3.037-5.304,2.251-8.262
			s-3.097-5.269-6.055-6.055S294.784,119.789,292.634,121.967z"/>
		<path d="M292.634,258.5l-28.1,28.1L253.5,275.567c-3.338-3.296-8.711-3.279-12.029,0.038c-3.317,3.317-3.334,8.691-0.038,12.029
			L258.5,304.7c1.6,1.601,3.77,2.5,6.033,2.5s4.434-0.899,6.033-2.5l34.133-34.133c2.178-2.151,3.037-5.304,2.251-8.262
			c-0.786-2.958-3.097-5.269-6.055-6.055S294.784,256.322,292.634,258.5z"/>
		<path d="M292.634,326.767l-28.1,28.1L253.5,343.833c-3.338-3.296-8.711-3.279-12.029,0.038c-3.317,3.317-3.334,8.691-0.038,12.029
			l17.067,17.067c1.6,1.601,3.77,2.5,6.033,2.5s4.434-0.899,6.033-2.5l34.133-34.133c3.296-3.338,3.279-8.711-0.038-12.029
			S295.972,323.471,292.634,326.767z"/>
		<path d="M249.967,236.433c1.6,1.601,3.77,2.5,6.033,2.5s4.433-0.899,6.033-2.5l11.033-11.033l11.034,11.034
			c2.151,2.178,5.304,3.037,8.262,2.251c2.958-0.786,5.269-3.097,6.055-6.055c0.786-2.958-0.073-6.111-2.251-8.262l-11.033-11.034
			l11.034-11.034c2.178-2.151,3.037-5.304,2.251-8.262c-0.786-2.958-3.097-5.269-6.055-6.055c-2.958-0.786-6.111,0.073-8.262,2.251
			l-11.034,11.033l-11.034-11.034c-3.338-3.296-8.711-3.279-12.029,0.038c-3.317,3.317-3.334,8.691-0.038,12.029L261,213.334
			l-11.034,11.034c-1.6,1.6-2.5,3.77-2.5,6.033C247.467,232.663,248.366,234.834,249.967,236.433z"/>
		<path d="M296.166,395.034c-1.6-1.601-3.77-2.5-6.033-2.5s-4.434,0.899-6.033,2.5l-11.033,11.033l-11.034-11.034
			c-3.338-3.296-8.711-3.279-12.029,0.038c-3.317,3.317-3.334,8.691-0.038,12.029L261,418.134l-11.034,11.034
			c-2.178,2.151-3.037,5.304-2.251,8.262c0.786,2.958,3.097,5.269,6.055,6.055c2.958,0.786,6.111-0.073,8.262-2.251l11.034-11.033
			l11.034,11.034c3.338,3.296,8.711,3.279,12.029-0.038c3.317-3.317,3.334-8.691,0.038-12.029l-11.033-11.034l11.034-11.034
			c1.6-1.6,2.5-3.77,2.5-6.033C298.666,398.804,297.767,396.634,296.166,395.034z"/>
		<path d="M153.6,290.134c4.713,0,8.533-3.82,8.533-8.533s-3.821-8.533-8.533-8.533h-17.067c-4.713,0-8.533,3.82-8.533,8.533
			s3.821,8.533,8.533,8.533H153.6z"/>
		<path d="M418.133,366.334c-14.138,0-25.6,11.461-25.6,25.6c0,14.138,11.462,25.6,25.6,25.6c14.138,0,25.6-11.462,25.6-25.6
			C443.718,377.801,432.265,366.349,418.133,366.334z M418.133,400.467c-4.713,0-8.533-3.82-8.533-8.533s3.82-8.533,8.533-8.533
			s8.533,3.82,8.533,8.533C426.664,396.645,422.845,400.464,418.133,400.467z"/>
		<path d="M505.625,264.05l-53.358-46.086V76.8c0-0.247-0.119-0.455-0.141-0.698c-0.02-0.239,0.064-0.461,0.024-0.702
			c-2.51-15.059-9.649-47.183-25.483-55.994V8.534c0-4.713-3.82-8.533-8.533-8.533S409.6,3.821,409.6,8.534v10.873
			c-15.834,8.81-22.973,40.934-25.483,55.994c-0.04,0.242,0.044,0.464,0.024,0.702C384.119,76.345,384,76.553,384,76.8v141.165
			l-42.667,36.874V25.6c-0.015-14.132-11.468-25.585-25.6-25.6H93.867c-2.266,0.012-4.436,0.913-6.044,2.51L2.51,87.823
			C0.914,89.431,0.013,91.601,0,93.867V486.4c0.015,14.132,11.468,25.585,25.6,25.6h290.133c14.132-0.015,25.585-11.468,25.6-25.6
			V360.45l18.627,18.726c-4.64,19.805,1.215,40.604,15.506,55.079v69.212c-0.001,2.264,0.897,4.435,2.498,6.035
			c1.601,1.601,3.772,2.499,6.035,2.498h68.267c2.264,0.001,4.435-0.897,6.035-2.498c1.601-1.601,2.499-3.772,2.498-6.035v-69.212
			c14.291-14.475,20.147-35.275,15.506-55.08l28.085-28.233c4.865-4.783,7.606-11.319,7.608-18.142v-55.467
			C512.034,272.16,509.682,267.26,505.625,264.05z M418.133,332.8c-9.052,0.01-17.982,2.093-26.103,6.09l-16.563-16.69
			l-0.017-27.792c0.274-0.203,0.536-0.423,0.783-0.658l8.204-7.825c2.092,17.02,16.548,29.808,33.696,29.808
			c17.148,0,31.604-12.788,33.696-29.808l8.204,7.825c0.242,0.23,0.498,0.444,0.767,0.641v27.817l-16.563,16.683
			C436.116,334.893,427.186,332.81,418.133,332.8z M401.067,266.409v-1.875H435.2V281.6c0,9.426-7.641,17.067-17.067,17.067
			s-17.067-7.641-17.067-17.067V266.409z M435.2,221.867v25.6h-34.133V85.334H435.2V221.867z M418.133,34.134
			c3.838,0.433,10.788,15.4,15.159,34.133h-30.319C407.346,49.534,414.296,34.567,418.133,34.134z M85.333,29.133V76.8
			c-0.003,4.712-3.822,8.53-8.533,8.533H29.133L85.333,29.133z M324.267,486.4c-0.003,4.712-3.822,8.53-8.533,8.533H25.6
			c-4.712-0.003-8.53-3.822-8.533-8.533v-384H76.8c14.132-0.015,25.585-11.468,25.6-25.6V17.067h213.333
			c4.712,0.003,8.53,3.822,8.533,8.533V486.4z M343.792,338.725c-1.581-1.565-2.467-3.7-2.458-5.925l0.458-55.834L384,240.517
			v22.242l-19.242,18.35c-4.012,3.244-6.347,8.124-6.358,13.283V322.2c-0.01,4.506,1.77,8.832,4.95,12.025l14.358,14.463
			c-4.214,3.888-7.851,8.359-10.798,13.278L343.792,338.725z M392.533,446.42c5.395,2.574,11.149,4.316,17.067,5.166v43.348h-17.067
			V446.42z M426.667,494.934v-43.348c5.917-0.85,11.672-2.591,17.067-5.166v48.514H426.667z M418.133,435.2
			c-23.564,0-42.667-19.103-42.667-42.667c0-23.564,19.103-42.667,42.667-42.667c23.564,0,42.667,19.103,42.667,42.667
			C460.772,416.086,441.686,435.173,418.133,435.2z M494.933,332.8c0,2.268-0.92,4.44-2.55,6.017l-23.027,23.149
			c-2.947-4.919-6.583-9.39-10.798-13.278l14.367-14.471c3.175-3.192,4.953-7.515,4.942-12.017v-27.809
			c-0.011-5.159-2.347-10.039-6.358-13.283l-19.242-18.35v-22.25l42.667,36.825V332.8z"/>
	</g>
</g>
<g>
</g>
<g>
</g>
<g>
</g>
<g>
</g>
<g>
</g>
<g>
</g>
<g>
</g>
<g>
</g>
<g>
</g>
<g>
</g>
<g>
</g>
<g>
</g>
<g>
</g>
<g>
</g>
<g>
</g>
</svg>
