<?xml version="1.0" encoding="iso-8859-1"?>
<!-- Generator: Adobe Illustrator 19.0.0, SVG Export Plug-In . SVG Version: 6.00 Build 0)  -->
<svg version="1.1" id="Capa_1" xmlns="http://www.w3.org/2000/svg" xmlns:xlink="http://www.w3.org/1999/xlink" x="0px" y="0px"
	 viewBox="0 0 512 512" style="enable-background:new 0 0 512 512;" xml:space="preserve">
<g>
	<g transform="translate(1 1)">
		<rect x="229.4" y="195.267" style="fill:#607D8B;" width="51.2" height="68.267"/>
		<path style="fill:#00838F;" d="M383,24.6v170.667H127V24.6c0.027-9.414,7.652-17.039,17.067-17.067h221.867
			C375.348,7.561,382.973,15.186,383,24.6z"/>
		<path style="fill:#00BCD4;" d="M357.4,24.6v170.667H127V24.6c0.027-9.414,7.652-17.039,17.067-17.067h196.267
			C349.748,7.561,357.373,15.186,357.4,24.6z"/>
		<path style="fill:#607D8B;" d="M383,178.2v17.067c-0.028,9.414-7.653,17.039-17.067,17.067H144.067
			c-9.414-0.028-17.039-7.653-17.067-17.067V178.2H383z"/>
		<path style="fill:#CFD8DC;" d="M357.4,178.2v17.067c-0.028,9.414-7.653,17.039-17.067,17.067H144.067
			c-9.414-0.028-17.039-7.653-17.067-17.067V178.2H357.4z"/>
		<path style="fill:#F44335;" d="M306.2,84.333V101.4c0,4.713-3.82,8.533-8.533,8.533H280.6c-4.713,0-8.533,3.821-8.533,8.533
			v17.067c0,4.713-3.82,8.533-8.533,8.533h-17.067c-4.713,0-8.533-3.821-8.533-8.533v-17.067c0-4.713-3.821-8.533-8.533-8.533
			h-17.067c-4.713,0-8.533-3.821-8.533-8.533V84.333c0-4.713,3.82-8.533,8.533-8.533H229.4c4.713,0,8.533-3.821,8.533-8.533V50.2
			c0-4.713,3.821-8.533,8.533-8.533h17.067c4.713,0,8.533,3.821,8.533,8.533v17.067c0,4.713,3.82,8.533,8.533,8.533h17.067
			C302.38,75.8,306.2,79.621,306.2,84.333z"/>
		<path style="fill:#607D8B;" d="M417.133,323.267v170.667c-0.014,4.707-3.826,8.52-8.533,8.533H101.4
			c-4.707-0.014-8.52-3.826-8.533-8.533V323.267c0.03-35.208,23.97-65.898,58.112-74.496c6.107-1.553,12.386-2.327,18.688-2.304
			h170.667c6.302-0.023,12.581,0.751,18.688,2.304C393.164,257.369,417.104,288.058,417.133,323.267z"/>
		<path style="fill:#CFD8DC;" d="M391.533,323.267v170.667c-0.014,4.707-3.826,8.52-8.533,8.533H101.4
			c-4.707-0.014-8.52-3.826-8.533-8.533V323.267c0.03-35.208,23.97-65.898,58.112-74.496c6.107-1.553,12.386-2.327,18.688-2.304
			h145.067c6.302-0.023,12.581,0.751,18.688,2.304C367.564,257.369,391.504,288.058,391.533,323.267z"/>
		<g>
			<path style="fill:#FFFFFF;" d="M255,246.467l-42.24,49.237c-7.217-15.887-13.069-32.359-17.493-49.237H255z"/>
			<path style="fill:#FFFFFF;" d="M314.733,246.467c-4.351,16.89-10.176,33.366-17.408,49.237L255,246.467H314.733z"/>
			<circle style="fill:#FFFFFF;" cx="357.4" cy="391.533" r="25.6"/>
			<path style="fill:#FFFFFF;" d="M323.267,348.867l-59.733,37.376L255,391.533c2.475-6.144,5.205-12.629,8.107-19.456
				c10.581-24.32,23.723-51.798,34.219-76.373c7.232-15.871,13.057-32.347,17.408-49.237L323.267,348.867z"/>
			<path style="fill:#FFFFFF;" d="M255,391.533l-8.533-5.291l-59.733-37.376l8.533-102.4c4.424,16.879,10.277,33.351,17.493,49.237
				c10.496,24.575,23.552,52.053,34.133,76.373C249.795,378.904,252.611,385.389,255,391.533z"/>
		</g>
	</g>
	<g>
		<path d="M170.667,238.933c-47.105,0.055-85.278,38.228-85.333,85.333v170.667c0.012,9.421,7.646,17.054,17.067,17.067h307.2
			c9.421-0.012,17.054-7.646,17.067-17.067V324.267c-0.055-47.105-38.228-85.278-85.333-85.333h-51.2v-17.067h76.8
			c14.132-0.015,25.585-11.468,25.6-25.6V25.6c-0.015-14.132-11.468-25.585-25.6-25.6H145.067
			c-14.132,0.015-25.585,11.468-25.6,25.6v170.667c0.015,14.132,11.468,25.585,25.6,25.6h76.8v17.067H170.667z M304.617,256
			c-2.245,7.343-5.325,15.677-8.926,24.619L274.567,256H304.617z M358.4,384c9.426,0,17.067,7.641,17.067,17.067
			s-7.641,17.067-17.067,17.067s-17.067-7.641-17.067-17.067C341.346,391.646,348.979,384.012,358.4,384z M315.333,345.392
			l-40.957,25.596c4.105-9.307,8.528-19.046,13.099-29.096c6.28-13.798,12.607-27.75,18.289-41.037
			c0.143-0.289,0.268-0.586,0.375-0.89c1.561-3.662,3.065-7.264,4.509-10.803L315.333,345.392z M256.017,370.367
			c-5.075-11.716-10.708-24.125-16.225-36.267c-5.478-12.054-11.013-24.244-16.072-35.905l32.281-37.624l32.324,37.671
			c-5.146,11.869-10.795,24.298-16.383,36.583C266.533,346.717,261.008,358.867,256.017,370.367z M201.36,289.065
			c1.502,3.683,3.072,7.439,4.71,11.268c0.038,0.081,0.062,0.161,0.102,0.243c5.622,13.146,11.875,26.944,18.078,40.592
			c4.534,9.971,9.122,20.086,13.416,29.848l-40.999-25.623L201.36,289.065z M216.346,280.579
			c-3.601-8.925-6.682-17.245-8.937-24.579h30.026L216.346,280.579z M102.4,324.267c0.051-30.429,20.212-57.16,49.456-65.571
			c-4.416,6.824-6.773,14.776-6.789,22.904v89.3l-2.8,1.867c-14.255,9.485-22.814,25.478-22.8,42.6v2.767
			c-0.001,2.264,0.897,4.435,2.498,6.035c1.601,1.601,3.772,2.499,6.035,2.498h8.533c4.616-0.003,8.392-3.676,8.523-8.29
			c0.131-4.614-3.432-8.495-8.04-8.76c1.577-9.255,6.901-17.449,14.717-22.65l1.867-1.244l1.867,1.244
			c7.816,5.201,13.14,13.396,14.717,22.65c-4.608,0.264-8.171,4.146-8.04,8.76c0.131,4.614,3.907,8.287,8.523,8.29h8.533
			c2.264,0.001,4.435-0.897,6.035-2.498c1.601-1.601,2.499-3.772,2.498-6.035v-2.767c0.014-17.122-8.545-33.115-22.8-42.6
			l-2.8-1.867v-89.3c0.029-13.827,11.036-25.13,24.857-25.525l-7.757,93.083c-0.268,3.183,1.267,6.248,3.975,7.942l64.258,40.161
			v97.672h-85.333V460.8c0-4.713-3.821-8.533-8.533-8.533s-8.533,3.82-8.533,8.533v34.133H102.4V324.267z M409.6,324.267v170.667
			h-42.667V460.8c0-4.713-3.82-8.533-8.533-8.533s-8.533,3.82-8.533,8.533v34.133h-85.333v-97.672l64.258-40.161
			c2.708-1.693,4.243-4.759,3.975-7.942l-7.757-93.083c13.821,0.395,24.828,11.698,24.857,25.525v86.545
			c-16.643,4.297-27.494,20.299-25.328,37.35c2.166,17.051,16.673,29.832,33.861,29.832c17.188,0,31.695-12.781,33.861-29.832
			c2.166-17.051-8.685-33.053-25.328-37.35V281.6c-0.016-8.128-2.373-16.08-6.789-22.904
			C389.388,267.107,409.549,293.838,409.6,324.267z M145.067,17.067h221.867c4.712,0.003,8.53,3.822,8.533,8.533v145.067H136.533
			V25.6C136.536,20.888,140.355,17.07,145.067,17.067z M136.533,196.267v-8.533h238.933v8.533c-0.003,4.712-3.822,8.53-8.533,8.533
			H145.067C140.355,204.797,136.536,200.978,136.533,196.267z M238.933,221.867h34.133v17.067h-34.133V221.867z"/>
		<path d="M213.333,119.467H230.4v17.067c0.012,9.421,7.646,17.054,17.067,17.067h17.067c9.421-0.012,17.054-7.646,17.067-17.067
			v-17.067h17.067c9.421-0.012,17.054-7.646,17.067-17.067V85.333c-0.012-9.421-7.646-17.054-17.067-17.067H281.6V51.2
			c-0.012-9.421-7.646-17.054-17.067-17.067h-17.067c-9.421,0.012-17.054,7.646-17.067,17.067v17.067h-17.067
			c-9.421,0.012-17.054,7.646-17.067,17.067V102.4C196.279,111.821,203.913,119.454,213.333,119.467z M213.333,85.333H230.4
			c9.421-0.012,17.054-7.646,17.067-17.067V51.2h17.067v17.067c0.012,9.421,7.646,17.054,17.067,17.067l17.067-0.017V102.4H281.6
			c-9.421,0.012-17.054,7.646-17.067,17.067v17.067h-17.067v-17.067c-0.012-9.421-7.646-17.054-17.067-17.067h-17.067V85.333z"/>
	</g>
</g>
<g>
</g>
<g>
</g>
<g>
</g>
<g>
</g>
<g>
</g>
<g>
</g>
<g>
</g>
<g>
</g>
<g>
</g>
<g>
</g>
<g>
</g>
<g>
</g>
<g>
</g>
<g>
</g>
<g>
</g>
</svg>
