<?xml version="1.0" encoding="iso-8859-1"?>
<!-- Generator: Adobe Illustrator 19.0.0, SVG Export Plug-In . SVG Version: 6.00 Build 0)  -->
<svg version="1.1" id="Capa_1" xmlns="http://www.w3.org/2000/svg" xmlns:xlink="http://www.w3.org/1999/xlink" x="0px" y="0px"
	 viewBox="0 0 512 512" style="enable-background:new 0 0 512 512;" xml:space="preserve">
<g>
	<g transform="translate(1 1)">
		<rect x="229.4" y="195.267" style="fill:#607D8B;" width="51.2" height="68.267"/>
		<path style="fill:#00838F;" d="M383,24.6v170.667H127V24.6c0.027-9.414,7.652-17.039,17.067-17.067h221.867
			C375.348,7.561,382.973,15.186,383,24.6z"/>
		<path style="fill:#00BCD4;" d="M357.4,24.6v170.667H127V24.6c0.027-9.414,7.652-17.039,17.067-17.067h196.267
			C349.748,7.561,357.373,15.186,357.4,24.6z"/>
		<path style="fill:#607D8B;" d="M383,178.2v17.067c-0.028,9.414-7.653,17.039-17.067,17.067H144.067
			c-9.414-0.028-17.039-7.653-17.067-17.067V178.2H383z"/>
		<path style="fill:#CFD8DC;" d="M357.4,178.2v17.067c-0.028,9.414-7.653,17.039-17.067,17.067H144.067
			c-9.414-0.028-17.039-7.653-17.067-17.067V178.2H357.4z"/>
		<path style="fill:#283593;" d="M400.067,323.267v170.667c-0.014,4.707-3.826,8.52-8.533,8.533H118.467
			c-4.707-0.014-8.52-3.826-8.533-8.533V323.267c0.01-40.889,32.04-74.607,72.875-76.715c1.28-0.085,2.56-0.085,3.925-0.085h8.533
			v0.085h119.467v-0.085h8.533C365.681,246.47,400.063,280.853,400.067,323.267z"/>
		<g>
			<path style="fill:#3F51B5;" d="M374.467,323.267v170.667c-0.014,4.707-3.826,8.52-8.533,8.533H118.467
				c-4.707-0.014-8.52-3.826-8.533-8.533V323.267c0.01-40.889,32.04-74.607,72.875-76.715h106.325v-0.085h8.533
				c0.769-0.014,1.538,0.014,2.304,0.085h1.621C342.426,248.659,374.457,282.378,374.467,323.267z"/>
			<path style="fill:#3F51B5;" d="M348.867,323.267l-85.333,139.605L255,476.867c2.56-6.4,5.461-15.019,8.533-25.087
				c6.485-20.907,13.739-48.3,20.907-76.459c5.632-22.187,11.008-44.715,15.872-65.024c6.656-28.587,12.032-52.48,14.421-63.829
				L348.867,323.267z"/>
			<path style="fill:#3F51B5;" d="M255,476.867l-8.533-13.995l-85.333-139.605l34.133-76.715
				c2.475,11.349,7.851,35.243,14.507,63.744c4.864,20.309,10.24,42.837,15.872,65.024c7.083,28.159,14.421,55.552,20.821,76.459
				C249.539,461.848,252.44,470.467,255,476.867z"/>
		</g>
		<path style="fill:#2C3E50;" d="M263.533,451.779v50.688h-17.067v-50.688c3.072,10.069,5.973,18.688,8.533,25.087
			C257.56,470.467,260.461,461.848,263.533,451.779z"/>
		<path style="fill:#FFFFFF;" d="M255,246.467h-59.733v0.085c2.475,11.349,7.851,35.243,14.507,63.744
			c4.864,20.309,10.24,42.837,15.872,65.024c7.083,28.159,14.421,46.507,20.821,67.413c3.072,10.069,5.973,19.2,8.533,25.6
			c2.56-6.4,5.461-15.531,8.533-25.6c6.485-20.907,13.739-39.254,20.907-67.413c5.632-22.187,11.008-44.715,15.872-65.024
			c6.656-28.501,12.032-52.395,14.421-63.744v-0.085H255z"/>
		<g>
			<path style="fill:#CFD8DC;" d="M314.733,246.467v0.085c-2.389,11.349-7.765,35.243-14.421,63.744l-1.365-0.341
				c-6.656-9.216-16.213-22.869-24.661-35.156v-0.085c-9.984-14.422-18.347-26.882-19.285-28.161v-0.085H314.733z"/>
			<path style="fill:#CFD8DC;" d="M255,246.467v0.085c0,0-8.789,12.971-19.285,28.16v0.085
				c-8.448,12.288-18.005,25.941-24.661,35.157l-1.28,0.341c-6.656-28.501-12.032-52.395-14.507-63.744v-0.085H255z"/>
		</g>
		<g>
			<path style="fill:#4CAF50;" d="M274.285,274.713v0.085L263.533,306.2h-17.067l-10.752-31.402v-0.085
				c10.496-15.189,19.285-28.16,19.285-28.16C255.939,247.831,264.301,260.291,274.285,274.713z"/>
			<path style="fill:#4CAF50;" d="M284.44,375.32c-7.168,28.159-14.421,55.552-20.907,76.459
				c-3.072,10.069-5.973,18.687-8.533,25.087c-2.56-6.4-5.461-15.019-8.533-25.087c-6.4-20.907-13.739-48.3-20.821-76.459
				l0.683-0.171l20.139-68.949h17.067l20.139,68.949L284.44,375.32z"/>
		</g>
	</g>
	<g>
		<path d="M236.733,130.525c3.546,0.901,7.177,1.425,10.833,1.562v4.446c0,4.713,3.82,8.533,8.533,8.533
			c4.713,0,8.533-3.821,8.533-8.533v-6.506c3.798-1.173,7.287-3.174,10.217-5.86c5.069-4.32,7.474-10.998,6.325-17.558
			c-2.358-12.092-16.308-18.542-20.533-20.233l-1.008-0.4c-2.835-1-5.562-2.282-8.142-3.825c-1.593-0.927-2.649-2.558-2.842-4.392
			c0.017-0.283,0.058-1.042,1.692-1.917c4.628-1.992,9.807-2.305,14.642-0.883c2.94,0.837,6.102,0.038,8.292-2.094
			c2.19-2.132,3.072-5.273,2.313-8.234c-0.759-2.961-3.043-5.29-5.988-6.106c-1.634-0.41-3.293-0.715-4.966-0.913V51.2
			c0-4.713-3.82-8.533-8.533-8.533s-8.533,3.821-8.533,8.533v7.528c-1.793,0.514-3.533,1.194-5.2,2.03
			c-6.227,3.043-10.336,9.199-10.758,16.117c-0.174,7.846,3.755,15.214,10.367,19.442c3.578,2.239,7.386,4.089,11.358,5.517
			l0.975,0.392c4.211,1.195,7.82,3.924,10.117,7.65c0.042,0.217-0.375,1-1.408,1.992c-6.602,3.73-14.461,4.536-21.683,2.225
			c-4.538-1.27-9.246,1.379-10.517,5.917S232.196,129.255,236.733,130.525L236.733,130.525z"/>
		<path d="M366.933,221.867c14.132-0.015,25.585-11.468,25.6-25.6V25.6c-0.015-14.132-11.468-25.585-25.6-25.6H145.067
			c-14.132,0.015-25.585,11.468-25.6,25.6v170.667c0.015,14.132,11.468,25.585,25.6,25.6h76.8v17.067h-34.133
			c-47.105,0.055-85.278,38.228-85.333,85.333v170.667c0.012,9.421,7.646,17.054,17.067,17.067h273.067
			c9.421-0.012,17.054-7.646,17.067-17.067V324.267c-0.055-47.105-38.228-85.278-85.333-85.333h-34.133v-17.067H366.933z
			 M145.067,17.067h221.867c4.712,0.003,8.53,3.822,8.533,8.533v145.067H136.533V25.6C136.536,20.888,140.355,17.07,145.067,17.067z
			 M136.533,196.267v-8.533h238.933v8.533c-0.003,4.712-3.822,8.53-8.533,8.533H145.067
			C140.355,204.797,136.536,200.978,136.533,196.267z M305.137,256c-1.967,8.879-4.784,21.37-8.179,36.056
			c-8.431-12.019-18.019-26.019-24.854-36.056H305.137z M258.43,298.667h-4.859l-7.382-21.625
			c3.673-5.357,7.048-10.306,9.811-14.369c2.764,4.063,6.139,9.011,9.811,14.369L258.43,298.667z M253.867,315.733h4.267
			l18.132,62.063c-6.911,27.256-14.008,53.648-20.241,73.721c-6.139-19.895-13.24-46.298-20.245-73.876L253.867,315.733z
			 M284.433,344.89l-10.952-37.49l4.394-12.873c5.019,7.219,9.879,14.125,13.906,19.69
			C289.466,324.032,286.997,334.354,284.433,344.89z M234.124,294.527l4.395,12.873l-10.92,37.379
			c-2.543-10.417-5.015-20.706-7.356-30.595C224.265,308.625,229.115,301.732,234.124,294.527z M193.556,274.581
			c8.045,35.506,21.698,93.614,34.521,141.227l-56.326-92.167L193.556,274.581z M318.452,274.6l21.798,49.042l-56.268,92.071
			C296.927,367.642,310.652,309.065,318.452,274.6z M215.057,292.033c-3.19-13.769-5.983-26.096-8.183-36.033h33.022
			C233.065,266.031,223.484,280.02,215.057,292.033z M119.467,324.267c0.058-35.84,27.808-65.54,63.561-68.028L154.333,320.8
			c-1.134,2.564-0.941,5.521,0.517,7.917l92.617,151.554v14.663h-76.8v-58.892c0-4.713-3.82-8.533-8.533-8.533
			s-8.533,3.82-8.533,8.533v58.892h-34.133V324.267z M392.533,324.267v170.667H358.4v-58.892c0-4.713-3.821-8.533-8.533-8.533
			c-4.713,0-8.533,3.82-8.533,8.533v58.892h-76.8v-14.663l92.617-151.554c1.458-2.395,1.651-5.352,0.517-7.917l-28.694-64.561
			C364.726,258.727,392.475,288.427,392.533,324.267z M273.067,238.933h-34.133v-17.067h34.133V238.933z"/>
	</g>
</g>
<g>
</g>
<g>
</g>
<g>
</g>
<g>
</g>
<g>
</g>
<g>
</g>
<g>
</g>
<g>
</g>
<g>
</g>
<g>
</g>
<g>
</g>
<g>
</g>
<g>
</g>
<g>
</g>
<g>
</g>
</svg>
