<?xml version="1.0" encoding="iso-8859-1"?>
<!-- Generator: Adobe Illustrator 19.0.0, SVG Export Plug-In . SVG Version: 6.00 Build 0)  -->
<svg version="1.1" id="Capa_1" xmlns="http://www.w3.org/2000/svg" xmlns:xlink="http://www.w3.org/1999/xlink" x="0px" y="0px"
	 viewBox="0 0 512 512" style="enable-background:new 0 0 512 512;" xml:space="preserve">
<g>
	<g transform="translate(1 1)">
		<path style="fill:#607D8B;" d="M502.467,58.733V485.4c-0.028,9.414-7.653,17.039-17.067,17.067H24.6
			c-9.414-0.028-17.039-7.653-17.067-17.067V58.733H502.467z"/>
		<path style="fill:#CFD8DC;" d="M476.867,58.733V485.4c-0.028,9.414-7.653,17.039-17.067,17.067H24.6
			c-9.414-0.028-17.039-7.653-17.067-17.067V58.733H476.867z"/>
		<path style="fill:#283593;" d="M502.467,24.6v51.2H7.533V24.6C7.561,15.186,15.186,7.561,24.6,7.533h460.8
			C494.814,7.561,502.439,15.186,502.467,24.6z"/>
		<path style="fill:#3F51B5;" d="M476.867,24.6v51.2H7.533V24.6C7.561,15.186,15.186,7.561,24.6,7.533h435.2
			C469.214,7.561,476.839,15.186,476.867,24.6z"/>
		<circle style="fill:#00BCD4;" cx="75.8" cy="161.133" r="25.6"/>
		<circle style="fill:#E91E63;" cx="434.2" cy="161.133" r="25.6"/>
		<circle style="fill:#FFEB3A;" cx="255" cy="161.133" r="25.6"/>
		<circle style="fill:#00BCD4;" cx="75.8" cy="289.133" r="25.6"/>
		<circle style="fill:#E91E63;" cx="434.2" cy="289.133" r="25.6"/>
		<circle style="fill:#FFEB3A;" cx="255" cy="289.133" r="25.6"/>
		<circle style="fill:#00BCD4;" cx="75.8" cy="417.133" r="25.6"/>
		<circle style="fill:#E91E63;" cx="434.2" cy="417.133" r="25.6"/>
		<circle style="fill:#FFEB3A;" cx="255" cy="417.133" r="25.6"/>
	</g>
	<g>
		<path d="M486.4,0H25.6C11.468,0.015,0.015,11.468,0,25.6v460.8c0.015,14.132,11.468,25.585,25.6,25.6h460.8
			c14.132-0.015,25.585-11.468,25.6-25.6V25.6C511.985,11.468,500.532,0.015,486.4,0z M25.6,17.067h460.8
			c4.712,0.003,8.53,3.822,8.533,8.533v42.667H17.067V25.6C17.07,20.888,20.888,17.07,25.6,17.067z M486.4,494.933H25.6
			c-4.712-0.003-8.53-3.822-8.533-8.533V85.333h477.867V486.4C494.93,491.112,491.112,494.93,486.4,494.933z"/>
		<path d="M39.425,50.517c2.065,0.911,4.418,0.911,6.483,0c1.034-0.433,1.986-1.039,2.817-1.791
			c0.752-0.831,1.358-1.783,1.792-2.817c0.437-1.026,0.669-2.127,0.683-3.242c-0.033-2.259-0.917-4.422-2.475-6.059
			c-0.419-0.387-0.877-0.731-1.367-1.025c-0.434-0.339-0.925-0.599-1.45-0.767c-3.181-1.3-6.83-0.597-9.301,1.792
			c-1.561,1.634-2.445,3.799-2.475,6.059c0.015,2.263,0.902,4.432,2.475,6.059C37.438,49.479,38.39,50.085,39.425,50.517z"/>
		<path d="M73.558,50.517c2.065,0.911,4.418,0.911,6.483,0c1.034-0.433,1.986-1.039,2.817-1.791
			c1.603-1.607,2.494-3.789,2.475-6.059c0.02-3.467-2.059-6.601-5.261-7.931c-3.202-1.329-6.89-0.59-9.331,1.872
			c-1.576,1.625-2.462,3.795-2.475,6.059c-0.023,2.27,0.869,4.454,2.475,6.059C71.571,49.479,72.524,50.085,73.558,50.517z"/>
		<path d="M107.692,50.517c2.065,0.911,4.418,0.911,6.483,0c1.053-0.433,2.011-1.07,2.817-1.875
			c1.614-1.565,2.509-3.727,2.475-5.975c-0.033-2.259-0.917-4.422-2.475-6.059c-2.451-2.425-6.123-3.133-9.3-1.792
			c-1.055,0.391-2.015,1.002-2.817,1.792c-0.367,0.404-0.709,0.83-1.025,1.275c-0.325,0.477-0.583,0.995-0.767,1.542
			c-0.246,0.483-0.42,1-0.517,1.533c-0.097,0.565-0.153,1.136-0.167,1.709c-0.038,2.248,0.858,4.412,2.475,5.975
			C105.665,49.466,106.626,50.106,107.692,50.517z"/>
		<path d="M196.267,51.2h119.467c4.713,0,8.533-3.821,8.533-8.533s-3.821-8.533-8.533-8.533H196.267
			c-4.713,0-8.533,3.821-8.533,8.533S191.554,51.2,196.267,51.2z"/>
		<path d="M460.8,51.2h8.533c4.713,0,8.533-3.821,8.533-8.533s-3.821-8.533-8.533-8.533H460.8c-4.713,0-8.533,3.821-8.533,8.533
			S456.087,51.2,460.8,51.2z"/>
		<path d="M418.133,51.2h8.533c4.713,0,8.533-3.821,8.533-8.533s-3.82-8.533-8.533-8.533h-8.533c-4.713,0-8.533,3.821-8.533,8.533
			S413.421,51.2,418.133,51.2z"/>
		<path d="M423.434,194.05c3.759,1.434,7.743,2.184,11.766,2.217c17.754,0.066,32.595-13.489,34.133-31.177
			c1.538-17.688-10.741-33.601-28.24-36.6c-17.499-2.999-34.376,7.919-38.814,25.109H288.922
			c-3.828-15.058-17.385-25.599-32.922-25.599c-15.537,0-29.093,10.541-32.922,25.599H109.722
			c-3.742-14.831-16.857-25.388-32.145-25.877c-15.288-0.488-29.05,9.21-33.731,23.772c-4.681,14.562,0.851,30.463,13.56,38.975
			c12.709,8.512,29.519,7.574,41.202-2.298l53.12,37.961l-53.12,37.961c-6.083-5.193-13.81-8.061-21.808-8.095
			c-18.851,0-34.133,15.282-34.133,34.133s15.282,34.133,34.133,34.133c7.989-0.034,15.707-2.895,21.787-8.077l26.094,18.648
			l-35.999,51.415c-3.793-1.459-7.818-2.223-11.882-2.253c-17.754-0.066-32.595,13.489-34.133,31.177
			c-1.538,17.688,10.741,33.601,28.24,36.599s34.376-7.919,38.814-25.109h113.357c3.828,15.058,17.385,25.599,32.922,25.599
			c15.537,0,29.093-10.541,32.922-25.599h113.357c3.744,14.835,16.865,25.393,32.158,25.875
			c15.292,0.482,29.053-9.229,33.723-23.798c4.671-14.57-0.879-30.471-13.602-38.969c-12.722-8.499-29.537-7.538-41.208,2.355
			l-53.123-37.962l53.167-37.994c6.082,5.193,13.809,8.061,21.806,8.094c18.851,0,34.133-15.282,34.133-34.133
			S454.051,256,435.2,256c-8.007,0.034-15.742,2.908-21.829,8.11l-25.987-18.571L423.434,194.05z M268.005,386.292
			c-11.483-4.507-24.52-2.265-33.836,5.821l-53.097-37.946l53.141-37.977c12.52,10.762,31.023,10.77,43.552,0.019l26.2,18.723
			L268.005,386.292z M317.85,344.854l13.031,9.313l-39.129,27.962L317.85,344.854z M108.592,405.965l57.808-41.313l57.808,41.312
			c-0.444,1.19-0.821,2.404-1.13,3.635H109.722C109.413,408.368,109.036,407.155,108.592,405.965z M244.118,194.014
			c11.434,4.45,24.392,2.209,33.668-5.823l53.095,37.942l-53.096,37.943c-12.536-10.775-31.067-10.767-43.594,0.019l-26.089-18.644
			L244.118,194.014z M194.217,235.527l-13.145-9.394l39.476-28.211L194.217,235.527z M403.41,174.305l-57.855,41.344l-57.78-41.29
			c0.452-1.208,0.835-2.441,1.147-3.692h113.357C402.587,171.899,402.965,173.114,403.41,174.305L403.41,174.305z M238.933,290.133
			c-0.018-7.408,4.757-13.977,11.808-16.247c7.051-2.27,14.761,0.279,19.069,6.306l0.023,0.05l0.066,0.056
			c4.254,6.009,4.171,14.071-0.207,19.991s-12.062,8.36-19.054,6.052C243.646,304.032,238.926,297.496,238.933,290.133z
			 M224.217,277.938c-0.448,1.199-0.828,2.421-1.138,3.663h-40.287l15.525-22.173L224.217,277.938z M223.078,298.667
			c0.312,1.251,0.695,2.482,1.147,3.69L166.4,343.681l-18.046-12.897l22.488-32.118H223.078z M287.766,302.385
			c0.456-1.216,0.842-2.458,1.156-3.719h40.432l-15.604,22.288L287.766,302.385z M288.922,281.6
			c-0.312-1.251-0.695-2.484-1.148-3.692l57.78-41.29l18.158,12.975L341.304,281.6H288.922z M360.227,226.133l39.849-28.477
			l-26.578,37.96L360.227,226.133z M435.2,145.067c7.316-0.01,13.824,4.643,16.181,11.569c2.357,6.926,0.037,14.583-5.767,19.037
			c-5.804,4.454-13.801,4.713-19.881,0.645c-0.07-0.053-0.102-0.133-0.175-0.184c-0.047-0.033-0.104-0.034-0.152-0.067
			c-6.099-4.266-8.724-11.997-6.481-19.095C421.167,149.875,427.757,145.054,435.2,145.067z M256,145.067
			c6.377-0.018,12.23,3.53,15.162,9.194c2.932,5.663,2.451,12.491-1.245,17.688l-0.083,0.077l-0.023,0.05
			c-4.71,6.54-13.358,8.887-20.728,5.626c-7.371-3.261-11.45-11.239-9.778-19.123C240.975,150.693,247.94,145.057,256,145.067z
			 M76.8,179.2c-9.426,0-17.067-7.641-17.067-17.067c0-9.426,7.641-17.067,17.067-17.067s17.067,7.641,17.067,17.067
			C93.854,171.554,86.221,179.188,76.8,179.2z M108.583,174.329c0.448-1.198,0.828-2.421,1.138-3.663h113.357
			c0.31,1.241,0.691,2.464,1.139,3.663L166.4,215.648L108.583,174.329z M184.431,249.504L161.958,281.6h-52.237
			c-0.31-1.241-0.691-2.464-1.139-3.663l57.817-41.319L184.431,249.504z M76.8,307.2c-9.426,0-17.067-7.641-17.067-17.067
			c0-9.426,7.641-17.067,17.067-17.067s17.067,7.641,17.067,17.067C93.854,299.554,86.221,307.188,76.8,307.2z M108.575,302.356
			c0.452-1.207,0.834-2.439,1.147-3.69h40.287l-15.539,22.195L108.575,302.356z M151.728,354.167l-39.523,28.246l26.361-37.651
			L151.728,354.167z M76.8,435.2c-9.426,0-17.067-7.641-17.067-17.067s7.641-17.067,17.067-17.067s17.067,7.641,17.067,17.067
			C93.854,427.554,86.221,435.188,76.8,435.2z M256,435.2c-8.074,0.031-15.065-5.6-16.755-13.495
			c-1.69-7.895,2.385-15.894,9.764-19.17s16.045-0.933,20.767,5.616l0.056,0.124c0.044,0.06,0.117,0.079,0.16,0.137
			c3.641,5.208,4.08,12.011,1.138,17.643C268.189,431.688,262.355,435.214,256,435.2z M435.2,401.067
			c9.426,0,17.067,7.641,17.067,17.067S444.626,435.2,435.2,435.2c-9.426,0-17.067-7.641-17.067-17.067
			C418.146,408.713,425.779,401.079,435.2,401.067z M403.401,405.99c-0.441,1.182-0.816,2.387-1.123,3.61H288.922
			c-0.31-1.242-0.691-2.466-1.14-3.665l57.772-41.283L403.401,405.99z M327.635,330.877l22.552-32.21h52.091
			c0.31,1.242,0.691,2.465,1.14,3.665l-57.864,41.35L327.635,330.877z M435.2,273.067c9.426,0,17.067,7.641,17.067,17.067
			c0,9.426-7.641,17.067-17.067,17.067c-9.426,0-17.067-7.641-17.067-17.067C418.146,280.713,425.779,273.079,435.2,273.067z
			 M403.409,277.963c-0.445,1.19-0.822,2.405-1.131,3.637h-40.141l15.46-22.083L403.409,277.963z"/>
	</g>
</g>
<g>
</g>
<g>
</g>
<g>
</g>
<g>
</g>
<g>
</g>
<g>
</g>
<g>
</g>
<g>
</g>
<g>
</g>
<g>
</g>
<g>
</g>
<g>
</g>
<g>
</g>
<g>
</g>
<g>
</g>
</svg>
