<?xml version="1.0" encoding="iso-8859-1"?>
<!-- Generator: Adobe Illustrator 19.0.0, SVG Export Plug-In . SVG Version: 6.00 Build 0)  -->
<svg version="1.1" id="Capa_1" xmlns="http://www.w3.org/2000/svg" xmlns:xlink="http://www.w3.org/1999/xlink" x="0px" y="0px"
	 viewBox="0 0 512.001 512.001" style="enable-background:new 0 0 512.001 512.001;" xml:space="preserve">
<g>
	<g transform="translate(1 1)">
		<path style="fill:#1566C0;" d="M186.734,237.934V280.6c-0.028,9.414-7.653,17.039-17.067,17.067H101.4
			c-9.414-0.028-17.039-7.652-17.067-17.067v-42.667H186.734z"/>
		<path style="fill:#2296F3;" d="M161.134,237.934V280.6c-0.028,9.414-7.652,17.039-17.067,17.067H101.4
			c-9.414-0.028-17.039-7.652-17.067-17.067v-42.667H161.134z"/>
		<path style="fill:#FFEB3A;" d="M229.4,135.534c18.851,0,34.133,15.282,34.133,34.133S248.252,203.8,229.4,203.8H41.667
			c-18.851,0-34.133-15.282-34.133-34.133s15.282-34.133,34.133-34.133H229.4z"/>
		<path style="fill:#0377BC;" d="M58.734,92.867h153.6c9.426,0,17.067,7.641,17.067,17.067V229.4
			c0,9.426-7.641,17.067-17.067,17.067h-153.6c-9.426,0-17.067-7.641-17.067-17.067V109.934
			C41.667,100.508,49.308,92.867,58.734,92.867z"/>
		<path style="fill:#02A9F4;" d="M58.734,92.867h128c9.426,0,17.067,7.641,17.067,17.067V229.4c0,9.426-7.641,17.067-17.067,17.067
			h-128c-9.426,0-17.067-7.641-17.067-17.067V109.934C41.667,100.508,49.308,92.867,58.734,92.867z"/>
		<path style="fill:#3F51B5;" d="M451.267,459.8c0,0,42.667,25.6,51.2,42.667h-204.8c8.533-17.067,51.2-42.667,51.2-42.667H451.267z
			"/>
		<path style="fill:#F44335;" d="M135.534,212.334c-10.744,0-20.86-5.058-27.307-13.653l-5.12-6.827
			c-1.939-2.586-2.251-6.045-0.806-8.936c1.445-2.891,4.4-4.717,7.632-4.717h51.2c3.232,0,6.187,1.826,7.632,4.717
			c1.445,2.891,1.134,6.35-0.806,8.936l-5.12,6.827C156.394,207.275,146.277,212.334,135.534,212.334z"/>
		<circle style="fill:#FFEB3A;" cx="127" cy="24.6" r="17.067"/>
		<path style="fill:#CFD8DC;" d="M502.467,21.756v91.022c-0.061,7.915-6.526,14.282-14.441,14.222H374.467l-59.733,51.2V21.756
			c0.061-7.915,6.526-14.282,14.441-14.222h158.851C495.941,7.474,502.406,13.841,502.467,21.756z"/>
		<path style="fill:#4CAF50;" d="M58.734,488.245v-91.022c0.061-7.915,6.526-14.282,14.441-14.222l215.959,0l-42.667,42.667v62.578
			c-0.061,7.915-6.526,14.282-14.441,14.222H73.175C65.26,502.527,58.794,496.16,58.734,488.245z"/>
		<g>
			<path style="fill:#FFE0B2;" d="M491.589,319c-3.117,3.962-5.635,8.361-7.472,13.056c-0.671,2.987-0.671,6.144-1.427,9.131
				c-1.779,5.551-7.111,9.176-12.928,8.789c-0.504,5.12-0.755,9.813-0.755,13.055c0,12.545-12.173,29.27-20.316,37.717
				c-3.357,3.413-7.387,6.912-11.501,10.326c-5.876,4.626-11.508,9.553-16.873,14.763c-4.171,4.754-9.993,7.743-16.286,8.363h-11.08
				c-6.293-0.619-12.116-3.609-16.286-8.363c-5.365-5.209-10.997-10.137-16.873-14.763c-4.113-3.413-8.144-6.913-11.501-10.326
				c-8.143-8.448-20.316-25.173-20.316-37.717c0-3.242-0.251-7.935-0.755-13.055c-2.196,0.056-4.376-0.382-6.38-1.28
				c-7.555-3.669-6.212-10.24-7.891-17.152c-1.807-4.412-4.269-8.526-7.304-12.203c-2.676-4.709-3.311-10.308-1.758-15.496
				c1.554-5.189,5.161-9.517,9.984-11.981c-0.1-0.879-0.156-1.762-0.167-2.646c-1.68-24.576,0.419-96.683,76.392-82.603
				c0,0,50.368-25.6,75.552,0c10.997,11.18,15.53,30.38,17.209,48.3c1.133,12.287,1.218,24.649,0.252,36.95
				c4.755,2.441,8.331,6.689,9.925,11.791C494.63,308.758,494.109,314.286,491.589,319z"/>
			<path style="fill:#FFE0B2;" d="M451.267,459.8h-102.4l11.861-48.725c5.968,4.622,11.693,9.549,17.152,14.763
				c4.274,4.766,10.183,7.751,16.555,8.363h11.262c6.372-0.612,12.282-3.597,16.556-8.363c5.459-5.214,11.184-10.141,17.152-14.763
				L451.267,459.8z"/>
		</g>
		<path style="fill:#795548;" d="M485.827,254.915L485.4,255c0,0-34.133,17.067-59.733,8.533s-25.6-17.067-59.733-17.067
			s-51.2,42.667-51.2,42.667l-0.853,0.085c-1.707-24.576,0.427-96.683,77.653-82.603c0,0,51.2-25.6,76.8,0
			C479.513,217.795,484.12,236.995,485.827,254.915z"/>
		<path style="fill:#FFE0B2;" d="M451.267,459.8c-33.185,11.378-69.215,11.378-102.4,0l11.861-48.725
			c5.968,4.622,11.693,9.549,17.152,14.763c4.274,4.766,10.183,7.751,16.555,8.363h11.262c6.372-0.612,12.282-3.597,16.556-8.363
			c5.459-5.214,11.184-10.141,17.152-14.763L451.267,459.8z"/>
		<path style="fill:#607D8B;" d="M502.467,21.784v90.965c-0.064,7.91-6.511,14.28-14.421,14.251l-25.6,0
			c7.91,0.029,14.356-6.341,14.421-14.251V21.784c-0.064-7.91-6.511-14.28-14.421-14.251l25.6,0
			C495.956,7.504,502.403,13.874,502.467,21.784z"/>
		<path style="fill:#4E342E;" d="M485.827,254.915L485.4,255c-11.216,5.303-23.194,8.816-35.498,10.411
			c3.791-1.463,7.495-3.144,11.093-5.035l0.426-0.085c-1.707-19.541-6.315-40.448-17.493-52.651
			c-5.337-5.81-12.395-9.758-20.139-11.264c15.275-2.475,32.683-1.622,44.544,10.24C479.513,217.795,484.12,236.995,485.827,254.915
			z"/>
	</g>
	<g>
		<path d="M102.4,153.6c2.264,0.001,4.435-0.897,6.035-2.498c1.601-1.601,2.499-3.772,2.498-6.035V128
			c0-4.713-3.821-8.533-8.533-8.533c-4.713,0-8.533,3.82-8.533,8.533v17.067c-0.001,2.264,0.897,4.435,2.498,6.035
			C97.965,152.703,100.137,153.602,102.4,153.6z"/>
		<path d="M170.667,153.6c2.264,0.001,4.435-0.897,6.035-2.498s2.499-3.772,2.498-6.035V128c0-4.713-3.82-8.533-8.533-8.533
			s-8.533,3.82-8.533,8.533v17.067c-0.001,2.264,0.897,4.435,2.498,6.035S168.403,153.602,170.667,153.6z"/>
		<path d="M95.675,180.1c-2.919,5.773-2.298,12.704,1.6,17.867l5.125,6.842c8.062,10.741,20.71,17.06,34.14,17.058
			s26.076-6.324,34.135-17.067l5.108-6.833c3.876-5.171,4.498-12.087,1.608-17.867c-2.89-5.78-8.797-9.431-15.258-9.433h-51.2
			C104.465,170.645,98.547,174.304,95.675,180.1z M157.017,194.559c-4.834,6.446-12.42,10.24-20.477,10.242
			c-8.057,0.002-15.645-3.789-20.481-10.233l-5.125-6.833h51.191L157.017,194.559z"/>
		<path d="M116.627,85.334H59.734c-14.132,0.015-25.585,11.468-25.6,25.6v17.929C14.268,132.918,0,150.392,0,170.667
			s14.268,37.749,34.133,41.804V230.4c0.015,14.132,11.468,25.585,25.6,25.6H76.8v25.6c0.015,14.132,11.468,25.585,25.6,25.6h68.267
			c14.132-0.015,25.585-11.468,25.6-25.6V256h17.067c14.132-0.015,25.585-11.468,25.6-25.6v-17.929
			c19.865-4.055,34.133-21.529,34.133-41.804s-14.268-37.749-34.133-41.804v-17.929c-0.015-14.132-11.468-25.585-25.6-25.6h-68.273
			l13.656-10.242c3.498-2.619,4.452-7.458,2.208-11.208l-13.241-22.117c3.797-4.534,5.89-10.253,5.916-16.167
			c0-10.825-6.809-20.48-17.006-24.114s-21.577-0.461-28.423,7.925s-7.677,20.171-2.077,29.434s16.423,14.003,27.029,11.837
			l9.202,15.368L116.627,85.334z M17.067,170.667c0.013-10.846,6.846-20.511,17.067-24.142v48.283
			C23.913,191.178,17.08,181.513,17.067,170.667z M179.2,281.6c-0.003,4.712-3.822,8.53-8.533,8.533H102.4
			c-4.712-0.003-8.53-3.822-8.533-8.533V256H179.2V281.6z M256,170.667c-0.013,10.846-6.846,20.511-17.067,24.142v-48.283
			C249.154,150.156,255.987,159.821,256,170.667z M221.867,110.934V230.4c-0.003,4.712-3.822,8.53-8.533,8.533h-153.6
			c-4.712-0.003-8.53-3.822-8.533-8.533V110.934c0.003-4.712,3.822-8.53,8.533-8.533h153.6
			C218.045,102.404,221.864,106.222,221.867,110.934z M119.467,25.6c0-4.713,3.821-8.533,8.533-8.533
			c4.713,0,8.533,3.821,8.533,8.533s-3.821,8.533-8.533,8.533C123.289,34.131,119.47,30.312,119.467,25.6z"/>
		<path d="M489.025,0h-158.85c-12.623-0.045-22.9,10.136-22.975,22.758V179.2c-0.002,3.333,1.937,6.361,4.965,7.754
			c3.028,1.392,6.59,0.893,9.118-1.279l57.342-49.142h110.4c12.623,0.045,22.9-10.136,22.975-22.758V22.759
			C511.926,10.136,501.648-0.045,489.025,0z M494.934,113.775c-0.063,3.202-2.706,5.748-5.908,5.692H375.467
			c-2.037-0.002-4.007,0.728-5.55,2.058l-45.65,39.125V22.759c0.063-3.202,2.706-5.748,5.908-5.692h158.85
			c3.202-0.056,5.845,2.49,5.908,5.692V113.775z"/>
		<path d="M418.134,42.667h-68.267c-4.713,0-8.533,3.821-8.533,8.533s3.82,8.533,8.533,8.533h68.267
			c4.713,0,8.533-3.821,8.533-8.533S422.846,42.667,418.134,42.667z"/>
		<path d="M469.334,42.667h-17.067c-4.713,0-8.533,3.821-8.533,8.533s3.821,8.533,8.533,8.533h17.067
			c4.713,0,8.533-3.821,8.533-8.533S474.046,42.667,469.334,42.667z"/>
		<path d="M424.192,79.275c-0.419-0.387-0.877-0.731-1.367-1.025c-0.434-0.339-0.925-0.599-1.45-0.767
			c-0.51-0.259-1.059-0.433-1.625-0.517c-1.094-0.25-2.231-0.25-3.325,0c-0.534,0.096-1.05,0.27-1.533,0.517
			c-0.546,0.184-1.065,0.442-1.542,0.767c-0.445,0.316-0.871,0.658-1.276,1.025c-0.788,0.821-1.426,1.774-1.883,2.817
			c-1.237,3.202-0.502,6.832,1.883,9.301c0.829,0.754,1.782,1.36,2.817,1.792c2.065,0.911,4.418,0.911,6.483,0
			c1.044-0.414,2-1.022,2.817-1.792c2.444-2.441,3.154-6.125,1.792-9.3C425.592,81.037,424.982,80.077,424.192,79.275z"/>
		<path d="M384,76.8h-34.133c-4.713,0-8.533,3.82-8.533,8.533c0,4.713,3.82,8.533,8.533,8.533H384c4.713,0,8.533-3.821,8.533-8.533
			C392.534,80.621,388.713,76.8,384,76.8z"/>
		<path d="M74.175,375.467c-12.623-0.045-22.9,10.136-22.975,22.758v91.017c0.075,12.623,10.352,22.803,22.975,22.758h158.85
			c12.623,0.045,22.9-10.136,22.975-22.758V430.2l40.166-40.166c2.441-2.44,3.171-6.11,1.85-9.299s-4.432-5.268-7.883-5.268H74.175z
			 M241.434,420.634c-1.601,1.6-2.5,3.77-2.5,6.033v62.575c-0.063,3.202-2.706,5.748-5.908,5.692H74.175
			c-3.202,0.056-5.845-2.49-5.908-5.692v-91.017c0.063-3.202,2.706-5.748,5.908-5.692l195.358-0.001L241.434,420.634z"/>
		<path d="M145.067,469.334h68.267c4.713,0,8.533-3.82,8.533-8.533s-3.821-8.533-8.533-8.533h-68.267
			c-4.713,0-8.533,3.821-8.533,8.533S140.354,469.334,145.067,469.334z"/>
		<path d="M93.867,469.334h17.067c4.713,0,8.533-3.82,8.533-8.533s-3.821-8.533-8.533-8.533H93.867
			c-4.713,0-8.533,3.821-8.533,8.533S89.154,469.334,93.867,469.334z"/>
		<path d="M145.067,435.2c1.115-0.014,2.216-0.246,3.242-0.683c1.034-0.434,1.986-1.04,2.817-1.792
			c2.444-2.441,3.154-6.125,1.792-9.3c-0.432-1.035-1.038-1.987-1.792-2.817c-2.05-2.002-4.956-2.866-7.767-2.308
			c-0.534,0.096-1.05,0.27-1.533,0.517c-0.546,0.184-1.065,0.442-1.542,0.767c-0.445,0.316-0.871,0.658-1.275,1.025
			c-0.754,0.829-1.36,1.782-1.792,2.817c-1.124,2.624-0.847,5.638,0.737,8.014C139.537,433.814,142.212,435.229,145.067,435.2z"/>
		<path d="M179.2,435.2h34.133c4.713,0,8.533-3.821,8.533-8.533c0-4.713-3.821-8.533-8.533-8.533H179.2
			c-4.713,0-8.533,3.821-8.533,8.533C170.667,431.38,174.487,435.2,179.2,435.2z"/>
		<path d="M296.584,302.875c-2.027,7.306-1.049,15.119,2.717,21.7c1.066,1.77,2.243,3.471,3.525,5.092
			c1.285,1.428,2.301,3.077,3,4.867c0.325,1.367,0.5,2.725,0.683,4.033c0.146,8.164,4.923,15.534,12.317,19
			c0.608,0.25,1.217,0.483,1.825,0.692c0.133,2.15,0.2,4.133,0.2,5.775c0,19.55,20.725,41.275,23.125,43.725
			c2.496,2.519,5.309,4.994,8.208,7.437l-9.775,40.166c-10.718,6.663-43.113,27.763-51.375,44.288
			c-1.321,2.646-1.179,5.786,0.376,8.302c1.555,2.515,4.3,4.047,7.257,4.049h204.8c2.957-0.001,5.703-1.533,7.257-4.048
			c1.555-2.515,1.697-5.656,0.376-8.302c-8.262-16.525-40.657-37.625-51.375-44.287l-9.775-40.166
			c2.904-2.45,5.729-4.935,8.25-7.479c2.358-2.408,23.083-24.133,23.083-43.683c0-1.642,0.067-3.608,0.2-5.75
			c6.477-2.148,11.477-7.352,13.367-13.908c0.488-1.945,0.839-3.922,1.05-5.917c0.113-1.12,0.292-2.233,0.533-3.333
			c0.746-2.187,1.896-4.214,3.392-5.975c1.108-1.542,2.225-3.1,3.233-4.808c6.718-12.092,3.711-27.269-7.11-35.885
			c1.04-17.748,1.485-64.775-20.581-86.848c-26.3-26.3-72.45-8.042-84.033-2.833c-26.017-4.167-46.7,0.558-61.508,14.117
			c-23.445,21.442-24.508,58.664-23.633,75.56C301.568,292.145,298.209,297.186,296.584,302.875z M435.329,427.288L442.1,455.1
			c-26.828,7.6-55.239,7.6-82.067,0l6.767-27.796c2.17,1.867,4.252,3.725,6.017,5.529c5.858,6.405,13.957,10.309,22.616,10.9H406.7
			c8.671-0.596,16.78-4.508,22.642-10.925C431.1,431.01,433.157,429.157,435.329,427.288z M317.075,494.934
			c10.618-9.132,21.946-17.403,33.877-24.735c32.627,10.225,67.602,10.225,100.229,0c11.931,7.333,23.259,15.604,33.877,24.735
			H317.075z M488.359,315.675c-0.725,1.233-1.558,2.358-2.358,3.467c-2.838,3.519-4.931,7.58-6.15,11.933
			c-0.395,1.737-0.69,3.496-0.883,5.267c-0.114,1.206-0.309,2.403-0.583,3.583c-0.838,1.691-2.629,2.694-4.508,2.525
			c-4.49-0.12-8.329,3.206-8.85,7.667c-0.517,5.108-0.808,10.175-0.808,13.917c0,8.542-9.383,22.733-18.175,31.708
			c-4.335,4.154-8.877,8.087-13.608,11.783c-5.323,4.154-10.414,8.597-15.25,13.308c-2.732,3.077-6.428,5.134-10.483,5.833h-11.05
			c-4.131-0.62-7.911-2.677-10.675-5.808c-4.844-4.721-9.943-9.172-15.275-13.333c-4.716-3.684-9.244-7.603-13.567-11.742
			c-8.833-9.017-18.217-23.208-18.217-31.75c0-3.742-0.292-8.808-0.808-13.917c-0.135-2.197-1.148-4.248-2.811-5.69
			c-1.663-1.442-3.836-2.155-6.03-1.977c-0.851-0.014-1.694-0.171-2.492-0.467c-1.458-0.691-1.675-0.792-2.358-5.75
			c-0.238-1.916-0.571-3.818-1-5.7c-1.173-4.131-3.229-7.958-6.025-11.217c-0.841-1.049-1.618-2.148-2.325-3.292
			c-1.526-2.662-1.883-5.836-0.987-8.77s2.967-5.367,5.72-6.721c0.048-0.024,0.075-0.071,0.123-0.095
			c0.576-0.34,1.108-0.749,1.585-1.218c0.365-0.253,0.71-0.534,1.031-0.841c0.315-0.443,0.586-0.915,0.811-1.409
			c0.65-0.765,0.993-1.743,0.966-2.746c0.025-0.152,0.047-0.301,0.064-0.453c0.08-0.168,0.208-0.297,0.278-0.472
			C323.809,292.934,338.9,256,366.934,256c12.729-0.99,25.468,1.774,36.642,7.95c6.561,3.419,13.379,6.319,20.392,8.675
			c19.31,6.46,41.957,0.475,55.162-4.348c0.294,7.953,0.112,15.917-0.545,23.848c-0.004,0.046,0.018,0.084,0.015,0.129
			c-0.011,0.71,0.069,1.419,0.238,2.108c0.028,0.403,0.084,0.804,0.167,1.2c0.518,0.954,1.052,1.9,1.602,2.835
			c0.298,0.278,0.616,0.535,0.95,0.769c0.5,0.497,1.061,0.929,1.671,1.283l0.108,0.083c2.676,1.339,4.71,3.688,5.653,6.529
			C489.929,309.903,489.703,313.002,488.359,315.675L488.359,315.675z M341.342,225.484c11.183-10.242,27.892-13.417,49.667-9.45
			c0.142,0.029,0.282-0.01,0.423,0.01c0.361,0.101,0.73,0.175,1.102,0.223h0.258c0.275-0.041,0.548-0.096,0.818-0.167
			c0.137-0.018,0.267-0.056,0.403-0.081c1.067-0.15,2.093-0.512,3.019-1.065c5.716-2.643,46.931-20.617,66.269-1.279
			c8.414,10.556,13.414,23.424,14.333,36.892c-11.32,4.665-32.696,11.051-48.267,5.875c-6.248-2.109-12.322-4.703-18.167-7.758
			c-13.537-7.369-28.886-10.749-44.267-9.75c-16.434,0.538-31.813,8.232-42.098,21.061
			C326.437,247.002,332.232,234.886,341.342,225.484z"/>
	</g>
</g>
<g>
</g>
<g>
</g>
<g>
</g>
<g>
</g>
<g>
</g>
<g>
</g>
<g>
</g>
<g>
</g>
<g>
</g>
<g>
</g>
<g>
</g>
<g>
</g>
<g>
</g>
<g>
</g>
<g>
</g>
</svg>
