<?xml version="1.0" encoding="iso-8859-1"?>
<!-- Generator: Adobe Illustrator 19.0.0, SVG Export Plug-In . SVG Version: 6.00 Build 0)  -->
<svg version="1.1" id="Capa_1" xmlns="http://www.w3.org/2000/svg" xmlns:xlink="http://www.w3.org/1999/xlink" x="0px" y="0px"
	 viewBox="0 0 512 512" style="enable-background:new 0 0 512 512;" xml:space="preserve">
<g>
	<g transform="translate(1 1)">
		<path style="fill:#CFD8DC;" d="M502.467,383v102.4c-0.028,9.414-7.652,17.039-17.067,17.067H24.6
			c-9.414-0.028-17.039-7.652-17.067-17.067V383c0-4.713,3.821-8.533,8.533-8.533H152.6c9.426,0,17.067,7.641,17.067,17.067V408.6
			c0.028,9.414,7.652,17.039,17.067,17.067h136.533c9.414-0.028,17.039-7.652,17.067-17.067v-17.067
			c0-9.426,7.641-17.067,17.067-17.067h136.533C498.646,374.467,502.467,378.287,502.467,383z"/>
		<path style="fill:#0377BC;" d="M425.667,16.067v42.667l-30.549,34.133L364.568,127l-15.275,17.067l-15.275,17.067L318.744,178.2
			L280.6,220.867v128l-51.2,42.667V220.867L84.333,58.733V16.067c0.014-4.707,3.826-8.519,8.533-8.533h324.267
			C421.84,7.547,425.653,11.36,425.667,16.067z"/>
		<path style="fill:#02A9F4;" d="M400.067,16.067v42.667l-30.549,34.133L338.968,127l-15.275,17.067l-15.275,17.067L293.144,178.2
			L255,220.867V370.2l-25.6,21.333V220.867L84.333,58.733V16.067c0.014-4.707,3.826-8.519,8.533-8.533h298.667
			C396.24,7.547,400.053,11.36,400.067,16.067z"/>
		<path style="fill:#1566C0;" d="M425.667,16.067v42.667H84.333V16.067c0.014-4.707,3.826-8.519,8.533-8.533h324.267
			C421.84,7.547,425.653,11.36,425.667,16.067z"/>
		<path style="fill:#2296F3;" d="M400.067,16.067v42.667H84.333V16.067c-0.156-4.529,3.366-8.337,7.893-8.533h299.947
			C396.7,7.73,400.223,11.538,400.067,16.067z"/>
		<g>
			<path style="fill:#607D8B;" d="M186.733,459.8h136.533c9.426,0,17.067,7.641,17.067,17.067v25.6H169.667v-25.6
				C169.667,467.441,177.308,459.8,186.733,459.8z"/>
			<path style="fill:#607D8B;" d="M502.467,383v102.4c-0.028,9.414-7.653,17.039-17.067,17.067h-25.6
				c9.414-0.028,17.039-7.653,17.067-17.067V383c-0.014-4.707-3.826-8.52-8.533-8.533h25.6
				C498.641,374.48,502.453,378.293,502.467,383z"/>
		</g>
	</g>
	<g>
		<path d="M494.933,366.933H358.4c-14.132,0.015-25.585,11.468-25.6,25.6V409.6c-0.003,4.712-3.822,8.53-8.533,8.533H187.733
			c-4.712-0.003-8.53-3.822-8.533-8.533v-17.067c-0.015-14.132-11.468-25.585-25.6-25.6H17.067C7.646,366.946,0.012,374.579,0,384
			v102.4c0.015,14.132,11.468,25.585,25.6,25.6h460.8c14.132-0.015,25.585-11.468,25.6-25.6V384
			C511.988,374.579,504.354,366.946,494.933,366.933z M179.2,494.933v-17.067c0.003-4.712,3.822-8.53,8.533-8.533h136.533
			c4.712,0.003,8.53,3.822,8.533,8.533v17.067H179.2z M494.933,486.4c-0.003,4.712-3.822,8.53-8.533,8.533H349.867v-17.067
			c-0.015-14.132-11.468-25.585-25.6-25.6H187.733c-14.132,0.015-25.585,11.468-25.6,25.6v17.067H25.6
			c-4.712-0.003-8.53-3.822-8.533-8.533V384H153.6c4.712,0.003,8.53,3.822,8.533,8.533V409.6c0.015,14.132,11.468,25.585,25.6,25.6
			h136.533c14.132-0.015,25.585-11.468,25.6-25.6v-17.067c0.003-4.712,3.822-8.53,8.533-8.533l136.533-0.017V486.4z"/>
		<path d="M76.8,17.067v42.667c0.008,1.089,0.225,2.166,0.64,3.173c0.194,0.383,0.418,0.751,0.67,1.099
			c0.241,0.5,0.531,0.976,0.865,1.42l142.892,159.7v167.408c0.002,3.311,1.918,6.322,4.916,7.727
			c2.998,1.405,6.538,0.949,9.084-1.169l51.2-42.667c1.943-1.624,3.066-4.026,3.067-6.558V225.125l43.326-48.422l0.004-0.004
			l30.523-34.114l0.055-0.06l30.472-34.057l0.106-0.118l38.407-42.925c0.333-0.442,0.622-0.916,0.862-1.415
			c0.253-0.35,0.478-0.72,0.673-1.105c0.415-1.007,0.632-2.083,0.64-3.172V17.067C435.188,7.646,427.554,0.012,418.133,0H93.867
			C84.446,0.012,76.812,7.646,76.8,17.067z M418.133,51.2H153.6c-4.713,0-8.533,3.821-8.533,8.533s3.82,8.533,8.533,8.533h253.983
			l-22.906,25.6h-94.544c-4.713,0-8.533,3.821-8.533,8.533c0,4.713,3.821,8.533,8.533,8.533h79.273L354.137,128h-81.07
			c-4.713,0-8.533,3.821-8.533,8.533s3.82,8.533,8.533,8.533h65.8l-15.271,17.067H256c-4.713,0-8.533,3.821-8.533,8.533
			c0,4.713,3.821,8.533,8.533,8.533h52.325l-33.084,36.975c-1.4,1.565-2.174,3.592-2.175,5.692v124l-34.133,28.45v-152.45
			c-0.001-2.1-0.775-4.126-2.175-5.692L104.417,68.267h15.049c4.713,0,8.533-3.821,8.533-8.533s-3.821-8.533-8.533-8.533h-25.6
			V17.067l324.267-0.017V51.2z"/>
	</g>
</g>
<g>
</g>
<g>
</g>
<g>
</g>
<g>
</g>
<g>
</g>
<g>
</g>
<g>
</g>
<g>
</g>
<g>
</g>
<g>
</g>
<g>
</g>
<g>
</g>
<g>
</g>
<g>
</g>
<g>
</g>
</svg>
