<?xml version="1.0" encoding="iso-8859-1"?>
<!-- Generator: Adobe Illustrator 19.0.0, SVG Export Plug-In . SVG Version: 6.00 Build 0)  -->
<svg version="1.1" id="Capa_1" xmlns="http://www.w3.org/2000/svg" xmlns:xlink="http://www.w3.org/1999/xlink" x="0px" y="0px"
	 viewBox="0 0 512 512" style="enable-background:new 0 0 512 512;" xml:space="preserve">
<g>
	<g transform="translate(1 1)">
		<rect x="237.933" y="323.267" style="fill:#4CAF50;" width="34.133" height="102.4"/>
		<path style="fill:#607D8B;" d="M229.4,408.6h51.2c4.713,0,8.533,3.82,8.533,8.533v76.8c0,4.713-3.821,8.533-8.533,8.533h-51.2
			c-4.713,0-8.533-3.821-8.533-8.533v-76.8C220.867,412.421,224.687,408.6,229.4,408.6z"/>
		<g>
			<path style="fill:#4CAF50;" d="M212.333,289.133h85.333v34.133c0,9.426-7.641,17.067-17.067,17.067h-51.2
				c-9.426,0-17.067-7.641-17.067-17.067V289.133z"/>
			<path style="fill:#4CAF50;" d="M314.733,229.4v59.733c0,9.426-7.641,17.067-17.067,17.067h-85.333
				c-9.426,0-17.067-7.641-17.067-17.067V229.4H314.733z"/>
			<path style="fill:#4CAF50;" d="M203.8,289.133h85.333v34.133c0,9.426-7.641,17.067-17.067,17.067h-51.2
				c-9.426,0-17.067-7.641-17.067-17.067V289.133z"/>
			<path style="fill:#4CAF50;" d="M306.2,229.4v59.733c0,9.426-7.641,17.067-17.067,17.067H203.8
				c-9.426,0-17.067-7.641-17.067-17.067V229.4H306.2z"/>
		</g>
		<g>
			<path style="fill:#2E7D32;" d="M289.133,306.2v17.067c-0.028,9.414-7.653,17.039-17.067,17.067H255
				c9.414-0.028,17.039-7.652,17.067-17.067V306.2H289.133z"/>
			<path style="fill:#2E7D32;" d="M306.2,229.4v59.733c-0.028,9.414-7.652,17.039-17.067,17.067v-76.8H306.2z"/>
		</g>
		<path style="fill:#795548;" d="M134.902,502.467H16.698c-2.369,0-4.631-0.985-6.245-2.718s-2.435-4.06-2.266-6.423l7.314-102.4
			C15.82,386.46,19.535,383,24.012,383h103.576c4.477,0,8.193,3.46,8.512,7.925l7.314,102.4c0.169,2.363-0.652,4.689-2.266,6.423
			S137.271,502.467,134.902,502.467z"/>
		<g>
			<rect x="58.733" y="195.267" style="fill:#4CAF50;" width="34.133" height="68.267"/>
			<polygon style="fill:#4CAF50;" points="87.491,163.949 135.533,127 152.6,161.133 100.973,191.597 			"/>
		</g>
		<g>
			<circle style="fill:#607D8B;" cx="75.8" cy="186.733" r="25.6"/>
			<circle style="fill:#607D8B;" cx="75.8" cy="272.067" r="25.6"/>
		</g>
		<path style="fill:#795548;" d="M375.729,502.467h118.205c2.369,0,4.631-0.985,6.245-2.718c1.614-1.734,2.435-4.06,2.266-6.423
			l-7.314-102.4c-0.319-4.466-4.035-7.926-8.512-7.925H383.043c-4.477,0-8.193,3.46-8.512,7.925l-7.314,102.4
			c-0.169,2.363,0.652,4.69,2.267,6.423C371.098,501.482,373.36,502.467,375.729,502.467z"/>
		<g>
			<rect x="417.731" y="195.267" style="fill:#4CAF50;" width="34.133" height="68.267"/>
			<polygon style="fill:#4CAF50;" points="423.141,163.949 375.098,127 358.031,161.133 409.658,191.597 			"/>
		</g>
		<g>
			<circle style="fill:#607D8B;" cx="434.797" cy="186.733" r="25.6"/>
			<circle style="fill:#607D8B;" cx="434.797" cy="272.067" r="25.6"/>
		</g>
		<path style="fill:#00BCD4;" d="M306.2,58.733v51.2H203.8v-51.2c0-28.277,22.923-51.2,51.2-51.2S306.2,30.456,306.2,58.733z"/>
		<path style="fill:#607D8B;" d="M340.333,101.4h8.533c14.848,0,27.477,14.251,32.171,34.133c2.617,11.227,2.617,22.906,0,34.133
			c-4.693,19.883-17.323,34.133-32.171,34.133H161.133c-14.848,0-27.477-14.251-32.171-34.133c-2.617-11.227-2.617-22.906,0-34.133
			c4.693-19.883,17.323-34.133,32.171-34.133H340.333z"/>
		<path style="fill:#2E7D32;" d="M186.733,92.867h136.533c9.426,0,17.067,7.641,17.067,17.067V229.4
			c0,9.426-7.641,17.067-17.067,17.067H186.733c-9.426,0-17.067-7.641-17.067-17.067V109.933
			C169.667,100.508,177.308,92.867,186.733,92.867z"/>
		<path style="fill:#4CAF50;" d="M186.733,92.867h110.933c9.426,0,17.067,7.641,17.067,17.067V229.4
			c0,9.426-7.641,17.067-17.067,17.067H186.733c-9.426,0-17.067-7.641-17.067-17.067V109.933
			C169.667,100.508,177.308,92.867,186.733,92.867z"/>
		<path style="fill:#00BCD4;" d="M306.2,135.533V203.8c0,4.713-3.82,8.533-8.533,8.533h-85.333c-4.713,0-8.533-3.821-8.533-8.533
			v-68.267c0-4.713,3.821-8.533,8.533-8.533h85.333C302.38,127,306.2,130.821,306.2,135.533z"/>
	</g>
	<g>
		<path d="M213.333,221.867h85.333c9.421-0.012,17.054-7.646,17.067-17.067v-68.267c-0.012-9.421-7.646-17.054-17.067-17.067
			h-85.333c-9.421,0.012-17.054,7.646-17.067,17.067V204.8C196.279,214.221,203.913,221.854,213.333,221.867z M213.333,136.533
			h85.333V204.8l-85.333,0.017V136.533z"/>
		<path d="M247.467,51.2c0-4.713-3.821-8.533-8.533-8.533c-4.713,0-8.533,3.821-8.533,8.533c-0.018,1.109,0.183,2.21,0.592,3.242
			c0.47,1.035,1.106,1.987,1.883,2.817c2.441,2.462,6.129,3.201,9.331,1.872S247.487,54.667,247.467,51.2z"/>
		<path d="M267.008,57.259c3.365,3.3,8.752,3.3,12.117,0c0.752-0.831,1.358-1.783,1.792-2.817c0.438-1.026,0.67-2.127,0.683-3.242
			c-0.033-2.259-0.917-4.422-2.475-6.059c-2.023-1.99-4.898-2.854-7.683-2.308c-0.563,0.083-1.109,0.258-1.617,0.517
			c-0.546,0.184-1.065,0.442-1.542,0.767c-0.445,0.316-0.871,0.658-1.276,1.025c-1.576,1.625-2.462,3.795-2.475,6.059
			c-0.031,1.119,0.203,2.23,0.683,3.242C265.65,55.475,266.256,56.428,267.008,57.259z"/>
		<path d="M42.667,358.4v17.067h-25.6c-4.476,0-8.191,3.46-8.508,7.925L0.025,502.858c-0.169,2.362,0.651,4.689,2.264,6.423
			S6.165,512,8.533,512h136.533c2.368,0,4.63-0.985,6.244-2.719s2.434-4.06,2.264-6.423l-8.533-119.467
			c-0.317-4.465-4.032-7.926-8.508-7.925h-25.6V358.4c-0.045-15.522-10.568-29.054-25.6-32.922v-19.49
			c11.469-2.873,20.606-11.528,24.095-22.825c3.489-11.297,0.824-23.597-7.028-32.437v-40.653c3.028-3.469,5.317-7.518,6.729-11.901
			l17.662-11.204c5.682,14.89,19.451,25.162,35.343,26.366V230.4c0.015,14.132,11.468,25.585,25.6,25.6v34.133
			c0.033,10.813,6.868,20.435,17.067,24.027v10.106c0.015,14.132,11.468,25.585,25.6,25.6v51.2
			c-9.421,0.012-17.054,7.646-17.067,17.067v76.8c0.012,9.421,7.646,17.054,17.067,17.067h51.2
			c9.421-0.012,17.054-7.646,17.067-17.067v-76.8c-0.012-9.421-7.646-17.054-17.067-17.067v-51.2
			c14.132-0.015,25.585-11.468,25.6-25.6V314.16c10.199-3.592,17.034-13.214,17.067-24.027V256
			c14.132-0.015,25.585-11.468,25.6-25.6v-17.067c15.892-1.204,29.661-11.474,35.344-26.365l17.66,11.203
			c1.412,4.383,3.701,8.432,6.729,11.901v40.654c-7.852,8.84-10.517,21.139-7.028,32.437s12.625,19.952,24.095,22.825v19.489
			c-15.032,3.868-25.555,17.4-25.6,32.922v17.067h-25.6c-4.476,0-8.191,3.46-8.508,7.925l-8.533,119.467
			c-0.169,2.362,0.651,4.689,2.264,6.423c1.614,1.734,3.875,2.719,6.244,2.719h136.533c2.368,0,4.63-0.985,6.244-2.719
			c1.614-1.734,2.434-4.06,2.264-6.423l-8.533-119.467c-0.317-4.465-4.032-7.926-8.508-7.925h-25.6V358.4
			c-0.045-15.522-10.568-29.054-25.6-32.922v-19.49c11.469-2.873,20.606-11.528,24.094-22.825
			c3.489-11.297,0.824-23.597-7.028-32.437v-40.653c10.317-11.451,11.59-28.429,3.095-41.29
			c-8.495-12.861-24.609-18.355-39.191-13.361l-35.386-24.245c-6.424-22.408-21.89-37.31-39.451-37.31h-6.658
			c-4.812-5.41-11.701-8.514-18.942-8.533h-8.533v-25.6C315.733,26.744,288.99,0,256,0s-59.733,26.744-59.733,59.733v25.6h-8.533
			c-7.24,0.02-14.13,3.123-18.942,8.533h-6.658c-17.567,0-33.037,14.91-39.451,37.31l-35.387,24.245
			c-3.38-1.16-6.923-1.775-10.496-1.822c-13.393-0.068-25.575,7.741-31.104,19.939c-5.53,12.198-3.374,26.507,5.504,36.534v40.654
			c-7.852,8.84-10.517,21.139-7.028,32.437s12.625,19.952,24.095,22.825v19.489C53.235,329.346,42.712,342.878,42.667,358.4z
			 M128.592,392.533l7.308,102.4H17.7l7.308-102.4h17.658v8.533c0,4.713,3.821,8.533,8.533,8.533s8.533-3.821,8.533-8.533v-8.533
			h34.133v8.533c0,4.713,3.821,8.533,8.533,8.533c4.713,0,8.533-3.821,8.533-8.533v-8.533H128.592z M93.867,358.4v17.067H59.733
			V358.4c0.024-6.243,3.465-11.972,8.965-14.926c0.896,3.749,4.247,6.393,8.102,6.393c3.854,0,7.205-2.644,8.102-6.393
			C90.402,346.428,93.843,352.157,93.867,358.4z M76.8,221.867c2.885-0.037,5.752-0.444,8.533-1.212v19.49
			c-2.781-0.767-5.649-1.175-8.533-1.212c-2.885,0.037-5.752,0.444-8.533,1.212v-19.49C71.048,221.422,73.915,221.83,76.8,221.867z
			 M121.244,170.265l-11.945,7.578c-1.364-4.49-3.646-8.648-6.702-12.209l16.895-11.576
			C119.54,159.504,120.127,164.933,121.244,170.265z M281.609,460.8h-8.543c-4.713,0-8.533,3.821-8.533,8.533
			c0,4.713,3.82,8.533,8.533,8.533h8.546l0.004,17.067H230.4v-42.667h8.533c4.713,0,8.533-3.821,8.533-8.533
			c0-4.713-3.821-8.533-8.533-8.533H230.4v-17.067h51.2L281.609,460.8z M264.533,401.067h-17.067v-51.2h17.067V401.067z
			 M290.133,324.267c-0.003,4.712-3.822,8.53-8.533,8.533h-51.2c-4.712-0.003-8.53-3.822-8.533-8.533v-8.533h68.267V324.267z
			 M307.2,290.133c-0.003,4.712-3.822,8.53-8.533,8.533h-85.333c-4.712-0.003-8.53-3.822-8.533-8.533V256h102.4V290.133z
			 M435.2,238.933c-2.885,0.037-5.752,0.444-8.533,1.212v-19.49c5.574,1.615,11.492,1.615,17.067,0v19.49
			C440.952,239.378,438.085,238.97,435.2,238.933z M402.701,177.843l-11.948-7.58c1.119-5.33,1.707-10.758,1.755-16.205
			l16.895,11.576C406.347,169.195,404.065,173.353,402.701,177.843z M486.992,392.533l7.308,102.4H376.1l7.308-102.4h17.658v8.533
			c0,4.713,3.821,8.533,8.533,8.533c4.713,0,8.533-3.821,8.533-8.533v-8.533h34.133v8.533c0,4.713,3.82,8.533,8.533,8.533
			s8.533-3.821,8.533-8.533v-8.533H486.992z M452.267,358.4v17.067h-34.133V358.4c0.024-6.243,3.465-11.972,8.965-14.926
			c0.896,3.749,4.247,6.393,8.102,6.393s7.205-2.644,8.102-6.393C448.802,346.428,452.243,352.157,452.267,358.4z M435.2,290.133
			c-9.426,0-17.067-7.641-17.067-17.067S425.774,256,435.2,256c9.426,0,17.067,7.641,17.067,17.067
			C452.254,282.487,444.621,290.121,435.2,290.133z M452.267,187.733c0,9.426-7.641,17.067-17.067,17.067
			c-9.426,0-17.067-7.641-17.067-17.067c0-9.426,7.641-17.067,17.067-17.067C444.621,170.679,452.254,178.313,452.267,187.733z
			 M373.733,138.517c2.314,9.931,2.311,20.262-0.009,30.192c-3.825,16.225-13.641,27.558-23.858,27.558v-85.333
			C360.083,110.933,369.9,122.267,373.733,138.517z M213.333,59.733c0-23.564,19.103-42.667,42.667-42.667
			c23.564,0,42.667,19.103,42.667,42.667v25.6h-34.133V76.8c0-4.713-3.821-8.533-8.533-8.533c-4.713,0-8.533,3.821-8.533,8.533
			v8.533h-34.133V59.733z M187.733,102.4h136.533c4.712,0.003,8.53,3.822,8.533,8.533V230.4c-0.003,4.712-3.822,8.53-8.533,8.533
			H187.733c-4.712-0.003-8.53-3.822-8.533-8.533V110.933C179.203,106.222,183.022,102.403,187.733,102.4z M162.133,110.933v85.333
			c-10.217,0-20.033-11.333-23.867-27.583c-2.314-9.931-2.311-20.262,0.009-30.192C142.1,122.267,151.917,110.933,162.133,110.933z
			 M76.8,170.667c9.426,0,17.067,7.641,17.067,17.067c0,9.426-7.641,17.067-17.067,17.067s-17.067-7.641-17.067-17.067
			C59.746,178.313,67.379,170.679,76.8,170.667z M59.733,273.067c0-9.426,7.641-17.067,17.067-17.067s17.067,7.641,17.067,17.067
			s-7.641,17.067-17.067,17.067C67.379,290.121,59.746,282.487,59.733,273.067z"/>
		<path d="M54.442,443.05c1.034-0.433,1.986-1.039,2.817-1.791c0.752-0.831,1.358-1.783,1.792-2.817
			c0.911-2.065,0.911-4.418,0-6.483c-0.412-1.045-1.02-2.002-1.792-2.817c-0.831-0.752-1.783-1.358-2.817-1.792
			c-2.059-0.942-4.425-0.942-6.483,0c-2.143,0.777-3.831,2.465-4.608,4.608c-0.911,2.065-0.911,4.418,0,6.483
			c0.434,1.034,1.04,1.986,1.792,2.817c0.829,0.754,1.782,1.36,2.817,1.792c2.065,0.911,4.418,0.911,6.483,0L54.442,443.05z"/>
		<path d="M108.459,463.275c-0.419-0.387-0.877-0.731-1.367-1.025c-0.434-0.339-0.925-0.599-1.45-0.767
			c-0.51-0.259-1.059-0.433-1.625-0.517c-2.781-0.517-5.641,0.343-7.676,2.308c-0.79,0.802-1.401,1.762-1.792,2.817
			c-1.362,3.175-0.652,6.859,1.792,9.301c0.829,0.754,1.782,1.36,2.817,1.792c2.065,0.911,4.418,0.911,6.483,0
			c1.034-0.434,1.986-1.04,2.817-1.792c2.444-2.441,3.154-6.125,1.792-9.3C109.859,465.037,109.248,464.077,108.459,463.275z"/>
		<path d="M99.9,429.167c-1.6-1.601-3.77-2.5-6.033-2.5s-4.433,0.899-6.033,2.5L53.7,463.3c-2.178,2.151-3.037,5.304-2.251,8.262
			c0.786,2.958,3.097,5.269,6.055,6.055c2.958,0.786,6.111-0.073,8.262-2.251L99.9,441.233c1.601-1.6,2.5-3.77,2.5-6.033
			C102.4,432.937,101.5,430.767,99.9,429.167z"/>
		<path d="M412.842,443.05c2.143-0.777,3.831-2.465,4.608-4.608c0.911-2.065,0.911-4.418,0-6.483
			c-0.412-1.045-1.02-2.001-1.792-2.817c-0.419-0.387-0.877-0.731-1.367-1.025c-0.434-0.339-0.925-0.599-1.45-0.767
			c-0.51-0.259-1.059-0.433-1.625-0.517c-1.633-0.343-3.334-0.162-4.858,0.517c-2.143,0.777-3.831,2.465-4.608,4.608
			c-1.362,3.175-0.652,6.859,1.792,9.3c0.829,0.754,1.782,1.36,2.817,1.792C408.423,443.962,410.776,443.962,412.842,443.05
			L412.842,443.05z"/>
		<path d="M466.859,463.275c-0.419-0.387-0.877-0.731-1.367-1.025c-0.434-0.339-0.925-0.599-1.45-0.767
			c-0.51-0.259-1.059-0.433-1.625-0.517c-2.781-0.517-5.641,0.343-7.676,2.308c-0.79,0.802-1.401,1.762-1.792,2.817
			c-1.362,3.175-0.652,6.859,1.792,9.301c0.829,0.754,1.782,1.36,2.817,1.792c3.175,1.362,6.859,0.653,9.302-1.79
			s3.152-6.127,1.79-9.302C468.259,465.037,467.648,464.077,466.859,463.275z"/>
		<path d="M458.3,429.167c-1.6-1.601-3.77-2.5-6.033-2.5s-4.433,0.899-6.033,2.5L412.1,463.3c-2.178,2.151-3.037,5.304-2.251,8.262
			s3.097,5.269,6.055,6.055s6.111-0.073,8.262-2.251l34.133-34.133c1.601-1.6,2.5-3.77,2.5-6.033
			C460.8,432.937,459.9,430.767,458.3,429.167z"/>
	</g>
</g>
<g>
</g>
<g>
</g>
<g>
</g>
<g>
</g>
<g>
</g>
<g>
</g>
<g>
</g>
<g>
</g>
<g>
</g>
<g>
</g>
<g>
</g>
<g>
</g>
<g>
</g>
<g>
</g>
<g>
</g>
</svg>
