<?xml version="1.0" encoding="iso-8859-1"?>
<!-- Generator: Adobe Illustrator 19.0.0, SVG Export Plug-In . SVG Version: 6.00 Build 0)  -->
<svg version="1.1" id="Capa_1" xmlns="http://www.w3.org/2000/svg" xmlns:xlink="http://www.w3.org/1999/xlink" x="0px" y="0px"
	 viewBox="0 0 512.132 512.132" style="enable-background:new 0 0 512.132 512.132;" xml:space="preserve">
<g transform="translate(-10 -10)">
	<g>
		<g transform="matrix(0.70711 -0.70711 0.70711 0.70711 -16.569 40)">
			
				<ellipse transform="matrix(2.535182e-006 1 -1 2.535182e-006 399.7014 319.7016)" style="fill:#4CAF50;" cx="40" cy="359.702" rx="306.372" ry="169.028"/>
			
				<ellipse transform="matrix(2.535182e-006 1 -1 2.535182e-006 399.7014 319.7016)" style="fill:#4CAF50;" cx="40" cy="359.702" rx="169.028" ry="306.372"/>
		</g>
		<path style="fill:#2E7D32;" d="M475.474,266.065c46.336,87.125,52.309,171.605,7.253,216.661
			c-23.467,23.467-57.515,33.024-97.109,30.378c26.724-1.153,52.127-11.944,71.509-30.378
			c45.056-45.056,39.083-129.536-7.253-216.661c46.336-87.125,52.309-171.605,7.253-216.661
			c-19.383-18.434-44.785-29.226-71.509-30.379c39.595-2.645,73.643,6.912,97.109,30.379
			C527.783,94.46,521.81,178.94,475.474,266.065z"/>
		<path style="fill:#CFD8DC;" d="M206.332,197.798h119.467c4.713,0,8.533,3.821,8.533,8.533v119.467c0,4.713-3.82,8.533-8.533,8.533
			H206.332c-4.713,0-8.533-3.821-8.533-8.533V206.332C197.799,201.619,201.62,197.798,206.332,197.798z"/>
	</g>
	<g transform="translate(10 9)">
		<path d="M478.737,34.398C444.512,0.165,388.982-8.068,322.366,11.165c-22.929,6.782-45.136,15.802-66.3,26.929
			c-21.164-11.127-43.371-20.147-66.3-26.929C123.161-8.06,67.616,0.181,33.395,34.398c-46.837,46.833-41.985,133.49,4.034,222.667
			c-46.019,89.177-50.871,175.833-4.034,222.667c22.129,22.133,53.163,33.4,90.346,33.4c22.375-0.286,44.6-3.708,66.025-10.167
			c22.929-6.782,45.136-15.802,66.3-26.929c21.164,11.127,43.371,20.147,66.3,26.929c21.425,6.458,43.65,9.88,66.025,10.167
			c37.179,0,68.221-11.275,90.346-33.4c46.837-46.833,41.985-133.49-4.034-222.667C520.721,167.888,525.574,81.232,478.737,34.398z
			 M45.461,46.465c18.833-18.833,45.713-28.408,78.313-28.408c20.762,0.293,41.38,3.494,61.254,9.508
			c18.154,5.344,35.828,12.199,52.838,20.493c-39.226,23.083-75.311,51.131-107.359,83.449
			C98.134,163.63,70.101,199.85,47.121,239.244C8.91,160.642,5.371,86.554,45.461,46.465z M256.066,57.357
			c41.713,23.234,79.923,52.262,113.492,86.217c33.946,33.592,62.991,71.798,86.28,113.492
			c-23.289,41.694-52.335,79.899-86.281,113.492c-33.569,33.955-71.779,62.982-113.491,86.217
			c-41.713-23.234-79.923-52.262-113.492-86.217c-33.946-33.592-62.991-71.798-86.28-113.492
			c23.289-41.694,52.335-79.899,86.281-113.492C176.143,109.618,214.353,80.591,256.066,57.357z M185.028,486.565
			c-60.371,17.45-109.933,10.733-139.567-18.9c-40.09-40.09-36.552-114.177,1.66-192.779C70.1,314.28,98.134,350.5,130.507,382.623
			c32.048,32.318,68.133,60.365,107.359,83.449C220.856,474.365,203.182,481.22,185.028,486.565z M466.67,467.665
			c-29.625,29.633-79.183,36.358-139.567,18.9c-18.154-5.344-35.828-12.199-52.838-20.493
			c39.226-23.083,75.31-51.131,107.359-83.449c32.374-32.123,60.407-68.343,83.386-107.738
			C503.221,353.488,506.76,427.575,466.67,467.665z M381.624,131.507c-32.048-32.318-68.133-60.366-107.359-83.449
			c17.01-8.294,34.685-15.148,52.838-20.493c60.383-17.45,109.937-10.725,139.566,18.9c40.09,40.09,36.551,114.177-1.66,192.779
			C442.031,199.85,413.998,163.63,381.624,131.507z"/>
		<path d="M153.666,299.732c-4.713,0-8.533,3.82-8.533,8.533s3.821,8.533,8.533,8.533h25.6c0.011,9.421,7.645,17.056,17.067,17.067
			v25.6c0,4.713,3.821,8.533,8.533,8.533c4.713,0,8.533-3.82,8.533-8.533v-25.6h17.067v25.6c0,4.713,3.821,8.533,8.533,8.533
			s8.533-3.82,8.533-8.533v-25.6h17.067v25.6c0,4.713,3.821,8.533,8.533,8.533c4.713,0,8.533-3.82,8.533-8.533v-25.6h17.067v25.6
			c0,4.713,3.821,8.533,8.533,8.533s8.533-3.82,8.533-8.533v-25.6c9.421-0.011,17.056-7.645,17.067-17.067h25.6
			c4.713,0,8.533-3.82,8.533-8.533s-3.821-8.533-8.533-8.533h-25.6v-17.067h25.6c4.713,0,8.533-3.82,8.533-8.533
			s-3.821-8.533-8.533-8.533h-25.6v-17.067h25.6c4.713,0,8.533-3.82,8.533-8.533s-3.821-8.533-8.533-8.533h-25.6v-17.067h25.6
			c4.713,0,8.533-3.821,8.533-8.533c0-4.713-3.821-8.533-8.533-8.533h-25.6c-0.011-9.421-7.645-17.056-17.067-17.067v-25.6
			c0-4.713-3.82-8.533-8.533-8.533s-8.533,3.82-8.533,8.533v25.6h-17.067v-25.6c0-4.713-3.821-8.533-8.533-8.533
			c-4.713,0-8.533,3.82-8.533,8.533v25.6h-17.067v-25.6c0-4.713-3.82-8.533-8.533-8.533s-8.533,3.82-8.533,8.533v25.6h-17.067v-25.6
			c0-4.713-3.821-8.533-8.533-8.533c-4.713,0-8.533,3.82-8.533,8.533v25.6c-9.421,0.011-17.056,7.645-17.067,17.067h-25.6
			c-4.713,0-8.533,3.821-8.533,8.533c0,4.713,3.821,8.533,8.533,8.533h25.6v17.067h-25.6c-4.713,0-8.533,3.821-8.533,8.533
			s3.821,8.533,8.533,8.533h25.6v17.067h-25.6c-4.713,0-8.533,3.82-8.533,8.533s3.821,8.533,8.533,8.533h25.6v17.067H153.666z
			 M196.332,197.332h119.467l0.001,8.529l-0.001,0.004l0.001,0.004l0.004,34.108l-0.005,0.021l0.005,0.022l0.003,34.072l-0.008,0.04
			l0.008,0.04l0.004,34.036l-0.011,0.057l0.011,0.057l0.001,8.476H196.332V197.332z"/>
		<path d="M221.932,231.465c2.262-0.018,4.431-0.904,6.059-2.475c2.444-2.441,3.154-6.125,1.792-9.3
			c-0.777-2.143-2.465-3.831-4.608-4.608c-3.177-1.341-6.849-0.634-9.3,1.792c-0.755,0.829-1.363,1.782-1.796,2.817
			c-1.356,3.175-0.646,6.857,1.794,9.299C217.501,230.561,219.67,231.447,221.932,231.465z"/>
		<path d="M221.932,299.732c2.27,0.022,4.453-0.87,6.058-2.475c1.605-1.605,2.497-3.788,2.475-6.058
			c-0.033-2.259-0.917-4.422-2.475-6.059c-0.83-0.753-1.783-1.359-2.817-1.792c-2.06-0.942-4.427-0.942-6.487,0
			c-1.033,0.433-1.984,1.039-2.813,1.792c-1.56,1.635-2.444,3.799-2.475,6.059c-0.022,2.27,0.87,4.453,2.475,6.058
			C217.479,298.862,219.662,299.754,221.932,299.732z"/>
		<path d="M290.199,299.732c2.27,0.022,4.453-0.87,6.058-2.475c1.605-1.605,2.497-3.788,2.475-6.058
			c0.02-3.467-2.059-6.601-5.261-7.931c-3.202-1.329-6.89-0.59-9.331,1.872l-1.025,1.275c-0.324,0.477-0.583,0.996-0.771,1.542
			c-0.246,0.483-0.417,1-0.508,1.533c-0.096,0.565-0.153,1.136-0.171,1.709c-0.022,2.27,0.87,4.453,2.475,6.058
			C285.746,298.862,287.929,299.754,290.199,299.732z"/>
		<path d="M290.199,231.465c2.262-0.018,4.431-0.904,6.059-2.475c2.444-2.441,3.154-6.125,1.792-9.3
			c-0.433-1.034-1.039-1.986-1.792-2.817c-0.406-0.366-0.834-0.708-1.279-1.025c-0.475-0.325-0.992-0.582-1.538-0.767
			c-0.509-0.259-1.056-0.433-1.621-0.517c-1.636-0.343-3.339-0.162-4.867,0.517c-2.141,0.78-3.828,2.467-4.608,4.608
			c-1.357,3.176-0.646,6.857,1.795,9.3C285.768,230.561,287.937,231.447,290.199,231.465z"/>
	</g>
</g>
<g>
</g>
<g>
</g>
<g>
</g>
<g>
</g>
<g>
</g>
<g>
</g>
<g>
</g>
<g>
</g>
<g>
</g>
<g>
</g>
<g>
</g>
<g>
</g>
<g>
</g>
<g>
</g>
<g>
</g>
</svg>
