<?xml version="1.0" encoding="iso-8859-1"?>
<!-- Generator: Adobe Illustrator 19.0.0, SVG Export Plug-In . SVG Version: 6.00 Build 0)  -->
<svg version="1.1" id="Capa_1" xmlns="http://www.w3.org/2000/svg" xmlns:xlink="http://www.w3.org/1999/xlink" x="0px" y="0px"
	 viewBox="0 0 512 512" style="enable-background:new 0 0 512 512;" xml:space="preserve">
<g>
	<g transform="translate(1 1)">
		<path style="fill:#607D8B;" d="M391.533,41.667V75.8H118.467V41.667c0.028-9.414,7.652-17.039,17.067-17.067h238.933
			C383.881,24.628,391.506,32.252,391.533,41.667z"/>
		<path style="fill:#CFD8DC;" d="M365.933,41.667V75.8H118.467V41.667c0.028-9.414,7.652-17.039,17.067-17.067h213.333
			C358.281,24.628,365.906,32.252,365.933,41.667z"/>
		<path style="fill:#673AB7;" d="M418.84,443.302l-36.693,48.924c-4.835,6.446-12.422,10.24-20.48,10.24H148.333
			c-8.058,0-15.645-3.794-20.48-10.24L91.16,443.302c-4.431-5.908-6.827-13.095-6.827-20.48V84.333c0-14.138,11.462-25.6,25.6-25.6
			H203.8c0-28.277,22.923-51.2,51.2-51.2s51.2,22.923,51.2,51.2h93.867c14.138,0,25.6,11.462,25.6,25.6v338.489
			C425.667,430.208,423.271,437.394,418.84,443.302z"/>
		<g>
			<circle style="fill:#FFFFFF;" cx="144.067" cy="374.467" r="25.6"/>
			<circle style="fill:#FFFFFF;" cx="365.933" cy="374.467" r="25.6"/>
			<circle style="fill:#FFFFFF;" cx="255" cy="58.733" r="17.067"/>
		</g>
		<path style="fill:#00838F;" d="M127,109.933h256c4.713,0,8.533,3.82,8.533,8.533v170.667c0,4.713-3.82,8.533-8.533,8.533H127
			c-4.713,0-8.533-3.82-8.533-8.533V118.467C118.467,113.754,122.287,109.933,127,109.933z"/>
		<path style="fill:#00BCD4;" d="M127,109.933h230.4c4.713,0,8.533,3.82,8.533,8.533v170.667c0,4.713-3.82,8.533-8.533,8.533H127
			c-4.713,0-8.533-3.82-8.533-8.533V118.467C118.467,113.754,122.287,109.933,127,109.933z"/>
		<path style="fill:#CFD8DC;" d="M423.704,434.2c-1.158,3.269-2.798,6.346-4.864,9.131l-36.693,48.896
			c-4.833,6.448-12.422,10.242-20.48,10.239H148.333c-8.058,0.003-15.647-3.792-20.48-10.24L91.16,443.331
			c-2.066-2.785-3.706-5.862-4.864-9.131H423.704z"/>
		<path style="fill:#4527A0;" d="M425.667,84.333V422.85c-0.007,3.867-0.67,7.705-1.963,11.35h-25.6
			c1.292-3.645,1.956-7.483,1.963-11.35V84.333c0.009-6.792-2.685-13.309-7.488-18.112s-11.32-7.497-18.112-7.488l25.6,0
			c6.792-0.009,13.309,2.685,18.112,7.488C422.982,71.024,425.676,77.541,425.667,84.333z"/>
		<path style="fill:#607D8B;" d="M423.704,434.2c-1.158,3.269-2.798,6.346-4.864,9.131l-36.693,48.896
			c-4.833,6.448-12.422,10.242-20.48,10.239h-25.6c8.058,0.003,15.647-3.792,20.48-10.24l36.693-48.896
			c2.066-2.785,3.706-5.862,4.864-9.131H423.704z"/>
	</g>
	<g>
		<path d="M145.067,341.333c-18.851,0-34.133,15.282-34.133,34.133c0,18.851,15.282,34.133,34.133,34.133
			s34.133-15.282,34.133-34.133C179.18,356.624,163.91,341.353,145.067,341.333z M145.067,392.533
			c-9.426,0-17.067-7.641-17.067-17.067s7.641-17.067,17.067-17.067s17.067,7.641,17.067,17.067
			C162.123,384.888,154.488,392.523,145.067,392.533z"/>
		<path d="M366.933,341.333c-18.851,0-34.133,15.282-34.133,34.133c0,18.851,15.282,34.133,34.133,34.133
			c18.851,0,34.133-15.282,34.133-34.133C401.047,356.624,385.776,341.353,366.933,341.333z M366.933,392.533
			c-9.426,0-17.067-7.641-17.067-17.067s7.641-17.067,17.067-17.067c9.426,0,17.067,7.641,17.067,17.067
			C383.989,384.888,376.355,392.523,366.933,392.533z"/>
		<path d="M375.467,17.067h-77.778c-23.134-22.756-60.243-22.756-83.377,0h-77.778c-14.132,0.015-25.585,11.468-25.6,25.6V51.2
			C92.09,51.22,76.82,66.49,76.8,85.333v338.492c0.027,4.883,0.891,9.726,2.556,14.317c0.093,0.251,0.191,0.481,0.306,0.721
			c1.383,3.768,3.292,7.321,5.671,10.554l36.692,48.925c6.462,8.578,16.569,13.633,27.308,13.659h213.333
			c10.738-0.024,20.845-5.08,27.304-13.658l36.696-48.925h0.004c2.379-3.234,4.288-6.789,5.67-10.558
			c0.113-0.235,0.21-0.465,0.302-0.713c1.665-4.592,2.53-9.436,2.557-14.321V85.333C435.18,66.49,419.91,51.22,401.067,51.2v-8.533
			C401.051,28.535,389.599,17.082,375.467,17.067z M128,42.667c0.005-4.711,3.822-8.529,8.533-8.533h65.56
			c-2.592,5.392-4.352,11.147-5.219,17.067H128V42.667z M376.317,488.108c-3.23,4.288-8.282,6.814-13.65,6.825H149.333
			c-5.369-0.012-10.422-2.538-13.654-6.825L102.4,443.733h307.204L376.317,488.108z M418.133,85.333v338.492
			c-0.024,0.951-0.101,1.9-0.232,2.842H94.099c-0.131-0.942-0.209-1.891-0.232-2.842V85.333c0.011-9.421,7.645-17.056,17.067-17.067
			H204.8c2.263,0.001,4.434-0.898,6.035-2.499c1.6-1.6,2.499-3.771,2.499-6.035c0-23.564,19.103-42.667,42.667-42.667
			s42.667,19.103,42.667,42.667c-0.001,2.263,0.898,4.434,2.499,6.035c1.6,1.6,3.771,2.499,6.035,2.499h93.867
			C410.488,68.277,418.123,75.912,418.133,85.333z M315.125,51.2c-0.867-5.92-2.626-11.674-5.219-17.067h65.56
			c4.711,0.005,8.529,3.822,8.533,8.533V51.2H315.125z"/>
		<path d="M256,85.333c14.138,0,25.6-11.462,25.6-25.6s-11.462-25.6-25.6-25.6c-14.139,0-25.6,11.462-25.6,25.6
			C230.415,73.865,241.868,85.318,256,85.333z M256,51.2c4.713,0,8.533,3.821,8.533,8.533s-3.82,8.533-8.533,8.533
			s-8.533-3.821-8.533-8.533C247.471,55.022,251.289,51.205,256,51.2z"/>
		<path d="M298.667,392.533h-85.333c-4.713,0-8.533,3.821-8.533,8.533s3.821,8.533,8.533,8.533h85.333
			c4.713,0,8.533-3.82,8.533-8.533S303.38,392.533,298.667,392.533z"/>
		<path d="M298.667,358.4h-85.333c-4.713,0-8.533,3.821-8.533,8.533c0,4.713,3.821,8.533,8.533,8.533h85.333
			c4.713,0,8.533-3.821,8.533-8.533C307.2,362.221,303.38,358.4,298.667,358.4z"/>
		<path d="M298.667,324.267h-85.333c-4.713,0-8.533,3.821-8.533,8.533c0,4.713,3.821,8.533,8.533,8.533h85.333
			c4.713,0,8.533-3.821,8.533-8.533C307.2,328.087,303.38,324.267,298.667,324.267z"/>
		<path d="M384,102.4H128c-9.421,0.011-17.056,7.645-17.067,17.067v170.667c0.011,9.421,7.645,17.056,17.067,17.067h256
			c9.421-0.011,17.056-7.645,17.067-17.067V119.467C401.056,110.045,393.421,102.411,384,102.4z M128,290.133V119.467h256
			l0.012,170.667H128z"/>
		<path d="M262.059,249.941c-0.83-0.753-1.783-1.359-2.817-1.792c-3.178-1.333-6.845-0.626-9.3,1.792
			c-0.755,0.829-1.363,1.782-1.796,2.817c-1.357,3.176-0.646,6.858,1.795,9.301c0.829,0.753,1.78,1.359,2.813,1.792
			c3.175,1.363,6.861,0.655,9.304-1.788s3.153-6.128,1.791-9.304C263.417,251.725,262.811,250.772,262.059,249.941z"/>
		<path d="M256,179.2c-20.341-0.039-40.139,6.568-56.379,18.817c-2.423,1.85-3.676,4.853-3.285,7.877s2.365,5.61,5.179,6.783
			c2.814,1.174,6.041,0.757,8.464-1.094c27.282-20.422,64.76-20.422,92.042,0c3.746,2.86,9.102,2.142,11.962-1.604
			s2.142-9.102-1.604-11.962C296.139,185.768,276.341,179.161,256,179.2z"/>
		<path d="M256,145.067c-27.139,0.066-53.348,9.888-73.846,27.675c-3.553,3.085-3.94,8.463-0.864,12.024
			c3.076,3.561,8.454,3.96,12.022,0.893c35.906-31.367,89.469-31.367,125.375,0c3.568,3.068,8.946,2.668,12.022-0.893
			c3.076-3.561,2.69-8.94-0.864-12.024C309.348,154.955,283.139,145.133,256,145.067z"/>
		<path d="M225.188,223.642c-3.733,2.879-4.425,8.238-1.546,11.971s8.238,4.425,11.971,1.546c12.194-8.717,28.581-8.717,40.775,0
			c3.733,2.879,9.092,2.187,11.971-1.546s2.187-9.092-1.546-11.971C268.424,210.342,243.576,210.342,225.188,223.642z"/>
	</g>
</g>
<g>
</g>
<g>
</g>
<g>
</g>
<g>
</g>
<g>
</g>
<g>
</g>
<g>
</g>
<g>
</g>
<g>
</g>
<g>
</g>
<g>
</g>
<g>
</g>
<g>
</g>
<g>
</g>
<g>
</g>
</svg>
