<?xml version="1.0" encoding="iso-8859-1"?>
<!-- Generator: Adobe Illustrator 19.0.0, SVG Export Plug-In . SVG Version: 6.00 Build 0)  -->
<svg version="1.1" id="Capa_1" xmlns="http://www.w3.org/2000/svg" xmlns:xlink="http://www.w3.org/1999/xlink" x="0px" y="0px"
	 viewBox="0 0 512 512" style="enable-background:new 0 0 512 512;" xml:space="preserve">
<g>
	<g transform="translate(1 1)">
		<path style="fill:#607D8B;" d="M246.467,7.533h221.867c18.851,0,34.133,15.282,34.133,34.133v426.667
			c0,18.851-15.282,34.133-34.133,34.133H246.467c-18.851,0-34.133-15.282-34.133-34.133V41.667
			C212.333,22.815,227.615,7.533,246.467,7.533z"/>
		<path style="fill:#CFD8DC;" d="M246.467,7.533h196.267c18.851,0,34.133,15.282,34.133,34.133v426.667
			c0,18.851-15.282,34.133-34.133,34.133H246.467c-18.851,0-34.133-15.282-34.133-34.133V41.667
			C212.333,22.815,227.615,7.533,246.467,7.533z"/>
		<path style="fill:#3F51B5;" d="M398.052,41.667h-81.304c-6.464,0-12.374-3.652-15.265-9.434L289.133,7.533h136.533l-12.35,24.699
			C410.426,38.014,404.517,41.667,398.052,41.667z"/>
		<path style="fill:#2296F3;" d="M93.379,272.067h178.688c4.707-0.014,8.52-3.826,8.533-8.533v-204.8
			c-0.014-4.707-3.826-8.52-8.533-8.533h-256c-4.707,0.014-8.52,3.826-8.533,8.533v204.8c0.014,4.707,3.826,8.52,8.533,8.533h25.6
			v51.2c-0.002,3.674,2.348,6.937,5.834,8.099c3.486,1.162,7.324-0.038,9.526-2.979L93.379,272.067z"/>
		<path style="fill:#1566C0;" d="M280.6,58.733v204.8c-0.014,4.707-3.826,8.52-8.533,8.533h-25.6
			c4.707-0.014,8.52-3.826,8.533-8.533v-204.8c-0.014-4.707-3.826-8.52-8.533-8.533h25.6
			C276.774,50.214,280.586,54.026,280.6,58.733z"/>
	</g>
	<g>
		<path d="M469.333,0H247.467c-23.553,0.028-42.639,19.114-42.667,42.667H17.067C7.645,42.677,0.011,50.312,0,59.733v204.8
			c0.011,9.421,7.645,17.056,17.067,17.067h17.067v42.667c-0.074,7.365,4.647,13.924,11.654,16.192
			c1.783,0.596,3.65,0.903,5.53,0.908c4.716-0.039,9.196-2.069,12.334-5.589c0.17-0.15,0.312-0.332,0.471-0.497
			c0.23-0.27,0.507-0.476,0.723-0.764c0.05-0.067,0.055-0.148,0.103-0.216c0.076-0.105,0.175-0.182,0.247-0.293L99.027,281.6H204.8
			v187.733c0.028,23.553,19.114,42.639,42.667,42.667h221.867c23.553-0.028,42.639-19.114,42.667-42.667V42.667
			C511.972,19.114,492.886,0.028,469.333,0z M412.858,17.067l-6.175,12.35c-1.437,2.897-4.395,4.727-7.629,4.717h-81.308
			c-3.234,0.01-6.192-1.819-7.629-4.717l-6.175-12.35H412.858z M42.667,264.533h-25.6v-204.8h256v204.8H94.379
			c-0.287,0.042-0.572,0.099-0.853,0.172c-1.653,0.161-3.22,0.811-4.502,1.868c-0.445,0.371-0.851,0.788-1.209,1.244
			c-0.185,0.231-0.443,0.371-0.607,0.625L51.2,324.223v-51.156c0.001-2.263-0.898-4.434-2.499-6.035S44.93,264.533,42.667,264.533z
			 M494.933,469.333c-0.015,14.132-11.468,25.585-25.6,25.6H247.467c-14.132-0.015-25.585-11.468-25.6-25.6V281.6h51.2
			c9.421-0.011,17.056-7.645,17.067-17.067V137.269c11.036,1.749,21.234,6.95,29.129,14.857l1.475,1.475H307.2
			c-4.713,0-8.533,3.821-8.533,8.533c0,4.713,3.82,8.533,8.533,8.533h34.133c1.022-0.018,2.032-0.222,2.981-0.602
			c0.276-0.112,0.545-0.24,0.806-0.382c0.643-0.322,1.241-0.725,1.781-1.2c0.227-0.184,0.444-0.38,0.649-0.587
			c0.628-0.666,1.143-1.43,1.525-2.262c0.034-0.075,0.094-0.132,0.126-0.209l0.014-0.024c0.371-0.941,0.57-1.941,0.586-2.952
			c0.004-0.11,0.064-0.202,0.064-0.315V128c0-4.713-3.821-8.533-8.533-8.533S332.8,123.287,332.8,128v13.529l-1.471-1.471
			c-11.085-11.123-25.601-18.178-41.196-20.023V59.733c-0.011-9.421-7.645-17.056-17.067-17.067h-51.2
			c0.015-14.132,11.468-25.585,25.6-25.6h37.392l9.992,19.983c4.313,8.694,13.191,14.181,22.896,14.15h81.308
			c9.705,0.031,18.583-5.456,22.896-14.15l9.992-19.983h37.392c14.132,0.015,25.585,11.468,25.6,25.6V469.333z"/>
		<path d="M409.6,460.8H307.2c-4.713,0-8.533,3.821-8.533,8.533c0,4.713,3.82,8.533,8.533,8.533h102.4
			c4.713,0,8.533-3.821,8.533-8.533C418.133,464.621,414.313,460.8,409.6,460.8z"/>
		<path d="M416.184,295.348l-0.005-0.01l-42.217-93.812c-2.755-6.126-8.847-10.067-15.565-10.067c-6.717,0-12.81,3.94-15.565,10.067
			L273.817,354.9c-1.258,2.782-0.934,6.024,0.85,8.502c1.784,2.478,4.755,3.814,7.792,3.504c3.037-0.31,5.678-2.219,6.924-5.006
			l24.614-54.7h88.805l24.614,54.7c1.939,4.289,6.984,6.198,11.276,4.268s6.212-6.971,4.29-11.268L416.184,295.348z
			 M321.678,290.133l36.722-81.608l36.722,81.608H321.678z"/>
		<path d="M85.333,128h99.144c-9.776,19.247-23.141,36.446-39.377,50.673c-2.605-2.477-5.202-4.996-7.747-7.581
			c-2.85-2.908-5.637-5.875-8.325-8.892c-2.671-2.983-5.242-6.025-7.671-9.1c-2.932-3.679-8.288-4.292-11.976-1.372
			c-3.688,2.921-4.317,8.275-1.408,11.972c2.637,3.325,5.425,6.617,8.312,9.867c2.871,3.217,5.85,6.383,8.892,9.475
			c2.374,2.423,4.807,4.76,7.241,7.087c-13.762,11.869-28.198,22.933-43.236,33.137c-3.94,2.587-5.037,7.877-2.45,11.817
			c2.587,3.94,7.877,5.037,11.817,2.45c16.252-10.94,31.798-22.895,46.543-35.795c2.6,2.272,5.197,4.514,7.732,6.628
			c2.992,2.5,5.912,4.875,8.73,7.108c2.817,2.242,5.525,4.342,8.079,6.292c2.558,1.95,4.966,3.75,7.183,5.375
			c2.217,1.633,4.242,3.092,6.029,4.367l8.725,6.017c3.934,2.566,9.202,1.47,11.787-2.452c2.585-3.922,1.514-9.195-2.396-11.799
			l-8.225-5.683c-1.729-1.225-3.679-2.633-5.821-4.2c-2.142-1.575-4.467-3.308-6.933-5.192c-2.471-1.883-5.087-3.917-7.804-6.075
			c-2.717-2.167-5.538-4.458-8.421-6.858c-1.963-1.635-3.978-3.396-5.983-5.134C177.152,171.53,195.5,149.518,202.686,128h2.114
			c4.713,0,8.533-3.821,8.533-8.533c0-4.713-3.821-8.533-8.533-8.533h-51.2V93.867c0-4.713-3.821-8.533-8.533-8.533
			c-4.713,0-8.533,3.821-8.533,8.533v17.067h-51.2c-4.713,0-8.533,3.821-8.533,8.533C76.8,124.179,80.621,128,85.333,128z"/>
	</g>
</g>
<g>
</g>
<g>
</g>
<g>
</g>
<g>
</g>
<g>
</g>
<g>
</g>
<g>
</g>
<g>
</g>
<g>
</g>
<g>
</g>
<g>
</g>
<g>
</g>
<g>
</g>
<g>
</g>
<g>
</g>
</svg>
