<?xml version="1.0" encoding="iso-8859-1"?>
<!-- Generator: Adobe Illustrator 19.0.0, SVG Export Plug-In . SVG Version: 6.00 Build 0)  -->
<svg version="1.1" id="Capa_1" xmlns="http://www.w3.org/2000/svg" xmlns:xlink="http://www.w3.org/1999/xlink" x="0px" y="0px"
	 viewBox="0 0 512 512" style="enable-background:new 0 0 512 512;" xml:space="preserve">
<g>
	<g transform="translate(1 1)">
		<path style="fill:#00838F;" d="M485.4,71.533V395.8H24.6V71.533c0.028-9.414,7.652-17.039,17.067-17.067h426.667
			C477.748,54.494,485.373,62.119,485.4,71.533z"/>
		<path style="fill:#00BCD4;" d="M459.8,71.533V395.8H24.6V71.533c0.028-9.414,7.652-17.039,17.067-17.067h401.067
			C452.148,54.494,459.773,62.119,459.8,71.533z"/>
		<path style="fill:#607D8B;" d="M502.467,387.267V421.4c0.002,9.053-3.593,17.737-9.995,24.138
			c-6.402,6.402-15.085,9.997-24.138,9.995H41.667c-9.053,0.002-17.737-3.593-24.138-9.995c-6.402-6.402-9.997-15.085-9.995-24.138
			v-34.133c0.014-4.707,3.826-8.52,8.533-8.533h477.867C498.641,378.747,502.453,382.56,502.467,387.267z"/>
		<path style="fill:#CFD8DC;" d="M476.867,387.267V421.4c0.002,9.053-3.593,17.737-9.995,24.138
			c-6.402,6.402-15.085,9.997-24.138,9.995H41.667c-9.053,0.002-17.737-3.593-24.138-9.995c-6.402-6.402-9.997-15.085-9.995-24.138
			v-34.133c0.014-4.707,3.826-8.52,8.533-8.533h452.267C473.041,378.747,476.853,382.56,476.867,387.267z"/>
		<path style="fill:#607D8B;" d="M312.719,412.867H197.281c-6.464,0-12.374-3.652-15.265-9.434l-12.35-24.699h170.667l-12.35,24.699
			C325.093,409.214,319.183,412.867,312.719,412.867z"/>
		<path style="fill:#F44335;" d="M270.446,266.264c1.478,3.391,2.233,7.053,2.219,10.752c-0.075,13.697-10.165,25.275-23.723,27.221
			l-0.769-0.085c-3.018,15.157-14.565,27.18-29.588,30.807c-15.022,3.627-30.784-1.802-40.386-13.911
			c-5.543-6.925-8.553-15.535-8.533-24.405c0.02,8.87-2.991,17.48-8.533,24.405c-9.602,12.109-25.363,17.538-40.385,13.911
			s-26.569-15.65-29.588-30.807l-0.768,0.085c-13.574-1.916-23.68-13.513-23.723-27.221c-0.015-3.699,0.741-7.361,2.219-10.752
			c0.431-1.175,1.004-2.293,1.707-3.328c0-0.023,0.008-0.045,0.024-0.061c0.016-0.016,0.038-0.025,0.061-0.024
			c0.597-1.024,1.28-2.048,1.963-2.987l0.085-0.085c-9.73-6.47-15.055-17.814-13.818-29.433s8.832-21.587,19.707-25.863
			c-2.68-4.234-4.073-9.155-4.011-14.165c0.074-15.258,12.475-27.583,27.733-27.563c1.317-0.013,2.631,0.101,3.926,0.341v-0.341
			c0.086-12.981,8.078-24.597,20.17-29.318s25.841-1.591,34.698,7.899c5.478,5.786,8.532,13.451,8.533,21.419
			c0.124-17.405,14.253-31.458,31.659-31.488c8.388-0.045,16.45,3.25,22.406,9.157c5.956,5.908,9.316,13.942,9.339,22.331v0.341
			c1.294-0.244,2.609-0.358,3.926-0.341c15.258-0.02,27.659,12.304,27.733,27.563c0.062,5.01-1.332,9.931-4.011,14.165
			c10.874,4.276,18.469,14.244,19.706,25.863c1.237,11.619-4.088,22.963-13.818,29.433l0.085,0.085
			c0.683,0.939,1.365,1.963,1.963,2.987c0,0,0.171,0,0.085,0.085C269.441,263.972,270.015,265.089,270.446,266.264z"/>
		<path style="fill:#C52828;" d="M270.446,266.264c1.478,3.391,2.233,7.053,2.219,10.752c-0.075,13.697-10.165,25.275-23.723,27.221
			l-0.769-0.085c-3.621,18.604-19.959,32.004-38.912,31.915c-4.319-0.021-8.608-0.712-12.715-2.048
			c13.404-4.568,23.335-15.964,26.027-29.867l0.768,0.085c13.558-1.946,23.648-13.525,23.723-27.221
			c0.015-3.699-0.741-7.361-2.219-10.752c-0.431-1.175-1.005-2.292-1.707-3.328c0-0.023-0.008-0.045-0.024-0.061
			c-0.016-0.016-0.038-0.025-0.061-0.024c-0.597-1.024-1.28-2.048-1.963-2.987l-0.085-0.085c9.73-6.47,15.055-17.814,13.818-29.433
			s-8.832-21.587-19.707-25.863c2.68-4.234,4.073-9.155,4.012-14.166c-0.074-15.258-12.475-27.583-27.733-27.563
			c-1.317-0.017-2.632,0.097-3.926,0.341v-0.341c-0.005-12.53-7.447-23.861-18.944-28.843c4.04-1.75,8.397-2.651,12.8-2.645
			c8.388-0.045,16.45,3.25,22.406,9.157c5.956,5.908,9.316,13.942,9.338,22.331v0.341c1.294-0.244,2.609-0.358,3.926-0.341
			c15.258-0.02,27.659,12.304,27.733,27.563c0.062,5.01-1.332,9.931-4.011,14.165c10.874,4.276,18.469,14.244,19.707,25.863
			c1.237,11.619-4.088,22.963-13.818,29.433l0.085,0.085c0.683,0.939,1.365,1.963,1.963,2.987c0.023,0,0.045,0.008,0.061,0.024
			s0.025,0.038,0.024,0.061C269.441,263.972,270.015,265.089,270.446,266.264z"/>
	</g>
	<g>
		<path d="M494.933,371.2V72.533c-0.015-14.132-11.468-25.585-25.6-25.6H42.667c-14.132,0.015-25.585,11.468-25.6,25.6V371.2
			C7.646,371.212,0.012,378.846,0,388.267V422.4c0.028,23.553,19.114,42.639,42.667,42.667h426.667
			c23.553-0.028,42.639-19.114,42.667-42.667v-34.133C511.988,378.846,504.354,371.212,494.933,371.2z M34.133,72.533
			c0.003-4.712,3.822-8.53,8.533-8.533h426.667c4.712,0.003,8.53,3.822,8.533,8.533V371.2H34.133V72.533z M327.525,388.267
			l-6.175,12.35c-1.436,2.9-4.397,4.73-7.633,4.717H198.283c-3.236,0.013-6.197-1.817-7.633-4.717l-6.175-12.35H327.525z
			 M469.333,448H42.667c-14.132-0.015-25.585-11.468-25.6-25.6h93.867c4.713,0,8.533-3.82,8.533-8.533s-3.821-8.533-8.533-8.533
			H17.067v-17.067h148.325l9.992,19.983c4.314,8.694,13.194,14.181,22.9,14.15h115.433c9.706,0.031,18.586-5.456,22.9-14.15
			l9.992-19.983h148.325v17.067h-93.867c-4.713,0-8.533,3.821-8.533,8.533s3.82,8.533,8.533,8.533h93.867
			C494.918,436.532,483.465,447.985,469.333,448z"/>
		<path d="M153.6,405.333h-8.533c-4.713,0-8.533,3.821-8.533,8.533s3.821,8.533,8.533,8.533h8.533c4.713,0,8.533-3.82,8.533-8.533
			S158.313,405.333,153.6,405.333z"/>
		<path d="M366.933,405.333H358.4c-4.713,0-8.533,3.821-8.533,8.533s3.82,8.533,8.533,8.533h8.533c4.713,0,8.533-3.82,8.533-8.533
			S371.646,405.333,366.933,405.333z"/>
		<path d="M210.283,345.6c20.801,0.088,39.274-13.279,45.696-33.064c15.438-4.421,26.118-18.486,26.229-34.545
			c0.008-4.972-1.037-9.89-3.067-14.429c-0.137-0.324-0.273-0.653-0.417-0.962c9.203-9.257,13.198-22.485,10.66-35.289
			c-0.073-0.393-0.132-0.784-0.218-1.172c-0.505-2.349-1.223-4.647-2.145-6.866c-0.066-0.157-0.142-0.305-0.21-0.46
			c-1.948-4.507-4.723-8.609-8.181-12.094c-0.225-0.23-0.454-0.45-0.684-0.674c-1.607-1.577-3.345-3.014-5.197-4.295
			c1.02-3.375,1.537-6.882,1.533-10.408c-0.058-18.548-14.121-34.053-32.575-35.917c-0.514-2.361-1.245-4.669-2.182-6.895
			c-0.28-0.673-0.666-1.281-0.98-1.935c-0.723-1.553-1.545-3.057-2.46-4.505c-0.498-0.763-1.071-1.458-1.619-2.185
			c-0.902-1.222-1.872-2.392-2.906-3.505c-0.66-0.698-1.356-1.343-2.066-1.992c-1.089-1-2.233-1.939-3.425-2.814
			c-0.782-0.573-1.566-1.123-2.391-1.639c-1.287-0.794-2.619-1.514-3.987-2.158c-0.85-0.407-1.677-0.834-2.558-1.182
			c-1.563-0.594-3.162-1.089-4.787-1.483c-0.792-0.204-1.55-0.477-2.359-0.632c-14.88-2.974-30.152,2.816-39.32,14.907
			c-9.164-12.089-24.429-17.879-39.305-14.909c-0.823,0.158-1.592,0.434-2.397,0.641c-1.602,0.389-3.178,0.877-4.72,1.461
			c-0.919,0.362-1.78,0.804-2.665,1.229c-1.306,0.617-2.577,1.305-3.808,2.06c-0.906,0.563-1.766,1.166-2.623,1.797
			c-1.066,0.789-2.077,1.624-3.058,2.513c-0.852,0.767-1.681,1.537-2.463,2.373c-0.824,0.883-1.565,1.827-2.307,2.782
			c-0.763,0.976-1.533,1.93-2.204,2.975c-0.585,0.915-1.052,1.899-1.564,2.863c-0.671,1.167-1.281,2.368-1.828,3.597
			c-0.337,0.831-0.525,1.732-0.809,2.59c-0.495,1.325-0.917,2.676-1.266,4.046c-18.464,1.848-32.542,17.357-32.6,35.914
			c-0.004,3.526,0.513,7.033,1.533,10.408c-1.851,1.281-3.59,2.718-5.197,4.295c-0.23,0.224-0.459,0.444-0.684,0.674
			c-3.459,3.485-6.234,7.587-8.181,12.094c-0.069,0.155-0.145,0.303-0.21,0.46c-0.922,2.219-1.64,4.517-2.145,6.866
			c-0.085,0.388-0.145,0.78-0.218,1.172c-2.537,12.8,1.455,26.024,10.652,35.281c-0.156,0.337-0.295,0.677-0.434,1.017
			c-2.001,4.531-3.036,9.43-3.041,14.383c0.111,16.059,10.791,30.124,26.229,34.545c5.722,17.345,20.766,29.96,38.843,32.57
			c18.077,2.61,36.075-5.233,46.47-20.252C179.669,337.85,194.474,345.603,210.283,345.6z M202.358,140.8
			c7.129-0.031,13.871,3.239,18.261,8.857s5.933,12.95,4.181,19.86c-0.568,2.19-0.242,4.517,0.907,6.466s3.026,3.362,5.218,3.926
			c0.699,0.185,1.419,0.277,2.142,0.275c3.887-0.004,7.28-2.636,8.25-6.4c0.096-0.369,0.131-0.751,0.217-1.122
			c9.042,1.641,15.633,9.491,15.683,18.681c-0.036,1.337-0.217,2.667-0.538,3.965c-6.931-1.33-14.095-0.712-20.696,1.785
			c-2.861,1.054-4.943,3.554-5.461,6.559c-0.518,3.005,0.607,6.058,2.95,8.009c2.343,1.951,5.549,2.503,8.411,1.45
			c5.349-1.968,11.238-1.883,16.529,0.237c0.068,0.029,0.11,0.094,0.179,0.121c0.827,0.341,1.633,0.729,2.416,1.163
			c0.341,0.188,0.697,0.35,1.028,0.554c0.578,0.346,1.117,0.74,1.658,1.132c0.681,0.499,1.334,1.034,1.957,1.603
			c0.294,0.268,0.595,0.529,0.873,0.811c1.913,1.956,3.462,4.238,4.574,6.738c0.111,0.253,0.202,0.516,0.305,0.774
			c0.409,1.031,0.741,2.091,0.995,3.17c0.081,0.35,0.174,0.694,0.24,1.048c1.341,6.698-0.494,13.64-4.969,18.802
			c-6.244-4.762-13.874-7.353-21.727-7.378c-4.713,0-8.533,3.82-8.533,8.533c0,4.713,3.821,8.533,8.533,8.533
			c6.091,0.009,11.817,2.909,15.427,7.816c0.274,0.336,0.521,0.693,0.74,1.068c0.042,0.081,0.097,0.154,0.141,0.234
			c0.443,0.696,0.84,1.42,1.189,2.167c0.064,0.144,0.119,0.249,0.188,0.415c0.499,1.157,0.879,2.361,1.134,3.595
			c1.698,8.29-2.351,16.694-9.893,20.532c-1.421-1.289-3.257-2.026-5.175-2.078c-2.22-0.086-4.38,0.733-5.986,2.27
			c-1.605,1.536-2.519,3.658-2.531,5.88c-1.798,16.363-16.042,28.487-32.481,27.646c-16.44-0.84-29.374-14.353-29.494-30.814
			V163.775C179.267,151.042,189.626,140.766,202.358,140.8z M131.05,328.533c-15.61,0.2-28.885-11.346-30.85-26.833v-0.083
			c0.001-2.264-0.897-4.435-2.498-6.035s-3.772-2.499-6.035-2.498c-1.811,0.039-3.561,0.667-4.983,1.789
			c-6.389-3.211-10.441-9.73-10.492-16.881c0.007-2.597,0.551-5.165,1.6-7.542c0.069-0.165,0.14-0.255,0.208-0.404
			c0.322-0.681,0.684-1.343,1.085-1.981c0.044-0.079,0.098-0.151,0.14-0.232c0.181-0.318,0.385-0.623,0.609-0.911
			c3.605-5.001,9.392-7.966,15.557-7.972c4.713,0,8.533-3.82,8.533-8.533c0-4.713-3.821-8.533-8.533-8.533
			c-7.853,0.025-15.483,2.615-21.727,7.378c-4.475-5.161-6.309-12.103-4.969-18.801c0.066-0.354,0.158-0.698,0.24-1.047
			c0.255-1.082,0.588-2.144,0.998-3.177c0.1-0.255,0.191-0.515,0.301-0.765c1.113-2.501,2.662-4.784,4.575-6.741
			c0.278-0.282,0.579-0.543,0.873-0.811c0.623-0.569,1.277-1.104,1.957-1.603c0.541-0.392,1.08-0.785,1.658-1.131
			c0.331-0.204,0.688-0.368,1.03-0.556c0.781-0.434,1.587-0.821,2.414-1.161c0.069-0.027,0.111-0.092,0.179-0.121
			c5.291-2.121,11.18-2.205,16.529-0.237c4.423,1.629,9.329-0.636,10.959-5.059c1.629-4.423-0.636-9.329-5.059-10.958
			c-6.601-2.497-13.765-3.115-20.696-1.785c-0.321-1.299-0.501-2.628-0.538-3.965c0.05-9.19,6.641-17.04,15.683-18.681
			c0.085,0.372,0.121,0.753,0.217,1.122c0.97,3.764,4.363,6.396,8.25,6.4c0.723,0.003,1.443-0.09,2.142-0.275
			c2.192-0.564,4.069-1.976,5.218-3.926c1.149-1.949,1.475-4.276,0.907-6.466c-2.149-8.659,0.87-17.783,7.761-23.449
			s16.426-6.867,24.507-3.085c8.081,3.782,13.268,11.872,13.332,20.794v133.908C162.049,314.778,148.144,328.578,131.05,328.533z"/>
		<path d="M139.775,278.017c-2.076-0.858-4.407-0.858-6.483,0c-0.546,0.184-1.065,0.442-1.542,0.767
			c-0.445,0.316-0.871,0.658-1.275,1.025c-0.772,0.816-1.38,1.772-1.792,2.817c-1.362,3.175-0.653,6.859,1.79,9.302
			c2.443,2.443,6.127,3.152,9.302,1.79c2.143-0.777,3.831-2.465,4.608-4.608c0.438-1.025,0.67-2.127,0.684-3.242
			c-0.033-2.259-0.917-4.422-2.475-6.059C141.775,279.038,140.819,278.43,139.775,278.017z"/>
		<path d="M139.775,243.883c-2.076-0.858-4.407-0.858-6.483,0c-0.546,0.184-1.065,0.442-1.542,0.767
			c-0.445,0.316-0.871,0.658-1.275,1.025c-0.772,0.816-1.38,1.772-1.792,2.817c-1.362,3.175-0.653,6.859,1.79,9.302
			c2.443,2.443,6.127,3.152,9.302,1.79c2.143-0.777,3.831-2.465,4.608-4.608c0.438-1.025,0.67-2.127,0.684-3.242
			c-0.033-2.259-0.917-4.422-2.475-6.059C141.775,244.905,140.819,244.297,139.775,243.883z"/>
		<path d="M139.775,175.617c-2.067-0.9-4.416-0.9-6.483,0c-0.546,0.184-1.065,0.442-1.542,0.767
			c-0.445,0.316-0.871,0.658-1.275,1.025c-0.754,0.829-1.36,1.782-1.792,2.817c-1.362,3.175-0.653,6.859,1.79,9.302
			c2.443,2.443,6.127,3.152,9.302,1.79c2.143-0.777,3.831-2.465,4.608-4.608c0.438-1.025,0.67-2.127,0.684-3.242
			c-0.033-2.259-0.917-4.422-2.475-6.059C141.775,176.638,140.819,176.03,139.775,175.617z"/>
		<path d="M142.592,211.541c-0.817-0.77-1.773-1.378-2.817-1.792c-2.076-0.858-4.407-0.858-6.483,0
			c-0.546,0.184-1.065,0.442-1.542,0.767c-0.445,0.316-0.871,0.659-1.276,1.025c-0.772,0.816-1.38,1.772-1.792,2.817
			c-1.362,3.175-0.653,6.859,1.79,9.302c2.443,2.443,6.127,3.152,9.302,1.79c2.143-0.777,3.831-2.465,4.608-4.608
			c0.911-2.065,0.911-4.418,0-6.483C143.951,213.324,143.346,212.371,142.592,211.541z"/>
		<path d="M204.8,294.4c4.699-0.032,8.501-3.834,8.533-8.533c0.001-2.859-1.445-5.525-3.842-7.083
			c-0.434-0.339-0.925-0.599-1.45-0.767c-0.51-0.259-1.059-0.433-1.625-0.517c-2.783-0.558-5.661,0.308-7.675,2.308
			c-1.561,1.634-2.445,3.799-2.475,6.059c-0.022,2.27,0.87,4.453,2.475,6.058C200.347,293.53,202.53,294.422,204.8,294.4z"/>
		<path d="M198.741,257.792c1.627,1.572,3.796,2.459,6.059,2.475c2.24-0.004,4.388-0.894,5.975-2.475
			c0.805-0.806,1.442-1.763,1.875-2.817c0.477-1.013,0.71-2.123,0.683-3.242c-0.026-2.277-0.945-4.452-2.558-6.059
			c-0.372-0.406-0.805-0.752-1.283-1.025c-0.434-0.339-0.925-0.599-1.45-0.767c-0.51-0.259-1.059-0.433-1.625-0.517
			c-2.783-0.557-5.661,0.308-7.675,2.308c-1.561,1.634-2.445,3.799-2.475,6.059c-0.031,1.119,0.203,2.23,0.683,3.242
			C197.383,256.009,197.989,256.961,198.741,257.792z"/>
		<path d="M204.8,192c4.699-0.032,8.501-3.834,8.533-8.533c-0.026-2.277-0.945-4.452-2.558-6.059c-3.389-3.158-8.644-3.158-12.033,0
			c-1.561,1.634-2.445,3.799-2.475,6.059c-0.022,2.27,0.87,4.453,2.475,6.058C200.347,191.13,202.53,192.022,204.8,192z"/>
		<path d="M204.8,226.133c4.699-0.032,8.501-3.834,8.533-8.533c0.027-1.119-0.207-2.229-0.683-3.242
			c-0.431-1.055-1.068-2.012-1.875-2.817c-3.389-3.158-8.644-3.158-12.033,0c-0.754,0.829-1.36,1.782-1.792,2.817
			c-0.48,1.012-0.714,2.123-0.683,3.242c-0.022,2.27,0.87,4.453,2.475,6.058C200.347,225.263,202.53,226.155,204.8,226.133z"/>
		<path d="M312.492,242.517c3.175,1.362,6.859,0.653,9.302-1.79c2.443-2.443,3.152-6.127,1.79-9.302
			c-0.432-1.035-1.038-1.987-1.792-2.817c-0.831-0.752-1.783-1.358-2.817-1.792c-3.177-1.342-6.849-0.634-9.3,1.792
			c-0.772,0.816-1.38,1.772-1.792,2.817c-1.362,3.175-0.652,6.859,1.792,9.3C310.49,241.497,311.447,242.105,312.492,242.517z"/>
		<path d="M309.675,274.859c3.365,3.3,8.752,3.3,12.117,0c1.589-1.616,2.479-3.792,2.475-6.059
			c-0.014-1.115-0.246-2.216-0.683-3.242c-0.432-1.035-1.038-1.987-1.792-2.817c-0.831-0.752-1.783-1.358-2.817-1.792
			c-3.178-1.334-6.845-0.627-9.3,1.792c-0.754,0.829-1.36,1.782-1.792,2.817c-0.911,2.065-0.911,4.418,0,6.483
			C308.316,273.075,308.922,274.028,309.675,274.859z"/>
		<path d="M312.492,310.783c2.624,1.124,5.638,0.847,8.013-0.737s3.79-4.259,3.762-7.113c-0.033-2.259-0.917-4.422-2.475-6.059
			c-0.831-0.752-1.783-1.358-2.817-1.792c-3.178-1.334-6.845-0.627-9.3,1.792c-1.561,1.634-2.446,3.799-2.475,6.059
			c-0.023,2.27,0.869,4.454,2.475,6.059C310.49,309.764,311.447,310.372,312.492,310.783z"/>
		<path d="M312.492,344.917c3.175,1.362,6.859,0.653,9.302-1.79c2.443-2.443,3.152-6.127,1.79-9.302
			c-0.432-1.035-1.038-1.987-1.792-2.817c-0.831-0.752-1.783-1.358-2.817-1.792c-3.177-1.342-6.849-0.634-9.3,1.792
			c-0.772,0.816-1.38,1.772-1.792,2.817c-1.362,3.175-0.652,6.859,1.792,9.3C310.49,343.897,311.447,344.505,312.492,344.917z"/>
		<path d="M312.492,208.467c2.639,1.088,5.647,0.784,8.014-0.811c2.367-1.595,3.779-4.268,3.761-7.122
			c-0.033-2.259-0.917-4.422-2.475-6.059c-0.831-0.752-1.783-1.358-2.817-1.792c-3.178-1.334-6.845-0.627-9.3,1.792
			c-1.561,1.634-2.446,3.799-2.475,6.059c-0.023,2.27,0.869,4.454,2.475,6.059C310.523,207.344,311.471,207.975,312.492,208.467z"/>
		<path d="M309.675,172.459c0.816,0.772,1.772,1.38,2.817,1.792c3.175,1.362,6.859,0.652,9.301-1.792
			c0.752-0.831,1.358-1.783,1.792-2.817c0.911-2.065,0.911-4.418,0-6.483c-0.432-1.035-1.038-1.987-1.792-2.817
			c-0.831-0.752-1.783-1.358-2.817-1.792c-3.178-1.334-6.845-0.627-9.3,1.792c-0.754,0.829-1.36,1.782-1.792,2.817
			c-0.911,2.065-0.911,4.418,0,6.483C308.317,170.675,308.922,171.628,309.675,172.459z"/>
		<path d="M312.492,140.117c3.175,1.362,6.859,0.653,9.3-1.791c0.752-0.831,1.358-1.783,1.792-2.817
			c0.911-2.065,0.911-4.418,0-6.483c-0.432-1.035-1.038-1.987-1.792-2.817c-0.831-0.752-1.783-1.358-2.817-1.792
			c-3.177-1.342-6.849-0.634-9.3,1.792c-0.772,0.816-1.38,1.772-1.792,2.817c-1.362,3.174-0.652,6.859,1.791,9.3
			C310.49,139.097,311.447,139.705,312.492,140.117z"/>
		<path d="M349.867,140.8h51.2c4.713,0,8.533-3.821,8.533-8.533c0-4.713-3.821-8.533-8.533-8.533h-51.2
			c-4.713,0-8.533,3.821-8.533,8.533C341.333,136.979,345.154,140.8,349.867,140.8z"/>
		<path d="M349.867,174.933H409.6c4.713,0,8.533-3.821,8.533-8.533s-3.821-8.533-8.533-8.533h-59.733
			c-4.713,0-8.533,3.821-8.533,8.533S345.154,174.933,349.867,174.933z"/>
		<path d="M443.733,174.933h8.533c4.713,0,8.533-3.821,8.533-8.533s-3.82-8.533-8.533-8.533h-8.533
			c-4.713,0-8.533,3.821-8.533,8.533S439.021,174.933,443.733,174.933z"/>
		<path d="M349.867,209.067h102.4c4.713,0,8.533-3.821,8.533-8.533S456.98,192,452.267,192h-102.4c-4.713,0-8.533,3.82-8.533,8.533
			S345.154,209.067,349.867,209.067z"/>
		<path d="M349.867,243.2h25.6c4.713,0,8.533-3.821,8.533-8.533c0-4.713-3.821-8.533-8.533-8.533h-25.6
			c-4.713,0-8.533,3.821-8.533,8.533C341.333,239.38,345.154,243.2,349.867,243.2z"/>
		<path d="M349.867,277.333H435.2c4.713,0,8.533-3.82,8.533-8.533s-3.821-8.533-8.533-8.533h-85.333
			c-4.713,0-8.533,3.82-8.533,8.533S345.154,277.333,349.867,277.333z"/>
		<path d="M349.867,311.467h42.667c4.713,0,8.533-3.82,8.533-8.533s-3.82-8.533-8.533-8.533h-42.667
			c-4.713,0-8.533,3.82-8.533,8.533S345.154,311.467,349.867,311.467z"/>
		<path d="M452.267,294.4h-25.6c-4.713,0-8.533,3.82-8.533,8.533s3.82,8.533,8.533,8.533h25.6c4.713,0,8.533-3.82,8.533-8.533
			S456.98,294.4,452.267,294.4z"/>
		<path d="M349.867,345.6h25.6c4.713,0,8.533-3.82,8.533-8.533s-3.821-8.533-8.533-8.533h-25.6c-4.713,0-8.533,3.82-8.533,8.533
			S345.154,345.6,349.867,345.6z"/>
		<path d="M415.659,331.008c-2.455-2.417-6.122-3.124-9.3-1.792c-2.143,0.777-3.831,2.465-4.608,4.608
			c-0.911,2.065-0.911,4.418,0,6.483c0.434,1.034,1.04,1.986,1.792,2.817c2.441,2.444,6.125,3.154,9.3,1.792
			c2.143-0.777,3.831-2.465,4.608-4.608c0.911-2.065,0.911-4.418,0-6.483C417.039,332.78,416.431,331.824,415.659,331.008z"/>
	</g>
</g>
<g>
</g>
<g>
</g>
<g>
</g>
<g>
</g>
<g>
</g>
<g>
</g>
<g>
</g>
<g>
</g>
<g>
</g>
<g>
</g>
<g>
</g>
<g>
</g>
<g>
</g>
<g>
</g>
<g>
</g>
</svg>
