<?xml version="1.0" encoding="iso-8859-1"?>
<!-- Generator: Adobe Illustrator 19.0.0, SVG Export Plug-In . SVG Version: 6.00 Build 0)  -->
<svg version="1.1" id="Capa_1" xmlns="http://www.w3.org/2000/svg" xmlns:xlink="http://www.w3.org/1999/xlink" x="0px" y="0px"
	 viewBox="0 0 512 512" style="enable-background:new 0 0 512 512;" xml:space="preserve">
<g>
	<g transform="translate(0 1)">
		<path style="fill:#00838F;" d="M503.467,33.133v366.933H8.533l0-366.933c-0.009-6.792,2.685-13.309,7.488-18.112
			s11.32-7.497,18.112-7.488h443.733c6.792-0.009,13.309,2.685,18.112,7.488S503.476,26.341,503.467,33.133z"/>
		<path style="fill:#00BCD4;" d="M477.867,33.133v366.933H8.533l0-366.933c-0.009-6.792,2.685-13.309,7.488-18.112
			s11.32-7.497,18.112-7.488h418.133c6.792-0.009,13.309,2.685,18.112,7.488C475.182,19.824,477.876,26.341,477.867,33.133z"/>
		<rect x="213.333" y="408.6" style="fill:#37474F;" width="85.333" height="85.333"/>
		<g>
			<rect x="213.333" y="408.6" style="fill:#607D8B;" width="59.733" height="85.333"/>
			<path style="fill:#607D8B;" d="M349.867,502.467H162.133c0.016-9.051,3.604-17.729,9.984-24.149
				c0.499-0.528,1.042-1.013,1.621-1.451c6.223-5.488,14.231-8.522,22.528-8.533h119.467c9.054-0.003,17.737,3.593,24.139,9.995
				C346.274,484.73,349.869,493.413,349.867,502.467z"/>
		</g>
		<path style="fill:#CFD8DC;" d="M162.133,502.467l1.109-8.533h-1.109c0.016-9.051,3.604-17.729,9.984-24.149
			c0.499-0.528,1.042-1.013,1.621-1.451h116.395c2.882-0.026,5.754,0.347,8.533,1.109c12.029,3.069,21.422,12.462,24.491,24.491
			c0.762,2.78,1.135,5.651,1.111,8.533H162.133z"/>
		<path style="fill:#607D8B;" d="M503.467,383v25.6c0.009,6.792-2.685,13.309-7.488,18.112c-4.803,4.803-11.32,7.497-18.112,7.488
			H34.133c-6.792,0.009-13.309-2.685-18.112-7.488c-4.803-4.803-7.497-11.32-7.488-18.112l0-25.6H503.467z"/>
		<path style="fill:#CFD8DC;" d="M477.867,383v25.6c0.009,6.792-2.685,13.309-7.488,18.112c-4.803,4.803-11.32,7.497-18.112,7.488
			H34.133c-6.792,0.009-13.309-2.685-18.112-7.488c-4.803-4.803-7.497-11.32-7.488-18.112l0-25.6H477.867z"/>
		<path style="fill:#795548;" d="M200.949,285.949l24.136,24.136L35.202,499.967c-3.332,3.332-8.736,3.332-12.068,0l-12.068-12.068
			c-3.332-3.332-3.332-8.736,0-12.068L200.949,285.949z"/>
		<path style="fill:#607D8B;" d="M273.067,263.533l28.075-28.075c3.328-3.354,3.328-8.764,0-12.117l-13.483-13.483
			c-3.354-3.328-8.764-3.328-12.117,0l-28.075,28.075L273.067,263.533z"/>
		<path style="fill:#CFD8DC;" d="M342.623,349.396c-1.904,1.718-4.413,2.61-6.974,2.478c-2.561-0.132-4.965-1.276-6.682-3.181
			l-65.228-65.228l-26.62,26.62c-3.332,3.332-8.735,3.332-12.068,0l-24.136-24.136c-3.332-3.332-3.332-8.735,0-12.068l26.62-26.62
			l-65.228-65.228c-1.905-1.717-3.049-4.121-3.181-6.682c-0.132-2.561,0.759-5.07,2.478-6.974c2.849-2.685,7.078-3.291,10.566-1.515
			c37.489,17.679,71.627,41.726,100.897,71.072c29.346,29.27,53.393,63.408,71.072,100.897
			C345.914,342.319,345.308,346.547,342.623,349.396z"/>
	</g>
	<g>
		<path d="M110.933,85.333H128c9.421-0.012,17.054-7.646,17.067-17.067V51.2c-0.012-9.421-7.646-17.054-17.067-17.067h-17.067
			c-9.421,0.012-17.054,7.646-17.067,17.067v17.067C93.879,77.687,101.513,85.321,110.933,85.333z M110.933,51.2H128l0.017,17.067
			h-17.084V51.2z"/>
		<path d="M76.8,162.133h17.067c9.421-0.012,17.054-7.646,17.067-17.067V128c-0.012-9.421-7.646-17.054-17.067-17.067H76.8
			c-9.421,0.012-17.054,7.646-17.067,17.067v17.067C59.746,154.487,67.379,162.121,76.8,162.133z M76.8,128h17.067l0.017,17.067
			H76.8V128z"/>
		<path d="M68.267,85.333c2.264,0.001,4.435-0.897,6.035-2.498c1.601-1.601,2.499-3.772,2.498-6.035V42.667
			c0-4.713-3.821-8.533-8.533-8.533s-8.533,3.821-8.533,8.533V76.8c-0.001,2.264,0.897,4.435,2.498,6.035
			C63.832,84.436,66.003,85.335,68.267,85.333z"/>
		<path d="M68.267,238.933c2.264,0.001,4.435-0.897,6.035-2.498c1.601-1.601,2.499-3.772,2.498-6.035v-34.133
			c0-4.713-3.821-8.533-8.533-8.533s-8.533,3.821-8.533,8.533V230.4c-0.001,2.264,0.897,4.435,2.498,6.035
			S66.003,238.935,68.267,238.933z"/>
		<path d="M102.4,187.733c-2.264-0.001-4.435,0.897-6.035,2.498c-1.601,1.601-2.499,3.772-2.498,6.035V230.4
			c0,4.713,3.821,8.533,8.533,8.533c4.713,0,8.533-3.821,8.533-8.533v-34.133c0.001-2.264-0.897-4.435-2.498-6.035
			C106.835,188.631,104.664,187.732,102.4,187.733z"/>
		<path d="M128,264.533c-2.264-0.001-4.435,0.897-6.035,2.498c-1.601,1.601-2.499,3.772-2.498,6.035V307.2
			c0,4.713,3.82,8.533,8.533,8.533s8.533-3.82,8.533-8.533v-34.133c0.001-2.264-0.897-4.435-2.498-6.035
			C132.435,265.431,130.264,264.532,128,264.533z"/>
		<path d="M136.533,110.933c-2.264-0.001-4.435,0.897-6.035,2.498c-1.601,1.601-2.499,3.772-2.498,6.035V153.6
			c0,4.713,3.821,8.533,8.533,8.533s8.533-3.821,8.533-8.533v-34.133c0.001-2.264-0.897-4.435-2.498-6.035
			C140.968,111.831,138.797,110.932,136.533,110.933z"/>
		<path d="M170.667,85.333c2.264,0.001,4.435-0.897,6.035-2.498c1.601-1.601,2.499-3.772,2.498-6.035V42.667
			c0-4.713-3.821-8.533-8.533-8.533c-4.713,0-8.533,3.821-8.533,8.533V76.8c-0.001,2.264,0.897,4.435,2.498,6.035
			C166.232,84.436,168.403,85.335,170.667,85.333z"/>
		<path d="M204.8,85.333c2.264,0.001,4.435-0.897,6.035-2.498c1.601-1.601,2.499-3.772,2.498-6.035V42.667
			c0-4.713-3.821-8.533-8.533-8.533c-4.713,0-8.533,3.821-8.533,8.533V76.8c-0.001,2.264,0.897,4.435,2.498,6.035
			C200.365,84.436,202.536,85.335,204.8,85.333z"/>
		<path d="M315.733,85.333H332.8c9.421-0.012,17.054-7.646,17.067-17.067V51.2c-0.012-9.421-7.646-17.054-17.067-17.067h-17.067
			c-9.421,0.012-17.054,7.646-17.067,17.067v17.067C298.679,77.687,306.313,85.321,315.733,85.333z M315.733,51.2H332.8
			l0.017,17.067h-17.084V51.2z"/>
		<path d="M332.8,128v17.067c0.012,9.421,7.646,17.054,17.067,17.067h17.067c9.421-0.012,17.054-7.646,17.067-17.067V128
			c-0.012-9.421-7.646-17.054-17.067-17.067h-17.067C340.446,110.946,332.812,118.579,332.8,128z M366.95,145.067h-17.084V128
			h17.067L366.95,145.067z"/>
		<path d="M366.933,204.8v17.067c0.012,9.421,7.646,17.054,17.067,17.067h17.067c9.421-0.012,17.054-7.646,17.067-17.067V204.8
			c-0.012-9.421-7.646-17.054-17.067-17.067H384C374.579,187.746,366.946,195.379,366.933,204.8z M401.084,221.867H384V204.8h17.067
			L401.084,221.867z"/>
		<path d="M409.6,281.6v17.067c0.012,9.421,7.646,17.054,17.067,17.067h17.067c9.421-0.012,17.054-7.646,17.067-17.067V281.6
			c-0.012-9.421-7.646-17.054-17.067-17.067h-17.067C417.246,264.546,409.612,272.179,409.6,281.6z M426.667,281.6h17.067
			l0.017,17.067h-17.084V281.6z"/>
		<path d="M68.267,315.733h17.067c9.421-0.012,17.054-7.646,17.067-17.067V281.6c-0.012-9.421-7.646-17.054-17.067-17.067H68.267
			c-9.421,0.012-17.054,7.646-17.067,17.067v17.067C51.212,308.087,58.846,315.721,68.267,315.733z M68.267,281.6h17.067
			l0.017,17.067H68.267V281.6z"/>
		<path d="M247.467,85.333h17.067c9.421-0.012,17.054-7.646,17.067-17.067V51.2c-0.012-9.421-7.646-17.054-17.067-17.067h-17.067
			c-9.421,0.012-17.054,7.646-17.067,17.067v17.067C230.412,77.687,238.046,85.321,247.467,85.333z M247.467,51.2h17.067
			l0.017,17.067h-17.084V51.2z"/>
		<path d="M213.333,162.133H230.4c9.421-0.012,17.054-7.646,17.067-17.067V128c-0.012-9.421-7.646-17.054-17.067-17.067h-17.067
			c-9.421,0.012-17.054,7.646-17.067,17.067v17.067C196.279,154.487,203.913,162.121,213.333,162.133z M213.333,128H230.4
			l0.017,17.067h-17.084V128z"/>
		<path d="M375.467,85.333c2.264,0.001,4.435-0.897,6.035-2.498c1.601-1.601,2.499-3.772,2.498-6.035V42.667
			c0-4.713-3.821-8.533-8.533-8.533c-4.713,0-8.533,3.821-8.533,8.533V76.8c-0.001,2.264,0.897,4.435,2.498,6.035
			C371.032,84.436,373.203,85.335,375.467,85.333z"/>
		<path d="M409.6,85.333c2.264,0.001,4.435-0.897,6.035-2.498c1.601-1.601,2.499-3.772,2.498-6.035V42.667
			c0-4.713-3.821-8.533-8.533-8.533c-4.713,0-8.533,3.821-8.533,8.533V76.8c-0.001,2.264,0.897,4.435,2.498,6.035
			C405.165,84.436,407.336,85.335,409.6,85.333z"/>
		<path d="M443.733,85.333c2.264,0.001,4.435-0.897,6.035-2.498c1.601-1.601,2.499-3.772,2.498-6.035V42.667
			c0-4.713-3.82-8.533-8.533-8.533s-8.533,3.821-8.533,8.533V76.8c-0.001,2.264,0.897,4.435,2.498,6.035
			C439.299,84.436,441.47,85.335,443.733,85.333z"/>
		<path d="M409.6,162.133c2.264,0.001,4.435-0.897,6.035-2.498c1.601-1.601,2.499-3.772,2.498-6.035v-34.133
			c0-4.713-3.821-8.533-8.533-8.533c-4.713,0-8.533,3.82-8.533,8.533V153.6c-0.001,2.264,0.897,4.435,2.498,6.035
			C405.165,161.236,407.336,162.135,409.6,162.133z"/>
		<path d="M341.333,187.733c-2.264-0.001-4.435,0.897-6.035,2.498c-1.601,1.601-2.499,3.772-2.498,6.035V230.4
			c0,4.713,3.82,8.533,8.533,8.533s8.533-3.821,8.533-8.533v-34.133c0.001-2.264-0.897-4.435-2.498-6.035
			C345.768,188.631,343.597,187.732,341.333,187.733z"/>
		<path d="M384,264.533c-2.264-0.001-4.435,0.897-6.035,2.498c-1.601,1.601-2.499,3.772-2.498,6.035V307.2
			c0,4.713,3.821,8.533,8.533,8.533s8.533-3.82,8.533-8.533v-34.133c0.001-2.264-0.897-4.435-2.498-6.035
			C388.435,265.431,386.264,264.532,384,264.533z"/>
		<path d="M443.733,162.133c2.264,0.001,4.435-0.897,6.035-2.498c1.601-1.601,2.499-3.772,2.498-6.035v-34.133
			c0-4.713-3.82-8.533-8.533-8.533s-8.533,3.82-8.533,8.533V153.6c-0.001,2.264,0.897,4.435,2.498,6.035
			C439.299,161.236,441.47,162.135,443.733,162.133z"/>
		<path d="M273.067,110.933c-2.264-0.001-4.435,0.897-6.035,2.498c-1.601,1.601-2.499,3.772-2.498,6.035V153.6
			c0,4.713,3.82,8.533,8.533,8.533s8.533-3.821,8.533-8.533v-34.133c0.001-2.264-0.897-4.435-2.498-6.035
			C277.501,111.831,275.33,110.932,273.067,110.933z"/>
		<path d="M307.2,162.133c2.264,0.001,4.435-0.897,6.035-2.498c1.601-1.601,2.499-3.772,2.498-6.035v-34.133
			c0-4.713-3.82-8.533-8.533-8.533s-8.533,3.82-8.533,8.533V153.6c-0.001,2.264,0.897,4.435,2.498,6.035
			C302.765,161.236,304.936,162.135,307.2,162.133z"/>
		<path d="M443.733,238.933c2.264,0.001,4.435-0.897,6.035-2.498c1.601-1.601,2.499-3.772,2.498-6.035v-34.133
			c0-4.713-3.82-8.533-8.533-8.533s-8.533,3.821-8.533,8.533V230.4c-0.001,2.264,0.897,4.435,2.498,6.035
			C439.299,238.036,441.47,238.935,443.733,238.933z"/>
		<path d="M477.867,0H34.133C15.29,0.019,0.019,15.29,0,34.133V409.6c0.046,18.079,14.202,32.976,32.256,33.944L5,470.8
			c-6.658,6.667-6.658,17.467,0,24.133L17.067,507c6.668,6.656,17.466,6.656,24.133,0l63.267-63.267H204.8V460.8h-8.533
			c-23.553,0.028-42.639,19.114-42.667,42.667c-0.001,2.264,0.897,4.435,2.498,6.035c1.601,1.601,3.772,2.499,6.035,2.498h187.733
			c2.264,0.001,4.435-0.897,6.035-2.498c1.601-1.601,2.499-3.772,2.498-6.035c-0.028-23.553-19.114-42.639-42.667-42.667H307.2
			v-17.067h170.667c18.844-0.019,34.115-15.29,34.133-34.133V34.133C511.981,15.29,496.71,0.019,477.867,0z M34.133,17.067h443.733
			c9.421,0.012,17.054,7.646,17.067,17.067v341.333h-322.2l53.997-53.997c5.858,1.58,12.114-0.078,16.42-4.353l20.591-20.583
			l59.192,59.192c3.574,3.612,8.436,5.656,13.517,5.683c4.57,0.036,8.965-1.755,12.208-4.975c5.209-5.4,6.491-13.478,3.209-20.225
			c-14.267-30.306-32.659-58.492-54.652-83.756l9.96-9.96c6.667-6.683,6.667-17.501,0-24.183l-13.483-13.483
			c-6.683-6.667-17.501-6.667-24.183,0l-9.96,9.96c-25.264-21.993-53.45-40.385-83.756-54.652
			c-6.745-3.291-14.829-2.009-20.225,3.209c-6.893,7.305-6.576,18.81,0.708,25.725l59.192,59.191l-20.583,20.592
			c-4.28,4.304-5.941,10.564-4.357,16.424l-90.193,90.193H17.067V34.133C17.079,24.713,24.713,17.079,34.133,17.067z
			 M233.567,242.225L168.342,177c-0.445-0.401-0.714-0.961-0.75-1.558c0.323-0.078,0.664-0.027,0.95,0.142
			c36.612,17.23,69.941,40.709,98.492,69.383c28.674,28.55,52.153,61.88,69.383,98.492c0.146,0.276,0.201,0.591,0.158,0.9
			c-0.604,0.019-1.184-0.238-1.575-0.7l-65.225-65.225c-1.6-1.601-3.77-2.5-6.033-2.5c-2.263,0-4.433,0.899-6.033,2.5
			l-26.625,26.617l-24.133-24.133l26.617-26.625c1.601-1.6,2.5-3.77,2.5-6.033C236.067,245.995,235.167,243.825,233.567,242.225z
			 M285.723,239.81c-2.197-2.311-4.361-4.647-6.623-6.91c-2.259-2.259-4.592-4.419-6.9-6.613l9.425-9.395l13.483,13.533
			L285.723,239.81z M34.133,426.667c-9.421-0.012-17.054-7.646-17.067-17.067v-17.067h66.2l-34.133,34.133H34.133z M29.141,494.942
			l-12.075-12.075l183.85-183.85l12.067,12.067L29.141,494.942z M339.875,494.933h-167.75c3.63-10.22,13.296-17.053,24.142-17.067
			h119.467C326.579,477.88,336.245,484.713,339.875,494.933z M290.133,460.8h-68.267v-17.067h68.267V460.8z M477.867,426.667
			H121.533l34.133-34.133h339.267V409.6C494.921,419.021,487.287,426.654,477.867,426.667z"/>
	</g>
</g>
<g>
</g>
<g>
</g>
<g>
</g>
<g>
</g>
<g>
</g>
<g>
</g>
<g>
</g>
<g>
</g>
<g>
</g>
<g>
</g>
<g>
</g>
<g>
</g>
<g>
</g>
<g>
</g>
<g>
</g>
</svg>
