<?xml version="1.0" encoding="iso-8859-1"?>
<!-- Generator: Adobe Illustrator 19.0.0, SVG Export Plug-In . SVG Version: 6.00 Build 0)  -->
<svg version="1.1" id="Capa_1" xmlns="http://www.w3.org/2000/svg" xmlns:xlink="http://www.w3.org/1999/xlink" x="0px" y="0px"
	 viewBox="0 0 504.443 504.443" style="enable-background:new 0 0 504.443 504.443;" xml:space="preserve">
<g>
	<g transform="translate(1)">
		<g>
			<path style="fill:#2296F3;" d="M326.344,352.943h8.393c13.907,0,25.18,11.274,25.18,25.18v109.115
				c0,4.636-3.758,8.393-8.393,8.393H150.082c-4.63-0.014-8.38-3.763-8.393-8.393V378.124c-0.009-6.681,2.641-13.091,7.365-17.815
				c4.724-4.724,11.134-7.374,17.815-7.365H326.344z"/>
			<rect x="225.623" y="302.583" style="fill:#2296F3;" width="50.361" height="67.148"/>
		</g>
		<path style="fill:#FFEB3A;" d="M326.344,227.042c18.542,0,33.574,15.031,33.574,33.574s-15.031,33.574-33.574,33.574H175.262
			c-18.542,0-33.574-15.031-33.574-33.574s15.031-33.574,33.574-33.574H326.344z"/>
		<path style="fill:#0377BC;" d="M192.049,201.861h117.508c9.271,0,16.787,7.516,16.787,16.787v83.934
			c0,9.271-7.516,16.787-16.787,16.787H192.049c-9.271,0-16.787-7.516-16.787-16.787v-83.934
			C175.262,209.377,182.778,201.861,192.049,201.861z"/>
		<path style="fill:#02A9F4;" d="M192.049,201.861h92.328c9.271,0,16.787,7.516,16.787,16.787v83.934
			c0,9.271-7.516,16.787-16.787,16.787h-92.328c-9.271,0-16.787-7.516-16.787-16.787v-83.934
			C175.262,209.377,182.778,201.861,192.049,201.861z"/>
		<circle style="fill:#FFEB3A;" cx="234.016" cy="151.501" r="16.787"/>
		<path style="fill:#4CAF50;" d="M174.423,135.193c0.577,1.781,0.86,3.644,0.839,5.516c-0.384,7.318-4.539,13.912-10.975,17.416
			c-6.435,3.505-14.229,3.418-20.584-0.23c-8.168,11.964-21.804,19.021-36.289,18.78c-14.485-0.241-27.878-7.748-35.643-19.978
			c-4.211,2.608-9.064,3.992-14.017,3.997c-6.521,0.164-12.839-2.272-17.562-6.77c-4.723-4.498-7.464-10.69-7.618-17.211
			c-0.021-1.977,0.262-3.945,0.839-5.836c-15.831-7.99-25.872-24.155-26.02-41.887C7.71,76.016,13.167,63.7,22.564,54.75
			s21.965-13.8,34.938-13.483c2.929-0.023,5.853,0.244,8.729,0.799C68.235,22.868,84.62,8.411,103.918,8.812
			c13.324-0.132,25.744,6.722,32.734,18.066c2.88-1.385,6.037-2.096,9.233-2.078c11.309-0.265,20.697,8.676,20.984,19.985
			c0.003,1.401-0.166,2.797-0.504,4.156c23.449,1.216,41.981,20.33,42.471,43.806C208.527,113.139,194.31,130.674,174.423,135.193z"
			/>
		<path style="fill:#E91E63;" d="M328.023,135.193c-0.577,1.781-0.86,3.644-0.839,5.516c0.384,7.318,4.539,13.912,10.975,17.416
			s14.229,3.418,20.584-0.23c8.168,11.964,21.804,19.021,36.289,18.78c14.485-0.241,27.878-7.748,35.643-19.978
			c4.211,2.608,9.064,3.992,14.017,3.997c6.521,0.164,12.839-2.272,17.562-6.77c4.723-4.498,7.464-10.69,7.618-17.211
			c0.021-1.977-0.262-3.945-0.839-5.836c15.831-7.99,25.872-24.155,26.02-41.887c-0.316-12.973-5.773-25.29-15.17-34.239
			s-21.965-13.8-34.938-13.483c-2.929-0.023-5.853,0.244-8.729,0.799c-2.004-19.198-18.388-33.655-37.687-33.254
			c-13.324-0.132-25.744,6.722-32.734,18.066c-2.88-1.385-6.037-2.096-9.233-2.078c-11.309-0.265-20.697,8.676-20.984,19.985
			c-0.003,1.401,0.166,2.797,0.504,4.156c-23.449,1.216-41.981,20.33-42.471,43.806
			C293.919,113.139,308.136,130.674,328.023,135.193z"/>
		<g>
			<circle style="fill:#4CAF50;" cx="57.754" cy="227.042" r="25.18"/>
			<circle style="fill:#4CAF50;" cx="99.721" cy="285.796" r="16.787"/>
		</g>
		<g>
			<circle style="fill:#E91E63;" cx="443.852" cy="227.042" r="25.18"/>
			<circle style="fill:#E91E63;" cx="401.885" cy="285.796" r="16.787"/>
		</g>
		<rect x="175.262" y="352.943" style="fill:#0377BC;" width="151.082" height="142.689"/>
		<rect x="175.262" y="352.943" style="fill:#02A9F4;" width="125.902" height="142.689"/>
		<path style="fill:#FFFFFF;" d="M217.229,386.517h16.787c4.636,0,8.393,3.758,8.393,8.393v58.754c0,4.636-3.758,8.393-8.393,8.393
			h-16.787c-4.636,0-8.393-3.758-8.393-8.393V394.91C208.836,390.275,212.594,386.517,217.229,386.517z"/>
		<path style="fill:#AD1457;" d="M469.033,130.853c0.578,1.904,0.861,3.886,0.839,5.875c-0.154,6.523-2.894,12.717-7.617,17.219
			s-11.041,6.943-17.563,6.786c-4.571-0.01-9.059-1.226-13.01-3.525c7.469-4.116,12.126-11.952,12.171-20.48
			c0.021-1.99-0.262-3.971-0.839-5.875c15.83-7.989,25.871-24.152,26.02-41.883c-0.731-14.374-7.594-27.744-18.847-36.717
			c-11.253-8.973-25.815-12.688-39.991-10.202c-1.323-14.344-11.06-26.523-24.761-30.972c10.875-3.926,22.944-2.707,32.814,3.313
			c9.871,6.02,16.478,16.193,17.966,27.658c14.176-2.486,28.738,1.228,39.991,10.202s18.116,22.343,18.847,36.717
			C494.904,106.701,484.863,122.863,469.033,130.853z"/>
		<path style="fill:#2E7D32;" d="M136.652,26.858c2.881-1.384,6.037-2.101,9.233-2.098c11.331-0.247,20.721,8.73,20.984,20.06
			c0.003,1.386-0.166,2.768-0.504,4.113c23.447,1.228,41.973,20.34,42.471,43.814c-0.3,20.4-14.518,37.947-34.413,42.471
			c0.571,1.762,0.855,3.604,0.839,5.456c-0.332,7.343-4.477,13.978-10.931,17.497c-6.453,3.519-14.276,3.409-20.628-0.29
			l-2.014-1.159c5.229-3.676,8.356-9.655,8.393-16.047c0.015-1.852-0.268-3.694-0.839-5.456
			c19.895-4.523,34.113-22.07,34.413-42.471c-0.498-23.474-19.024-42.586-42.471-43.814c0.338-1.345,0.507-2.726,0.504-4.113
			c-0.036-6.392-3.163-12.371-8.393-16.048L136.652,26.858z"/>
	</g>
	<g>
		<path d="M425.606,61.632c-1.574-1.574-3.708-2.459-5.934-2.459s-4.361,0.885-5.934,2.459l-19.246,19.246l-19.246-19.246
			c-3.286-3.227-8.558-3.203-11.815,0.054c-3.257,3.257-3.28,8.529-0.053,11.815l19.246,19.246l-19.246,19.246
			c-2.142,2.116-2.987,5.217-2.214,8.127c0.773,2.91,3.046,5.183,5.956,5.956s6.011-0.072,8.127-2.214l19.246-19.246l19.246,19.246
			c2.116,2.142,5.217,2.987,8.127,2.214c2.91-0.773,5.183-3.046,5.956-5.956s-0.072-6.011-2.214-8.127l-19.246-19.246L425.607,73.5
			c1.574-1.574,2.459-3.708,2.459-5.934C428.065,65.34,427.181,63.206,425.606,61.632z"/>
		<path d="M94.787,123.861c1.574,1.574,3.708,2.459,5.934,2.459c0.271,0,0.549-0.017,0.828-0.041
			c2.502-0.248,4.761-1.605,6.156-3.697l33.574-50.361c1.694-2.495,1.919-5.707,0.59-8.413c-1.329-2.707-4.008-4.493-7.017-4.678
			c-3.01-0.186-5.888,1.257-7.539,3.78l-27.893,41.844l-9.55-9.549c-3.286-3.227-8.558-3.203-11.815,0.054s-3.28,8.529-0.054,11.815
			L94.787,123.861z"/>
		<path d="M25.213,135.197c-0.024,0.5-0.033,1.008-0.033,1.516c0.356,18.201,15.372,32.682,33.574,32.377
			c3.841-0.001,7.655-0.638,11.287-1.885c9.795,11.37,24.066,17.897,39.074,17.869c14.637,0.108,28.613-6.089,38.361-17.008
			c2.544,0.685,5.168,1.03,7.803,1.025c15.81,0.245,28.891-12.244,29.377-28.049c20.052-7.669,33.37-26.827,33.574-48.295
			c-0.459-24.73-17.93-45.868-42.131-50.975c-1.878-14.65-14.444-25.563-29.213-25.369c-2.009,0.001-4.014,0.201-5.984,0.598
			c-8.963-10.562-22.131-16.63-35.984-16.582C84.556,0.272,66.493,13.462,60.434,32.902c-0.639-0.025-1.287-0.033-1.934-0.033
			C26.868,32.265,0.708,57.363,0,88.992C0.094,107.655,9.569,125.019,25.213,135.197z M58.5,49.656
			c2.373-0.021,4.743,0.193,7.074,0.639c2.35,0.457,4.784-0.097,6.705-1.525c1.917-1.441,3.125-3.634,3.32-6.024
			c1.713-14.807,14.418-25.874,29.32-25.541c10.371-0.116,20.051,5.184,25.541,13.983c2.239,3.745,6.977,5.147,10.893,3.221
			c1.729-0.819,3.62-1.236,5.533-1.221c6.672-0.254,12.297,4.928,12.59,11.598c0.003,0.721-0.082,1.439-0.254,2.139
			c-0.594,2.401-0.099,4.941,1.353,6.943c1.452,2.002,3.713,3.261,6.18,3.442c19.021,0.988,34.106,16.397,34.689,35.434
			c-0.319,16.527-11.894,30.694-28.025,34.303c-2.271,0.561-4.206,2.044-5.337,4.091c-1.131,2.048-1.357,4.475-0.622,6.696
			c0.291,0.928,0.43,1.897,0.41,2.869c-0.375,4.302-2.91,8.12-6.73,10.133c-3.82,2.014-8.402,1.948-12.163-0.174
			c-3.861-2.278-8.831-1.12-11.287,2.631c-6.591,9.556-17.525,15.181-29.132,14.987c-11.607-0.194-22.347-6.183-28.614-15.954
			c-1.162-1.906-3.035-3.271-5.205-3.792c-2.17-0.521-4.459-0.157-6.36,1.014c-2.891,1.79-6.222,2.743-9.623,2.754
			c-8.932,0.308-16.434-6.66-16.787-15.59c-0.016-1.117,0.133-2.23,0.443-3.303c1.236-3.887-0.508-8.1-4.131-9.975
			c-13.042-6.557-21.334-19.846-21.492-34.443C17.488,66.631,36.136,49.046,58.5,49.656z"/>
		<path d="M445.943,32.869c-0.648,0-1.295,0.008-1.934,0.033c-6.055-19.444-24.12-32.636-44.484-32.484
			c-13.851-0.051-27.017,6.018-35.975,16.582c-1.973-0.397-3.98-0.598-5.992-0.598c-14.769-0.194-27.335,10.718-29.213,25.369
			c-24.201,5.106-41.673,26.245-42.131,50.975c0.206,21.467,13.523,40.624,33.574,48.295c0.486,15.805,13.567,28.294,29.377,28.049
			c2.638,0.005,5.264-0.34,7.811-1.025c9.745,10.919,23.718,17.116,38.352,17.008c15.008,0.03,29.28-6.497,39.074-17.869
			c3.632,1.247,7.446,1.885,11.287,1.885c18.202,0.305,33.218-14.176,33.574-32.377c0-0.516-0.008-1.016-0.033-1.516
			c15.644-10.178,25.119-27.542,25.213-46.205C503.735,57.363,477.574,32.265,445.943,32.869z M466.164,123.435
			c-3.632,1.883-5.374,6.113-4.123,10.008c0.31,1.062,0.456,2.165,0.434,3.271c-0.352,8.931-7.855,15.898-16.787,15.59
			c-3.402-0.012-6.733-0.968-9.623-2.762c-3.964-2.422-9.14-1.175-11.566,2.787c-6.265,9.771-17.004,15.76-28.61,15.954
			c-11.606,0.194-22.539-5.431-29.128-14.987c-2.456-3.75-7.426-4.909-11.287-2.631c-3.762,2.122-8.345,2.188-12.167,0.175
			c-3.822-2.014-6.359-5.831-6.735-10.134c-0.021-0.959,0.117-1.915,0.41-2.828c0.745-2.225,0.526-4.66-0.604-6.717
			c-1.13-2.056-3.069-3.547-5.346-4.111c-16.134-3.605-27.713-17.774-28.032-34.303c0.584-19.04,15.673-34.45,34.697-35.434
			c2.467-0.181,4.728-1.44,6.18-3.442c1.452-2.002,1.947-4.543,1.353-6.943c-0.177-0.699-0.265-1.418-0.262-2.139
			c0.293-6.671,5.918-11.853,12.59-11.598c1.915-0.015,3.81,0.402,5.541,1.221c3.919,1.919,8.655,0.519,10.902-3.221
			c5.48-8.801,15.157-14.103,25.525-13.983c14.903-0.336,27.609,10.733,29.32,25.541c0.196,2.39,1.403,4.581,3.319,6.024
			c1.915,1.442,4.355,1.997,6.706,1.525c2.331-0.446,4.701-0.66,7.074-0.639c22.364-0.611,41.012,16.975,41.713,39.336
			C487.498,103.59,479.206,116.878,466.164,123.435L466.164,123.435z"/>
		<path d="M58.754,193.468c-18.542,0-33.574,15.031-33.574,33.574s15.031,33.574,33.574,33.574s33.574-15.031,33.574-33.574
			C92.309,208.507,77.289,193.486,58.754,193.468z M58.754,243.829c-9.271,0-16.787-7.516-16.787-16.787s7.516-16.787,16.787-16.787
			s16.787,7.516,16.787,16.787C75.529,236.308,68.02,243.816,58.754,243.829z"/>
		<path d="M100.721,310.976c13.907,0,25.18-11.274,25.18-25.18s-11.274-25.18-25.18-25.18s-25.18,11.274-25.18,25.18
			C75.556,299.696,86.821,310.961,100.721,310.976z M100.721,277.402c4.636,0,8.393,3.758,8.393,8.393s-3.758,8.393-8.393,8.393
			s-8.393-3.758-8.393-8.393C92.331,281.161,96.087,277.405,100.721,277.402z"/>
		<path d="M444.852,260.615c18.542,0,33.574-15.031,33.574-33.574s-15.031-33.574-33.574-33.574
			c-18.542,0-33.574,15.031-33.574,33.574C411.297,245.576,426.318,260.597,444.852,260.615z M444.852,210.255
			c9.271,0,16.787,7.516,16.787,16.787s-7.516,16.787-16.787,16.787c-9.271,0-16.787-7.516-16.787-16.787
			C428.078,217.775,435.586,210.267,444.852,210.255z"/>
		<path d="M377.705,285.796c0,13.907,11.274,25.18,25.18,25.18s25.18-11.274,25.18-25.18s-11.274-25.18-25.18-25.18
			C388.985,260.631,377.72,271.895,377.705,285.796z M411.279,285.796c0,4.636-3.758,8.393-8.393,8.393s-8.393-3.758-8.393-8.393
			s3.758-8.393,8.393-8.393C407.52,277.405,411.276,281.161,411.279,285.796z"/>
		<path d="M293.008,277.402h-82.41c-4.636,0-8.393,3.758-8.393,8.393s3.758,8.393,8.393,8.393h82.41
			c4.636,0,8.393-3.758,8.393-8.393S297.644,277.402,293.008,277.402z"/>
		<path d="M285.311,175.649c-0.313-2.567-1.796-4.846-4.016-6.172l-21.608-12.936c2.131-10.433-2.531-21.078-11.642-26.587
			c-9.112-5.509-20.704-4.692-28.953,2.042c-8.248,6.734-11.369,17.928-7.795,27.958c3.574,10.03,13.071,16.728,23.719,16.728
			c5.818-0.025,11.444-2.084,15.904-5.82l12.523,7.492l-15.115,15.115h-55.279c-13.9,0.015-25.165,11.28-25.18,25.18v0.848
			c-19.54,3.988-33.574,21.176-33.574,41.119c0,19.942,14.034,37.131,33.574,41.119v0.848c0.015,13.9,11.28,25.165,25.18,25.18
			h25.18v16.787h-50.361c-18.535,0.019-33.555,15.039-33.574,33.574v109.115c0.012,9.266,7.521,16.775,16.787,16.787h201.443
			c9.266-0.012,16.775-7.521,16.787-16.787V378.124c-0.019-18.535-15.039-33.555-33.574-33.574h-50.361v-16.787h25.18
			c13.9-0.015,25.165-11.28,25.18-25.18v-0.848c19.54-3.988,33.574-21.176,33.574-41.119c0-19.942-14.034-37.131-33.574-41.119
			v-0.848c-0.015-13.9-11.28-25.165-25.18-25.18h-38.492l10.853-10.853C284.748,180.787,285.631,178.216,285.311,175.649z
			 M235.016,159.894c-4.636,0-8.393-3.758-8.393-8.393s3.758-8.393,8.393-8.393c4.636,0,8.393,3.758,8.393,8.393
			C243.407,156.135,239.651,159.891,235.016,159.894z M151.082,260.615c0.013-10.668,6.734-20.175,16.787-23.746v47.492
			C157.816,280.791,151.095,271.284,151.082,260.615z M151.082,378.124c0.012-9.266,7.521-16.775,16.787-16.787v125.902h-16.787
			V378.124z M352.525,378.124v109.115h-16.787V361.337C345.004,361.349,352.513,368.857,352.525,378.124z M318.951,487.238H184.656
			V361.337h134.295V487.238z M268.59,344.55h-33.574v-16.787h33.574V344.55z M352.525,260.615
			c-0.013,10.668-6.734,20.175-16.787,23.746V236.87C345.79,240.44,352.511,249.947,352.525,260.615z M318.951,218.648v83.934
			c-0.003,4.634-3.759,8.39-8.393,8.393H193.049c-4.634-0.003-8.39-3.759-8.393-8.393v-83.934c0.003-4.634,3.759-8.39,8.393-8.393
			h117.508C315.192,210.258,318.948,214.014,318.951,218.648z"/>
		<path d="M209.836,260.615c2.226,0.001,4.362-0.883,5.936-2.457c1.574-1.574,2.458-3.71,2.457-5.936v-16.787
			c0-4.636-3.758-8.393-8.393-8.393c-4.636,0-8.393,3.758-8.393,8.393v16.787c-0.001,2.226,0.883,4.362,2.457,5.936
			C205.474,259.733,207.61,260.617,209.836,260.615z"/>
		<path d="M293.77,260.615c2.226,0.001,4.362-0.883,5.936-2.457c1.574-1.574,2.458-3.71,2.457-5.936v-16.787
			c0-4.636-3.758-8.393-8.393-8.393s-8.393,3.758-8.393,8.393v16.787c-0.001,2.226,0.883,4.362,2.457,5.936
			C289.408,259.733,291.544,260.617,293.77,260.615z"/>
		<path d="M235.016,378.124h-16.787c-9.266,0.012-16.775,7.521-16.787,16.787v58.754c0.012,9.266,7.521,16.775,16.787,16.787h16.787
			c9.266-0.012,16.775-7.521,16.787-16.787V394.91C251.791,385.644,244.283,378.136,235.016,378.124z M218.229,453.665V394.91
			h16.787l0.017,58.754H218.229z"/>
		<path d="M268.59,378.124c-2.226-0.001-4.362,0.883-5.936,2.457c-1.574,1.574-2.458,3.71-2.457,5.936v8.393
			c0,4.636,3.758,8.393,8.393,8.393s8.393-3.758,8.393-8.393v-8.393c0.001-2.226-0.883-4.362-2.457-5.936
			C272.952,379.006,270.817,378.122,268.59,378.124z"/>
		<path d="M293.77,403.304c2.226,0.001,4.362-0.883,5.936-2.457s2.458-3.71,2.457-5.936v-8.393c0-4.636-3.758-8.393-8.393-8.393
			s-8.393,3.758-8.393,8.393v8.393c-0.001,2.226,0.883,4.362,2.457,5.936S291.544,403.305,293.77,403.304z"/>
		<path d="M268.59,411.697c-2.226-0.001-4.362,0.883-5.936,2.457s-2.458,3.71-2.457,5.936v41.967c0,4.636,3.758,8.393,8.393,8.393
			s8.393-3.758,8.393-8.393v-41.967c0.001-2.226-0.883-4.362-2.457-5.936S270.817,411.696,268.59,411.697z"/>
		<path d="M293.77,470.451c2.226,0.001,4.362-0.883,5.936-2.457c1.574-1.574,2.458-3.71,2.457-5.936v-41.967
			c0-4.636-3.758-8.393-8.393-8.393s-8.393,3.758-8.393,8.393v41.967c-0.001,2.226,0.883,4.362,2.457,5.936
			C289.408,469.569,291.544,470.453,293.77,470.451z"/>
	</g>
</g>
<g>
</g>
<g>
</g>
<g>
</g>
<g>
</g>
<g>
</g>
<g>
</g>
<g>
</g>
<g>
</g>
<g>
</g>
<g>
</g>
<g>
</g>
<g>
</g>
<g>
</g>
<g>
</g>
<g>
</g>
</svg>
