<?xml version="1.0" encoding="iso-8859-1"?>
<!-- Generator: Adobe Illustrator 19.0.0, SVG Export Plug-In . SVG Version: 6.00 Build 0)  -->
<svg version="1.1" id="Capa_1" xmlns="http://www.w3.org/2000/svg" xmlns:xlink="http://www.w3.org/1999/xlink" x="0px" y="0px"
	 viewBox="0 0 512.002 512.002" style="enable-background:new 0 0 512.002 512.002;" xml:space="preserve">
<g>
	<g transform="translate(1 1)">
		<path style="fill:#607D8B;" d="M459.8,178.194v273.067c-0.014,4.707-3.826,8.519-8.533,8.533H152.6v-281.6l148.651-86.016
			l13.483-7.851L459.8,178.194z"/>
		<path style="fill:#CFD8DC;" d="M434.2,178.194v273.067c-0.014,4.707-3.826,8.519-8.533,8.533H152.6v-281.6l148.651-86.016
			L434.2,178.194z"/>
		<path style="fill:#F44335;" d="M374.125,272.226c2.708,3.487,4.174,7.779,4.167,12.194c-0.007,9.85-7.173,18.234-16.902,19.774
			c-0.093,0.5-0.211,0.995-0.353,1.483c-0.056,0.288-0.135,0.572-0.235,0.848c-0.165,0.601-0.369,1.191-0.612,1.766
			c-0.167,0.46-0.363,0.908-0.589,1.342c-0.09,0.244-0.201,0.48-0.33,0.706c-0.157,0.349-0.338,0.688-0.541,1.012
			c-0.094,0.188-0.212,0.377-0.33,0.565c-0.391,0.649-0.815,1.278-1.271,1.883c-0.282,0.377-0.565,0.73-0.847,1.083
			c-1.163,1.379-2.483,2.62-3.931,3.696c-0.306,0.235-0.612,0.447-0.918,0.659c-0.945,0.638-1.937,1.204-2.966,1.695
			c-0.66,0.324-1.336,0.615-2.025,0.871c-0.447,0.165-0.894,0.306-1.342,0.447c-0.306,0.094-0.636,0.188-0.942,0.259
			c-0.759,0.204-1.529,0.361-2.307,0.471c-0.283,0.047-0.589,0.094-0.895,0.118c-0.89,0.115-1.786,0.17-2.683,0.165
			c-12.999-0.005-23.535-10.541-23.54-23.54c-0.005,12.999-10.541,23.535-23.54,23.54c-0.897,0.005-1.794-0.05-2.684-0.165
			c-0.306-0.024-0.612-0.071-0.895-0.118c-0.778-0.109-1.548-0.267-2.307-0.471c-0.306-0.071-0.636-0.165-0.942-0.259
			c-0.447-0.141-0.895-0.282-1.342-0.447c-0.689-0.256-1.365-0.547-2.025-0.871c-1.029-0.491-2.021-1.057-2.966-1.695
			c-0.306-0.212-0.612-0.424-0.918-0.659c-1.449-1.076-2.768-2.316-3.931-3.696c-0.282-0.353-0.565-0.706-0.847-1.083
			c-0.456-0.605-0.88-1.234-1.271-1.883c-0.118-0.188-0.235-0.377-0.33-0.565c-0.203-0.325-0.384-0.663-0.541-1.012
			c-0.129-0.226-0.239-0.462-0.33-0.706c-0.226-0.434-0.422-0.882-0.589-1.342c-0.243-0.574-0.447-1.164-0.612-1.766
			c-0.1-0.276-0.179-0.559-0.235-0.848c-0.143-0.488-0.26-0.983-0.353-1.483c-9.729-1.54-16.895-9.924-16.902-19.774
			c-0.008-4.415,1.459-8.707,4.167-12.194c-6.068-4.332-9.412-11.536-8.804-18.968c0.608-7.431,5.078-13.996,11.77-17.284
			c-1.599-2.812-2.435-5.993-2.425-9.228c-0.001-4.995,1.982-9.786,5.514-13.318c3.532-3.532,8.323-5.516,13.318-5.514h0.024
			c-0.024-0.4-0.024-0.777-0.024-1.177c0-11.051,8.958-20.009,20.009-20.009c11.051,0,20.009,8.958,20.009,20.009
			c0-11.051,8.958-20.009,20.009-20.009s20.009,8.958,20.009,20.009c0,0.4,0,0.777-0.024,1.177h0.024
			c4.995-0.001,9.786,1.982,13.318,5.514c3.532,3.532,5.516,8.323,5.514,13.318c0.011,3.235-0.825,6.416-2.425,9.228
			c6.692,3.288,11.163,9.853,11.771,17.284C383.538,260.689,380.194,267.893,374.125,272.226z"/>
		<path style="fill:#FF5722;" d="M497.759,184.044l-20.069,29.669c-1.277,1.888-3.257,3.187-5.498,3.607
			c-2.241,0.42-4.556-0.075-6.43-1.373l-5.963-4.131L314.733,111.549L169.667,212.328v-55.381c0.018-2.915-0.503-5.808-1.536-8.533
			l133.973-93.781c1.812-1.404,3.826-2.526,5.973-3.328c0.497-0.192,1.011-0.335,1.536-0.427c1.661-0.489,3.388-0.719,5.12-0.683
			c0.853,0,1.877,0.085,2.731,0.171c0.203-0.014,0.406,0.015,0.597,0.085c0.692,0.131,1.376,0.302,2.048,0.512
			c2.159,0.603,4.206,1.554,6.059,2.816l1.194,0.853L495.582,172.27C499.401,174.941,500.371,180.183,497.759,184.044z"/>
		<path style="fill:#795548;" d="M280.6,357.394h68.267c4.713,0,8.533,3.82,8.533,8.533v93.867h-85.333v-93.867
			C272.067,361.215,275.887,357.394,280.6,357.394z"/>
		<path style="fill:#607D8B;" d="M212.333,126.994v307.2c0.009,6.792-2.685,13.309-7.488,18.112
			c-4.803,4.803-11.32,7.497-18.112,7.488h-153.6c-6.792,0.009-13.309-2.685-18.112-7.488c-4.803-4.803-7.497-11.32-7.488-18.112
			v-307.2c-0.009-6.792,2.685-13.309,7.488-18.112c4.803-4.803,11.32-7.497,18.112-7.488h153.6
			c10.849-0.053,20.526,6.811,24.064,17.067C211.831,121.186,212.351,124.079,212.333,126.994z"/>
		<path style="fill:#CFD8DC;" d="M186.733,126.994v307.2c0.009,6.792-2.685,13.309-7.488,18.112
			c-4.803,4.803-11.32,7.497-18.112,7.488h-128c-6.792,0.009-13.309-2.685-18.112-7.488c-4.803-4.803-7.497-11.32-7.488-18.112
			v-307.2c-0.009-6.792,2.685-13.309,7.488-18.112c4.803-4.803,11.32-7.497,18.112-7.488h128
			c10.849-0.053,20.526,6.811,24.064,17.067C186.231,121.186,186.751,124.079,186.733,126.994z"/>
		<path style="fill:#3F51B5;" d="M145.504,135.528H74.363c-5.937-0.194-11.189-3.903-13.357-9.434L50.2,101.394h119.467
			l-10.806,24.699C156.693,131.624,151.441,135.334,145.504,135.528z"/>
		<path style="fill:#D84315;" d="M497.773,184.082l-20.053,29.611c-1.282,1.889-3.266,3.186-5.51,3.603
			c-2.244,0.417-4.562-0.082-6.436-1.384l-5.973-4.096l-14.507-10.069l0.085-0.085c1.873,1.306,4.192,1.807,6.437,1.39
			s4.23-1.717,5.509-3.608l20.053-29.611c2.516-3.67,1.771-8.659-1.707-11.435l19.883,13.909
			C499.378,174.972,500.364,180.208,497.773,184.082z"/>
	</g>
	<g>
		<path d="M382.467,233.678c0.434-1.948,0.652-3.938,0.65-5.933c-0.017-12.085-7.944-22.734-19.517-26.217
			c-2.251-10.126-9.822-18.231-19.771-21.167c-9.949-2.936-20.707-0.239-28.095,7.042c-7.388-7.281-18.147-9.978-28.095-7.042
			c-9.949,2.936-17.52,11.041-19.771,21.167c-11.572,3.483-19.499,14.132-19.517,26.217c-0.002,1.996,0.216,3.986,0.65,5.933
			c-12.005,10.582-13.475,28.769-3.325,41.142c-2.85,7.149-2.699,15.144,0.421,22.18c3.119,7.035,8.943,12.516,16.154,15.204
			l0.025,0.05c0.265,0.722,0.571,1.429,0.917,2.116c0.083,0.183,0.175,0.375,0.267,0.567c0.229,0.516,0.49,1.017,0.783,1.5
			c0.058,0.108,0.45,0.767,0.508,0.867c0.527,0.887,1.103,1.744,1.725,2.567l1.192,1.517c1.57,1.864,3.348,3.541,5.3,5l1.308,0.933
			c2.12,1.417,4.396,2.586,6.783,3.483c0.592,0.217,1.158,0.408,1.875,0.633l1.092,0.3c1.022,0.276,2.06,0.49,3.108,0.642
			c0.413,0.082,0.83,0.141,1.25,0.175c1.263,0.165,2.535,0.246,3.809,0.242c8.942,0.002,17.478-3.736,23.542-10.308
			c6.063,6.573,14.599,10.31,23.542,10.308c1.128,0.009,2.255-0.055,3.375-0.192c0.583-0.05,1.15-0.125,1.467-0.183
			c1.03-0.148,2.051-0.354,3.058-0.617l1.483-0.408c0.592-0.183,1.158-0.375,1.8-0.608c0.967-0.367,1.933-0.775,2.675-1.15
			c1.416-0.673,2.778-1.453,4.075-2.333l1.233-0.875c2.021-1.508,3.859-3.248,5.475-5.183l1.017-1.3
			c0.739-0.98,1.418-2.004,2.033-3.067c0.388-0.625,0.736-1.273,1.042-1.942c0.092-0.192,0.183-0.383,0.267-0.567
			c0.296-0.583,0.56-1.181,0.792-1.792l0.15-0.383c7.211-2.685,13.035-8.165,16.154-15.199c3.12-7.034,3.271-15.029,0.421-22.176
			C395.941,262.447,394.471,244.26,382.467,233.678L382.467,233.678z M370.158,266.286c-1.885,1.353-3.139,3.414-3.474,5.71
			c-0.335,2.296,0.279,4.63,1.699,6.465c1.552,1.986,2.389,4.438,2.375,6.958c0.026,5.66-4.097,10.485-9.692,11.342
			c-3.823,1.067-6.694,4.233-7.383,8.142c-0.042,0.125-0.333,0.967-0.367,1.092c-0.042,0.108-0.292,0.8-0.333,0.917
			c-0.167,0.264-0.314,0.54-0.442,0.825l7.442,4.175l-7.9-3.392c-0.249,0.413-0.519,0.814-0.808,1.2l-0.508,0.65
			c-0.909,1.055-1.947,1.99-3.092,2.783c-0.659,0.437-1.35,0.825-2.067,1.158c-0.368,0.186-0.746,0.35-1.133,0.492l-1.6,0.483
			c-0.672,0.164-1.354,0.281-2.042,0.35c-0.517,0.064-1.037,0.095-1.558,0.092c-8.285-0.01-14.999-6.724-15.008-15.008
			c0-4.713-3.821-8.533-8.533-8.533c-4.713,0-8.533,3.82-8.533,8.533c-0.01,8.285-6.724,14.999-15.008,15.008
			c-0.773-0.008-1.545-0.072-2.308-0.192c-0.662-0.094-1.317-0.236-1.958-0.425l-0.883-0.292c-0.47-0.172-0.929-0.372-1.375-0.6
			c-0.862-0.423-1.685-0.922-2.458-1.492c-0.879-0.646-1.681-1.389-2.392-2.217l-0.683-0.867c-0.258-0.35-0.508-0.725-0.75-1.125
			c-0.042-0.067-0.5-0.858-0.542-0.917c-0.125-0.333-0.4-0.967-0.567-1.283c-0.042-0.108-0.35-0.775-0.4-0.883
			c-0.058-0.375-0.292-1.367-0.4-1.733c-0.635-3.587-3.477-6.375-7.075-6.942c-5.595-0.857-9.718-5.682-9.691-11.342
			c-0.014-2.521,0.823-4.972,2.375-6.958c1.421-1.835,2.034-4.168,1.699-6.465c-0.335-2.296-1.589-4.358-3.474-5.71
			c-3.63-2.586-5.63-6.892-5.266-11.333c0.364-4.442,3.039-8.364,7.041-10.325c2.108-1.04,3.694-2.904,4.384-5.152
			c0.689-2.248,0.421-4.68-0.742-6.723c-0.869-1.525-1.32-3.253-1.308-5.008c0.003-2.735,1.093-5.357,3.029-7.288
			c1.936-1.932,4.561-3.015,7.296-3.011c2.394-0.121,4.637-1.206,6.217-3.008c1.618-1.843,2.442-4.252,2.292-6.7
			c-0.011-4.107,2.173-7.907,5.728-9.964s7.938-2.057,11.493,0s5.74,5.857,5.728,9.964c0,4.713,3.82,8.533,8.533,8.533
			c4.713,0,8.533-3.821,8.533-8.533c0.009-6.334,5.141-11.466,11.475-11.475c3.142,0.043,6.133,1.354,8.293,3.636
			c2.16,2.282,3.305,5.341,3.174,8.48c-0.142,2.354,0.695,4.662,2.312,6.379c1.617,1.717,3.872,2.689,6.23,2.688
			c5.687,0.004,10.296,4.613,10.3,10.3c0.012,1.755-0.439,3.483-1.308,5.008c-1.163,2.043-1.431,4.476-0.742,6.723
			c0.689,2.248,2.275,4.111,4.384,5.152c4.002,1.961,6.677,5.883,7.041,10.325C375.788,259.394,373.788,263.699,370.158,266.286
			L370.158,266.286z"/>
		<path d="M34.133,469.328H460.8c2.264,0.001,4.435-0.897,6.035-2.498c1.601-1.601,2.499-3.772,2.498-6.035V229.04
			c1.351,0.868,2.919,1.337,4.525,1.355c0.529,0,1.056-0.051,1.575-0.15c2.238-0.419,4.215-1.715,5.492-3.6l29.608-43.775
			c2.615-3.86,1.646-9.104-2.175-11.775L333.3,48.661l-1.317-0.925c-2.81-1.898-5.92-3.307-9.2-4.167
			c-0.877-0.266-1.775-0.461-2.683-0.583c-0.267-0.053-0.537-0.092-0.808-0.117c-3.572-0.41-7.188-0.172-10.675,0.7
			c-0.822,0.181-1.632,0.415-2.425,0.7c-2.864,1.049-5.555,2.521-7.983,4.367l-83.659,58.491
			c-6.404-8.333-16.306-13.232-26.815-13.266h-153.6C15.29,93.88,0.019,109.151,0,127.994v307.2
			C0.019,454.038,15.29,469.309,34.133,469.328z M281.6,452.261v-85.333h68.267v85.333H281.6z M366.933,452.261v-85.333
			c-0.012-9.421-7.646-17.054-17.067-17.067H281.6c-9.421,0.012-17.054,7.646-17.067,17.067v85.333H217.12
			c3.074-5.165,4.712-11.057,4.746-17.067V187.847l93.867-64.919l136.533,94.383v234.951H366.933z M308.242,62.436
			c1.099-0.837,2.29-1.544,3.55-2.108c0.484-0.067,0.96-0.175,1.425-0.325c1.334-0.359,2.73-0.424,4.092-0.192
			c0.117,0.017,0.242,0.042,0.367,0.05l0.009-0.025l2.033-8.258l-0.917,8.6c1.222,0.333,2.381,0.862,3.433,1.567l169.458,118.517
			l-20.067,29.675l-151.042-104.4c-2.919-2.017-6.781-2.017-9.7,0l-89.017,61.568v-39.11c-0.047-1.616-0.209-3.227-0.488-4.82
			L308.242,62.436z M157.617,110.928l-5.575,12.75c-0.827,2.411-3.001,4.105-5.541,4.317H75.366
			c-2.543-0.212-4.718-1.91-5.542-4.325l-5.575-12.742H157.617z M17.067,127.994c0.012-9.421,7.646-17.054,17.067-17.067h11.486
			l8.572,19.583c3.541,8.626,11.853,14.337,21.175,14.55H146.5c9.322-0.213,17.634-5.924,21.175-14.55l8.572-19.583h11.486
			c9.421,0.012,17.054,7.646,17.067,17.067v307.2c-0.012,9.421-7.646,17.054-17.067,17.067h-153.6
			c-9.421-0.012-17.054-7.646-17.067-17.067V127.994z"/>
		<path d="M145.067,418.128H76.8c-4.713,0-8.533,3.821-8.533,8.533s3.821,8.533,8.533,8.533h68.267c4.713,0,8.533-3.82,8.533-8.533
			S149.779,418.128,145.067,418.128z"/>
		<path d="M104.875,335.269c-1.561,1.634-2.445,3.799-2.475,6.059c0,4.713,3.821,8.533,8.533,8.533c4.713,0,8.533-3.82,8.533-8.533
			c0.02-3.467-2.059-6.601-5.261-7.931S107.316,332.807,104.875,335.269z"/>
		<path d="M110.933,264.528c-20.34-0.039-40.136,6.569-56.375,18.817c-2.426,1.848-3.681,4.85-3.293,7.875
			c0.389,3.025,2.363,5.612,5.177,6.786c2.815,1.174,6.042,0.757,8.465-1.095c27.285-20.422,64.765-20.422,92.05,0
			c3.746,2.854,9.097,2.132,11.953-1.612c2.857-3.744,2.139-9.095-1.603-11.954C151.069,271.096,131.273,264.489,110.933,264.528z"
			/>
		<path d="M48.242,270.986c35.909-31.367,89.474-31.367,125.383,0c3.568,3.065,8.944,2.663,12.017-0.897
			c3.074-3.561,2.686-8.937-0.867-12.019c-42.313-36.9-105.37-36.9-147.683,0c-3.553,3.082-3.941,8.459-0.867,12.019
			C39.298,273.649,44.673,274.051,48.242,270.986z"/>
		<path d="M136.525,324.261c3.654,0.003,6.904-2.32,8.083-5.778c1.18-3.458,0.027-7.283-2.867-9.514
			c-18.386-13.3-43.231-13.3-61.617,0c-3.733,2.876-4.427,8.234-1.55,11.967c2.876,3.733,8.234,4.427,11.967,1.55
			c12.197-8.716,28.586-8.716,40.783,0C132.813,323.639,134.642,324.264,136.525,324.261z"/>
	</g>
</g>
<g>
</g>
<g>
</g>
<g>
</g>
<g>
</g>
<g>
</g>
<g>
</g>
<g>
</g>
<g>
</g>
<g>
</g>
<g>
</g>
<g>
</g>
<g>
</g>
<g>
</g>
<g>
</g>
<g>
</g>
</svg>
