<?xml version="1.0" encoding="iso-8859-1"?>
<!-- Generator: Adobe Illustrator 19.0.0, SVG Export Plug-In . SVG Version: 6.00 Build 0)  -->
<svg version="1.1" id="Capa_1" xmlns="http://www.w3.org/2000/svg" xmlns:xlink="http://www.w3.org/1999/xlink" x="0px" y="0px"
	 viewBox="0 0 512 512" style="enable-background:new 0 0 512 512;" xml:space="preserve">
<g>
	<g transform="translate(1 1)">
		<path style="fill:#607D8B;" d="M502.467,58.733V485.4c-0.028,9.414-7.653,17.039-17.067,17.067H24.6
			c-9.414-0.028-17.039-7.653-17.067-17.067V58.733H502.467z"/>
		<path style="fill:#CFD8DC;" d="M476.867,58.733V485.4c-0.028,9.414-7.653,17.039-17.067,17.067H24.6
			c-9.414-0.028-17.039-7.653-17.067-17.067V58.733H476.867z"/>
		<path style="fill:#283593;" d="M502.467,24.6v51.2H7.533V24.6C7.561,15.186,15.186,7.561,24.6,7.533h460.8
			C494.814,7.561,502.439,15.186,502.467,24.6z"/>
		<path style="fill:#3F51B5;" d="M476.867,24.6v51.2H7.533V24.6C7.561,15.186,15.186,7.561,24.6,7.533h435.2
			C469.214,7.561,476.839,15.186,476.867,24.6z"/>
		<g>
			<circle style="fill:#FFEB3A;" cx="169.667" cy="135.533" r="17.067"/>
			<circle style="fill:#FFEB3A;" cx="67.267" cy="195.267" r="17.067"/>
			<circle style="fill:#FFEB3A;" cx="135.533" cy="255" r="17.067"/>
			<circle style="fill:#FFEB3A;" cx="237.933" cy="195.267" r="17.067"/>
			<circle style="fill:#FFEB3A;" cx="408.6" cy="195.267" r="17.067"/>
			<circle style="fill:#FFEB3A;" cx="306.2" cy="255" r="17.067"/>
			<circle style="fill:#FFEB3A;" cx="237.933" cy="314.733" r="17.067"/>
			<circle style="fill:#FFEB3A;" cx="408.6" cy="314.733" r="17.067"/>
			<circle style="fill:#FFEB3A;" cx="67.267" cy="314.733" r="17.067"/>
			<circle style="fill:#FFEB3A;" cx="237.933" cy="434.2" r="17.067"/>
			<circle style="fill:#FFEB3A;" cx="408.6" cy="434.2" r="17.067"/>
			<circle style="fill:#FFEB3A;" cx="67.267" cy="434.2" r="17.067"/>
			<circle style="fill:#FFEB3A;" cx="340.333" cy="135.533" r="17.067"/>
			<circle style="fill:#FFEB3A;" cx="135.533" cy="374.467" r="17.067"/>
			<circle style="fill:#FFEB3A;" cx="306.2" cy="374.467" r="17.067"/>
		</g>
	</g>
	<g>
		<path d="M486.4,0H25.6C11.468,0.015,0.015,11.468,0,25.6v460.8c0.015,14.132,11.468,25.585,25.6,25.6h460.8
			c14.132-0.015,25.585-11.468,25.6-25.6V25.6C511.985,11.468,500.532,0.015,486.4,0z M25.6,17.067h460.8
			c4.712,0.003,8.53,3.822,8.533,8.533v42.667H17.067V25.6C17.07,20.888,20.888,17.07,25.6,17.067z M486.4,494.933H25.6
			c-4.712-0.003-8.53-3.822-8.533-8.533V85.333h477.867V486.4C494.93,491.112,491.112,494.93,486.4,494.933z"/>
		<path d="M36.608,48.725c0.829,0.754,1.782,1.36,2.817,1.792c2.065,0.911,4.418,0.911,6.483,0c1.034-0.434,1.986-1.04,2.817-1.792
			c0.752-0.831,1.358-1.783,1.792-2.817c0.437-1.026,0.669-2.127,0.683-3.242c-0.033-2.259-0.917-4.422-2.475-6.059
			c-0.419-0.387-0.877-0.731-1.367-1.025c-0.434-0.339-0.925-0.599-1.45-0.767c-0.51-0.259-1.059-0.433-1.625-0.517
			c-2.783-0.558-5.662,0.308-7.676,2.308c-1.561,1.634-2.445,3.799-2.475,6.059c-0.018,1.109,0.183,2.21,0.592,3.242
			C35.225,46.927,35.858,47.874,36.608,48.725z"/>
		<path d="M70.741,48.725c0.829,0.754,1.782,1.36,2.817,1.792c2.065,0.911,4.418,0.911,6.483,0c1.034-0.434,1.986-1.04,2.817-1.792
			c0.752-0.831,1.358-1.783,1.792-2.817c0.437-1.026,0.669-2.127,0.683-3.242c-0.033-2.259-0.917-4.422-2.475-6.059
			c-0.407-0.367-0.836-0.709-1.283-1.025c-0.474-0.324-0.99-0.582-1.533-0.767c-0.51-0.259-1.059-0.433-1.625-0.517
			c-2.783-0.558-5.662,0.308-7.676,2.308c-1.561,1.634-2.445,3.799-2.475,6.059c0.014,1.115,0.246,2.216,0.683,3.242
			C69.383,46.942,69.989,47.894,70.741,48.725z"/>
		<path d="M104.875,48.725c0.829,0.754,1.782,1.36,2.817,1.792c3.175,1.362,6.859,0.652,9.301-1.792
			c0.752-0.831,1.358-1.783,1.792-2.817c0.437-1.026,0.669-2.127,0.683-3.242c0.02-3.467-2.059-6.601-5.261-7.931
			c-3.202-1.329-6.89-0.59-9.331,1.872c-1.576,1.625-2.462,3.795-2.475,6.059c0.014,1.115,0.246,2.216,0.683,3.242
			C103.517,46.942,104.122,47.894,104.875,48.725z"/>
		<path d="M196.267,51.2h119.467c4.713,0,8.533-3.821,8.533-8.533s-3.821-8.533-8.533-8.533H196.267
			c-4.713,0-8.533,3.821-8.533,8.533S191.554,51.2,196.267,51.2z"/>
		<path d="M460.8,51.2h8.533c4.713,0,8.533-3.821,8.533-8.533s-3.821-8.533-8.533-8.533H460.8c-4.713,0-8.533,3.821-8.533,8.533
			S456.087,51.2,460.8,51.2z"/>
		<path d="M418.133,51.2h8.533c4.713,0,8.533-3.821,8.533-8.533s-3.82-8.533-8.533-8.533h-8.533c-4.713,0-8.533,3.821-8.533,8.533
			S413.421,51.2,418.133,51.2z"/>
		<path d="M47.958,144.383c2.065,0.911,4.418,0.911,6.483,0c1.034-0.433,1.986-1.039,2.817-1.791c2.444-2.441,3.154-6.125,1.792-9.3
			c-0.412-1.045-1.02-2.002-1.792-2.817c-3.421-3.158-8.695-3.158-12.117,0c-0.754,0.829-1.36,1.782-1.792,2.817
			c-0.48,1.012-0.715,2.123-0.683,3.242c-0.023,2.27,0.869,4.454,2.475,6.059C45.971,143.346,46.924,143.952,47.958,144.383z"/>
		<path d="M91.392,130.475c-2.05-2.002-4.956-2.866-7.767-2.308c-0.534,0.096-1.05,0.27-1.533,0.517
			c-0.546,0.184-1.065,0.442-1.542,0.767c-0.445,0.316-0.871,0.658-1.276,1.025c-0.754,0.829-1.36,1.782-1.792,2.817
			c-0.48,1.012-0.714,2.123-0.683,3.242c-0.023,2.27,0.869,4.454,2.475,6.059c0.829,0.754,1.782,1.36,2.817,1.792
			c2.065,0.911,4.418,0.911,6.483,0c2.143-0.777,3.831-2.465,4.608-4.608c0.911-2.065,0.911-4.418,0-6.483
			C92.772,132.247,92.164,131.291,91.392,130.475z"/>
		<path d="M113.408,142.592c0.829,0.754,1.782,1.36,2.817,1.792c3.175,1.362,6.859,0.653,9.302-1.79
			c2.443-2.443,3.152-6.127,1.79-9.302c-0.432-1.035-1.038-1.987-1.792-2.817c-0.407-0.367-0.836-0.709-1.283-1.025
			c-0.474-0.324-0.99-0.582-1.533-0.767c-0.484-0.245-1-0.419-1.533-0.517c-1.664-0.348-3.394-0.167-4.95,0.517
			c-2.143,0.777-3.831,2.465-4.608,4.608c-0.911,2.065-0.911,4.418,0,6.483C112.05,140.809,112.656,141.761,113.408,142.592z"/>
		<path d="M119.467,204.8c1.115-0.014,2.216-0.246,3.242-0.683c1.053-0.433,2.011-1.07,2.817-1.875
			c2.442-2.408,3.154-6.069,1.792-9.217c-0.412-1.045-1.02-2.001-1.792-2.817c-2.044-2.013-4.955-2.878-7.767-2.308
			c-0.534,0.096-1.05,0.27-1.533,0.517c-0.546,0.184-1.065,0.442-1.542,0.767c-0.445,0.316-0.871,0.658-1.276,1.025
			c-1.561,1.634-2.445,3.799-2.475,6.059c-0.038,2.248,0.858,4.412,2.475,5.975C114.982,203.902,117.179,204.83,119.467,204.8z"/>
		<path d="M159.659,190.208c-2.455-2.417-6.122-3.124-9.3-1.792c-2.143,0.777-3.831,2.465-4.608,4.608
			c-0.438,1.026-0.67,2.127-0.684,3.243c-0.038,2.248,0.858,4.412,2.475,5.975c1.574,1.661,3.771,2.588,6.059,2.558
			c1.115-0.014,2.216-0.246,3.242-0.683c1.053-0.433,2.011-1.07,2.817-1.875c1.614-1.565,2.509-3.727,2.475-5.975
			c-0.014-1.115-0.246-2.216-0.683-3.242C161.039,191.98,160.43,191.024,159.659,190.208z"/>
		<path d="M193.792,190.208c-0.407-0.367-0.836-0.709-1.283-1.025c-0.474-0.324-0.99-0.582-1.533-0.767
			c-0.51-0.259-1.059-0.433-1.625-0.517c-1.094-0.25-2.231-0.25-3.325,0c-0.534,0.096-1.05,0.27-1.533,0.517
			c-0.546,0.184-1.065,0.442-1.542,0.767c-0.445,0.316-0.871,0.658-1.276,1.025c-0.772,0.816-1.38,1.772-1.792,2.817
			c-0.48,1.012-0.714,2.123-0.683,3.242c-0.038,2.248,0.858,4.412,2.475,5.975c1.606,1.609,3.785,2.512,6.058,2.512
			s4.452-0.904,6.058-2.512c1.614-1.565,2.51-3.727,2.475-5.975c-0.014-1.115-0.246-2.216-0.683-3.242
			C195.172,191.98,194.564,191.024,193.792,190.208z"/>
		<path d="M170.667,110.933c-14.138,0-25.6,11.462-25.6,25.6s11.462,25.6,25.6,25.6c14.139,0,25.6-11.462,25.6-25.6
			C196.251,122.401,184.799,110.949,170.667,110.933z M170.667,145.067c-4.713,0-8.533-3.821-8.533-8.533s3.821-8.533,8.533-8.533
			c4.713,0,8.533,3.821,8.533,8.533C179.197,141.245,175.378,145.064,170.667,145.067z"/>
		<path d="M68.267,170.667c-14.138,0-25.6,11.462-25.6,25.6s11.462,25.6,25.6,25.6s25.6-11.462,25.6-25.6
			C93.851,182.135,82.399,170.682,68.267,170.667z M68.267,204.8c-4.713,0-8.533-3.821-8.533-8.533s3.821-8.533,8.533-8.533
			c4.713,0,8.533,3.821,8.533,8.533C76.797,200.978,72.978,204.797,68.267,204.8z"/>
		<path d="M136.533,230.4c-14.138,0-25.6,11.462-25.6,25.6c0,14.139,11.462,25.6,25.6,25.6s25.6-11.461,25.6-25.6
			C162.118,241.868,150.665,230.415,136.533,230.4z M136.533,264.533c-4.713,0-8.533-3.821-8.533-8.533
			c0-4.713,3.821-8.533,8.533-8.533s8.533,3.821,8.533,8.533C145.064,260.712,141.245,264.53,136.533,264.533z"/>
		<path d="M238.933,170.667c-14.139,0-25.6,11.462-25.6,25.6s11.462,25.6,25.6,25.6c14.138,0,25.6-11.462,25.6-25.6
			C264.518,182.135,253.065,170.682,238.933,170.667z M238.933,204.8c-4.713,0-8.533-3.821-8.533-8.533s3.821-8.533,8.533-8.533
			c4.713,0,8.533,3.821,8.533,8.533C247.464,200.978,243.645,204.797,238.933,204.8z"/>
		<path d="M290.133,204.8c4.699-0.032,8.501-3.834,8.533-8.533c-0.014-1.115-0.246-2.216-0.683-3.242
			c-0.412-1.045-1.02-2.001-1.792-2.817c-0.831-0.752-1.783-1.358-2.817-1.792c-3.177-1.342-6.849-0.634-9.3,1.792
			c-1.561,1.634-2.445,3.799-2.475,6.058c-0.038,2.248,0.858,4.412,2.475,5.975C285.649,203.902,287.845,204.83,290.133,204.8z"/>
		<path d="M321.025,188.417c-1.035,0.432-1.987,1.038-2.817,1.792c-0.772,0.816-1.38,1.772-1.792,2.817
			c-0.437,1.025-0.669,2.127-0.683,3.241c-0.038,2.248,0.858,4.412,2.475,5.975c1.606,1.609,3.785,2.512,6.058,2.512
			c2.273,0,4.452-0.904,6.058-2.512c1.614-1.565,2.51-3.727,2.475-5.975c-0.033-2.259-0.917-4.422-2.475-6.059
			C327.87,187.791,324.203,187.084,321.025,188.417z"/>
		<path d="M364.459,190.208c-0.419-0.387-0.877-0.731-1.367-1.025c-0.434-0.339-0.925-0.599-1.45-0.767
			c-0.51-0.259-1.059-0.433-1.625-0.517c-1.094-0.25-2.231-0.25-3.325,0c-0.534,0.096-1.05,0.27-1.533,0.517
			c-0.546,0.184-1.065,0.442-1.542,0.767c-0.445,0.316-0.871,0.658-1.276,1.025c-0.772,0.816-1.38,1.772-1.792,2.817
			c-0.48,1.012-0.714,2.123-0.683,3.242c-0.038,2.248,0.858,4.412,2.475,5.975c0.79,0.824,1.751,1.464,2.817,1.875
			c2.065,0.911,4.418,0.911,6.483,0c1.054-0.433,2.011-1.07,2.817-1.875c1.614-1.565,2.509-3.727,2.475-5.975
			c0.027-1.119-0.207-2.229-0.683-3.242C365.839,191.98,365.23,191.024,364.459,190.208z"/>
		<path d="M409.6,170.667c-14.138,0-25.6,11.462-25.6,25.6s11.462,25.6,25.6,25.6c14.138,0,25.6-11.462,25.6-25.6
			C435.185,182.135,423.732,170.682,409.6,170.667z M409.6,204.8c-4.713,0-8.533-3.821-8.533-8.533s3.821-8.533,8.533-8.533
			c4.713,0,8.533,3.821,8.533,8.533C418.13,200.978,414.312,204.797,409.6,204.8z"/>
		<path d="M193.792,249.941c-0.831-0.752-1.783-1.358-2.817-1.792c-2.059-0.942-4.425-0.942-6.483,0
			c-2.143,0.777-3.831,2.465-4.608,4.608c-0.481,1.012-0.715,2.123-0.684,3.243c-0.018,1.109,0.183,2.211,0.592,3.242
			c0.5,1.018,1.133,1.966,1.883,2.817c2.441,2.444,6.125,3.154,9.3,1.792c2.143-0.777,3.831-2.465,4.608-4.608
			c0.911-2.065,0.911-4.418,0-6.483C195.172,251.714,194.564,250.758,193.792,249.941z"/>
		<path d="M221.867,264.533c1.115-0.014,2.216-0.246,3.242-0.683c2.143-0.777,3.831-2.465,4.608-4.608
			c0.911-2.065,0.911-4.418,0-6.483c-0.412-1.045-1.02-2.001-1.792-2.817c-2.455-2.417-6.122-3.124-9.3-1.792
			c-2.143,0.777-3.831,2.465-4.608,4.608c-0.48,1.012-0.714,2.123-0.683,3.242c-0.018,1.109,0.183,2.211,0.592,3.242
			c0.5,1.018,1.133,1.966,1.883,2.817C217.413,263.664,219.597,264.556,221.867,264.533z"/>
		<path d="M262.059,249.941c-2.023-1.99-4.898-2.854-7.683-2.308c-0.563,0.083-1.109,0.258-1.617,0.517
			c-0.546,0.184-1.065,0.442-1.542,0.767c-0.445,0.316-0.871,0.658-1.276,1.025c-0.772,0.816-1.38,1.772-1.792,2.817
			c-0.48,1.012-0.714,2.123-0.683,3.242c-0.018,1.109,0.183,2.211,0.592,3.242c0.5,1.018,1.133,1.966,1.883,2.817
			c2.441,2.444,6.125,3.154,9.3,1.792c2.143-0.777,3.831-2.465,4.608-4.608c0.911-2.065,0.911-4.418,0-6.483
			C263.438,251.714,262.83,250.758,262.059,249.941z"/>
		<path d="M307.2,230.4c-14.138,0-25.6,11.462-25.6,25.6c0,14.139,11.462,25.6,25.6,25.6c14.138,0,25.6-11.461,25.6-25.6
			C332.785,241.868,321.332,230.415,307.2,230.4z M307.2,264.533c-4.713,0-8.533-3.821-8.533-8.533c0-4.713,3.82-8.533,8.533-8.533
			s8.533,3.821,8.533,8.533C315.73,260.712,311.912,264.53,307.2,264.533z"/>
		<path d="M364.459,249.941c-2.05-2.002-4.956-2.866-7.767-2.308c-0.534,0.096-1.05,0.27-1.533,0.517
			c-0.546,0.184-1.065,0.442-1.542,0.767c-0.445,0.316-0.871,0.658-1.276,1.025c-0.772,0.816-1.38,1.772-1.792,2.817
			c-0.48,1.012-0.714,2.123-0.683,3.242c-0.018,1.109,0.183,2.211,0.592,3.242c0.5,1.018,1.133,1.966,1.883,2.817
			c0.816,0.772,1.772,1.38,2.817,1.792c3.175,1.362,6.859,0.652,9.301-1.792c0.752-0.831,1.358-1.783,1.792-2.817
			c0.911-2.065,0.911-4.418,0-6.483C365.839,251.714,365.231,250.757,364.459,249.941z"/>
		<path d="M389.292,263.85c3.175,1.362,6.859,0.653,9.3-1.791c0.752-0.831,1.358-1.783,1.792-2.817c0.911-2.065,0.911-4.418,0-6.483
			c-1.464-3.851-5.54-6.037-9.558-5.125c-0.534,0.096-1.05,0.27-1.533,0.517c-0.546,0.184-1.065,0.442-1.542,0.767
			c-0.445,0.316-0.871,0.658-1.276,1.024c-0.772,0.816-1.38,1.772-1.792,2.817c-0.48,1.012-0.714,2.123-0.683,3.242
			c-0.018,1.109,0.183,2.211,0.592,3.242c0.5,1.018,1.133,1.966,1.883,2.817C387.304,262.813,388.257,263.419,389.292,263.85z"/>
		<path d="M432.725,249.941c-2.05-2.002-4.956-2.866-7.767-2.308c-0.534,0.096-1.05,0.27-1.533,0.517
			c-0.546,0.184-1.065,0.442-1.542,0.767c-0.445,0.316-0.871,0.658-1.276,1.025c-0.77,0.835-1.405,1.786-1.883,2.817
			c-0.789,2.089-0.789,4.394,0,6.483c0.47,1.036,1.106,1.987,1.883,2.817c3.365,3.3,8.752,3.3,12.117,0
			c0.752-0.831,1.358-1.783,1.792-2.817c0.911-2.065,0.911-4.418,0-6.483C434.105,251.714,433.497,250.757,432.725,249.941z"/>
		<path d="M238.933,290.133c-14.139,0-25.6,11.462-25.6,25.6c0,14.138,11.462,25.6,25.6,25.6c14.138,0,25.6-11.462,25.6-25.6
			C264.518,301.601,253.065,290.149,238.933,290.133z M238.933,324.267c-4.713,0-8.533-3.821-8.533-8.533
			c0-4.713,3.821-8.533,8.533-8.533c4.713,0,8.533,3.821,8.533,8.533C247.464,320.445,243.645,324.264,238.933,324.267z"/>
		<path d="M296.192,321.792c1.603-1.607,2.494-3.789,2.475-6.059c-0.033-2.259-0.917-4.422-2.475-6.059
			c-0.831-0.752-1.783-1.358-2.817-1.792c-1.556-0.684-3.286-0.865-4.95-0.517c-0.534,0.096-1.05,0.27-1.533,0.517
			c-0.546,0.184-1.065,0.442-1.542,0.767l-1.276,1.025c-1.561,1.634-2.445,3.799-2.475,6.059c0.014,3.45,2.096,6.556,5.282,7.879
			C290.069,324.936,293.738,324.218,296.192,321.792z"/>
		<path d="M328.958,308.65c-0.434-0.339-0.925-0.599-1.45-0.767c-0.484-0.245-1-0.419-1.533-0.517
			c-1.663-0.348-3.394-0.167-4.95,0.517c-1.045,0.412-2.001,1.02-2.817,1.792c-1.561,1.634-2.445,3.798-2.475,6.058
			c-0.023,2.27,0.869,4.454,2.475,6.059c0.829,0.754,1.782,1.36,2.817,1.792c2.065,0.911,4.418,0.911,6.483,0
			c1.034-0.434,1.986-1.04,2.817-1.792c1.603-1.607,2.494-3.789,2.475-6.059c-0.033-2.259-0.917-4.422-2.475-6.059
			C329.9,309.333,329.467,308.992,328.958,308.65z"/>
		<path d="M361.642,307.883c-1.556-0.684-3.286-0.865-4.95-0.517c-0.534,0.096-1.05,0.27-1.533,0.517
			c-0.546,0.184-1.065,0.442-1.542,0.767l-1.275,1.025c-1.561,1.634-2.445,3.799-2.475,6.059c0,4.713,3.82,8.533,8.533,8.533
			s8.533-3.821,8.533-8.533c-0.033-2.259-0.917-4.422-2.475-6.059C363.628,308.922,362.675,308.317,361.642,307.883z"/>
		<path d="M409.6,290.133c-14.138,0-25.6,11.462-25.6,25.6c0,14.138,11.462,25.6,25.6,25.6c14.138,0,25.6-11.462,25.6-25.6
			C435.185,301.601,423.732,290.149,409.6,290.133z M409.6,324.267c-4.713,0-8.533-3.821-8.533-8.533
			c0-4.713,3.821-8.533,8.533-8.533c4.713,0,8.533,3.821,8.533,8.533C418.13,320.445,414.312,324.264,409.6,324.267z"/>
		<path d="M466.859,309.675c-0.425-0.341-0.858-0.683-1.367-1.025c-0.434-0.339-0.925-0.599-1.45-0.767
			c-0.51-0.259-1.059-0.433-1.625-0.517c-1.633-0.343-3.334-0.162-4.858,0.517c-1.045,0.412-2.001,1.02-2.817,1.792
			c-1.561,1.634-2.446,3.799-2.475,6.058c-0.043,3.475,2.025,6.629,5.23,7.975c3.204,1.345,6.905,0.613,9.355-1.851
			c2.451-2.464,3.162-6.169,1.799-9.365C468.239,311.447,467.63,310.49,466.859,309.675z"/>
		<path d="M68.267,290.133c-14.138,0-25.6,11.462-25.6,25.6c0,14.138,11.462,25.6,25.6,25.6s25.6-11.462,25.6-25.6
			C93.851,301.601,82.399,290.149,68.267,290.133z M68.267,324.267c-4.713,0-8.533-3.821-8.533-8.533
			c0-4.713,3.821-8.533,8.533-8.533c4.713,0,8.533,3.821,8.533,8.533C76.797,320.445,72.978,324.264,68.267,324.267z"/>
		<path d="M119.467,324.267c2.27,0.022,4.453-0.87,6.058-2.475c1.605-1.605,2.497-3.788,2.475-6.058
			c-0.033-2.259-0.917-4.422-2.475-6.059c-0.425-0.341-0.858-0.683-1.367-1.025c-0.434-0.339-0.925-0.599-1.45-0.767
			c-0.51-0.259-1.059-0.433-1.625-0.517c-2.783-0.558-5.662,0.308-7.676,2.308c-1.561,1.634-2.445,3.799-2.475,6.059
			c-0.023,2.27,0.869,4.454,2.475,6.059c0.816,0.772,1.772,1.38,2.817,1.792C117.25,324.021,118.352,324.253,119.467,324.267z"/>
		<path d="M156.842,307.883c-1.556-0.684-3.287-0.865-4.95-0.517c-0.534,0.096-1.05,0.27-1.533,0.517
			c-0.546,0.184-1.065,0.442-1.542,0.767l-1.275,1.025c-1.561,1.634-2.445,3.799-2.475,6.059c-0.03,2.855,1.385,5.532,3.761,7.115
			c2.376,1.584,5.39,1.86,8.014,0.735c1.034-0.434,1.986-1.04,2.817-1.792c1.603-1.607,2.494-3.789,2.475-6.058
			c-0.033-2.259-0.917-4.422-2.475-6.059C158.828,308.922,157.875,308.317,156.842,307.883z"/>
		<path d="M192.425,308.65c-0.434-0.339-0.925-0.599-1.45-0.767c-0.484-0.245-1-0.419-1.533-0.517
			c-1.664-0.348-3.394-0.167-4.95,0.517c-1.045,0.412-2.001,1.02-2.817,1.792c-1.561,1.634-2.445,3.798-2.475,6.058
			c-0.023,2.27,0.869,4.454,2.475,6.059c0.829,0.754,1.782,1.36,2.817,1.792c2.065,0.911,4.418,0.911,6.483,0
			c1.034-0.434,1.986-1.04,2.817-1.792c1.603-1.607,2.494-3.789,2.475-6.059c-0.033-2.259-0.917-4.422-2.475-6.059
			C193.367,309.333,192.933,308.992,192.425,308.65z"/>
		<path d="M238.933,409.6c-14.139,0-25.6,11.462-25.6,25.6c0,14.138,11.462,25.6,25.6,25.6c14.138,0,25.6-11.462,25.6-25.6
			C264.518,421.068,253.065,409.615,238.933,409.6z M238.933,443.733c-4.713,0-8.533-3.821-8.533-8.533s3.821-8.533,8.533-8.533
			c4.713,0,8.533,3.82,8.533,8.533C247.464,439.912,243.645,443.73,238.933,443.733z"/>
		<path d="M288.425,426.833c-0.534,0.096-1.05,0.27-1.533,0.517c-0.546,0.184-1.065,0.442-1.542,0.767
			c-0.445,0.316-0.871,0.658-1.275,1.025c-1.561,1.634-2.445,3.799-2.475,6.059c0,4.713,3.821,8.533,8.533,8.533
			c4.713,0,8.533-3.821,8.533-8.533c-0.033-2.259-0.917-4.422-2.475-6.059C294.142,427.139,291.236,426.276,288.425,426.833z"/>
		<path d="M318.208,429.141c-0.754,0.829-1.36,1.782-1.792,2.817c-1.336,3.189-0.613,6.869,1.83,9.316
			c2.443,2.447,6.122,3.175,9.313,1.843c3.191-1.332,5.261-4.459,5.24-7.917c0.02-3.467-2.059-6.601-5.261-7.931
			C324.337,425.94,320.649,426.68,318.208,429.141z"/>
		<path d="M364.459,429.141c-0.419-0.387-0.877-0.731-1.367-1.025c-0.434-0.339-0.925-0.599-1.45-0.767
			c-0.484-0.245-1-0.419-1.533-0.517c-1.097-0.25-2.236-0.25-3.333,0c-0.563,0.083-1.109,0.258-1.617,0.517
			c-0.546,0.184-1.065,0.442-1.542,0.767c-0.445,0.316-0.871,0.658-1.276,1.025c-1.561,1.634-2.445,3.799-2.475,6.059
			c-0.043,3.475,2.025,6.629,5.23,7.975c3.204,1.345,6.905,0.613,9.355-1.851c2.451-2.464,3.162-6.169,1.799-9.365
			C365.819,430.924,365.213,429.971,364.459,429.141z"/>
		<path d="M409.6,409.6c-14.138,0-25.6,11.462-25.6,25.6c0,14.138,11.462,25.6,25.6,25.6c14.138,0,25.6-11.462,25.6-25.6
			C435.185,421.068,423.732,409.615,409.6,409.6z M409.6,443.733c-4.713,0-8.533-3.821-8.533-8.533s3.821-8.533,8.533-8.533
			c4.713,0,8.533,3.82,8.533,8.533C418.13,439.912,414.312,443.73,409.6,443.733z"/>
		<path d="M465.492,428.117c-0.434-0.339-0.925-0.599-1.45-0.767c-0.51-0.259-1.059-0.433-1.625-0.517
			c-3.551-0.696-7.155,0.915-9.005,4.025c-1.85,3.109-1.546,7.046,0.759,9.834c2.305,2.789,6.114,3.827,9.516,2.595
			c3.402-1.232,5.662-4.47,5.646-8.088c-0.033-2.259-0.917-4.422-2.475-6.059C466.439,428.754,465.981,428.411,465.492,428.117z"/>
		<path d="M68.267,409.6c-14.138,0-25.6,11.462-25.6,25.6c0,14.138,11.462,25.6,25.6,25.6s25.6-11.462,25.6-25.6
			C93.851,421.068,82.399,409.615,68.267,409.6z M68.267,443.733c-4.713,0-8.533-3.821-8.533-8.533s3.821-8.533,8.533-8.533
			c4.713,0,8.533,3.82,8.533,8.533C76.797,439.912,72.978,443.73,68.267,443.733z"/>
		<path d="M125.525,429.141c-2.441-2.462-6.129-3.201-9.331-1.872c-3.202,1.329-5.281,4.464-5.261,7.931
			c-0.043,3.475,2.025,6.629,5.23,7.975c3.204,1.345,6.905,0.613,9.355-1.851c2.451-2.464,3.162-6.169,1.799-9.365
			C126.885,430.924,126.279,429.971,125.525,429.141z"/>
		<path d="M158.292,428.117c-0.434-0.339-0.925-0.599-1.45-0.767c-0.51-0.259-1.059-0.433-1.625-0.517
			c-3.551-0.696-7.155,0.915-9.005,4.025c-1.85,3.109-1.546,7.046,0.759,9.834c2.305,2.789,6.114,3.827,9.516,2.595
			s5.662-4.47,5.646-8.088c-0.033-2.259-0.917-4.422-2.475-6.059C159.239,428.754,158.781,428.411,158.292,428.117z"/>
		<path d="M193.792,429.141c-3.421-3.158-8.695-3.158-12.117,0c-0.754,0.829-1.36,1.782-1.792,2.817
			c-1.362,3.175-0.653,6.859,1.791,9.301c0.816,0.772,1.772,1.38,2.817,1.792c3.175,1.362,6.859,0.652,9.301-1.792
			c0.752-0.831,1.358-1.783,1.792-2.817c0.911-2.065,0.911-4.418,0-6.483C195.152,430.924,194.546,429.971,193.792,429.141z"/>
		<path d="M218.625,144.383c2.065,0.911,4.418,0.911,6.483,0c1.034-0.434,1.986-1.04,2.817-1.792c2.444-2.441,3.154-6.125,1.792-9.3
			c-0.432-1.035-1.038-1.987-1.792-2.817c-0.407-0.367-0.836-0.709-1.283-1.025c-0.474-0.324-0.99-0.582-1.533-0.767
			c-0.51-0.259-1.059-0.433-1.625-0.517c-2.783-0.557-5.661,0.308-7.675,2.308c-0.754,0.829-1.36,1.782-1.792,2.817
			c-1.362,3.175-0.652,6.859,1.792,9.301C216.624,143.364,217.58,143.972,218.625,144.383z"/>
		<path d="M262.059,130.475c-2.05-2.002-4.956-2.866-7.767-2.308c-0.534,0.096-1.05,0.27-1.533,0.517
			c-0.546,0.184-1.065,0.442-1.542,0.767c-0.445,0.316-0.871,0.658-1.276,1.025c-0.754,0.829-1.36,1.782-1.792,2.817
			c-1.362,3.175-0.652,6.859,1.792,9.301c0.816,0.772,1.772,1.38,2.817,1.792c2.065,0.911,4.418,0.911,6.483,0
			c1.034-0.434,1.986-1.04,2.817-1.792c2.444-2.441,3.154-6.125,1.792-9.3C263.419,132.257,262.813,131.304,262.059,130.475z"/>
		<path d="M286.892,144.383c2.065,0.911,4.418,0.911,6.483,0c1.034-0.434,1.986-1.04,2.817-1.792c2.444-2.441,3.154-6.125,1.792-9.3
			c-0.432-1.035-1.038-1.987-1.792-2.817c-2.05-2.002-4.956-2.866-7.767-2.308c-0.534,0.096-1.05,0.27-1.533,0.517
			c-0.546,0.184-1.065,0.442-1.542,0.767c-0.445,0.316-0.871,0.658-1.275,1.025c-0.754,0.829-1.36,1.782-1.792,2.817
			c-0.48,1.012-0.714,2.123-0.683,3.242c-0.023,2.27,0.869,4.454,2.475,6.059C284.904,143.346,285.857,143.952,286.892,144.383z"/>
		<path d="M341.333,110.933c-14.138,0-25.6,11.462-25.6,25.6s11.462,25.6,25.6,25.6c14.138,0,25.6-11.462,25.6-25.6
			C366.918,122.401,355.465,110.949,341.333,110.933z M341.333,145.067c-4.713,0-8.533-3.821-8.533-8.533s3.82-8.533,8.533-8.533
			s8.533,3.821,8.533,8.533C349.864,141.245,346.045,145.064,341.333,145.067z"/>
		<path d="M389.292,144.383c3.175,1.362,6.859,0.653,9.302-1.79c2.443-2.443,3.152-6.127,1.79-9.302
			c-0.432-1.035-1.038-1.987-1.792-2.817c-0.831-0.752-1.783-1.358-2.817-1.792c-2.059-0.942-4.425-0.942-6.483,0
			c-2.143,0.777-3.831,2.465-4.608,4.608c-0.48,1.012-0.715,2.123-0.683,3.242c-0.023,2.27,0.869,4.454,2.475,6.059
			C387.304,143.346,388.257,143.952,389.292,144.383z"/>
		<path d="M432.642,130.475c-0.372-0.406-0.805-0.752-1.283-1.025c-0.434-0.339-0.925-0.599-1.45-0.767
			c-0.484-0.245-1-0.419-1.533-0.517c-1.664-0.348-3.394-0.167-4.95,0.517c-2.143,0.777-3.831,2.465-4.608,4.608
			c-0.438,1.026-0.67,2.127-0.684,3.242c-0.018,1.109,0.183,2.21,0.592,3.242c0.5,1.018,1.133,1.966,1.883,2.817
			c0.829,0.754,1.782,1.36,2.817,1.792c1.026,0.437,2.127,0.669,3.242,0.683c4.699-0.032,8.501-3.834,8.533-8.533
			c-0.014-1.115-0.246-2.216-0.683-3.242C434.106,132.226,433.466,131.265,432.642,130.475z"/>
		<path d="M466.859,130.475c-2.451-2.425-6.123-3.133-9.3-1.792c-1.045,0.412-2.001,1.02-2.817,1.792
			c-0.754,0.829-1.36,1.782-1.792,2.817c-1.362,3.175-0.653,6.859,1.791,9.301c0.829,0.754,1.782,1.36,2.817,1.792
			c3.175,1.362,6.859,0.653,9.302-1.79c2.443-2.443,3.152-6.127,1.79-9.302C468.218,132.258,467.613,131.304,466.859,130.475z"/>
		<path d="M51.2,264.533c1.115-0.014,2.216-0.246,3.242-0.683c1.034-0.433,1.986-1.039,2.817-1.791
			c0.752-0.831,1.358-1.783,1.792-2.817c0.911-2.065,0.911-4.418,0-6.483c-0.412-1.045-1.02-2.002-1.792-2.817
			c-0.407-0.367-0.836-0.709-1.283-1.025c-0.474-0.324-0.99-0.582-1.533-0.767c-0.484-0.245-1-0.419-1.533-0.517
			c-1.664-0.348-3.394-0.167-4.95,0.517c-2.143,0.777-3.831,2.465-4.608,4.608c-0.911,2.065-0.911,4.418,0,6.483
			c0.434,1.034,1.04,1.986,1.792,2.817C46.747,263.663,48.93,264.555,51.2,264.533z"/>
		<path d="M91.392,249.941c-0.407-0.367-0.836-0.709-1.283-1.025c-0.474-0.324-0.99-0.582-1.533-0.767
			c-0.51-0.259-1.059-0.433-1.625-0.517c-1.633-0.343-3.334-0.162-4.858,0.517c-2.143,0.777-3.831,2.465-4.608,4.608
			c-0.911,2.065-0.911,4.418,0,6.483c0.434,1.034,1.04,1.986,1.792,2.817c0.829,0.754,1.782,1.36,2.817,1.792
			c2.065,0.911,4.418,0.911,6.483,0c2.143-0.777,3.831-2.465,4.608-4.608c0.911-2.065,0.911-4.418,0-6.483
			C92.772,251.713,92.164,250.757,91.392,249.941z"/>
		<path d="M136.533,349.867c-14.138,0-25.6,11.462-25.6,25.6c0,14.138,11.462,25.6,25.6,25.6s25.6-11.462,25.6-25.6
			C162.118,361.335,150.665,349.882,136.533,349.867z M136.533,384c-4.713,0-8.533-3.821-8.533-8.533
			c0-4.713,3.821-8.533,8.533-8.533s8.533,3.821,8.533,8.533C145.064,380.178,141.245,383.997,136.533,384z"/>
		<path d="M193.792,369.408c-3.421-3.158-8.695-3.158-12.117,0c-0.772,0.816-1.38,1.772-1.792,2.817
			c-0.48,1.012-0.715,2.123-0.683,3.242c-0.043,3.475,2.025,6.629,5.23,7.975c3.204,1.345,6.905,0.613,9.355-1.851
			c2.451-2.464,3.162-6.169,1.799-9.365C195.172,371.18,194.564,370.224,193.792,369.408z"/>
		<path d="M225.108,383.317c1.034-0.434,1.986-1.04,2.817-1.792c2.444-2.441,3.154-6.125,1.792-9.3
			c-0.412-1.045-1.02-2.001-1.792-2.817c-3.421-3.158-8.695-3.158-12.117,0c-0.772,0.816-1.38,1.772-1.792,2.817
			c-0.48,1.012-0.714,2.123-0.683,3.242c-0.03,2.855,1.385,5.532,3.761,7.115C219.47,384.166,222.484,384.442,225.108,383.317z"/>
		<path d="M262.059,369.408c-3.421-3.158-8.695-3.158-12.117,0c-0.772,0.816-1.38,1.772-1.792,2.817
			c-0.48,1.012-0.715,2.123-0.683,3.242c-0.03,2.855,1.385,5.532,3.761,7.115c2.376,1.584,5.39,1.86,8.014,0.735
			c1.034-0.434,1.986-1.04,2.817-1.792c2.444-2.441,3.154-6.125,1.792-9.3C263.439,371.18,262.831,370.224,262.059,369.408z"/>
		<path d="M307.2,349.867c-14.138,0-25.6,11.462-25.6,25.6c0,14.138,11.462,25.6,25.6,25.6c14.138,0,25.6-11.462,25.6-25.6
			C332.785,361.335,321.332,349.882,307.2,349.867z M307.2,384c-4.713,0-8.533-3.821-8.533-8.533c0-4.713,3.82-8.533,8.533-8.533
			s8.533,3.821,8.533,8.533C315.73,380.178,311.912,383.997,307.2,384z"/>
		<path d="M364.459,369.408c-2.441-2.462-6.129-3.201-9.331-1.872c-3.202,1.329-5.281,4.464-5.261,7.931
			c-0.023,2.27,0.869,4.454,2.475,6.059c0.829,0.754,1.782,1.36,2.817,1.792c3.175,1.362,6.859,0.653,9.302-1.79
			c2.443-2.443,3.152-6.127,1.79-9.302C365.838,371.181,365.23,370.224,364.459,369.408z"/>
		<path d="M392.533,384c1.115-0.014,2.216-0.246,3.242-0.683c1.044-0.414,2-1.022,2.817-1.792c2.444-2.441,3.154-6.125,1.792-9.3
			c-0.412-1.045-1.02-2.001-1.792-2.817c-2.441-2.461-6.129-3.201-9.331-1.872c-3.202,1.329-5.281,4.464-5.261,7.93
			c-0.023,2.27,0.869,4.454,2.475,6.059c0.829,0.754,1.782,1.36,2.817,1.792C390.317,383.755,391.418,383.987,392.533,384z"/>
		<path d="M432.642,369.408c-3.389-3.159-8.644-3.159-12.033,0c-1.561,1.634-2.445,3.799-2.475,6.059
			c-0.023,2.27,0.869,4.454,2.475,6.059c0.829,0.754,1.782,1.36,2.817,1.792c3.155,1.29,6.775,0.586,9.217-1.792
			c1.658-1.576,2.585-3.771,2.559-6.059c-0.014-1.115-0.246-2.216-0.683-3.242C434.127,371.149,433.484,370.183,432.642,369.408z"/>
		<path d="M57.259,381.525c1.603-1.607,2.494-3.789,2.475-6.059c0.02-3.467-2.059-6.601-5.261-7.931
			c-3.202-1.329-6.89-0.59-9.331,1.872c-1.594,1.613-2.484,3.791-2.475,6.059c0.014,3.45,2.096,6.556,5.282,7.879
			C51.136,384.669,54.805,383.951,57.259,381.525z"/>
		<path d="M91.392,369.408c-3.421-3.158-8.695-3.158-12.117,0c-0.772,0.816-1.38,1.772-1.792,2.817
			c-0.48,1.012-0.715,2.123-0.683,3.242c-0.043,3.475,2.025,6.629,5.23,7.975c3.204,1.345,6.905,0.613,9.355-1.851
			c2.451-2.464,3.162-6.169,1.799-9.365C92.792,371.17,92.182,370.21,91.392,369.408z"/>
		<path d="M457.558,188.417c-2.143,0.777-3.831,2.465-4.608,4.608c-0.438,1.026-0.67,2.127-0.684,3.242
			c-0.038,2.248,0.858,4.412,2.475,5.975c2.431,2.451,6.098,3.196,9.292,1.888c3.194-1.308,5.286-4.411,5.3-7.863
			c-0.033-2.259-0.917-4.422-2.475-6.059C464.403,187.791,460.736,187.084,457.558,188.417z"/>
	</g>
</g>
<g>
</g>
<g>
</g>
<g>
</g>
<g>
</g>
<g>
</g>
<g>
</g>
<g>
</g>
<g>
</g>
<g>
</g>
<g>
</g>
<g>
</g>
<g>
</g>
<g>
</g>
<g>
</g>
<g>
</g>
</svg>
