<?xml version="1.0" encoding="iso-8859-1"?>
<!-- Generator: Adobe Illustrator 19.0.0, SVG Export Plug-In . SVG Version: 6.00 Build 0)  -->
<svg version="1.1" id="Capa_1" xmlns="http://www.w3.org/2000/svg" xmlns:xlink="http://www.w3.org/1999/xlink" x="0px" y="0px"
	 viewBox="0 0 512 512" style="enable-background:new 0 0 512 512;" xml:space="preserve">
<g>
	<g transform="translate(1 7)">
		<path style="fill:#02A9F4;" d="M491.207,390.397l-21.504,13.056l-14.592,8.875l-73.728,44.885l-14.592,8.96l-35.499,21.589
			c-9.359,5.696-20.105,8.708-31.061,8.704h-87.893c-69.04-0.381-137.79-8.974-204.8-25.6V351.4c0-42.667,102.4-42.667,102.4-42.667
			c17.157,0.036,33.76,6.074,46.933,17.067c13.817,11.026,30.963,17.042,48.64,17.067h44.629
			c15.004-0.022,28.912,7.856,36.608,20.736l0.768,1.28c7.275,12.16,5.34,27.711-4.693,37.717h20.053
			c3.686,0.002,7.348-0.604,10.837-1.792l17.493-5.888h0.085l16.299-5.376l82.432-27.477l16.299-5.461l25.344-8.448
			c9.56-3.139,20.058,0.155,26.112,8.192v0.085c3.966,5.267,5.515,11.968,4.263,18.442
			C500.788,381.35,496.851,386.989,491.207,390.397z"/>
		<g>
			<path style="fill:#CFD8DC;" d="M144.071,402.6c-0.016,9.051-3.604,17.729-9.984,24.149c-4.339,4.274-9.724,7.334-15.616,8.875
				c-2.78,0.762-5.651,1.135-8.533,1.109H7.538v-68.267h102.4c2.882-0.026,5.754,0.347,8.533,1.109
				C133.547,373.442,144.085,387.036,144.071,402.6z"/>
			<circle style="fill:#CFD8DC;" cx="220.871" cy="445.267" r="51.2"/>
		</g>
		<circle style="fill:#607D8B;" cx="220.871" cy="445.267" r="17.067"/>
		<g>
			<path style="fill:#0377BC;" d="M283.335,402.003c-1.993,0.414-4.024,0.614-6.059,0.597h-20.053
				c10.034-10.006,11.969-25.557,4.693-37.717l-0.768-1.28c-7.696-12.88-21.604-20.758-36.608-20.736l25.6,0
				c15.004-0.022,28.912,7.856,36.608,20.736l0.768,1.28C294.639,376.786,292.927,391.982,283.335,402.003z"/>
			<path style="fill:#0377BC;" d="M491.207,390.397l-21.504,13.056l-14.592,8.875l-73.728,44.885l-14.592,8.96l-35.499,21.589
				c-7.693,4.698-16.366,7.56-25.344,8.363l35.243-21.419l14.592-8.96l73.728-44.885l14.592-8.875l21.504-13.056
				c5.644-3.408,9.581-9.048,10.833-15.521c1.252-6.473-0.296-13.174-4.263-18.442v-0.085c-1.848-2.455-4.169-4.515-6.827-6.059
				c-5.71-3.407-12.602-4.214-18.944-2.219l18.944-6.315l6.315-2.133c9.56-3.139,20.058,0.155,26.112,8.192v0.085
				c3.966,5.267,5.515,11.968,4.263,18.442C500.788,381.35,496.851,386.989,491.207,390.397z"/>
		</g>
		<path style="fill:#607D8B;" d="M408.604,112.467V249c0.009,6.792-2.685,13.309-7.488,18.112
			c-4.803,4.803-11.32,7.497-18.112,7.488h-256c-6.792,0.009-13.309-2.685-18.112-7.488c-4.803-4.803-7.497-11.32-7.488-18.112
			l0-136.533H408.604z"/>
		<path style="fill:#CFD8DC;" d="M383.004,112.467V249c0.009,6.792-2.685,13.309-7.488,18.112
			c-4.803,4.803-11.32,7.497-18.112,7.488h-230.4c-6.792,0.009-13.309-2.685-18.112-7.488c-4.803-4.803-7.497-11.32-7.488-18.112
			l0-136.533H383.004z"/>
		<path style="fill:#FFB301;" d="M425.671,69.8v59.733c-0.014,4.707-3.826,8.519-8.533,8.533H92.871
			c-4.707-0.014-8.519-3.826-8.533-8.533V69.8c0.028-9.414,7.652-17.039,17.067-17.067h307.2
			C418.019,52.761,425.643,60.386,425.671,69.8z"/>
		<path style="fill:#FEC108;" d="M400.071,69.8v59.733c-0.014,4.707-3.826,8.519-8.533,8.533H92.871
			c-4.707-0.014-8.519-3.826-8.533-8.533V69.8c0.028-9.414,7.652-17.039,17.067-17.067h281.6
			C392.419,52.761,400.043,60.386,400.071,69.8z"/>
		<path style="fill:#607D8B;" d="M229.404,103.933h51.2c4.713,0,8.533,3.821,8.533,8.533v51.2c0,4.713-3.821,8.533-8.533,8.533
			h-51.2c-4.713,0-8.533-3.82-8.533-8.533v-51.2C220.871,107.754,224.691,103.933,229.404,103.933z"/>
	</g>
	<g>
		<path d="M0.004,358.4v119.467c0,3.848,2.575,7.22,6.288,8.233c67.758,16.74,137.253,25.433,207.046,25.9h87.892
			c12.521,0.004,24.802-3.435,35.5-9.941l159.883-97.35c7.564-4.567,12.89-12.071,14.704-20.719
			c1.814-8.647-0.047-17.66-5.138-24.882c-0.177-0.313-0.374-0.614-0.592-0.9c-8.26-10.965-22.589-15.446-35.625-11.142
			l-158.004,52.667c-2.603,0.885-5.334,1.335-8.083,1.333h-4.87c4.054-11.114,2.883-23.463-3.188-33.617l-0.758-1.258
			c-9.288-15.384-25.93-24.808-43.9-24.858h-44.633c-15.744-0.019-31.016-5.377-43.321-15.2
			c-14.691-12.196-33.173-18.891-52.267-18.933C99.583,307.2,0.004,308.634,0.004,358.4z M68.271,384v51.2H51.204V384H68.271z
			 M102.404,384v51.2H85.338V384H102.404z M136.538,409.6c-0.033,10.813-6.868,20.435-17.067,24.028v-48.055
			C129.67,389.165,136.504,398.787,136.538,409.6z M34.138,435.2H17.071v-50.354c0.072-0.279,0.129-0.561,0.171-0.846h16.896V435.2z
			 M264.538,452.267c0,23.564-19.103,42.667-42.667,42.667s-42.667-19.103-42.667-42.667c0-23.564,19.103-42.667,42.667-42.667
			C245.424,409.628,264.51,428.714,264.538,452.267z M434.806,376.769l17.493,34.933l-73.68,44.863l-26.198-52.334L434.806,376.769z
			 M475.338,363.258c5.849-1.915,12.275-0.057,16.2,4.683c0.133,0.217,0.267,0.417,0.417,0.617c2.524,3.342,3.509,7.599,2.71,11.71
			c-0.8,4.111-3.309,7.688-6.901,9.84l-20.828,12.682l-15.762-31.477L475.338,363.258z M317.413,415.9l18.657-6.219l27.927,55.787
			l-36.142,22.007c-8.021,4.885-17.233,7.465-26.625,7.458h-37.635c20.93-20.358,23.991-52.896,7.226-76.8h33.055
			C308.48,418.138,313.053,417.383,317.413,415.9z M280.429,374.983l0.758,1.258c4.657,7.764,4.158,17.573-1.263,24.825h-27.446
			c-4.244-2.564-8.793-4.586-13.541-6.018V358.4h12.221C263.142,358.435,274.239,364.722,280.429,374.983L280.429,374.983z
			 M110.938,324.267c15.226-0.002,29.962,5.383,41.6,15.2c15.337,12.235,34.368,18.91,53.988,18.933h15.346v34.133
			c-24.078-0.02-45.809,14.43-55.106,36.641c-9.296,22.211-4.336,47.832,12.578,64.969c-54.68-2.637-109.001-10.309-162.272-22.918
			v-18.958h93.867c23.564,0,42.667-19.103,42.667-42.667c0-23.564-19.103-42.667-42.667-42.667H17.071V358.4
			C17.071,330.583,86.588,324.284,110.938,324.267z"/>
		<path d="M196.271,452.267c0,14.138,11.462,25.6,25.6,25.6c14.138,0,25.6-11.462,25.6-25.6s-11.462-25.6-25.6-25.6
			C207.739,426.682,196.286,438.135,196.271,452.267z M230.404,452.267c0,4.713-3.821,8.533-8.533,8.533
			c-4.713,0-8.533-3.82-8.533-8.533s3.821-8.533,8.533-8.533C226.582,443.738,230.4,447.556,230.404,452.267z"/>
		<path d="M290.138,0h-68.267c-23.553,0.028-42.639,19.114-42.667,42.667V51.2h-76.8c-14.132,0.015-25.585,11.468-25.6,25.6v59.733
			c0.011,9.421,7.645,17.056,17.067,17.067V256c0.02,18.843,15.29,34.113,34.133,34.133h256
			c18.844-0.019,34.115-15.29,34.133-34.133V153.6c9.421-0.012,17.054-7.646,17.067-17.067V76.8
			c-0.015-14.132-11.468-25.585-25.6-25.6h-76.8v-8.533C332.777,19.114,313.69,0.028,290.138,0z M196.271,42.667
			c0.015-14.132,11.468-25.585,25.6-25.6h68.267c14.132,0.015,25.585,11.468,25.6,25.6V51.2H196.271V42.667z M401.071,256
			c-0.011,9.421-7.645,17.056-17.067,17.067h-256c-9.421-0.011-17.056-7.645-17.067-17.067V153.6h102.4v17.067
			c0.011,9.421,7.645,17.056,17.067,17.067h51.2c9.421-0.011,17.056-7.645,17.067-17.067V153.6h102.4V256z M281.611,145.098
			l0.006,25.569h-51.212v-51.2h51.2l0.006,25.569l-0.006,0.031L281.611,145.098z M418.138,76.8v59.733H298.671v-17.067
			c-0.011-9.421-7.645-17.056-17.067-17.067h-51.2c-9.421,0.011-17.056,7.645-17.067,17.067v17.067H93.871V76.8
			c0.005-4.711,3.822-8.529,8.533-8.533h307.2C414.316,68.27,418.134,72.088,418.138,76.8z"/>
		<path d="M252.758,137.217c-2.141,0.78-3.828,2.467-4.608,4.608c-1.357,3.176-0.646,6.858,1.795,9.301
			c0.829,0.753,1.78,1.359,2.813,1.792c2.066,0.911,4.421,0.911,6.487,0c1.034-0.433,1.987-1.039,2.817-1.792
			c1.604-1.606,2.496-3.789,2.475-6.059c-0.033-2.259-0.917-4.422-2.475-6.059C259.606,136.59,255.937,135.884,252.758,137.217z"/>
	</g>
</g>
<g>
</g>
<g>
</g>
<g>
</g>
<g>
</g>
<g>
</g>
<g>
</g>
<g>
</g>
<g>
</g>
<g>
</g>
<g>
</g>
<g>
</g>
<g>
</g>
<g>
</g>
<g>
</g>
<g>
</g>
</svg>
