<?xml version="1.0" encoding="iso-8859-1"?>
<!-- Generator: Adobe Illustrator 19.0.0, SVG Export Plug-In . SVG Version: 6.00 Build 0)  -->
<svg version="1.1" id="Capa_1" xmlns="http://www.w3.org/2000/svg" xmlns:xlink="http://www.w3.org/1999/xlink" x="0px" y="0px"
	 viewBox="0 0 512 512" style="enable-background:new 0 0 512 512;" xml:space="preserve">
<g>
	<g transform="translate(1 1)">
		<path style="fill:#FF9801;" d="M417.135,246.467V280.6c0,7.936-9.557,15.275-25.6,21.077c-5.573,2.047-11.274,3.729-17.067,5.035
			c-8.443,2.023-16.989,3.589-25.6,4.693c-5.461,0.768-11.179,1.365-17.067,1.877c-8.192,0.768-16.725,1.195-25.6,1.365
			c-2.816,0.085-5.632,0.085-8.533,0.085s-5.717,0-8.533-0.085c-8.875-0.171-17.408-0.597-25.6-1.365
			c-5.888-0.512-11.605-1.109-17.067-1.877c-8.611-1.104-17.157-2.671-25.6-4.693c-5.792-1.306-11.493-2.987-17.067-5.035
			c-16.043-5.803-25.6-13.141-25.6-21.077v-34.133H417.135z"/>
		<path style="fill:#FEC108;" d="M371.653,219.672c27.733,6.229,45.483,15.957,45.483,26.795c0,18.859-53.504,34.133-119.467,34.133
			s-119.467-15.275-119.467-34.133c0.062-2.698,1.057-5.292,2.816-7.339L371.653,219.672z"/>
		<path style="fill:#FF9801;" d="M374.469,178.2v34.133c0,7.936-9.557,15.275-25.6,20.992c-1.536,0.597-3.157,1.195-4.779,1.707
			c-0.831,0.348-1.686,0.633-2.56,0.853c-3.072,0.939-6.315,1.792-9.728,2.56c-7.765,1.877-16.384,3.413-25.6,4.693
			c-5.461,0.768-11.179,1.365-17.067,1.877c-8.192,0.768-16.725,1.195-25.6,1.365c-2.816,0.085-5.632,0.085-8.533,0.085
			c-2.901,0-5.717,0-8.533-0.085c-8.875-0.171-17.408-0.597-25.6-1.365c-5.888-0.512-11.605-1.109-17.067-1.877
			c-9.216-1.28-17.835-2.816-25.6-4.693c-3.413-0.768-6.656-1.621-9.728-2.56c-0.874-0.22-1.729-0.505-2.56-0.853
			c-1.621-0.512-3.243-1.024-4.779-1.621c-16.043-5.717-25.6-13.141-25.6-21.077V178.2H374.469z"/>
		<path style="fill:#02A9F4;" d="M491.205,396.397l-21.504,13.056l-14.592,8.875l-73.728,44.885l-14.592,8.96l-35.499,21.589
			c-9.359,5.696-20.105,8.708-31.061,8.704h-87.893c-69.04-0.381-137.79-8.974-204.8-25.6V357.4c0-42.667,102.4-42.667,102.4-42.667
			c17.157,0.036,33.76,6.074,46.933,17.067c13.817,11.026,30.963,17.042,48.64,17.067h44.629
			c15.004-0.022,28.912,7.856,36.608,20.736l0.768,1.28c7.275,12.16,5.34,27.711-4.693,37.717h20.053
			c3.686,0.002,7.348-0.604,10.837-1.792l17.493-5.888h0.085l16.299-5.376l82.432-27.477l16.299-5.461l25.344-8.448
			c9.56-3.139,20.058,0.155,26.112,8.192v0.085c3.966,5.267,5.515,11.968,4.263,18.442
			C500.786,387.35,496.849,392.989,491.205,396.397z"/>
		<g>
			<path style="fill:#CFD8DC;" d="M144.069,408.6c-0.016,9.051-3.604,17.729-9.984,24.149c-4.339,4.274-9.724,7.334-15.616,8.875
				c-2.78,0.762-5.651,1.135-8.533,1.109H7.535v-68.267h102.4c2.882-0.026,5.754,0.347,8.533,1.109
				C133.545,379.442,144.082,393.036,144.069,408.6z"/>
			<circle style="fill:#CFD8DC;" cx="220.869" cy="451.267" r="51.2"/>
		</g>
		<circle style="fill:#607D8B;" cx="220.869" cy="451.267" r="17.067"/>
		<path style="fill:#FEC108;" d="M371.653,170.861c1.759,2.047,2.754,4.64,2.816,7.339c0,18.859-53.504,34.133-119.467,34.133
			S135.535,197.059,135.535,178.2c0-10.837,17.749-20.565,45.483-26.795L371.653,170.861z"/>
		<path style="fill:#FF9801;" d="M417.135,109.933v34.133c0,7.936-9.557,15.275-25.6,21.077c-5.463,2.008-11.05,3.661-16.725,4.949
			c-0.085,0-0.256,0.085-0.341,0.085c-8.443,2.023-16.989,3.589-25.6,4.693c-5.461,0.768-11.093,1.365-16.981,1.877
			c-8.192,0.768-16.811,1.195-25.685,1.365c-2.816,0.085-5.632,0.085-8.533,0.085s-5.717,0-8.533-0.085
			c-8.875-0.171-17.493-0.597-25.685-1.365c-5.888-0.512-11.52-1.109-16.981-1.877c-8.733-1.083-17.395-2.678-25.941-4.779
			c-5.676-1.289-11.262-2.942-16.725-4.949c-16.043-5.803-25.6-13.141-25.6-21.077v-34.133H417.135z"/>
		<path style="fill:#FEC108;" d="M385.221,86.723c19.797,6.144,31.915,14.251,31.915,23.211c0,18.859-53.504,34.133-119.467,34.133
			s-119.467-15.275-119.467-34.133c0.355-4.405,2.674-8.417,6.315-10.923L385.221,86.723z"/>
		<path style="fill:#FF9801;" d="M391.535,41.667V75.8c0,7.936-9.557,15.275-25.6,21.077c-5.573,2.047-11.274,3.729-17.067,5.035
			c-8.443,2.023-16.989,3.589-25.6,4.693c-5.461,0.768-11.179,1.365-17.067,1.877c-8.192,0.768-16.725,1.195-25.6,1.365
			c-2.816,0.085-5.632,0.085-8.533,0.085s-5.717,0-8.533-0.085c-8.875-0.171-17.408-0.597-25.6-1.365
			c-5.888-0.512-11.605-1.109-17.067-1.877c-8.611-1.104-17.157-2.671-25.6-4.693c-5.792-1.306-11.493-2.987-17.067-5.035
			c-16.043-5.803-25.6-13.141-25.6-21.077V41.667H391.535z"/>
		<ellipse style="fill:#FEC108;" cx="272.069" cy="41.667" rx="119.467" ry="34.133"/>
		<g>
			<path style="fill:#0377BC;" d="M283.333,408.003c-1.993,0.414-4.024,0.614-6.059,0.597h-20.053
				c10.034-10.006,11.969-25.557,4.693-37.717l-0.768-1.28c-7.696-12.88-21.604-20.758-36.608-20.736l25.6,0
				c15.004-0.022,28.912,7.856,36.608,20.736l0.768,1.28C294.637,382.786,292.925,397.982,283.333,408.003z"/>
			<path style="fill:#0377BC;" d="M491.205,396.397l-21.504,13.056l-14.592,8.875l-73.728,44.885l-14.592,8.96l-35.499,21.589
				c-7.693,4.698-16.366,7.56-25.344,8.363l35.243-21.419l14.592-8.96l73.728-44.885l14.592-8.875l21.504-13.056
				c5.644-3.408,9.581-9.048,10.833-15.521c1.252-6.473-0.296-13.174-4.263-18.442v-0.085c-1.848-2.455-4.169-4.515-6.827-6.059
				c-5.71-3.407-12.602-4.214-18.944-2.219l18.944-6.315l6.315-2.133c9.56-3.139,20.058,0.155,26.112,8.192v0.085
				c3.966,5.267,5.515,11.968,4.263,18.442C500.786,387.35,496.849,392.989,491.205,396.397z"/>
		</g>
	</g>
	<g>
		<path d="M6.29,486.1c67.758,16.74,137.253,25.433,207.046,25.9h87.892c12.521,0.004,24.802-3.435,35.5-9.941L496.619,404.7
			c7.563-4.566,12.888-12.069,14.701-20.715c1.813-8.646-0.048-17.657-5.139-24.876c-0.178-0.312-0.376-0.613-0.592-0.9
			c-8.258-10.968-22.589-15.45-35.625-11.142l-158.008,52.667c-2.603,0.885-5.334,1.335-8.083,1.333h-4.87
			c4.054-11.114,2.883-23.463-3.188-33.617l-0.758-1.258c-9.288-15.384-25.93-24.808-43.9-24.858h-44.633
			c-15.744-0.019-31.016-5.377-43.321-15.2c-14.691-12.196-33.173-18.891-52.267-18.933c-11.354,0-110.933,1.434-110.933,51.2
			v119.467C0.002,481.715,2.577,485.087,6.29,486.1z M68.269,384v51.2H51.202V384H68.269z M102.402,384v51.2H85.335V384H102.402z
			 M136.535,409.6c-0.033,10.813-6.868,20.435-17.067,24.028v-48.055C129.668,389.165,136.502,398.787,136.535,409.6z M34.135,435.2
			H17.069v-50.354c0.072-0.279,0.129-0.561,0.171-0.846h16.896V435.2z M264.535,452.267c0,23.564-19.103,42.667-42.667,42.667
			s-42.667-19.103-42.667-42.667c0-23.564,19.103-42.667,42.667-42.667C245.421,409.628,264.508,428.714,264.535,452.267z
			 M434.809,376.769l17.496,34.932l-73.687,44.865l-26.199-52.335L434.809,376.769z M475.344,363.258
			c5.847-1.923,12.274-0.064,16.192,4.683c0.129,0.213,0.27,0.419,0.421,0.617c2.517,3.344,3.499,7.598,2.7,11.707
			s-3.301,7.686-6.888,9.843l-20.835,12.685l-15.766-31.477L475.344,363.258z M317.41,415.9l18.657-6.219l27.927,55.788
			l-36.143,22.006c-8.021,4.885-17.233,7.465-26.625,7.458h-37.635c20.93-20.358,23.991-52.896,7.226-76.8h33.055
			C308.477,418.138,313.051,417.383,317.41,415.9z M280.427,374.983l0.758,1.258c4.657,7.764,4.158,17.573-1.263,24.825h-27.446
			c-4.244-2.564-8.793-4.586-13.541-6.018V358.4h12.221C263.14,358.435,274.237,364.722,280.427,374.983L280.427,374.983z
			 M110.935,324.267c15.226-0.002,29.962,5.383,41.6,15.2c15.337,12.235,34.368,18.91,53.988,18.933h15.346v34.133
			c-24.078-0.02-45.809,14.43-55.106,36.641c-9.296,22.211-4.336,47.832,12.578,64.969c-54.68-2.637-109.001-10.309-162.272-22.918
			v-18.958h93.867c23.564,0,42.667-19.103,42.667-42.667c0-23.564-19.103-42.667-42.667-42.667H17.069V358.4
			C17.069,330.583,86.585,324.284,110.935,324.267z"/>
		<path d="M196.269,452.267c0,14.138,11.462,25.6,25.6,25.6s25.6-11.462,25.6-25.6s-11.462-25.6-25.6-25.6
			C207.737,426.682,196.284,438.135,196.269,452.267z M230.402,452.267c0,4.713-3.82,8.533-8.533,8.533s-8.533-3.82-8.533-8.533
			s3.821-8.533,8.533-8.533C226.58,443.738,230.397,447.556,230.402,452.267z"/>
		<path d="M128.002,179.2v34.133c0,15.027,17.487,25.831,42.783,32.821c-0.031,0.439-0.116,0.87-0.116,1.313V281.6
			c0,29.317,66.35,42.667,128,42.667s128-13.35,128-42.667v-34.133c0-13.84-14.859-25.052-42.866-32.742
			c0.035-0.471,0.2-0.911,0.2-1.391V179.2c0-0.443-0.085-0.874-0.116-1.313c25.296-6.99,42.783-17.794,42.783-32.821v-34.133
			c0-10.936-9.145-20.115-26.993-27.409c0.874-2.137,1.347-4.416,1.393-6.724V42.667c0-29.317-66.35-42.667-128-42.667
			s-128,13.35-128,42.667V76.8c0,11.607,10.498,20.672,26.889,27.435c-0.829,2.137-1.266,4.406-1.289,6.698v34.133
			c0,0.48,0.164,0.92,0.2,1.391C142.861,154.148,128.002,165.36,128.002,179.2z M145.069,213.333v-11.379
			c5.442,3.004,11.156,5.486,17.067,7.41v15.908C150.853,220.844,145.069,216.312,145.069,213.333z M290.135,220.481v17.006
			c-7.928,0.685-16.461,1.124-25.6,1.316v-17.052C273.107,221.58,281.697,221.175,290.135,220.481z M264.535,169.22v-17.006
			c8.438,0.694,17.029,1.099,25.6,1.27v17.052C281.005,170.356,272.472,169.917,264.535,169.22z M189.182,147.945
			c-0.228-0.355-0.483-0.692-0.762-1.008c-0.391-0.551-0.627-1.197-0.684-1.87v-11.379c5.442,3.004,11.156,5.486,17.067,7.41v15.908
			C199.006,155.14,193.679,152.05,189.182,147.945z M221.869,145.897c8.005,1.835,16.637,3.306,25.6,4.476v16.929
			c-8.616-1.177-17.162-2.819-25.6-4.919V145.897z M307.202,153.484c8.571-0.171,17.162-0.576,25.6-1.27v17.006
			c-7.928,0.685-16.461,1.124-25.6,1.316V153.484z M349.869,150.373c8.964-1.17,17.596-2.641,25.6-4.476v16.485
			c-8.438,2.101-16.984,3.743-25.6,4.919V150.373z M366.935,213.333c-0.057,0.672-0.293,1.317-0.683,1.868
			c-0.281,0.316-0.536,0.654-0.764,1.01c-4.497,4.105-9.824,7.195-15.62,9.061v-15.908c5.91-1.925,11.625-4.406,17.067-7.41V213.333
			z M332.802,230.649c-8.438,2.101-16.984,3.743-25.6,4.919V218.64c8.964-1.17,17.596-2.641,25.6-4.476V230.649z M247.469,238.803
			c-9.13-0.181-17.664-0.619-25.6-1.316v-17.006c8.438,0.694,17.029,1.099,25.6,1.27V238.803z M204.802,235.568
			c-8.616-1.177-17.162-2.819-25.6-4.919v-16.485c8.005,1.835,16.637,3.306,25.6,4.476V235.568z M187.735,281.6v-11.379
			c5.442,3.004,11.156,5.486,17.067,7.41v15.908C193.519,289.11,187.735,284.579,187.735,281.6z M332.802,288.748v17.006
			c-7.928,0.685-16.461,1.124-25.6,1.316v-17.052C315.773,289.847,324.364,289.442,332.802,288.748z M375.469,282.43v16.485
			c-8.438,2.101-16.984,3.743-25.6,4.919v-16.929C358.832,285.736,367.464,284.266,375.469,282.43z M290.135,307.07
			c-9.13-0.181-17.664-0.619-25.6-1.316v-17.006c8.438,0.694,17.029,1.099,25.6,1.27V307.07z M247.469,303.835
			c-8.616-1.177-17.162-2.819-25.6-4.919V282.43c8.005,1.835,16.637,3.306,25.6,4.476V303.835z M392.535,293.54v-15.908
			c5.91-1.925,11.625-4.406,17.067-7.41V281.6C409.602,284.579,403.818,289.11,392.535,293.54z M409.602,247.467
			c0,7.658-37.742,25.6-110.933,25.6c-65.098,0-102.074-14.178-109.474-22.705c22.058,3.858,44.415,5.745,66.807,5.638
			c48.29,0,99.315-8.235,119.227-25.874C400.909,236.544,409.602,244.459,409.602,247.467z M392.535,157.006v-15.908
			c5.91-1.925,11.625-4.406,17.067-7.41v11.379C409.602,148.045,403.818,152.577,392.535,157.006z M409.602,110.933
			c0,7.658-37.742,25.6-110.933,25.6s-110.933-17.942-110.933-25.6c0.054-0.437,0.204-0.857,0.441-1.228
			c27.77,6.834,56.296,10.114,84.892,9.761c44.857,0,92.077-7.109,114.542-22.252C405.289,103.319,409.602,109.233,409.602,110.933z
			 M221.869,82.106v16.929c-8.616-1.177-17.162-2.819-25.6-4.919V77.63C204.273,79.466,212.906,80.936,221.869,82.106z
			 M307.202,83.948v17.006c-7.928,0.685-16.461,1.124-25.6,1.316V85.218C290.173,85.047,298.764,84.642,307.202,83.948z
			 M384.002,76.8c0,1.237-1.092,2.76-3.053,4.415c-0.455,0.299-0.879,0.642-1.267,1.024c-3.972,2.673-8.252,4.855-12.747,6.5V72.831
			c5.91-1.925,11.625-4.406,17.067-7.41V76.8z M349.869,94.116c-8.438,2.101-16.984,3.743-25.6,4.919V82.106
			c8.964-1.17,17.596-2.641,25.6-4.476V94.116z M264.535,102.27c-9.13-0.181-17.664-0.619-25.6-1.316V83.948
			c8.438,0.694,17.029,1.099,25.6,1.27V102.27z M273.069,17.067c73.192,0,110.933,17.942,110.933,25.6s-37.742,25.6-110.933,25.6
			s-110.933-17.942-110.933-25.6S199.877,17.067,273.069,17.067z M162.135,76.8V65.421c5.442,3.004,11.156,5.486,17.067,7.41V88.74
			C167.919,84.31,162.135,79.779,162.135,76.8z M179.443,161.859c19.912,17.639,70.936,25.875,119.226,25.875
			c22.392,0.107,44.75-1.78,66.807-5.638c-7.4,8.527-44.376,22.705-109.474,22.705c-73.192,0-110.933-17.942-110.933-25.6
			C145.069,176.192,153.762,168.277,179.443,161.859z"/>
	</g>
</g>
<g>
</g>
<g>
</g>
<g>
</g>
<g>
</g>
<g>
</g>
<g>
</g>
<g>
</g>
<g>
</g>
<g>
</g>
<g>
</g>
<g>
</g>
<g>
</g>
<g>
</g>
<g>
</g>
<g>
</g>
</svg>
