<?xml version="1.0" encoding="iso-8859-1"?>
<!-- Generator: Adobe Illustrator 19.0.0, SVG Export Plug-In . SVG Version: 6.00 Build 0)  -->
<svg version="1.1" id="Capa_1" xmlns="http://www.w3.org/2000/svg" xmlns:xlink="http://www.w3.org/1999/xlink" x="0px" y="0px"
	 viewBox="0 0 512 512" style="enable-background:new 0 0 512 512;" xml:space="preserve">
<g>
	<g transform="translate(1 1)">
		<path style="fill:#607D8B;" d="M459.8,271.868v42.667H357.4v-34.133c0.027-9.414,7.652-17.039,17.067-17.067h76.8
			C455.974,263.349,459.786,267.161,459.8,271.868z"/>
		<path style="fill:#CFD8DC;" d="M434.2,271.868v42.667h-76.8v-34.133c0.027-9.414,7.652-17.039,17.067-17.067h51.2
			C430.374,263.349,434.186,267.161,434.2,271.868z"/>
		<path style="fill:#C52828;" d="M502.467,331.601v25.6H7.533l0-25.6c-0.003-9.054,3.593-17.737,9.995-24.139
			c6.402-6.402,15.085-9.997,24.139-9.995h426.667c9.054-0.003,17.737,3.593,24.139,9.995
			C498.874,313.864,502.469,322.548,502.467,331.601z"/>
		<path style="fill:#F44335;" d="M476.867,331.601v25.6H7.533l0-25.6c-0.003-9.054,3.593-17.737,9.995-24.139
			c6.402-6.402,15.085-9.997,24.139-9.995h401.067c9.053-0.003,17.737,3.593,24.139,9.995
			C473.274,313.864,476.869,322.548,476.867,331.601z"/>
		<rect x="237.933" y="365.735" style="fill:#CFD8DC;" width="34.133" height="76.8"/>
		<path style="fill:#607D8B;" d="M220.867,425.468h68.267c9.426,0,17.067,7.641,17.067,17.067v34.133H203.8v-34.133
			C203.8,433.109,211.441,425.468,220.867,425.468z"/>
		<path style="fill:#00BCD4;" d="M203.8,126.801h34.133v68.267c0,4.713-3.821,8.533-8.533,8.533h-17.067
			c-4.713,0-8.533-3.821-8.533-8.533V126.801z"/>
		<g>
			<polygon style="fill:#607D8B;" points="61.379,108.199 7.533,161.703 7.533,89.596 26.051,71.164 			"/>
			<polygon style="fill:#607D8B;" points="220.867,24.401 113.261,24.401 126.317,67.068 169.667,67.068 			"/>
		</g>
		<circle style="fill:#F44335;" cx="220.867" cy="75.601" r="51.2"/>
		<circle style="fill:#C52828;" cx="220.867" cy="76.199" r="17.067"/>
		<circle style="fill:#F44335;" cx="75.8" cy="59.132" r="51.2"/>
		<circle style="fill:#C52828;" cx="75.8" cy="59.132" r="17.067"/>
		<path style="fill:#607D8B;" d="M502.467,340.135v25.6c-0.028,9.414-7.653,17.039-17.067,17.067H24.6
			c-9.414-0.028-17.039-7.652-17.067-17.067v-25.6H502.467z"/>
		<g>
			<path style="fill:#CFD8DC;" d="M476.867,340.135v25.6c-0.028,9.414-7.653,17.039-17.067,17.067H24.6
				c-9.414-0.028-17.039-7.652-17.067-17.067v-25.6H476.867z"/>
			<rect x="171.629" y="459.601" style="fill:#CFD8DC;" width="166.741" height="34.133"/>
		</g>
		<g>
			<circle style="fill:#607D8B;" cx="357.4" cy="476.668" r="25.6"/>
			<path style="fill:#607D8B;" d="M178.2,476.668c0.045,12.398-8.768,23.06-20.953,25.347c-12.185,2.288-24.266-4.452-28.72-16.021
				c-4.454-11.57-0.012-24.67,10.561-31.145c10.573-6.474,24.261-4.475,32.541,4.752C175.871,464.272,178.214,470.359,178.2,476.668
				z"/>
		</g>
	</g>
	<g>
		<path d="M196.267,77.201c0,14.138,11.462,25.6,25.6,25.6c14.138,0,25.6-11.462,25.6-25.6s-11.462-25.6-25.6-25.6
			C207.735,51.617,196.282,63.069,196.267,77.201z M230.4,77.201c0,4.713-3.821,8.533-8.533,8.533c-4.713,0-8.533-3.821-8.533-8.533
			s3.821-8.533,8.533-8.533C226.578,68.673,230.395,72.49,230.4,77.201z"/>
		<path d="M76.8,85.735c14.138,0,25.6-11.462,25.6-25.6s-11.462-25.6-25.6-25.6s-25.6,11.462-25.6,25.6
			C51.215,74.267,62.668,85.719,76.8,85.735z M76.8,51.601c4.713,0,8.533,3.821,8.533,8.533s-3.82,8.533-8.533,8.533
			c-4.713,0-8.533-3.821-8.533-8.533C68.271,55.424,72.089,51.606,76.8,51.601z"/>
		<path d="M2.505,84.553c-1.594,1.603-2.493,3.769-2.503,6.03L0,90.593v72.108c0,0.163,0.084,0.299,0.093,0.459
			c0.029,0.956,0.22,1.901,0.564,2.793c0.37,0.823,0.87,1.581,1.48,2.245c0.138,0.161,0.19,0.366,0.342,0.519l0.014,0.009
			c3.321,3.315,8.694,3.33,12.035,0.035l0.017-0.011l0.001-0.001l0.034-0.034l50.362-50.039
			c30.521,6.19,60.669-12.133,69.229-42.076h27.961c-0.002,16.07,6.494,31.458,18.01,42.667H179.2c-4.713,0-8.533,3.821-8.533,8.533
			s3.821,8.533,8.533,8.533h17.067v59.733c0.011,9.421,7.645,17.056,17.067,17.067v42.667c0,4.713,3.821,8.533,8.533,8.533
			c4.713,0,8.533-3.82,8.533-8.533v-42.667c9.421-0.011,17.056-7.645,17.067-17.067v-59.733h17.067c4.713,0,8.533-3.82,8.533-8.533
			s-3.82-8.533-8.533-8.533h-0.943c17.384-16.955,22.761-42.753,13.598-65.241s-31.038-37.182-55.322-37.159H117.864
			C99.414-0.923,71.645-4.9,48.944,6.998s-35.232,36.996-31.101,62.29L2.512,84.543L2.505,84.553z M230.412,196.068h-17.079v-59.733
			H230.4L230.412,196.068z M264.533,76.601c0,23.564-19.103,42.667-42.667,42.667S179.2,100.166,179.2,76.601
			s19.103-42.667,42.667-42.667C245.419,33.962,264.506,53.049,264.533,76.601z M164.649,59.535h-28.146
			c-0.09-8.883-2.177-17.632-6.105-25.6h49.745C172.891,41.016,167.56,49.826,164.649,59.535z M76.8,17.468
			c23.564,0,42.667,19.103,42.667,42.667s-19.103,42.667-42.667,42.667S34.133,83.699,34.133,60.135
			C34.161,36.582,53.247,17.496,76.8,17.468z M47.395,112.066l-30.328,30.133V94.143l6.691-6.658
			C29.098,97.789,37.307,106.327,47.395,112.066z"/>
		<path d="M469.333,289.935v-17.067c-0.011-9.421-7.645-17.056-17.067-17.067h-76.8c-14.132,0.015-25.585,11.468-25.6,25.6v8.533
			h-307.2C19.114,289.962,0.028,309.049,0,332.601v34.133c0.015,14.132,11.468,25.585,25.6,25.6h204.8v25.6h-8.533
			c-14.132,0.015-25.585,11.468-25.6,25.6v8.533h-20.374c-13.529-11.849-33.945-11.119-46.593,1.667
			c-12.648,12.786-13.157,33.208-1.163,46.608l0.068,0.062l0.041,0.054l0.082,0.059c12.38,13.895,33.679,15.126,47.577,2.749
			h160.157c13.723,12.103,34.548,11.233,47.214-1.973c12.665-13.206,12.665-34.049,0-47.255
			c-12.665-13.206-33.491-14.076-47.214-1.973h-20.328v-8.533c-0.015-14.132-11.468-25.585-25.6-25.6H281.6v-25.6h204.8
			c14.132-0.015,25.585-11.468,25.6-25.6v-34.133C511.972,309.049,492.886,289.962,469.333,289.935z M366.933,281.401
			c0.005-4.711,3.822-8.529,8.533-8.533h76.8v17.067h-85.333V281.401z M42.667,307.001h426.667
			c14.132,0.015,25.585,11.468,25.6,25.6H17.067C17.082,318.469,28.535,307.017,42.667,307.001z M325.478,469.135
			c-1.615,5.574-1.615,11.492,0,17.067H186.51c1.63-5.572,1.631-11.494,0.004-17.067H325.478z M140.896,489.01
			c-5.858-6.487-5.811-16.369,0.108-22.8c3.233-3.59,7.845-5.63,12.676-5.608c4.831,0.022,9.424,2.105,12.624,5.725
			c5.858,6.487,5.811,16.369-0.108,22.8c-3.308,3.456-7.891,5.401-12.675,5.379C148.737,494.483,144.172,492.496,140.896,489.01z
			 M375.467,477.668c0,9.426-7.641,17.067-17.067,17.067s-17.067-7.641-17.067-17.067c0-9.426,7.641-17.067,17.067-17.067
			C367.821,460.612,375.456,468.247,375.467,477.668z M298.667,443.535v8.533h-85.333v-8.533c0.005-4.711,3.822-8.529,8.533-8.533
			h68.267C294.844,435.006,298.662,438.824,298.667,443.535z M264.533,417.935h-17.067v-25.6h17.067V417.935z M486.4,375.268H25.6
			c-4.711-0.005-8.529-3.822-8.533-8.533v-17.067h477.867v17.067C494.929,371.446,491.111,375.263,486.4,375.268z"/>
	</g>
</g>
<g>
</g>
<g>
</g>
<g>
</g>
<g>
</g>
<g>
</g>
<g>
</g>
<g>
</g>
<g>
</g>
<g>
</g>
<g>
</g>
<g>
</g>
<g>
</g>
<g>
</g>
<g>
</g>
<g>
</g>
</svg>
