<?xml version="1.0" encoding="iso-8859-1"?>
<!-- Generator: Adobe Illustrator 19.0.0, SVG Export Plug-In . SVG Version: 6.00 Build 0)  -->
<svg version="1.1" id="Capa_1" xmlns="http://www.w3.org/2000/svg" xmlns:xlink="http://www.w3.org/1999/xlink" x="0px" y="0px"
	 viewBox="0 0 512.037 512.037" style="enable-background:new 0 0 512.037 512.037;" xml:space="preserve">
<g>
	<g transform="translate(1 1)">
		<g>
			<path style="fill:#607D8B;" d="M243.053,242.443l59.733-44.8c2.149-1.612,3.413-4.141,3.413-6.827V135.35
				c0.013-4.526-1.802-8.865-5.035-12.032l-31.488-31.659l-20.821,27.392l20.733,20.886c1.587,1.598,2.477,3.759,2.477,6.012v27.806
				c0,2.683-1.262,5.21-3.407,6.822l-28.166,21.163H201.24l-28.166-21.163c-2.145-1.612-3.407-4.139-3.407-6.822v-27.806
				c0-2.252,0.891-4.413,2.477-6.012l20.733-20.886l-20.821-27.392l-31.488,31.659c-3.232,3.167-5.048,7.506-5.035,12.032v55.467
				c0,2.686,1.265,5.215,3.413,6.827l59.733,44.8H243.053z"/>
			<polygon style="fill:#607D8B;" points="61.379,108.214 7.533,161.718 7.533,89.611 26.051,71.179 			"/>
			<polygon style="fill:#607D8B;" points="220.867,24.416 113.261,24.416 126.317,67.083 169.667,67.083 			"/>
		</g>
		<circle style="fill:#2296F3;" cx="220.867" cy="75.616" r="51.2"/>
		<circle style="fill:#3F51B5;" cx="220.867" cy="76.214" r="17.067"/>
		<circle style="fill:#2296F3;" cx="75.8" cy="59.147" r="51.2"/>
		<circle style="fill:#3F51B5;" cx="75.8" cy="59.147" r="17.067"/>
		<g>
			<path style="fill:#FEC108;" d="M220.867,297.483c-6.444,0.206-12.687-2.26-17.25-6.815c-4.563-4.555-7.041-10.793-6.847-17.237
				l6.028-96.454c0.858-9.266,8.758-16.277,18.06-16.027h0.017c9.302-0.25,17.202,6.761,18.059,16.027l6.028,96.454
				c0.194,6.444-2.283,12.683-6.847,17.237C233.553,295.223,227.311,297.689,220.867,297.483z"/>
			<path style="fill:#FEC108;" d="M244.931,273.419c0,13.29-10.774,24.064-24.064,24.064c-13.29,0-24.064-10.774-24.064-24.064
				l0.597-10.069h46.933L244.931,273.419z"/>
		</g>
		<g>
			<path style="fill:#795548;" d="M383,441.065l-47.275,52.693c-2.263,3.917-5.989,6.774-10.359,7.943
				c-4.37,1.169-9.025,0.554-12.942-1.71c-8.151-4.712-10.942-15.138-6.234-23.292L383,391.35h34.133l76.81,85.349
				c4.708,8.154,1.917,18.58-6.234,23.292c-3.916,2.264-8.572,2.879-12.942,1.71s-8.096-4.026-10.359-7.943l-47.275-52.693H383z"/>
			<path style="fill:#795548;" d="M417.133,288.95v196.267c0,9.426-7.641,17.067-17.067,17.067S383,494.642,383,485.216V323.083
				L417.133,288.95z"/>
		</g>
		<path style="fill:#607D8B;" d="M432.412,239.522l24.136,24.136c3.332,3.332,3.332,8.736,0,12.068l-98.866,98.866
			c-3.332,3.332-8.736,3.332-12.068,0l-24.136-24.136L432.412,239.522z"/>
		<path style="fill:#CFD8DC;" d="M487.943,159.878l12.068,12.068c3.332,3.332,3.332,8.736,0,12.068L271.341,412.684
			c-3.332,3.332-8.736,3.332-12.068,0l-12.068-12.068c-3.332-3.332-3.332-8.736,0-12.068l228.671-228.671
			C479.208,156.545,484.611,156.545,487.943,159.878z"/>
		<path style="fill:#4CAF50;" d="M196.436,365.75c9.295-9.85,15.931-26.955,7.478-38.246c-3.408-4.552-7.6-7.404-7.6-12.933
			c0-9.398,10.949-17.088,24.33-17.088c7.044-0.601,13.993,1.952,18.974,6.969c4.981,5.017,7.482,11.984,6.83,19.024
			c-0.508,13.905-11.993,24.932-27.423,33.067c-4.817,2.522-9.79,4.733-14.89,6.619C201.479,363.733,198.897,364.601,196.436,365.75
			z"/>
	</g>
	<g>
		<path d="M196.267,77.216c0,14.138,11.462,25.6,25.6,25.6c14.138,0,25.6-11.462,25.6-25.6s-11.462-25.6-25.6-25.6
			C207.735,51.632,196.282,63.084,196.267,77.216z M230.4,77.216c0,4.713-3.821,8.533-8.533,8.533c-4.713,0-8.533-3.82-8.533-8.533
			c0-4.713,3.821-8.533,8.533-8.533C226.578,68.688,230.395,72.506,230.4,77.216z"/>
		<path d="M76.8,85.75c14.138,0,25.6-11.462,25.6-25.6s-11.462-25.6-25.6-25.6s-25.6,11.462-25.6,25.6
			C51.215,74.282,62.668,85.734,76.8,85.75z M76.8,51.616c4.713,0,8.533,3.821,8.533,8.533s-3.82,8.533-8.533,8.533
			c-4.713,0-8.533-3.821-8.533-8.533C68.271,55.439,72.089,51.621,76.8,51.616z"/>
		<path d="M0,90.608v72.108c0,0.163,0.084,0.299,0.093,0.459c0.029,0.956,0.22,1.901,0.564,2.793c0.37,0.823,0.87,1.581,1.48,2.245
			c0.138,0.161,0.19,0.366,0.342,0.519l0.014,0.009c3.321,3.315,8.694,3.33,12.035,0.035l0.017-0.011l0.001-0.001l0.034-0.034
			l50.362-50.039c30.521,6.19,60.669-12.133,69.229-42.076h27.961c0.014,4.496,0.537,8.977,1.559,13.355l-28.08,28.237
			c-4.867,4.782-7.61,11.318-7.613,18.141v55.467c0.013,5.367,2.539,10.419,6.825,13.65l56.078,42.058l-1.648,26.375
			c-0.527,8.41,2.484,16.657,8.304,22.75c0.242,0.258,0.549,0.44,0.799,0.689c-5.879,4.237-9.426,10.99-9.579,18.236
			c0.259,5.818,2.774,11.306,7.013,15.3c0.758,0.858,1.55,1.75,2.292,2.742c5.158,6.892,0.467,19.508-6.842,27.267l-0.017,0.009
			c-2.979,3.157-3.113,8.047-0.313,11.363c2.8,3.316,7.644,4.003,11.255,1.595c0.787-0.275,1.833-0.517,2.738-0.758
			c1.354-0.35,2.546-0.692,3.209-0.933c5.442-2.015,10.75-4.375,15.892-7.067c25.7-13.55,31.571-29.4,31.971-40.308
			c0.495-9.236-2.759-18.28-9.025-25.083c-0.61-0.633-1.314-1.282-2.074-1.931c0.414-0.396,0.905-0.7,1.298-1.119
			c5.821-6.093,8.831-14.34,8.304-22.75l-1.648-26.375l56.073-42.058c4.289-3.229,6.816-8.281,6.829-13.65V136.35
			c0.006-6.779-2.701-13.279-7.517-18.05l-28.176-28.329c4.14-17.73-0.059-36.379-11.397-50.624
			c-11.338-14.245-28.57-22.521-46.777-22.464H117.864C99.414-0.908,71.645-4.885,48.944,7.013s-35.232,36.996-31.101,62.29
			L2.512,84.558l-0.007,0.01c-1.594,1.603-2.493,3.769-2.503,6.03L0,90.608z M247.971,130.261l16.563,16.689v27.8l-15.522,11.665
			l-0.561-8.973c-1.383-13.644-12.87-24.025-26.583-24.025c-13.713,0-25.2,10.382-26.583,24.025l-0.561,8.977l-15.522-11.66v-27.817
			l16.561-16.681C212.218,138.379,231.515,138.38,247.971,130.261z M237.446,274.966c0.212,3.705-1.132,7.329-3.708,10
			c-6.647,6.333-17.095,6.333-23.742,0c-2.576-2.671-3.921-6.295-3.708-10l0.13-2.083h30.898L237.446,274.966z M207.484,255.816
			l4.832-77.308c0.811-4.64,4.84-8.025,9.55-8.025c4.71,0,8.739,3.385,9.55,8.025l4.832,77.308H207.484z M145.067,191.816V136.35
			c0.002-2.268,0.921-4.438,2.55-6.017l23.025-23.15c2.948,4.921,6.586,9.394,10.803,13.283l-14.357,14.459
			c-3.184,3.191-4.966,7.518-4.954,12.025v27.809c0.012,5.364,2.534,10.412,6.817,13.642l24.498,18.41l-1.271,20.34L145.067,191.816
			z M216.254,349.883c2.614-9.059,0.953-18.816-4.513-26.5c-1.017-1.358-2.088-2.592-3.129-3.775
			c-2.108-2.4-2.767-3.275-2.767-4.033c0-3.958,6.9-8.558,15.8-8.558c4.777-0.351,9.487,1.287,13.017,4.525
			c3.009,3.493,4.536,8.023,4.254,12.625C238.496,335.691,226.417,344.491,216.254,349.883z M296.212,130.425
			c1.577,1.568,2.461,3.701,2.454,5.925v55.467l-47.11,35.332l-1.271-20.34l24.49-18.409c4.287-3.226,6.814-8.276,6.825-13.641
			V146.95c0.013-4.508-1.772-8.836-4.958-12.025l-14.354-14.458c4.217-3.89,7.855-8.363,10.803-13.285L296.212,130.425z
			 M264.533,76.616c0,23.564-19.103,42.667-42.667,42.667S179.2,100.181,179.2,76.616s19.103-42.667,42.667-42.667
			C245.419,33.977,264.506,53.064,264.533,76.616z M164.649,59.55h-28.146c-0.09-8.883-2.177-17.632-6.105-25.6h49.745
			C172.891,41.031,167.56,49.841,164.649,59.55z M76.8,17.483c23.564,0,42.667,19.103,42.667,42.667s-19.103,42.667-42.667,42.667
			S34.133,83.714,34.133,60.15C34.161,36.597,53.247,17.511,76.8,17.483z M47.395,112.081l-30.328,30.133V94.158l6.691-6.658
			C29.098,97.804,37.307,106.342,47.395,112.081z"/>
		<path d="M494.971,154.842c-6.67-6.65-17.463-6.65-24.133,0L242.167,383.516c-6.654,6.668-6.654,17.465,0,24.133l12.067,12.066
			c3.2,3.201,7.54,5,12.067,5s8.867-1.799,12.067-5l50.167-50.166l12.066,12.066c6.669,6.656,17.468,6.656,24.138,0l10.729-10.728
			v11.439c-0.426,1.503-0.426,3.095,0,4.598v2.152l-74.621,82.914c-0.399,0.442-0.751,0.926-1.05,1.442
			c-4.556,7.914-4.554,17.654,0.005,25.566s12.985,12.798,22.116,12.826c2.247-0.002,4.483-0.296,6.654-0.875
			c6.24-1.654,11.618-5.619,15.042-11.092l31.854-35.503v21.861c0,9.146,4.879,17.597,12.8,22.17c7.921,4.573,17.679,4.573,25.6,0
			c7.921-4.573,12.8-13.024,12.8-22.17v-21.861l31.854,35.503c3.424,5.473,8.802,9.438,15.042,11.092
			c2.171,0.578,4.408,0.873,6.654,0.875c9.133-0.023,17.563-4.909,22.122-12.822s4.559-17.656-0.001-25.569
			c-0.298-0.516-0.65-0.999-1.05-1.442l-74.621-82.915V319.69l36.933-36.932c6.658-6.67,6.658-17.472,0-24.142l-12.065-12.065
			l55.503-55.502c6.665-6.667,6.667-17.473,0.004-24.142L494.971,154.842z M330.375,489.058c-0.396,0.44-0.743,0.92-1.038,1.434
			c-2.285,3.946-7.27,5.395-11.313,3.288c-4.044-2.106-5.714-7.021-3.791-11.155l61.233-68.039V438.8L330.375,489.058z
			 M487.9,482.625c1.858,4.006,0.357,8.768-3.463,10.983c-4.076,2.349-9.284,0.955-11.642-3.117
			c-0.294-0.513-0.642-0.994-1.037-1.434L426.667,438.8v-24.214L487.9,482.625z M409.6,486.216c0,4.713-3.821,8.533-8.533,8.533
			s-8.533-3.82-8.533-8.533V353.822l17.067-17.066V486.216z M451.533,270.691l-98.858,98.867L340.6,357.483l98.868-98.865
			L451.533,270.691z M433.447,240.508l-0.014,0.009L322.5,351.45l-0.025,0.038l-56.167,56.172l-12.075-12.075l228.671-228.676
			l12.071,12.067L433.447,240.508z"/>
	</g>
</g>
<g>
</g>
<g>
</g>
<g>
</g>
<g>
</g>
<g>
</g>
<g>
</g>
<g>
</g>
<g>
</g>
<g>
</g>
<g>
</g>
<g>
</g>
<g>
</g>
<g>
</g>
<g>
</g>
<g>
</g>
</svg>
