<?xml version="1.0" encoding="iso-8859-1"?>
<!-- Generator: Adobe Illustrator 19.0.0, SVG Export Plug-In . SVG Version: 6.00 Build 0)  -->
<svg version="1.1" id="Capa_1" xmlns="http://www.w3.org/2000/svg" xmlns:xlink="http://www.w3.org/1999/xlink" x="0px" y="0px"
	 viewBox="0 0 512 512" style="enable-background:new 0 0 512 512;" xml:space="preserve">
<g>
	<g transform="translate(1 1)">
		<path style="fill:#607D8B;" d="M212.333,152.6v298.667c0,28.245-45.824,51.2-102.4,51.2c-4.352,0-8.619-0.171-12.8-0.427
			c-50.517-3.157-89.6-24.661-89.6-50.773V152.6H212.333z"/>
		<path style="fill:#CFD8DC;" d="M186.733,152.6v298.667c0,26.112-39.083,47.616-89.6,50.773c-50.517-3.157-89.6-24.661-89.6-50.773
			V152.6H186.733z"/>
		<path style="fill:#00838F;" d="M212.333,289.133v110.933c0,13.056-9.643,24.917-25.6,33.877V323.011
			C202.691,314.051,212.333,302.189,212.333,289.133z"/>
		<path style="fill:#00BCD4;" d="M186.733,323.011v110.933c-23.775,12.031-50.162,17.983-76.8,17.323
			c-56.576,0-102.4-22.955-102.4-51.2V289.133c0,28.245,45.824,51.2,102.4,51.2C136.571,340.994,162.958,335.042,186.733,323.011z"
			/>
		<path style="fill:#009688;" d="M502.467,16.067v153.6c-0.014,4.707-3.826,8.519-8.533,8.533H331.8l-35.84,56.32
			c-2.203,2.941-6.041,4.141-9.526,2.979c-3.486-1.162-5.836-4.425-5.834-8.099v-51.2H255c-4.707-0.014-8.519-3.826-8.533-8.533
			v-153.6c0.014-4.707,3.826-8.519,8.533-8.533h238.933C498.64,7.547,502.453,11.36,502.467,16.067z"/>
		<path style="fill:#607D8B;" d="M212.333,152.6c0,28.245-45.824,51.2-102.4,51.2c-4.352,0-8.619-0.171-12.8-0.427
			c-50.517-3.157-89.6-24.661-89.6-50.773s39.083-47.616,89.6-50.773c4.181-0.256,8.448-0.427,12.8-0.427
			C166.509,101.4,212.333,124.355,212.333,152.6z"/>
		<ellipse style="fill:#CFD8DC;" cx="97.133" cy="152.6" rx="89.6" ry="50.773"/>
		<g>
			<ellipse style="fill:#00BCD4;" cx="67.267" cy="152.6" rx="25.6" ry="17.067"/>
			<ellipse style="fill:#00BCD4;" cx="152.6" cy="152.6" rx="25.6" ry="17.067"/>
		</g>
		<path style="fill:#00695C;" d="M502.467,16.067v153.6c-0.014,4.707-3.826,8.519-8.533,8.533h-25.6
			c4.707-0.014,8.519-3.826,8.533-8.533v-153.6c-0.014-4.707-3.826-8.519-8.533-8.533h25.6
			C498.64,7.547,502.453,11.36,502.467,16.067z"/>
	</g>
	<g>
		<path d="M494.933,0H256c-9.421,0.011-17.056,7.645-17.067,17.067v153.6c0.011,9.421,7.645,17.056,17.067,17.067h17.067V230.4
			c-0.074,7.364,4.644,13.922,11.65,16.192c7.203,2.446,15.154-0.208,19.442-6.492l33.325-52.367h157.45
			c9.421-0.011,17.056-7.645,17.067-17.067v-153.6C511.989,7.645,504.355,0.011,494.933,0z M494.933,170.667H332.8
			c-2.917,0.001-5.632,1.49-7.2,3.95L290.133,230.4v-51.2c0.001-2.263-0.898-4.434-2.499-6.035c-1.6-1.6-3.771-2.499-6.035-2.499
			H256v-153.6l238.933,0.025V170.667z"/>
		<path d="M110.933,512c62.204,0,110.933-26.242,110.933-59.733V153.6c0-33.492-48.729-59.733-110.933-59.733S0,120.108,0,153.6
			v298.667C0,485.758,48.729,512,110.933,512z M204.8,290.133c0,20.183-38.55,42.667-93.867,42.667s-93.867-22.483-93.867-42.667
			V185.757c19.474,16.674,53.835,27.576,93.867,27.576s74.393-10.902,93.867-27.576V290.133z M110.933,349.867
			c40.031,0,74.393-10.902,93.867-27.576v78.776c0,20.183-38.55,42.667-93.867,42.667s-93.867-22.483-93.867-42.667v-78.776
			C36.541,338.965,70.902,349.867,110.933,349.867z M110.933,494.933c-55.317,0-93.867-22.483-93.867-42.667v-19.043
			c19.474,16.674,53.835,27.576,93.867,27.576s74.393-10.902,93.867-27.576v19.043C204.8,472.45,166.25,494.933,110.933,494.933z
			 M110.933,110.933c55.317,0,93.867,22.483,93.867,42.667s-38.55,42.667-93.867,42.667S17.067,173.783,17.067,153.6
			S55.617,110.933,110.933,110.933z"/>
		<path d="M42.667,375.467c1.115-0.014,2.216-0.246,3.242-0.683c1.034-0.432,1.987-1.038,2.817-1.791
			c2.444-2.441,3.154-6.125,1.792-9.3c-0.413-1.044-1.021-2-1.792-2.817c-2.453-2.425-6.126-3.133-9.304-1.792
			c-1.033,0.433-1.984,1.039-2.813,1.792c-0.773,0.815-1.383,1.772-1.796,2.817c-1.122,2.625-0.844,5.638,0.74,8.013
			C37.137,374.079,39.812,375.494,42.667,375.467z"/>
		<path d="M36.608,407.125c2.441,2.444,6.125,3.154,9.3,1.792c1.034-0.433,1.987-1.039,2.817-1.792
			c0.751-0.832,1.357-1.784,1.792-2.817c0.437-1.026,0.669-2.127,0.683-3.242c-0.033-2.259-0.917-4.422-2.475-6.059
			c-2.453-2.425-6.126-3.133-9.304-1.792c-1.044,0.412-1.998,1.02-2.813,1.792c-1.56,1.635-2.444,3.799-2.475,6.059
			c0.012,1.115,0.243,2.216,0.679,3.242C35.247,405.342,35.855,406.295,36.608,407.125z"/>
		<path d="M73.554,383.317c2.067,0.911,4.421,0.911,6.487,0c1.034-0.432,1.987-1.038,2.817-1.791
			c1.604-1.606,2.496-3.789,2.475-6.059c0.02-3.467-2.059-6.601-5.261-7.931c-3.202-1.329-6.89-0.59-9.331,1.872
			c-1.559,1.635-2.443,3.799-2.475,6.059c-0.023,2.27,0.869,4.454,2.475,6.059C71.57,382.278,72.521,382.884,73.554,383.317z"/>
		<path d="M73.554,417.45c3.175,1.363,6.861,0.655,9.304-1.788c2.444-2.443,3.153-6.128,1.791-9.304
			c-1.031-2.685-3.362-4.656-6.181-5.227c-2.819-0.571-5.733,0.338-7.728,2.41c-1.559,1.635-2.443,3.799-2.475,6.059
			c-0.023,2.27,0.869,4.454,2.475,6.059C71.57,416.412,72.521,417.018,73.554,417.45z"/>
		<path d="M179.2,375.467c2.27,0.022,4.453-0.87,6.058-2.475c1.605-1.605,2.497-3.788,2.475-6.058
			c-0.033-2.259-0.917-4.422-2.475-6.059c-2.016-2-4.895-2.866-7.679-2.308c-0.566,0.083-1.115,0.257-1.625,0.517
			c-0.543,0.185-1.059,0.443-1.533,0.767c-0.447,0.315-0.875,0.657-1.28,1.025c-0.773,0.815-1.383,1.772-1.796,2.817
			c-1.122,2.625-0.844,5.639,0.74,8.013S176.346,375.494,179.2,375.467z"/>
		<path d="M173.141,407.125c2.441,2.462,6.129,3.201,9.331,1.872s5.281-4.464,5.261-7.931c0-4.713-3.82-8.533-8.533-8.533
			s-8.533,3.82-8.533,8.533c0.012,1.115,0.243,2.216,0.679,3.242C171.781,405.342,172.388,406.295,173.141,407.125z"/>
		<path d="M145.067,384c2.855,0.03,5.532-1.385,7.115-3.761s1.86-5.39,0.735-8.014c-1.031-2.685-3.362-4.656-6.181-5.227
			s-5.733,0.338-7.728,2.41c-1.559,1.635-2.443,3.799-2.475,6.059c-0.022,2.27,0.87,4.453,2.475,6.058
			C140.613,383.13,142.797,384.022,145.067,384z"/>
		<path d="M145.067,418.133c2.27,0.022,4.453-0.87,6.058-2.475c1.605-1.605,2.497-3.788,2.475-6.058
			c0.029-1.119-0.205-2.23-0.683-3.242c-0.433-1.034-1.039-1.986-1.792-2.817c-2.441-2.461-6.129-3.201-9.33-1.871
			c-3.201,1.329-5.281,4.463-5.261,7.93c-0.022,2.27,0.87,4.453,2.475,6.058C140.613,417.263,142.797,418.155,145.067,418.133z"/>
		<path d="M110.933,388.267c2.27,0.022,4.453-0.87,6.058-2.475c1.605-1.605,2.497-3.788,2.475-6.058
			c0-4.713-3.821-8.533-8.533-8.533c-4.713,0-8.533,3.821-8.533,8.533c-0.022,2.27,0.87,4.453,2.475,6.058
			C106.48,387.397,108.663,388.289,110.933,388.267z"/>
		<path d="M110.933,422.4c2.855,0.03,5.532-1.385,7.115-3.761c1.584-2.376,1.86-5.39,0.735-8.014
			c-0.433-1.034-1.039-1.986-1.792-2.817c-2.441-2.461-6.129-3.201-9.33-1.871c-3.201,1.329-5.281,4.463-5.261,7.93
			c-0.022,2.27,0.87,4.453,2.475,6.058C106.48,421.53,108.663,422.422,110.933,422.4z"/>
		<path d="M68.267,179.2c19.142,0,34.133-11.242,34.133-25.6S87.408,128,68.267,128s-34.133,11.242-34.133,25.6
			S49.125,179.2,68.267,179.2z M68.267,145.067c10.417,0,17.067,5.05,17.067,8.533c0,3.483-6.65,8.533-17.067,8.533
			S51.2,157.083,51.2,153.6C51.2,150.117,57.85,145.067,68.267,145.067z"/>
		<path d="M153.6,179.2c19.142,0,34.133-11.242,34.133-25.6S172.742,128,153.6,128s-34.133,11.242-34.133,25.6
			S134.458,179.2,153.6,179.2z M153.6,145.067c10.417,0,17.067,5.05,17.067,8.533c0,3.483-6.65,8.533-17.067,8.533
			c-10.417,0-17.067-5.05-17.067-8.533C136.533,150.117,143.183,145.067,153.6,145.067z"/>
		<path d="M290.133,110.933c2.263,0.001,4.434-0.898,6.035-2.499c1.6-1.6,2.499-3.771,2.499-6.035V85.333
			c0-4.713-3.821-8.533-8.533-8.533c-4.713,0-8.533,3.821-8.533,8.533V102.4c-0.001,2.263,0.898,4.434,2.499,6.035
			S287.87,110.934,290.133,110.933z"/>
		<path d="M426.667,110.933c2.263,0.001,4.434-0.898,6.035-2.499c1.6-1.6,2.499-3.771,2.499-6.035V85.333
			c0-4.713-3.82-8.533-8.533-8.533s-8.533,3.821-8.533,8.533V102.4c-0.001,2.263,0.898,4.434,2.499,6.035
			C422.233,110.035,424.403,110.934,426.667,110.933z"/>
		<path d="M460.8,110.933c2.263,0.001,4.434-0.898,6.035-2.499c1.6-1.6,2.499-3.771,2.499-6.035V85.333
			c0-4.713-3.82-8.533-8.533-8.533s-8.533,3.821-8.533,8.533V102.4c-0.001,2.263,0.898,4.434,2.499,6.035
			C456.366,110.035,458.537,110.934,460.8,110.933z"/>
		<path d="M324.267,119.467c2.263,0.001,4.434-0.898,6.035-2.499c1.6-1.6,2.499-3.771,2.499-6.035V76.8
			c0-4.713-3.82-8.533-8.533-8.533s-8.533,3.821-8.533,8.533v34.133c-0.001,2.263,0.898,4.434,2.499,6.035
			C319.832,118.568,322.003,119.467,324.267,119.467z"/>
		<path d="M392.533,119.467c2.263,0.001,4.434-0.898,6.035-2.499c1.6-1.6,2.499-3.771,2.499-6.035V76.8
			c0-4.713-3.82-8.533-8.533-8.533S384,72.087,384,76.8v34.133c-0.001,2.263,0.898,4.434,2.499,6.035
			C388.099,118.568,390.27,119.467,392.533,119.467z"/>
		<path d="M358.4,136.533c2.263,0.001,4.434-0.898,6.035-2.499c1.6-1.6,2.499-3.771,2.499-6.035V59.733
			c0-4.713-3.82-8.533-8.533-8.533s-8.533,3.821-8.533,8.533V128c-0.001,2.263,0.898,4.434,2.499,6.035
			C353.966,135.635,356.137,136.534,358.4,136.533z"/>
	</g>
</g>
<g>
</g>
<g>
</g>
<g>
</g>
<g>
</g>
<g>
</g>
<g>
</g>
<g>
</g>
<g>
</g>
<g>
</g>
<g>
</g>
<g>
</g>
<g>
</g>
<g>
</g>
<g>
</g>
<g>
</g>
</svg>
