<?xml version="1.0" encoding="iso-8859-1"?>
<!-- Generator: Adobe Illustrator 19.0.0, SVG Export Plug-In . SVG Version: 6.00 Build 0)  -->
<svg version="1.1" id="Capa_1" xmlns="http://www.w3.org/2000/svg" xmlns:xlink="http://www.w3.org/1999/xlink" x="0px" y="0px"
	 viewBox="0 0 512 512" style="enable-background:new 0 0 512 512;" xml:space="preserve">
<g>
	<g transform="translate(1 1)">
		<g>
			<rect x="417.133" y="131.267" style="fill:#4CAF50;" width="51.2" height="102.4"/>
			<rect x="417.133" y="353.133" style="fill:#4CAF50;" width="51.2" height="110.933"/>
		</g>
		<g>
			<path style="fill:#00695C;" d="M365.933,37.4H485.4c9.426,0,17.067,7.641,17.067,17.067V139.8
				c0,9.426-7.641,17.067-17.067,17.067H365.933c-9.426,0-17.067-7.641-17.067-17.067V54.467
				C348.867,45.041,356.508,37.4,365.933,37.4z"/>
			<path style="fill:#00695C;" d="M502.467,225.133v128c-0.028,9.414-7.653,17.039-17.067,17.067h-85.333
				c-7.635-0.015-14.328-5.105-16.383-12.459L383,301.933v-76.8c0.027-9.414,7.652-17.039,17.067-17.067H485.4
				C494.814,208.094,502.439,215.719,502.467,225.133z"/>
			<path style="fill:#00695C;" d="M485.4,455.533v34.133c-0.014,4.707-3.826,8.52-8.533,8.533h-102.4
				c-4.707-0.014-8.52-3.826-8.533-8.533V472.6c-0.009-6.792,2.685-13.309,7.488-18.112c4.803-4.803,11.32-7.497,18.112-7.488
				h85.333C481.574,447.014,485.386,450.826,485.4,455.533z"/>
		</g>
		<g>
			<path style="fill:#009688;" d="M365.933,37.4H459.8c9.426,0,17.067,7.641,17.067,17.067V139.8
				c0,9.426-7.641,17.067-17.067,17.067h-93.867c-9.426,0-17.067-7.641-17.067-17.067V54.467
				C348.867,45.041,356.508,37.4,365.933,37.4z"/>
			<path style="fill:#009688;" d="M476.867,225.133v128c-0.028,9.414-7.653,17.039-17.067,17.067h-59.733
				c-7.635-0.015-14.328-5.105-16.383-12.459L383,301.933v-76.8c0.027-9.414,7.652-17.039,17.067-17.067H459.8
				C469.214,208.094,476.839,215.719,476.867,225.133z"/>
			<path style="fill:#009688;" d="M459.8,455.533v34.133c-0.014,4.707-3.826,8.52-8.533,8.533h-76.8
				c-4.707-0.014-8.52-3.826-8.533-8.533V472.6c-0.009-6.792,2.685-13.309,7.488-18.112c4.803-4.803,11.32-7.497,18.112-7.488
				h59.733C455.974,447.014,459.786,450.826,459.8,455.533z"/>
		</g>
		<g>
			<rect x="41.667" y="353.133" style="fill:#2296F3;" width="51.2" height="110.933"/>
			<rect x="41.667" y="131.267" style="fill:#2296F3;" width="51.2" height="102.4"/>
		</g>
		<path style="fill:#0377BC;" d="M24.6,37.4h119.467c9.426,0,17.067,7.641,17.067,17.067V139.8c0,9.426-7.641,17.067-17.067,17.067
			H24.6c-9.426,0-17.067-7.641-17.067-17.067V54.467C7.533,45.041,15.174,37.4,24.6,37.4z"/>
		<path style="fill:#02A9F4;" d="M24.6,37.4h93.867c9.426,0,17.067,7.641,17.067,17.067V139.8c0,9.426-7.641,17.067-17.067,17.067
			H24.6c-9.426,0-17.067-7.641-17.067-17.067V54.467C7.533,45.041,15.174,37.4,24.6,37.4z"/>
		<g>
			<path style="fill:#FFEB3A;" d="M161.133,122.733V139.8c-0.028,9.414-7.653,17.039-17.067,17.067h-34.133v-25.6
				c0.014-4.707,3.826-8.52,8.533-8.533H161.133z"/>
			<path style="fill:#FFEB3A;" d="M348.867,122.733V139.8c0.028,9.414,7.652,17.039,17.067,17.067h34.133v-25.6
				c-0.014-4.707-3.826-8.52-8.533-8.533H348.867z"/>
			<circle style="fill:#FFEB3A;" cx="58.733" cy="88.6" r="17.067"/>
		</g>
		<path style="fill:#0377BC;" d="M127,225.133v76.8l-0.683,55.808c-2.055,7.353-8.748,12.443-16.383,12.459H24.6
			c-9.414-0.028-17.039-7.652-17.067-17.067v-128c0.028-9.414,7.652-17.039,17.067-17.067h85.333
			C119.348,208.094,126.973,215.719,127,225.133z"/>
		<path style="fill:#02A9F4;" d="M101.4,225.133v76.8l-0.683,55.808c-2.055,7.353-8.748,12.443-16.383,12.459H24.6
			c-9.414-0.028-17.039-7.652-17.067-17.067v-128c0.028-9.414,7.652-17.039,17.067-17.067h59.733
			C93.748,208.094,101.372,215.719,101.4,225.133z"/>
		<path style="fill:#0377BC;" d="M144.067,472.6v17.067c-0.014,4.707-3.826,8.52-8.533,8.533h-102.4
			c-4.707-0.014-8.52-3.826-8.533-8.533v-34.133c0.014-4.707,3.826-8.52,8.533-8.533h85.333c6.792-0.009,13.309,2.685,18.112,7.488
			C141.382,459.291,144.076,465.808,144.067,472.6z"/>
		<path style="fill:#02A9F4;" d="M118.467,472.6v17.067c-0.014,4.707-3.826,8.52-8.533,8.533h-76.8
			c-4.707-0.014-8.52-3.826-8.533-8.533v-34.133c0.014-4.707,3.826-8.52,8.533-8.533h59.733c6.792-0.009,13.309,2.685,18.112,7.488
			C115.782,459.291,118.476,465.808,118.467,472.6z"/>
		<path style="fill:#2296F3;" d="M160.195,368.323c-0.267-0.046-0.526-0.133-0.768-0.256l-90.795-32.085l15.701-34.048
			l93.867,18.432l-0.085,0.171L160.195,368.323z"/>
		<g>
			<circle style="fill:#CFD8DC;" cx="169.667" cy="344.6" r="25.6"/>
			<path style="fill:#CFD8DC;" d="M306.2,20.333v51.2c0,4.713-3.82,8.533-8.533,8.533H229.4L195.267,114.2V20.333
				c0-4.713,3.821-8.533,8.533-8.533h93.867C302.38,11.8,306.2,15.621,306.2,20.333z"/>
		</g>
		<path style="fill:#4CAF50;" d="M203.8,216.6v-51.2c0-4.713,3.82-8.533,8.533-8.533H280.6l34.133-34.133V216.6
			c0,4.713-3.82,8.533-8.533,8.533h-93.867C207.621,225.133,203.8,221.313,203.8,216.6z"/>
		<path style="fill:#2296F3;" d="M92.867,310.467v-76.8c0-14.138-11.462-25.6-25.6-25.6s-25.6,11.462-25.6,25.6v76.8H92.867z"/>
		<circle style="fill:#CFD8DC;" cx="67.267" cy="310.467" r="25.6"/>
		<circle style="fill:#FFEB3A;" cx="451.267" cy="88.6" r="17.067"/>
		<path style="fill:#4CAF50;" d="M349.805,322.627c0.267-0.046,0.526-0.133,0.768-0.256l90.795,13.611l-24.235-34.048L383,289.133
			l-26.197-9.813L349.805,322.627z"/>
		<circle style="fill:#CFD8DC;" cx="340.333" cy="298.904" r="25.6"/>
		<path style="fill:#4CAF50;" d="M417.135,310.467v-76.8c0-14.138,11.461-25.6,25.6-25.6c14.138,0,25.6,11.462,25.6,25.6v76.8
			H417.135z"/>
		<circle style="fill:#CFD8DC;" cx="442.733" cy="310.467" r="25.6"/>
	</g>
	<g>
		<path d="M85.333,89.6c0-14.138-11.462-25.6-25.6-25.6s-25.6,11.462-25.6,25.6s11.462,25.6,25.6,25.6
			C73.865,115.185,85.318,103.732,85.333,89.6z M51.2,89.6c0-4.713,3.821-8.533,8.533-8.533s8.533,3.82,8.533,8.533
			c0,4.713-3.821,8.533-8.533,8.533C55.022,98.13,51.203,94.312,51.2,89.6z"/>
		<path d="M25.6,379.733h8.533v59.733c-9.421,0.012-17.054,7.646-17.067,17.067v34.133c0.012,9.421,7.646,17.054,17.067,17.067
			h102.4c9.421-0.012,17.054-7.646,17.067-17.067V473.6c-0.019-18.844-15.29-34.115-34.133-34.133H102.4v-59.733h8.533
			c8.611-0.019,16.634-4.369,21.348-11.575l24.935,8.808l0.066,0.021c7.276,3.196,15.471,3.618,23.036,1.186
			c7.631,11.698,21.585,17.611,35.298,14.959l25-5.033c4.613-0.937,7.597-5.432,6.669-10.047c-0.929-4.615-5.419-7.607-10.035-6.686
			l-24.942,5.025c-6.62,1.225-13.347-1.511-17.232-7.009c12.965-13.204,12.965-34.36,0.001-47.565
			c3.846-5.513,10.567-8.26,17.173-7.018l25,5.033c2.992,0.607,6.08-0.429,8.099-2.719c2.019-2.289,2.662-5.483,1.685-8.375
			c-0.977-2.892-3.424-5.043-6.417-5.639l-25.058-5.042c-13.638-2.642-27.52,3.222-35.133,14.841l-1.669-0.36
			c-0.738-0.181-1.47-0.348-2.225-0.481l-40.092-8.66c0.009-0.163,0.094-0.301,0.094-0.466v-76.8
			c-0.015-14.132-11.468-25.585-25.6-25.6H102.4V166.4h42.667c14.132-0.015,25.585-11.468,25.6-25.6V55.467
			c-0.015-14.132-11.468-25.585-25.6-25.6H25.6C11.468,29.882,0.015,41.335,0,55.467V140.8c0.015,14.132,11.468,25.585,25.6,25.6
			h8.533v34.133H25.6c-14.132,0.015-25.585,11.468-25.6,25.6v128C0.015,368.265,11.468,379.718,25.6,379.733z M136.533,473.6
			l0.017,17.067H34.133v-34.133h85.333C128.887,456.546,136.521,464.179,136.533,473.6z M85.333,439.467H51.2v-59.733h34.133
			V439.467z M80.325,222.608c3.213,3.189,5.016,7.531,5.008,12.058l0,47.413c-10.498-6.328-23.636-6.328-34.133,0l0-47.413
			c-0.006-6.903,4.151-13.129,10.53-15.77C68.108,216.256,75.449,217.721,80.325,222.608z M68.267,294.4
			c9.426,0,17.067,7.641,17.067,17.067c0,9.426-7.641,17.067-17.067,17.067S51.2,320.892,51.2,311.467
			C51.212,302.046,58.846,294.412,68.267,294.4z M102.198,313.464l43.244,9.341c-7.262,7.771-10.344,18.561-8.281,28.995
			l-45.096-15.935C98.122,329.925,101.737,321.934,102.198,313.464z M153.6,345.6c0.012-9.421,7.646-17.054,17.067-17.067
			c0.817,0.023,1.631,0.105,2.435,0.246l2.204,0.476c8.463,2.415,13.692,10.879,12.065,19.528
			c-1.627,8.649-9.576,14.634-18.338,13.808C160.272,361.766,153.582,354.401,153.6,345.6z M119.467,226.133v73.599l-17.067-3.686
			v-61.38c-0.031-6.008-1.664-11.9-4.73-17.067h13.264C115.645,217.603,119.464,221.422,119.467,226.133z M145.067,149.333h-25.6
			v-17.067H153.6v8.533C153.597,145.512,149.778,149.33,145.067,149.333z M17.067,140.8V55.467c0.003-4.712,3.822-8.53,8.533-8.533
			h119.467c4.712,0.003,8.53,3.822,8.533,8.533V64H128c-4.713,0-8.533,3.821-8.533,8.533s3.821,8.533,8.533,8.533h25.6V115.2
			h-34.133c-9.421,0.012-17.054,7.646-17.067,17.067v17.067H25.6C20.888,149.33,17.07,145.512,17.067,140.8z M51.2,166.4h34.133
			v34.133H51.2V166.4z M17.067,226.133c0.003-4.712,3.822-8.53,8.533-8.533h13.279c-3.073,5.165-4.712,11.057-4.746,17.067v76.8
			c0.019,18.844,15.29,34.115,34.133,34.133l0.119-0.012l45.971,16.238c-1.067,0.524-2.235,0.81-3.423,0.84H25.6
			c-4.712-0.003-8.53-3.822-8.533-8.533V226.133z"/>
		<path d="M486.4,29.867H366.933c-14.132,0.015-25.585,11.468-25.6,25.6V140.8c0.015,14.132,11.468,25.585,25.6,25.6H409.6v34.133
			h-8.533c-14.132,0.015-25.585,11.468-25.6,25.6v51.692l-13.779-5.165c-8.506-6.638-19.747-8.635-30.019-5.331
			c-7.642-11.678-21.578-17.588-35.285-14.963l-25,5.033c-4.613,0.937-7.597,5.432-6.668,10.047
			c0.929,4.615,5.419,7.607,10.035,6.686l24.933-5.025c6.623-1.242,13.362,1.499,17.237,7.012
			c-12.961,13.203-12.961,34.354-0.001,47.558c-3.846,5.511-10.563,8.261-17.17,7.03l-25-5.042
			c-4.617-0.92-9.107,2.071-10.035,6.686c-0.929,4.615,2.055,9.11,6.668,10.047l25.067,5.05c2.136,0.418,4.307,0.627,6.484,0.625
			c11.602-0.014,22.413-5.881,28.748-15.601c6.688,2.203,13.925,2.069,20.527-0.38l23.258,3.488v18.551
			c0.002,0.418,0.032,0.836,0.092,1.25l0.683,4.608c0.048,0.337,0.117,0.672,0.208,1c3.063,11.069,13.132,18.735,24.617,18.742
			h8.533v59.733h-17.067c-18.844,0.019-34.115,15.29-34.133,34.133v17.067c0.012,9.421,7.646,17.054,17.067,17.067h102.4
			c9.421-0.012,17.054-7.646,17.067-17.067v-34.133c-0.012-9.421-7.646-17.054-17.067-17.067v-59.733h8.533
			c14.132-0.015,25.585-11.468,25.6-25.6v-128c-0.015-14.132-11.468-25.585-25.6-25.6h-8.533V166.4h8.533
			c14.132-0.015,25.585-11.468,25.6-25.6V55.467C511.985,41.335,500.532,29.882,486.4,29.867z M358.4,140.8v-8.533h34.133v17.067
			h-25.6C362.222,149.33,358.403,145.512,358.4,140.8z M443.733,328.533c-0.164,0-0.315-0.044-0.477-0.048l-3.852-0.578
			c-8.546-2.4-13.762-11.021-11.923-19.705c1.839-8.684,10.102-14.45,18.888-13.179c8.785,1.27,15.077,9.141,14.38,17.99
			C460.054,321.862,452.609,328.652,443.733,328.533z M370.399,317.558c4.275-6.353,5.945-14.107,4.664-21.656l34.537,12.948v2.616
			c0.021,4.223,0.833,8.405,2.392,12.33L370.399,317.558z M460.8,234.667v47.413c-10.498-6.328-23.636-6.328-34.133,0v-47.413
			c0-9.426,7.641-17.067,17.067-17.067C453.159,217.6,460.8,225.241,460.8,234.667z M392.533,226.133
			c0.003-4.712,3.822-8.53,8.533-8.533h13.264c-3.066,5.167-4.699,11.058-4.73,17.067v55.952l-17.067-6.397V226.133z M324.267,299.9
			c0-9.426,7.641-17.067,17.067-17.067c9.426,0,17.067,7.641,17.067,17.067c0,9.426-7.641,17.067-17.067,17.067
			C331.913,316.954,324.279,309.321,324.267,299.9z M477.867,490.667h-102.4V473.6c0.012-9.421,7.646-17.054,17.067-17.067h85.333
			V490.667z M460.8,439.467h-34.133v-59.733H460.8V439.467z M494.933,226.133v128c-0.003,4.712-3.822,8.53-8.533,8.533h-85.333
			c-3.63-0.031-6.848-2.344-8.033-5.775l-0.5-3.383v-15.367l43.609,6.541c1.007,0.23,2.051,0.324,3.089,0.463l1.869,0.28
			c0.422,0.059,0.848,0.09,1.275,0.092c0.067,0,0.125-0.033,0.192-0.035c0.396,0.013,0.767,0.118,1.167,0.118
			c18.844-0.019,34.115-15.29,34.133-34.133v-76.8c-0.034-6.01-1.672-11.902-4.746-17.067H486.4
			C491.112,217.603,494.93,221.422,494.933,226.133z M460.8,200.533h-34.133V166.4H460.8V200.533z M494.933,140.8
			c-0.003,4.712-3.822,8.53-8.533,8.533h-76.8v-17.067c-0.012-9.421-7.646-17.054-17.067-17.067H358.4V81.067H384
			c4.713,0,8.533-3.821,8.533-8.533S388.713,64,384,64h-25.6v-8.533c0.003-4.712,3.822-8.53,8.533-8.533H486.4
			c4.712,0.003,8.53,3.822,8.533,8.533V140.8z"/>
		<path d="M452.267,64c-14.138,0-25.6,11.462-25.6,25.6s11.462,25.6,25.6,25.6s25.6-11.462,25.6-25.6
			C477.851,75.468,466.399,64.015,452.267,64z M452.267,98.133c-4.713,0-8.533-3.821-8.533-8.533c0-4.713,3.82-8.533,8.533-8.533
			s8.533,3.82,8.533,8.533C460.797,94.312,456.978,98.13,452.267,98.133z"/>
		<path d="M298.667,4.267H204.8c-9.421,0.012-17.054,7.646-17.067,17.067V115.2c0,3.451,2.079,6.563,5.267,7.883
			c3.189,1.321,6.859,0.59,9.299-1.85L233.933,89.6h64.733c9.421-0.012,17.054-7.646,17.067-17.067v-51.2
			C315.721,11.913,308.087,4.279,298.667,4.267z M298.667,72.533H230.4c-2.263,0-4.434,0.899-6.033,2.5L204.8,94.6V21.333
			l93.867-0.017V72.533z"/>
		<path d="M278.067,149.333h-64.733c-9.421,0.012-17.054,7.646-17.067,17.067v51.2c0.012,9.421,7.646,17.054,17.067,17.067H307.2
			c9.421-0.012,17.054-7.646,17.067-17.067v-93.867c0-3.451-2.079-6.563-5.268-7.883c-3.189-1.321-6.859-0.59-9.299,1.85
			L278.067,149.333z M307.2,217.6l-93.867,0.017V166.4H281.6c2.263,0,4.434-0.899,6.033-2.5l19.567-19.566V217.6z"/>
		<path d="M230.4,55.467h42.667c4.713,0,8.533-3.821,8.533-8.533s-3.82-8.533-8.533-8.533H230.4c-4.713,0-8.533,3.821-8.533,8.533
			S225.687,55.467,230.4,55.467z"/>
		<path d="M247.467,183.467h-8.533c-4.713,0-8.533,3.821-8.533,8.533c0,4.713,3.821,8.533,8.533,8.533h8.533
			c4.713,0,8.533-3.821,8.533-8.533C256,187.287,252.18,183.467,247.467,183.467z"/>
		<path d="M275.541,185.941c-1.561,1.634-2.445,3.799-2.475,6.059c-0.023,2.27,0.869,4.454,2.475,6.059
			c0.829,0.754,1.782,1.36,2.817,1.792c2.624,1.124,5.638,0.847,8.014-0.737c2.375-1.584,3.79-4.259,3.762-7.114
			c-0.033-2.259-0.917-4.422-2.475-6.059c-0.831-0.752-1.783-1.358-2.817-1.792C281.665,182.807,277.992,183.515,275.541,185.941z"
			/>
	</g>
</g>
<g>
</g>
<g>
</g>
<g>
</g>
<g>
</g>
<g>
</g>
<g>
</g>
<g>
</g>
<g>
</g>
<g>
</g>
<g>
</g>
<g>
</g>
<g>
</g>
<g>
</g>
<g>
</g>
<g>
</g>
</svg>
