<?xml version="1.0" encoding="iso-8859-1"?>
<!-- Generator: Adobe Illustrator 19.0.0, SVG Export Plug-In . SVG Version: 6.00 Build 0)  -->
<svg version="1.1" id="Capa_1" xmlns="http://www.w3.org/2000/svg" xmlns:xlink="http://www.w3.org/1999/xlink" x="0px" y="0px"
	 viewBox="0 0 512 512" style="enable-background:new 0 0 512 512;" xml:space="preserve">
<g>
	<g transform="translate(1 1)">
		<path style="fill:#AD1457;" d="M343.832,92.867v324.267c-4.437,9.984-10.411,30.293-11.776,68.693
			c-0.261,9.212-7.766,16.566-16.982,16.64H160.792c-9.216-0.074-16.72-7.428-16.981-16.64c-1.365-38.4-7.339-58.709-11.775-68.693
			V92.867c4.437-9.984,10.411-30.293,11.775-68.693c0.261-9.212,7.766-16.566,16.981-16.64h154.283
			c9.216,0.074,16.72,7.428,16.981,16.64C333.421,62.573,339.395,82.883,343.832,92.867z"/>
		<path style="fill:#E91E63;" d="M314.733,92.867v324.267c-4.437,9.984-10.411,30.293-11.776,68.693
			c-0.261,9.212-7.766,16.566-16.981,16.64H160.792c-9.216-0.074-16.72-7.428-16.981-16.64c-1.365-38.4-7.339-58.709-11.775-68.693
			V92.867c4.437-9.984,10.411-30.293,11.775-68.693c0.261-9.212,7.766-16.566,16.981-16.64h125.184
			c9.216,0.074,16.72,7.428,16.981,16.64C304.323,62.573,310.296,82.883,314.733,92.867z"/>
		<g>
			<path style="fill:#3F51B5;" d="M383,152.6h34.133c9.426,0,17.067,7.641,17.067,17.067v8.533c0,9.426-7.641,17.067-17.067,17.067
				H383V152.6z"/>
			<path style="fill:#3F51B5;" d="M383,255h34.133c9.426,0,17.067,7.641,17.067,17.067V331.8c0,9.426-7.641,17.067-17.067,17.067
				H383V255z"/>
		</g>
		<path style="fill:#283593;" d="M127,92.867h221.867c28.277,0,51.2,22.923,51.2,51.2v221.867c0,28.277-22.923,51.2-51.2,51.2H127
			c-28.277,0-51.2-22.923-51.2-51.2V144.067C75.8,115.79,98.723,92.867,127,92.867z"/>
		<path style="fill:#3F51B5;" d="M127,92.867h196.267c28.277,0,51.2,22.923,51.2,51.2v221.867c0,28.277-22.923,51.2-51.2,51.2H127
			c-28.277,0-51.2-22.923-51.2-51.2V144.067C75.8,115.79,98.723,92.867,127,92.867z"/>
		<path style="fill:#FF9801;" d="M288.483,169.938c3.158,19.327-5.003,38.76-21.014,50.037c-2.407,1.607-3.877,4.289-3.936,7.183
			v19.309c0,4.713-3.821,8.533-8.533,8.533h-34.133c-4.713,0-8.533-3.821-8.533-8.533v-19.335c-0.058-2.878-1.52-5.545-3.916-7.142
			c-18.965-13.402-26.533-37.892-18.435-59.657s29.833-35.352,52.946-33.098C266.042,129.488,284.742,147.018,288.483,169.938z"/>
		<path style="fill:#FFFFFF;" d="M255,255v17.067c0,9.426-7.641,17.067-17.067,17.067c-9.426,0-17.067-7.641-17.067-17.067V255H255z
			"/>
	</g>
	<g>
		<path d="M136.533,332.8c-2.264-0.001-4.435,0.897-6.035,2.498c-1.601,1.601-2.499,3.772-2.498,6.035V358.4
			c0,4.713,3.821,8.533,8.533,8.533s8.533-3.82,8.533-8.533v-17.067c0.001-2.264-0.897-4.435-2.498-6.035
			C140.968,333.697,138.797,332.799,136.533,332.8z"/>
		<path d="M273.067,332.8c-2.264-0.001-4.435,0.897-6.035,2.498c-1.601,1.601-2.499,3.772-2.498,6.035V358.4
			c0,4.713,3.82,8.533,8.533,8.533s8.533-3.82,8.533-8.533v-17.067c0.001-2.264-0.897-4.435-2.498-6.035
			C277.501,333.697,275.33,332.799,273.067,332.8z"/>
		<path d="M307.2,324.267c-2.264-0.001-4.435,0.897-6.035,2.498c-1.601,1.601-2.499,3.772-2.498,6.035v34.133
			c0,4.713,3.82,8.533,8.533,8.533s8.533-3.82,8.533-8.533V332.8c0.001-2.264-0.897-4.435-2.498-6.035
			C311.635,325.164,309.464,324.265,307.2,324.267z"/>
		<path d="M170.667,324.267c-2.264-0.001-4.435,0.897-6.035,2.498c-1.601,1.601-2.499,3.772-2.498,6.035v34.133
			c0,4.713,3.82,8.533,8.533,8.533s8.533-3.82,8.533-8.533V332.8c0.001-2.264-0.897-4.435-2.498-6.035
			C175.101,325.164,172.93,324.265,170.667,324.267z"/>
		<path d="M238.933,324.267c-2.264-0.001-4.435,0.897-6.035,2.498c-1.601,1.601-2.499,3.772-2.498,6.035v34.133
			c0,4.713,3.821,8.533,8.533,8.533c4.713,0,8.533-3.82,8.533-8.533V332.8c0.001-2.264-0.897-4.435-2.498-6.035
			C243.368,325.164,241.197,324.265,238.933,324.267z"/>
		<path d="M204.8,307.2c-2.264-0.001-4.435,0.897-6.035,2.498c-1.601,1.601-2.499,3.772-2.498,6.035V384
			c0,4.713,3.82,8.533,8.533,8.533c4.713,0,8.533-3.82,8.533-8.533v-68.267c0.001-2.264-0.897-4.435-2.498-6.035
			C209.235,308.097,207.064,307.199,204.8,307.2z"/>
		<path d="M341.333,332.8c-2.264-0.001-4.435,0.897-6.035,2.498c-1.601,1.601-2.499,3.772-2.498,6.035V358.4
			c0,4.713,3.82,8.533,8.533,8.533s8.533-3.82,8.533-8.533v-17.067c0.001-2.264-0.897-4.435-2.498-6.035
			C345.768,333.697,343.597,332.799,341.333,332.8z"/>
		<path d="M418.133,204.8c14.132-0.015,25.585-11.468,25.6-25.6v-8.533c-0.015-14.132-11.468-25.585-25.6-25.6H409.6
			c-0.047-32.646-26.274-59.218-58.917-59.692c-6.014-19.61-9.08-40.005-9.1-60.516C341.195,11.04,329.898,0.031,316.075,0H161.792
			c-13.829,0.033-25.128,11.051-25.509,24.875c-0.02,20.506-3.087,40.895-9.1,60.499c-32.643,0.474-58.87,27.046-58.917,59.693
			v221.867c0.047,32.646,26.274,59.218,58.917,59.692c6.014,19.61,9.08,40.005,9.1,60.516c0.388,13.818,11.685,24.827,25.509,24.858
			h154.283c13.829-0.033,25.127-11.051,25.508-24.875c0.02-20.506,3.087-40.895,9.1-60.499c32.643-0.474,58.87-27.046,58.917-59.693
			V358.4h8.533c14.132-0.015,25.585-11.468,25.6-25.6v-59.733c-0.015-14.132-11.468-25.585-25.6-25.6H409.6V204.8H418.133z
			 M418.133,162.133c4.712,0.003,8.53,3.822,8.533,8.533v8.533c-0.003,4.712-3.822,8.53-8.533,8.533H409.6v-25.6H418.133z
			 M161.792,17.067h154.283c4.626,0.061,8.37,3.782,8.458,8.408c0.247,20.216,3.005,40.322,8.208,59.858H145.126
			c5.203-19.531,7.96-39.632,8.208-59.842C153.415,20.86,157.16,17.13,161.792,17.067z M316.075,494.933H161.792
			c-4.626-0.061-8.37-3.782-8.458-8.408c-0.248-20.216-3.005-40.322-8.208-59.858h187.616c-5.203,19.531-7.96,39.632-8.208,59.842
			C324.452,491.14,320.707,494.87,316.075,494.933z M392.533,366.933c-0.028,23.553-19.114,42.639-42.667,42.667H128
			c-23.553-0.028-42.639-19.114-42.667-42.667V145.067c0.028-23.553,19.114-42.639,42.667-42.667h221.867
			c23.553,0.028,42.639,19.114,42.667,42.667V366.933z M418.133,264.533c4.712,0.003,8.53,3.822,8.533,8.533V332.8
			c-0.003,4.712-3.822,8.53-8.533,8.533H409.6v-76.8H418.133z"/>
		<path d="M246.117,119.892c-27.226-3.323-53.212,12.337-62.993,37.962c-9.781,25.624-0.839,54.617,21.676,70.28v19.333
			c0.021,6.069,3.272,11.667,8.533,14.692v10.908c0,14.138,11.462,25.6,25.6,25.6c14.138,0,25.6-11.462,25.6-25.6v-10.908
			c5.261-3.025,8.513-8.623,8.533-14.692l0.317-19.517c20.194-14.235,29.532-39.44,23.487-63.396S270.647,122.841,246.117,119.892z
			 M238.933,281.6c-4.712-0.003-8.53-3.822-8.533-8.533v-8.533h17.067v8.533C247.464,277.778,243.645,281.597,238.933,281.6z
			 M263.55,214c-4.664,3.215-7.479,8.494-7.55,14.158v19.308h-34.133v-19.333c-0.071-5.649-2.88-10.913-7.533-14.117
			c-10.644-7.499-17.274-19.453-18-32.453c-0.726-13,4.533-25.618,14.275-34.255c7.765-6.964,17.836-10.803,28.267-10.775
			c1.755,0,3.508,0.103,5.25,0.308c18.757,2.408,33.741,16.784,36.925,35.425C283.703,188.383,276.904,204.596,263.55,214z"/>
		<path d="M238.933,153.6c-14.132,0.015-25.585,11.468-25.6,25.6c0,4.713,3.821,8.533,8.533,8.533c4.713,0,8.533-3.82,8.533-8.533
			c0.003-4.712,3.822-8.53,8.533-8.533c4.713,0,8.533-3.821,8.533-8.533C247.467,157.421,243.646,153.6,238.933,153.6z"/>
	</g>
</g>
<g>
</g>
<g>
</g>
<g>
</g>
<g>
</g>
<g>
</g>
<g>
</g>
<g>
</g>
<g>
</g>
<g>
</g>
<g>
</g>
<g>
</g>
<g>
</g>
<g>
</g>
<g>
</g>
<g>
</g>
</svg>
