<?xml version="1.0" encoding="iso-8859-1"?>
<!-- Generator: Adobe Illustrator 19.0.0, SVG Export Plug-In . SVG Version: 6.00 Build 0)  -->
<svg version="1.1" id="Capa_1" xmlns="http://www.w3.org/2000/svg" xmlns:xlink="http://www.w3.org/1999/xlink" x="0px" y="0px"
	 viewBox="0 0 512 512" style="enable-background:new 0 0 512 512;" xml:space="preserve">
<g>
	<g transform="translate(1 1)">
		<path style="fill:#607D8B;" d="M144.067,7.533h221.867c18.851,0,34.133,15.282,34.133,34.133v426.667
			c0,18.851-15.282,34.133-34.133,34.133H144.067c-18.851,0-34.133-15.282-34.133-34.133V41.667
			C109.933,22.815,125.215,7.533,144.067,7.533z"/>
		<path style="fill:#CFD8DC;" d="M144.067,7.533h196.267c18.851,0,34.133,15.282,34.133,34.133v426.667
			c0,18.851-15.282,34.133-34.133,34.133H144.067c-18.851,0-34.133-15.282-34.133-34.133V41.667
			C109.933,22.815,125.215,7.533,144.067,7.533z"/>
		<path style="fill:#3F51B5;" d="M295.652,41.667h-81.304c-6.464,0-12.374-3.652-15.265-9.434l-12.35-24.699h136.533l-12.35,24.699
			C308.026,38.014,302.117,41.667,295.652,41.667z"/>
		<g>
			<path style="fill:#FFFFFF;" d="M229.4,289.133v8.533c0,14.138,11.462,25.6,25.6,25.6c14.139,0,25.6-11.462,25.6-25.6v-8.533
				H229.4z"/>
			<path style="fill:#FFFFFF;" d="M289.133,255v25.6c-0.014,4.707-3.826,8.519-8.533,8.533h-51.2
				c-4.707-0.014-8.519-3.826-8.533-8.533V255H289.133z"/>
		</g>
		<path style="fill:#FF9801;" d="M295.96,232.813c-4.325,3.162-6.865,8.211-6.827,13.568V255h-68.267v-8.619
			c0.033-5.336-2.469-10.371-6.741-13.568c-23.502-17.614-33.093-48.293-23.81-76.157s35.357-46.661,64.727-46.661
			s55.444,18.796,64.727,46.661S319.462,215.199,295.96,232.813z"/>
	</g>
	<g>
		<path d="M324.267,0h-179.2c-23.553,0.028-42.639,19.114-42.667,42.667v426.667c0.028,23.553,19.114,42.639,42.667,42.667h221.867
			c23.553-0.028,42.639-19.114,42.667-42.667V42.667C409.572,19.114,390.486,0.028,366.933,0H324.267z M310.458,17.067l-6.175,12.35
			c-1.436,2.9-4.397,4.73-7.633,4.717h-81.3c-3.236,0.013-6.197-1.817-7.633-4.717l-6.175-12.35H310.458z M392.533,42.667v426.667
			c-0.015,14.132-11.468,25.585-25.6,25.6H145.067c-14.132-0.015-25.585-11.468-25.6-25.6V42.667
			c0.015-14.132,11.468-25.585,25.6-25.6h37.392l9.992,19.983c4.314,8.694,13.194,14.181,22.9,14.15h81.3
			c9.706,0.031,18.586-5.456,22.9-14.15l9.992-19.983h37.392C381.065,17.082,392.518,28.535,392.533,42.667z"/>
		<path d="M307.2,460.8H204.8c-4.713,0-8.533,3.821-8.533,8.533c0,4.713,3.821,8.533,8.533,8.533h102.4
			c4.713,0,8.533-3.821,8.533-8.533C315.733,464.621,311.913,460.8,307.2,460.8z"/>
		<path d="M153.6,375.467c-2.264-0.001-4.435,0.897-6.035,2.498c-1.601,1.601-2.499,3.772-2.498,6.035v17.067
			c0,4.713,3.82,8.533,8.533,8.533s8.533-3.821,8.533-8.533V384c0.001-2.264-0.897-4.435-2.498-6.035
			C158.035,376.364,155.864,375.465,153.6,375.467z"/>
		<path d="M281.6,384v17.067c0,4.713,3.821,8.533,8.533,8.533c4.713,0,8.533-3.821,8.533-8.533V384c0-4.713-3.821-8.533-8.533-8.533
			C285.421,375.467,281.6,379.287,281.6,384z"/>
		<path d="M324.267,375.467c-2.264-0.001-4.435,0.897-6.035,2.498c-1.601,1.601-2.499,3.772-2.498,6.035v17.067
			c0,4.713,3.821,8.533,8.533,8.533s8.533-3.821,8.533-8.533V384c0.001-2.264-0.897-4.435-2.498-6.035
			C328.702,376.364,326.53,375.465,324.267,375.467z"/>
		<path d="M196.267,366.933c0-4.713-3.821-8.533-8.533-8.533s-8.533,3.82-8.533,8.533v51.2c0,4.713,3.82,8.533,8.533,8.533
			s8.533-3.82,8.533-8.533V366.933z"/>
		<path d="M247.467,366.933v51.2c0,4.713,3.821,8.533,8.533,8.533c4.713,0,8.533-3.82,8.533-8.533v-51.2
			c0-4.713-3.821-8.533-8.533-8.533C251.287,358.4,247.467,362.221,247.467,366.933z"/>
		<path d="M358.4,366.933c-2.264-0.001-4.435,0.897-6.035,2.498c-1.601,1.601-2.499,3.772-2.498,6.035V409.6
			c0,4.713,3.82,8.533,8.533,8.533s8.533-3.821,8.533-8.533v-34.133c0.001-2.264-0.897-4.435-2.498-6.035
			C362.835,367.831,360.664,366.932,358.4,366.933z"/>
		<path d="M213.333,349.867V435.2c0,4.713,3.821,8.533,8.533,8.533c4.713,0,8.533-3.821,8.533-8.533v-85.333
			c0-4.713-3.821-8.533-8.533-8.533C217.154,341.333,213.333,345.154,213.333,349.867z"/>
		<path d="M249.941,82.859c3.365,3.3,8.752,3.3,12.117,0c0.752-0.831,1.358-1.783,1.792-2.817c0.911-2.065,0.911-4.418,0-6.483
			c-0.431-1.035-1.037-1.988-1.791-2.817c-3.421-3.158-8.695-3.158-12.117,0c-0.754,0.829-1.36,1.782-1.792,2.817
			c-0.911,2.065-0.911,4.418,0,6.483C248.583,81.075,249.189,82.028,249.941,82.859z"/>
		<path d="M184.15,106.75c0.758,0.82,1.689,1.46,2.725,1.875c1.054,0.451,2.187,0.683,3.333,0.683
			c2.259,0.008,4.421-0.918,5.975-2.558c0.822-0.759,1.463-1.693,1.875-2.733c0.437-1.025,0.67-2.127,0.683-3.242
			c-0.028-2.276-0.946-4.451-2.558-6.059c-3.389-3.158-8.644-3.158-12.033,0c-1.593,1.614-2.482,3.792-2.475,6.059
			c-0.018,1.109,0.183,2.21,0.592,3.242C182.716,105.039,183.355,105.967,184.15,106.75z"/>
		<path d="M155.133,169.983c4.732-0.032,8.547-3.885,8.533-8.617c0.025-2.246-0.869-4.405-2.475-5.975c-3.373-3.2-8.66-3.2-12.033,0
			c-1.626,1.564-2.549,3.719-2.558,5.975c0.012,2.28,0.933,4.46,2.558,6.059C150.715,169.062,152.875,169.987,155.133,169.983z"/>
		<path d="M173.308,224.341c-0.347-0.429-0.781-0.779-1.275-1.025c-0.454-0.333-0.94-0.62-1.45-0.858
			c-0.529-0.187-1.072-0.329-1.625-0.425c-2.786-0.557-5.666,0.308-7.683,2.308c-0.817,0.779-1.432,1.746-1.792,2.817
			c-0.476,1.013-0.71,2.123-0.683,3.242c-0.034,2.248,0.861,4.41,2.475,5.975c1.598,1.626,3.779,2.547,6.059,2.558
			c2.259,0.007,4.421-0.919,5.975-2.558c1.626-1.563,2.549-3.719,2.558-5.975c-0.011-1.114-0.24-2.216-0.675-3.242
			C174.799,226.082,174.153,225.116,173.308,224.341z"/>
		<path d="M352.508,233.642c0.48-1.012,0.715-2.122,0.683-3.242c0.027-3.45-2.036-6.573-5.219-7.902
			c-3.183-1.329-6.855-0.601-9.289,1.843c-2.506,2.404-3.254,6.113-1.875,9.3c0.414,1.039,1.055,1.973,1.875,2.733
			c1.556,1.637,3.717,2.562,5.975,2.558c2.28-0.008,4.462-0.93,6.059-2.558C351.512,235.61,352.125,234.676,352.508,233.642z"/>
		<path d="M356.858,169.983c4.666-0.111,8.423-3.867,8.533-8.533c0.012-2.284-0.913-4.474-2.558-6.059
			c-0.755-0.822-1.687-1.463-2.725-1.875c-3.201-1.27-6.849-0.535-9.308,1.875c-1.619,1.596-2.513,3.786-2.475,6.059
			c-0.003,2.242,0.888,4.392,2.475,5.975C352.398,169.051,354.579,169.972,356.858,169.983z"/>
		<path d="M315.817,106.75c1.552,1.643,3.715,2.569,5.975,2.558c2.28-0.008,4.463-0.929,6.059-2.558
			c0.796-0.782,1.432-1.71,1.875-2.733c0.8-2.087,0.8-4.396,0-6.483c-0.451-1.044-1.087-1.998-1.875-2.817
			c-3.389-3.158-8.644-3.158-12.033,0c-0.842,0.775-1.485,1.741-1.875,2.817c-0.911,2.065-0.911,4.418,0,6.483
			C314.354,105.057,314.995,105.991,315.817,106.75z"/>
		<path d="M209.992,240.65c2.104,1.581,3.342,4.06,3.342,6.692V281.6c0.021,6.069,3.272,11.667,8.533,14.692v2.375
			c0,18.851,15.282,34.133,34.133,34.133s34.133-15.282,34.133-34.133v-2.375c5.261-3.025,8.513-8.623,8.533-14.692v-34.258
			c0.004-2.639,1.248-5.123,3.358-6.708c26.472-19.82,37.284-54.361,26.836-85.738c-10.448-31.376-39.808-52.541-72.878-52.535
			c-33.07,0.006-62.423,21.182-72.859,52.562C172.688,186.303,183.512,220.84,209.992,240.65L209.992,240.65z M281.6,281.6h-51.2
			v-17.067h51.2V281.6z M256,315.733c-9.421-0.012-17.054-7.646-17.067-17.067h34.133C273.054,308.087,265.421,315.721,256,315.733z
			 M216.067,134.767c10.914-9.891,25.129-15.348,39.858-15.3c2.224,0.001,4.446,0.118,6.658,0.35
			c24.365,2.674,44.619,19.972,51.071,43.619s-2.208,48.835-21.838,63.514c-6.417,4.817-10.2,12.368-10.217,20.392v0.125h-51.2
			v-0.125c-0.01-8.017-3.788-15.563-10.2-20.375c-14.312-10.708-23.073-27.266-23.873-45.122
			C195.526,163.988,202.77,146.712,216.067,134.767z"/>
		<path d="M221.867,187.733c2.264,0.001,4.435-0.897,6.035-2.498s2.499-3.772,2.498-6.035c0.015-14.132,11.468-25.585,25.6-25.6
			c4.713,0,8.533-3.821,8.533-8.533c0-4.713-3.821-8.533-8.533-8.533c-23.553,0.028-42.639,19.114-42.667,42.667
			c-0.001,2.264,0.897,4.435,2.498,6.035C217.432,186.836,219.603,187.735,221.867,187.733z"/>
	</g>
</g>
<g>
</g>
<g>
</g>
<g>
</g>
<g>
</g>
<g>
</g>
<g>
</g>
<g>
</g>
<g>
</g>
<g>
</g>
<g>
</g>
<g>
</g>
<g>
</g>
<g>
</g>
<g>
</g>
<g>
</g>
</svg>
