<?xml version="1.0" encoding="iso-8859-1"?>
<!-- Generator: Adobe Illustrator 19.0.0, SVG Export Plug-In . SVG Version: 6.00 Build 0)  -->
<svg version="1.1" id="Capa_1" xmlns="http://www.w3.org/2000/svg" xmlns:xlink="http://www.w3.org/1999/xlink" x="0px" y="0px"
	 viewBox="0 0 512 512" style="enable-background:new 0 0 512 512;" xml:space="preserve">
<g>
	<g transform="translate(3 1)">
		<path style="fill:#00BCD4;" d="M440.733,400.067h34.133v51.2c0,9.426-7.641,17.067-17.067,17.067s-17.067-7.641-17.067-17.067
			V400.067z"/>
		<g>
			<rect x="440.733" y="229.4" style="fill:#F44335;" width="34.133" height="93.867"/>
			<polygon style="fill:#F44335;" points="446.109,198.083 398.067,169.667 381,195.267 432.627,225.731 			"/>
		</g>
		<g>
			<circle style="fill:#607D8B;" cx="457.8" cy="220.867" r="25.6"/>
			<circle style="fill:#607D8B;" cx="457.8" cy="331.8" r="25.6"/>
		</g>
		<g>
			<rect x="31.133" y="237.933" style="fill:#F44335;" width="34.133" height="93.867"/>
			<polygon style="fill:#F44335;" points="59.891,206.616 107.933,178.2 125,203.8 73.373,234.264 			"/>
		</g>
		<path style="fill:#37474F;" d="M295.667,400.067l0,76.8c0.009,6.792-2.685,13.309-7.488,18.112
			c-4.803,4.803-11.32,7.497-18.112,7.488h-34.133c-6.792,0.009-13.309-2.685-18.112-7.488s-7.497-11.32-7.488-18.112l0-76.8
			H295.667z"/>
		<g>
			<path style="fill:#607D8B;" d="M270.067,400.067l0,76.8c0.009,6.792-2.685,13.309-7.488,18.112
				c-4.803,4.803-11.32,7.497-18.112,7.488h-8.533c-6.792,0.009-13.309-2.685-18.112-7.488s-7.497-11.32-7.488-18.112l0-76.8
				H270.067z"/>
			<path style="fill:#607D8B;" d="M372.467,144.067c14.848,0,27.477,14.251,32.171,34.133c2.617,11.227,2.617,22.906,0,34.133
				c-4.693,19.883-17.323,34.133-32.171,34.133H133.533c-14.848,0-27.477-14.251-32.171-34.133c-2.617-11.227-2.617-22.906,0-34.133
				c4.693-19.883,17.323-34.133,32.171-34.133H372.467z"/>
		</g>
		<path style="fill:#C52828;" d="M372.467,127v221.867c0.005,18.107-7.186,35.474-19.989,48.277
			c-12.804,12.804-30.17,19.994-48.277,19.989H201.8c-18.107,0.005-35.474-7.186-48.277-19.989
			c-12.804-12.804-19.994-30.17-19.989-48.277V127C133.545,65.978,179.531,14.768,240.2,8.216c4.252-0.445,8.525-0.673,12.8-0.683
			c31.686-0.004,62.075,12.581,84.48,34.987C359.885,64.925,372.471,95.314,372.467,127z"/>
		<path style="fill:#F44335;" d="M346.867,127v221.867c0.005,18.107-7.186,35.474-19.989,48.277
			c-12.804,12.804-30.17,19.994-48.277,19.989h-76.8c-18.107,0.005-35.474-7.186-48.277-19.989
			c-12.804-12.804-19.994-30.17-19.989-48.277V127C133.545,65.978,179.531,14.768,240.2,8.216
			C300.878,14.751,346.873,65.972,346.867,127z"/>
		<path style="fill:#00838F;" d="M338.333,92.867v68.267c-0.028,9.414-7.652,17.039-17.067,17.067H184.733
			c-9.414-0.028-17.039-7.652-17.067-17.067V92.867c0.021-42.106,30.747-77.904,72.363-84.309h0.341
			c4.175-0.687,8.399-1.029,12.629-1.024C300.121,7.55,338.316,45.745,338.333,92.867z"/>
		<path style="fill:#00BCD4;" d="M312.733,92.867v68.267c-0.028,9.414-7.652,17.039-17.067,17.067H184.733
			c-9.414-0.028-17.039-7.653-17.067-17.067V92.867c0.021-42.106,30.747-77.904,72.363-84.309h0.341
			C281.996,14.945,312.731,50.754,312.733,92.867z"/>
		<path style="fill:#CFD8DC;" d="M312.733,280.6v17.067c0,4.713-3.82,8.533-8.533,8.533h-25.6c-4.713,0-8.533,3.821-8.533,8.533
			v25.6c0,4.713-3.82,8.533-8.533,8.533h-17.067c-4.713,0-8.533-3.821-8.533-8.533v-25.6c0-4.713-3.821-8.533-8.533-8.533h-25.6
			c-4.713,0-8.533-3.82-8.533-8.533V280.6c0-4.713,3.821-8.533,8.533-8.533h25.6c4.713,0,8.533-3.82,8.533-8.533v-25.6
			c0-4.713,3.821-8.533,8.533-8.533h17.067c4.713,0,8.533,3.821,8.533,8.533v25.6c0,4.713,3.82,8.533,8.533,8.533h25.6
			C308.913,272.067,312.733,275.887,312.733,280.6z"/>
		<g>
			<circle style="fill:#607D8B;" cx="48.2" cy="229.4" r="25.6"/>
			<circle style="fill:#607D8B;" cx="48.2" cy="340.333" r="25.6"/>
		</g>
	</g>
	<g>
		<path d="M221.875,76.8c1.682-0.002,3.326-0.5,4.725-1.434L252.2,58.3c3.872-2.633,4.899-7.894,2.302-11.79
			s-7.849-4.971-11.768-2.409l-25.6,17.067c-3.13,2.087-4.524,5.977-3.432,9.577C214.793,74.343,218.114,76.803,221.875,76.8z"/>
		<path d="M213.342,119.467c1.682-0.002,3.326-0.5,4.725-1.434l76.8-51.2c2.568-1.678,4.037-4.605,3.849-7.667
			c-0.188-3.062-2.005-5.787-4.759-7.138s-6.021-1.12-8.557,0.605l-76.8,51.2c-3.13,2.087-4.524,5.977-3.432,9.577
			C206.26,117.01,209.58,119.47,213.342,119.467z"/>
		<path d="M307.2,264.533h-25.6v-25.6c-0.012-9.421-7.646-17.054-17.067-17.067h-17.067c-9.421,0.012-17.054,7.646-17.067,17.067
			v25.6h-25.6c-9.421,0.012-17.054,7.646-17.067,17.067v17.067c0.012,9.421,7.646,17.054,17.067,17.067h25.6v25.6
			c0.012,9.421,7.646,17.054,17.067,17.067h17.067c9.421-0.012,17.054-7.646,17.067-17.067v-25.6h25.6
			c9.421-0.012,17.054-7.646,17.067-17.067V281.6C324.254,272.179,316.621,264.546,307.2,264.533z M307.2,298.667h-25.6
			c-9.421,0.012-17.054,7.646-17.067,17.067v25.6h-17.067v-25.6c-0.012-9.421-7.646-17.054-17.067-17.067h-25.6V281.6h25.6
			c9.421-0.012,17.054-7.646,17.067-17.067v-25.6h17.067v25.6c0.012,9.421,7.646,17.054,17.067,17.067l25.6-0.017V298.667z"/>
		<path d="M499.6,354.675l-6.21-3.742c3.551-11.13,0.885-23.31-6.99-31.94V252.74c10.317-11.451,11.59-28.429,3.095-41.29
			c-8.495-12.862-24.609-18.355-39.191-13.361l-35.386-24.245c-3.476-16.491-15.138-30.062-30.918-35.978V128
			C383.898,61.088,332.305,5.531,265.584,0.485c-6.373-0.647-12.795-0.647-19.168,0C179.695,5.531,128.102,61.088,128,128v9.866
			c-15.782,5.914-27.445,19.486-30.917,35.978l-35.387,24.245c-3.38-1.16-6.923-1.775-10.496-1.822
			c-13.393-0.068-25.575,7.741-31.104,19.939c-5.53,12.198-3.374,26.507,5.504,36.534v66.253c-7.875,8.63-10.541,20.81-6.99,31.94
			l-6.193,3.733C4.739,359.303,0.033,367.606,0,376.575V409.6c0,4.713,3.821,8.533,8.533,8.533s8.533-3.821,8.533-8.533v-33.025
			c0.015-2.986,1.588-5.748,4.15-7.283l6.069-3.658c13.248,13.11,34.582,13.11,47.829-0.001L81.2,369.3
			c2.553,1.537,4.12,4.295,4.134,7.275V409.6c0,4.713,3.821,8.533,8.533,8.533c4.713,0,8.533-3.821,8.533-8.533v-33.025
			c-0.032-8.963-4.731-17.261-12.4-21.9l-6.21-3.742c3.551-11.13,0.885-23.31-6.99-31.94V252.74
			c3.028-3.469,5.317-7.519,6.729-11.902l17.662-11.204c4.945,11.794,14.704,20.907,26.809,25.033v95.199
			c0.046,42.396,34.404,76.754,76.8,76.8v51.2c0.019,18.844,15.29,34.115,34.133,34.133h34.133
			c18.844-0.019,34.115-15.29,34.133-34.133v-51.2c42.396-0.046,76.754-34.404,76.8-76.8v-95.199
			c12.106-4.126,21.865-13.238,26.81-25.033l17.66,11.204c1.412,4.383,3.701,8.432,6.729,11.902v66.253
			c-7.875,8.63-10.541,20.81-6.99,31.94l-6.193,3.733c-7.678,4.636-12.384,12.939-12.417,21.908V409.6
			c0,4.713,3.82,8.533,8.533,8.533s8.533-3.821,8.533-8.533h8.533v42.667c0.033,10.813,6.868,20.435,17.067,24.027v27.173
			c0,4.713,3.82,8.533,8.533,8.533s8.533-3.82,8.533-8.533v-27.172c10.199-3.592,17.033-13.214,17.067-24.028V409.6h8.533
			c0,4.713,3.821,8.533,8.533,8.533c4.713,0,8.533-3.821,8.533-8.533v-33.025C511.968,367.612,507.269,359.314,499.6,354.675z
			 M418.108,196.724l16.895,11.576c-3.055,3.562-5.337,7.72-6.702,12.21l-11.948-7.58
			C417.472,207.599,418.06,202.171,418.108,196.724z M460.8,264.533c2.885-0.037,5.752-0.445,8.533-1.212v45.09
			c-5.574-1.615-11.492-1.615-17.067,0v-45.09C455.048,264.089,457.915,264.496,460.8,264.533z M443.733,341.333
			c0-9.426,7.641-17.067,17.067-17.067s17.067,7.641,17.067,17.067S470.226,358.4,460.8,358.4
			C451.379,358.388,443.746,350.754,443.733,341.333z M477.867,230.4c0,9.426-7.641,17.067-17.067,17.067
			s-17.067-7.641-17.067-17.067c0-9.426,7.641-17.067,17.067-17.067C470.221,213.346,477.854,220.979,477.867,230.4z M332.8,93.867
			v68.267c-0.003,4.712-3.822,8.53-8.533,8.533H187.733c-4.712-0.003-8.53-3.822-8.533-8.533V93.867c0-42.415,34.385-76.8,76.8-76.8
			S332.8,51.451,332.8,93.867z M51.2,307.2c-2.885,0.037-5.752,0.445-8.533,1.212v-45.09c2.781,0.767,5.649,1.174,8.533,1.212
			c2.885-0.037,5.752-0.445,8.533-1.212v45.09C56.952,307.645,54.085,307.237,51.2,307.2z M76.998,208.3l16.895-11.576
			c0.047,5.447,0.634,10.876,1.752,16.207l-11.945,7.578C82.335,216.019,80.053,211.862,76.998,208.3z M51.2,213.333
			c9.426,0,17.067,7.641,17.067,17.067c0,9.426-7.641,17.067-17.067,17.067s-17.067-7.641-17.067-17.067
			C34.146,220.979,41.779,213.346,51.2,213.333z M51.2,358.4c-9.426,0-17.067-7.641-17.067-17.067s7.641-17.067,17.067-17.067
			s17.067,7.641,17.067,17.067C68.254,350.754,60.621,358.388,51.2,358.4z M112.667,211.35c-2.314-9.931-2.311-20.262,0.009-30.192
			c1.782-9.917,7.259-18.789,15.325-24.827v79.869C119.929,230.155,114.45,221.275,112.667,211.35z M290.133,460.8h-17.067
			c-4.713,0-8.533,3.821-8.533,8.533c0,4.713,3.82,8.533,8.533,8.533h17.067c-0.012,9.421-7.646,17.054-17.067,17.067h-34.133
			c-9.421-0.012-17.054-7.646-17.067-17.067V460.8h17.067c4.713,0,8.533-3.82,8.533-8.533s-3.821-8.533-8.533-8.533h-17.067v-17.067
			h68.267V460.8z M366.933,349.867c-0.04,32.973-26.76,59.693-59.733,59.733H204.8c-32.973-0.04-59.693-26.76-59.733-59.733V128
			c0.003-24.667,8.277-48.62,23.5-68.03c-4.235,10.8-6.417,22.296-6.433,33.897v68.267c0.015,14.132,11.468,25.585,25.6,25.6
			h136.533c14.132-0.015,25.585-11.468,25.6-25.6V93.867c-0.016-11.601-2.198-23.097-6.433-33.897
			c15.222,19.41,23.496,43.363,23.5,68.03V349.867z M384,236.202v-79.87c8.071,6.046,13.551,14.926,15.333,24.852
			c2.314,9.931,2.311,20.262-0.009,30.192C397.543,221.292,392.066,230.164,384,236.202z M469.333,452.267
			c0,4.713-3.82,8.533-8.533,8.533s-8.533-3.82-8.533-8.533V409.6h17.067V452.267z M477.867,392.533h-51.2v-15.958
			c0.015-2.986,1.588-5.748,4.15-7.283l6.069-3.658c13.248,13.11,34.582,13.11,47.829-0.001l6.085,3.667
			c2.553,1.537,4.12,4.295,4.134,7.275v15.958H477.867z"/>
	</g>
</g>
<g>
</g>
<g>
</g>
<g>
</g>
<g>
</g>
<g>
</g>
<g>
</g>
<g>
</g>
<g>
</g>
<g>
</g>
<g>
</g>
<g>
</g>
<g>
</g>
<g>
</g>
<g>
</g>
<g>
</g>
</svg>
