<?xml version="1.0" encoding="iso-8859-1"?>
<!-- Generator: Adobe Illustrator 19.0.0, SVG Export Plug-In . SVG Version: 6.00 Build 0)  -->
<svg version="1.1" id="Capa_1" xmlns="http://www.w3.org/2000/svg" xmlns:xlink="http://www.w3.org/1999/xlink" x="0px" y="0px"
	 viewBox="0 0 512 512" style="enable-background:new 0 0 512 512;" xml:space="preserve">
<g>
	<g transform="translate(1 1)">
		<path style="fill:#FFEB3A;" d="M340.333,67.267c23.564,0,42.667,19.103,42.667,42.667S363.898,152.6,340.333,152.6H50.2
			c-23.564,0-42.667-19.103-42.667-42.667S26.636,67.267,50.2,67.267H340.333z"/>
		<path style="fill:#0377BC;" d="M75.8,7.533h238.933c14.138,0,25.6,11.462,25.6,25.6v136.533c0,14.139-11.462,25.6-25.6,25.6H75.8
			c-14.138,0-25.6-11.462-25.6-25.6V33.133C50.2,18.995,61.662,7.533,75.8,7.533z"/>
		<path style="fill:#02A9F4;" d="M75.8,7.533h213.333c14.138,0,25.6,11.462,25.6,25.6v136.533c0,14.139-11.462,25.6-25.6,25.6H75.8
			c-14.138,0-25.6-11.462-25.6-25.6V33.133C50.2,18.995,61.662,7.533,75.8,7.533z"/>
		<g>
			<path style="fill:#FFEB3A;" d="M118.467,41.667h17.067c9.426,0,17.067,7.641,17.067,17.067V75.8
				c0,9.426-7.641,17.067-17.067,17.067h-17.067c-9.426,0-17.067-7.641-17.067-17.067V58.733
				C101.4,49.308,109.041,41.667,118.467,41.667z"/>
			<path style="fill:#FFEB3A;" d="M255,41.667h17.067c9.426,0,17.067,7.641,17.067,17.067V75.8c0,9.426-7.641,17.067-17.067,17.067
				H255c-9.426,0-17.067-7.641-17.067-17.067V58.733C237.933,49.308,245.574,41.667,255,41.667z"/>
		</g>
		<g>
			<path style="fill:#F5F5F5;" d="M289.133,144.067v17.067H101.4v-17.067c0.028-9.414,7.652-17.039,17.067-17.067h153.6
				C281.481,127.028,289.106,134.652,289.133,144.067z"/>
			<rect x="101.4" y="161.133" style="fill:#F5F5F5;" width="187.733" height="34.133"/>
		</g>
		<path style="fill:#2296F3;" d="M50.2,297.667c-23.564,0-42.667,19.103-42.667,42.667v136.533c0,4.713,3.821,8.533,8.533,8.533
			h51.2V297.667H50.2z"/>
		<path style="fill:#02A9F4;" d="M92.867,263.533H75.8c-14.138,0-25.6,11.461-25.6,25.6v204.8c0,4.713,3.821,8.533,8.533,8.533h76.8
			L92.867,263.533z"/>
		<path style="fill:#283593;" d="M118.467,195.267h358.4c14.138,0,25.6,11.462,25.6,25.6v256c0,14.138-11.462,25.6-25.6,25.6h-358.4
			c-14.138,0-25.6-11.462-25.6-25.6v-256C92.867,206.728,104.328,195.267,118.467,195.267z"/>
		<path style="fill:#3F51B5;" d="M118.467,195.267h332.8c14.138,0,25.6,11.462,25.6,25.6v256c0,14.138-11.462,25.6-25.6,25.6h-332.8
			c-14.138,0-25.6-11.462-25.6-25.6v-256C92.867,206.728,104.328,195.267,118.467,195.267z"/>
		<path style="fill:#607D8B;" d="M135.533,229.4h307.2c4.713,0,8.533,3.821,8.533,8.533V459.8c0,4.713-3.82,8.533-8.533,8.533
			h-307.2c-4.713,0-8.533-3.82-8.533-8.533V237.933C127,233.221,130.821,229.4,135.533,229.4z"/>
		<path style="fill:#CFD8DC;" d="M135.533,229.4h281.6c4.713,0,8.533,3.821,8.533,8.533V459.8c0,4.713-3.82,8.533-8.533,8.533
			h-281.6c-4.713,0-8.533-3.82-8.533-8.533V237.933C127,233.221,130.821,229.4,135.533,229.4z"/>
	</g>
	<g>
		<path d="M477.867,187.733h-34.133V153.6c-0.031-28.264-22.936-51.169-51.2-51.2h-0.771c-3.659-21.441-20.455-38.237-41.896-41.896
			V34.133C349.847,15.29,334.576,0.02,315.733,0H76.8C57.957,0.02,42.687,15.29,42.667,34.133v26.371
			C18.038,64.64,0,85.96,0,110.933s18.038,46.293,42.667,50.429v9.304c0.02,18.843,15.29,34.113,34.133,34.133h13.281
			c-3.074,5.164-4.713,11.056-4.747,17.067V256H76.8c-18.843,0.02-34.113,15.29-34.133,34.133v0.771
			C18.061,295.079,0.042,316.376,0,341.333V486.4c-0.001,2.263,0.898,4.434,2.499,6.035c1.6,1.6,3.771,2.499,6.035,2.499h34.133
			v8.533c-0.001,2.263,0.898,4.434,2.499,6.035c1.6,1.6,3.771,2.499,6.035,2.499h426.667c18.844-0.019,34.115-15.29,34.133-34.133
			v-256C511.981,203.023,496.71,187.752,477.867,187.733z M426.667,153.6v34.133h-81.547c3.074-5.164,4.713-11.056,4.747-17.067
			v-9.304c21.441-3.659,38.237-20.455,41.896-41.896h0.771C411.377,119.485,426.648,134.756,426.667,153.6z M375.467,110.933
			c-0.045,15.521-10.568,29.054-25.6,32.922V78.012C364.899,81.88,375.421,95.412,375.467,110.933z M17.067,110.933
			c0.045-15.521,10.568-29.054,25.6-32.922v65.843C27.635,139.987,17.112,126.455,17.067,110.933z M59.733,170.667V34.133
			c0.011-9.421,7.645-17.056,17.067-17.067h238.933c9.421,0.011,17.056,7.645,17.067,17.067v136.533
			c-0.011,9.421-7.645,17.056-17.067,17.067h-17.067v-42.667c-0.015-14.132-11.468-25.585-25.6-25.6h-153.6
			c-14.132,0.015-25.585,11.468-25.6,25.6v42.667H76.8C67.379,187.723,59.744,180.088,59.733,170.667z M119.467,187.733h-8.533
			v-17.067H281.6v17.067H119.467z M281.6,153.6H110.933v-8.533c0.005-4.711,3.822-8.529,8.533-8.533h153.6
			c4.711,0.005,8.529,3.822,8.533,8.533V153.6z M17.067,477.867V341.333c0.045-15.521,10.568-29.054,25.6-32.922v169.455H17.067z
			 M59.733,290.133c0.011-9.421,7.645-17.056,17.067-17.067h8.533v204.8c0.034,6.01,1.673,11.902,4.747,17.067H59.733V290.133z
			 M477.867,494.933h-358.4c-9.421-0.011-17.056-7.645-17.067-17.067v-256c0.011-9.421,7.645-17.056,17.067-17.067h358.4
			c9.421,0.012,17.054,7.646,17.067,17.067v119.467H486.4c-4.713,0-8.533,3.821-8.533,8.533c0,4.713,3.82,8.533,8.533,8.533h8.533
			v119.467C494.921,487.287,487.287,494.921,477.867,494.933z"/>
		<path d="M443.733,221.867h-307.2c-9.421,0.011-17.056,7.645-17.067,17.067V460.8c0.011,9.421,7.645,17.056,17.067,17.067h307.2
			c9.421-0.012,17.054-7.646,17.067-17.067V238.933C460.788,229.513,453.154,221.879,443.733,221.867z M443.733,460.8l-307.2,0.009
			V238.933h307.2V460.8z"/>
		<path d="M119.467,102.4h17.067c14.132-0.015,25.585-11.468,25.6-25.6V59.733c-0.015-14.132-11.468-25.585-25.6-25.6h-17.067
			c-14.132,0.015-25.585,11.468-25.6,25.6V76.8C93.882,90.932,105.335,102.385,119.467,102.4z M110.933,59.733
			c0.005-4.711,3.822-8.529,8.533-8.533h17.067c4.711,0.005,8.529,3.822,8.533,8.533V76.8c-0.005,4.711-3.822,8.529-8.533,8.533
			h-17.067c-4.711-0.005-8.529-3.822-8.533-8.533V59.733z"/>
		<path d="M256,102.4h17.067c14.132-0.015,25.585-11.468,25.6-25.6V59.733c-0.015-14.132-11.468-25.585-25.6-25.6H256
			c-14.132,0.015-25.585,11.468-25.6,25.6V76.8C230.415,90.932,241.868,102.385,256,102.4z M247.467,59.733
			c0.005-4.711,3.822-8.529,8.533-8.533h17.067c4.711,0.005,8.529,3.822,8.533,8.533V76.8c-0.005,4.711-3.822,8.529-8.533,8.533H256
			c-4.711-0.005-8.529-3.822-8.533-8.533V59.733z"/>
		<path d="M162.133,443.733c2.263,0.001,4.434-0.898,6.035-2.499c1.6-1.6,2.499-3.771,2.499-6.035V264.533
			c0-4.713-3.821-8.533-8.533-8.533c-4.713,0-8.533,3.821-8.533,8.533V435.2c-0.001,2.263,0.898,4.434,2.499,6.035
			S159.87,443.734,162.133,443.733z"/>
		<path d="M196.267,307.2h25.6c4.713,0,8.533-3.82,8.533-8.533s-3.821-8.533-8.533-8.533h-25.6c-4.713,0-8.533,3.82-8.533,8.533
			S191.554,307.2,196.267,307.2z"/>
		<path d="M256,307.2h8.533c4.713,0,8.533-3.82,8.533-8.533s-3.82-8.533-8.533-8.533H256c-4.713,0-8.533,3.82-8.533,8.533
			S251.287,307.2,256,307.2z"/>
		<path d="M256,324.267h-51.2c-4.713,0-8.533,3.82-8.533,8.533s3.821,8.533,8.533,8.533H256c4.713,0,8.533-3.82,8.533-8.533
			S260.713,324.267,256,324.267z"/>
		<path d="M290.133,341.333h25.6c4.713,0,8.533-3.82,8.533-8.533s-3.821-8.533-8.533-8.533h-25.6c-4.713,0-8.533,3.82-8.533,8.533
			S285.421,341.333,290.133,341.333z"/>
		<path d="M204.8,409.6h17.067c4.713,0,8.533-3.821,8.533-8.533s-3.821-8.533-8.533-8.533H204.8c-4.713,0-8.533,3.82-8.533,8.533
			S200.087,409.6,204.8,409.6z"/>
		<path d="M247.467,401.067c-0.001,2.263,0.898,4.434,2.499,6.035c1.6,1.6,3.771,2.499,6.035,2.499h59.733
			c4.713,0,8.533-3.821,8.533-8.533s-3.821-8.533-8.533-8.533H256c-2.263-0.001-4.434,0.898-6.035,2.499
			C248.365,396.633,247.466,398.803,247.467,401.067z"/>
		<path d="M256,426.667h-51.2c-4.713,0-8.533,3.82-8.533,8.533s3.821,8.533,8.533,8.533H256c4.713,0,8.533-3.821,8.533-8.533
			S260.713,426.667,256,426.667z"/>
		<path d="M358.4,426.667h-68.267c-4.713,0-8.533,3.82-8.533,8.533s3.821,8.533,8.533,8.533H358.4c4.713,0,8.533-3.821,8.533-8.533
			S363.113,426.667,358.4,426.667z"/>
		<path d="M349.867,341.333h42.667c4.713,0,8.533-3.82,8.533-8.533s-3.82-8.533-8.533-8.533h-42.667
			c-4.713,0-8.533,3.82-8.533,8.533S345.154,341.333,349.867,341.333z"/>
		<path d="M307.2,358.4h-93.867c-4.713,0-8.533,3.82-8.533,8.533s3.82,8.533,8.533,8.533H307.2c4.713,0,8.533-3.82,8.533-8.533
			S311.913,358.4,307.2,358.4z"/>
		<path d="M341.333,375.467h25.6c4.713,0,8.533-3.82,8.533-8.533s-3.82-8.533-8.533-8.533h-25.6c-4.713,0-8.533,3.82-8.533,8.533
			S336.621,375.467,341.333,375.467z"/>
		<path d="M392.533,366.933c-0.001,2.263,0.898,4.434,2.499,6.035c1.6,1.6,3.771,2.499,6.035,2.499h17.067
			c4.713,0,8.533-3.82,8.533-8.533s-3.82-8.533-8.533-8.533h-17.067c-2.263-0.001-4.434,0.898-6.035,2.499
			C393.432,362.499,392.533,364.67,392.533,366.933z"/>
	</g>
</g>
<g>
</g>
<g>
</g>
<g>
</g>
<g>
</g>
<g>
</g>
<g>
</g>
<g>
</g>
<g>
</g>
<g>
</g>
<g>
</g>
<g>
</g>
<g>
</g>
<g>
</g>
<g>
</g>
<g>
</g>
</svg>
