<?xml version="1.0" encoding="iso-8859-1"?>
<!-- Generator: Adobe Illustrator 19.0.0, SVG Export Plug-In . SVG Version: 6.00 Build 0)  -->
<svg version="1.1" id="Capa_1" xmlns="http://www.w3.org/2000/svg" xmlns:xlink="http://www.w3.org/1999/xlink" x="0px" y="0px"
	 viewBox="0 0 512 512" style="enable-background:new 0 0 512 512;" xml:space="preserve">
<g>
	<g transform="translate(1 1)">
		<path style="fill:#4CAF50;" d="M493.933,7.533H16.067c-4.707,0.014-8.519,3.826-8.533,8.533v477.867
			c0.014,4.707,3.826,8.519,8.533,8.533h477.867c4.707-0.014,8.519-3.826,8.533-8.533V16.067
			C502.453,11.36,498.64,7.547,493.933,7.533z"/>
		<rect x="41.667" y="7.533" style="fill:#607D8B;" width="196.267" height="494.933"/>
		<rect x="237.933" y="7.533" style="fill:#4CAF50;" width="34.133" height="494.933"/>
		<rect x="272.067" y="7.533" style="fill:#607D8B;" width="196.267" height="494.933"/>
		<g>
			<rect x="41.667" y="7.533" style="fill:#CFD8DC;" width="170.667" height="494.933"/>
			<rect x="272.067" y="7.533" style="fill:#CFD8DC;" width="170.667" height="494.933"/>
		</g>
		<g>
			<path style="fill:#FFFFFF;" d="M127,50.2h17.067c4.713,0,8.533,3.821,8.533,8.533v85.333c0,4.713-3.821,8.533-8.533,8.533H127
				c-4.713,0-8.533-3.821-8.533-8.533V58.733C118.467,54.021,122.287,50.2,127,50.2z"/>
			<path style="fill:#FFFFFF;" d="M365.933,50.2H383c4.713,0,8.533,3.821,8.533,8.533v85.333c0,4.713-3.82,8.533-8.533,8.533
				h-17.067c-4.713,0-8.533-3.821-8.533-8.533V58.733C357.4,54.021,361.221,50.2,365.933,50.2z"/>
			<path style="fill:#FFFFFF;" d="M127,203.8h17.067c4.713,0,8.533,3.82,8.533,8.533v85.333c0,4.713-3.821,8.533-8.533,8.533H127
				c-4.713,0-8.533-3.82-8.533-8.533v-85.333C118.467,207.621,122.287,203.8,127,203.8z"/>
			<path style="fill:#FFFFFF;" d="M365.933,203.8H383c4.713,0,8.533,3.82,8.533,8.533v85.333c0,4.713-3.82,8.533-8.533,8.533
				h-17.067c-4.713,0-8.533-3.82-8.533-8.533v-85.333C357.4,207.621,361.221,203.8,365.933,203.8z"/>
		</g>
		<path style="fill:#4527A0;" d="M391.533,365.933c0.01,36.214-14.372,70.948-39.979,96.555
			c-25.607,25.607-60.341,39.989-96.555,39.979c-4.274,0.018-8.546-0.182-12.8-0.597c-70.137-6.606-123.734-65.488-123.734-135.936
			s53.597-129.33,123.734-135.936c4.254-0.416,8.526-0.615,12.8-0.597c36.214-0.01,70.948,14.371,96.555,39.979
			C377.162,294.986,391.543,329.719,391.533,365.933z"/>
		<ellipse style="fill:#673AB7;" cx="242.2" cy="365.933" rx="123.733" ry="135.936"/>
	</g>
	<g>
		<path d="M128,162.133h17.067c9.421-0.011,17.056-7.645,17.067-17.067V59.733c-0.011-9.421-7.645-17.056-17.067-17.067H128
			c-9.421,0.011-17.056,7.645-17.067,17.067v85.333C110.944,154.488,118.579,162.123,128,162.133z M128,59.733h17.067l0.012,85.333
			H128V59.733z"/>
		<path d="M164.442,330.417c-2.087,2.224-2.829,5.392-1.947,8.312c0.883,2.919,3.256,5.146,6.225,5.842
			c2.97,0.695,6.085-0.246,8.172-2.47c20.294-22.233,49.006-34.9,79.108-34.9s58.815,12.667,79.108,34.9
			c2.087,2.224,5.202,3.166,8.172,2.47s5.343-2.922,6.225-5.842c0.883-2.919,0.141-6.088-1.947-8.312
			c-23.523-25.668-56.741-40.283-91.558-40.283S187.965,304.748,164.442,330.417z"/>
		<path d="M256,341.942c-23.99,0.029-46.882,10.059-63.167,27.675c-3.196,3.436-3.018,8.808,0.398,12.025s8.789,3.072,12.027-0.324
			c13.042-14.216,31.45-22.308,50.742-22.308s37.699,8.093,50.742,22.308c3.232,3.426,8.628,3.586,12.057,0.357
			c3.429-3.229,3.593-8.625,0.368-12.057C302.882,352,279.99,341.971,256,341.942z"/>
		<path d="M256,392.642c-13.17,0.011-25.74,5.51-34.687,15.175c-2.09,2.218-2.838,5.383-1.962,8.302
			c0.876,2.919,3.242,5.149,6.208,5.85c2.966,0.701,6.08-0.234,8.17-2.452c5.823-6.061,13.865-9.488,22.271-9.488
			c8.405,0,16.448,3.426,22.271,9.488c2.09,2.218,5.205,3.153,8.17,2.452c2.966-0.701,5.332-2.931,6.208-5.85
			c0.876-2.919,0.128-6.084-1.962-8.302C281.74,398.152,269.17,392.653,256,392.642z"/>
		<path d="M262.059,446.208c-0.83-0.753-1.783-1.359-2.817-1.792c-2.06-0.942-4.427-0.942-6.487,0
			c-2.141,0.78-3.828,2.467-4.608,4.608c-0.906,2.066-0.906,4.417,0,6.483c0.435,1.034,1.041,1.987,1.795,2.818
			c0.847,0.751,1.794,1.382,2.813,1.875c3.201,1.248,6.837,0.516,9.305-1.875c0.751-0.832,1.357-1.784,1.792-2.817
			c0.911-2.065,0.911-4.418,0-6.483C263.418,447.991,262.812,447.039,262.059,446.208z"/>
		<path d="M384,42.667h-17.067c-9.421,0.011-17.056,7.645-17.067,17.067v85.333c0.011,9.421,7.645,17.056,17.067,17.067H384
			c9.421-0.011,17.056-7.645,17.067-17.067V59.733C401.056,50.312,393.421,42.677,384,42.667z M366.933,145.067V59.733H384
			l0.012,85.333H366.933z"/>
		<path d="M494.933,0H17.067C7.645,0.011,0.011,7.645,0,17.067v477.867c0.011,9.421,7.645,17.056,17.067,17.067h477.867
			c9.421-0.011,17.056-7.645,17.067-17.067V17.067C511.989,7.645,504.355,0.011,494.933,0z M384,298.667h-0.07
			c-4.782-8.907-10.478-17.293-16.997-25.02v-60.314H384V298.667z M384,366.933c0,70.692-57.308,128-128,128s-128-57.308-128-128
			s57.308-128,128-128C326.66,239.012,383.921,296.273,384,366.933z M128,298.667v-85.333h17.067v60.314
			c-6.519,7.727-12.215,16.112-16.997,25.02H128z M256,221.867c-2.88,0-5.694,0.266-8.533,0.432V17.067h17.067v205.232
			C261.694,222.132,258.88,221.867,256,221.867z M17.067,17.067h17.067v477.867H17.067V17.067z M51.2,494.933V17.067h179.2v207.202
			c-25.213,4.511-48.773,15.644-68.267,32.259v-43.194c-0.011-9.421-7.645-17.056-17.067-17.067H128
			c-9.421,0.011-17.056,7.645-17.067,17.067v85.333c0.014,6.705,3.954,12.78,10.07,15.528c-27,68.486,1.8,146.322,66.875,180.739
			H51.2z M401.067,366.933c-0.023-18.055-3.439-35.945-10.07-52.739c6.116-2.748,10.056-8.823,10.07-15.528v-85.333
			c-0.011-9.421-7.645-17.056-17.067-17.067h-17.067c-9.421,0.011-17.056,7.645-17.067,17.067v43.194
			c-19.493-16.615-43.054-27.748-68.267-32.259V17.067h179.2v477.867H324.122C371.435,469.745,401.018,420.534,401.067,366.933z
			 M494.933,494.933h-17.067V17.067h17.067V494.933z"/>
	</g>
</g>
<g>
</g>
<g>
</g>
<g>
</g>
<g>
</g>
<g>
</g>
<g>
</g>
<g>
</g>
<g>
</g>
<g>
</g>
<g>
</g>
<g>
</g>
<g>
</g>
<g>
</g>
<g>
</g>
<g>
</g>
</svg>
