<?xml version="1.0" encoding="iso-8859-1"?>
<!-- Generator: Adobe Illustrator 19.0.0, SVG Export Plug-In . SVG Version: 6.00 Build 0)  -->
<svg version="1.1" id="Capa_1" xmlns="http://www.w3.org/2000/svg" xmlns:xlink="http://www.w3.org/1999/xlink" x="0px" y="0px"
	 viewBox="0 0 512.158 512.158" style="enable-background:new 0 0 512.158 512.158;" xml:space="preserve">
<g transform="translate(-1 -1)">
	<g transform="translate(1 2)">
		<path style="fill:#FFEB3A;" d="M334.33,378.209c49.835,12.459,66.816-2.731,66.816-2.731
			c-16.725-15.019-19.797-61.867-19.371-98.475l7.167-47.445c24.499-110.933-81.663-119.467-81.663-119.467h-102.4
			c0,0-106.162,8.533-81.663,119.467l7.167,47.445c0.427,36.608-2.645,83.456-19.371,98.475c0,0,16.981,15.189,66.816,2.731H334.33z
			"/>
		<path style="fill:#607D8B;" d="M358.052,235.019c7.284-9.152,20.478-10.956,29.952-4.096c4.432,4.801,5.932,11.617,3.925,17.835
			c-2.466,9.76-5.896,19.25-10.24,28.331c-2.364,8.583-6.08,16.735-11.008,24.149c-2.188,2.878-5.48,4.709-9.079,5.05
			s-7.176-0.841-9.865-3.258H160.409c-2.689,2.417-6.266,3.598-9.865,3.258c-3.599-0.34-6.891-2.172-9.079-5.05
			c-4.928-7.414-8.644-15.566-11.008-24.149c-4.344-9.081-7.774-18.571-10.24-28.331c-2.007-6.218-0.506-13.034,3.925-17.835
			c9.474-6.86,22.668-5.056,29.952,4.096H358.052z"/>
		<path style="fill:#37474F;" d="M358.479,212.492c0,12.117-0.427,24.32-1.024,36.437c-0.512,10.24-1.195,20.48-2.389,30.635
			c-1.877,16.213-4.864,32.256-7.083,48.384c-1.754,15.266-5.483,30.239-11.093,44.544c-3.124,8.079-7.532,15.6-13.056,22.272
			c-1.106,1.333-2.304,2.588-3.584,3.755c-6.691,5.942-13.76,11.443-21.163,16.469c-7.083,5.035-13.483,11.093-20.651,15.787
			c-6.966,3.276-14.716,4.518-22.357,3.584c-4.267-0.171-8.619,0.085-12.8-0.427c-3.396-0.255-6.678-1.339-9.557-3.157
			c-7.168-4.693-13.568-10.752-20.651-15.787c-7.403-5.026-14.472-10.528-21.163-16.469c-1.28-1.167-2.478-2.421-3.584-3.755
			c-5.524-6.672-9.932-14.193-13.056-22.272c-5.61-14.305-9.339-29.278-11.093-44.544c-2.219-16.128-5.205-32.171-7.083-48.384
			c-1.109-10.155-1.877-20.395-2.389-30.635c-0.597-12.117-1.024-24.32-1.024-36.437c0-63.317,28.757-90.709,55.808-102.4h93.184
			C329.722,121.782,358.479,149.174,358.479,212.492z"/>
		<g>
			<path style="fill:#607D8B;" d="M332.879,212.492c0,12.117-0.427,24.32-1.024,36.437c-0.512,10.24-1.195,20.48-2.389,30.635
				c-1.877,16.213-4.864,32.256-7.083,48.384c-1.754,15.266-5.483,30.239-11.093,44.544c-3.124,8.079-7.532,15.6-13.056,22.272
				c-1.106,1.333-2.304,2.588-3.584,3.755c-6.691,5.942-13.76,11.443-21.163,16.469c-7.083,5.035-13.483,11.093-20.651,15.787
				c-2.862,1.855-6.153,2.943-9.557,3.157c-3.396-0.255-6.678-1.339-9.557-3.157c-7.168-4.693-13.568-10.752-20.651-15.787
				c-7.403-5.026-14.472-10.528-21.163-16.469c-1.28-1.167-2.478-2.421-3.584-3.755c-5.524-6.672-9.932-14.193-13.056-22.272
				c-5.61-14.305-9.339-29.278-11.093-44.544c-2.219-16.128-5.205-32.171-7.083-48.384c-1.109-10.155-1.877-20.395-2.389-30.635
				c-0.597-12.117-1.024-24.32-1.024-36.437c0-63.317,28.757-90.709,55.808-102.4h67.584c23.04,9.984,47.275,31.317,54.016,76.544
				v0.085C332.332,195.254,332.931,203.868,332.879,212.492z"/>
			<path style="fill:#607D8B;" d="M340.73,33.121l-41.984,76.971v17.067h-85.333v-17.067l-41.984-76.971
				c25.302-16.187,54.617-24.993,84.651-25.429c20.489,0.119,40.744,4.356,59.563,12.459
				C324.307,23.861,332.692,28.196,340.73,33.121z"/>
		</g>
		<path style="fill:#CFD8DC;" d="M315.642,20.15l-41.813,87.467v19.541h-60.416v-17.067l-41.984-76.971
			c25.302-16.187,54.617-24.993,84.651-25.429C276.568,7.81,296.823,12.047,315.642,20.15z"/>
		<path style="fill:#2E7D32;" d="M358.479,212.492c-7.747-9.952-16.987-18.645-27.392-25.771v-0.085
			c-6.741-45.227-30.976-66.56-54.016-76.544h25.6C329.722,121.782,358.479,149.174,358.479,212.492z"/>
		<path style="fill:#4CAF50;" d="M331.087,186.635c-2.169-1.412-4.42-2.694-6.741-3.84c-5.269-2.78-11.111-4.299-17.067-4.437
			c-5.815-0.037-11.591,0.945-17.067,2.901c-5.94,2.38-11.652,5.294-17.067,8.704c-5.109,3.292-10.996,5.176-17.067,5.461
			c-6.071-0.286-11.958-2.17-17.067-5.461c-5.415-3.41-11.127-6.324-17.067-8.704c-5.476-1.956-11.252-2.938-17.067-2.901
			c-5.956,0.139-11.798,1.658-17.067,4.437c-13.246,7.52-24.852,17.618-34.133,29.696c0-63.317,28.757-90.709,55.808-102.4h67.584
			C300.111,120.075,324.346,141.409,331.087,186.635z"/>
		<g>
			<path style="fill:#CFD8DC;" d="M179.279,494.092v8.533h-102.4v-8.533c-0.236-9.711,2.342-19.284,7.424-27.563
				c9.213-14.035,24.595-22.804,41.367-23.581c16.771-0.777,32.898,6.532,43.369,19.656c1.014,1.252,1.955,2.563,2.816,3.925
				C176.937,474.808,179.515,484.38,179.279,494.092z"/>
			<path style="fill:#CFD8DC;" d="M435.279,494.092v8.533h-102.4v-8.533c-0.236-9.711,2.342-19.284,7.424-27.563
				c0.861-1.362,1.802-2.673,2.816-3.925c10.471-13.124,26.598-20.433,43.369-19.656c16.771,0.777,32.154,9.546,41.367,23.581
				C432.937,474.808,435.515,484.38,435.279,494.092z"/>
		</g>
		<path style="fill:#37474F;" d="M344.826,462.604c-1.015,1.252-1.955,2.563-2.816,3.925c-5.082,8.279-7.66,17.851-7.424,27.563
			v8.533h-25.6v-8.533c-0.236-9.711,2.342-19.284,7.424-27.563c0.861-1.362,1.802-2.673,2.816-3.925
			c-10.877-13.558-17.366-30.107-18.603-47.445c0.085-0.085,0.085-0.171,0.171-0.171c7.403-5.026,14.472-10.527,21.163-16.469
			c1.28-1.167,2.478-2.421,3.584-3.755C324.346,402.614,325.711,442.465,344.826,462.604z"/>
		<path style="fill:#607D8B;" d="M319.226,462.604c-1.014,1.252-1.955,2.563-2.816,3.925c-5.082,8.279-7.66,17.851-7.424,27.563
			v8.533h-128v-8.533c0.236-9.711-2.342-19.284-7.424-27.563c-0.861-1.362-1.802-2.673-2.816-3.925
			c10.877-13.558,17.366-30.107,18.603-47.445c0.971-6.753,1.2-13.592,0.683-20.395c1.106,1.333,2.304,2.588,3.584,3.755
			c6.691,5.942,13.76,11.443,21.163,16.469c7.083,5.035,13.483,11.093,20.651,15.787c2.88,1.818,6.161,2.903,9.557,3.157
			c4.181,0.512,8.533,0.256,12.8,0.427c7.641,0.934,15.391-0.308,22.357-3.584c7.083-4.693,13.483-10.667,20.48-15.616
			C301.859,432.496,308.348,449.046,319.226,462.604z"/>
		<g>
			<circle style="fill:#4CAF50;" cx="209.146" cy="267.958" r="21.333"/>
			<circle style="fill:#4CAF50;" cx="303.012" cy="267.958" r="21.333"/>
		</g>
	</g>
	<g>
		<path d="M169.276,451.504c-13.252-11.639-30.899-16.962-48.377-14.594s-33.072,12.195-42.75,26.94
			c-5.983,9.679-9.04,20.882-8.804,32.259v8.516c-0.001,2.263,0.898,4.434,2.499,6.035c1.6,1.6,3.771,2.499,6.035,2.499h358.4
			c2.263,0.001,4.434-0.898,6.035-2.499c1.6-1.6,2.499-3.771,2.499-6.035v-8.516c0.236-11.377-2.821-22.579-8.804-32.258
			c-9.678-14.745-25.272-24.572-42.75-26.94c-17.478-2.368-35.124,2.955-48.377,14.594c-8.156-15.904-12.203-33.596-11.773-51.464
			c2.474-3.198,4.703-6.578,6.666-10.113c10.215,2.328,20.646,3.575,31.121,3.722c24.975,0,35.454-8.483,36.937-9.817
			c1.809-1.616,2.843-3.926,2.846-6.351c0.002-2.425-1.028-4.737-2.833-6.357c-10.954-9.833-16.956-42.778-16.543-90.463
			l0.647-1.504c4.009-8.537,7.135-17.461,9.329-26.633c1.892-7.172,0.959-14.797-2.608-21.301
			c7.39-35.471,2.818-64.856-13.762-87.282c-22.028-29.793-58.166-37.782-71.133-39.753l35.445-64.98
			c2.174-3.988,0.844-8.98-3.025-11.358c-54.018-35.8-124.215-35.8-178.233,0c-3.869,2.379-5.199,7.37-3.025,11.358l35.445,64.981
			c-12.967,1.97-49.105,9.96-71.133,39.753c-16.576,22.42-21.149,51.795-13.768,87.252c-3.575,6.5-4.513,14.126-2.62,21.299
			c2.196,9.181,5.324,18.114,9.338,26.658l0.655,1.527c0.412,47.677-5.59,80.616-16.543,90.448c-1.805,1.62-2.836,3.932-2.833,6.357
			c0.002,2.425,1.037,4.735,2.846,6.351c1.483,1.333,11.958,9.817,36.937,9.817c10.469-0.147,20.893-1.393,31.101-3.717
			c1.969,3.545,4.205,6.935,6.687,10.142C181.475,417.931,177.427,435.61,169.276,451.504z M139.308,275.75l-1.434-3.342
			c-3.549-7.507-6.332-15.352-8.308-23.417c-1.086-3.127-0.743-6.573,0.937-9.425c2.466-1.893,5.598-2.697,8.671-2.225
			c2.765,0.316,5.378,1.433,7.518,3.213c0.135,3.442,0.291,7.018,0.478,10.795c0.542,10.9,1.358,21.383,2.433,31.2
			c0.664,5.731,1.478,11.445,2.33,17.118c-1.212-0.365-2.284-1.089-3.076-2.077c-3.023-4.144-5.247-8.816-6.558-13.775
			C141.354,281.067,140.412,278.341,139.308,275.75z M212.283,120.625h89.567c26.826,12.215,42.569,35.96,47.356,70.406
			c-7.038-6.476-15.106-11.733-23.873-15.556v-12.183c0-2.263-0.899-4.434-2.5-6.033l-6.033-6.033v-5.001
			c0-4.713-3.821-8.533-8.533-8.533s-8.533,3.821-8.533,8.533v8.533c0,2.263,0.899,4.434,2.5,6.033l6.033,6.033v5.001
			c-5.78-0.024-11.532,0.811-17.067,2.478v-11.011c0-2.263-0.899-4.434-2.5-6.033l-6.033-6.033v-5.001
			c0-4.713-3.821-8.533-8.533-8.533s-8.533,3.821-8.533,8.533v8.533c0,2.263,0.899,4.434,2.5,6.033l6.033,6.033v15.275
			c-0.413,0.239-0.847,0.483-1.25,0.717c-4.644,3.384-10.101,5.48-15.817,6.075c-5.714-0.595-11.169-2.691-15.812-6.075
			c-0.405-0.234-0.84-0.48-1.254-0.719v-15.272l6.033-6.033c1.601-1.6,2.5-3.77,2.5-6.033v-8.534c0-4.713-3.821-8.533-8.533-8.533
			s-8.533,3.821-8.533,8.533v5l-6.033,6.033c-1.601,1.6-2.5,3.77-2.5,6.033v11.011c-5.535-1.666-11.286-2.501-17.067-2.478v-5
			l6.033-6.033c1.601-1.6,2.5-3.77,2.5-6.033v-8.533c0-4.713-3.821-8.533-8.533-8.533c-4.713,0-8.533,3.821-8.533,8.533v5
			l-6.033,6.033c-1.601,1.6-2.5,3.77-2.5,6.033v12.183c-8.767,3.823-16.835,9.08-23.872,15.557
			C169.715,156.589,185.459,132.84,212.283,120.625z M374.971,237.341c3.063-0.46,6.182,0.336,8.65,2.208
			c1.702,2.866,2.05,6.337,0.95,9.483c-1.973,8.051-4.754,15.882-8.3,23.375l-1.429,3.342c-1.104,2.592-2.054,5.325-2.996,8.075
			c-1.307,4.946-3.522,9.606-6.533,13.742c-0.8,0.996-1.883,1.726-3.107,2.092c0.85-5.669,1.663-11.376,2.324-17.092
			c1.054-8.967,1.808-18.6,2.442-31.225c0.184-3.767,0.34-7.335,0.473-10.775C369.584,238.779,372.201,237.658,374.971,237.341z
			 M184.121,371.175c-5.312-13.616-8.843-27.862-10.505-42.383c-0.913-6.658-1.958-13.292-3.004-19.933
			c-1.458-9.275-2.967-18.867-4.05-28.217c-1.029-9.433-1.821-19.575-2.346-30.133c-0.633-12.806-0.941-23.378-0.995-33.087
			c7.837-9.619,26.548-28.529,42.645-28.529c9.605,0.201,18.938,3.223,26.837,8.692c7.18,5.01,15.619,7.911,24.363,8.375
			c8.745-0.463,17.185-3.364,24.367-8.375c7.897-5.468,17.23-8.491,26.833-8.692c16.097,0,34.807,18.91,42.645,28.53
			c-0.053,9.756-0.361,20.329-0.986,33.079c-0.613,12.217-1.338,21.492-2.346,30.083c-1.096,9.442-2.608,19.067-4.075,28.375
			c-1.037,6.608-2.075,13.208-2.983,19.808c-1.696,14.544-5.234,28.814-10.529,42.467c-3.188,8.621-8.155,16.475-14.579,23.05
			c-5.841,5.217-12.015,10.05-18.483,14.467l-1.796,1.283c-3.279,2.333-6.425,4.867-9.554,7.4
			c-3.483,2.926-7.111,5.674-10.871,8.233c-3.907,1.884-8.272,2.61-12.579,2.092c-1.804,0-3.629-0.009-4.683,0.075
			c-1.504-0.067-3.017-0.075-4.525-0.075h-0.917c-4.324,0.521-8.706-0.216-12.621-2.125c-3.638-2.383-7.133-5.208-10.837-8.2
			c-3.129-2.533-6.267-5.067-9.508-7.375l-1.896-1.358c-6.451-4.403-12.608-9.222-18.433-14.425
			C192.276,387.686,187.305,379.815,184.121,371.175z M92.467,473.15c8.111-12.313,21.868-19.725,36.613-19.725
			s28.502,7.412,36.613,19.725c4.179,6.907,6.281,14.872,6.054,22.942H86.412C86.185,488.022,88.287,480.057,92.467,473.15z
			 M385.079,453.425c14.764-0.077,28.556,7.353,36.613,19.725c4.179,6.907,6.281,14.872,6.054,22.942h-85.333
			c-0.227-8.07,1.875-16.035,6.054-22.942C356.523,460.778,370.315,453.347,385.079,453.425z M333.485,465.084
			c-5.502,9.395-8.317,20.122-8.139,31.008H188.811c0.179-10.886-2.636-21.613-8.139-31.008
			c9.764-14.826,15.562-31.908,16.843-49.614c3.223,2.46,6.48,4.809,9.684,7.105l1.917,1.375c2.988,2.116,5.842,4.442,8.696,6.75
			c3.903,3.266,7.969,6.331,12.183,9.183c6.662,3.876,14.358,5.602,22.038,4.942c1.55,0,3.108-0.009,5.413,0.058
			c1.546-0.067,3.096-0.067,4.654-0.058c7.663,0.654,15.342-1.06,22-4.908c4.226-2.862,8.302-5.938,12.213-9.217
			c2.854-2.308,5.717-4.625,8.737-6.775l1.817-1.3c3.236-2.318,6.523-4.688,9.775-7.17
			C317.92,433.166,323.719,450.253,333.485,465.084z M347.092,374.081c5.035-13.892,8.501-28.303,10.333-42.964
			c0.658-4.789,1.417-9.559,2.162-14.331c0.569,0.048,1.135,0.156,1.705,0.156c5.014-0.082,9.844-1.905,13.664-5.155
			c1.705,28.531,6.362,49.477,13.97,62.521C375.154,377.501,360.827,377.423,347.092,374.081z M371.187,154.092
			c12.549,16.972,16.522,39.497,12.019,66.933c-3.339-0.779-6.784-0.995-10.194-0.641c-1.715,0.225-3.409,0.591-5.065,1.093
			c0.029-2.368,0.053-4.71,0.053-6.984c0-39.448-10.743-65.773-25.116-83.376C354.007,136.422,363.708,144.297,371.187,154.092
			L371.187,154.092z M330.275,38.308l-35.593,65.25h-75.205l-35.593-65.25C229.01,11.542,285.148,11.542,330.275,38.308z
			 M142.896,154.191c7.461-9.789,17.146-17.661,28.254-22.963c-14.324,17.603-25.016,43.903-25.016,83.263
			c0,2.27,0.023,4.612,0.053,6.982c-1.653-0.5-3.344-0.865-5.057-1.09c-3.404-0.383-6.849-0.177-10.183,0.609
			C126.463,193.626,130.41,171.146,142.896,154.191z M125.221,374.333c7.613-13.044,12.276-33.995,13.982-62.533
			c3.813,3.247,8.636,5.068,13.643,5.15c0.569,0,1.136-0.108,1.705-0.156c0.744,4.773,1.501,9.542,2.161,14.34
			c1.83,14.657,5.295,29.064,10.33,42.95C153.31,377.412,138.992,377.498,125.221,374.333z"/>
		<path d="M233.967,336.458c-1.601,1.6-2.5,3.77-2.5,6.033s0.899,4.433,2.5,6.033c6.168,6.273,14.345,10.178,23.1,11.033
			c8.755-0.855,16.932-4.761,23.1-11.034c3.339-3.325,3.35-8.728,0.025-12.067c-3.325-3.339-8.728-3.35-12.067-0.025
			c-2.987,3.093-6.843,5.206-11.058,6.059c-4.204-0.848-8.051-2.952-11.034-6.033c-1.6-1.601-3.77-2.5-6.033-2.5
			S235.566,334.858,233.967,336.458z"/>
		<path d="M240.012,69.425h8.533v8.533c0,4.713,3.821,8.533,8.533,8.533s8.533-3.821,8.533-8.533v-8.533h8.533
			c4.713,0,8.533-3.821,8.533-8.533s-3.821-8.533-8.533-8.533h-8.533v-8.533c0-4.713-3.82-8.533-8.533-8.533
			s-8.533,3.821-8.533,8.533v8.533h-8.533c-4.713,0-8.533,3.821-8.533,8.533S235.3,69.425,240.012,69.425z"/>
		<path d="M240.012,269.958c0-16.495-13.372-29.867-29.867-29.867s-29.867,13.372-29.867,29.867s13.372,29.867,29.867,29.867
			C226.632,299.805,239.992,286.445,240.012,269.958z M197.346,269.958c0-7.069,5.731-12.8,12.8-12.8c7.069,0,12.8,5.731,12.8,12.8
			s-5.731,12.8-12.8,12.8C203.08,282.75,197.353,277.024,197.346,269.958z"/>
		<path d="M304.012,299.825c16.495,0,29.867-13.372,29.867-29.867s-13.372-29.867-29.867-29.867s-29.867,13.372-29.867,29.867
			C274.166,286.445,287.526,299.805,304.012,299.825z M304.012,257.158c7.069,0,12.8,5.731,12.8,12.8s-5.731,12.8-12.8,12.8
			s-12.8-5.731-12.8-12.8C291.22,262.892,296.946,257.166,304.012,257.158z"/>
		<path d="M282.679,376.625h-51.2c-4.713,0-8.533,3.82-8.533,8.533s3.821,8.533,8.533,8.533h51.2c4.713,0,8.533-3.82,8.533-8.533
			S287.392,376.625,282.679,376.625z"/>
	</g>
</g>
<g>
</g>
<g>
</g>
<g>
</g>
<g>
</g>
<g>
</g>
<g>
</g>
<g>
</g>
<g>
</g>
<g>
</g>
<g>
</g>
<g>
</g>
<g>
</g>
<g>
</g>
<g>
</g>
<g>
</g>
</svg>
