<?xml version="1.0" encoding="iso-8859-1"?>
<!-- Generator: Adobe Illustrator 19.0.0, SVG Export Plug-In . SVG Version: 6.00 Build 0)  -->
<svg version="1.1" id="Capa_1" xmlns="http://www.w3.org/2000/svg" xmlns:xlink="http://www.w3.org/1999/xlink" x="0px" y="0px"
	 viewBox="0 0 512.086 512.086" style="enable-background:new 0 0 512.086 512.086;" xml:space="preserve">
<g>
	<g transform="translate(1 1)">
		<polygon style="fill:#2296F3;" points="208.579,118.509 239.555,93.43 186.648,34.541 152.6,50.243 191.341,93.43 
			161.133,117.562 161.987,118.509 		"/>
		<path style="fill:#FFEB3A;" d="M340.333,255.043c23.564,0,42.667-19.103,42.667-42.667s-19.103-42.667-42.667-42.667H50.2
			c-23.564,0-42.667,19.103-42.667,42.667s19.103,42.667,42.667,42.667H340.333z"/>
		<path style="fill:#0377BC;" d="M229.4,297.709c9.426,0,17.067,7.641,17.067,17.067c0,9.426-7.641,17.067-17.067,17.067
			c9.426,0,17.067,7.641,17.067,17.067c0,9.426-7.641,17.067-17.067,17.067h85.333c6.792-0.009,13.309,2.685,18.112,7.488
			c4.803,4.803,7.497,11.32,7.488,18.112v110.933H50.2l0-110.933c-0.009-6.792,2.685-13.309,7.488-18.112
			c4.803-4.803,11.32-7.497,18.112-7.488h84.736c-9.189-0.328-16.469-7.872-16.469-17.067c0-9.195,7.28-16.739,16.469-17.067
			c-9.305-0.328-16.631-8.051-16.468-17.36c0.163-9.309,7.755-16.771,17.066-16.773H75.8c-6.792,0.009-13.309-2.685-18.112-7.488
			c-4.803-4.803-7.497-11.32-7.488-18.112V135.576c-0.009-6.792,2.685-13.309,7.488-18.112c4.803-4.803,11.32-7.497,18.112-7.488
			h238.933c6.792-0.009,13.309,2.685,18.112,7.488c4.803,4.803,7.497,11.32,7.488,18.112v136.533
			c0.009,6.792-2.685,13.309-7.488,18.112c-4.803,4.803-11.32,7.497-18.112,7.488H229.4z"/>
		<path style="fill:#02A9F4;" d="M204.653,297.709c9.086,0.466,16.214,7.969,16.214,17.067c0,9.098-7.128,16.601-16.214,17.067
			c9.25,0.468,16.44,8.224,16.209,17.483s-7.801,16.645-17.062,16.651h85.333c6.792-0.009,13.309,2.685,18.112,7.488
			c4.803,4.803,7.497,11.32,7.488,18.112v110.933H50.2l0-110.933c-0.009-6.792,2.685-13.309,7.488-18.112
			c4.803-4.803,11.32-7.497,18.112-7.488h84.565c-0.065-0.009-0.125-0.039-0.171-0.085c-0.832,0.004-1.661-0.082-2.475-0.256
			c-1.888-0.398-3.702-1.089-5.376-2.048l-1.024-0.768c-1.248-0.863-2.368-1.897-3.328-3.072c-0.617-0.741-1.161-1.542-1.621-2.389
			c-0.482-0.751-0.883-1.552-1.195-2.389c-0.414-1.101-0.7-2.247-0.853-3.413c-0.342-1.747-0.342-3.544,0-5.291
			c0.153-1.167,0.439-2.312,0.853-3.413c0.312-0.837,0.712-1.638,1.195-2.389v-0.085c0.471-0.815,1.013-1.586,1.621-2.304
			c0.423-0.594,0.942-1.113,1.536-1.536c0.211-0.297,0.471-0.557,0.768-0.768c0.32-0.283,0.663-0.54,1.024-0.768l1.024-0.768
			c1.674-0.959,3.488-1.65,5.376-2.048c0.698-0.174,1.414-0.26,2.133-0.256c0.043,0.169,0.206,0.28,0.379,0.259
			c0.174-0.022,0.304-0.169,0.304-0.344c0-0.175-0.13-0.322-0.304-0.344c-0.173-0.022-0.336,0.089-0.379,0.259
			c-0.663,0.005-1.323-0.082-1.963-0.256c-1.949-0.374-3.823-1.066-5.547-2.048l-1.024-0.768c-1.248-0.863-2.368-1.897-3.328-3.072
			c-0.608-0.718-1.151-1.489-1.621-2.304v-0.085c-0.482-0.751-0.883-1.552-1.195-2.389c-0.414-1.101-0.7-2.247-0.853-3.413
			c-0.174-0.871-0.26-1.757-0.256-2.645c0.027-9.414,7.652-17.039,17.067-17.067H75.8c-6.792,0.009-13.309-2.685-18.112-7.488
			c-4.803-4.803-7.497-11.32-7.488-18.112V135.576c-0.009-6.792,2.685-13.309,7.488-18.112c4.803-4.803,11.32-7.497,18.112-7.488
			h213.333c6.792-0.009,13.309,2.685,18.112,7.488c4.803,4.803,7.497,11.32,7.488,18.112v136.533
			c0.009,6.792-2.685,13.309-7.488,18.112c-4.803,4.803-11.32,7.497-18.112,7.488H204.653z"/>
		<path style="fill:#1566C0;" d="M246.467,348.909c-0.028,9.414-7.652,17.039-17.067,17.067h-25.6
			c9.261-0.005,16.831-7.392,17.062-16.651c0.231-9.259-6.959-17.014-16.209-17.483c9.086-0.466,16.214-7.969,16.214-17.067
			c0-9.098-7.128-16.601-16.214-17.067H229.4c9.426,0,17.067,7.641,17.067,17.067c0,9.426-7.641,17.067-17.067,17.067
			C238.814,331.87,246.439,339.495,246.467,348.909z"/>
		<path style="fill:#2296F3;" d="M220.867,348.909c-0.028,9.414-7.653,17.039-17.067,17.067h-43.435
			c-0.065-0.009-0.125-0.039-0.171-0.085c-0.832,0.004-1.661-0.082-2.475-0.256c-1.888-0.398-3.702-1.089-5.376-2.048l-1.024-0.768
			c-1.248-0.863-2.368-1.897-3.328-3.072c-0.617-0.741-1.161-1.542-1.621-2.389c-0.482-0.751-0.883-1.552-1.195-2.389
			c-0.414-1.101-0.7-2.247-0.853-3.413c-0.342-1.747-0.342-3.544,0-5.291c0.153-1.167,0.439-2.312,0.853-3.413
			c0.312-0.837,0.712-1.638,1.195-2.389v-0.085c0.471-0.815,1.013-1.586,1.621-2.304c0.423-0.594,0.942-1.113,1.536-1.536
			c0.211-0.297,0.471-0.557,0.768-0.768c0.32-0.283,0.663-0.54,1.024-0.768l1.024-0.768c1.674-0.959,3.488-1.65,5.376-2.048
			c0.698-0.174,1.414-0.26,2.133-0.256c0.043,0.169,0.206,0.28,0.379,0.259c0.174-0.022,0.304-0.169,0.304-0.344
			s-0.13-0.322-0.304-0.344c-0.173-0.022-0.336,0.089-0.379,0.259c-0.663,0.005-1.323-0.082-1.963-0.256
			c-1.949-0.374-3.823-1.066-5.547-2.048l-1.024-0.768c-1.248-0.863-2.368-1.897-3.328-3.072c-0.608-0.718-1.151-1.489-1.621-2.304
			v-0.085c-0.482-0.751-0.883-1.552-1.195-2.389c-0.414-1.101-0.7-2.247-0.853-3.413c-0.174-0.871-0.26-1.757-0.256-2.645
			c0.027-9.414,7.652-17.039,17.067-17.067h43.52c9.086,0.466,16.214,7.969,16.214,17.067c0,9.098-7.128,16.601-16.214,17.067
			C213.717,332.357,220.818,339.831,220.867,348.909z"/>
		<g>
			<path style="fill:#FFEB3A;" d="M118.467,144.109h17.067c9.426,0,17.067,7.641,17.067,17.067v17.067
				c0,9.426-7.641,17.067-17.067,17.067h-17.067c-9.426,0-17.067-7.641-17.067-17.067v-17.067
				C101.4,151.75,109.041,144.109,118.467,144.109z"/>
			<path style="fill:#FFEB3A;" d="M255,144.109h17.067c9.426,0,17.067,7.641,17.067,17.067v17.067
				c0,9.426-7.641,17.067-17.067,17.067H255c-9.426,0-17.067-7.641-17.067-17.067v-17.067
				C237.933,151.75,245.574,144.109,255,144.109z"/>
			<circle style="fill:#FFEB3A;" cx="161.133" cy="33.176" r="25.6"/>
		</g>
		<g>
			<rect x="101.4" y="263.576" style="fill:#F5F5F5;" width="187.733" height="34.133"/>
			<path style="fill:#F5F5F5;" d="M289.133,246.509v17.067H101.4v-17.067c0.028-9.414,7.652-17.039,17.067-17.067h153.6
				C281.481,229.47,289.106,237.095,289.133,246.509z"/>
		</g>
		<path style="fill:#FDD834;" d="M297.667,425.709v76.8h-204.8v-76.8c-0.321-9.048,6.709-16.664,15.754-17.067h173.292
			C290.957,409.046,297.988,416.662,297.667,425.709z"/>
		<path style="fill:#FFEB3A;" d="M272.067,425.709v76.8h-179.2v-76.8c-0.364-8.999,6.587-16.613,15.583-17.067h148.035
			C265.479,409.097,272.431,416.71,272.067,425.709z"/>
		<path style="fill:#2296F3;" d="M50.2,400.109v102.4H7.533v-59.733C7.542,419.216,26.639,400.118,50.2,400.109z"/>
		<rect x="383" y="459.843" style="fill:#02A9F4;" width="59.733" height="42.667"/>
		<rect x="374.467" y="84.376" style="fill:#607D8B;" width="85.333" height="358.4"/>
		<rect x="374.467" y="84.376" style="fill:#CFD8DC;" width="59.733" height="358.4"/>
		<path style="fill:#FEC108;" d="M459.8,195.309v42.667c0,14.165-19.115,25.6-42.667,25.6c-23.552,0-42.667-11.435-42.667-25.6
			v-42.667c0,14.165,19.115,25.6,42.667,25.6C440.685,220.909,459.8,209.475,459.8,195.309z"/>
		<ellipse style="fill:#CFD8DC;" cx="417.133" cy="84.376" rx="42.667" ry="25.6"/>
		<path style="fill:#2296F3;" d="M502.467,391.576l-5.717,8.533l-40.789,61.269l-4.694,6.997h-76.8l-4.096-6.144l-41.387-62.123
			l-5.717-8.533l6.229-8.533l12.032-16.555l32.939-45.312v57.6l-2.817,4.267l-5.717,8.533l6.827,8.533l20.48,25.6l6.827,8.533h25.6
			l5.973-7.509l21.333-26.624l6.827-8.533l-5.717-8.533l-1.793-2.731l-34.987-52.48c-4.769-7.218-2.827-16.932,4.352-21.76
			c7.011-4.687,16.473-2.991,21.419,3.84l41.131,56.576l12.032,16.555L502.467,391.576z"/>
	</g>
	<g>
		<path d="M119.467,204.843h17.067c14.132-0.015,25.585-11.468,25.6-25.6v-17.067c-0.015-14.132-11.468-25.585-25.6-25.6h-17.067
			c-14.132,0.015-25.585,11.468-25.6,25.6v17.067C93.882,193.375,105.335,204.827,119.467,204.843z M110.933,162.176
			c0.003-4.712,3.822-8.53,8.533-8.533h17.067c4.712,0.003,8.53,3.822,8.533,8.533v17.067c-0.003,4.712-3.822,8.53-8.533,8.533
			h-17.067c-4.712-0.003-8.53-3.822-8.533-8.533V162.176z"/>
		<path d="M256,204.843h17.067c14.132-0.015,25.585-11.468,25.6-25.6v-17.067c-0.015-14.132-11.468-25.585-25.6-25.6H256
			c-14.132,0.015-25.585,11.468-25.6,25.6v17.067C230.415,193.375,241.868,204.827,256,204.843z M247.467,162.176
			c0.003-4.712,3.822-8.53,8.533-8.533h17.067c4.712,0.003,8.53,3.822,8.533,8.533v17.067c-0.003,4.712-3.822,8.53-8.533,8.533H256
			c-4.712-0.003-8.53-3.822-8.533-8.533V162.176z"/>
		<path d="M512,187.776c0-4.713-3.82-8.533-8.533-8.533s-8.533,3.821-8.533,8.533c1.265,15.964-9.825,30.269-25.6,33.023V85.376
			c0-19.142-22.492-34.133-51.2-34.133s-51.2,14.992-51.2,34.133v83.797c-5.278-3.056-11.056-5.15-17.067-6.184v-26.413
			c-0.019-18.844-15.29-34.115-34.133-34.133h-79.913l9.754-7.091c2.02-1.466,3.296-3.744,3.492-6.232
			c0.196-2.488-0.709-4.937-2.475-6.701l-50.559-50.56c-1.198-18.188-16.505-32.208-34.728-31.807s-32.899,15.08-33.296,33.304
			c-0.397,18.223,13.627,33.527,31.815,34.721l19.369,19.308l-20.987,15.058H76.8c-18.844,0.019-34.115,15.29-34.133,34.133v26.371
			C18.038,167.083,0,188.403,0,213.376s18.038,46.293,42.667,50.429v9.304c0.019,18.844,15.29,34.115,34.133,34.133h61.306
			c-3.297,8.807-1.327,18.721,5.085,25.6c-6.413,6.879-8.382,16.793-5.085,25.6H76.8c-18.844,0.019-34.115,15.29-34.133,34.133
			v0.771C18.061,397.522,0.042,418.819,0,443.776v59.733c-0.001,2.264,0.897,4.435,2.498,6.035c1.601,1.601,3.772,2.499,6.035,2.498
			h332.8c2.264,0.001,4.435-0.897,6.035-2.498c1.601-1.601,2.499-3.772,2.498-6.035v-57.15l18.5,27.75
			c0.502,0.727,1.116,1.37,1.818,1.906c0.068,0.054,0.097,0.133,0.166,0.185c0.119,0.089,0.259,0.117,0.381,0.199
			c0.519,0.35,1.076,0.641,1.66,0.868c0.225,0.087,0.439,0.19,0.668,0.258c0.768,0.238,1.566,0.366,2.37,0.379l0.029,0.004
			l0.003-0.001l0.005,0.001v25.6c-0.001,2.264,0.897,4.435,2.498,6.035c1.601,1.601,3.772,2.499,6.035,2.498h59.733
			c2.264,0.001,4.435-0.897,6.035-2.498c1.601-1.601,2.499-3.772,2.498-6.035v-25.6l0.005-0.001l0.003,0.001l0.029-0.005
			c0.804-0.013,1.602-0.141,2.37-0.379c0.229-0.068,0.443-0.171,0.668-0.258c0.584-0.227,1.141-0.518,1.66-0.868
			c0.122-0.082,0.262-0.11,0.381-0.199c0.069-0.052,0.098-0.132,0.166-0.185c0.702-0.536,1.315-1.18,1.818-1.906l51.2-76.8
			c0.282-0.609,0.565-1.218,0.848-1.827c0.303-0.82,0.476-1.681,0.515-2.554c0.005-0.123,0.071-0.227,0.071-0.352l-0.015-0.076
			c-0.021-1.016-0.223-2.021-0.598-2.966c-0.341-0.661-0.681-1.322-1.021-1.984l-41.033-56.424v-91.031
			c15.727,2.828,26.777,17.078,25.6,33.013c0,4.713,3.821,8.533,8.533,8.533s8.533-3.82,8.533-8.533
			c1.034-17.133-7.323-33.475-21.819-42.667C504.677,221.251,513.034,204.909,512,187.776z M486.704,384.043h-21.337L425.4,324.101
			c-2.171-3.328-1.248-7.784,2.067-9.975c3.218-1.984,7.416-1.206,9.708,1.8L486.704,384.043z M418.133,460.843h-25.604l12.8-17.067
			h17.075l12.8,17.067H418.133z M340.21,401.109h22.617l27.446,34.308l-14.394,19.193L340.21,401.109z M249.342,332.843
			c6.413-6.879,8.382-16.793,5.085-25.6h61.306c18.844-0.019,34.115-15.29,34.133-34.133v-9.347
			c6.01-1.034,11.789-3.128,17.067-6.184v61.826l-32.567,44.774c-5.51-3.706-11.993-5.702-18.633-5.736h-61.306
			C257.724,349.636,255.754,339.721,249.342,332.843z M281.6,256.043H110.933v-8.533c0.003-4.712,3.822-8.53,8.533-8.533h153.6
			c4.712,0.003,8.53,3.822,8.533,8.533V256.043z M452.267,110.97v85.339c0,6.825-10.527,14.273-25.6,16.41v-93.703
			C435.673,118.174,444.398,115.432,452.267,110.97z M409.6,212.72c-15.073-2.138-25.6-9.585-25.6-16.41V110.97
			c7.869,4.462,16.594,7.204,25.6,8.046V212.72z M426.667,421.585v-64.822l23.575,35.355L426.667,421.585z M409.6,309.713
			c-3.154,6.587-3.154,14.247,0,20.834v96.163h-4.433L384,400.253V264.57c7.869,4.462,16.594,7.204,25.6,8.046V309.713z
			 M341.029,384.043l25.904-35.625v28.779l-4.565,6.846H341.029z M451.854,454.611l-14.394-19.193l27.446-34.308h22.617
			L451.854,454.611z M418.133,256.043c-19.533,0-34.133-9.008-34.133-17.067v-17.072c21.331,11.385,46.935,11.385,68.267,0v17.072
			C452.267,247.035,437.667,256.043,418.133,256.043z M418.133,68.309c19.533,0,34.133,9.008,34.133,17.067
			s-14.6,17.067-34.133,17.067S384,93.434,384,85.376S398.6,68.309,418.133,68.309z M366.933,191.112v44.529
			c-4.491,5.191-10.436,8.916-17.067,10.692v-65.914C356.497,182.196,362.442,185.92,366.933,191.112z M145.067,34.176
			c0-9.426,7.641-17.067,17.067-17.067c9.426,0,17.067,7.641,17.067,17.067s-7.641,17.067-17.067,17.067
			C152.713,51.231,145.079,43.597,145.067,34.176z M198.367,82.409l-18.995-18.94c4.979-2.938,9.13-7.092,12.065-12.072
			l36.022,36.029l-20.654,15.017h-19.325l9.838-7.058c2.039-1.46,3.331-3.744,3.533-6.244
			C201.052,86.641,200.144,84.179,198.367,82.409L198.367,82.409z M17.067,213.376c0.045-15.522,10.568-29.054,25.6-32.922v65.843
			C27.634,242.43,17.112,228.898,17.067,213.376z M59.733,273.109V136.576c0.012-9.421,7.646-17.054,17.067-17.067h238.933
			c9.421,0.012,17.054,7.646,17.067,17.067v136.533c-0.012,9.421-7.646,17.054-17.067,17.067h-17.067v-42.667
			c-0.015-14.132-11.468-25.585-25.6-25.6h-153.6c-14.132,0.015-25.585,11.468-25.6,25.6v42.667H76.8
			C67.379,290.164,59.746,282.53,59.733,273.109z M110.933,273.109H281.6v17.067H110.933V273.109z M153.6,349.909
			c0.003-4.712,3.822-8.53,8.533-8.533c4.713,0,8.533-3.82,8.533-8.533s-3.82-8.533-8.533-8.533s-8.533-3.821-8.533-8.533
			c0-4.713,3.821-8.533,8.533-8.533H230.4c4.713,0,8.533,3.821,8.533,8.533c0,4.713-3.821,8.533-8.533,8.533
			c-4.713,0-8.533,3.82-8.533,8.533s3.821,8.533,8.533,8.533c4.713,0,8.533,3.821,8.533,8.533s-3.821,8.533-8.533,8.533h-68.267
			C157.422,358.44,153.603,354.621,153.6,349.909z M17.067,443.776c0.045-15.522,10.568-29.054,25.6-32.922v84.122h-25.6V443.776z
			 M123.642,418.176h159.275c3.954-0.026,7.183,3.154,7.217,7.108v69.692H102.4v-69.692c0.034-3.954,3.263-7.134,7.217-7.108
			H123.642z M332.8,494.976h-25.6v-69.692c-0.043-13.376-10.907-24.191-24.283-24.175h-173.3
			c-13.376-0.016-24.24,10.799-24.283,24.175v69.692h-25.6v-102.4c0.012-9.421,7.646-17.054,17.067-17.067h238.933
			c3.043,0.014,6.026,0.849,8.633,2.418l-7,9.623c-0.341,0.661-0.681,1.322-1.02,1.984c-0.375,0.945-0.578,1.949-0.599,2.965
			l-0.015,0.076c0,0.125,0.067,0.229,0.071,0.353c0.039,0.873,0.213,1.735,0.516,2.554c0.125,0.32,0.27,0.633,0.433,0.935
			c0.12,0.305,0.258,0.603,0.414,0.892l15.633,23.45V494.976z M435.2,494.976h-42.667v-17.067H435.2V494.976z M451,305.918
			c-5.496-7.73-15.051-11.466-24.333-9.517v-23.784c9.006-0.842,17.731-3.585,25.6-8.046v43.089L451,305.918z"/>
	</g>
</g>
<g>
</g>
<g>
</g>
<g>
</g>
<g>
</g>
<g>
</g>
<g>
</g>
<g>
</g>
<g>
</g>
<g>
</g>
<g>
</g>
<g>
</g>
<g>
</g>
<g>
</g>
<g>
</g>
<g>
</g>
</svg>
