<?xml version="1.0" encoding="iso-8859-1"?>
<!-- Generator: Adobe Illustrator 19.0.0, SVG Export Plug-In . SVG Version: 6.00 Build 0)  -->
<svg version="1.1" id="Capa_1" xmlns="http://www.w3.org/2000/svg" xmlns:xlink="http://www.w3.org/1999/xlink" x="0px" y="0px"
	 viewBox="0 0 512 512" style="enable-background:new 0 0 512 512;" xml:space="preserve">
<g>
	<g transform="translate(1 1)">
		<g>
			<g>
				<rect x="41.667" y="365.933" style="fill:#02A9F4;" width="110.933" height="34.133"/>
				<rect x="374.467" y="365.933" style="fill:#02A9F4;" width="76.8" height="34.133"/>
			</g>
			<rect x="212.333" y="263.533" style="fill:#1566C0;" width="85.333" height="85.333"/>
			<rect x="212.333" y="263.533" style="fill:#2296F3;" width="59.733" height="85.333"/>
		</g>
		<path style="fill:#FDD834;" d="M476.867,144.067c0.012,15.846-6.278,31.046-17.483,42.251
			c-11.205,11.205-26.405,17.494-42.251,17.483H92.867c-32.99,0-59.733-26.744-59.733-59.733s26.744-59.733,59.733-59.733h324.267
			c15.846-0.012,31.046,6.278,42.251,17.483C470.589,113.021,476.878,128.221,476.867,144.067z"/>
		<path style="fill:#FFEB3A;" d="M451.267,144.067c0.012,15.846-6.278,31.046-17.483,42.251
			c-11.205,11.205-26.405,17.494-42.251,17.483H92.867c-32.99,0-59.733-26.744-59.733-59.733s26.744-59.733,59.733-59.733h298.667
			c15.846-0.012,31.046,6.278,42.251,17.483C444.989,113.021,451.278,128.221,451.267,144.067z"/>
		<g>
			<path style="fill:#0377BC;" d="M109.933,7.533h290.133c9.426,0,17.067,7.641,17.067,17.067v238.933
				c0,9.426-7.641,17.067-17.067,17.067H109.933c-9.426,0-17.067-7.641-17.067-17.067V24.6
				C92.867,15.174,100.508,7.533,109.933,7.533z"/>
			<path style="fill:#02A9F4;" d="M109.933,7.533h264.533c9.426,0,17.067,7.641,17.067,17.067v238.933
				c0,9.426-7.641,17.067-17.067,17.067H109.933c-9.426,0-17.067-7.641-17.067-17.067V24.6
				C92.867,15.174,100.508,7.533,109.933,7.533z"/>
			<path style="fill:#AD1457;" d="M135.533,41.667h238.933c4.713,0,8.533,3.821,8.533,8.533v153.6c0,4.713-3.821,8.533-8.533,8.533
				H135.533c-4.713,0-8.533-3.821-8.533-8.533V50.2C127,45.487,130.821,41.667,135.533,41.667z"/>
			<path style="fill:#E91E63;" d="M135.533,41.667h213.333c4.713,0,8.533,3.821,8.533,8.533v153.6c0,4.713-3.821,8.533-8.533,8.533
				H135.533c-4.713,0-8.533-3.821-8.533-8.533V50.2C127,45.487,130.821,41.667,135.533,41.667z"/>
			<path style="fill:#0377BC;" d="M391.533,348.867v153.6H118.467v-153.6c0.028-9.414,7.652-17.039,17.067-17.067h238.933
				C383.881,331.828,391.506,339.452,391.533,348.867z"/>
			<path style="fill:#02A9F4;" d="M365.933,348.867v153.6H118.467v-153.6c0.028-9.414,7.652-17.039,17.067-17.067h213.333
				C358.281,331.828,365.906,339.452,365.933,348.867z"/>
		</g>
		<path style="fill:#E91E63;" d="M255,389.359c5.821-11.428,16.461-19.643,28.99-22.382c12.529-2.739,25.626,0.286,35.685,8.243
			c16.169,14.139,16.169,42.416,0,70.693c-11.319,21.207-40.422,42.415-64.674,56.554c-24.253-14.139-53.356-35.346-64.674-56.554
			c-16.168-28.278-16.168-56.554,0-70.693c10.058-7.957,23.155-10.982,35.685-8.243C238.54,369.716,249.179,377.931,255,389.359z"/>
		<path style="fill:#02A9F4;" d="M50.2,340.333h17.067c4.713,0,8.533,3.821,8.533,8.533v153.6H7.533V383
			C7.533,359.436,26.636,340.333,50.2,340.333z"/>
		<path style="fill:#0377BC;" d="M502.467,383v119.467H434.2l0-153.6c-0.011-3.676,2.377-6.93,5.888-8.021v-0.085
			c0.856-0.273,1.747-0.417,2.645-0.427H459.8C483.361,340.342,502.458,359.439,502.467,383z"/>
		<path style="fill:#02A9F4;" d="M476.867,383l0,119.467H434.2l0-153.6c-0.011-3.676,2.377-6.93,5.888-8.021
			C461.176,343.701,476.896,361.72,476.867,383z"/>
	</g>
	<g>
		<path d="M392.533,204.8V51.2c-0.012-9.421-7.646-17.054-17.067-17.067H136.533c-9.421,0.012-17.054,7.646-17.067,17.067v153.6
			c0.012,9.421,7.646,17.054,17.067,17.067h238.933C384.887,221.854,392.521,214.221,392.533,204.8z M136.533,51.2h238.933v153.6
			l-238.933,0.017V51.2z"/>
		<path d="M349.867,128h-34.133c-3.232,0-6.187,1.826-7.633,4.717l-8.567,17.133l-27.075-67.683l-0.06-0.091
			c-0.334-0.703-0.762-1.356-1.272-1.943c-0.173-0.288-0.362-0.567-0.567-0.834c-0.273-0.209-0.559-0.403-0.855-0.579
			c-0.579-0.502-1.223-0.924-1.915-1.254l-0.09-0.059c-0.424-0.115-0.857-0.195-1.295-0.239c-1.258-0.468-2.644-0.458-3.895,0.029
			c-0.386,0.042-0.768,0.112-1.143,0.21l-0.083,0.054c-0.723,0.34-1.395,0.78-1.995,1.306c-0.269,0.162-0.529,0.339-0.78,0.529
			c-0.211,0.273-0.405,0.558-0.582,0.854c-0.505,0.582-0.928,1.229-1.259,1.924l-0.06,0.091l-26.483,66.2l-17.483-40.792
			c-1.231-2.881-3.942-4.855-7.061-5.142c-3.119-0.287-6.145,1.159-7.881,3.767L183.167,128h-21.033
			c-4.713,0-8.533,3.821-8.533,8.533s3.821,8.533,8.533,8.533h25.6c2.853-0.001,5.517-1.426,7.1-3.8l8.325-12.492l19.4,45.25
			c1.343,3.139,4.428,5.175,7.842,5.175h0.1c3.454-0.04,6.544-2.159,7.825-5.367l26.208-65.521l26.208,65.521
			c1.248,3.119,4.21,5.216,7.567,5.358c0.125,0.009,0.242,0.009,0.358,0.009c3.233,0.001,6.188-1.825,7.633-4.717l14.708-29.417
			h28.858c4.713,0,8.533-3.821,8.533-8.533S354.579,128,349.867,128z"/>
		<path d="M384,238.933H281.6c-4.713,0-8.533,3.821-8.533,8.533c0,4.713,3.82,8.533,8.533,8.533H384c4.713,0,8.533-3.82,8.533-8.533
			C392.533,242.754,388.713,238.933,384,238.933z"/>
		<path d="M132.775,240.383c-0.474-0.324-0.99-0.582-1.533-0.767c-0.484-0.245-1-0.419-1.533-0.517
			c-1.664-0.348-3.394-0.167-4.95,0.517c-1.045,0.412-2.001,1.02-2.817,1.792c-1.561,1.634-2.445,3.798-2.475,6.058
			c-0.03,2.855,1.385,5.532,3.761,7.115c2.376,1.584,5.39,1.86,8.014,0.735c1.034-0.434,1.986-1.04,2.817-1.792
			c1.603-1.607,2.494-3.789,2.475-6.058c-0.033-2.259-0.917-4.422-2.475-6.059C133.633,241.067,133.2,240.725,132.775,240.383z"/>
		<path d="M166.908,240.383c-0.474-0.324-0.99-0.582-1.533-0.767c-0.51-0.259-1.059-0.433-1.625-0.517
			c-1.633-0.343-3.334-0.162-4.858,0.517c-1.045,0.412-2.001,1.02-2.817,1.792c-1.561,1.634-2.445,3.798-2.475,6.058
			c0,4.713,3.821,8.533,8.533,8.533s8.533-3.82,8.533-8.533c-0.033-2.259-0.917-4.422-2.475-6.059
			C167.767,241.067,167.333,240.725,166.908,240.383z"/>
		<path d="M8.533,512H76.8c2.264,0.001,4.435-0.897,6.035-2.498c1.601-1.601,2.499-3.772,2.498-6.035V409.6h25.6v93.867
			c-0.001,2.264,0.897,4.435,2.498,6.035c1.601,1.601,3.772,2.499,6.035,2.498h273.067c2.264,0.001,4.435-0.897,6.035-2.498
			c1.601-1.601,2.499-3.772,2.498-6.035V409.6h25.6v93.867c-0.001,2.264,0.897,4.435,2.498,6.035
			c1.601,1.601,3.772,2.499,6.035,2.498h68.267c2.264,0.001,4.435-0.897,6.035-2.498c1.601-1.601,2.499-3.772,2.498-6.035V384
			c-0.031-28.264-22.936-51.169-51.2-51.2h-17.067c-9.421,0.012-17.054,7.646-17.067,17.067v8.533h-25.6v-8.533
			c-0.015-14.132-11.468-25.585-25.6-25.6H307.2v-34.133h93.867c14.132-0.015,25.585-11.468,25.6-25.6v-51.793
			c34.126-4.27,59.733-33.282,59.733-67.674s-25.607-63.404-59.733-67.674V25.6c-0.015-14.132-11.468-25.585-25.6-25.6H110.933
			c-14.132,0.015-25.585,11.468-25.6,25.6v51.793C51.207,81.663,25.6,110.674,25.6,145.067s25.607,63.404,59.733,67.674v51.793
			c0.015,14.132,11.468,25.585,25.6,25.6H204.8v34.133h-68.267c-14.132,0.015-25.585,11.468-25.6,25.6v8.533h-25.6v-8.533
			c-0.012-9.421-7.646-17.054-17.067-17.067H51.2C22.936,332.831,0.031,355.736,0,384v119.467c-0.001,2.264,0.897,4.435,2.498,6.035
			C4.099,511.103,6.27,512.001,8.533,512z M443.733,349.867H460.8c18.844,0.019,34.115,15.29,34.133,34.133v110.933h-51.2V349.867z
			 M426.667,375.467v17.067h-25.6v-17.067H426.667z M469.333,145.067c-0.042,24.958-18.061,46.254-42.667,50.429V94.637
			C451.273,98.813,469.291,120.109,469.333,145.067z M42.667,145.067c0.042-24.958,18.061-46.254,42.667-50.429v100.858
			C60.727,191.321,42.709,170.024,42.667,145.067z M102.4,264.533V25.6c0.003-4.712,3.822-8.53,8.533-8.533h290.133
			c4.712,0.003,8.53,3.822,8.533,8.533v238.933c-0.003,4.712-3.822,8.53-8.533,8.533H110.933
			C106.222,273.064,102.403,269.245,102.4,264.533z M221.867,290.133h68.267v34.133h-68.267V290.133z M128,349.867
			c0.003-4.712,3.822-8.53,8.533-8.533h238.933c4.712,0.003,8.53,3.822,8.533,8.533v145.067h-99.054
			c17.355-11.329,32.067-26.262,43.138-43.783c18.183-31.817,17.467-64.508-1.792-81.358c-11.183-9.356-25.943-13.267-40.292-10.675
			c-11.616,1.964-22.206,7.857-30,16.692c-7.794-8.835-18.384-14.727-30-16.691c-14.349-2.59-29.108,1.32-40.292,10.675
			c-19.258,16.85-19.975,49.542-1.908,81.142c11.092,17.604,25.848,32.612,43.263,44H128V349.867z M256,493.542
			c-28.3-17.067-49.008-35.392-57.267-50.859c-14.042-24.567-14.758-48.7-1.792-60.042c5.767-4.752,13.037-7.296,20.509-7.175
			c1.915,0.001,3.827,0.16,5.717,0.475c10.914,1.925,20.311,8.818,25.425,18.65c1.643,2.49,4.426,3.988,7.408,3.988
			c2.983,0,5.766-1.498,7.408-3.988c5.114-9.832,14.511-16.725,25.425-18.65c9.3-1.689,18.875,0.757,26.225,6.7
			c12.967,11.342,12.25,35.475-1.908,60.258C305,458.158,284.3,476.475,256,493.542z M110.933,375.467v17.067h-25.6v-17.067H110.933
			z M17.067,384c0.019-18.844,15.29-34.115,34.133-34.133h17.067v145.067h-51.2V384z"/>
	</g>
</g>
<g>
</g>
<g>
</g>
<g>
</g>
<g>
</g>
<g>
</g>
<g>
</g>
<g>
</g>
<g>
</g>
<g>
</g>
<g>
</g>
<g>
</g>
<g>
</g>
<g>
</g>
<g>
</g>
<g>
</g>
</svg>
