<?xml version="1.0" encoding="iso-8859-1"?>
<!-- Generator: Adobe Illustrator 19.0.0, SVG Export Plug-In . SVG Version: 6.00 Build 0)  -->
<svg version="1.1" id="Capa_1" xmlns="http://www.w3.org/2000/svg" xmlns:xlink="http://www.w3.org/1999/xlink" x="0px" y="0px"
	 viewBox="0 0 511.752 511.752" style="enable-background:new 0 0 511.752 511.752;" xml:space="preserve">
<g>
	<g transform="translate(0 1)">
		<g>
			<path style="fill:#46B29D;" d="M325.001,489.197c-1.877,1.28-3.84,2.475-5.717,3.499"/>
			<path style="fill:#46B29D;" d="M393.182,155.629c6.64,6.929,12.532,14.537,17.579,22.699c2.133,3.499,4.181,7.083,5.973,10.752"
				/>
			<path style="fill:#46B29D;" d="M421.854,200.515c-1.536-3.84-3.243-7.595-5.12-11.349"/>
			<path style="fill:#46B29D;" d="M426.036,212.717c-1.189-4.107-2.585-8.151-4.181-12.117"/>
		</g>
		<path style="fill:#C52828;" d="M434.996,278.083c0,52.651-14.763,105.216-32.939,132.437
			c-16.093,24.216-35.577,45.999-57.856,64.683c-6.125,5.031-12.535,9.704-19.2,13.995c-1.877,1.195-3.84,2.389-5.717,3.499
			s-3.755,2.133-5.632,3.072c-12.131,6.199-26.051,7.95-39.339,4.949c-3.178-0.622-6.291-1.536-9.301-2.731
			c-13.776-5.785-28.434-9.19-43.349-10.069c-4.27,0.016-8.528,0.445-12.715,1.28c-10.482,1.889-20.746,4.834-30.635,8.789
			c-11.08,4.332-23.196,5.282-34.816,2.731c-4.81-1.021-9.459-2.686-13.824-4.949c-1.792-0.939-3.669-1.963-5.547-3.072
			c-1.877-1.109-3.84-2.304-5.717-3.499c-6.698-4.242-13.112-8.917-19.2-13.995c-22.279-18.684-41.763-40.466-57.856-64.683
			C23.177,383.299,8.414,330.733,8.414,278.083c-0.304-22.114,2.717-44.149,8.96-65.365c1.28-4.096,2.645-8.192,4.181-12.117v-0.085
			c1.621-3.84,3.328-7.68,5.12-11.349v-0.085c1.877-3.669,3.925-7.253,6.059-10.752c4.991-8.178,10.857-15.789,17.493-22.699
			c14.624-15.607,34.307-25.524,55.552-27.989c0.03-0.04,0.078-0.064,0.128-0.064c0.05,0,0.098,0.024,0.128,0.064
			c21.653-1.446,43.387,1.159,64.085,7.68c12.771,3.318,25.739,5.826,38.827,7.509c8.448,0.939,12.715,0.939,12.715,0.939
			c17.445-0.854,34.737-3.688,51.541-8.448c12.66-3.584,25.587-6.153,38.656-7.68c30.041-4.395,60.35,6.036,81.323,27.989
			c4.838,5.063,9.288,10.482,13.312,16.213c1.365,2.133,2.816,4.267,4.181,6.485c2.133,3.499,4.181,7.083,6.059,10.752v0.085
			c1.792,3.669,3.499,7.509,5.12,11.349v0.085c1.536,3.925,2.901,8.021,4.181,12.117
			C432.196,233.952,435.215,255.974,434.996,278.083z"/>
		<path style="fill:#F44335;" d="M409.481,278.083c0,52.651-14.763,105.216-32.939,132.437
			c-16.093,24.216-35.577,45.999-57.856,64.683c-6.125,5.031-12.536,9.704-19.2,13.995c-1.877,1.195-3.84,2.389-5.717,3.499
			c-1.877,1.109-3.755,2.133-5.632,3.072c-4.365,2.264-9.015,3.928-13.825,4.949c-3.178-0.622-6.291-1.536-9.301-2.731
			c-13.776-5.785-28.434-9.19-43.349-10.069c-4.27,0.016-8.528,0.445-12.715,1.28c-4.216-0.836-8.502-1.264-12.8-1.28
			c-14.915,0.879-29.573,4.284-43.349,10.069c-3.01,1.195-6.123,2.109-9.301,2.73c-4.81-1.021-9.459-2.686-13.824-4.949
			c-1.792-0.939-3.669-1.963-5.547-3.072c-1.877-1.109-3.84-2.304-5.717-3.499c-6.698-4.242-13.112-8.917-19.2-13.995
			c-22.279-18.684-41.763-40.466-57.856-64.683C23.177,383.299,8.414,330.733,8.414,278.083c-0.304-22.114,2.717-44.149,8.96-65.365
			c1.28-4.096,2.645-8.192,4.181-12.117v-0.085c1.621-3.84,3.328-7.68,5.12-11.349v-0.085c1.877-3.669,3.925-7.253,6.059-10.752
			c4.991-8.178,10.857-15.789,17.493-22.699c14.624-15.607,34.307-25.524,55.552-27.989c0.03-0.04,0.078-0.064,0.128-0.064
			c0.05,0,0.098,0.024,0.128,0.064c13.033,1.577,25.927,4.144,38.571,7.68c16.805,4.76,34.096,7.595,51.541,8.448
			c0,0,4.267,0,12.8-0.939c13.053-1.72,25.991-4.228,38.741-7.509c20.727-6.526,42.489-9.131,64.171-7.68
			c21.344,2.381,41.136,12.307,55.808,27.989c6.637,6.91,12.502,14.521,17.493,22.699c2.133,3.499,4.181,7.083,6.059,10.752v0.085
			c1.792,3.669,3.499,7.509,5.12,11.349v0.085c1.536,3.925,2.901,8.021,4.181,12.117C406.681,233.952,409.7,255.974,409.481,278.083
			z"/>
		<g>
			<path style="fill:#46B29D;" d="M124.126,492.696c-1.877-1.024-3.84-2.219-5.717-3.499"/>
			<path style="fill:#46B29D;" d="M26.676,189.08c1.792-3.669,3.84-7.253,5.973-10.752c5.047-8.162,10.939-15.77,17.579-22.699"/>
			<path style="fill:#46B29D;" d="M26.676,189.165c-1.877,3.755-3.584,7.509-5.12,11.349"/>
			<path style="fill:#46B29D;" d="M21.556,200.6c-1.597,3.966-2.992,8.01-4.181,12.117"/>
		</g>
		<path style="fill:#14A085;" d="M251.273,81.389l-0.085,0.085"/>
		<path style="fill:#4CAF50;" d="M281.481,297.283v-16.981c0-4.713-3.82-8.533-8.533-8.533h-102.4c-4.713,0-8.533,3.82-8.533,8.533
			v102.4c0,4.713,3.821,8.533,8.533,8.533h103.765L281.481,297.283z"/>
		<path style="fill:#E91E63;" d="M383.881,318.368c25.151-45.95,75.452-45.95,100.604-22.975c25.151,22.974,25.151,68.925,0,114.876
			c-17.607,34.462-62.878,68.925-100.604,91.9c-37.726-22.975-82.997-57.438-100.604-91.9c-25.15-45.951-25.15-91.901,0-114.876
			C308.427,272.417,358.729,272.418,383.881,318.368z"/>
		<path style="fill:#4CAF50;" d="M391.305,10.563h-0.085c-31.563-2.536-63.235-3.447-94.891-2.731
			c-37.632,1.365-62.123,33.963-56.747,56.576c1.78,6.858,5.919,12.871,11.691,16.981c14.08,10.581,38.571,14.336,64.341,8.277
			c36.693-8.704,77.824-78.933,77.824-78.933S392.67,10.648,391.305,10.563z"/>
		<path style="fill:#8BC34A;" d="M393.438,10.733c0,0-41.131,70.229-77.824,78.933c-25.771,6.059-50.261,2.304-64.341-8.277
			c14.788-15.619,33.368-27.143,53.931-33.451c32.939-7.851,41.301-9.813,86.016-37.376h0.085
			C392.67,10.648,393.438,10.733,393.438,10.733z"/>
		<path style="fill:#14A085;" d="M391.561,10.392c-0.085,0.085-0.171,0.085-0.256,0.171"/>
		<path style="fill:#AD1457;" d="M484.489,410.264c-17.579,34.475-62.891,68.949-100.608,91.904c-4.181-2.56-8.448-5.205-12.8-8.107
			c34.645-22.528,72.192-53.163,87.808-83.797c25.173-45.909,25.173-91.904,0-114.859c-7.887-7.037-17.527-11.813-27.904-13.824
			c19.015-4.008,38.81,1.106,53.504,13.824C509.662,318.36,509.662,364.355,484.489,410.264z"/>
	</g>
	<path d="M203.316,134.423c-7.826-1.194-18.104-3.14-31.043-6.38l-2.583-0.65c-34.591-8.75-98.966-25.008-144.208,47.417
		c-44.233,70.892-24.017,192.267,8.767,241.442c25.558,38.35,60.65,72.108,91.608,88.108c9.435,4.826,19.886,7.332,30.483,7.308
		c8.589-0.009,17.102-1.608,25.108-4.717c12.785-5.458,26.415-8.672,40.292-9.5c13.871,0.825,27.495,4.036,40.275,9.492
		c18.065,7.114,38.308,6.171,55.633-2.592c9.392-4.977,18.315-10.793,26.66-17.377c12.909,9.47,25.292,17.491,35.131,23.485
		c2.73,1.656,6.154,1.656,8.883,0c29.858-18.192,83.042-54.75,103.642-95.092c27.008-49.325,26.308-99.667-1.725-125.275
		c-12.907-11.412-29.629-17.558-46.854-17.223c0.4-34.365-8.363-68.215-25.387-98.069c-45.25-72.433-109.617-56.15-144.2-47.417
		l-2.583,0.658c-16.148,4.597-32.765,7.345-49.533,8.192c-0.24,0.017-0.481,0.02-0.722,0.01c-0.855-6.014-2.509-11.888-4.918-17.465
		l28.509-30.792c0.151,0.123,0.341,0.217,0.493,0.339c0.045,0.047,0.058,0.111,0.105,0.158c0.817,0.816,1.793,1.457,2.866,1.883
		c12.833,8.125,27.802,12.225,42.984,11.775c8.963-0.035,17.892-1.106,26.608-3.191c39.117-9.242,78.825-75.35,83.225-82.859
		c1.478-2.528,1.557-5.638,0.21-8.238c-1.348-2.6-3.934-4.328-6.852-4.578l-0.395-0.034c-1.01-0.275-2.062-0.359-3.103-0.249
		c-31.498-2.514-63.103-3.418-94.693-2.709c-21.313,0.605-41.227,10.753-54.242,27.642c-9.197,10.942-13.05,25.408-10.517,39.475
		c0.6,2.443,1.46,4.814,2.565,7.074l-26.948,29.106c-2.421-3.098-5.106-5.98-8.025-8.614l-18.35-16.308
		c-2.278-2.024-5.462-2.68-8.354-1.72c-2.892,0.96-5.052,3.39-5.667,6.375c-0.614,2.985,0.41,6.07,2.688,8.095l18.342,16.308
		c4.197,3.745,7.749,8.156,10.511,13.056l0.036,0.07C200.434,125.096,202.212,129.668,203.316,134.423z M313.681,82.335
		c-15.831,4.175-32.541,3.592-48.043-1.677c11.864-10.936,26.105-18.969,41.601-23.465c20.93-3.761,41.089-10.973,59.655-21.342
		C351.616,56.071,331.169,78.205,313.681,82.335z M255.331,38.26c9.998-12.735,25.118-20.396,41.3-20.925
		c6.375-0.233,12.983-0.333,19.625-0.333c16.635,0,33.374,0.637,46.98,1.347c-18.493,10.948-38.804,18.48-59.964,22.236
		c-19.494,5.635-37.323,15.931-51.949,29.997c-1.639-2.104-2.821-4.527-3.468-7.114C246.599,54.381,249.324,45.193,255.331,38.26
		L255.331,38.26z M478.723,302.693c22.125,20.2,21.425,62.184-1.842,104.692c-18.333,35.9-68.15,70.233-93,85.758
		c-24.85-15.525-74.675-49.867-93.117-85.975c-22.539-41.175-23.732-81.997-3.365-102.769l0.214-0.222
		c0.484-0.486,0.918-1.02,1.426-1.484c9.679-8.432,22.123-13.006,34.958-12.85c3.035,0.001,6.065,0.252,9.058,0.75
		c18.789,3.588,34.822,15.749,43.342,32.875c1.631,2.554,4.453,4.1,7.483,4.1s5.852-1.546,7.483-4.1
		c8.52-17.126,24.553-29.287,43.342-32.875C450.45,287.834,466.601,292.274,478.723,302.693z M170.548,383.701v-102.4h102.4v13.505
		c-18.1,20.664-21.653,53.63-10.67,88.895H170.548z M275.364,144.593l2.617-0.658c34.608-8.75,86.883-21.975,125.533,39.9
		c15.552,27.813,23.451,59.253,22.891,91.114c-17.075,4.35-32.107,14.499-42.524,28.711c-11.52-15.824-28.742-26.549-48.025-29.908
		c-15.688-2.663-31.817-0.037-45.85,7.466c-0.055-9.386-7.673-16.969-17.059-16.983v-17.067c0-4.713-3.82-8.533-8.533-8.533
		s-8.533,3.821-8.533,8.533v17.067h-25.6v-17.067c0-4.713-3.821-8.533-8.533-8.533c-4.713,0-8.533,3.821-8.533,8.533v17.067h-25.6
		v-17.067c0-4.713-3.82-8.533-8.533-8.533s-8.533,3.821-8.533,8.533v17.067c-9.421,0.012-17.054,7.646-17.067,17.067h-17.067
		c-4.713,0-8.533,3.82-8.533,8.533s3.821,8.533,8.533,8.533h17.067v25.6h-17.067c-4.713,0-8.533,3.821-8.533,8.533
		c0,4.713,3.821,8.533,8.533,8.533h17.067v25.6h-17.067c-4.713,0-8.533,3.82-8.533,8.533s3.821,8.533,8.533,8.533h17.067
		c0.012,9.421,7.646,17.054,17.067,17.067v17.067c0,4.713,3.821,8.533,8.533,8.533s8.533-3.821,8.533-8.533v-17.067h25.6v17.067
		c0,4.713,3.821,8.533,8.533,8.533c4.713,0,8.533-3.821,8.533-8.533v-17.067h38.395c2.099,4.791,4.381,9.591,7.005,14.383
		c13.917,23.816,32.487,44.586,54.603,61.071c-6.464,4.852-13.303,9.184-20.453,12.954c-12.992,6.533-28.157,7.203-41.675,1.842
		c-14.721-6.262-30.437-9.863-46.417-10.633c-15.985,0.773-31.707,4.376-46.433,10.642c-13.504,5.358-28.655,4.688-41.633-1.842
		c-28.517-14.742-61.175-46.317-85.225-82.4c-30.7-46.05-47.783-159.95-8.483-222.942c38.65-61.867,90.95-48.65,125.542-39.908
		l2.617,0.658c12.042,3.088,24.247,5.503,36.558,7.232v34.951c-9.45-0.556-18.257-4.97-24.358-12.208
		c-2.393-4.059-7.624-5.41-11.683-3.017c-4.059,2.393-5.41,7.624-3.017,11.683c7.608,12.917,26.292,21.267,47.592,21.267
		s39.983-8.35,47.592-21.267c2.393-4.059,1.043-9.29-3.017-11.683s-9.29-1.043-11.683,3.017
		c-6.101,7.239-14.908,11.653-24.358,12.208v-33.477C239.891,152.432,257.878,149.511,275.364,144.593z"/>
</g>
<g>
</g>
<g>
</g>
<g>
</g>
<g>
</g>
<g>
</g>
<g>
</g>
<g>
</g>
<g>
</g>
<g>
</g>
<g>
</g>
<g>
</g>
<g>
</g>
<g>
</g>
<g>
</g>
<g>
</g>
</svg>
