<?xml version="1.0" encoding="iso-8859-1"?>
<!-- Generator: Adobe Illustrator 19.0.0, SVG Export Plug-In . SVG Version: 6.00 Build 0)  -->
<svg version="1.1" id="Capa_1" xmlns="http://www.w3.org/2000/svg" xmlns:xlink="http://www.w3.org/1999/xlink" x="0px" y="0px"
	 viewBox="0 0 512 512" style="enable-background:new 0 0 512 512;" xml:space="preserve">
<g>
	<g transform="translate(1 1)">
		<rect x="212.328" y="442.733" style="fill:#1566C0;" width="85.333" height="59.733"/>
		<rect x="212.328" y="442.733" style="fill:#2296F3;" width="59.733" height="59.733"/>
		<path style="fill:#1566C0;" d="M323.261,383l0,51.2c0.009,6.792-2.685,13.309-7.488,18.112c-4.803,4.803-11.32,7.497-18.112,7.488
			h-85.333c-6.792,0.009-13.309-2.685-18.112-7.488c-4.803-4.803-7.497-11.32-7.488-18.112l0-51.2H323.261z"/>
		<g>
			<path style="fill:#2296F3;" d="M297.661,383l0,51.2c0.009,6.792-2.685,13.309-7.488,18.112
				c-4.803,4.803-11.32,7.497-18.112,7.488h-59.733c-6.792,0.009-13.309-2.685-18.112-7.488c-4.803-4.803-7.497-11.32-7.488-18.112
				l0-51.2H297.661z"/>
			<path style="fill:#2296F3;" d="M259.261,400.067h60.292c7.517,0.031,14.948-1.601,21.76-4.779
				c5.253-2.317,10.05-5.553,14.165-9.557c5.583-5.166,9.929-11.525,12.715-18.603l37.461-95.232
				c2.131-5.369,3.12-11.124,2.901-16.896c-0.094-5.902-1.432-11.717-3.925-17.067c-1.866-4.143-4.403-7.949-7.509-11.264
				l-66.901-75.093c-4.382-4.699-10.49-7.41-16.915-7.507c-6.425-0.097-12.612,2.429-17.133,6.995c-9.301,9.377-9.301,24.5,0,33.877
				l39.68,41.984c3.257,3.207,5.966,6.925,8.021,11.008c2.734,5.301,4.333,11.113,4.693,17.067
				c0.355,5.576-0.369,11.168-2.133,16.469l-14.08,41.813c-4.487,12.905-13.822,23.556-26.027,29.696
				c-7.286,3.645-15.32,5.544-23.467,5.547h-55.731c-8.147-0.002-16.181-1.901-23.467-5.547
				c-12.205-6.141-21.54-16.791-26.027-29.696l-14.08-41.813c-1.764-5.301-2.489-10.893-2.133-16.469
				c0.36-5.953,1.959-11.766,4.693-17.067c2.055-4.083,4.765-7.801,8.021-11.008l39.68-41.984c9.301-9.377,9.301-24.5,0-33.877
				c-4.521-4.566-10.708-7.091-17.133-6.995c-6.425,0.097-12.533,2.807-16.915,7.507l-66.901,75.093
				c-3.106,3.315-5.644,7.121-7.509,11.264c-2.494,5.35-3.831,11.165-3.925,17.067c-0.218,5.772,0.77,11.527,2.901,16.896
				l37.461,95.232c2.786,7.078,7.132,13.437,12.715,18.603c4.115,4.004,8.912,7.241,14.165,9.557
				c6.809,3.187,14.242,4.819,21.76,4.779H259.261z"/>
		</g>
		<path style="fill:#1566C0;" d="M408.556,255c0.218,5.772-0.77,11.527-2.901,16.896l-37.461,95.232
			c-2.786,7.078-7.132,13.436-12.715,18.603c-4.115,4.004-8.912,7.24-14.165,9.557c-6.812,3.178-14.243,4.81-21.76,4.779l-25.515,0
			c7.517,0.031,14.948-1.601,21.76-4.779c5.253-2.317,10.05-5.554,14.165-9.557c5.583-5.166,9.929-11.525,12.715-18.603
			l37.461-95.232c2.132-5.369,3.12-11.124,2.901-16.896c-0.094-5.902-1.431-11.717-3.925-17.067
			c-1.865-4.143-4.403-7.949-7.509-11.264l-66.901-75.093c-1.345-1.436-2.864-2.697-4.523-3.755c3.822-2.446,8.263-3.749,12.8-3.755
			c6.544-0.021,12.797,2.703,17.237,7.509l66.901,75.093c3.106,3.316,5.644,7.121,7.509,11.264
			C407.124,243.283,408.462,249.099,408.556,255z"/>
		<path style="fill:#CFD8DC;" d="M229.395,127V7.533l20.801,13.867c18.992,12.661,30.399,33.976,30.399,56.801V127H229.395z"/>
		<path style="fill:#FFB301;" d="M289.128,118.467V280.6c0.002,9.053-3.593,17.737-9.995,24.139
			c-6.402,6.402-15.085,9.997-24.139,9.995c-4.397,0.034-8.754-0.838-12.8-2.56c-12.905-5.164-21.357-17.674-21.333-31.573V118.467
			c0.014-4.707,3.826-8.519,8.533-8.533h51.2C285.302,109.948,289.114,113.76,289.128,118.467z"/>
		<path style="fill:#FEC108;" d="M263.528,118.467V280.6c0.024,13.9-8.429,26.409-21.333,31.573
			c-12.905-5.164-21.357-17.674-21.333-31.573V118.467c0.014-4.707,3.826-8.519,8.533-8.533h25.6
			C259.702,109.948,263.514,113.76,263.528,118.467z"/>
		<polygon style="fill:#FFEB3A;" points="289.128,220.867 289.128,255 220.861,280.6 220.861,246.467 		"/>
	</g>
	<path d="M97.453,276.009l37.483,95.267c7.51,19.04,24.183,32.957,44.258,36.942V435.2c0.045,15.522,10.568,29.054,25.6,32.922
		v35.345c-0.001,2.264,0.897,4.435,2.498,6.035c1.601,1.601,3.772,2.499,6.035,2.498h85.333c2.264,0.001,4.435-0.897,6.035-2.498
		c1.601-1.601,2.499-3.772,2.498-6.035v-35.345c15.032-3.867,25.555-17.4,25.6-32.922v-26.983
		c20.079-3.987,36.755-17.907,44.267-36.95l37.475-95.258c7.226-18.463,3.304-39.431-10.108-54.033l-67.058-75.283
		c-6.064-6.504-14.566-10.185-23.458-10.159c-5.337,0.057-10.576,1.435-15.25,4.011v-21.078c-0.021-6.069-3.272-11.667-8.533-14.692
		V79.2c0.03-25.685-12.811-49.678-34.2-63.9l-20.8-13.867c-2.618-1.746-5.985-1.909-8.76-0.424
		c-2.775,1.485-4.507,4.377-4.507,7.524v96.242c-5.261,3.025-8.513,8.623-8.533,14.692v21.078
		c-12.854-7.163-28.946-4.546-38.867,6.322l-66.775,74.967C94.193,236.447,90.22,257.479,97.453,276.009z M113.336,269.758
		c-1.706-4.379-2.499-9.061-2.329-13.758h43.054c-0.391,6.498,0.457,13.011,2.5,19.191l14.058,41.767
		c3.125,9.254,8.47,17.6,15.568,24.31l-25.931,38.134c-4.078-4.115-7.29-9.007-9.445-14.385L113.336,269.758z M311.892,351.173
		l25.721,37.824c-5.418,2.312-11.245,3.514-17.135,3.536H191.511c-5.891-0.022-11.718-1.224-17.136-3.535l25.721-37.826
		c8.685,4.5,18.324,6.85,28.106,6.852h55.583C293.568,358.023,303.207,355.673,311.892,351.173z M290.128,494.933h-68.267v-25.6
		h68.267V494.933z M315.728,435.2c-0.012,9.421-7.646,17.054-17.067,17.067h-85.333c-9.421-0.012-17.054-7.646-17.067-17.067v-25.6
		h119.467V435.2z M361.186,365.008c-2.158,5.381-5.372,10.275-9.454,14.393l-25.93-38.133c7.095-6.707,12.437-15.051,15.559-24.302
		l14.067-41.775c2.042-6.181,2.893-12.693,2.509-19.191h43.051c0.166,4.697-0.629,9.379-2.335,13.758L361.186,365.008z
		 M303.161,158.042c6.108-5.694,15.602-5.617,21.617,0.175l67.025,75.25c1.531,1.681,2.888,3.513,4.052,5.467h-41.693
		c-2.547-6.319-6.352-12.055-11.183-16.858l-39.817-42.183C297.178,173.837,297.178,164.096,303.161,158.042z M281.595,119.467
		v96.483l-51.2,19.2V119.467H281.595z M230.395,253.383l51.2-19.2v15.9l-51.2,19.2V253.383z M281.595,268.317V281.6
		c0.013,13.032-9.776,23.989-22.727,25.441c-12.951,1.451-24.922-7.067-27.794-19.779L281.595,268.317z M246.461,29.5
		c16.636,11.062,26.623,29.722,26.6,49.7l0,23.2h-34.133V24.475L246.461,29.5z M255.995,324.267
		c23.553-0.028,42.639-19.114,42.667-42.667v-81.614l32.125,34.031c4.093,4.08,7.09,9.128,8.714,14.674
		c0.101,0.868,0.337,1.714,0.7,2.509c1.378,6.151,1.054,12.561-0.939,18.541l-14.075,41.783c-6.04,17.689-22.708,29.539-41.4,29.433
		h-55.583c-18.695,0.104-35.366-11.749-41.408-29.442l-14.067-41.775c-1.999-5.994-2.314-12.423-0.91-18.584
		c0.309-0.711,0.519-1.461,0.623-2.23c1.661-5.727,4.753-10.937,8.986-15.136l31.9-33.81V281.6
		C213.356,305.153,232.442,324.239,255.995,324.267z M187.053,158.392c2.847-3.064,6.843-4.801,11.025-4.792
		c4.03-0.001,7.896,1.597,10.75,4.442c6.016,6.124,5.949,15.959-0.15,22l-39.442,41.808c-4.907,4.868-8.777,10.679-11.376,17.083
		h-41.702c1.192-2.005,2.583-3.884,4.153-5.608L187.053,158.392z"/>
</g>
<g>
</g>
<g>
</g>
<g>
</g>
<g>
</g>
<g>
</g>
<g>
</g>
<g>
</g>
<g>
</g>
<g>
</g>
<g>
</g>
<g>
</g>
<g>
</g>
<g>
</g>
<g>
</g>
<g>
</g>
</svg>
