<?xml version="1.0" encoding="iso-8859-1"?>
<!-- Generator: Adobe Illustrator 19.0.0, SVG Export Plug-In . SVG Version: 6.00 Build 0)  -->
<svg version="1.1" id="Capa_1" xmlns="http://www.w3.org/2000/svg" xmlns:xlink="http://www.w3.org/1999/xlink" x="0px" y="0px"
	 viewBox="0 0 512.001 512.001" style="enable-background:new 0 0 512.001 512.001;" xml:space="preserve">
<g>
	<g transform="translate(1 1)">
		<path style="fill:#607D8B;" d="M340.327,24.601c0.024,4.528-1.793,8.871-5.035,12.032c-3.161,3.241-7.504,5.059-12.032,5.035
			h-17.067v221.867c-0.022,28.268-22.932,51.178-51.2,51.2c-4.317-0.013-8.616-0.558-12.8-1.621
			c-22.575-5.887-38.346-26.249-38.4-49.579V41.667h-17.067c-9.414-0.028-17.039-7.653-17.067-17.067
			c-0.024-4.528,1.793-8.871,5.035-12.032c3.161-3.241,7.504-5.059,12.032-5.035H323.26
			C332.674,7.562,340.299,15.187,340.327,24.601z"/>
		<path style="fill:#CFD8DC;" d="M314.727,24.601c0.024,4.528-1.793,8.871-5.035,12.032c-3.161,3.241-7.504,5.059-12.032,5.035
			h-17.067v221.867c-0.054,23.33-15.825,43.692-38.4,49.579c-22.575-5.887-38.346-26.249-38.4-49.579V41.667h-17.067
			c-9.414-0.028-17.039-7.653-17.067-17.067c-0.024-4.528,1.793-8.871,5.035-12.032c3.161-3.241,7.504-5.059,12.032-5.035H297.66
			C307.074,7.562,314.699,15.187,314.727,24.601z"/>
		<path style="fill:#FDD834;" d="M306.193,84.334v179.2c-0.022,28.268-22.932,51.178-51.2,51.2c-4.317-0.013-8.616-0.558-12.8-1.621
			c22.575-5.887,38.346-26.249,38.4-49.579V93.123C289.723,92.358,298.519,89.338,306.193,84.334z"/>
		<path style="fill:#FFEB3A;" d="M280.593,93.123v170.411c-0.054,23.33-15.825,43.692-38.4,49.579
			c-22.575-5.887-38.346-26.249-38.4-49.579V81.006c2.071-0.62,4.18-1.105,6.315-1.451h0.085c13.48-2.734,27.482-1.059,39.936,4.779
			c5.363,2.562,10.894,4.757,16.555,6.571C271.172,92.383,275.868,93.132,280.593,93.123z"/>
		<rect x="212.327" y="442.734" style="fill:#1566C0;" width="85.333" height="59.733"/>
		<rect x="212.327" y="442.734" style="fill:#2296F3;" width="59.733" height="59.733"/>
		<path style="fill:#1566C0;" d="M323.26,383.001l0,51.2c0.009,6.792-2.685,13.309-7.488,18.112
			c-4.803,4.803-11.32,7.497-18.112,7.488h-85.333c-6.792,0.009-13.309-2.685-18.112-7.488s-7.497-11.32-7.488-18.112l0-51.2H323.26
			z"/>
		<g>
			<path style="fill:#2296F3;" d="M297.66,383.001l0,51.2c0.009,6.792-2.685,13.309-7.488,18.112
				c-4.803,4.803-11.32,7.497-18.112,7.488h-59.733c-6.792,0.009-13.309-2.685-18.112-7.488s-7.497-11.32-7.488-18.112l0-51.2
				H297.66z"/>
			<path style="fill:#2296F3;" d="M259.26,400.067h77.312c7.517,0.031,14.948-1.601,21.76-4.779
				c5.253-2.317,10.05-5.553,14.165-9.557c5.583-5.166,9.929-11.525,12.715-18.603l37.461-95.232
				c2.131-5.369,3.12-11.124,2.901-16.896c-0.094-5.902-1.432-11.717-3.925-17.067c-1.866-4.143-4.403-7.949-7.509-11.264
				l-66.901-75.093c-4.382-4.699-10.49-7.41-16.915-7.507c-6.425-0.097-12.612,2.429-17.133,6.995c-9.301,9.377-9.301,24.5,0,33.877
				l39.68,41.984c3.257,3.207,5.966,6.925,8.021,11.008c2.734,5.301,4.333,11.113,4.693,17.067
				c0.355,5.576-0.369,11.168-2.133,16.469l-14.08,41.813c-4.487,12.905-13.822,23.555-26.027,29.696
				c-7.286,3.645-15.32,5.544-23.467,5.547h-89.771c-8.147-0.002-16.181-1.901-23.467-5.547
				c-12.205-6.141-21.54-16.791-26.027-29.696l-14.08-41.813c-1.764-5.301-2.489-10.893-2.133-16.469
				c0.36-5.953,1.959-11.766,4.693-17.067c2.055-4.083,4.765-7.801,8.021-11.008l39.68-41.984c9.301-9.377,9.301-24.5,0-33.877
				c-4.521-4.566-10.708-7.091-17.133-6.995s-12.533,2.807-16.915,7.507L95.847,226.67c-3.106,3.315-5.644,7.121-7.509,11.264
				c-2.494,5.35-3.831,11.165-3.925,17.067c-0.218,5.772,0.77,11.527,2.901,16.896l37.461,95.232
				c2.786,7.078,7.132,13.437,12.715,18.603c4.115,4.004,8.912,7.241,14.165,9.557c6.809,3.187,14.242,4.819,21.76,4.779H259.26z"/>
		</g>
		<path style="fill:#1566C0;" d="M425.575,255.001c0.218,5.773-0.77,11.527-2.901,16.896l-37.461,95.232
			c-2.786,7.078-7.132,13.436-12.715,18.603c-4.115,4.004-8.912,7.24-14.165,9.557c-6.812,3.178-14.243,4.81-21.76,4.779l-25.515,0
			c7.517,0.031,14.948-1.601,21.76-4.779c5.253-2.317,10.05-5.554,14.165-9.557c5.583-5.166,9.929-11.525,12.715-18.603
			l37.461-95.232c2.132-5.369,3.12-11.124,2.901-16.896c-0.094-5.902-1.431-11.717-3.925-17.067
			c-1.865-4.143-4.403-7.949-7.509-11.264l-66.901-75.093c-1.345-1.436-2.864-2.697-4.523-3.755c3.822-2.446,8.263-3.749,12.8-3.755
			c6.544-0.021,12.797,2.703,17.237,7.509l66.901,75.093c3.106,3.316,5.644,7.121,7.509,11.264
			C424.143,243.284,425.48,249.099,425.575,255.001z"/>
	</g>
	<g>
		<path d="M181.006,136.534c-8.969-0.01-17.531,3.738-23.608,10.333l-66.775,74.967c-13.495,14.613-17.468,35.646-10.233,54.175
			l37.479,95.275c9.136,23.23,31.614,38.453,56.575,38.317h4.75v25.6c0.045,15.521,10.568,29.054,25.6,32.922v35.345
			c-0.001,2.263,0.898,4.434,2.499,6.035c1.6,1.6,3.771,2.499,6.035,2.499h85.333c2.263,0.001,4.434-0.898,6.035-2.499
			c1.6-1.6,2.499-3.771,2.499-6.035v-35.345c15.032-3.868,25.555-17.4,25.6-32.922v-25.6h4.75
			c24.967,0.136,47.448-15.095,56.579-38.333l37.479-95.258c7.226-18.463,3.304-39.431-10.108-54.033l-67.063-75.283
			c-6.062-6.502-14.56-10.184-23.45-10.159c-5.338,0.057-10.579,1.435-15.254,4.011V51.201h8.533
			c6.757,0.053,13.247-2.635,17.988-7.45c4.901-4.763,7.65-11.317,7.612-18.15c-0.015-14.132-11.468-25.585-25.6-25.6H187.727
			c-6.757-0.053-13.247,2.635-17.987,7.45c-4.901,4.763-7.65,11.316-7.613,18.15c0.015,14.132,11.468,25.585,25.6,25.6h8.533v89.345
			C191.584,137.969,186.344,136.591,181.006,136.534z M169.981,158.392c2.848-3.062,6.843-4.799,11.025-4.792
			c4.032,0,7.9,1.597,10.758,4.442c6.012,6.125,5.945,15.957-0.15,22l-39.454,41.808c-4.904,4.869-8.772,10.68-11.37,17.083H99.089
			c1.191-2.004,2.581-3.883,4.15-5.608L169.981,158.392z M96.272,269.759c-1.707-4.379-2.501-9.061-2.331-13.758h43.05
			c-0.392,6.498,0.456,13.01,2.497,19.191l14.067,41.767c3.124,9.253,8.468,17.599,15.565,24.308l-25.932,38.134
			c-4.079-4.115-7.29-9.006-9.445-14.384L96.272,269.759z M290.127,494.934H221.86v-25.6h68.267V494.934z M315.727,435.201
			c-0.011,9.421-7.645,17.056-17.067,17.067h-85.333c-9.421-0.011-17.056-7.645-17.067-17.067v-25.6h119.467V435.201z
			 M324.26,392.534H174.443c-5.891-0.022-11.717-1.225-17.135-3.536l25.721-37.825c8.685,4.501,18.324,6.851,28.106,6.853h89.713
			c9.783-0.002,19.423-2.353,28.109-6.854l25.722,37.826c-5.418,2.312-11.245,3.514-17.135,3.536H324.26z M378.243,365.009
			c-2.155,5.381-5.367,10.274-9.446,14.392l-25.93-38.133c7.095-6.707,12.439-15.05,15.564-24.301l14.067-41.775
			c2.042-6.181,2.892-12.693,2.506-19.191h43.049c0.166,4.697-0.629,9.379-2.335,13.758L378.243,365.009z M320.222,158.042
			c6.111-5.694,15.607-5.617,21.625,0.175l67.021,75.25c1.531,1.681,2.888,3.513,4.052,5.467h-41.694
			c-2.547-6.319-6.351-12.055-11.182-16.858l-39.821-42.183C314.243,173.836,314.243,164.099,320.222,158.042z M347.852,234.017
			c4.085,4.071,7.078,9.105,8.703,14.639c0.101,0.882,0.341,1.743,0.711,2.551c1.375,6.15,1.049,12.558-0.943,18.536l-14.067,41.783
			c-6.044,17.69-22.715,29.54-41.408,29.433h-89.713c-18.695,0.106-35.366-11.748-41.404-29.442l-14.067-41.775
			c-1.999-5.992-2.316-12.418-0.916-18.577c0.319-0.727,0.534-1.495,0.638-2.281c1.661-5.709,4.746-10.902,8.965-15.092
			l31.908-33.816v64.557c0,32.99,26.744,59.733,59.733,59.733s59.733-26.744,59.733-59.733v-64.551L347.852,234.017z
			 M213.327,88.767c11.564-2.207,23.53-0.702,34.188,4.301c10.411,5.628,21.925,8.918,33.738,9.641
			c6.003-0.102,11.923-1.412,17.408-3.853v165.678c0,23.564-19.103,42.667-42.667,42.667s-42.667-19.103-42.667-42.667V88.767z
			 M187.727,34.134c-4.711-0.005-8.529-3.822-8.533-8.533c-0.006-2.301,0.939-4.503,2.612-6.083c1.56-1.586,3.697-2.47,5.921-2.45
			H324.26c4.711,0.005,8.529,3.822,8.533,8.533c0.006,2.301-0.939,4.503-2.612,6.083c-1.56,1.586-3.697,2.47-5.921,2.45h-17.067
			c-2.263-0.001-4.434,0.898-6.035,2.499s-2.499,3.771-2.499,6.035v37.482c-13.559,6.945-20.544,8.386-43.938-2.557
			c-12.916-6.003-27.301-8.112-41.396-6.07V42.667c0.001-2.263-0.898-4.434-2.499-6.035c-1.6-1.6-3.771-2.499-6.035-2.499H187.727z"
			/>
		<path d="M238.927,145.067c2.855,0.03,5.532-1.385,7.115-3.761s1.86-5.39,0.735-8.014c-1.251-3.247-4.372-5.389-7.852-5.389
			c-3.48,0-6.601,2.142-7.852,5.389c-1.122,2.625-0.843,5.638,0.74,8.013C233.397,143.68,236.072,145.095,238.927,145.067z"/>
		<path d="M273.06,162.134c2.27,0.021,4.453-0.871,6.059-2.475c0.751-0.832,1.357-1.784,1.792-2.817
			c0.911-2.065,0.911-4.418,0-6.483c-0.433-1.034-1.039-1.986-1.792-2.817c-3.421-3.158-8.695-3.158-12.117,0
			c-0.773,0.815-1.383,1.772-1.796,2.817c-1.122,2.625-0.843,5.638,0.741,8.013C267.53,160.747,270.206,162.162,273.06,162.134z"/>
		<path d="M238.927,187.734c0,4.713,3.821,8.533,8.533,8.533c4.713,0,8.533-3.821,8.533-8.533c-0.016-0.573-0.073-1.144-0.171-1.708
			c-0.095-0.533-0.268-1.05-0.512-1.533c-0.187-0.546-0.447-1.064-0.771-1.542c-0.313-0.446-0.654-0.872-1.021-1.275
			c-3.4-3.212-8.716-3.212-12.117,0C239.842,183.311,238.958,185.475,238.927,187.734z"/>
		<path d="M253.519,249.942c-0.816-0.771-1.772-1.379-2.817-1.792c-3.181-1.299-6.829-0.596-9.3,1.792
			c-0.773,0.815-1.383,1.772-1.796,2.817c-1.524,3.574-0.442,7.726,2.632,10.102s7.365,2.376,10.439,0
			c3.074-2.376,4.156-6.528,2.632-10.102C254.877,251.725,254.271,250.773,253.519,249.942z"/>
		<path d="M267.001,236.459c2.441,2.444,6.125,3.154,9.3,1.792c1.034-0.433,1.987-1.039,2.817-1.792
			c0.751-0.832,1.357-1.784,1.792-2.817c0.438-1.026,0.67-2.127,0.683-3.242c-0.033-2.259-0.917-4.422-2.475-6.059
			c-2.473-2.388-6.122-3.09-9.304-1.792c-1.033,0.433-1.984,1.039-2.813,1.792c-1.56,1.635-2.444,3.799-2.475,6.059
			c-0.029,1.119,0.204,2.229,0.679,3.242C265.641,234.676,266.248,235.629,267.001,236.459z"/>
	</g>
</g>
<g>
</g>
<g>
</g>
<g>
</g>
<g>
</g>
<g>
</g>
<g>
</g>
<g>
</g>
<g>
</g>
<g>
</g>
<g>
</g>
<g>
</g>
<g>
</g>
<g>
</g>
<g>
</g>
<g>
</g>
</svg>
