<?xml version="1.0" encoding="iso-8859-1"?>
<!-- Generator: Adobe Illustrator 19.0.0, SVG Export Plug-In . SVG Version: 6.00 Build 0)  -->
<svg version="1.1" id="Capa_1" xmlns="http://www.w3.org/2000/svg" xmlns:xlink="http://www.w3.org/1999/xlink" x="0px" y="0px"
	 viewBox="0 0 512 512" style="enable-background:new 0 0 512 512;" xml:space="preserve">
<g>
	<g transform="translate(1 1)">
		<path style="fill:#607D8B;" d="M306.195,58.733v102.4h-102.4v-102.4c0.031-23.319,15.82-43.669,38.4-49.493
			c4.172-1.134,8.477-1.708,12.8-1.707C283.254,7.576,306.152,30.474,306.195,58.733z"/>
		<path style="fill:#CFD8DC;" d="M280.595,58.733l0,102.4h-76.8v-102.4c0.031-23.319,15.82-43.669,38.4-49.493
			c8.877,2.185,16.971,6.794,23.381,13.312C275.225,32.115,280.636,45.148,280.595,58.733z"/>
		<rect x="212.328" y="442.733" style="fill:#1566C0;" width="85.333" height="59.733"/>
		<rect x="212.328" y="442.733" style="fill:#2296F3;" width="59.733" height="59.733"/>
		<path style="fill:#1566C0;" d="M323.261,383l0,51.2c0.009,6.792-2.685,13.309-7.488,18.112c-4.803,4.803-11.32,7.497-18.112,7.488
			h-85.333c-6.792,0.009-13.309-2.685-18.112-7.488c-4.803-4.803-7.497-11.32-7.488-18.112l0-51.2H323.261z"/>
		<g>
			<path style="fill:#2296F3;" d="M297.661,383l0,51.2c0.009,6.792-2.685,13.309-7.488,18.112
				c-4.803,4.803-11.32,7.497-18.112,7.488h-59.733c-6.792,0.009-13.309-2.685-18.112-7.488c-4.803-4.803-7.497-11.32-7.488-18.112
				l0-51.2H297.661z"/>
			<path style="fill:#2296F3;" d="M259.261,400.067h77.312c7.517,0.031,14.948-1.601,21.76-4.779
				c5.253-2.317,10.05-5.553,14.165-9.557c5.583-5.166,9.929-11.525,12.715-18.603l37.461-95.232
				c2.131-5.369,3.12-11.124,2.901-16.896c-0.094-5.902-1.432-11.717-3.925-17.067c-1.866-4.143-4.403-7.949-7.509-11.264
				l-66.901-75.093c-4.382-4.699-10.49-7.41-16.915-7.507c-6.425-0.097-12.612,2.429-17.133,6.995c-9.301,9.377-9.301,24.5,0,33.877
				l39.68,41.984c3.257,3.207,5.966,6.925,8.021,11.008c2.734,5.301,4.333,11.113,4.693,17.067
				c0.355,5.576-0.369,11.168-2.133,16.469l-14.08,41.813c-4.487,12.905-13.822,23.556-26.027,29.696
				c-7.286,3.645-15.32,5.544-23.467,5.547h-89.771c-8.147-0.002-16.181-1.901-23.467-5.547
				c-12.205-6.141-21.54-16.791-26.027-29.696l-14.08-41.813c-1.764-5.301-2.489-10.893-2.133-16.469
				c0.36-5.953,1.959-11.766,4.693-17.067c2.055-4.083,4.765-7.801,8.021-11.008l39.68-41.984c9.301-9.377,9.301-24.5,0-33.877
				c-4.521-4.566-10.708-7.091-17.133-6.995c-6.425,0.097-12.533,2.807-16.915,7.507l-66.901,75.093
				c-3.106,3.316-5.644,7.121-7.509,11.264c-2.494,5.35-3.831,11.165-3.925,17.067c-0.218,5.772,0.77,11.527,2.901,16.896
				l37.461,95.232c2.786,7.078,7.132,13.437,12.715,18.603c4.115,4.004,8.912,7.241,14.165,9.557
				c6.809,3.187,14.242,4.819,21.76,4.779H259.261z"/>
		</g>
		<path style="fill:#AD1457;" d="M306.195,144.067V229.4c-0.022,28.268-22.932,51.178-51.2,51.2
			c-4.317-0.013-8.616-0.558-12.8-1.621c-22.575-5.887-38.346-26.249-38.4-49.579v-85.333H306.195z"/>
		<path style="fill:#E91E63;" d="M280.595,144.067V229.4c-0.054,23.33-15.825,43.692-38.4,49.579
			c-22.575-5.887-38.346-26.249-38.4-49.579v-85.333H280.595z"/>
		<path style="fill:#1566C0;" d="M425.576,255c0.218,5.772-0.77,11.527-2.901,16.896l-37.461,95.232
			c-2.786,7.078-7.132,13.436-12.715,18.603c-4.115,4.004-8.912,7.24-14.165,9.557c-6.812,3.178-14.243,4.81-21.76,4.779l-25.515,0
			c7.517,0.031,14.948-1.601,21.76-4.779c5.253-2.317,10.05-5.554,14.165-9.557c5.583-5.166,9.929-11.525,12.715-18.603
			l37.461-95.232c2.132-5.369,3.12-11.124,2.901-16.896c-0.094-5.902-1.431-11.717-3.925-17.067
			c-1.865-4.143-4.403-7.949-7.509-11.264l-66.901-75.093c-1.345-1.436-2.864-2.697-4.523-3.755c3.822-2.446,8.263-3.749,12.8-3.755
			c6.544-0.021,12.797,2.703,17.237,7.509l66.901,75.093c3.106,3.316,5.644,7.121,7.509,11.264
			C424.144,243.283,425.482,249.099,425.576,255z"/>
	</g>
	<g>
		<path d="M255.995,0c-32.974,0.038-59.695,26.759-59.733,59.733v80.811c-12.852-7.163-28.943-4.546-38.863,6.322l-66.775,74.967
			c-13.495,14.613-17.468,35.646-10.233,54.175l37.479,95.275c9.136,23.23,31.614,38.453,56.575,38.317h4.75v25.6
			c0.045,15.521,10.568,29.054,25.6,32.922v35.345c-0.001,2.263,0.898,4.434,2.499,6.035c1.6,1.6,3.771,2.499,6.035,2.499h85.333
			c2.263,0.001,4.434-0.898,6.035-2.499c1.6-1.6,2.499-3.771,2.499-6.035v-35.345c15.032-3.868,25.555-17.4,25.6-32.922v-25.6h4.75
			c24.967,0.136,47.448-15.095,56.579-38.333l37.475-95.258c7.227-18.463,3.305-39.431-10.108-54.033l-67.058-75.283
			c-6.062-6.502-14.56-10.184-23.45-10.159c-5.338,0.057-10.579,1.435-15.254,4.011V59.733C315.689,26.759,288.968,0.038,255.995,0z
			 M356.555,248.655c0.101,0.882,0.341,1.743,0.711,2.551c1.375,6.15,1.049,12.558-0.943,18.536l-14.067,41.783
			c-6.044,17.69-22.715,29.54-41.408,29.433h-89.713c-18.695,0.106-35.366-11.748-41.404-29.442l-14.067-41.775
			c-1.999-5.992-2.316-12.418-0.916-18.577c0.319-0.727,0.534-1.495,0.638-2.281c1.661-5.709,4.746-10.902,8.965-15.092
			l31.908-33.816V230.4c0,32.99,26.744,59.733,59.733,59.733s59.733-26.744,59.733-59.733v-30.418l32.125,34.034
			C351.938,238.087,354.931,243.122,356.555,248.655z M213.328,153.6h85.333v76.8c0,23.564-19.103,42.667-42.667,42.667
			s-42.667-19.103-42.667-42.667V153.6z M255.995,17.067c23.553,0.028,42.639,19.114,42.667,42.667v76.8h-85.333v-76.8
			C213.356,36.181,232.442,17.094,255.995,17.067z M169.982,158.392c2.848-3.062,6.843-4.799,11.025-4.792
			c4.032,0,7.9,1.597,10.758,4.442c6.012,6.125,5.945,15.957-0.15,22l-39.454,41.808c-4.904,4.869-8.772,10.68-11.37,17.083H99.09
			c1.191-2.004,2.581-3.883,4.15-5.608L169.982,158.392z M96.274,269.758c-1.707-4.379-2.501-9.061-2.331-13.758h43.05
			c-0.392,6.498,0.456,13.01,2.497,19.191l14.067,41.767c3.124,9.253,8.468,17.599,15.565,24.308l-25.932,38.134
			c-4.079-4.115-7.29-9.006-9.445-14.384L96.274,269.758z M290.128,494.933h-68.267v-25.6h68.267V494.933z M315.728,435.2
			c-0.011,9.421-7.645,17.056-17.067,17.067h-85.333c-9.421-0.011-17.056-7.645-17.067-17.067v-25.6h119.467V435.2z
			 M324.261,392.533H174.445c-5.891-0.022-11.717-1.225-17.135-3.536l25.721-37.825c8.685,4.501,18.324,6.851,28.106,6.853h89.713
			c9.783-0.002,19.423-2.353,28.109-6.854l25.722,37.826c-5.418,2.312-11.245,3.514-17.135,3.536H324.261z M378.245,365.008
			c-2.155,5.381-5.367,10.274-9.446,14.392l-25.93-38.133c7.095-6.707,12.439-15.05,15.564-24.301l14.067-41.775
			c2.042-6.181,2.892-12.693,2.506-19.191h43.047c0.165,4.697-0.63,9.379-2.337,13.758L378.245,365.008z M320.224,158.042
			c6.111-5.694,15.607-5.617,21.625,0.175l67.025,75.25c1.53,1.682,2.886,3.513,4.049,5.467h-41.696
			c-2.547-6.319-6.351-12.055-11.182-16.858l-39.821-42.183C314.245,173.835,314.245,164.098,320.224,158.042z"/>
		<path d="M238.928,102.4c2.263,0.001,4.434-0.898,6.035-2.499c1.6-1.6,2.499-3.771,2.499-6.035V59.733
			c0.005-4.711,3.822-8.529,8.533-8.533c4.713,0,8.533-3.821,8.533-8.533s-3.82-8.533-8.533-8.533
			c-14.132,0.015-25.585,11.468-25.6,25.6v34.133c-0.001,2.263,0.898,4.434,2.499,6.035
			C234.494,101.502,236.665,102.401,238.928,102.4z"/>
	</g>
</g>
<g>
</g>
<g>
</g>
<g>
</g>
<g>
</g>
<g>
</g>
<g>
</g>
<g>
</g>
<g>
</g>
<g>
</g>
<g>
</g>
<g>
</g>
<g>
</g>
<g>
</g>
<g>
</g>
<g>
</g>
</svg>
