<?xml version="1.0" encoding="iso-8859-1"?>
<!-- Generator: Adobe Illustrator 19.0.0, SVG Export Plug-In . SVG Version: 6.00 Build 0)  -->
<svg version="1.1" id="Capa_1" xmlns="http://www.w3.org/2000/svg" xmlns:xlink="http://www.w3.org/1999/xlink" x="0px" y="0px"
	 viewBox="0 0 512 512" style="enable-background:new 0 0 512 512;" xml:space="preserve">
<g>
	<g transform="translate(1 1)">
		<path style="fill:#2E7D32;" d="M41.667,7.533h426.667c18.851,0,34.133,15.282,34.133,34.133v426.667
			c0,18.851-15.282,34.133-34.133,34.133H41.667c-18.851,0-34.133-15.282-34.133-34.133V41.667
			C7.533,22.815,22.815,7.533,41.667,7.533z"/>
		<path style="fill:#4CAF50;" d="M41.667,7.533h401.067c18.851,0,34.133,15.282,34.133,34.133v426.667
			c0,18.851-15.282,34.133-34.133,34.133H41.667c-18.851,0-34.133-15.282-34.133-34.133V41.667
			C7.533,22.815,22.815,7.533,41.667,7.533z"/>
		<path style="fill:#607D8B;" d="M408.6,118.467v273.067c0,9.426-7.641,17.067-17.067,17.067H118.467
			c-9.426,0-17.067-7.641-17.067-17.067V118.467c0-9.426,7.641-17.067,17.067-17.067h273.067
			C400.959,101.4,408.6,109.041,408.6,118.467z"/>
		<path style="fill:#CFD8DC;" d="M383,118.467v273.067c0,9.426-7.641,17.067-17.067,17.067H118.467
			c-9.426,0-17.067-7.641-17.067-17.067V118.467c0-9.426,7.641-17.067,17.067-17.067h247.467C375.359,101.4,383,109.041,383,118.467
			z"/>
		<g>
			<path style="fill:#FFEB3A;" d="M144.067,67.267h17.067c4.713,0,8.533,3.821,8.533,8.533v25.6h-34.133V75.8
				C135.533,71.087,139.354,67.267,144.067,67.267z"/>
			<path style="fill:#FFEB3A;" d="M212.333,67.267H229.4c4.713,0,8.533,3.821,8.533,8.533v25.6H203.8V75.8
				C203.8,71.087,207.621,67.267,212.333,67.267z"/>
			<path style="fill:#FFEB3A;" d="M280.6,67.267h17.067c4.713,0,8.533,3.821,8.533,8.533v25.6h-34.133V75.8
				C272.067,71.087,275.887,67.267,280.6,67.267z"/>
			<path style="fill:#FFEB3A;" d="M348.867,67.267h17.067c4.713,0,8.533,3.821,8.533,8.533v25.6h-34.133V75.8
				C340.333,71.087,344.154,67.267,348.867,67.267z"/>
			<path style="fill:#FFEB3A;" d="M365.933,442.733h-17.067c-4.713,0-8.533-3.821-8.533-8.533v-25.6h34.133v25.6
				C374.467,438.913,370.646,442.733,365.933,442.733z"/>
			<path style="fill:#FFEB3A;" d="M297.667,442.733H280.6c-4.713,0-8.533-3.821-8.533-8.533v-25.6H306.2v25.6
				C306.2,438.913,302.38,442.733,297.667,442.733z"/>
			<path style="fill:#FFEB3A;" d="M229.4,442.733h-17.067c-4.713,0-8.533-3.821-8.533-8.533v-25.6h34.133v25.6
				C237.933,438.913,234.113,442.733,229.4,442.733z"/>
			<path style="fill:#FFEB3A;" d="M161.133,442.733h-17.067c-4.713,0-8.533-3.821-8.533-8.533v-25.6h34.133v25.6
				C169.667,438.913,165.846,442.733,161.133,442.733z"/>
			<path style="fill:#FFEB3A;" d="M67.267,365.933v-17.067c0-4.713,3.821-8.533,8.533-8.533h25.6v34.133H75.8
				C71.087,374.467,67.267,370.646,67.267,365.933z"/>
			<path style="fill:#FFEB3A;" d="M67.267,297.667V280.6c0-4.713,3.821-8.533,8.533-8.533h25.6V306.2H75.8
				C71.087,306.2,67.267,302.38,67.267,297.667z"/>
			<path style="fill:#FFEB3A;" d="M67.267,229.4v-17.067c0-4.713,3.821-8.533,8.533-8.533h25.6v34.133H75.8
				C71.087,237.933,67.267,234.113,67.267,229.4z"/>
			<path style="fill:#FFEB3A;" d="M67.267,161.133v-17.067c0-4.713,3.821-8.533,8.533-8.533h25.6v34.133H75.8
				C71.087,169.667,67.267,165.846,67.267,161.133z"/>
			<path style="fill:#FFEB3A;" d="M442.733,144.067v17.067c0,4.713-3.821,8.533-8.533,8.533h-25.6v-34.133h25.6
				C438.913,135.533,442.733,139.354,442.733,144.067z"/>
			<path style="fill:#FFEB3A;" d="M442.733,212.333V229.4c0,4.713-3.821,8.533-8.533,8.533h-25.6V203.8h25.6
				C438.913,203.8,442.733,207.621,442.733,212.333z"/>
			<path style="fill:#FFEB3A;" d="M442.733,280.6v17.067c0,4.713-3.821,8.533-8.533,8.533h-25.6v-34.133h25.6
				C438.913,272.067,442.733,275.887,442.733,280.6z"/>
			<path style="fill:#FFEB3A;" d="M442.733,348.867v17.067c0,4.713-3.821,8.533-8.533,8.533h-25.6v-34.133h25.6
				C438.913,340.333,442.733,344.154,442.733,348.867z"/>
		</g>
		<path style="fill:#37474F;" d="M353.874,222.306c-1.233-12.568-4.43-24.864-9.475-36.44c-3.938-8.728-9.252-16.766-15.738-23.809
			c-8.954-9.277-19.961-16.321-32.135-20.567c-5.422-2.006-11.023-3.492-16.726-4.438c-9.109-1.631-18.404-1.947-27.603-0.939
			c-5.491,0.447-10.926,1.419-16.232,2.901c-24.45,6.36-45.515,21.883-58.831,43.352c-5.155,8.453-8.938,17.671-11.206,27.309
			c-1.832,6.869-2.61,13.976-2.307,21.079c0.082,0.683,0.082,1.365,0.165,1.963c0.358,2.822,0.908,5.616,1.648,8.363
			c0.577,2.731,1.318,5.376,1.895,8.277c0.992,4.394,1.435,8.895,1.319,13.398c-0.494,19.97-29.416,38.403-8.405,42.67
			c2.263-0.038,4.442,0.854,6.031,2.466c1.588,1.613,2.446,3.805,2.374,6.067c0,12.716,0,16.982,4.202,21.249
			c4.202,4.267,8.322,0,8.322,8.534c0,8.278-3.872,16.556,7.251,20.908h0.082c0.335,0.193,0.696,0.336,1.071,0.427
			c9.233,1.393,18.66,0.722,27.603-1.963c6.002-1.421,11.917-3.187,17.715-5.291l0.165,0.427c3.575,3.714,6.105,8.307,7.333,13.314
			c0.794,3.793,4.117,6.525,7.992,6.571h80.996c2.891-0.064,5.55-1.598,7.052-4.069c1.502-2.471,1.639-5.538,0.363-8.134
			c-6.462-11.995-10.916-24.968-13.183-38.404v-0.085c8.031-15.19,14.97-30.932,20.764-47.107
			c2.759-8.541,4.906-17.268,6.427-26.114c0.852-4.911,1.403-9.87,1.648-14.849C354.628,233.678,354.435,227.977,353.874,222.306z
			 M316.054,227.342c0.082,0.341,0.164,0.768,0.247,1.109c-0.142-0.64-0.335-1.268-0.577-1.878
			C315.807,226.83,315.972,227.085,316.054,227.342L316.054,227.342z"/>
		<path style="fill:#607D8B;" d="M333.193,222.293c-1.233-12.569-4.43-24.866-9.475-36.443c-3.938-8.728-9.252-16.768-15.738-23.811
			c-8.953-9.277-19.96-16.322-32.134-20.568c-5.422-2.006-11.023-3.492-16.727-4.438c-2.288-0.439-4.599-0.752-6.921-0.939
			c-1.401,0.085-2.719,0.256-4.12,0.427c-2.225,0.256-4.367,0.683-6.51,1.109c-1.895,0.427-3.708,0.853-5.603,1.365
			c-24.45,6.361-45.516,21.885-58.831,43.356c-5.155,8.454-8.938,17.672-11.206,27.311c-1.832,6.869-2.61,13.977-2.307,21.08
			c0.082,0.683,0.082,1.366,0.165,1.963c0.358,2.822,0.908,5.617,1.648,8.364c0.577,2.731,1.318,5.377,1.895,8.278
			c0.992,4.395,1.435,8.896,1.319,13.399c-0.494,19.971-29.416,38.406-8.405,42.673c2.263-0.037,4.443,0.854,6.031,2.467
			c1.588,1.613,2.446,3.806,2.374,6.068c0,12.716,0,16.984,4.202,21.251c4.202,4.267,8.322,0,8.322,8.535
			c0,8.279-3.872,16.557,7.251,20.91h0.082c6.762,9.511,22.84-1.291,23.829,0.672c5.767-1.365,16.71-5.366,22.56-7.5l0.165,0.427
			c3.529,5.564,6.014,11.724,7.333,18.179c0.823,3.841,4.202-1.962,7.992-1.962h60.314c6.097,0,10.052,2.047,7.416-3.671
			c-6.592-13.66-11.039-28.255-13.184-43.27v-0.085c8.031-15.191,14.97-30.934,20.764-47.111c0.659-1.963,1.236-3.925,1.812-5.974
			c1.882-6.63,3.422-13.353,4.614-20.141c0.853-4.912,1.403-9.871,1.648-14.85C333.946,233.666,333.754,227.965,333.193,222.293z
			 M295.043,226.561c0.083,0.256,0.247,0.512,0.33,0.768c0.083,0.341,0.164,0.768,0.247,1.109
			C295.478,227.798,295.285,227.17,295.043,226.561z"/>
		<path style="fill:#2E7D32;" d="M354.451,235.793c-0.245,4.809-0.796,9.598-1.648,14.337c-1.523,8.55-3.671,16.977-6.427,25.213
			c-6.667-0.35-13.146-2.331-18.869-5.768c1.881-6.396,3.421-12.887,4.614-19.445c0.852-4.739,1.403-9.528,1.648-14.337
			c0.177-5.5-0.016-11.005-0.577-16.479c-1.24-12.162-4.44-24.043-9.475-35.183c-3.965-8.466-9.28-16.23-15.738-22.989
			c-9.037-9.008-20.035-15.804-32.134-19.857c-5.432-1.939-11.031-3.373-16.727-4.285c-2.289-0.424-4.6-0.726-6.921-0.906
			c9.199-0.974,18.488-0.669,27.603,0.906c5.695,0.911,11.294,2.346,16.726,4.285c12.099,4.053,23.097,10.849,32.135,19.857
			c6.458,6.759,11.773,14.523,15.738,22.989c5.035,11.14,8.235,23.021,9.475,35.183
			C354.435,224.788,354.628,230.294,354.451,235.793z"/>
		<path style="fill:#4CAF50;" d="M333.769,235.793c-0.245,4.809-0.796,9.598-1.648,14.337c-1.193,6.559-2.733,13.05-4.614,19.445
			c-8.816-6.097-9.97-16.149-10.052-28.839c-0.083-1.977-0.083-3.955-0.083-6.015c0.061-3.56-0.383-7.111-1.318-10.547
			c-4.038-13.596-17.798-19.94-49.191-21.753c-5.191-0.33-10.959-0.577-17.139-0.577c-2.142-0.083-4.284-0.083-6.509-0.083
			c-7.511-0.118-14.981-1.141-22.247-3.049c-5.471-1.345-10.863-2.996-16.149-4.944c-9.626-3.438-18.898-7.798-27.686-13.019
			c13.581-20.919,34.615-35.885,58.831-41.857c1.813-0.494,3.708-0.906,5.603-1.318c2.142-0.412,4.285-0.824,6.51-1.071
			c1.401-0.165,2.719-0.33,4.12-0.412c2.321,0.18,4.632,0.483,6.921,0.906c5.695,0.912,11.295,2.346,16.727,4.285
			c12.099,4.053,23.097,10.849,32.134,19.857c6.458,6.759,11.773,14.523,15.738,22.989c5.035,11.14,8.235,23.021,9.475,35.183
			C333.754,224.788,333.946,230.294,333.769,235.793z"/>
	</g>
	<g>
		<path d="M42.667,512h426.667c23.553-0.028,42.639-19.114,42.667-42.667V42.667C511.972,19.114,492.886,0.028,469.333,0H42.667
			C19.114,0.028,0.028,19.114,0,42.667v426.667C0.028,492.886,19.114,511.972,42.667,512z M17.067,42.667
			c0.015-14.132,11.468-25.585,25.6-25.6h426.667c14.132,0.015,25.585,11.468,25.6,25.6v426.667
			c-0.015,14.132-11.468,25.585-25.6,25.6H42.667c-14.132-0.015-25.585-11.468-25.6-25.6V42.667z"/>
		<path d="M76.8,332.8c-9.421,0.011-17.056,7.645-17.067,17.067H42.667c-4.713,0-8.533,3.82-8.533,8.533s3.821,8.533,8.533,8.533
			h17.067c0.011,9.421,7.645,17.056,17.067,17.067h17.067v8.533c0.015,14.132,11.468,25.585,25.6,25.6H128V435.2
			c0.011,9.421,7.645,17.056,17.067,17.067v17.067c0,4.713,3.82,8.533,8.533,8.533s8.533-3.821,8.533-8.533v-17.067
			c9.421-0.011,17.056-7.645,17.067-17.067v-17.067h17.067V435.2c0.011,9.421,7.645,17.056,17.067,17.067v17.067
			c0,4.713,3.821,8.533,8.533,8.533c4.713,0,8.533-3.821,8.533-8.533v-17.067c9.421-0.011,17.056-7.645,17.067-17.067v-17.067
			h17.067V435.2c0.011,9.421,7.645,17.056,17.067,17.067v17.067c0,4.713,3.821,8.533,8.533,8.533c4.713,0,8.533-3.821,8.533-8.533
			v-17.067c9.421-0.011,17.056-7.645,17.067-17.067v-17.067H332.8V435.2c0.011,9.421,7.645,17.056,17.067,17.067v17.067
			c0,4.713,3.82,8.533,8.533,8.533s8.533-3.821,8.533-8.533v-17.067c9.421-0.011,17.056-7.645,17.067-17.067v-17.067h8.533
			c14.132-0.015,25.585-11.468,25.6-25.6V384H435.2c9.421-0.011,17.056-7.645,17.067-17.067h17.067c4.713,0,8.533-3.82,8.533-8.533
			s-3.821-8.533-8.533-8.533h-17.067c-0.011-9.421-7.645-17.056-17.067-17.067h-17.067v-17.067H435.2
			c9.421-0.011,17.056-7.645,17.067-17.067h17.067c4.713,0,8.533-3.821,8.533-8.533c0-4.713-3.821-8.533-8.533-8.533h-17.067
			c-0.011-9.421-7.645-17.056-17.067-17.067h-17.067v-17.067H435.2c9.421-0.011,17.056-7.645,17.067-17.067h17.067
			c4.713,0,8.533-3.821,8.533-8.533c0-4.713-3.821-8.533-8.533-8.533h-17.067c-0.011-9.421-7.645-17.056-17.067-17.067h-17.067
			V179.2H435.2c9.421-0.011,17.056-7.645,17.067-17.067h17.067c4.713,0,8.533-3.821,8.533-8.533s-3.821-8.533-8.533-8.533h-17.067
			c-0.011-9.421-7.645-17.056-17.067-17.067h-17.067v-8.533c-0.015-14.132-11.468-25.585-25.6-25.6H384V76.8
			c-0.011-9.421-7.645-17.056-17.067-17.067V42.667c0-4.713-3.82-8.533-8.533-8.533s-8.533,3.821-8.533,8.533v17.067
			c-9.421,0.011-17.056,7.645-17.067,17.067v17.067h-17.067V76.8c-0.011-9.421-7.645-17.056-17.067-17.067V42.667
			c0-4.713-3.821-8.533-8.533-8.533c-4.713,0-8.533,3.821-8.533,8.533v17.067c-9.421,0.011-17.056,7.645-17.067,17.067v17.067
			h-17.067V76.8c-0.011-9.421-7.645-17.056-17.067-17.067V42.667c0-4.713-3.821-8.533-8.533-8.533c-4.713,0-8.533,3.821-8.533,8.533
			v17.067c-9.421,0.011-17.056,7.645-17.067,17.067v17.067H179.2V76.8c-0.011-9.421-7.645-17.056-17.067-17.067V42.667
			c0-4.713-3.821-8.533-8.533-8.533s-8.533,3.821-8.533,8.533v17.067C135.645,59.744,128.011,67.379,128,76.8v17.067h-8.533
			c-14.132,0.015-25.585,11.468-25.6,25.6V128H76.8c-9.421,0.011-17.056,7.645-17.067,17.067H42.667
			c-4.713,0-8.533,3.82-8.533,8.533s3.821,8.533,8.533,8.533h17.067c0.011,9.421,7.645,17.056,17.067,17.067h17.067v17.067H76.8
			c-9.421,0.011-17.056,7.645-17.067,17.067H42.667c-4.713,0-8.533,3.821-8.533,8.533c0,4.713,3.821,8.533,8.533,8.533h17.067
			c0.011,9.421,7.645,17.056,17.067,17.067h17.067v17.067H76.8c-9.421,0.011-17.056,7.645-17.067,17.067H42.667
			c-4.713,0-8.533,3.821-8.533,8.533c0,4.713,3.821,8.533,8.533,8.533h17.067c0.011,9.421,7.645,17.056,17.067,17.067h17.067V332.8
			H76.8z M76.8,366.933v-17.067h17.067v17.067H76.8z M162.133,435.2h-17.067v-17.067h17.067V435.2z M230.4,435.2h-17.067v-17.067
			H230.4V435.2z M298.667,435.2H281.6v-17.067h17.067V435.2z M366.933,435.2h-17.067v-17.067h17.067V435.2z M435.2,349.867v17.067
			h-17.067v-17.067H435.2z M435.2,281.6v17.067h-17.067V281.6H435.2z M435.2,213.333V230.4h-17.067v-17.067H435.2z M435.2,145.067
			v17.067h-17.067v-17.067H435.2z M349.867,76.8h17.067v17.067h-17.067V76.8z M281.6,76.8h17.067v17.067H281.6V76.8z M213.333,76.8
			H230.4v17.067h-17.067V76.8z M145.067,76.8h17.067v17.067h-17.067V76.8z M110.933,119.467c0.005-4.711,3.822-8.529,8.533-8.533
			h273.067c4.711,0.005,8.529,3.822,8.533,8.533v273.067c-0.005,4.711-3.822,8.529-8.533,8.533H119.467
			c-4.711-0.005-8.529-3.822-8.533-8.533V119.467z M76.8,162.133v-17.067h17.067v17.067H76.8z M76.8,230.4v-17.067h17.067V230.4
			H76.8z M76.8,298.667V281.6h17.067v17.067H76.8z"/>
		<path d="M136.533,145.067c2.855,0.03,5.532-1.385,7.115-3.761c1.584-2.376,1.86-5.39,0.735-8.014
			c-1.251-3.247-4.372-5.389-7.852-5.389c-3.48,0-6.601,2.142-7.852,5.389c-1.122,2.625-0.843,5.638,0.74,8.013
			C131.004,143.679,133.679,145.094,136.533,145.067z"/>
		<path d="M130.475,381.525c2.441,2.444,6.125,3.154,9.3,1.792c1.034-0.433,1.987-1.039,2.817-1.792
			c0.751-0.832,1.357-1.784,1.792-2.817c0.478-1.012,0.713-2.123,0.683-3.242c-0.014-1.115-0.246-2.216-0.683-3.242
			c-0.413-1.044-1.021-2-1.792-2.817c-0.419-0.387-0.877-0.731-1.367-1.025c-0.434-0.34-0.925-0.6-1.45-0.767
			c-0.485-0.246-1.003-0.42-1.537-0.517c-1.664-0.348-3.394-0.167-4.95,0.517c-1.033,0.433-1.984,1.039-2.813,1.792
			c-0.773,0.815-1.383,1.772-1.796,2.817c-0.906,2.066-0.906,4.417,0,6.483C129.114,379.742,129.721,380.695,130.475,381.525z"/>
		<path d="M375.467,145.067c2.27,0.022,4.453-0.87,6.058-2.475c1.605-1.605,2.497-3.788,2.475-6.058
			c0-4.713-3.821-8.533-8.533-8.533c-4.713,0-8.533,3.821-8.533,8.533c-0.022,2.27,0.87,4.453,2.475,6.058
			C371.013,144.197,373.197,145.089,375.467,145.067z"/>
		<path d="M369.408,381.525c0.829,0.753,1.78,1.359,2.813,1.792c2.066,0.911,4.421,0.911,6.487,0
			c1.034-0.433,1.987-1.039,2.817-1.792c0.751-0.832,1.357-1.784,1.792-2.817c0.478-1.012,0.713-2.123,0.683-3.242
			c-0.014-1.115-0.246-2.216-0.683-3.242c-0.433-1.034-1.039-1.986-1.792-2.817c-0.406-0.366-0.834-0.708-1.279-1.025
			c-0.475-0.325-0.992-0.582-1.538-0.767c-0.485-0.246-1.003-0.42-1.537-0.517c-1.664-0.348-3.394-0.167-4.95,0.517
			c-1.033,0.433-1.984,1.039-2.813,1.792c-0.773,0.815-1.383,1.772-1.796,2.817c-0.906,2.066-0.906,4.417,0,6.483
			C368.047,379.742,368.654,380.695,369.408,381.525z"/>
		<path d="M146.108,305.458c2.622,5.216,7.746,8.715,13.558,9.259c0.541,0.107,1.091,0.16,1.642,0.158c0,13.717,0,20.6,6.763,27.366
			c1.687,1.701,3.733,3.005,5.988,3.817c-0.054,1.008-0.167,2.017-0.267,3.008c-1.411,5.275-0.656,10.894,2.099,15.609
			c2.755,4.714,7.28,8.132,12.568,9.491c9.558,3.209,28.554-0.092,44.6-5.008c0.467,1.05,0.942,2.225,1.396,3.483
			c2.392,6.749,8.744,11.285,15.904,11.358h81.229c5.464-0.012,10.584-2.671,13.737-7.133c3.219-4.556,4.031-10.388,2.179-15.65
			c-3.973-10.216-7.207-20.704-9.679-31.383c1.15-2.517,2.675-5.417,4.383-8.667c11.157-20.051,18.883-41.826,22.858-64.425
			c1.489-8.521,2.068-17.175,1.728-25.818c0.057-0.289,0.098-0.58,0.122-0.873c-0.009-0.153-0.096-0.274-0.114-0.424
			c-0.541-11.097-2.528-22.077-5.911-32.659c-0.137-0.918-0.428-1.806-0.859-2.628c-4.446-13.816-11.827-26.508-21.636-37.205
			c-27.284-25.918-66.202-35.55-102.425-25.35c-26.305,6.86-49.082,23.332-63.834,46.165c-0.324,0.295-0.623,0.616-0.895,0.96
			c-0.127,0.291-0.236,0.59-0.327,0.894c-5.479,8.946-9.542,18.685-12.044,28.873c-2.095,7.719-2.957,15.72-2.554,23.708
			c0.44,4.886,1.32,9.722,2.629,14.45c1.608,5.422,2.406,11.053,2.367,16.708c-1.256,6.921-4.201,13.424-8.575,18.933
			C147.642,290.317,142.833,297.717,146.108,305.458z M331.588,366.933l-81.083-0.083c-0.456-1.267-0.992-2.387-1.496-3.575
			c9.854-3.738,18.653-9.812,25.643-17.7c1.822-2.444,2.202-5.675,0.996-8.476c-1.206-2.8-3.814-4.744-6.842-5.1
			c-3.028-0.356-6.016,0.931-7.838,3.376c-7.501,7.243-16.665,12.534-26.689,15.408l-0.003,0.001
			c-12.79,5.304-26.582,7.761-40.417,7.2c-3.696-1.233-3.696-1.233-3.087-7.183c0.235-2.011,0.367-4.034,0.396-6.059
			c0.951-7.06-3.972-13.565-11.025-14.566c-1.567-1.567-1.766-3.283-1.766-15.3c0.22-8.76-6.405-16.184-15.133-16.958
			c1.054-1.908,2.625-4.325,3.808-6.15c6.261-8.045,10.178-17.662,11.321-27.792c0.12-5.311-0.413-10.617-1.589-15.798
			c0.971-0.188,1.949-0.417,2.91-0.535c5.652-0.288,11.311,0.443,16.704,2.158c1.883,0.458,3.746,0.917,5.587,1.308
			c0.587,0.122,1.184,0.184,1.783,0.183c4.366-0.006,8.024-3.305,8.478-7.647c0.454-4.342-2.441-8.327-6.711-9.236
			c-1.675-0.35-3.371-0.767-5.087-1.192c-7.406-2.264-15.171-3.115-22.892-2.508c-1.382,0.169-2.777,0.488-4.167,0.76
			c-0.009-0.11-0.038-0.208-0.045-0.319c-0.261-6.231,0.455-12.465,2.121-18.475c1.521-6.067,3.692-11.953,6.476-17.554
			c9.186,4.85,18.771,8.904,28.649,12.117l0.041,0.028c0.047,0.02,0.097,0.01,0.145,0.03c11.203,3.876,22.931,6.021,34.78,6.362
			c62.054,0,66.696,10.133,66.696,25.6c0,20.453,0.085,41.482,26.638,48.607c-3.397,8.69-7.332,17.16-11.784,25.36
			c-2.33,4.425-4.337,8.25-5.833,11.892c-0.426,1.089-0.643,2.248-0.642,3.417C322.589,341.757,326.273,354.667,331.588,366.933z
			 M348.267,253.717c-1.182,6.587-2.585,12.503-4.095,17.979c-13.397-3.166-14.709-10.819-14.835-26.957
			c6.642-2.159,13.46-3.734,20.376-4.706C349.532,244.621,349.049,249.192,348.267,253.717z M349.11,222.911
			c-7.145,0.932-14.209,2.41-21.129,4.42c-4.953-20.105-23.72-27.616-54.801-29.892c1.558-5.894,3.518-11.674,5.867-17.299
			c0.906,0.022,1.809-0.107,2.673-0.38c12.587,1.768,24.444,6.966,34.274,15.023c8.976,6.114,19.275,10.01,30.051,11.368
			C347.501,211.65,348.526,217.254,349.11,222.911L349.11,222.911z M261.035,179.296c-2.159,5.667-3.919,11.478-5.267,17.39
			c-3.303-0.063-6.702-0.094-10.214-0.094c-6.223-0.144-12.412-0.971-18.454-2.466C235.639,184.375,248.08,178.939,261.035,179.296z
			 M338.784,187.217c-4.682-1.567-9.124-3.774-13.201-6.559c-11.267-8.904-24.547-14.908-38.674-17.486
			c2.546-4.945,5.059-9.528,7.311-13.414c12.026,3.718,22.967,10.308,31.876,19.201
			C331.188,174.397,335.463,180.548,338.784,187.217z M240.454,148.25c11.866-3.166,24.234-4.003,36.419-2.465
			c-2.723,4.872-5.609,10.376-8.482,16.339c-1.226-0.005-2.455-0.008-3.778-0.008h-2.546c-20.927-0.933-40.788,9.265-52.224,26.816
			c-6.539-2.389-12.915-5.205-19.086-8.428C203.328,164.584,220.794,153.249,240.454,148.25z"/>
	</g>
</g>
<g>
</g>
<g>
</g>
<g>
</g>
<g>
</g>
<g>
</g>
<g>
</g>
<g>
</g>
<g>
</g>
<g>
</g>
<g>
</g>
<g>
</g>
<g>
</g>
<g>
</g>
<g>
</g>
<g>
</g>
</svg>
