<?xml version="1.0" encoding="iso-8859-1"?>
<!-- Generator: Adobe Illustrator 19.0.0, SVG Export Plug-In . SVG Version: 6.00 Build 0)  -->
<svg version="1.1" id="Capa_1" xmlns="http://www.w3.org/2000/svg" xmlns:xlink="http://www.w3.org/1999/xlink" x="0px" y="0px"
	 viewBox="0 0 512 512" style="enable-background:new 0 0 512 512;" xml:space="preserve">
<g>
	<g transform="translate(4 12)">
		<path style="fill:#3F51B5;" d="M286.133,303.733c0,18.851-15.282,34.133-34.133,34.133s-34.133-15.282-34.133-34.133v-17.067
			h68.267V303.733z"/>
		<path style="fill:#02A9F4;" d="M311.733,184.267v17.067H192.267v-17.067c0-18.851,15.282-34.133,34.133-34.133h51.2
			C296.451,150.133,311.733,165.415,311.733,184.267z"/>
		<path style="fill:#1566C0;" d="M183.733,184.267h136.533c18.851,0,34.133,15.282,34.133,34.133v51.2
			c0,18.851-15.282,34.133-34.133,34.133H183.733c-18.851,0-34.133-15.282-34.133-34.133v-51.2
			C149.6,199.549,164.882,184.267,183.733,184.267z"/>
		<path style="fill:#2296F3;" d="M183.733,184.267h110.933c18.851,0,34.133,15.282,34.133,34.133v51.2
			c0,18.851-15.282,34.133-34.133,34.133H183.733c-18.851,0-34.133-15.282-34.133-34.133v-51.2
			C149.6,199.549,164.882,184.267,183.733,184.267z"/>
		<g>
			<path style="fill:#02A9F4;" d="M98.4,220.533h51.2c14.138,0,25.6,11.462,25.6,25.6c0,14.138-11.462,25.6-25.6,25.6H98.4V220.533z
				"/>
			<path style="fill:#02A9F4;" d="M405.6,269.6h-51.2c-14.138,0-25.6-11.462-25.6-25.6c0-14.138,11.462-25.6,25.6-25.6h51.2V269.6z"
				/>
		</g>
		<g>
			<rect x="55.733" y="107.467" style="fill:#3F51B5;" width="34.133" height="59.733"/>
			<rect x="414.133" y="107.467" style="fill:#3F51B5;" width="34.133" height="59.733"/>
		</g>
		<path style="fill:#283593;" d="M473.867,175.733V269.6c-0.028,9.414-7.653,17.039-17.067,17.067h-51.2
			c-9.414-0.028-17.039-7.652-17.067-17.067v-93.867H473.867z"/>
		<path style="fill:#3F51B5;" d="M448.267,175.733V269.6c-0.028,9.414-7.652,17.039-17.067,17.067h-25.6
			c-9.414-0.028-17.039-7.652-17.067-17.067v-93.867H448.267z"/>
		<path style="fill:#1566C0;" d="M473.867,158.667V192.8h-85.333v-34.133c0.014-4.707,3.826-8.519,8.533-8.533h68.267
			C470.04,150.147,473.853,153.96,473.867,158.667z"/>
		<path style="fill:#2296F3;" d="M448.267,158.667V192.8h-59.733v-34.133c0.014-4.707,3.826-8.519,8.533-8.533h42.667
			C444.44,150.147,448.253,153.96,448.267,158.667z"/>
		<path style="fill:#283593;" d="M115.467,175.733V269.6c-0.028,9.414-7.653,17.039-17.067,17.067H47.2
			c-9.414-0.028-17.039-7.652-17.067-17.067v-93.867H115.467z"/>
		<path style="fill:#3F51B5;" d="M89.867,175.733V269.6c-0.028,9.414-7.652,17.039-17.067,17.067H47.2
			c-9.414-0.028-17.039-7.652-17.067-17.067v-93.867H89.867z"/>
		<path style="fill:#1566C0;" d="M115.467,158.667V192.8H30.133v-34.133c0.014-4.707,3.826-8.519,8.533-8.533h68.267
			C111.64,150.147,115.453,153.96,115.467,158.667z"/>
		<path style="fill:#2296F3;" d="M89.867,158.667V192.8H30.133v-34.133c0.014-4.707,3.826-8.519,8.533-8.533h42.667
			C86.04,150.147,89.853,153.96,89.867,158.667z"/>
	</g>
	<g>
		<path d="M503.467,110.933H366.933c-4.713,0-8.533,3.821-8.533,8.533s3.82,8.533,8.533,8.533H409.6v25.6h-8.533
			c-9.421,0.011-17.056,7.645-17.067,17.067v51.2h-17.929c-4.08-19.85-21.539-34.105-41.804-34.133h-0.862
			c-4.08-19.85-21.539-34.105-41.804-34.133h-51.2c-20.265,0.028-37.724,14.283-41.804,34.133h-0.862
			c-20.265,0.028-37.724,14.283-41.804,34.133H128v-51.2c-0.011-9.421-7.645-17.056-17.067-17.067H102.4V128h42.667
			c4.713,0,8.533-3.821,8.533-8.533s-3.821-8.533-8.533-8.533H8.533c-4.713,0-8.533,3.821-8.533,8.533S3.821,128,8.533,128H51.2
			v25.6h-8.533c-9.421,0.011-17.056,7.645-17.067,17.067V281.6c0.015,14.132,11.468,25.585,25.6,25.6h51.2
			c10.813-0.033,20.435-6.868,24.028-17.067h19.502c4.08,19.85,21.539,34.105,41.804,34.133h26.462
			C218.251,344.132,235.725,358.4,256,358.4c20.275,0,37.749-14.268,41.804-34.133h26.462c20.265-0.028,37.724-14.283,41.804-34.133
			h19.502c3.592,10.199,13.214,17.033,24.027,17.067h51.2c14.132-0.015,25.585-11.468,25.6-25.6V170.667
			c-0.011-9.421-7.645-17.056-17.067-17.067H460.8V128h42.667c4.713,0,8.533-3.821,8.533-8.533S508.18,110.933,503.467,110.933z
			 M358.4,273.067c-9.426,0-17.067-7.641-17.067-17.067c0-9.426,7.641-17.067,17.067-17.067H384v34.133H358.4z M230.4,170.667h51.2
			c10.845,0.012,20.51,6.846,24.137,17.067h-99.475C209.89,177.513,219.555,170.679,230.4,170.667z M187.733,204.8h136.533
			c11.41,0.039,21.412,7.636,24.51,18.618c-11.443,3.382-20.281,12.505-23.299,24.049H186.522
			c-3.017-11.544-11.856-20.667-23.298-24.049C166.321,212.436,176.323,204.838,187.733,204.8z M68.267,128h17.067v25.6H68.267V128z
			 M59.733,170.667h51.2v25.6H42.667v-25.6H59.733z M102.4,290.133H51.2c-4.711-0.005-8.529-3.822-8.533-8.533v-68.267h68.267V281.6
			C110.929,286.311,107.111,290.129,102.4,290.133z M128,238.933h25.6c9.426,0,17.067,7.641,17.067,17.067
			c0,9.426-7.641,17.067-17.067,17.067H128V238.933z M256,341.333c-10.813-0.033-20.435-6.868-24.027-17.067h48.055
			C276.435,334.466,266.813,341.3,256,341.333z M324.267,307.2H187.733c-11.41-0.039-21.412-7.636-24.51-18.618
			c11.443-3.382,20.281-12.505,23.298-24.049h138.957c3.017,11.544,11.856,20.667,23.298,24.049
			C345.679,299.564,335.677,307.161,324.267,307.2z M460.8,290.133h-51.2c-4.711-0.005-8.529-3.822-8.533-8.533v-68.267h68.267
			V281.6C469.329,286.311,465.511,290.129,460.8,290.133z M469.333,196.267h-68.267v-25.6h68.267V196.267z M443.733,153.6h-17.067
			V128h17.067V153.6z"/>
		<path d="M256,392.533c2.27,0.021,4.453-0.871,6.059-2.475c0.751-0.832,1.357-1.784,1.792-2.817c0.911-2.065,0.911-4.418,0-6.483
			c-0.413-1.044-1.021-2-1.792-2.817c-2.457-2.418-6.125-3.125-9.304-1.792c-2.141,0.78-3.828,2.467-4.608,4.608
			c-0.906,2.066-0.906,4.417,0,6.483c0.435,1.034,1.042,1.986,1.795,2.817C251.547,391.663,253.73,392.554,256,392.533z"/>
		<path d="M235.917,399.808c-2.909-3.707-8.272-4.355-11.979-1.446c-3.707,2.909-4.355,8.272-1.446,11.979
			c8.065,10.304,20.423,16.325,33.508,16.325c13.085,0,25.443-6.021,33.508-16.325c1.882-2.398,2.341-5.618,1.205-8.447
			s-3.695-4.836-6.712-5.267c-3.018-0.43-6.036,0.782-7.917,3.18c-4.831,6.18-12.239,9.791-20.083,9.791
			S240.748,405.988,235.917,399.808L235.917,399.808z"/>
		<path d="M209.037,420.892c-2.913-3.694-8.266-4.334-11.967-1.43c-3.701,2.904-4.353,8.256-1.458,11.963
			C210.163,449.97,232.428,460.8,256,460.8s45.837-10.83,60.388-29.375c2.895-3.708,2.243-9.06-1.458-11.963
			c-3.701-2.904-9.054-2.264-11.967,1.43c-11.317,14.42-28.632,22.842-46.963,22.842S220.355,435.312,209.037,420.892z"/>
		<path d="M182.146,442.033c-2.918-3.7-8.283-4.335-11.983-1.417c-3.7,2.918-4.335,8.283-1.417,11.983
			c21.064,26.732,53.22,42.333,87.254,42.333s66.19-15.601,87.254-42.333c2.918-3.7,2.284-9.065-1.417-11.983
			c-3.7-2.918-9.065-2.284-11.983,1.417c-17.829,22.628-45.047,35.833-73.854,35.833S199.975,464.661,182.146,442.033z"/>
		<path d="M249.941,121.941c-0.773,0.815-1.383,1.772-1.796,2.817c-1.336,3.19-0.612,6.87,1.832,9.317s6.124,3.175,9.315,1.843
			c3.191-1.332,5.262-4.46,5.241-7.918c0.02-3.467-2.059-6.601-5.261-7.931C256.071,118.74,252.383,119.48,249.941,121.941z"/>
		<path d="M276.083,112.192c1.882,2.398,4.9,3.61,7.917,3.18c3.018-0.43,5.576-2.438,6.712-5.267
			c1.136-2.829,0.677-6.048-1.205-8.447C281.443,91.354,269.085,85.333,256,85.333c-13.085,0-25.443,6.021-33.508,16.325
			c-2.909,3.707-2.261,9.07,1.446,11.979c3.707,2.909,9.07,2.261,11.979-1.446c4.831-6.18,12.239-9.791,20.083-9.791
			S271.252,106.012,276.083,112.192L276.083,112.192z"/>
		<path d="M302.963,91.108c2.913,3.694,8.266,4.334,11.967,1.43s4.353-8.256,1.458-11.963C301.837,62.031,279.572,51.2,256,51.2
			s-45.837,10.83-60.387,29.375c-2.895,3.708-2.243,9.06,1.458,11.963c3.701,2.904,9.054,2.264,11.967-1.43
			c11.317-14.42,28.632-22.842,46.963-22.842S291.645,76.688,302.963,91.108z"/>
		<path d="M329.854,69.967c2.918,3.7,8.283,4.335,11.983,1.417c3.7-2.918,4.335-8.283,1.417-11.983
			C322.19,32.668,290.034,17.067,256,17.067S189.81,32.668,168.746,59.4c-1.888,2.394-2.355,5.613-1.225,8.444
			c1.129,2.832,3.683,4.846,6.7,5.283c3.017,0.438,6.038-0.767,7.925-3.161C199.975,47.339,227.192,34.133,256,34.133
			S312.025,47.339,329.854,69.967z"/>
	</g>
</g>
<g>
</g>
<g>
</g>
<g>
</g>
<g>
</g>
<g>
</g>
<g>
</g>
<g>
</g>
<g>
</g>
<g>
</g>
<g>
</g>
<g>
</g>
<g>
</g>
<g>
</g>
<g>
</g>
<g>
</g>
</svg>
