<?xml version="1.0" encoding="iso-8859-1"?>
<!-- Generator: Adobe Illustrator 19.0.0, SVG Export Plug-In . SVG Version: 6.00 Build 0)  -->
<svg version="1.1" id="Capa_1" xmlns="http://www.w3.org/2000/svg" xmlns:xlink="http://www.w3.org/1999/xlink" x="0px" y="0px"
	 viewBox="0 0 512 512" style="enable-background:new 0 0 512 512;" xml:space="preserve">
<g>
	<g transform="translate(1 1)">
		<path style="fill:#1566C0;" d="M502.467,255c0.011,65.636-26.058,128.586-72.469,174.997
			c-46.411,46.411-109.362,72.48-174.997,72.469c-4.267,0-8.533-0.085-12.715-0.341h-0.171C110.629,495.274,7.531,386.664,7.531,255
			S110.629,14.726,242.115,7.875h0.171c4.181-0.256,8.448-0.341,12.715-0.341c65.636-0.011,128.586,26.058,174.997,72.469
			C476.409,126.414,502.478,189.364,502.467,255z"/>
		<path style="fill:#2296F3;" d="M476.867,255c0.003,131.665-103.095,240.275-234.581,247.125h-0.171
			C110.629,495.274,7.531,386.664,7.531,255S110.629,14.726,242.115,7.875h0.171C373.772,14.725,476.869,123.336,476.867,255z"/>
		<path style="fill:#F44335;" d="M309.867,434.2c-19.933,0.01-39.278-6.749-54.867-19.171
			c-15.589,12.422-34.934,19.181-54.867,19.171c-34.699-0.084-66.184-20.33-80.658-51.867
			c-31.055-15.229-47.318-50.024-39.083-83.617c-20.454-30.998-16.684-72.034,9.075-98.788c-0.175-2.079-0.264-4.174-0.267-6.283
			c-0.052-31.56,20.11-59.607,50.042-69.613c12.041-29.111,40.397-48.134,71.9-48.233c15.669-0.013,30.969,4.753,43.858,13.662
			c12.889-8.91,28.189-13.676,43.858-13.662c31.533,0.103,59.919,19.133,71.992,48.262c29.884,10.036,50,38.059,49.95,69.583
			c0,2.108-0.089,4.203-0.267,6.283c25.759,26.753,29.529,67.789,9.075,98.788c8.235,33.593-8.029,68.388-39.083,83.617
			C376.051,413.87,344.566,434.116,309.867,434.2z"/>
		<path style="fill:#C52828;" d="M395.885,304.749c1.133,3.764,1.708,7.674,1.707,11.605c0.098,19.23-13.859,35.652-32.853,38.656
			c-0.367,0.061-0.738,0.09-1.109,0.085c-4.8,25.952-27.368,44.83-53.76,44.971c-4.342,0.015-8.669-0.501-12.885-1.536
			c21.024-5.163,37.079-22.153,41.045-43.435c0.372,0.005,0.743-0.024,1.109-0.085c18.995-3.004,32.951-19.426,32.853-38.656
			c0.002-3.931-0.573-7.841-1.707-11.605c-0.427-1.195-0.854-2.389-1.365-3.584c-0.255-0.597-0.512-1.28-0.768-1.877
			c-0.109-0.273-0.252-0.531-0.427-0.768c-0.341-0.683-0.768-1.365-1.194-2.048v-0.085c-0.838-1.533-1.809-2.989-2.902-4.352
			C375.776,283.619,383.016,269.777,383,255c0.017-1.685-0.097-3.368-0.341-5.035c-0.061-0.944-0.175-1.884-0.341-2.816
			c-0.171-0.768-0.341-1.621-0.512-2.389c-0.461-2.16-1.118-4.274-1.963-6.315c-0.426-1.024-0.853-2.048-1.365-3.072
			c-0.446-0.973-0.959-1.914-1.535-2.816c-0.983-1.951-2.186-3.783-3.584-5.461c-1.361-1.645-2.814-3.212-4.352-4.693
			c-3.933-3.732-8.536-6.685-13.568-8.704c0-0.023,0.008-0.045,0.024-0.061s0.038-0.025,0.061-0.024
			c3.675-6.009,5.595-12.925,5.546-19.968c0.172-21.39-17.011-38.878-38.4-39.083c-1.83-0.034-3.658,0.109-5.46,0.427v-0.427
			c0.038-19.361-12.348-36.562-30.721-42.667c3.996-1.301,8.171-1.963,12.374-1.963c24.455,0.198,44.125,20.174,43.947,44.629v0.427
			c1.802-0.318,3.631-0.461,5.46-0.427c21.389,0.205,38.572,17.693,38.4,39.083c0.05,7.043-1.871,13.959-5.546,19.968
			c-0.023,0-0.045,0.008-0.061,0.024s-0.025,0.038-0.024,0.061c5.032,2.019,9.635,4.972,13.568,8.704
			c1.538,1.481,2.991,3.048,4.352,4.693c1.398,1.678,2.601,3.511,3.584,5.461c0.577,0.902,1.09,1.843,1.535,2.816
			c0.512,1.024,0.94,2.048,1.365,3.072c0.845,2.041,1.502,4.154,1.963,6.315c0.171,0.768,0.341,1.621,0.511,2.389
			c0.166,0.932,0.28,1.872,0.341,2.816c0.244,1.667,0.359,3.35,0.343,5.035c0.016,14.777-7.224,28.619-19.371,37.035
			c1.093,1.363,2.064,2.819,2.902,4.352v0.085c0.426,0.683,0.852,1.365,1.194,2.048c0.174,0.237,0.318,0.495,0.427,0.768
			c0.256,0.597,0.513,1.28,0.768,1.877C395.031,302.36,395.459,303.555,395.885,304.749z"/>
		<path style="fill:#F44335;" d="M370.285,304.749c1.133,3.764,1.708,7.674,1.707,11.605c0.098,19.23-13.859,35.652-32.853,38.656
			c-0.367,0.061-0.738,0.09-1.109,0.085c-3.966,21.282-20.022,38.272-41.046,43.435c-13.956-3.457-25.98-12.291-33.45-24.576
			c-5.615-8.884-8.576-19.187-8.533-29.696c0.043,10.509-2.918,20.812-8.533,29.696c-1.275,2.12-2.701,4.144-4.267,6.059
			c-10.289,12.677-25.742,20.043-42.069,20.053c-4.285,0.01-8.555-0.506-12.715-1.536c-21.039-5.22-37.106-22.221-41.131-43.52
			h-1.024c-18.995-3.004-32.951-19.426-32.853-38.656c-0.002-3.931,0.573-7.841,1.707-11.605c0.427-1.195,0.854-2.389,1.365-3.584
			c0.255-0.597,0.511-1.28,0.768-1.877c0.171-0.256,0.256-0.512,0.427-0.768c0.341-0.683,0.768-1.365,1.194-2.048v-0.085
			l0.085-0.085c0.811-1.456,1.723-2.854,2.731-4.181l0.085-0.085c-12.146-8.415-19.386-22.258-19.37-37.035
			c-0.017-1.685,0.097-3.368,0.341-5.035c0.061-0.944,0.175-1.884,0.341-2.816c0.17-0.768,0.341-1.621,0.511-2.389
			c0.485-2.154,1.142-4.265,1.963-6.315c0.426-1.024,0.853-2.048,1.365-3.072c0.446-0.973,0.959-1.914,1.535-2.816
			c1.034-1.921,2.233-3.748,3.584-5.461c1.361-1.645,2.814-3.212,4.352-4.693c3.933-3.732,8.536-6.685,13.568-8.704
			c0-0.023-0.008-0.045-0.024-0.061c-0.016-0.016-0.038-0.025-0.061-0.024c-3.675-6.009-5.595-12.925-5.546-19.968
			c-0.172-21.39,17.011-38.878,38.4-39.083c1.83-0.034,3.658,0.109,5.46,0.427v-0.427c-0.086-19.43,12.406-36.683,30.892-42.667
			h0.085c15.627-4.873,32.666-0.515,44.032,11.264c1.577,1.51,3.005,3.167,4.267,4.949c5.57,7.694,8.558,16.955,8.533,26.453
			c-0.024-9.498,2.963-18.76,8.533-26.453c5.502-7.755,13.427-13.459,22.528-16.213h0.426c18.373,6.105,30.758,23.306,30.721,42.667
			v0.427c1.802-0.318,3.631-0.461,5.46-0.427c21.389,0.205,38.572,17.693,38.4,39.083c0.05,7.043-1.871,13.959-5.546,19.968
			c-0.023,0-0.045,0.008-0.061,0.024s-0.025,0.038-0.024,0.061c5.032,2.019,9.635,4.972,13.568,8.704
			c1.538,1.481,2.991,3.048,4.352,4.693c1.398,1.678,2.601,3.511,3.584,5.461c0.577,0.902,1.09,1.843,1.535,2.816
			c0.513,1.024,0.94,2.048,1.365,3.072c0.845,2.041,1.502,4.154,1.963,6.315c0.171,0.768,0.341,1.621,0.511,2.389
			c0.166,0.932,0.28,1.872,0.341,2.816c0.244,1.667,0.359,3.35,0.342,5.035c0.016,14.777-7.224,28.619-19.371,37.035
			c1.093,1.363,2.064,2.819,2.902,4.352v0.085c0.426,0.683,0.852,1.365,1.194,2.048c0.174,0.237,0.318,0.495,0.427,0.768
			c0.256,0.597,0.513,1.28,0.768,1.877C369.431,302.36,369.859,303.555,370.285,304.749z"/>
		<path style="fill:#C52828;" d="M429.592,298.691c1.444,5.776,2.16,11.71,2.133,17.664c-0.073,28.038-16.049,53.605-41.216,65.963
			c-14.43,31.569-45.93,51.836-80.641,51.883c-4.199-0.009-8.391-0.323-12.544-0.939c29.669-4.518,55.071-23.666,67.584-50.944
			c25.167-12.358,41.143-37.925,41.216-65.963c0.027-5.954-0.69-11.888-2.133-17.664c20.468-30.97,16.71-71.995-9.045-98.731
			c0.17-2.133,0.255-4.181,0.255-6.315c0.059-31.509-20.047-59.521-49.919-69.547c-10.352-24.837-32.7-42.645-59.222-47.189
			c4.224-0.758,8.509-1.129,12.8-1.109c31.545,0.12,59.937,19.16,72.022,48.299c29.871,10.025,49.978,38.038,49.919,69.547
			c0,2.133-0.085,4.181-0.255,6.315C446.301,226.695,450.06,267.721,429.592,298.691z"/>
	</g>
	<g>
		<path d="M407.098,317.676c0.004-0.106,0.06-0.194,0.06-0.301c0.011-7.877-1.925-15.634-5.634-22.583
			c10.631-10.1,16.638-24.129,16.609-38.792c-0.011-2.087-0.142-4.173-0.395-6.245c-0.082-0.718-0.21-1.419-0.321-2.129
			c-0.205-1.304-0.445-2.594-0.742-3.866c-0.198-0.857-0.408-1.705-0.647-2.547c-0.303-1.057-0.654-2.088-1.019-3.117
			c-0.322-0.918-0.619-1.843-0.99-2.738c-0.236-0.568-0.53-1.103-0.785-1.66c-0.962-2.109-2.062-4.153-3.293-6.117
			c-0.377-0.602-0.745-1.207-1.143-1.792c-0.66-0.964-1.354-1.897-2.077-2.815c-0.524-0.667-1.073-1.31-1.626-1.951
			c-0.674-0.775-1.334-1.557-2.054-2.292c-1.314-1.359-2.7-2.646-4.151-3.857c-0.119-0.098-0.25-0.184-0.371-0.282
			c-1.63-1.319-3.337-2.539-5.113-3.654l-0.048-0.034c5.095-14.092,3.271-29.759-4.924-42.304
			c-8.195-12.545-21.808-20.511-36.76-21.508c-0.054-0.337-0.186-0.644-0.246-0.98c-0.44-2.489-1.058-4.944-1.848-7.345
			c-0.216-0.654-0.457-1.288-0.698-1.931c-0.873-2.384-1.916-4.702-3.121-6.937c-0.253-0.463-0.542-0.894-0.808-1.348
			c-1.268-2.189-2.691-4.284-4.256-6.271c-0.181-0.229-0.351-0.464-0.538-0.69c-1.692-2.037-3.534-3.944-5.51-5.706
			c-0.325-0.292-0.629-0.601-0.96-0.885c-2.006-1.707-4.137-3.262-6.375-4.651c-0.41-0.257-0.815-0.516-1.233-0.761
			c-2.286-1.345-4.672-2.512-7.136-3.493c-0.42-0.167-0.844-0.316-1.27-0.472c-2.583-0.961-5.239-1.713-7.943-2.247
			c-0.321-0.062-0.649-0.094-0.972-0.151c-2.93-0.53-5.9-0.805-8.878-0.824l-0.009,0.002l-0.016-0.002
			c-17.769,0.049-34.294,9.133-43.858,24.108c-9.565-14.976-26.089-24.059-43.858-24.108l-0.017,0.002l-0.008-0.002
			c-2.964,0.018-5.921,0.291-8.837,0.816c-0.324,0.056-0.654,0.089-0.977,0.152c-2.713,0.534-5.378,1.286-7.969,2.249
			c-0.392,0.144-0.781,0.281-1.167,0.434c-2.522,0.996-4.962,2.188-7.298,3.565c-0.315,0.186-0.619,0.381-0.929,0.573
			c-2.378,1.459-4.636,3.105-6.752,4.922c-0.113,0.096-0.215,0.202-0.325,0.299c-6.816,5.997-11.987,13.636-15.023,22.192
			c-0.057,0.158-0.117,0.314-0.171,0.473c-0.959,2.781-1.686,5.636-2.173,8.537c-0.028,0.163-0.094,0.311-0.121,0.475
			c-14.961,0.983-28.59,8.943-36.796,21.491c-8.206,12.548-10.035,28.225-4.937,42.325l-0.05,0.035
			c-1.774,1.114-3.48,2.334-5.108,3.652c-0.122,0.098-0.253,0.184-0.373,0.283c-1.451,1.211-2.837,2.498-4.151,3.857
			c-0.72,0.735-1.38,1.517-2.054,2.292c-0.553,0.64-1.101,1.283-1.625,1.95c-0.724,0.92-1.42,1.855-2.08,2.821
			c-0.398,0.58-0.761,1.182-1.135,1.778c-1.234,1.967-2.336,4.013-3.299,6.126c-0.255,0.558-0.549,1.092-0.785,1.66
			c-0.371,0.895-0.668,1.82-0.99,2.738c-0.365,1.028-0.717,2.059-1.019,3.116c-0.239,0.844-0.451,1.695-0.649,2.554
			c-0.296,1.267-0.534,2.552-0.74,3.852c-0.11,0.713-0.24,1.417-0.323,2.138c-0.252,2.072-0.383,4.157-0.394,6.244
			c-0.028,14.663,5.979,28.691,16.61,38.79c-3.711,6.949-5.646,14.708-5.635,22.585c0,0.106,0.056,0.194,0.06,0.3
			c0.132,21.519,14.646,40.29,35.44,45.833c6.857,24.566,27.841,42.581,53.163,45.637c25.322,3.057,49.99-9.446,62.496-31.675
			c12.506,22.229,37.174,34.732,62.496,31.675c25.322-3.057,46.306-21.071,53.163-45.637
			C392.452,357.965,406.966,339.195,407.098,317.676z M310.867,392.533c-25.836-0.291-46.562-21.438-46.333-47.275
			c0-4.713-3.821-8.533-8.533-8.533c-4.713,0-8.533,3.82-8.533,8.533c0.536,24.179-17.646,44.688-41.715,47.053
			c-24.069,2.365-45.896-14.212-50.077-38.032c-0.014-0.075-0.063-0.129-0.079-0.203l0.046-0.01
			c-0.183-1.179-0.355-2.265-0.458-2.872c0.83-8.371,3.908-16.363,8.908-23.128c2.809-3.774,2.033-9.11-1.734-11.928
			c-3.767-2.818-9.105-2.057-11.933,1.703c-5.871,7.963-9.79,17.193-11.444,26.946c-10.424-5.172-17.024-15.798-17.04-27.434
			c-0.018-4.223,0.854-8.403,2.558-12.267c0.081-0.221,0.19-0.346,0.275-0.553c0.529-1.167,1.132-2.299,1.803-3.391
			c0.263-0.479,0.589-0.937,0.903-1.401c5.49-8.026,14.57-12.845,24.294-12.894c4.713,0,8.533-3.821,8.533-8.533
			s-3.821-8.533-8.533-8.533c-11.249,0.01-22.11,4.114-30.555,11.545c-6.599-6.779-10.29-15.867-10.286-25.328
			c0.018-2.218,0.237-4.43,0.654-6.609c0.102-0.565,0.246-1.114,0.373-1.669c0.383-1.679,0.886-3.329,1.504-4.936
			c0.162-0.422,0.308-0.853,0.486-1.268c1.686-3.906,4.047-7.485,6.974-10.572c0.429-0.448,0.896-0.86,1.35-1.286
			c0.956-0.9,1.961-1.747,3.01-2.537c0.808-0.604,1.621-1.204,2.485-1.74c0.59-0.373,1.219-0.678,1.829-1.015
			c1.149-0.65,2.335-1.235,3.55-1.751c0.077-0.031,0.125-0.105,0.201-0.138c4.104-1.687,8.495-2.564,12.932-2.583
			c12.69,0.081,24.366,6.95,30.6,18.004c1.508,2.65,4.315,4.294,7.364,4.313c3.049,0.019,5.876-1.59,7.417-4.221
			s1.561-5.884,0.053-8.533c-9.274-16.381-26.609-26.542-45.433-26.629c-3.982,0.013-7.949,0.488-11.822,1.415
			c-2.974-8.806-1.747-18.489,3.33-26.274c5.077-7.785,13.443-12.813,22.7-13.642c0.247,1.504,0.469,3.012,0.842,4.489
			c0.955,3.788,4.36,6.443,8.267,6.446c0.708-0.001,1.413-0.087,2.1-0.258c4.567-1.156,7.334-5.793,6.183-10.362
			c-0.749-2.965-1.127-6.012-1.125-9.071c-0.014-13.474,7.479-25.834,19.431-32.055c4.912-2.619,10.386-4.009,15.952-4.05
			c19.712,0.238,35.512,16.384,35.325,36.096c0,4.713,3.821,8.533,8.533,8.533c4.713,0,8.533-3.821,8.533-8.533
			c-0.426-18.435,13.416-34.09,31.765-35.924c18.349-1.835,35.016,10.768,38.25,28.923c0.164,0.845,0.153,1.743,0.258,2.607
			c0.232,1.473,0.377,2.958,0.433,4.448c-0.001,3.043-0.378,6.075-1.123,9.026c-1.152,4.569,1.616,9.206,6.183,10.362
			c0.687,0.171,1.392,0.258,2.1,0.258c3.906-0.002,7.312-2.658,8.267-6.446c0.373-1.477,0.595-2.985,0.842-4.489
			c9.257,0.829,17.624,5.857,22.7,13.642c5.077,7.785,6.304,17.469,3.33,26.274c-3.873-0.927-7.84-1.402-11.822-1.415
			c-18.825,0.087-36.161,10.25-45.433,26.633c-2.331,4.096-0.9,9.306,3.196,11.637c4.096,2.331,9.306,0.9,11.637-3.196
			c6.23-11.058,17.908-17.931,30.6-18.009c4.437,0.019,8.828,0.896,12.932,2.583c0.076,0.033,0.124,0.107,0.201,0.138
			c1.215,0.516,2.4,1.101,3.55,1.751c0.61,0.337,1.24,0.642,1.829,1.015c0.865,0.535,1.677,1.136,2.485,1.74
			c1.049,0.79,2.054,1.637,3.01,2.537c0.454,0.426,0.921,0.837,1.35,1.286c2.927,3.087,5.288,6.666,6.974,10.572
			c0.178,0.415,0.324,0.846,0.486,1.268c0.618,1.608,1.121,3.257,1.504,4.936c0.127,0.556,0.271,1.105,0.373,1.669
			c0.417,2.179,0.636,4.391,0.654,6.609c0.004,9.461-3.687,18.549-10.286,25.328c-8.445-7.431-19.306-11.535-30.555-11.545
			c-4.713,0-8.533,3.821-8.533,8.533c0,4.713,3.821,8.533,8.533,8.533c9.665,0.051,18.696,4.817,24.192,12.767
			c0.349,0.509,0.717,1.004,1.008,1.532c0.67,1.09,1.271,2.221,1.8,3.386c0.085,0.207,0.194,0.331,0.275,0.553
			c0.058,0.167,0.125,0.333,0.2,0.496c1.592,3.718,2.396,7.726,2.358,11.771c-0.016,11.636-6.616,22.262-17.04,27.434
			c-1.653-9.754-5.573-18.984-11.444-26.946c-2.828-3.76-8.166-4.522-11.933-1.703c-3.767,2.818-4.543,8.154-1.734,11.928
			c4.95,6.646,8.029,14.497,8.915,22.736c-0.131,1.035-0.292,2.131-0.5,3.486C352.353,376.317,333.25,392.39,310.867,392.533z"/>
		<path d="M211.541,317.696c-1.572,1.591-2.46,3.734-2.475,5.971c-0.023,1.147,0.21,2.284,0.683,3.329
			c0.413,1.018,1.022,1.946,1.792,2.729c0.38,0.394,0.809,0.738,1.275,1.025c0.496,0.316,1.011,0.602,1.542,0.854
			c0.524,0.193,1.066,0.335,1.617,0.425c0.529,0.141,1.078,0.199,1.625,0.171c0.544,0.028,1.09-0.03,1.617-0.171
			c0.554-0.09,1.098-0.233,1.625-0.425c0.511-0.235,0.997-0.521,1.45-0.854c0.498-0.243,0.936-0.593,1.283-1.025
			c0.822-0.758,1.463-1.69,1.875-2.729c0.469-1.046,0.703-2.183,0.683-3.329c-0.011-2.254-0.934-4.408-2.558-5.971
			C220.203,314.493,214.913,314.494,211.541,317.696z"/>
		<path d="M211.541,269.313c-1.574,1.625-2.461,3.796-2.475,6.059c0.015,2.237,0.903,4.379,2.475,5.971
			c0.402,0.395,0.828,0.765,1.275,1.108c0.496,0.292,1.011,0.549,1.542,0.771c0.522,0.22,1.063,0.392,1.617,0.513
			c0.537,0.098,1.08,0.155,1.625,0.171c0.542-0.016,1.083-0.073,1.617-0.171c0.6-0.171,1.108-0.341,1.625-0.513
			c0.509-0.205,0.995-0.463,1.45-0.771c0.483-0.3,0.917-0.674,1.283-1.108c1.625-1.563,2.548-3.717,2.559-5.971
			c-0.01-2.28-0.931-4.461-2.558-6.059C220.186,266.154,214.931,266.154,211.541,269.313z"/>
		<path d="M211.541,211.283c-1.574,1.625-2.461,3.796-2.475,6.059c-0.032,1.119,0.203,2.23,0.683,3.242
			c0.414,1.019,1.023,1.947,1.792,2.733c0.404,0.393,0.83,0.763,1.275,1.108c0.517,0.254,1.025,0.512,1.542,0.767
			c0.521,0.222,1.063,0.394,1.617,0.513c0.536,0.1,1.08,0.157,1.625,0.171c0.543-0.014,1.083-0.071,1.617-0.171
			c0.557-0.119,1.101-0.29,1.625-0.513c0.508-0.254,1.025-0.513,1.45-0.767c0.482-0.302,0.914-0.676,1.283-1.108
			c0.821-0.76,1.462-1.694,1.875-2.733c0.477-1.013,0.711-2.123,0.683-3.242c-0.01-2.28-0.931-4.461-2.558-6.059
			C220.186,208.124,214.931,208.125,211.541,211.283z"/>
		<path d="M211.541,162.9c-3.3,3.365-3.3,8.752,0,12.117c0.404,0.367,0.83,0.709,1.275,1.025c0.478,0.323,0.996,0.581,1.542,0.767
			c0.506,0.261,1.053,0.434,1.617,0.513c0.536,0.1,1.08,0.157,1.625,0.171c0.543-0.014,1.083-0.071,1.617-0.171
			c0.567-0.078,1.116-0.251,1.625-0.513c0.524-0.17,1.015-0.429,1.45-0.767c0.478-0.273,0.911-0.619,1.283-1.025
			c1.636-1.591,2.558-3.776,2.558-6.058s-0.923-4.467-2.558-6.058C220.185,159.742,214.931,159.742,211.541,162.9z"/>
		<path d="M299.092,316.583c-0.425-0.254-0.942-0.508-1.45-0.767c-0.525-0.22-1.069-0.392-1.625-0.513
			c-2.496-0.471-5.072,0.19-7.033,1.805s-3.102,4.017-3.117,6.557c0.014,0.573,0.07,1.144,0.167,1.708
			c0.108,0.559,0.281,1.103,0.517,1.621c0.186,0.517,0.444,1.005,0.767,1.45c0.315,0.447,0.657,0.874,1.025,1.279
			c1.604,1.607,3.788,2.499,6.059,2.475c2.245,0.02,4.402-0.873,5.975-2.475c1.627-1.597,2.548-3.779,2.558-6.059
			c-0.011-2.254-0.934-4.408-2.558-5.971C300.008,317.261,299.575,316.886,299.092,316.583z"/>
		<path d="M288.341,269.313c-1.561,1.634-2.445,3.799-2.475,6.059c0.015,2.237,0.903,4.379,2.475,5.971
			c1.605,1.616,3.781,2.537,6.059,2.563c0.542-0.016,1.083-0.073,1.617-0.171c0.6-0.171,1.108-0.341,1.625-0.513
			c0.509-0.205,0.995-0.463,1.45-0.771c0.483-0.3,0.917-0.674,1.283-1.108c1.625-1.563,2.547-3.717,2.558-5.972
			c-0.01-2.28-0.931-4.461-2.558-6.059C296.986,266.154,291.731,266.154,288.341,269.313z"/>
		<path d="M288.341,211.283c-1.56,1.635-2.444,3.799-2.475,6.059c0.014,0.544,0.07,1.086,0.167,1.621
			c0.082,0.565,0.257,1.113,0.517,1.621c0.168,0.526,0.427,1.018,0.767,1.454c0.273,0.477,0.619,0.908,1.025,1.279
			c1.595,1.63,3.778,2.552,6.059,2.558c3.463,0.01,6.587-2.08,7.899-5.285c1.312-3.205,0.551-6.885-1.924-9.307
			C296.986,208.125,291.731,208.125,288.341,211.283z"/>
		<path d="M299.092,161.875c-0.435-0.338-0.926-0.597-1.45-0.767c-0.509-0.261-1.058-0.434-1.625-0.513
			c-2.782-0.559-5.66,0.305-7.675,2.304c-3.3,3.365-3.3,8.752,0,12.117c1.626,1.574,3.796,2.461,6.059,2.475
			c3.463,0.01,6.587-2.08,7.899-5.285c1.312-3.205,0.551-6.885-1.924-9.307C300.003,162.494,299.57,162.148,299.092,161.875z"/>
		<path d="M452.325,91.846c-0.173-0.264-0.442-0.408-0.638-0.647C403.133,33.384,331.498,0,255.999,0S108.865,33.386,60.311,91.202
			c-0.196,0.238-0.464,0.381-0.635,0.644c-0.033,0.052-0.033,0.113-0.066,0.164c-79.481,94.884-79.479,233.105,0.005,327.987
			c0.033,0.054,0.033,0.117,0.069,0.17c0.463,0.692,1.026,1.311,1.671,1.836C109.897,479.098,181.059,512,256,512
			s146.103-32.903,194.646-89.997c0.645-0.526,1.208-1.145,1.671-1.836c0.035-0.053,0.035-0.116,0.069-0.17
			c79.484-94.882,79.486-233.103,0.005-327.987C452.358,91.958,452.358,91.897,452.325,91.846z M443.154,404.273
			c-12.208-7.377-25.003-13.735-38.256-19.008c27.495-18.39,41.225-51.517,34.802-83.965c6.699-11.203,10.797-23.768,11.99-36.767
			h43.026C492.947,315.435,474.872,364.422,443.154,404.273z M181.444,441.672c22.474,4.735,45.901,1.25,66.023-9.822v62.369
			C223.546,490.633,200.371,472.136,181.444,441.672z M264.533,494.219V431.85c20.122,11.072,43.549,14.558,66.023,9.822
			C311.629,472.135,288.451,490.633,264.533,494.219z M310.867,426.667c-18.011,0.045-35.497-6.066-49.558-17.321
			c-0.779-0.427-1.559-0.853-2.338-1.28c-0.691-0.236-1.41-0.382-2.139-0.432c-0.532-0.224-1.131-0.224-1.662,0
			c-0.729,0.05-1.448,0.195-2.14,0.432c-0.779,0.426-1.559,0.853-2.338,1.28c-14.062,11.255-31.548,17.366-49.559,17.321
			c-31.355-0.135-59.79-18.43-72.908-46.908c-0.826-1.784-2.242-3.229-4.008-4.092c-27.439-13.466-41.81-44.212-34.542-73.9
			c0.574-2.317,0.151-4.768-1.167-6.758c-18.237-27.649-14.887-64.243,8.067-88.121c1.73-1.772,2.603-4.208,2.392-6.675
			c-0.15-1.842-0.233-3.7-0.233-5.567c-0.122-27.9,17.704-52.717,44.183-61.508c2.347-0.775,4.244-2.529,5.2-4.808
			c10.686-25.959,35.953-42.927,64.025-42.996c13.939-0.013,27.551,4.227,39.017,12.154c0.33,0.189,0.672,0.354,1.025,0.496
			c0.268,0.149,0.543,0.283,0.826,0.4c1.926,0.731,4.054,0.731,5.98,0c0.617-0.298,1.235-0.597,1.852-0.896
			c11.466-7.927,25.078-12.168,39.017-12.155c28.106,0.054,53.411,17.034,64.117,43.021c0.955,2.277,2.848,4.03,5.192,4.808
			c26.434,8.822,44.219,33.616,44.1,61.483c0,1.867-0.083,3.725-0.233,5.567c-0.211,2.467,0.662,4.903,2.392,6.675
			c22.954,23.878,26.304,60.472,8.067,88.121c-1.318,1.99-1.741,4.442-1.167,6.758c7.268,29.688-7.103,60.434-34.542,73.9
			c-1.767,0.862-3.182,2.307-4.008,4.092C370.657,408.237,342.222,426.532,310.867,426.667z M17.283,264.533h43.026
			c1.194,12.999,5.292,25.563,11.991,36.767c-6.423,32.449,7.307,65.575,34.802,83.965c-13.253,5.273-26.049,11.631-38.256,19.008
			C37.128,364.422,19.053,315.435,17.283,264.533z M68.879,107.684c14.307,8.628,29.389,15.898,45.05,21.716
			c-20.374,15.499-32.314,39.646-32.262,65.246c0,1.05,0.017,2.1,0.058,3.146c-12.316,13.826-19.876,31.236-21.571,49.675H17.283
			C19.053,196.546,37.141,147.543,68.879,107.684z M333.607,75.28c-22.079-9.592-47.197-9.334-69.074,0.71V17.76
			C290.075,21.468,314.222,41.651,333.607,75.28z M247.467,17.76v58.229c-21.881-10.052-47.009-10.302-69.085-0.689
			C197.769,41.66,221.921,21.468,247.467,17.76z M451.846,247.467c-1.695-18.439-9.255-35.849-21.571-49.675
			c0.042-1.046,0.058-2.096,0.058-3.146c0.048-25.599-11.893-49.744-32.267-65.244c15.663-5.818,30.746-13.089,45.054-21.717
			c31.738,39.858,49.826,88.862,51.596,139.782H451.846z M431.915,94.511c-16.991,9.871-35.029,17.818-53.78,23.694
			c-3.958-8.319-9.208-15.96-15.555-22.638c-10.481-26.972-26.818-51.28-47.833-71.172
			C359.787,35.883,400.503,60.248,431.915,94.511z M197.24,24.398c-21.051,19.93-37.41,44.289-47.895,71.316
			c-6.284,6.651-11.484,14.247-15.411,22.511l-0.004,0.002c-18.774-5.878-36.834-13.833-53.844-23.716
			C111.493,60.252,152.204,35.887,197.24,24.398z M80.034,417.434c12.543-7.322,25.702-13.535,39.326-18.568
			c9.343,14.497,22.343,26.274,37.69,34.144c9.823,20.542,23.421,39.053,40.087,54.568
			C152.117,476.071,111.425,451.696,80.034,417.434z M314.862,487.579c16.666-15.515,30.265-34.026,40.087-54.568
			c15.346-7.87,28.346-19.648,37.69-34.144c13.624,5.033,26.783,11.246,39.326,18.568
			C400.575,451.696,359.883,476.071,314.862,487.579z"/>
	</g>
</g>
<g>
</g>
<g>
</g>
<g>
</g>
<g>
</g>
<g>
</g>
<g>
</g>
<g>
</g>
<g>
</g>
<g>
</g>
<g>
</g>
<g>
</g>
<g>
</g>
<g>
</g>
<g>
</g>
<g>
</g>
</svg>
