<?xml version="1.0" encoding="iso-8859-1"?>
<!-- Generator: Adobe Illustrator 19.0.0, SVG Export Plug-In . SVG Version: 6.00 Build 0)  -->
<svg version="1.1" id="Capa_1" xmlns="http://www.w3.org/2000/svg" xmlns:xlink="http://www.w3.org/1999/xlink" x="0px" y="0px"
	 viewBox="0 0 512 512" style="enable-background:new 0 0 512 512;" xml:space="preserve">
<g>
	<g transform="translate(1 1)">
		<path style="fill:#2296F3;" d="M169.667,297.667v119.467h196.267v34.133H152.6c-9.425,0-17.066-7.641-17.067-17.067V297.667
			H169.667z"/>
		<g>
			<rect x="289.133" y="417.133" style="fill:#3F51B5;" width="76.8" height="34.133"/>
			<rect x="135.533" y="297.667" style="fill:#3F51B5;" width="34.133" height="59.733"/>
		</g>
		<path style="fill:#2296F3;" d="M417.133,92.867h-128V127h110.933v196.267H434.2V109.933
			C434.173,100.519,426.548,92.894,417.133,92.867z"/>
		<g>
			<rect x="280.6" y="92.867" style="fill:#3F51B5;" width="59.733" height="34.133"/>
			<rect x="400.067" y="237.933" style="fill:#3F51B5;" width="34.133" height="68.267"/>
		</g>
		<path style="fill:#37474F;" d="M502.467,323.267v170.667c-0.014,4.707-3.826,8.52-8.533,8.533H374.467
			c-4.707-0.014-8.52-3.826-8.533-8.533v-25.6l102.4-153.6h25.6C498.641,314.747,502.453,318.56,502.467,323.267z"/>
		<path style="fill:#607D8B;" d="M476.867,323.267v170.667c-0.014,4.707-3.826,8.52-8.533,8.533h-93.867
			c-4.707-0.014-8.52-3.826-8.533-8.533v-25.6l102.4-153.6C473.041,314.747,476.853,318.56,476.867,323.267z"/>
		<path style="fill:#00838F;" d="M297.667,24.6v204.8H7.533V24.6C7.561,15.186,15.186,7.561,24.6,7.533h256
			C290.014,7.561,297.639,15.186,297.667,24.6z"/>
		<path style="fill:#00BCD4;" d="M272.067,24.6v204.8H7.533V24.6C7.561,15.186,15.186,7.561,24.6,7.533H255
			C264.414,7.561,272.039,15.186,272.067,24.6z"/>
		<rect x="118.467" y="229.4" style="fill:#37474F;" width="68.267" height="68.267"/>
		<rect x="118.467" y="229.4" style="fill:#607D8B;" width="42.667" height="68.267"/>
		<path style="fill:#F44335;" d="M211.992,127.165c2.708,3.487,4.174,7.779,4.167,12.194c-0.007,9.85-7.173,18.234-16.902,19.774
			c-0.093,0.5-0.211,0.995-0.353,1.483c-0.056,0.288-0.135,0.572-0.235,0.848c-0.165,0.601-0.369,1.191-0.612,1.766
			c-0.167,0.46-0.363,0.908-0.589,1.342c-0.09,0.244-0.201,0.48-0.33,0.706c-0.157,0.349-0.338,0.688-0.541,1.012
			c-0.094,0.188-0.212,0.377-0.33,0.565c-0.391,0.649-0.815,1.278-1.271,1.883c-0.282,0.377-0.565,0.73-0.847,1.083
			c-1.163,1.379-2.483,2.62-3.931,3.696c-0.306,0.235-0.612,0.447-0.918,0.659c-0.945,0.638-1.937,1.204-2.966,1.695
			c-0.66,0.324-1.336,0.615-2.025,0.871c-0.447,0.165-0.894,0.306-1.342,0.447c-0.306,0.094-0.636,0.188-0.942,0.259
			c-0.759,0.204-1.529,0.361-2.307,0.471c-0.283,0.047-0.589,0.094-0.895,0.118c-0.89,0.115-1.786,0.17-2.683,0.165
			c-12.999-0.005-23.535-10.541-23.54-23.54c-0.005,12.999-10.541,23.535-23.54,23.54c-0.897,0.005-1.794-0.05-2.684-0.165
			c-0.306-0.024-0.612-0.071-0.895-0.118c-0.778-0.109-1.548-0.267-2.307-0.471c-0.306-0.071-0.636-0.165-0.942-0.259
			c-0.447-0.141-0.895-0.282-1.342-0.447c-0.689-0.256-1.365-0.547-2.025-0.871c-1.029-0.491-2.021-1.057-2.966-1.695
			c-0.306-0.212-0.612-0.424-0.918-0.659c-1.449-1.076-2.768-2.316-3.931-3.696c-0.282-0.353-0.565-0.706-0.847-1.083
			c-0.456-0.605-0.88-1.234-1.271-1.883c-0.118-0.188-0.235-0.377-0.33-0.565c-0.203-0.325-0.384-0.663-0.541-1.012
			c-0.129-0.226-0.239-0.462-0.33-0.706c-0.226-0.434-0.422-0.882-0.589-1.342c-0.243-0.574-0.447-1.164-0.612-1.766
			c-0.1-0.276-0.179-0.559-0.235-0.848c-0.143-0.488-0.261-0.983-0.353-1.483c-9.729-1.54-16.895-9.924-16.902-19.774
			c-0.008-4.415,1.459-8.707,4.167-12.194c-6.068-4.332-9.412-11.536-8.804-18.968c0.608-7.431,5.078-13.996,11.77-17.284
			c-1.599-2.812-2.435-5.993-2.425-9.228c-0.001-4.995,1.982-9.786,5.514-13.318c3.532-3.532,8.323-5.516,13.318-5.514h0.024
			c-0.024-0.4-0.024-0.777-0.024-1.177c0-11.051,8.958-20.009,20.009-20.009s20.009,8.958,20.009,20.009
			c0-11.051,8.958-20.009,20.009-20.009c11.051,0,20.009,8.958,20.009,20.009c0,0.4,0,0.777-0.024,1.177h0.024
			c4.995-0.001,9.786,1.982,13.318,5.514c3.532,3.532,5.516,8.323,5.514,13.318c0.011,3.235-0.825,6.416-2.425,9.228
			c6.692,3.288,11.163,9.853,11.771,17.284C221.404,115.628,218.061,122.832,211.992,127.165z"/>
		<path style="fill:#607D8B;" d="M297.667,212.333V229.4c-0.028,9.414-7.653,17.039-17.067,17.067h-256
			c-9.414-0.028-17.039-7.652-17.067-17.067v-17.067H297.667z"/>
		<path style="fill:#CFD8DC;" d="M272.067,212.333V229.4c-0.028,9.414-7.652,17.039-17.067,17.067H24.6
			c-9.414-0.028-17.039-7.652-17.067-17.067v-17.067H272.067z"/>
		<path style="fill:#607D8B;" d="M220.867,306.2l0,8.533H84.333l0-8.533c-0.009-6.792,2.685-13.309,7.488-18.112
			c4.803-4.803,11.32-7.497,18.112-7.488h85.333c6.792-0.009,13.309,2.685,18.112,7.488
			C218.181,292.891,220.876,299.408,220.867,306.2z"/>
		<path style="fill:#CFD8DC;" d="M195.267,306.2l0,8.533H84.333l0-8.533c-0.009-6.792,2.685-13.309,7.488-18.112
			c4.803-4.803,11.32-7.497,18.112-7.488h59.733c6.792-0.009,13.309,2.685,18.112,7.488
			C192.581,292.891,195.276,299.408,195.267,306.2z"/>
		<path style="fill:#607D8B;" d="M468.333,289.133V459.8c-0.014,4.707-3.826,8.52-8.533,8.533H340.333
			c-4.707-0.014-8.52-3.826-8.533-8.533v-128l51.2-51.2h76.8C464.507,280.614,468.32,284.426,468.333,289.133z"/>
		<path style="fill:#CFD8DC;" d="M442.733,289.133V459.8c-0.014,4.707-3.826,8.52-8.533,8.533h-93.867
			c-4.707-0.014-8.52-3.826-8.533-8.533v-128l51.2-51.2h51.2C438.907,280.614,442.72,284.426,442.733,289.133z"/>
		<path style="fill:#607D8B;" d="M383,280.6l-51.2,51.2h42.667c4.713,0,8.533-3.82,8.533-8.533V280.6z"/>
	</g>
	<g>
		<path d="M83.55,129.775c-2.858,7.144-2.71,15.139,0.409,22.173c3.119,7.034,8.945,12.511,16.158,15.19l0.033,0.079
			c0.262,0.701,0.56,1.388,0.892,2.058c0.092,0.2,0.2,0.421,0.3,0.629l-0.009,0.004c0.217,0.479,0.462,0.945,0.733,1.396
			c0.075,0.142,0.492,0.846,0.575,0.979c0.55,0.905,1.133,1.775,1.75,2.6l1.15,1.454c1.569,1.856,3.345,3.528,5.292,4.983
			l1.308,0.933c1.247,0.843,2.553,1.595,3.908,2.25c0.958,0.472,1.94,0.894,2.942,1.262l1.708,0.571
			c0.508,0.158,1.05,0.308,1.15,0.317c1.087,0.301,2.192,0.532,3.308,0.692c0.542,0.087,1.033,0.133,1.05,0.142
			c1.277,0.169,2.563,0.251,3.851,0.246c8.943,0.002,17.48-3.737,23.542-10.313c6.062,6.575,14.598,10.315,23.542,10.313
			c1.089,0.014,2.178-0.049,3.258-0.188c0.531-0.037,1.059-0.101,1.583-0.192c0.995-0.136,1.98-0.334,2.95-0.592
			c0.517-0.117,1.058-0.267,1.592-0.438l1.8-0.6c0.919-0.341,1.82-0.729,2.7-1.162c1.429-0.685,2.805-1.474,4.117-2.363l1.167-0.833
			c2.031-1.521,3.88-3.271,5.508-5.217l1.008-1.283c0.713-0.97,1.375-1.977,1.983-3.017c0.392-0.625,0.745-1.274,1.058-1.942
			l-0.009-0.004c0.1-0.2,0.192-0.408,0.283-0.604c0.301-0.592,0.571-1.2,0.808-1.821l0.133-0.341
			c7.213-2.679,13.039-8.156,16.158-15.189c3.119-7.034,3.266-15.029,0.409-22.173c10.158-12.374,8.692-30.57-3.317-41.158
			c3.107-14-5.121-28.025-18.859-32.142c-2.251-10.128-9.822-18.235-19.772-21.173s-20.711-0.244-28.102,7.036
			c-7.39-7.28-18.149-9.974-28.097-7.036c-9.949,2.937-17.519,11.044-19.769,21.17c-13.742,4.115-21.974,18.142-18.867,32.146
			C74.858,99.205,73.392,117.401,83.55,129.775z M100.95,99.567c2.11-1.042,3.696-2.909,4.384-5.159
			c0.688-2.25,0.416-4.685-0.75-6.728c-0.863-1.523-1.312-3.245-1.3-4.996c0.008-5.694,4.631-10.304,10.325-10.296
			c2.394-0.122,4.637-1.209,6.217-3.012c1.618-1.843,2.442-4.252,2.292-6.7c-0.011-4.107,2.173-7.907,5.728-9.964
			c3.555-2.057,7.938-2.057,11.493,0c3.555,2.057,5.74,5.857,5.728,9.964c0,4.713,3.821,8.533,8.533,8.533
			c4.713,0,8.533-3.821,8.533-8.533c0.007-6.335,5.14-11.468,11.475-11.476c3.143,0.042,6.135,1.354,8.295,3.637
			c2.16,2.283,3.304,5.343,3.172,8.484c-0.142,2.354,0.695,4.662,2.312,6.379c1.617,1.717,3.872,2.689,6.23,2.688
			c5.685,0.003,10.294,4.61,10.3,10.296c0.012,1.75-0.437,3.473-1.3,4.996c-1.167,2.044-1.438,4.478-0.75,6.728
			c0.688,2.25,2.274,4.117,4.384,5.159c4.002,1.961,6.677,5.883,7.041,10.325c0.364,4.442-1.637,8.747-5.266,11.333
			c-1.887,1.354-3.142,3.417-3.475,5.716c-0.333,2.299,0.284,4.634,1.709,6.468c1.548,1.985,2.382,4.433,2.367,6.95
			c0.027,5.661-4.096,10.487-9.692,11.346c-3.821,1.064-6.693,4.227-7.383,8.133c-0.042,0.125-0.35,1.012-0.383,1.142l-0.317,0.867
			c-0.158,0.258-0.3,0.525-0.433,0.796l7.45,4.192l-7.892-3.408c-0.241,0.402-0.502,0.792-0.783,1.167l-0.55,0.712
			c-0.913,1.056-1.955,1.993-3.1,2.792c-0.647,0.429-1.323,0.81-2.025,1.142c-0.4,0.2-0.817,0.367-1.108,0.479l-1.708,0.521
			c-0.672,0.158-1.354,0.272-2.042,0.341c-0.503,0.065-1.009,0.095-1.516,0.088c-8.285-0.01-14.999-6.724-15.008-15.008
			c0-4.713-3.821-8.533-8.533-8.533s-8.533,3.82-8.533,8.533c-0.01,8.285-6.724,14.999-15.008,15.008
			c-0.773-0.005-1.545-0.068-2.308-0.188c-0.662-0.1-1.316-0.243-1.958-0.429l-0.883-0.292c-0.46-0.17-0.91-0.363-1.35-0.579
			c-0.87-0.431-1.701-0.937-2.483-1.512c-0.865-0.635-1.656-1.364-2.358-2.175l-0.692-0.883c-0.323-0.428-0.621-0.875-0.892-1.338
			c-0.1-0.188-0.341-0.642-0.458-0.821c-0.108-0.275-0.4-0.946-0.542-1.208c-0.033-0.088-0.358-0.8-0.392-0.883
			c-0.058-0.367-0.3-1.358-0.4-1.717c-0.635-3.586-3.477-6.373-7.075-6.938c-5.595-0.859-9.718-5.685-9.692-11.346
			c-0.015-2.517,0.819-4.965,2.367-6.95c1.425-1.834,2.042-4.169,1.709-6.468c-0.333-2.299-1.588-4.362-3.475-5.716
			c-3.63-2.586-5.63-6.892-5.266-11.333C94.273,105.449,96.948,101.527,100.95,99.567L100.95,99.567z"/>
		<path d="M494.933,307.2h-17.067v-17.067c-0.011-9.421-7.645-17.056-17.067-17.067h-17.067V110.933
			c-0.015-14.132-11.468-25.585-25.6-25.6H307.2V25.6C307.185,11.468,295.732,0.015,281.6,0h-256C11.468,0.015,0.015,11.468,0,25.6
			v204.8c0.015,14.132,11.468,25.585,25.6,25.6h85.333v17.067C92.09,273.087,76.82,288.357,76.8,307.2v8.533
			c-0.001,2.263,0.898,4.434,2.499,6.035c1.6,1.6,3.771,2.499,6.035,2.499H128V435.2c0.015,14.132,11.468,25.585,25.6,25.6h170.667
			c0.011,9.421,7.645,17.056,17.067,17.067H358.4v17.067c0.011,9.421,7.645,17.056,17.067,17.067h119.467
			c9.421-0.011,17.056-7.645,17.067-17.067V324.267C511.989,314.845,504.355,307.211,494.933,307.2z M409.6,273.067v-25.6h17.067
			v25.6H409.6z M384,273.067c-0.184,0-0.338,0.093-0.52,0.105c-0.775,0.047-1.539,0.202-2.272,0.459
			c-0.267,0.08-0.531,0.174-0.789,0.281c-0.897,0.399-1.717,0.952-2.424,1.634l-0.037,0.029l-51.186,51.187l-0.033,0.043
			c-0.678,0.704-1.228,1.521-1.627,2.414c-0.108,0.261-0.203,0.527-0.283,0.797c-0.257,0.731-0.412,1.495-0.458,2.269
			c-0.012,0.18-0.104,0.333-0.104,0.517v76.8H179.2v-85.333h42.667c2.263,0.001,4.434-0.898,6.035-2.499
			c1.6-1.6,2.499-3.771,2.499-6.035V307.2c-0.02-18.843-15.29-34.113-34.133-34.133V256H281.6c14.132-0.015,25.585-11.468,25.6-25.6
			v-93.867h85.333v136.533H384z M375.467,302.2v22.067H353.4L375.467,302.2z M426.667,110.933V230.4H409.6v-93.867
			c-0.011-9.421-7.645-17.056-17.067-17.067h-42.667V102.4h68.267C422.844,102.405,426.662,106.222,426.667,110.933z M332.8,102.4
			v17.067h-25.6V102.4H332.8z M25.6,17.067h256c4.711,0.005,8.529,3.822,8.533,8.533v179.2H17.067V25.6
			C17.071,20.889,20.889,17.071,25.6,17.067z M17.067,230.4v-8.533h273.067v8.533c-0.005,4.711-3.822,8.529-8.533,8.533h-256
			C20.889,238.929,17.071,235.111,17.067,230.4z M128,256h51.2v17.067H128V256z M110.933,290.133h85.333
			c9.421,0.011,17.056,7.645,17.067,17.067H93.867C93.877,297.779,101.512,290.144,110.933,290.133z M162.133,324.267v25.6h-17.067
			v-25.6H162.133z M145.067,435.2v-68.267h17.067v51.2c-0.001,2.263,0.898,4.434,2.499,6.035c1.6,1.6,3.771,2.499,6.035,2.499H281.6
			v17.067h-128C148.889,443.729,145.071,439.911,145.067,435.2z M298.667,443.733v-17.067h25.6v17.067H298.667z M341.333,341.333
			h34.133c9.421-0.011,17.056-7.645,17.067-17.067v-34.133H460.8V460.8H341.333V341.333z M494.933,494.933H375.467v-17.067H460.8
			c9.421-0.011,17.056-7.645,17.067-17.067V324.267h17.067V494.933z"/>
		<path d="M366.933,375.467H435.2c4.713,0,8.533-3.82,8.533-8.533s-3.821-8.533-8.533-8.533h-68.267
			c-4.713,0-8.533,3.82-8.533,8.533S362.221,375.467,366.933,375.467z"/>
		<path d="M366.933,409.6H435.2c4.713,0,8.533-3.821,8.533-8.533s-3.821-8.533-8.533-8.533h-68.267c-4.713,0-8.533,3.82-8.533,8.533
			S362.221,409.6,366.933,409.6z"/>
		<path d="M435.2,443.733c4.713,0,8.533-3.821,8.533-8.533s-3.821-8.533-8.533-8.533h-68.267c-4.713,0-8.533,3.82-8.533,8.533
			s3.82,8.533,8.533,8.533H435.2z"/>
	</g>
</g>
<g>
</g>
<g>
</g>
<g>
</g>
<g>
</g>
<g>
</g>
<g>
</g>
<g>
</g>
<g>
</g>
<g>
</g>
<g>
</g>
<g>
</g>
<g>
</g>
<g>
</g>
<g>
</g>
<g>
</g>
</svg>
