<?xml version="1.0" encoding="iso-8859-1"?>
<!-- Generator: Adobe Illustrator 19.0.0, SVG Export Plug-In . SVG Version: 6.00 Build 0)  -->
<svg version="1.1" id="Capa_1" xmlns="http://www.w3.org/2000/svg" xmlns:xlink="http://www.w3.org/1999/xlink" x="0px" y="0px"
	 viewBox="0 0 504.279 504.279" style="enable-background:new 0 0 504.279 504.279;" xml:space="preserve">
<g>
	<g transform="translate(1 1)">
		<path style="fill:#D84315;" d="M460.975,166.869c8.905-0.003,17.446,3.534,23.743,9.831c6.297,6.297,9.833,14.838,9.831,23.743
			v100.721c0.002,8.905-3.534,17.446-9.831,23.743c-6.297,6.297-14.838,9.833-23.743,9.831v0.672
			c8.905-0.002,17.446,3.534,23.743,9.831c6.297,6.297,9.833,14.838,9.831,23.743v92.328c0.003,8.905-3.534,17.446-9.831,23.743
			c-6.297,6.297-14.838,9.833-23.743,9.831H41.303c-8.905,0.003-17.446-3.534-23.743-9.831c-6.297-6.297-9.833-14.838-9.831-23.743
			v-92.328c-0.002-8.905,3.534-17.446,9.831-23.743c6.297-6.297,14.838-9.833,23.743-9.831v-0.672
			c-8.905,0.002-17.446-3.534-23.743-9.831s-9.833-14.838-9.831-23.743V200.443c-0.003-8.905,3.534-17.446,9.831-23.743
			c6.297-6.297,14.838-9.833,23.743-9.831c-8.905,0.002-17.446-3.534-23.743-9.831S7.727,142.2,7.73,133.295V40.967
			c-0.003-8.905,3.534-17.446,9.831-23.743s14.838-9.833,23.743-9.831h419.672c8.905-0.003,17.446,3.534,23.743,9.831
			s9.833,14.838,9.831,23.743v92.328c0.002,8.905-3.534,17.446-9.831,23.743C478.421,163.335,469.88,166.871,460.975,166.869z"/>
		<path style="fill:#FF5722;" d="M435.795,166.869c8.905-0.003,17.446,3.534,23.743,9.831c6.297,6.297,9.833,14.838,9.831,23.743
			v100.721c0.002,8.905-3.534,17.446-9.831,23.743c-6.297,6.297-14.838,9.833-23.743,9.831v0.672
			c8.905-0.002,17.446,3.534,23.743,9.831c6.297,6.297,9.833,14.838,9.831,23.743v92.328c0.003,8.905-3.534,17.446-9.831,23.743
			c-6.297,6.297-14.838,9.833-23.743,9.831H41.303c-8.905,0.003-17.446-3.534-23.743-9.831c-6.297-6.297-9.833-14.838-9.831-23.743
			v-92.328c-0.002-8.905,3.534-17.446,9.831-23.743c6.297-6.297,14.838-9.833,23.743-9.831v-0.672
			c-8.905,0.002-17.446-3.534-23.743-9.831s-9.833-14.838-9.831-23.743V200.443c-0.003-8.905,3.534-17.446,9.831-23.743
			c6.297-6.297,14.838-9.833,23.743-9.831c-8.905,0.002-17.446-3.534-23.743-9.831S7.727,142.2,7.73,133.295V40.967
			c-0.003-8.905,3.534-17.446,9.831-23.743s14.838-9.833,23.743-9.831h394.492c8.905-0.003,17.446,3.534,23.743,9.831
			s9.833,14.838,9.831,23.743v92.328c0.002,8.905-3.534,17.446-9.831,23.743C453.241,163.335,444.7,166.871,435.795,166.869z"/>
		<g>
			<path style="fill:#F57C00;" d="M41.303,7.393h419.672c18.542,0,33.574,15.031,33.574,33.574v92.328
				c0,18.542-15.031,33.574-33.574,33.574H41.303c-18.542,0-33.574-15.031-33.574-33.574V40.967
				C7.73,22.425,22.761,7.393,41.303,7.393z"/>
			<path style="fill:#F57C00;" d="M41.303,335.409h419.672c18.542,0,33.574,15.031,33.574,33.574v92.328
				c0,18.542-15.031,33.574-33.574,33.574H41.303c-18.542,0-33.574-15.031-33.574-33.574v-92.328
				C7.73,350.441,22.761,335.409,41.303,335.409z"/>
		</g>
		<g>
			<path style="fill:#FF9801;" d="M41.303,7.393h394.492c18.542,0,33.574,15.031,33.574,33.574v92.328
				c0,18.542-15.031,33.574-33.574,33.574H41.303c-18.542,0-33.574-15.031-33.574-33.574V40.967
				C7.73,22.425,22.761,7.393,41.303,7.393z"/>
			<path style="fill:#FF9801;" d="M41.303,335.409h394.492c18.542,0,33.574,15.031,33.574,33.574v92.328
				c0,18.542-15.031,33.574-33.574,33.574H41.303c-18.542,0-33.574-15.031-33.574-33.574v-92.328
				C7.73,350.441,22.761,335.409,41.303,335.409z"/>
		</g>
		<g>
			<circle style="fill:#00BCD4;" cx="58.09" cy="82.934" r="16.787"/>
			<circle style="fill:#00BCD4;" cx="125.238" cy="82.934" r="16.787"/>
			<circle style="fill:#00BCD4;" cx="58.09" cy="250.803" r="16.787"/>
			<circle style="fill:#00BCD4;" cx="58.09" cy="418.672" r="16.787"/>
		</g>
		<circle style="fill:#FFEB3A;" cx="225.959" cy="49.361" r="16.787"/>
		<g>
			<path style="fill:#2296F3;" d="M318.287,250.803h8.393c13.907,0,25.18,11.274,25.18,25.18v109.115
				c0,4.636-3.758,8.393-8.393,8.393H142.025c-4.63-0.014-8.38-3.763-8.393-8.393V275.984c-0.009-6.681,2.641-13.091,7.365-17.815
				c4.724-4.724,11.134-7.374,17.815-7.365H318.287z"/>
			<rect x="217.566" y="217.229" style="fill:#2296F3;" width="50.361" height="33.574"/>
			<rect x="183.992" y="418.672" style="fill:#2296F3;" width="117.508" height="75.541"/>
		</g>
		<rect x="167.205" y="250.803" style="fill:#0377BC;" width="151.082" height="167.869"/>
		<rect x="167.205" y="250.803" style="fill:#02A9F4;" width="125.902" height="167.869"/>
		<path style="fill:#CFD8DC;" d="M284.713,284.377v41.967c-0.016,3.044-0.325,6.08-0.923,9.065
			c-6.295,25.936-41.044,49.689-41.044,49.689s-34.749-23.753-41.044-49.689c-0.598-2.985-0.907-6.021-0.923-9.065v-41.967
			c7.055,5.836,16.035,8.829,25.18,8.393c16.787,0,16.787-8.393,16.787-8.393s0,8.393,16.787,8.393
			C268.679,293.206,277.658,290.213,284.713,284.377z"/>
		<g>
			<path style="fill:#FFEB3A;" d="M167.205,124.902v67.148c-18.542,0-33.574-15.031-33.574-33.574S148.663,124.902,167.205,124.902z
				"/>
			<path style="fill:#FFEB3A;" d="M318.287,192.049v-67.148c18.542,0,33.574,15.031,33.574,33.574S336.829,192.049,318.287,192.049z
				"/>
		</g>
		<path style="fill:#0377BC;" d="M192.385,99.721h117.508c9.271,0,16.787,7.516,16.787,16.787v83.934
			c0,9.271-7.516,16.787-16.787,16.787H192.385c-9.271,0-16.787-7.516-16.787-16.787v-83.934
			C175.598,107.237,183.114,99.721,192.385,99.721z"/>
		<path style="fill:#02A9F4;" d="M183.992,99.721h92.328c9.271,0,16.787,7.516,16.787,16.787v83.934
			c0,9.271-7.516,16.787-16.787,16.787h-92.328c-9.271,0-16.787-7.516-16.787-16.787v-83.934
			C167.205,107.237,174.721,99.721,183.992,99.721z"/>
	</g>
	<g>
		<path d="M194.148,184.656c-0.001,2.226,0.884,4.361,2.458,5.936c1.574,1.574,3.709,2.458,5.936,2.458h82.41
			c4.636,0,8.393-3.758,8.393-8.393c0-4.636-3.758-8.393-8.393-8.393h-82.41c-2.226-0.001-4.361,0.884-5.936,2.458
			C195.031,180.294,194.147,182.429,194.148,184.656z"/>
		<path d="M251.992,283.803c-0.756-3.957-4.217-6.82-8.246-6.82c-4.029,0-7.49,2.862-8.246,6.82
			c-2.643,1.315-5.603,1.86-8.541,1.574c-6.916,0.368-13.738-1.735-19.246-5.934c-2.4-2.401-6.01-3.119-9.146-1.82
			c-3.136,1.299-5.181,4.359-5.181,7.754v41.967c0.016,3.585,0.378,7.161,1.082,10.676c0.013,0.067,0.06,0.114,0.074,0.18
			c0.014,0.064-0.008,0.125,0.008,0.189c6.975,28.721,42.934,53.594,44.459,54.635c2.856,1.956,6.62,1.956,9.475,0
			c1.525-1.041,37.484-25.914,44.459-54.635c0.014-0.059-0.006-0.115,0.007-0.174c0.015-0.07,0.061-0.124,0.076-0.195
			c0.704-3.516,1.066-7.091,1.082-10.676v-41.967c-0.025-3.339-2.032-6.345-5.107-7.648c-3.093-1.314-6.67-0.679-9.123,1.619
			c-5.517,4.264-12.382,6.404-19.344,6.029C257.595,285.663,254.635,285.118,251.992,283.803z M277.32,327.344
			c-0.021,2.44-0.272,4.873-0.751,7.266c-3.961,15.873-22.084,32.7-32.831,41.07c-10.738-8.346-28.837-25.14-32.814-41.07
			c-0.479-2.393-0.73-4.826-0.751-7.266v-27.82c5.415,1.787,11.085,2.678,16.787,2.639c5.825,0.269,11.617-1.009,16.787-3.705
			c5.17,2.696,10.962,3.974,16.787,3.705c5.702,0.039,11.372-0.852,16.787-2.639V327.344z"/>
		<path d="M201.779,159.475c2.226,0.001,4.362-0.884,5.936-2.458c1.574-1.574,2.458-3.709,2.458-5.936v-16.787
			c0-4.636-3.758-8.393-8.393-8.393c-4.636,0-8.393,3.758-8.393,8.393v16.787c-0.001,2.226,0.884,4.362,2.458,5.936
			C197.417,158.592,199.552,159.476,201.779,159.475z"/>
		<path d="M285.713,159.475c2.226,0.001,4.361-0.884,5.936-2.458c1.574-1.574,2.458-3.709,2.458-5.936v-16.787
			c0-4.636-3.758-8.393-8.393-8.393s-8.393,3.758-8.393,8.393v16.787c-0.001,2.226,0.884,4.362,2.458,5.936
			C281.352,158.592,283.487,159.476,285.713,159.475z"/>
		<path d="M461.975,0H42.303C19.137,0.027,0.363,18.801,0.336,41.967v92.328c0.036,13.261,6.362,25.719,17.047,33.574
			c-10.685,7.855-17.01,20.312-17.047,33.574v100.721c0.03,13.451,6.524,26.068,17.454,33.91
			c-10.93,7.841-17.424,20.458-17.454,33.91v92.328c0.027,23.167,18.801,41.94,41.967,41.967h419.672
			c23.167-0.027,41.94-18.801,41.967-41.967v-92.328c-0.03-13.451-6.524-26.068-17.454-33.909
			c10.93-7.841,17.424-20.458,17.454-33.91V201.443c-0.036-13.261-6.362-25.719-17.047-33.574
			c10.685-7.855,17.01-20.312,17.047-33.574V41.967C503.915,18.801,485.142,0.027,461.975,0z M17.123,201.443
			c0.015-13.9,11.28-25.165,25.18-25.18h87.492c5.471,12.496,16.659,21.565,30.016,24.332v0.848
			c0.015,13.9,11.28,25.165,25.18,25.18h25.18v16.787h-50.361c-18.534,0.02-33.554,15.04-33.574,33.574v50.361H42.303
			c-13.9-0.015-25.165-11.28-25.18-25.18V201.443z M302.5,109.115c4.634,0.005,8.389,3.76,8.393,8.393v83.934
			c-0.005,4.634-3.76,8.389-8.393,8.393H184.992c-4.634-0.005-8.389-3.76-8.393-8.393v-83.934c0.005-4.634,3.76-8.389,8.393-8.393
			H302.5z M327.68,183.217v-47.484c10.061,3.558,16.787,13.07,16.787,23.742S337.741,179.659,327.68,183.217z M344.467,276.984
			v109.115H327.68V260.197C336.947,260.207,344.457,267.717,344.467,276.984z M310.893,411.279H176.598V260.197h134.295V411.279z
			 M143.025,336.41v-59.426c0.011-9.267,7.52-16.776,16.787-16.787v125.902h-16.787V336.41z M193.385,428.066h41.967v58.754h-41.967
			V428.066z M294.107,486.82h-41.967v-58.754h41.967V486.82z M260.533,243.41h-33.574v-16.787h33.574V243.41z M159.811,183.217
			c-10.061-3.558-16.787-13.07-16.787-23.742s6.726-20.184,16.787-23.742V183.217z M17.123,462.311v-92.328
			c0.015-13.9,11.28-25.165,25.18-25.18h83.934v41.295c0.011,9.267,7.52,16.776,16.787,16.787h16.787v16.787
			c-0.001,2.226,0.884,4.361,2.458,5.936c1.574,1.574,3.709,2.458,5.936,2.458h8.393v59.426H42.303
			C28.403,487.477,17.138,476.212,17.123,462.311z M487.156,462.311c-0.015,13.9-11.28,25.165-25.18,25.18H310.893v-59.426h8.393
			c2.226,0.001,4.361-0.884,5.936-2.458c1.574-1.574,2.458-3.709,2.458-5.936v-16.787h16.787c9.267-0.011,16.776-7.52,16.787-16.787
			v-41.295h100.721c13.9,0.015,25.165,11.28,25.18,25.18V462.311z M487.156,201.443v100.721c-0.015,13.9-11.28,25.165-25.18,25.18
			H361.254v-50.361c-0.02-18.534-15.04-33.554-33.574-33.574H277.32v-16.787h25.18c13.9-0.015,25.165-11.28,25.18-25.18v-0.848
			c13.357-2.767,24.545-11.836,30.016-24.332h104.279C475.876,176.277,487.141,187.542,487.156,201.443z M487.156,134.295
			c-0.015,13.9-11.28,25.165-25.18,25.18H361.254c-0.027-19.933-14.049-37.106-33.574-41.119v-0.848
			c-0.015-13.9-11.28-25.165-25.18-25.18h-38.492l10.853-10.853c1.828-1.829,2.71-4.398,2.393-6.964
			c-0.317-2.566-1.799-4.843-4.016-6.172L251.63,55.401c2.675-12.22-3.863-24.585-15.469-29.253
			c-11.605-4.668-24.885-0.273-31.415,10.396s-4.403,24.494,5.034,32.706c9.436,8.212,23.423,8.41,33.087,0.468l12.518,7.495
			L240.27,92.328h-55.279c-13.9,0.015-25.165,11.28-25.18,25.18v0.848c-19.524,4.013-33.546,21.186-33.574,41.119H42.303
			c-13.9-0.015-25.165-11.28-25.18-25.18V41.967c0.015-13.9,11.28-25.165,25.18-25.18h419.672c13.9,0.015,25.165,11.28,25.18,25.18
			V134.295z M226.959,58.754c-4.636,0-8.393-3.758-8.393-8.393s3.758-8.393,8.393-8.393c4.636,0,8.393,3.758,8.393,8.393
			C235.348,54.994,231.593,58.749,226.959,58.754z"/>
		<path d="M461.975,50.361c-2.226-0.001-4.361,0.884-5.936,2.458c-1.574,1.574-2.458,3.709-2.458,5.936v50.361
			c0,4.636,3.758,8.393,8.393,8.393c4.636,0,8.393-3.758,8.393-8.393V58.754c0.001-2.226-0.884-4.362-2.458-5.936
			C466.337,51.244,464.202,50.36,461.975,50.361z"/>
		<path d="M428.402,50.361c-2.226-0.001-4.361,0.884-5.936,2.458c-1.574,1.574-2.458,3.709-2.458,5.936v50.361
			c0,4.636,3.758,8.393,8.393,8.393s8.393-3.758,8.393-8.393V58.754c0.001-2.226-0.884-4.362-2.458-5.936
			C432.763,51.244,430.628,50.36,428.402,50.361z"/>
		<path d="M394.828,50.361c-2.226-0.001-4.361,0.884-5.936,2.458c-1.574,1.574-2.458,3.709-2.458,5.936v50.361
			c0,4.636,3.758,8.393,8.393,8.393s8.393-3.758,8.393-8.393V58.754c0.001-2.226-0.884-4.362-2.458-5.936
			C399.189,51.244,397.054,50.36,394.828,50.361z"/>
		<path d="M59.09,58.754c-13.907,0-25.18,11.274-25.18,25.18s11.274,25.18,25.18,25.18s25.18-11.274,25.18-25.18
			C84.255,70.034,72.991,58.769,59.09,58.754z M59.09,92.328c-4.636,0-8.393-3.758-8.393-8.393s3.758-8.393,8.393-8.393
			s8.393,3.758,8.393,8.393C67.479,88.568,63.724,92.323,59.09,92.328z"/>
		<path d="M126.238,58.754c-13.907,0-25.18,11.274-25.18,25.18s11.274,25.18,25.18,25.18s25.18-11.274,25.18-25.18
			C151.403,70.034,140.138,58.769,126.238,58.754z M126.238,92.328c-4.636,0-8.393-3.758-8.393-8.393s3.758-8.393,8.393-8.393
			c4.636,0,8.393,3.758,8.393,8.393C134.627,88.568,130.871,92.323,126.238,92.328z"/>
		<path d="M461.975,285.377c2.226,0.001,4.362-0.884,5.936-2.458c1.574-1.574,2.458-3.709,2.458-5.936v-50.361
			c0-4.636-3.758-8.393-8.393-8.393c-4.636,0-8.393,3.758-8.393,8.393v50.361c-0.001,2.226,0.884,4.362,2.458,5.936
			C457.614,284.493,459.749,285.378,461.975,285.377z"/>
		<path d="M428.402,285.377c2.226,0.001,4.361-0.884,5.936-2.458c1.574-1.574,2.458-3.709,2.458-5.936v-50.361
			c0-4.636-3.758-8.393-8.393-8.393s-8.393,3.758-8.393,8.393v50.361c-0.001,2.226,0.884,4.362,2.458,5.936
			C424.04,284.493,426.175,285.378,428.402,285.377z"/>
		<path d="M394.828,285.377c2.226,0.001,4.361-0.884,5.936-2.458c1.574-1.574,2.458-3.709,2.458-5.936v-50.361
			c0-4.636-3.758-8.393-8.393-8.393s-8.393,3.758-8.393,8.393v50.361c-0.001,2.226,0.884,4.362,2.458,5.936
			C390.466,284.493,392.602,285.378,394.828,285.377z"/>
		<path d="M59.09,276.984c13.907,0,25.18-11.274,25.18-25.18s-11.274-25.18-25.18-25.18s-25.18,11.274-25.18,25.18
			C33.925,265.704,45.19,276.968,59.09,276.984z M59.09,243.41c4.636,0,8.393,3.758,8.393,8.393s-3.758,8.393-8.393,8.393
			s-8.393-3.758-8.393-8.393C50.701,247.17,54.457,243.414,59.09,243.41z"/>
		<path d="M461.975,386.098c-2.226-0.001-4.361,0.884-5.936,2.458c-1.574,1.574-2.458,3.709-2.458,5.936v50.361
			c0,4.636,3.758,8.393,8.393,8.393c4.636,0,8.393-3.758,8.393-8.393v-50.361c0.001-2.226-0.884-4.362-2.458-5.936
			C466.337,386.982,464.202,386.098,461.975,386.098z"/>
		<path d="M428.402,386.098c-2.226-0.001-4.361,0.884-5.936,2.458c-1.574,1.574-2.458,3.709-2.458,5.936v50.361
			c0,4.636,3.758,8.393,8.393,8.393s8.393-3.758,8.393-8.393v-50.361c0.001-2.226-0.884-4.362-2.458-5.936
			C432.763,386.982,430.628,386.098,428.402,386.098z"/>
		<path d="M394.828,386.098c-2.226-0.001-4.361,0.884-5.936,2.458c-1.574,1.574-2.458,3.709-2.458,5.936v50.361
			c0,4.636,3.758,8.393,8.393,8.393s8.393-3.758,8.393-8.393v-50.361c0.001-2.226-0.884-4.362-2.458-5.936
			C399.189,386.982,397.054,386.098,394.828,386.098z"/>
		<path d="M59.09,394.492c-13.907,0-25.18,11.274-25.18,25.18c0,13.907,11.274,25.18,25.18,25.18s25.18-11.274,25.18-25.18
			C84.255,405.772,72.991,394.507,59.09,394.492z M59.09,428.066c-4.636,0-8.393-3.758-8.393-8.393c0-4.636,3.758-8.393,8.393-8.393
			s8.393,3.758,8.393,8.393C67.479,424.306,63.724,428.061,59.09,428.066z"/>
	</g>
</g>
<g>
</g>
<g>
</g>
<g>
</g>
<g>
</g>
<g>
</g>
<g>
</g>
<g>
</g>
<g>
</g>
<g>
</g>
<g>
</g>
<g>
</g>
<g>
</g>
<g>
</g>
<g>
</g>
<g>
</g>
</svg>
