<?xml version="1.0" encoding="iso-8859-1"?>
<!-- Generator: Adobe Illustrator 19.0.0, SVG Export Plug-In . SVG Version: 6.00 Build 0)  -->
<svg version="1.1" id="Capa_1" xmlns="http://www.w3.org/2000/svg" xmlns:xlink="http://www.w3.org/1999/xlink" x="0px" y="0px"
	 viewBox="0 0 512 512" style="enable-background:new 0 0 512 512;" xml:space="preserve">
<g>
	<g transform="translate(1 1)">
		<path style="fill:#607D8B;" d="M144.067,7.533h221.867c18.851,0,34.133,15.282,34.133,34.133v426.667
			c0,18.851-15.282,34.133-34.133,34.133H144.067c-18.851,0-34.133-15.282-34.133-34.133V41.667
			C109.933,22.815,125.215,7.533,144.067,7.533z"/>
		<path style="fill:#CFD8DC;" d="M144.067,7.533h196.267c18.851,0,34.133,15.282,34.133,34.133v426.667
			c0,18.851-15.282,34.133-34.133,34.133H144.067c-18.851,0-34.133-15.282-34.133-34.133V41.667
			C109.933,22.815,125.215,7.533,144.067,7.533z"/>
		<path style="fill:#3F51B5;" d="M295.652,41.667h-81.304c-6.464,0-12.374-3.652-15.265-9.434l-12.35-24.699h136.533l-12.35,24.699
			C308.026,38.014,302.117,41.667,295.652,41.667z"/>
		<g>
			<circle style="fill:#FFEB3A;" cx="169.667" cy="109.933" r="25.6"/>
			<circle style="fill:#FFEB3A;" cx="169.667" cy="391.533" r="25.6"/>
		</g>
		<path style="fill:#E91E63;" d="M272.067,84.333H357.4c4.713,0,8.533,3.821,8.533,8.533V127c0,4.713-3.82,8.533-8.533,8.533
			h-85.333c-4.713,0-8.533-3.82-8.533-8.533V92.867C263.533,88.154,267.354,84.333,272.067,84.333z"/>
		<path style="fill:#00BCD4;" d="M152.6,169.667h85.333c4.713,0,8.533,3.821,8.533,8.533v34.133c0,4.713-3.82,8.533-8.533,8.533
			H152.6c-4.713,0-8.533-3.821-8.533-8.533V178.2C144.067,173.487,147.887,169.667,152.6,169.667z"/>
		<polygon style="fill:#E91E63;" points="229.4,331.8 144.067,331.8 161.133,280.6 246.467,280.6 		"/>
		<polygon style="fill:#00BCD4;" points="314.733,417.133 365.933,391.533 314.733,365.933 263.533,391.533 		"/>
	</g>
	<g>
		<path d="M145.067,512h221.867c23.553-0.028,42.639-19.114,42.667-42.667V42.667C409.572,19.114,390.486,0.028,366.933,0H145.067
			c-23.553,0.028-42.639,19.114-42.667,42.667v426.667C102.428,492.886,121.514,511.972,145.067,512z M310.458,17.067l-6.175,12.35
			c-1.439,2.897-4.399,4.726-7.633,4.717h-81.3c-3.235,0.009-6.194-1.82-7.633-4.717l-6.175-12.35H310.458z M119.467,42.667
			c0.015-14.132,11.468-25.585,25.6-25.6h37.392l9.992,19.983c4.313,8.695,13.194,14.183,22.9,14.15h81.3
			c9.706,0.033,18.587-5.455,22.9-14.15l9.992-19.983h37.392c14.132,0.015,25.585,11.468,25.6,25.6v426.667
			c-0.015,14.132-11.468,25.585-25.6,25.6H145.067c-14.132-0.015-25.585-11.468-25.6-25.6V42.667z"/>
		<path d="M307.2,460.8H204.8c-4.713,0-8.533,3.821-8.533,8.533c0,4.713,3.821,8.533,8.533,8.533h102.4
			c4.713,0,8.533-3.821,8.533-8.533C315.733,464.621,311.913,460.8,307.2,460.8z"/>
		<path d="M307.2,361.658L262.517,384h-58.928c-4.297-16.643-20.299-27.494-37.35-25.328c-17.051,2.166-29.832,16.673-29.832,33.861
			s12.781,31.695,29.832,33.861c17.051,2.166,33.053-8.685,37.35-25.328h58.929l49.4,24.7c2.403,1.2,5.23,1.2,7.633,0l51.2-25.6
			c2.891-1.446,4.717-4.401,4.717-7.633s-1.826-6.187-4.717-7.633l-46.484-23.242V307.2c0.001-2.263-0.898-4.434-2.499-6.035
			c-1.6-1.6-3.771-2.499-6.035-2.499h-64.964l4.789-14.367c0.87-2.602,0.435-5.463-1.168-7.689c-1.603-2.226-4.18-3.545-6.923-3.544
			H204.8V230.4h34.133c9.421-0.011,17.056-7.645,17.067-17.067V204.8h59.733c2.263,0.001,4.434-0.898,6.035-2.499
			c1.6-1.6,2.499-3.771,2.499-6.035v-51.2H358.4c9.421-0.011,17.056-7.645,17.067-17.067V93.867
			c-0.011-9.421-7.645-17.056-17.067-17.067h-85.333c-9.421,0.011-17.056,7.645-17.067,17.067v8.533h-52.412
			c-4.297-16.643-20.299-27.494-37.35-25.328c-17.051,2.166-29.832,16.673-29.832,33.861s12.781,31.695,29.832,33.861
			s33.053-8.685,37.35-25.328H256V128c0.011,9.421,7.645,17.056,17.067,17.067H307.2v42.667H256V179.2
			c-0.011-9.421-7.645-17.056-17.067-17.067H153.6c-9.421,0.011-17.056,7.645-17.067,17.067v34.133
			c0.011,9.421,7.645,17.056,17.067,17.067h34.133v42.667h-25.6c-3.672-0.002-6.933,2.349-8.092,5.833l-17.067,51.2
			c-0.87,2.602-0.435,5.463,1.168,7.69c1.604,2.226,4.18,3.545,6.924,3.544H230.4c3.672,0.001,6.932-2.349,8.092-5.833l6.589-19.767
			H307.2V361.658z M170.667,128c-9.426,0-17.067-7.641-17.067-17.067s7.641-17.067,17.067-17.067s17.067,7.641,17.067,17.067
			C187.723,120.355,180.088,127.989,170.667,128z M273.067,93.867H358.4L358.409,128h-85.342V93.867z M153.6,179.2h85.333
			l0.004,17.046l-0.004,0.021l0.004,0.021l0.004,17.046H153.6V179.2z M224.25,324.267h-67.342l11.375-34.133h67.342L224.25,324.267z
			 M170.667,409.6c-9.426,0-17.067-7.641-17.067-17.067s7.641-17.067,17.067-17.067s17.067,7.641,17.067,17.067
			C187.723,401.955,180.088,409.589,170.667,409.6z M315.733,408.592l-32.117-16.058l32.117-16.058l32.117,16.058L315.733,408.592z"
			/>
	</g>
</g>
<g>
</g>
<g>
</g>
<g>
</g>
<g>
</g>
<g>
</g>
<g>
</g>
<g>
</g>
<g>
</g>
<g>
</g>
<g>
</g>
<g>
</g>
<g>
</g>
<g>
</g>
<g>
</g>
<g>
</g>
</svg>
