<?xml version="1.0" encoding="iso-8859-1"?>
<!-- Generator: Adobe Illustrator 19.0.0, SVG Export Plug-In . SVG Version: 6.00 Build 0)  -->
<svg version="1.1" id="Capa_1" xmlns="http://www.w3.org/2000/svg" xmlns:xlink="http://www.w3.org/1999/xlink" x="0px" y="0px"
	 viewBox="0 0 512 512" style="enable-background:new 0 0 512 512;" xml:space="preserve">
<g>
	<g transform="translate(1 1)">
		<path style="fill:#00838F;" d="M502.467,33.133v366.933H7.533l0-366.933c-0.009-6.792,2.685-13.309,7.488-18.112
			s11.32-7.497,18.112-7.488h443.733c6.792-0.009,13.309,2.685,18.112,7.488S502.476,26.341,502.467,33.133z"/>
		<path style="fill:#00BCD4;" d="M476.867,33.133v366.933H7.533l0-366.933c-0.009-6.792,2.685-13.309,7.488-18.112
			s11.32-7.497,18.112-7.488h418.133c6.792-0.009,13.309,2.685,18.112,7.488S476.876,26.341,476.867,33.133z"/>
		<rect x="212.333" y="417.133" style="fill:#37474F;" width="85.333" height="68.267"/>
		<g>
			<rect x="212.333" y="417.133" style="fill:#607D8B;" width="59.733" height="68.267"/>
			<path style="fill:#607D8B;" d="M502.467,383v25.6c0.009,6.792-2.685,13.309-7.488,18.112c-4.803,4.803-11.32,7.497-18.112,7.488
				H33.133c-6.792,0.009-13.309-2.685-18.112-7.488c-4.803-4.803-7.497-11.32-7.488-18.112l0-25.6H502.467z"/>
		</g>
		<path style="fill:#CFD8DC;" d="M476.867,383v25.6c0.009,6.792-2.685,13.309-7.488,18.112c-4.803,4.803-11.32,7.497-18.112,7.488
			H33.133c-6.792,0.009-13.309-2.685-18.112-7.488c-4.803-4.803-7.497-11.32-7.488-18.112l0-25.6H476.867z"/>
		<path style="fill:#607D8B;" d="M348.867,502.467H161.133c-0.012-9.056,3.58-17.746,9.984-24.15
			c6.404-6.404,15.093-9.996,24.15-9.984h119.467c9.054-0.003,17.737,3.593,24.139,9.995
			C345.274,484.73,348.869,493.413,348.867,502.467z"/>
		<g>
			<path style="fill:#CFD8DC;" d="M323.267,502.467H161.133c-0.012-9.056,3.58-17.746,9.984-24.15
				c6.404-6.404,15.093-9.996,24.15-9.984h93.867c2.882-0.026,5.754,0.347,8.533,1.109
				C312.743,473.309,323.28,486.903,323.267,502.467z"/>
			<polygon style="fill:#CFD8DC;" points="246.467,297.65 185.965,356.615 161.901,332.551 212.333,280.583 			"/>
			<path style="fill:#CFD8DC;" d="M185.965,368.728l-16.299,16.299l-36.181-36.181l16.299-16.299c3.354-3.327,8.763-3.327,12.117,0
				l24.064,24.064C189.293,359.964,189.293,365.374,185.965,368.728z"/>
		</g>
		<path style="fill:#3F51B5;" d="M169.667,385.027L54.808,499.971c-3.354,3.328-8.764,3.328-12.117,0l-24.149-24.149
			c-3.327-3.354-3.327-8.763,0-12.117l114.944-114.859L169.667,385.027z"/>
		<circle style="fill:#009688;" cx="272.067" cy="229.383" r="119.467"/>
		<path style="fill:#00695C;" d="M388.973,204.824l-70.741,70.741c-6.052,6.132-15.739,6.756-22.528,1.451l-65.877-51.2
			l-61.014,51.627c-1.426,1.241-3.077,2.197-4.864,2.816c-5.197-10.975-8.651-22.692-10.24-34.731l64.683-54.784
			c6.168-5.202,15.135-5.38,21.504-0.427l64.853,50.517l66.731-66.645c1.378-1.39,2.997-2.518,4.779-3.328
			C382.225,181.458,386.514,192.915,388.973,204.824z"/>
		<path style="fill:#009688;" d="M161.134,101.4c0.04,15.85-6.259,31.059-17.494,42.24L101.4,101.4H161.134z"/>
		<path style="fill:#FFEB3A;" d="M143.64,143.64c-19.117,19.117-48.692,23.011-72.106,9.493s-34.83-41.077-27.832-67.192
			S74.364,41.667,101.4,41.667V101.4L143.64,143.64z"/>
		<path style="fill:#E91E63;" d="M161.133,101.4H101.4V41.667c15.846-0.012,31.046,6.278,42.251,17.483
			C154.855,70.354,161.145,85.554,161.133,101.4z"/>
	</g>
	<g>
		<path d="M477.867,0H34.133C15.291,0.022,0.022,15.291,0,34.133V409.6c0.047,16.842,12.387,31.126,29.044,33.619l-15.51,15.51
			c-6.654,6.67-6.654,17.468,0,24.138L37.667,507c6.669,6.656,17.468,6.656,24.138,0l63.267-63.267H204.8V460.8h-8.533
			c-23.553,0.028-42.639,19.114-42.667,42.667c0,4.713,3.821,8.533,8.533,8.533h187.733c4.713,0,8.533-3.82,8.533-8.533
			c-0.028-23.553-19.114-42.639-42.667-42.667H307.2v-17.067h170.667c18.842-0.022,34.112-15.291,34.133-34.133V34.133
			C511.978,15.291,496.709,0.022,477.867,0z M34.133,17.067h443.733c9.422,0.009,17.057,7.645,17.067,17.067v341.333H193.282
			c4.097-4.305,5.649-10.438,4.091-16.173l15.737-15.74c43.892,23.239,97.264,18.999,136.937-10.878s58.49-80.001,48.279-128.605
			c-1.063-4.928-2.41-9.79-4.033-14.562L435.2,148.6v22.067c0,4.713,3.821,8.533,8.533,8.533c4.713,0,8.533-3.821,8.533-8.533V128
			c-0.018-1.022-0.222-2.032-0.602-2.98c-0.113-0.277-0.241-0.547-0.384-0.809c-0.322-0.642-0.725-1.239-1.198-1.779
			c-0.184-0.227-0.38-0.444-0.587-0.65c-0.669-0.632-1.438-1.15-2.274-1.533c-0.071-0.032-0.124-0.088-0.196-0.118L447,120.117
			c-0.939-0.369-1.936-0.567-2.945-0.585c-0.113-0.005-0.208-0.065-0.322-0.065h-42.667c-4.713,0-8.533,3.821-8.533,8.533
			c0,4.713,3.82,8.533,8.533,8.533h22.067l-35.956,35.956c-0.817-1.603-1.589-3.236-2.473-4.793l-0.009-0.015l-0.016-0.031
			l-0.01-0.011c-30.117-53.555-94.037-78.159-152.289-58.618s-94.405,77.713-86.134,138.596c0.408,3.173,0.945,6.334,1.609,9.484
			c0.371,1.759,0.875,3.5,1.325,5.248l-29.939,25.33l-71.337-55.484c-2.407-1.871-5.63-2.316-8.454-1.167
			c-2.824,1.149-4.821,3.717-5.238,6.737c-0.417,3.02,0.809,6.033,3.216,7.905l76.8,59.733c3.186,2.475,7.669,2.383,10.75-0.221
			l30.064-25.434c0.717,1.712,1.383,3.436,2.178,5.13c4.378,9.281,9.87,17.995,16.355,25.948l-12.331,12.329
			c-5.875-1.61-12.163,0.047-16.482,4.343l-47.967,47.967H17.067V34.133C17.076,24.712,24.712,17.076,34.133,17.067z
			 M351.513,308.846c-24.586,24.661-59.337,36.325-93.823,31.491c-34.486-4.834-64.691-25.603-81.549-56.073l54.913-46.463
			l60.421,46.963c10.192,7.922,24.693,6.994,33.792-2.163l58.434-58.434C385.579,255.697,373.861,286.523,351.513,308.846z
			 M167.933,265.626c-0.591-1.756-1.17-3.515-1.667-5.284c-0.336-1.197-0.619-2.402-0.911-3.605
			c-0.416-1.708-0.807-3.418-1.134-5.134c-0.108-0.566-0.19-1.135-0.289-1.702l60.973-51.646c3.094-2.574,7.56-2.659,10.75-0.204
			l64.85,50.517c3.397,2.641,8.228,2.342,11.275-0.696l62.641-62.562c0.347,0.784,0.668,1.584,0.997,2.379
			c0.686,1.655,1.36,3.319,1.969,5.021c0.421,1.179,0.802,2.381,1.185,3.581c0.536,1.678,1.046,3.369,1.507,5.085
			c0.162,0.603,0.302,1.217,0.455,1.826l-67.375,67.375c-3.023,3.037-7.838,3.34-11.217,0.704l-65.879-51.2
			c-3.186-2.476-7.671-2.383-10.75,0.225l-56.531,47.834C168.478,267.304,168.215,266.464,167.933,265.626z M305.05,230.471
			l-58.933-45.904c-9.573-7.365-22.979-7.09-32.242,0.662l-51.605,43.709c0.168-48.988,32.589-92.011,79.634-105.673
			s97.468,5.302,123.849,46.58L305.05,230.471z M185.212,323.324c4.132,3.907,8.518,7.537,13.128,10.866l-11.374,11.376
			l-11.999-11.999L185.212,323.324z M156.833,339.567l24.133,24.137l-10.3,10.3l-24.135-24.135L156.833,339.567z M34.133,426.667
			c-9.422-0.009-17.057-7.645-17.067-17.067v-17.067h62.662l-34.133,34.133H34.133z M49.733,494.933L25.6,470.8l80.73-80.73
			l0.091-0.091l28.044-28.044L158.6,386.07l-43.056,43.055l-0.102,0.102L49.733,494.933z M339.871,494.933H172.129
			c3.627-10.221,13.292-17.054,24.137-17.067h119.467C326.579,477.879,336.243,484.713,339.871,494.933z M290.133,460.8h-68.267
			v-17.067h68.267V460.8z M477.867,426.667H142.138l34.133-34.133h318.662V409.6C494.924,419.022,487.288,426.657,477.867,426.667z"
			/>
		<path d="M102.4,170.667c18.021,0.009,35.31-7.133,48.072-19.857c0.062-0.058,0.143-0.075,0.203-0.135
			c0.06-0.06,0.077-0.142,0.135-0.203c22.896-23.099,26.304-59.148,8.141-86.127S106.106,26.957,76.09,39.479
			s-47.02,44.491-40.625,76.38C41.86,147.747,69.876,170.687,102.4,170.667z M144.086,132.02L123,110.933h29.829
			C151.55,118.534,148.561,125.744,144.086,132.02z M152.829,93.867h-41.896V51.971C132.375,55.63,149.17,72.425,152.829,93.867z
			 M93.867,51.971V102.4c0.007,2.263,0.906,4.432,2.503,6.036l35.651,35.65c-17.155,12.213-40.041,12.665-57.665,1.139
			c-17.624-11.526-26.383-32.675-22.071-53.286S73.1,55.464,93.867,51.971z"/>
		<path d="M401.067,315.733c-4.713,0-8.533,3.821-8.533,8.533v25.6c0,4.713,3.82,8.533,8.533,8.533s8.533-3.821,8.533-8.533v-25.6
			C409.6,319.554,405.78,315.733,401.067,315.733z"/>
		<path d="M435.2,281.6c-4.713,0-8.533,3.821-8.533,8.533v59.733c0,4.713,3.82,8.533,8.533,8.533s8.533-3.821,8.533-8.533v-59.733
			C443.733,285.421,439.913,281.6,435.2,281.6z"/>
		<path d="M469.333,358.4c4.713,0,8.533-3.821,8.533-8.533V307.2c0-4.713-3.821-8.533-8.533-8.533c-4.713,0-8.533,3.82-8.533,8.533
			v42.667C460.8,354.579,464.621,358.4,469.333,358.4z"/>
	</g>
</g>
<g>
</g>
<g>
</g>
<g>
</g>
<g>
</g>
<g>
</g>
<g>
</g>
<g>
</g>
<g>
</g>
<g>
</g>
<g>
</g>
<g>
</g>
<g>
</g>
<g>
</g>
<g>
</g>
<g>
</g>
</svg>
