<?xml version="1.0" encoding="iso-8859-1"?>
<!-- Generator: Adobe Illustrator 19.0.0, SVG Export Plug-In . SVG Version: 6.00 Build 0)  -->
<svg version="1.1" id="Capa_1" xmlns="http://www.w3.org/2000/svg" xmlns:xlink="http://www.w3.org/1999/xlink" x="0px" y="0px"
	 viewBox="0 0 512.003 512.003" style="enable-background:new 0 0 512.003 512.003;" xml:space="preserve">
<g>
	<g transform="translate(1 1)">
		<g>
			<path style="fill:#2296F3;" d="M391.535,339.312c0.256-0.085,0.597-0.085,0.853-0.171c29.869-5.105,54.398-26.441,63.592-55.316
				c9.194-28.874,1.517-60.465-19.901-81.9c-21.504-21.504-49.152-24.32-78.251-23.296c-16.715,0.584-33.314,3.016-49.493,7.253
				c-15.616,4.096-30.379,12.715-46.165,15.616c-28.26,4.361-56.378-8.655-71.339-33.024c3.205-0.991,6.23-2.489,8.96-4.437
				c5.03-3.648,8.79-8.781,10.752-14.677c6.826-20.442,10.312-41.851,10.325-63.403v-1.621c-0.016-9.051-3.604-17.729-9.984-24.149
				l-0.427-0.427c-6.568-27.104-28.953-47.494-56.55-51.511s-54.866,9.144-68.89,33.25c-3.035,5.35-8.698,8.669-14.848,8.704H16.068
				c-4.707,0.014-8.519,3.826-8.533,8.533v34.133c0.041,14.121,11.479,25.559,25.6,25.6h53.76c2.467,0.013,4.805,1.105,6.4,2.987
				c8.261,9.26,18.922,16.053,30.805,19.627c-2.614,12.585-11.033,23.189-22.699,28.587c0,0-51.2,17.067-51.2,85.333v4.267
				c-0.024,39.552,28.503,73.345,67.499,79.957h0.085c0.256,0,0.427,0.085,0.683,0.085v9.557c-0.003,6.74,1.986,13.331,5.717,18.944
				c-3.439,2.447-6.391,5.514-8.704,9.045l-25.6,38.656c-3.628,5.557-5.556,12.052-5.547,18.688h-8.533
				c-28.268,0.022-51.178,22.932-51.2,51.2v17.067h102.4c9.414-0.028,17.039-7.652,17.067-17.067v-28.672
				c1.089-1.205,2.087-2.488,2.987-3.84l25.6-38.656c7.478-11.458,7.377-26.277-0.256-37.632
				c9.008-6.36,14.357-16.706,14.336-27.733v-9.216c9.748-5.585,17.958-13.501,23.893-23.04c27.954-13.881,60.793-13.881,88.747,0
				h0.085c5.881,9.553,14.067,17.476,23.808,23.04v9.216c-0.021,11.027,5.328,21.374,14.336,27.733
				c-7.633,11.355-7.734,26.174-0.256,37.632l13.227,19.968h-1.707c-28.268,0.022-51.178,22.932-51.2,51.2v17.067h102.4
				c9.414-0.028,17.039-7.652,17.067-17.067v-28.672c10.202-11.482,11.427-28.383,2.987-41.216l-25.6-38.656
				c-2.313-3.531-5.264-6.599-8.704-9.045c3.731-5.613,5.721-12.204,5.717-18.944V339.312z"/>
			<path style="fill:#2296F3;" d="M210.457,59.76c-9.863-9.501-24.448-12.192-37.052-6.838
				c-12.605,5.354-20.793,17.719-20.804,31.414v55.552c0,1.199,0.086,2.397,0.256,3.584c-0.1,0.068-0.221,0.098-0.341,0.085
				c-9.541,1.181-19.223,0.338-28.416-2.475c-11.883-3.574-22.545-10.367-30.805-19.627c-1.595-1.882-3.933-2.973-6.4-2.987h-53.76
				c-14.121-0.041-25.559-11.479-25.6-25.6V58.736c0.014-4.707,3.826-8.519,8.533-8.533h54.101
				c6.15-0.035,11.813-3.354,14.848-8.704c14.023-24.106,41.292-37.268,68.89-33.25S203.889,32.656,210.457,59.76z"/>
		</g>
		<path style="fill:#1566C0;" d="M220.868,280.603c0.059,24.387-12.972,46.93-34.133,59.051v-59.051
			c0-18.851-15.282-34.133-34.133-34.133s-34.133,15.282-34.133,34.133v58.709c-0.256,0-0.427-0.085-0.683-0.085H117.7
			c-28.082-16.707-40.381-50.975-29.331-81.726s42.348-49.353,74.641-44.364s56.518,32.169,57.773,64.821
			C220.868,278.811,220.868,279.749,220.868,280.603z"/>
		<path style="fill:#607D8B;" d="M391.535,280.603v68.267c0.013,9.057-3.579,17.746-9.983,24.15
			c-6.404,6.404-15.093,9.996-24.15,9.983c-4.387,0.02-8.736-0.82-12.8-2.475c-2.491-1.003-4.843-2.322-6.997-3.925
			c-9.008-6.36-14.357-16.706-14.336-27.733v-68.267c-0.024-13.9,8.429-26.409,21.333-31.573c4.046-1.722,8.403-2.594,12.8-2.56
			c9.053-0.003,17.737,3.593,24.139,9.995C387.942,262.866,391.537,271.549,391.535,280.603z"/>
		<path style="fill:#CFD8DC;" d="M365.935,280.603v68.267c0.003,6.74-1.986,13.331-5.717,18.944
			c-3.783,5.736-9.233,10.173-15.616,12.715c-2.491-1.003-4.843-2.322-6.997-3.925c-9.008-6.36-14.357-16.706-14.336-27.733v-68.267
			c-0.024-13.9,8.429-26.409,21.333-31.573C357.506,254.193,365.959,266.703,365.935,280.603z"/>
		<path style="fill:#607D8B;" d="M186.735,280.603v68.267c0.013,9.057-3.579,17.746-9.983,24.15
			c-6.404,6.404-15.093,9.996-24.15,9.983c-4.387,0.02-8.736-0.82-12.8-2.475c-2.491-1.003-4.843-2.322-6.997-3.925
			c-9.008-6.36-14.357-16.706-14.336-27.733v-68.267c-0.024-13.9,8.429-26.409,21.333-31.573c4.046-1.722,8.403-2.594,12.8-2.56
			c9.053-0.003,17.737,3.593,24.139,9.995C183.142,262.866,186.737,271.549,186.735,280.603z"/>
		<path style="fill:#CFD8DC;" d="M161.135,280.603v68.267c0.003,6.74-1.986,13.331-5.717,18.944
			c-3.783,5.736-9.233,10.173-15.616,12.715c-2.491-1.003-4.843-2.322-6.997-3.925c-9.008-6.36-14.357-16.706-14.336-27.733v-68.267
			c-0.024-13.9,8.429-26.409,21.333-31.573C152.706,254.193,161.159,266.703,161.135,280.603z"/>
		<path style="fill:#37474F;" d="M172.655,414.235l-25.6,38.656c-0.9,1.352-1.898,2.635-2.987,3.84
			c-7.601,8.728-19.125,12.984-30.575,11.292s-21.25-9.1-26.001-19.655c-2.101-4.425-3.18-9.267-3.157-14.165
			c-0.009-6.636,1.918-13.131,5.547-18.688l25.6-38.656c2.313-3.531,5.265-6.599,8.704-9.045
			c8.046,12.005,22.759,17.672,36.779,14.165c4.111-1.07,7.988-2.893,11.435-5.376C180.032,387.958,180.133,402.777,172.655,414.235
			z"/>
		<g>
			<path style="fill:#607D8B;" d="M160.964,381.979c-0.534,5.424-2.379,10.637-5.376,15.189l-25.6,38.656
				c-0.9,1.352-1.898,2.635-2.987,3.84c-9.841,11.243-25.855,14.771-39.509,8.704c-2.101-4.425-3.18-9.267-3.157-14.165
				c-0.009-6.636,1.918-13.131,5.547-18.688l25.6-38.656c2.313-3.531,5.265-6.599,8.704-9.045
				C132.231,379.819,146.944,385.486,160.964,381.979z"/>
			<path style="fill:#607D8B;" d="M417.135,456.731c-1.995,2.347-4.324,4.388-6.912,6.059c-15.794,10.291-36.936,5.864-47.275-9.899
				l-12.373-18.688l-13.227-19.968c-7.478-11.458-7.377-26.277,0.256-37.632c7.52,5.349,16.882,7.433,25.961,5.778
				s17.104-6.908,22.252-14.567c3.439,2.447,6.391,5.514,8.704,9.045l25.6,38.656C428.562,428.348,427.337,445.249,417.135,456.731z
				"/>
			<path style="fill:#607D8B;" d="M144.068,456.731v28.672c-0.028,9.414-7.653,17.039-17.067,17.067h-25.6
				c9.414-0.028,17.039-7.652,17.067-17.067v-17.067C128.28,468.362,137.621,464.128,144.068,456.731z"/>
		</g>
		<g>
			<path style="fill:#CFD8DC;" d="M118.468,468.336v17.067c-0.028,9.414-7.653,17.039-17.067,17.067h-76.8l0-17.067
				c-0.015-21.761,13.752-41.145,34.304-48.299c5.426-1.922,11.14-2.903,16.896-2.901h8.533
				C84.392,453.03,99.641,468.278,118.468,468.336z"/>
			<path style="fill:#CFD8DC;" d="M417.135,456.731v28.672c-0.028,9.414-7.653,17.039-17.067,17.067h-102.4v-17.067
				c0.022-28.268,22.932-51.178,51.2-51.2h1.707l12.373,18.688c4.956,7.582,12.721,12.885,21.587,14.741
				c8.866,1.856,18.106,0.115,25.688-4.842C412.811,461.119,415.139,459.077,417.135,456.731z"/>
		</g>
		<path style="fill:#607D8B;" d="M417.135,456.731v28.672c-0.028,9.414-7.653,17.039-17.067,17.067h-19.371
			c6.519-2.576,10.811-8.863,10.837-15.872v-18.261c6.636,0.009,13.131-1.918,18.688-5.547
			C412.811,461.119,415.139,459.077,417.135,456.731z"/>
		<path style="fill:#37474F;" d="M417.135,456.731c-1.995,2.347-4.324,4.388-6.912,6.059c-5.557,3.628-12.052,5.556-18.688,5.547
			v-10.411c10.202-11.482,11.427-28.383,2.987-41.216l-24.064-36.352c6.285-2.508,11.646-6.887,15.36-12.544
			c3.439,2.447,6.391,5.514,8.704,9.045l25.6,38.656C428.562,428.348,427.337,445.249,417.135,456.731z"/>
		<path style="fill:#CFD8DC;" d="M299.375,316.613c-27.954-13.881-60.793-13.881-88.747,0c6.718-10.808,10.266-23.285,10.24-36.011
			c0-0.853,0-1.792-0.085-2.645c22.137-7.851,46.3-7.851,68.437,0c-0.085,0.853-0.085,1.792-0.085,2.645
			C289.109,293.328,292.657,305.805,299.375,316.613z"/>
		<path style="fill:#1566C0;" d="M425.668,280.603c0.032,24.023-12.621,46.279-33.28,58.539c-0.256,0.085-0.597,0.085-0.853,0.171
			v-58.709c0-18.851-15.282-34.133-34.133-34.133c-18.851,0-34.133,15.282-34.133,34.133v59.051
			c-9.741-5.564-17.927-13.487-23.808-23.04h-0.085c-6.718-10.808-10.266-23.285-10.24-36.011c0-0.853,0-1.792,0.085-2.645
			c1.44-37.151,32.35-66.314,69.521-65.594C395.913,213.084,425.669,243.424,425.668,280.603z"/>
		<path style="fill:#607D8B;" d="M220.868,84.336v1.621c-0.013,21.552-3.499,42.96-10.325,63.403
			c-1.962,5.896-5.722,11.029-10.752,14.677c-2.73,1.948-5.755,3.447-8.96,4.437c-2.746,0.791-5.59,1.193-8.448,1.195
			c-4.405,0.022-8.755-0.971-12.715-2.901c-9.27-4.317-15.635-13.137-16.811-23.296c-0.17-1.187-0.256-2.385-0.256-3.584V84.336
			c-0.013-13.922,8.478-26.439,21.419-31.573c4.016-1.722,8.345-2.594,12.715-2.56c8.846,0,17.348,3.425,23.723,9.557l0.427,0.427
			C217.264,66.607,220.852,75.285,220.868,84.336z"/>
		<path style="fill:#CFD8DC;" d="M195.268,84.336v1.621c-0.013,21.552-3.499,42.96-10.325,63.403
			c-1.962,5.896-5.722,11.029-10.752,14.677c-1.437,1.022-2.949,1.934-4.523,2.731c-9.27-4.317-15.635-13.137-16.811-23.296
			c-0.17-1.187-0.256-2.385-0.256-3.584V84.336c-0.013-13.922,8.478-26.439,21.419-31.573c4.039,1.594,7.722,3.973,10.837,6.997
			l0.427,0.427C191.664,66.607,195.252,75.285,195.268,84.336z"/>
		<path style="fill:#1566C0;" d="M459.801,260.464c0.009,39.5-28.473,73.246-67.413,79.872c-0.256,0.085-0.597,0.085-0.853,0.171
			v-8.704c22.569-12.136,38.07-34.23,41.802-59.582c3.732-25.352-4.744-50.976-22.858-69.101
			c-15.285-14.636-35.585-22.878-56.747-23.04c1.365-0.171,2.731-0.171,4.096-0.256c29.099-1.024,56.747,1.792,78.251,23.296
			C451.297,218.32,459.833,238.955,459.801,260.464z"/>
	</g>
	<path d="M469.335,102.403c-23.553,0.028-42.639,19.114-42.667,42.667c0,4.713,3.82,8.533,8.533,8.533s8.533-3.821,8.533-8.533
		c0-14.139,11.462-25.6,25.6-25.6c14.138,0,25.6,11.462,25.6,25.6v68.267c-0.032,15.979-11.137,29.801-26.734,33.274
		c-2.817-18.834-11.612-36.264-25.087-49.72c-24.525-24.521-56.508-26.754-84.579-25.796c-17.331,0.623-34.542,3.14-51.325,7.508
		c-7.351,2.074-14.563,4.614-21.592,7.604c-7.734,3.418-15.783,6.07-24.033,7.921c-21.428,3.497-43.093-4.718-56.814-21.545
		c6.992-4.695,12.234-11.572,14.909-19.558c7.107-21.306,10.727-43.62,10.721-66.08v-1.608c-0.031-10.604-4.038-20.811-11.23-28.603
		C211.08,26.832,185.815,4.72,155.105,0.664s-60.85,10.736-76.428,37.51c-1.501,2.729-4.349,4.445-7.463,4.496H17.068
		C7.646,42.679,0.011,50.314,0.001,59.736v34.133c0.022,18.842,15.291,34.112,34.133,34.133l53.842,0.137
		c7.232,8.119,16.116,14.598,26.056,19.003c-2.762,6.702-7.851,12.182-14.331,15.43c-2.329,0.775-57.033,19.859-57.033,93.43
		c0.048,0.727,0.193,1.444,0.431,2.133c-0.237,0.689-0.382,1.406-0.431,2.133c-0.073,23.78,9.368,46.602,26.221,63.379
		c11.623,11.533,26.153,19.704,42.046,23.645v2.576c0.004,5.835,1.215,11.607,3.555,16.953c-1.912,1.934-3.629,4.052-5.125,6.322
		l-25.625,38.7c-2.929,4.514-4.97,9.546-6.014,14.825h-0.924c-32.974,0.037-59.696,26.759-59.733,59.733v17.067
		c0,4.713,3.821,8.533,8.533,8.533h102.4c14.132-0.015,25.585-11.468,25.6-25.6v-25.85c0.499-0.674,1.104-1.243,1.567-1.95
		l25.638-38.708c7.838-12.012,9.081-27.17,3.304-40.298c7.787-7.936,12.152-18.609,12.158-29.727v-4.669
		c8.208-5.479,15.271-12.502,20.797-20.678c24.627-11.712,53.219-11.716,77.849-0.01c5.527,8.181,12.593,15.207,20.804,20.688v4.669
		c0.006,11.115,4.37,21.786,12.153,29.721c-5.782,13.152-4.526,28.335,3.339,40.358l5.455,8.236
		c-27.191,6.181-46.501,30.333-46.546,58.218v17.067c0,4.713,3.821,8.533,8.533,8.533h102.4c14.132-0.015,25.585-11.468,25.6-25.6
		v-25.827c10.685-14.326,11.309-33.793,1.562-48.773l-25.571-38.608c-1.504-2.285-3.229-4.417-5.151-6.365
		c2.343-5.348,3.554-11.122,3.559-16.96v-2.599c38.892-9.35,66.764-43.504,68.126-83.482c24.678-4.107,42.781-25.436,42.824-50.453
		v-68.267C511.974,121.517,492.887,102.43,469.335,102.403z M213.335,86.944c0.007,20.625-3.318,41.115-9.846,60.679
		c-3.291,9.874-13.257,15.905-23.531,14.238c-10.274-1.667-17.823-10.539-17.823-20.947V85.336c0-14.138,11.462-25.6,25.6-25.6
		s25.6,11.462,25.6,25.6V86.944z M87.922,110.936H34.135c-9.422-0.009-17.057-7.645-17.067-17.067V59.736h54.146
		c9.174-0.084,17.62-5.015,22.204-12.962c10.33-17.768,29.071-28.976,49.612-29.67s39.996,9.223,51.502,26.253
		c-2.244-0.412-4.517-0.642-6.798-0.688c-23.553,0.028-42.639,19.114-42.667,42.667v51.17c-16.941,0.103-33.107-7.09-44.371-19.745
		C97.46,113.093,92.815,110.975,87.922,110.936z M179.201,349.869c0,14.138-11.462,25.6-25.6,25.6c-14.139,0-25.6-11.462-25.6-25.6
		v-68.267c0-14.138,11.462-25.6,25.6-25.6c14.138,0,25.6,11.462,25.6,25.6V349.869z M128.001,494.936H34.135v-8.533
		c0.028-23.553,19.114-42.639,42.667-42.667h0.881c4.027,19.844,21.45,34.121,41.698,34.171c5.905,0.003,11.747-1.22,17.154-3.593
		v12.089C136.529,491.113,132.712,494.93,128.001,494.936z M166.543,410.524l-25.629,38.696
		c-7.735,11.838-23.598,15.17-35.442,7.444c-11.844-7.725-15.189-23.586-7.474-35.436l25.629-38.708
		c0.329-0.503,0.763-0.935,1.129-1.414c12.031,11.325,29.58,14.554,44.854,8.254C171.746,396.522,170.624,404.262,166.543,410.524z
		 M153.601,238.936c-23.553,0.028-42.639,19.114-42.667,42.667v41.721c-22.977-23.451-22.721-61.05,0.573-84.186
		s60.894-23.136,84.188,0.001c23.294,23.136,23.549,60.735,0.572,84.186v-41.722C196.24,258.05,177.154,238.964,153.601,238.936z
		 M256.001,298.669c-9.652,0.006-19.26,1.298-28.571,3.844c1.564-5.626,2.478-11.412,2.726-17.246
		c16.894-4.766,34.777-4.768,51.672-0.006c0.247,5.836,1.162,11.624,2.726,17.251C275.25,299.969,265.648,298.676,256.001,298.669z
		 M298.651,281.603c-0.038-26.971,18.001-50.621,44.022-57.715c26.021-7.094,53.568,4.129,67.223,27.388
		c13.655,23.258,10.03,52.782-8.845,72.047v-41.719c0-23.564-19.103-42.667-42.667-42.667c-23.564,0-42.667,19.103-42.667,42.667
		v41.721C304.798,312.18,298.672,297.205,298.651,281.603L298.651,281.603z M332.784,349.869v-68.267
		c0-14.138,11.461-25.6,25.6-25.6c14.138,0,25.6,11.462,25.6,25.6v68.267c0,14.138-11.462,25.6-25.6,25.6
		C344.246,375.469,332.784,364.008,332.784,349.869z M401.051,494.936h-93.867v-8.533c0.065-22.454,17.548-41.002,39.959-42.393
		l9.636,14.551c6.174,9.496,15.888,16.13,26.979,18.425c2.906,0.611,5.868,0.919,8.837,0.921c5.853-0.017,11.638-1.253,16.988-3.629
		v12.125C409.578,491.113,405.762,494.93,401.051,494.936L401.051,494.936z M413.955,421.186c5.022,7.667,5.566,17.433,1.426,25.611
		s-12.333,13.52-21.485,14.012c-9.152,0.491-17.87-3.944-22.862-11.631l-25.563-38.6c-4.103-6.274-5.238-14.035-3.103-21.221
		c15.272,6.302,32.819,3.077,44.853-8.244c0.377,0.493,0.819,0.934,1.159,1.456L413.955,421.186z M427.272,315.139
		c13.131-26.897,9.414-58.974-9.518-82.156c-18.933-23.182-49.622-33.231-78.599-25.738c-28.977,7.493-50.948,31.16-56.269,60.614
		c-17.668-4.32-36.117-4.319-53.784,0.004c-5.207-29.482-27.086-53.244-56.039-60.862c-28.953-7.618-59.693,2.298-78.737,25.399
		s-22.913,55.168-9.911,82.136c-1.14-1.001-2.387-1.882-3.459-2.954c-13.641-13.585-21.282-32.061-21.221-51.312
		c-0.048-0.727-0.193-1.444-0.431-2.133c0.237-0.689,0.382-1.406,0.431-2.133c0-60.908,43.55-76.612,45.354-77.233
		c11.685-5.083,20.823-14.668,25.342-26.582c4.774,0.927,9.624,1.402,14.487,1.42c0.805,0,1.626-0.121,2.435-0.146
		c5.63,17.262,22.868,27.967,40.838,25.358c17.261,24.448,46.957,36.907,76.494,32.092c9.366-2.041,18.506-5.01,27.283-8.862
		c6.364-2.717,12.892-5.031,19.546-6.929c15.574-4.057,31.546-6.393,47.629-6.967c25.591-0.921,52.058,0.962,71.904,20.804
		c14.223,14.26,21.891,33.783,21.175,53.911C451.506,282.996,442.471,301.924,427.272,315.139z"/>
</g>
<g>
</g>
<g>
</g>
<g>
</g>
<g>
</g>
<g>
</g>
<g>
</g>
<g>
</g>
<g>
</g>
<g>
</g>
<g>
</g>
<g>
</g>
<g>
</g>
<g>
</g>
<g>
</g>
<g>
</g>
</svg>
