<?xml version="1.0" encoding="iso-8859-1"?>
<!-- Generator: Adobe Illustrator 19.0.0, SVG Export Plug-In . SVG Version: 6.00 Build 0)  -->
<svg version="1.1" id="Capa_1" xmlns="http://www.w3.org/2000/svg" xmlns:xlink="http://www.w3.org/1999/xlink" x="0px" y="0px"
	 viewBox="0 0 512.03 512.03" style="enable-background:new 0 0 512.03 512.03;" xml:space="preserve">
<g transform="translate(0 -1)">
	<g transform="translate(1 1)">
		<g>
			<path style="fill:#607D8B;" d="M346.901,151.326c-0.132,17.694-5.313,34.984-14.933,49.835
				c-9.728,15.275-22.528,28.416-29.867,45.056c-1.365,3.243-2.646,6.485-3.755,9.813l-2.901,4.352l-83.2,123.477l-56.491,0.171
				v-0.085l32.768-0.085l83.2-123.477l2.901-4.352c1.109-3.328,2.389-6.571,3.755-9.813c7.339-16.64,20.139-29.781,29.867-45.056
				c9.621-14.851,14.802-32.14,14.933-49.835c0.337-17.914-1.876-35.786-6.571-53.077c-6.237-20.977-19.113-39.362-36.693-52.395
				C255.211,24.916,224.685,12.05,192.447,8.99c1.451-0.085,2.816-0.171,4.267-0.256c41.728-2.048,74.667,12.032,106.923,37.12
				c17.581,13.032,30.457,31.418,36.693,52.395C345.025,115.54,347.237,133.412,346.901,151.326z"/>
			<path style="fill:#607D8B;" d="M323.178,151.326c-0.132,17.695-5.313,34.984-14.933,49.835
				c-9.728,15.275-22.528,28.416-29.867,45.056c-1.365,3.243-2.645,6.485-3.755,9.813l-2.901,4.352l-83.2,123.477l-32.768,0.085
				c-0.512-2.133-10.325-39.936-32.085-49.749c-4.949,1.707-10.325,3.499-15.701,5.291c-14.763,4.779-30.208,9.472-41.046,11.691
				c-4.588,1.086-9.421,0.187-13.312-2.475c-3.587-2.561-6.251-6.213-7.594-10.411c-1.766-4.589-2.41-9.533-1.877-14.421
				c1.525-4.968,2.047-10.189,1.536-15.36c-1.706-6.571-8.021-8.192-12.971-11.691c-3.925-2.816,3.243-11.947,3.243-11.947
				s-7.68-5.632-10.411-8.107c-2.816-2.304,1.195-6.4,4.779-13.909c1.498-3.284,1.916-6.959,1.195-10.496
				c-1.28-6.912-11.947-9.557-17.152-13.397c-2.389-1.792-6.4-4.523-6.827-7.851c-0.683-4.608,4.779-11.008,7.424-14.336
				c11.373-14.526,21.103-30.267,29.013-46.933c1.09-1.715,1.708-3.687,1.792-5.717c-0.085-9.216-13.568-13.141-14.848-22.016
				c-0.145-2.659,0.322-5.315,1.365-7.765c3.8-7.921,7.023-16.105,9.643-24.491c1.605-7.66,3.686-15.212,6.229-22.613
				c5.422-14.919,13.844-28.569,24.747-40.107c11.128-11.068,24.817-19.217,39.851-23.723c7.172-2.421,14.499-4.36,21.93-5.803
				c19.053-4.105,38.349-6.984,57.771-8.619c32.238,3.06,62.764,15.926,87.467,36.864c17.581,13.032,30.457,31.418,36.693,52.395
				C321.302,115.54,323.514,133.412,323.178,151.326z"/>
		</g>
		<path style="fill:#4CAF50;" d="M346.901,151.326c-0.132,17.694-5.313,34.984-14.933,49.835
			c-9.728,15.275-22.528,28.416-29.867,45.056c-1.365,3.243-2.646,6.485-3.755,9.813l-2.901,4.352l-6.485-4.352
			c-17.067-61.525-86.272-88.661-131.072-110.933c-51.541-25.6-45.056-121.515-45.056-121.515l-0.085-0.171
			c7.172-2.421,14.499-4.36,21.93-5.803c20.439-4.448,41.172-7.414,62.037-8.875c41.728-2.048,74.667,12.032,106.923,37.12
			c17.581,13.032,30.457,31.418,36.693,52.395C345.025,115.54,347.237,133.412,346.901,151.326z"/>
		<circle style="fill:#009688;" cx="237.846" cy="93.897" r="42.667"/>
		<path style="fill:#2E7D32;" d="M348.756,151.352c-0.132,17.694-5.313,34.984-14.933,49.835
			c-9.728,15.275-22.528,28.416-29.867,45.056c-1.365,3.243-2.645,6.485-3.755,9.813l-2.901,4.352l-6.485-4.352
			c-1.653-6.031-3.882-11.889-6.656-17.493c7.424-13.227,17.749-24.576,25.941-37.376c9.621-14.851,14.802-32.14,14.933-49.835
			c0.337-17.914-1.876-35.786-6.571-53.077c-6.237-20.977-19.113-39.362-36.693-52.395c-24.703-20.938-55.229-33.804-87.467-36.864
			c1.451-0.085,2.816-0.171,4.267-0.256c41.728-2.048,74.667,12.032,106.923,37.12c17.581,13.032,30.457,31.418,36.693,52.395
			C346.881,115.566,349.093,133.437,348.756,151.352z"/>
		<path style="fill:#00838F;" d="M485.338,273.097v204.8H212.271v-204.8c0.028-9.414,7.652-17.039,17.067-17.067h238.933
			C477.685,256.058,485.31,263.682,485.338,273.097z"/>
		<path style="fill:#00BCD4;" d="M459.738,273.097v204.8H212.271v-204.8c0.028-9.414,7.652-17.039,17.067-17.067h213.333
			C452.085,256.058,459.71,263.682,459.738,273.097z"/>
		<path style="fill:#607D8B;" d="M502.405,460.83l0,17.067c0.009,6.792-2.685,13.309-7.488,18.112s-11.32,7.497-18.112,7.488
			l-25.6,0c6.792,0.009,13.309-2.685,18.112-7.488c4.803-4.803,7.497-11.32,7.488-18.112V460.83H502.405z"/>
		<path style="fill:#CFD8DC;" d="M476.805,460.83v17.067c0.009,6.792-2.685,13.309-7.488,18.112
			c-4.803,4.803-11.32,7.497-18.112,7.488h-230.4c-6.792,0.009-13.309-2.685-18.112-7.488c-4.803-4.803-7.497-11.32-7.488-18.112
			l0-17.067h110.933v8.533h85.333v-8.533H476.805z"/>
		<path style="fill:#FFFFFF;" d="M451.205,401.097c-0.006,5.719-0.491,11.428-1.451,17.067h-61.781
			c2.303-5.395,3.493-11.2,3.499-17.067c0-23.564-19.103-42.667-42.667-42.667c-23.564,0-42.667,19.103-42.667,42.667
			c0.006,5.866,1.196,11.671,3.499,17.067h-61.781c-0.959-5.638-1.445-11.347-1.451-17.067c-0.008-5.922,0.506-11.833,1.536-17.664
			h21.589c2.01-9.192,5.651-17.949,10.752-25.856l-15.275-15.275c6.82-9.722,15.281-18.182,25.003-25.003l15.275,15.275
			c7.907-5.1,16.664-8.742,25.856-10.752v-21.589c11.687-2.048,23.641-2.048,35.328,0v21.589c9.192,2.01,17.949,5.652,25.856,10.752
			l15.275-15.275c9.722,6.82,18.182,15.281,25.003,25.003l-15.275,15.275c5.101,7.907,8.742,16.664,10.752,25.856h21.589
			C450.699,389.264,451.213,395.175,451.205,401.097z"/>
	</g>
	<g>
		<path d="M503.405,453.297h-8.533v-179.2c-0.015-14.132-11.468-25.585-25.6-25.6h-93.867v-4.267
			c0.008-7.066,5.734-12.792,12.8-12.8h68.267c16.495,0,29.867-13.372,29.867-29.867s-13.372-29.867-29.867-29.867h-25.6
			c-7.069,0-12.8-5.731-12.8-12.8s5.731-12.8,12.8-12.8h42.667c16.495,0,29.867-13.372,29.867-29.867s-13.372-29.867-29.867-29.867
			H345.855c-7.625-18.358-20.043-34.33-35.954-46.246C272.73,11.209,237.946-0.787,197.292,1.213
			c-21.27,1.488-42.405,4.504-63.242,9.025c-7.782,1.505-15.454,3.534-22.963,6.075c-16.356,4.925-31.236,13.824-43.312,25.904
			C56.037,54.594,46.979,69.26,41.167,85.297c-2.573,7.421-4.681,14.996-6.312,22.679l-0.229,0.983
			c-1.335,4.969-3.161,9.792-5.45,14.4c-1.338,2.95-2.675,5.904-3.938,9.2c-1.525,3.723-2.124,7.761-1.746,11.767
			c1.385,6.232,4.975,11.755,10.108,15.55c1.85,1.687,4.646,4.242,4.688,5.183c-0.252,0.656-0.551,1.292-0.896,1.904
			C29.717,183.111,20.297,198.37,9.3,212.467l-0.567,0.704c-5.394,5.288-8.497,12.481-8.641,20.033
			c1.381,5.758,5.082,10.69,10.225,13.625c2.246,1.555,4.617,2.922,7.088,4.087c2.436,1.048,4.713,2.433,6.762,4.117
			c0.357,1.727,0.174,3.522-0.525,5.142c-0.942,1.971-1.917,3.675-2.762,5.163c-2.367,4.167-7.296,12.838-0.05,18.75
			c1.179,1.067,3.033,2.554,4.896,3.996c-1.339,2.801-1.885,5.915-1.579,9.004c0.424,3.098,2.11,5.883,4.658,7.696
			c1.513,1.071,3.129,2.004,4.738,2.921c3.521,1.996,4.588,2.758,4.904,3.971c0.231,2.267-0.013,4.557-0.717,6.725
			c-0.4,1.779-0.787,3.558-1.017,5.292c-0.728,6.238,0.054,12.56,2.279,18.433c3.332,11.124,13.489,18.806,25.1,18.983
			c1.877-0.003,3.749-0.195,5.587-0.575c18.271-4.373,36.299-9.704,54.009-15.972c13.687,8.536,22.49,33.128,24.803,42.502
			c0.94,3.814,4.36,6.495,8.288,6.5h0.025l47.933-0.145v59.878h-8.533c-4.713,0-8.533,3.82-8.533,8.533v17.067
			c0.022,18.842,15.291,34.112,34.133,34.133h256c18.842-0.022,34.112-15.291,34.133-34.133V461.83
			C511.938,457.117,508.117,453.297,503.405,453.297z M486.338,116.23c-0.008,7.066-5.734,12.792-12.8,12.8h-42.667
			c-16.495,0-29.867,13.372-29.867,29.867s13.372,29.867,29.867,29.867h25.6c7.069,0,12.8,5.731,12.8,12.8
			c0,7.069-5.731,12.8-12.8,12.8h-68.267c-16.487,0.02-29.847,13.38-29.867,29.867v4.267h-46.309
			c4.61-8.842,10.064-17.219,16.284-25.012c4.004-5.346,8.142-10.871,11.875-16.742c10.496-16.172,16.143-35.012,16.271-54.292
			c0.255-16.498-1.538-32.964-5.336-49.021h122.416C480.604,103.438,486.33,109.164,486.338,116.23z M137.38,26.976
			c20.026-4.351,40.338-7.264,60.779-8.717c36.358-1.775,67.55,9.108,101.25,35.321c11.571,8.723,21.043,19.925,27.723,32.784H289.3
			c-4.436-26.245-28.242-44.713-54.766-42.487c-26.524,2.226-46.918,24.404-46.918,51.021s20.395,48.795,46.918,51.021
			s50.329-16.243,54.766-42.487h44.287c4.154,15.917,6.108,32.328,5.805,48.775c-0.106,16.112-4.826,31.857-13.6,45.371
			c-3.388,5.325-7.154,10.354-11.142,15.679c-7.623,9.437-14.13,19.723-19.392,30.654c-0.129,0.306-0.227,0.62-0.354,0.926
			c-20.011-52.286-76.059-79.295-117.659-99.314c-5.05-2.429-9.921-4.775-14.537-7.067c-39.119-19.431-40.882-87.6-40.528-107.672
			C127.014,29.347,131.982,28.043,137.38,26.976z M238.871,103.43h32.922c-4.297,16.643-20.299,27.494-37.35,25.328
			c-17.051-2.166-29.832-16.673-29.832-33.861s12.781-31.695,29.832-33.861c17.051-2.166,33.053,8.685,37.35,25.328h-32.922
			c-4.713,0-8.533,3.821-8.533,8.533C230.338,99.609,234.158,103.43,238.871,103.43z M163.217,376.476
			c-4.14-14.106-11.182-27.191-20.675-38.417c5.671-1.971,9.975-3.467,12.129-4.117c10.707-3.067,20.794-7.986,29.804-14.533
			c3.677-2.948,4.269-8.319,1.321-11.996s-8.319-4.269-11.996-1.321c-7.348,5.189-15.524,9.093-24.179,11.546
			c-2.292,0.692-7.279,2.421-13.829,4.696l-13.858,4.787l-0.013,0.007l-0.012,0.002c-18.253,6.536-36.837,12.107-55.675,16.689
			c-5.095,0.974-10.037-2.29-11.142-7.358c-1.312-3.32-1.816-6.905-1.471-10.458c0.171-1.292,0.471-2.575,0.758-3.858
			c1.423-4.801,1.622-9.882,0.579-14.779c-1.927-6.364-6.525-11.575-12.6-14.279c0.407-0.672,0.849-1.321,1.325-1.946
			c1.427-1.818,2.056-4.138,1.742-6.428c-0.314-2.29-1.544-4.355-3.409-5.722c-1.712-1.254-4.267-3.167-6.479-4.9l0.179-0.313
			c1.021-1.796,2.192-3.867,3.3-6.192c2.301-4.922,2.97-10.45,1.908-15.779c-1.658-8.954-9.842-13.096-15.821-16.117
			c-1.818-0.841-3.557-1.843-5.196-2.996c-0.654-0.483-1.821-1.35-2.583-2.054c1.358-2.407,2.94-4.681,4.725-6.792l0.517-0.646
			c11.742-14.977,21.796-31.205,29.979-48.387c1.781-2.949,2.739-6.322,2.775-9.767c-0.656-7.126-4.382-13.614-10.207-17.771
			c-1.921-1.754-4.554-4.158-4.713-5.258c0.117-1.236,0.409-2.45,0.867-3.604c1.046-2.712,2.25-5.358,3.45-8.008
			c2.777-5.631,4.968-11.533,6.537-17.613l0.221-0.942c1.472-6.984,3.374-13.871,5.695-20.621
			c5.007-13.855,12.818-26.527,22.946-37.225c7.125-7.243,15.592-13.029,24.929-17.035c0.185,28.335,5.538,94.651,50.067,116.768
			c4.675,2.325,9.617,4.7,14.733,7.162c40.336,19.411,89.756,43.258,108.126,87.596h-47.634c-14.132,0.015-25.585,11.468-25.6,25.6
			v102.255L163.217,376.476z M221.805,274.097c0.006-4.71,3.823-8.527,8.533-8.533h59.62l0.026,0.004l0.03-0.004h179.257
			c4.71,0.006,8.527,3.823,8.533,8.533v179.2h-85.333c-4.713,0-8.533,3.82-8.533,8.533h-68.267c0-4.713-3.82-8.533-8.533-8.533
			h-85.333V274.097z M494.871,478.897c-0.009,9.422-7.645,17.057-17.067,17.067h-256c-9.422-0.009-17.057-7.645-17.067-17.067
			v-8.533h93.867c0,4.713,3.82,8.533,8.533,8.533h85.333c4.713,0,8.533-3.821,8.533-8.533h93.867V478.897z"/>
		<path d="M310.685,427.697h78.262l0.02,0.004l0.028-0.004h63.209c4.713,0,8.533-3.821,8.533-8.533
			c-0.019-1.286-0.335-2.549-0.922-3.693c0.578-4.435,0.886-8.901,0.922-13.373c0.009-6.426-0.55-12.84-1.671-19.167
			c-0.728-4.069-4.267-7.03-8.4-7.029h-15c-1.673-5.531-3.894-10.881-6.629-15.971l10.596-10.596
			c2.933-2.929,3.334-7.543,0.95-10.933c-7.382-10.536-16.547-19.701-27.083-27.083c-3.392-2.379-8.003-1.979-10.933,0.95
			l-10.596,10.596c-5.09-2.735-10.44-4.956-15.971-6.629v-15c0.001-4.133-2.961-7.673-7.029-8.4
			c-12.682-2.217-25.652-2.217-38.333,0c-4.069,0.728-7.03,4.267-7.029,8.4v15c-5.531,1.673-10.881,3.894-15.971,6.629
			l-10.596-10.596c-2.931-2.929-7.541-3.329-10.933-0.95c-10.536,7.382-19.701,16.547-27.083,27.083
			c-2.384,3.391-1.983,8.005,0.95,10.933l10.596,10.596c-2.735,5.09-4.956,10.44-6.629,15.971h-15
			c-4.133-0.001-7.672,2.961-8.4,7.029c-1.121,6.327-1.68,12.741-1.671,19.167c0.036,4.472,0.344,8.938,0.922,13.373
			c-0.587,1.144-0.902,2.408-0.922,3.693c0,4.713,3.821,8.533,8.533,8.533H310.685z M315.671,402.097
			c0-18.851,15.282-34.133,34.133-34.133c18.851,0,34.133,15.282,34.133,34.133c-0.04,2.883-0.44,5.75-1.191,8.533h-65.884
			C316.111,407.846,315.711,404.98,315.671,402.097z M256.375,392.968h14.155c4.004-0.001,7.47-2.786,8.333-6.696
			c1.783-8.198,5.028-16.007,9.579-23.054c2.193-3.378,1.724-7.829-1.125-10.675l-10.013-10.013
			c3.876-4.726,8.208-9.058,12.933-12.933l10.012,10.012c2.844,2.853,7.299,3.322,10.675,1.125
			c7.047-4.551,14.857-7.796,23.054-9.579c3.91-0.863,6.695-4.329,6.696-8.333v-14.154c6.072-0.583,12.186-0.583,18.258,0v14.154
			c0.001,4.004,2.786,7.47,6.696,8.333c8.198,1.783,16.007,5.028,23.054,9.579c3.377,2.197,7.831,1.728,10.675-1.125l10.013-10.013
			c4.726,3.876,9.058,8.208,12.933,12.933l-10.013,10.013c-2.849,2.846-3.318,7.298-1.125,10.675
			c4.551,7.047,7.796,14.857,9.579,23.054c0.863,3.91,4.329,6.695,8.333,6.696h14.154c0.291,2.995,0.437,6.049,0.437,9.129
			c0,2.821-0.161,5.673-0.427,8.533h-43.005c0.49-2.818,0.746-5.673,0.765-8.533c0-28.277-22.923-51.2-51.2-51.2
			c-28.277,0-51.2,22.923-51.2,51.2c0.019,2.861,0.275,5.715,0.765,8.533h-43.005c-0.265-2.86-0.427-5.712-0.427-8.533
			C255.938,399.018,256.084,395.963,256.375,392.968z"/>
	</g>
</g>
<g>
</g>
<g>
</g>
<g>
</g>
<g>
</g>
<g>
</g>
<g>
</g>
<g>
</g>
<g>
</g>
<g>
</g>
<g>
</g>
<g>
</g>
<g>
</g>
<g>
</g>
<g>
</g>
<g>
</g>
</svg>
