<?xml version="1.0" encoding="iso-8859-1"?>
<!-- Generator: Adobe Illustrator 19.0.0, SVG Export Plug-In . SVG Version: 6.00 Build 0)  -->
<svg version="1.1" id="Capa_1" xmlns="http://www.w3.org/2000/svg" xmlns:xlink="http://www.w3.org/1999/xlink" x="0px" y="0px"
	 viewBox="0 0 512 512" style="enable-background:new 0 0 512 512;" xml:space="preserve">
<g>
	<g transform="translate(1 1)">
		<path style="fill:#607D8B;" d="M502.467,58.733V485.4c-0.028,9.414-7.653,17.039-17.067,17.067H24.6
			c-9.414-0.028-17.039-7.653-17.067-17.067V58.733H502.467z"/>
		<path style="fill:#CFD8DC;" d="M476.867,58.733V485.4c-0.028,9.414-7.653,17.039-17.067,17.067H24.6
			c-9.414-0.028-17.039-7.653-17.067-17.067V58.733H476.867z"/>
		<path style="fill:#283593;" d="M502.467,24.6v51.2H7.533V24.6C7.561,15.186,15.186,7.561,24.6,7.533h460.8
			C494.814,7.561,502.439,15.186,502.467,24.6z"/>
		<path style="fill:#3F51B5;" d="M476.867,24.6v51.2H7.533V24.6C7.561,15.186,15.186,7.561,24.6,7.533h435.2
			C469.214,7.561,476.839,15.186,476.867,24.6z"/>
	</g>
	<g>
		<path d="M486.4,0H25.6C11.468,0.015,0.015,11.468,0,25.6v460.8c0.015,14.132,11.468,25.585,25.6,25.6h460.8
			c14.132-0.015,25.585-11.468,25.6-25.6V25.6C511.985,11.468,500.532,0.015,486.4,0z M25.6,17.067h460.8
			c4.711,0.005,8.529,3.822,8.533,8.533v42.667H17.067V25.6C17.071,20.889,20.889,17.071,25.6,17.067z M486.4,494.933H25.6
			c-4.711-0.005-8.529-3.822-8.533-8.533V85.333h477.867V486.4C494.929,491.111,491.111,494.929,486.4,494.933z"/>
		<path d="M36.608,48.725c1.627,1.572,3.796,2.459,6.059,2.475c1.115-0.014,2.216-0.246,3.242-0.683
			c0.524-0.171,1.015-0.432,1.45-0.771c0.508-0.338,0.942-0.679,1.367-1.02c3.3-3.365,3.3-8.752,0-12.117
			c-0.815-0.773-1.772-1.383-2.817-1.796c-1.557-0.679-3.288-0.857-4.95-0.508c-0.534,0.091-1.051,0.263-1.533,0.508
			c-0.546,0.187-1.064,0.447-1.542,0.771c-0.446,0.315-0.872,0.657-1.275,1.025c-0.79,0.8-1.4,1.759-1.792,2.813
			c-0.911,2.067-0.911,4.421,0,6.487C35.249,46.942,35.855,47.895,36.608,48.725z"/>
		<path d="M70.741,48.725c1.636,1.558,3.8,2.441,6.059,2.475c2.262-0.019,4.43-0.905,6.059-2.475c3.3-3.365,3.3-8.752,0-12.117
			c-3.422-3.159-8.696-3.159-12.117,0c-1.574,1.625-2.461,3.796-2.475,6.059c0.014,1.115,0.246,2.216,0.683,3.242
			C69.382,46.942,69.988,47.895,70.741,48.725z"/>
		<path d="M110.933,51.2c0.542-0.016,1.083-0.073,1.617-0.171c0.566-0.082,1.115-0.255,1.625-0.513
			c0.543-0.188,1.059-0.447,1.533-0.771c0.449-0.313,0.878-0.654,1.284-1.021c3.3-3.365,3.3-8.752,0-12.117
			c-0.406-0.368-0.835-0.71-1.283-1.025c-0.475-0.324-0.99-0.583-1.533-0.771c-0.51-0.258-1.059-0.43-1.625-0.509
			c-2.78-0.504-5.633,0.352-7.675,2.304c-3.3,3.365-3.3,8.752,0,12.117C106.511,50.282,108.674,51.166,110.933,51.2z"/>
		<path d="M196.267,51.2h119.467c4.713,0,8.533-3.821,8.533-8.533s-3.821-8.533-8.533-8.533H196.267
			c-4.713,0-8.533,3.821-8.533,8.533S191.554,51.2,196.267,51.2z"/>
		<path d="M460.8,51.2h8.533c4.713,0,8.533-3.821,8.533-8.533s-3.821-8.533-8.533-8.533H460.8c-4.713,0-8.533,3.821-8.533,8.533
			S456.087,51.2,460.8,51.2z"/>
		<path d="M418.133,51.2h8.533c4.713,0,8.533-3.821,8.533-8.533s-3.82-8.533-8.533-8.533h-8.533c-4.713,0-8.533,3.821-8.533,8.533
			S413.421,51.2,418.133,51.2z"/>
		<path d="M128,221.867V204.8c-0.011-9.421-7.645-17.056-17.067-17.067H93.867c-9.421,0.011-17.056,7.645-17.067,17.067v17.067
			c0.011,9.421,7.645,17.056,17.067,17.067h17.067C120.355,238.923,127.989,231.288,128,221.867z M93.867,204.8h17.067l0.009,17.067
			H93.867V204.8z"/>
		<path d="M145.067,341.333H128c-9.421,0.011-17.056,7.645-17.067,17.067v17.067c0.011,9.421,7.645,17.056,17.067,17.067h17.067
			c9.421-0.011,17.056-7.645,17.067-17.067V358.4C162.123,348.979,154.488,341.344,145.067,341.333z M128,375.467V358.4h17.067
			l0.009,17.067H128z"/>
		<path d="M76.8,418.133H59.733c-9.421,0.011-17.056,7.645-17.067,17.067v17.067c0.011,9.421,7.645,17.056,17.067,17.067H76.8
			c9.421-0.011,17.056-7.645,17.067-17.067V435.2C93.856,425.779,86.221,418.144,76.8,418.133z M59.733,452.267V435.2H76.8
			l0.009,17.067H59.733z"/>
		<path d="M51.2,238.933c2.263,0.001,4.434-0.898,6.035-2.499c1.6-1.6,2.499-3.771,2.499-6.035v-34.133
			c0-4.713-3.821-8.533-8.533-8.533s-8.533,3.821-8.533,8.533V230.4c-0.001,2.263,0.898,4.434,2.499,6.035
			C46.766,238.035,48.937,238.934,51.2,238.933z"/>
		<path d="M153.6,238.933c2.263,0.001,4.434-0.898,6.035-2.499c1.6-1.6,2.499-3.771,2.499-6.035v-34.133
			c0-4.713-3.821-8.533-8.533-8.533s-8.533,3.821-8.533,8.533V230.4c-0.001,2.263,0.898,4.434,2.499,6.035
			C149.166,238.035,151.337,238.934,153.6,238.933z"/>
		<path d="M187.733,238.933c2.263,0.001,4.434-0.898,6.035-2.499c1.6-1.6,2.499-3.771,2.499-6.035v-34.133
			c0-4.713-3.821-8.533-8.533-8.533c-4.713,0-8.533,3.821-8.533,8.533V230.4c-0.001,2.263,0.898,4.434,2.499,6.035
			C183.299,238.035,185.47,238.934,187.733,238.933z"/>
		<path d="M51.2,392.533c2.263,0.001,4.434-0.898,6.035-2.499c1.6-1.6,2.499-3.771,2.499-6.035v-34.133
			c0-4.713-3.821-8.533-8.533-8.533s-8.533,3.821-8.533,8.533V384c-0.001,2.263,0.898,4.434,2.499,6.035
			C46.766,391.635,48.937,392.534,51.2,392.533z"/>
		<path d="M85.333,341.333c-2.263-0.001-4.434,0.898-6.035,2.499c-1.6,1.6-2.499,3.771-2.499,6.035V384
			c0,4.713,3.821,8.533,8.533,8.533s8.533-3.82,8.533-8.533v-34.133c0.001-2.263-0.898-4.434-2.499-6.035
			S87.597,341.333,85.333,341.333z"/>
		<path d="M119.467,418.133c-2.263-0.001-4.434,0.898-6.035,2.499c-1.6,1.6-2.499,3.771-2.499,6.035V460.8
			c0,4.713,3.82,8.533,8.533,8.533c4.713,0,8.533-3.82,8.533-8.533v-34.133c0.001-2.263-0.898-4.434-2.499-6.035
			C123.901,419.032,121.73,418.133,119.467,418.133z"/>
		<path d="M153.6,418.133c-2.263-0.001-4.434,0.898-6.035,2.499c-1.6,1.6-2.499,3.771-2.499,6.035V460.8
			c0,4.713,3.82,8.533,8.533,8.533s8.533-3.82,8.533-8.533v-34.133c0.001-2.263-0.898-4.434-2.499-6.035
			C158.034,419.032,155.863,418.133,153.6,418.133z"/>
		<path d="M256,341.333c-2.263-0.001-4.434,0.898-6.035,2.499c-1.6,1.6-2.499,3.771-2.499,6.035V384
			c0,4.713,3.821,8.533,8.533,8.533c4.713,0,8.533-3.82,8.533-8.533v-34.133c0.001-2.263-0.898-4.434-2.499-6.035
			S258.263,341.333,256,341.333z"/>
		<path d="M298.667,238.933h17.067c9.421-0.011,17.056-7.645,17.067-17.067V204.8c-0.011-9.421-7.645-17.056-17.067-17.067h-17.067
			c-9.421,0.011-17.056,7.645-17.067,17.067v17.067C281.611,231.288,289.245,238.923,298.667,238.933z M298.667,204.8h17.067
			l0.009,17.067h-17.075V204.8z"/>
		<path d="M435.2,221.867V204.8c-0.011-9.421-7.645-17.056-17.067-17.067h-17.067c-9.421,0.011-17.056,7.645-17.067,17.067v17.067
			c0.011,9.421,7.645,17.056,17.067,17.067h17.067C427.555,238.923,435.189,231.288,435.2,221.867z M401.067,204.8h17.067
			l0.009,17.067h-17.075V204.8z"/>
		<path d="M247.467,187.733H230.4c-9.421,0.011-17.056,7.645-17.067,17.067v17.067c0.011,9.421,7.645,17.056,17.067,17.067h17.067
			c9.421-0.011,17.056-7.645,17.067-17.067V204.8C264.523,195.379,256.888,187.744,247.467,187.733z M230.4,221.867V204.8h17.067
			l0.009,17.067H230.4z"/>
		<path d="M213.333,341.333h-17.067c-9.421,0.011-17.056,7.645-17.067,17.067v17.067c0.011,9.421,7.645,17.056,17.067,17.067h17.067
			c9.421-0.011,17.056-7.645,17.067-17.067V358.4C230.389,348.979,222.755,341.344,213.333,341.333z M196.267,375.467V358.4h17.067
			l0.009,17.067H196.267z"/>
		<path d="M213.333,418.133h-17.067c-9.421,0.011-17.056,7.645-17.067,17.067v17.067c0.011,9.421,7.645,17.056,17.067,17.067h17.067
			c9.421-0.011,17.056-7.645,17.067-17.067V435.2C230.389,425.779,222.755,418.144,213.333,418.133z M196.267,452.267V435.2h17.067
			l0.009,17.067H196.267z"/>
		<path d="M332.8,375.467V358.4c-0.011-9.421-7.645-17.056-17.067-17.067h-17.067c-9.421,0.011-17.056,7.645-17.067,17.067v17.067
			c0.011,9.421,7.645,17.056,17.067,17.067h17.067C325.155,392.523,332.789,384.888,332.8,375.467z M298.667,358.4h17.067
			l0.009,17.067h-17.075V358.4z"/>
		<path d="M349.867,418.133H332.8c-9.421,0.011-17.056,7.645-17.067,17.067v17.067c0.011,9.421,7.645,17.056,17.067,17.067h17.067
			c9.421-0.011,17.056-7.645,17.067-17.067V435.2C366.923,425.779,359.288,418.144,349.867,418.133z M332.8,452.267V435.2h17.067
			l0.009,17.067H332.8z"/>
		<path d="M452.267,418.133H435.2c-9.421,0.011-17.056,7.645-17.067,17.067v17.067c0.011,9.421,7.645,17.056,17.067,17.067h17.067
			c9.421-0.011,17.056-7.645,17.067-17.067V435.2C469.323,425.779,461.688,418.144,452.267,418.133z M435.2,452.267V435.2h17.067
			l0.009,17.067H435.2z"/>
		<path d="M358.4,187.733c-2.263-0.001-4.434,0.898-6.035,2.499c-1.6,1.6-2.499,3.771-2.499,6.035V230.4
			c0,4.713,3.82,8.533,8.533,8.533s8.533-3.821,8.533-8.533v-34.133c0.001-2.263-0.898-4.434-2.499-6.035
			C362.834,188.632,360.663,187.733,358.4,187.733z"/>
		<path d="M358.4,341.333c-2.263-0.001-4.434,0.898-6.035,2.499c-1.6,1.6-2.499,3.771-2.499,6.035V384
			c0,4.713,3.82,8.533,8.533,8.533s8.533-3.82,8.533-8.533v-34.133c0.001-2.263-0.898-4.434-2.499-6.035
			C362.834,342.232,360.663,341.333,358.4,341.333z"/>
		<path d="M392.533,418.133c-2.263-0.001-4.434,0.898-6.035,2.499c-1.6,1.6-2.499,3.771-2.499,6.035V460.8
			c0,4.713,3.82,8.533,8.533,8.533s8.533-3.82,8.533-8.533v-34.133c0.001-2.263-0.898-4.434-2.499-6.035
			C396.968,419.032,394.797,418.133,392.533,418.133z"/>
		<path d="M392.533,341.333c-2.263-0.001-4.434,0.898-6.035,2.499c-1.6,1.6-2.499,3.771-2.499,6.035V384
			c0,4.713,3.82,8.533,8.533,8.533s8.533-3.82,8.533-8.533v-34.133c0.001-2.263-0.898-4.434-2.499-6.035
			C396.968,342.232,394.797,341.333,392.533,341.333z"/>
		<path d="M256,418.133c-2.263-0.001-4.434,0.898-6.035,2.499c-1.6,1.6-2.499,3.771-2.499,6.035V460.8
			c0,4.713,3.821,8.533,8.533,8.533c4.713,0,8.533-3.82,8.533-8.533v-34.133c0.001-2.263-0.898-4.434-2.499-6.035
			C260.434,419.032,258.263,418.133,256,418.133z"/>
		<path d="M290.133,418.133c-2.263-0.001-4.434,0.898-6.035,2.499c-1.6,1.6-2.499,3.771-2.499,6.035V460.8
			c0,4.713,3.821,8.533,8.533,8.533c4.713,0,8.533-3.82,8.533-8.533v-34.133c0.001-2.263-0.898-4.434-2.499-6.035
			C294.568,419.032,292.397,418.133,290.133,418.133z"/>
		<path d="M452.267,264.533H435.2c-9.421,0.011-17.056,7.645-17.067,17.067v17.067c0.011,9.421,7.645,17.056,17.067,17.067h17.067
			c9.421-0.011,17.056-7.645,17.067-17.067V281.6C469.323,272.179,461.688,264.544,452.267,264.533z M452.267,298.667H435.2V281.6
			h17.067V298.667z"/>
		<path d="M392.533,264.533c-2.263-0.001-4.434,0.898-6.035,2.499c-1.6,1.6-2.499,3.771-2.499,6.035V307.2
			c0,4.713,3.82,8.533,8.533,8.533s8.533-3.82,8.533-8.533v-34.133c0.001-2.263-0.898-4.434-2.499-6.035
			C396.968,265.432,394.797,264.533,392.533,264.533z"/>
		<path d="M358.4,264.533c-2.263-0.001-4.434,0.898-6.035,2.499c-1.6,1.6-2.499,3.771-2.499,6.035V307.2
			c0,4.713,3.82,8.533,8.533,8.533s8.533-3.82,8.533-8.533v-34.133c0.001-2.263-0.898-4.434-2.499-6.035
			C362.834,265.432,360.663,264.533,358.4,264.533z"/>
		<path d="M298.667,315.733h17.067c9.421-0.011,17.056-7.645,17.067-17.067V281.6c-0.011-9.421-7.645-17.056-17.067-17.067h-17.067
			c-9.421,0.011-17.056,7.645-17.067,17.067v17.067C281.611,308.088,289.245,315.723,298.667,315.733z M298.667,281.6h17.067v17.067
			h-17.067V281.6z"/>
		<path d="M196.267,298.667V281.6c-0.011-9.421-7.645-17.056-17.067-17.067h-17.067c-9.421,0.011-17.056,7.645-17.067,17.067v17.067
			c0.011,9.421,7.645,17.056,17.067,17.067H179.2C188.621,315.723,196.256,308.088,196.267,298.667z M162.133,281.6H179.2v17.067
			h-17.067V281.6z"/>
		<path d="M76.8,264.533H59.733c-9.421,0.011-17.056,7.645-17.067,17.067v17.067c0.011,9.421,7.645,17.056,17.067,17.067H76.8
			c9.421-0.011,17.056-7.645,17.067-17.067V281.6C93.856,272.179,86.221,264.544,76.8,264.533z M76.8,298.667H59.733V281.6H76.8
			V298.667z"/>
		<path d="M110.933,273.067V307.2c0,4.713,3.821,8.533,8.533,8.533c4.713,0,8.533-3.82,8.533-8.533v-34.133
			c0-4.713-3.821-8.533-8.533-8.533C114.754,264.533,110.933,268.354,110.933,273.067z"/>
		<path d="M256,264.533c-2.263-0.001-4.434,0.898-6.035,2.499c-1.6,1.6-2.499,3.771-2.499,6.035V307.2
			c0,4.713,3.821,8.533,8.533,8.533c4.713,0,8.533-3.82,8.533-8.533v-34.133c0.001-2.263-0.898-4.434-2.499-6.035
			S258.263,264.533,256,264.533z"/>
		<path d="M221.867,264.533c-2.263-0.001-4.434,0.898-6.035,2.499s-2.499,3.771-2.499,6.035V307.2c0,4.713,3.821,8.533,8.533,8.533
			c4.713,0,8.533-3.82,8.533-8.533v-34.133c0.001-2.263-0.898-4.434-2.499-6.035C226.301,265.432,224.13,264.533,221.867,264.533z"
			/>
		<path d="M426.667,392.533c2.263,0.001,4.434-0.898,6.035-2.499c1.6-1.6,2.499-3.771,2.499-6.035v-34.133
			c0-4.713-3.82-8.533-8.533-8.533s-8.533,3.821-8.533,8.533V384c-0.001,2.263,0.898,4.434,2.499,6.035
			C422.233,391.635,424.403,392.534,426.667,392.533z"/>
		<path d="M460.8,341.333c-2.263-0.001-4.434,0.898-6.035,2.499c-1.6,1.6-2.499,3.771-2.499,6.035V384
			c0,4.713,3.82,8.533,8.533,8.533s8.533-3.82,8.533-8.533v-34.133c0.001-2.263-0.898-4.434-2.499-6.035
			C465.234,342.232,463.063,341.333,460.8,341.333z"/>
		<path d="M401.067,145.067V128c-0.011-9.421-7.645-17.056-17.067-17.067h-17.067c-9.421,0.011-17.056,7.645-17.067,17.067v17.067
			c0.011,9.421,7.645,17.056,17.067,17.067H384C393.421,162.123,401.056,154.488,401.067,145.067z M366.933,128H384v17.067h-17.067
			V128z"/>
		<path d="M460.8,110.933c-2.263-0.001-4.434,0.898-6.035,2.499c-1.6,1.6-2.499,3.771-2.499,6.035V153.6
			c0,4.713,3.82,8.533,8.533,8.533s8.533-3.821,8.533-8.533v-34.133c0.001-2.263-0.898-4.434-2.499-6.035
			C465.234,111.832,463.063,110.933,460.8,110.933z"/>
		<path d="M426.667,162.133c2.263,0.001,4.434-0.898,6.035-2.499c1.6-1.6,2.499-3.771,2.499-6.035v-34.133
			c0-4.713-3.82-8.533-8.533-8.533s-8.533,3.82-8.533,8.533V153.6c-0.001,2.263,0.898,4.434,2.499,6.035
			C422.233,161.235,424.403,162.134,426.667,162.133z"/>
		<path d="M256,110.933c-2.263-0.001-4.434,0.898-6.035,2.499c-1.6,1.6-2.499,3.771-2.499,6.035V153.6
			c0,4.713,3.821,8.533,8.533,8.533c4.713,0,8.533-3.821,8.533-8.533v-34.133c0.001-2.263-0.898-4.434-2.499-6.035
			S258.263,110.933,256,110.933z"/>
		<path d="M298.667,162.133h17.067c9.421-0.011,17.056-7.645,17.067-17.067V128c-0.011-9.421-7.645-17.056-17.067-17.067h-17.067
			c-9.421,0.011-17.056,7.645-17.067,17.067v17.067C281.611,154.488,289.245,162.123,298.667,162.133z M298.667,128h17.067v17.067
			h-17.067V128z"/>
		<path d="M196.267,162.133h17.067c9.421-0.011,17.056-7.645,17.067-17.067V128c-0.011-9.421-7.645-17.056-17.067-17.067h-17.067
			c-9.421,0.011-17.056,7.645-17.067,17.067v17.067C179.211,154.488,186.845,162.123,196.267,162.133z M196.267,128h17.067v17.067
			h-17.067V128z"/>
		<path d="M153.6,162.133c2.263,0.001,4.434-0.898,6.035-2.499c1.6-1.6,2.499-3.771,2.499-6.035v-34.133
			c0-4.713-3.821-8.533-8.533-8.533s-8.533,3.82-8.533,8.533V153.6c-0.001,2.263,0.898,4.434,2.499,6.035
			C149.166,161.235,151.337,162.134,153.6,162.133z"/>
		<path d="M119.467,162.133c2.263,0.001,4.434-0.898,6.035-2.499c1.6-1.6,2.499-3.771,2.499-6.035v-34.133
			c0-4.713-3.821-8.533-8.533-8.533c-4.713,0-8.533,3.82-8.533,8.533V153.6c-0.001,2.263,0.898,4.434,2.499,6.035
			C115.032,161.235,117.203,162.134,119.467,162.133z"/>
		<path d="M85.333,162.133c2.263,0.001,4.434-0.898,6.035-2.499c1.6-1.6,2.499-3.771,2.499-6.035v-34.133
			c0-4.713-3.821-8.533-8.533-8.533s-8.533,3.82-8.533,8.533V153.6c-0.001,2.263,0.898,4.434,2.499,6.035
			C80.899,161.235,83.07,162.134,85.333,162.133z"/>
		<path d="M51.2,162.133c2.263,0.001,4.434-0.898,6.035-2.499c1.6-1.6,2.499-3.771,2.499-6.035v-34.133
			c0-4.713-3.821-8.533-8.533-8.533s-8.533,3.82-8.533,8.533V153.6c-0.001,2.263,0.898,4.434,2.499,6.035
			C46.766,161.235,48.937,162.134,51.2,162.133z"/>
		<path d="M460.8,187.733c-2.263-0.001-4.434,0.898-6.035,2.499c-1.6,1.6-2.499,3.771-2.499,6.035V230.4
			c0,4.713,3.82,8.533,8.533,8.533s8.533-3.821,8.533-8.533v-34.133c0.001-2.263-0.898-4.434-2.499-6.035
			C465.234,188.632,463.063,187.733,460.8,187.733z"/>
	</g>
</g>
<g>
</g>
<g>
</g>
<g>
</g>
<g>
</g>
<g>
</g>
<g>
</g>
<g>
</g>
<g>
</g>
<g>
</g>
<g>
</g>
<g>
</g>
<g>
</g>
<g>
</g>
<g>
</g>
<g>
</g>
</svg>
