<?xml version="1.0" encoding="iso-8859-1"?>
<!-- Generator: Adobe Illustrator 19.0.0, SVG Export Plug-In . SVG Version: 6.00 Build 0)  -->
<svg version="1.1" id="Capa_1" xmlns="http://www.w3.org/2000/svg" xmlns:xlink="http://www.w3.org/1999/xlink" x="0px" y="0px"
	 viewBox="0 0 512 512" style="enable-background:new 0 0 512 512;" xml:space="preserve">
<g>
	<g transform="translate(1 1)">
		<path style="fill:#607D8B;" d="M502.467,33.133v443.733c0.009,6.792-2.685,13.309-7.488,18.112
			c-4.803,4.803-11.32,7.497-18.112,7.488H33.133c-6.792,0.009-13.309-2.685-18.112-7.488c-4.803-4.803-7.497-11.32-7.488-18.112
			v-358.4c-0.009-6.792,2.685-13.309,7.488-18.112c4.803-4.803,11.32-7.497,18.112-7.488h179.883
			c10.358-0.003,20.153-4.713,26.624-12.8l47.787-59.733c6.471-8.087,16.266-12.797,26.624-12.8h162.816
			c6.792-0.009,13.309,2.685,18.112,7.488C499.782,19.824,502.476,26.341,502.467,33.133z"/>
		<path style="fill:#CFD8DC;" d="M476.867,33.133v443.733c0.009,6.792-2.685,13.309-7.488,18.112
			c-4.803,4.803-11.32,7.497-18.112,7.488H33.133c-6.792,0.009-13.309-2.685-18.112-7.488c-4.803-4.803-7.497-11.32-7.488-18.112
			v-358.4c-0.009-6.792,2.685-13.309,7.488-18.112c4.803-4.803,11.32-7.497,18.112-7.488h179.883
			c10.358-0.003,20.153-4.713,26.624-12.8l47.787-59.733c6.471-8.087,16.266-12.797,26.624-12.8h137.216
			c6.792-0.009,13.309,2.685,18.112,7.488S476.876,26.341,476.867,33.133z"/>
		<path style="fill:#F57C00;" d="M502.467,33.133l0,119.467h-25.6V33.133c0.009-6.792-2.685-13.309-7.488-18.112
			s-11.32-7.497-18.112-7.488l25.6,0c6.792-0.009,13.309,2.685,18.112,7.488C499.782,19.824,502.476,26.341,502.467,33.133z"/>
		<path style="fill:#FF9801;" d="M476.867,33.133V152.6H33.133c-6.792-0.009-13.309,2.685-18.112,7.488s-7.497,11.32-7.488,18.112
			l0-59.733c-0.009-6.792,2.685-13.309,7.488-18.112s11.32-7.497,18.112-7.488h179.883c10.358-0.003,20.153-4.713,26.624-12.8
			l47.787-59.733c6.471-8.087,16.266-12.797,26.624-12.8h137.216c6.792-0.009,13.309,2.685,18.112,7.488
			C474.182,19.824,476.876,26.341,476.867,33.133z"/>
	</g>
	<g>
		<path d="M34.133,512h443.733c18.843-0.02,34.113-15.29,34.133-34.133V34.133C511.98,15.29,496.71,0.02,477.867,0H315.075
			c-12.97-0.029-25.243,5.868-33.325,16.012l-47.758,59.712c-4.852,6.086-12.217,9.624-20,9.609H34.133
			C15.29,85.354,0.02,100.624,0,119.467v358.4C0.02,496.71,15.29,511.98,34.133,512z M477.867,494.933H34.133
			c-9.421-0.011-17.056-7.645-17.067-17.067V179.2c0.011-9.421,7.645-17.056,17.067-17.067h460.8v315.733
			C494.923,487.288,487.288,494.923,477.867,494.933z M34.133,102.4h179.858c12.97,0.029,25.243-5.868,33.325-16.012l47.758-59.712
			c4.852-6.086,12.217-9.624,20-9.609h162.792c9.421,0.011,17.056,7.645,17.067,17.067v110.933h-460.8
			c-6.01,0.034-11.902,1.673-17.067,4.747v-30.347C17.077,110.046,24.712,102.411,34.133,102.4z"/>
		<path d="M128,221.867V204.8c-0.011-9.421-7.645-17.056-17.067-17.067H93.867c-9.421,0.011-17.056,7.645-17.067,17.067v17.067
			c0.011,9.421,7.645,17.056,17.067,17.067h17.067C120.355,238.923,127.989,231.288,128,221.867z M93.867,204.8h17.067l0.009,17.067
			H93.867V204.8z"/>
		<path d="M145.067,341.333H128c-9.421,0.011-17.056,7.645-17.067,17.067v17.067c0.011,9.421,7.645,17.056,17.067,17.067h17.067
			c9.421-0.011,17.056-7.645,17.067-17.067V358.4C162.123,348.979,154.488,341.344,145.067,341.333z M128,375.467V358.4h17.067
			l0.009,17.067H128z"/>
		<path d="M76.8,418.133H59.733c-9.421,0.011-17.056,7.645-17.067,17.067v17.067c0.011,9.421,7.645,17.056,17.067,17.067H76.8
			c9.421-0.011,17.056-7.645,17.067-17.067V435.2C93.856,425.779,86.221,418.144,76.8,418.133z M59.733,452.267V435.2H76.8
			l0.009,17.067H59.733z"/>
		<path d="M51.2,238.933c2.263,0.001,4.434-0.898,6.035-2.499c1.6-1.6,2.499-3.771,2.499-6.035v-34.133
			c0-4.713-3.821-8.533-8.533-8.533s-8.533,3.821-8.533,8.533V230.4c-0.001,2.263,0.898,4.434,2.499,6.035
			C46.766,238.035,48.937,238.934,51.2,238.933z"/>
		<path d="M153.6,238.933c2.263,0.001,4.434-0.898,6.035-2.499c1.6-1.6,2.499-3.771,2.499-6.035v-34.133
			c0-4.713-3.821-8.533-8.533-8.533c-4.713,0-8.533,3.821-8.533,8.533V230.4c-0.001,2.263,0.898,4.434,2.499,6.035
			C149.166,238.035,151.337,238.934,153.6,238.933z"/>
		<path d="M187.733,238.933c2.263,0.001,4.434-0.898,6.035-2.499c1.6-1.6,2.499-3.771,2.499-6.035v-34.133
			c0-4.713-3.82-8.533-8.533-8.533s-8.533,3.821-8.533,8.533V230.4c-0.001,2.263,0.898,4.434,2.499,6.035
			C183.299,238.035,185.47,238.934,187.733,238.933z"/>
		<path d="M51.2,392.533c2.263,0.001,4.434-0.898,6.035-2.499c1.6-1.6,2.499-3.771,2.499-6.035v-34.133
			c0-4.713-3.821-8.533-8.533-8.533s-8.533,3.82-8.533,8.533V384c-0.001,2.263,0.898,4.434,2.499,6.035
			C46.766,391.635,48.937,392.534,51.2,392.533z"/>
		<path d="M85.333,341.333c-2.263-0.001-4.434,0.898-6.035,2.499c-1.6,1.6-2.499,3.771-2.499,6.035V384
			c0,4.713,3.821,8.533,8.533,8.533s8.533-3.82,8.533-8.533v-34.133c0.001-2.263-0.898-4.434-2.499-6.035
			C89.768,342.232,87.597,341.333,85.333,341.333z"/>
		<path d="M119.467,418.133c-2.263-0.001-4.434,0.898-6.035,2.499s-2.499,3.771-2.499,6.035V460.8c0,4.713,3.821,8.533,8.533,8.533
			c4.713,0,8.533-3.821,8.533-8.533v-34.133c0.001-2.263-0.898-4.434-2.499-6.035C123.901,419.032,121.73,418.133,119.467,418.133z"
			/>
		<path d="M153.6,418.133c-2.263-0.001-4.434,0.898-6.035,2.499s-2.499,3.771-2.499,6.035V460.8c0,4.713,3.821,8.533,8.533,8.533
			c4.713,0,8.533-3.821,8.533-8.533v-34.133c0.001-2.263-0.898-4.434-2.499-6.035S155.863,418.133,153.6,418.133z"/>
		<path d="M256,341.333c-2.263-0.001-4.434,0.898-6.035,2.499c-1.6,1.6-2.499,3.771-2.499,6.035V384
			c0,4.713,3.821,8.533,8.533,8.533c4.713,0,8.533-3.82,8.533-8.533v-34.133c0.001-2.263-0.898-4.434-2.499-6.035
			C260.434,342.232,258.263,341.333,256,341.333z"/>
		<path d="M298.667,238.933h17.067c9.421-0.011,17.056-7.645,17.067-17.067V204.8c-0.011-9.421-7.645-17.056-17.067-17.067h-17.067
			c-9.421,0.011-17.056,7.645-17.067,17.067v17.067C281.611,231.288,289.246,238.923,298.667,238.933z M298.667,204.8h17.067
			l0.009,17.067h-17.075V204.8z"/>
		<path d="M435.2,221.867V204.8c-0.011-9.421-7.645-17.056-17.067-17.067h-17.067c-9.421,0.011-17.056,7.645-17.067,17.067v17.067
			c0.011,9.421,7.645,17.056,17.067,17.067h17.067C427.555,238.923,435.189,231.288,435.2,221.867z M401.067,204.8h17.067
			l0.009,17.067h-17.075V204.8z"/>
		<path d="M247.467,187.733H230.4c-9.421,0.011-17.056,7.645-17.067,17.067v17.067c0.011,9.421,7.645,17.056,17.067,17.067h17.067
			c9.421-0.011,17.056-7.645,17.067-17.067V204.8C264.523,195.379,256.888,187.744,247.467,187.733z M230.4,221.867V204.8h17.067
			l0.009,17.067H230.4z"/>
		<path d="M213.333,341.333h-17.067c-9.421,0.011-17.056,7.645-17.067,17.067v17.067c0.011,9.421,7.645,17.056,17.067,17.067h17.067
			c9.421-0.011,17.056-7.645,17.067-17.067V358.4C230.389,348.979,222.755,341.344,213.333,341.333z M196.267,375.467V358.4h17.067
			l0.009,17.067H196.267z"/>
		<path d="M213.333,418.133h-17.067c-9.421,0.011-17.056,7.645-17.067,17.067v17.067c0.011,9.421,7.645,17.056,17.067,17.067h17.067
			c9.421-0.011,17.056-7.645,17.067-17.067V435.2C230.389,425.779,222.755,418.144,213.333,418.133z M196.267,452.267V435.2h17.067
			l0.009,17.067H196.267z"/>
		<path d="M332.8,375.467V358.4c-0.011-9.421-7.645-17.056-17.067-17.067h-17.067c-9.421,0.011-17.056,7.645-17.067,17.067v17.067
			c0.011,9.421,7.645,17.056,17.067,17.067h17.067C325.155,392.523,332.789,384.888,332.8,375.467z M298.667,358.4h17.067
			l0.009,17.067h-17.075V358.4z"/>
		<path d="M349.867,418.133H332.8c-9.421,0.011-17.056,7.645-17.067,17.067v17.067c0.011,9.421,7.645,17.056,17.067,17.067h17.067
			c9.421-0.011,17.056-7.645,17.067-17.067V435.2C366.923,425.779,359.288,418.144,349.867,418.133z M332.8,452.267V435.2h17.067
			l0.009,17.067H332.8z"/>
		<path d="M452.267,418.133H435.2c-9.421,0.011-17.056,7.645-17.067,17.067v17.067c0.011,9.421,7.645,17.056,17.067,17.067h17.067
			c9.421-0.011,17.056-7.645,17.067-17.067V435.2C469.323,425.779,461.688,418.144,452.267,418.133z M435.2,452.267V435.2h17.067
			l0.009,17.067H435.2z"/>
		<path d="M358.4,187.733c-2.263-0.001-4.434,0.898-6.035,2.499c-1.6,1.6-2.499,3.771-2.499,6.035V230.4
			c0,4.713,3.821,8.533,8.533,8.533c4.713,0,8.533-3.821,8.533-8.533v-34.133c0.001-2.263-0.898-4.434-2.499-6.035
			C362.834,188.632,360.663,187.733,358.4,187.733z"/>
		<path d="M358.4,341.333c-2.263-0.001-4.434,0.898-6.035,2.499c-1.6,1.6-2.499,3.771-2.499,6.035V384
			c0,4.713,3.821,8.533,8.533,8.533c4.713,0,8.533-3.82,8.533-8.533v-34.133c0.001-2.263-0.898-4.434-2.499-6.035
			C362.834,342.232,360.663,341.333,358.4,341.333z"/>
		<path d="M392.533,418.133c-2.263-0.001-4.434,0.898-6.035,2.499s-2.499,3.771-2.499,6.035V460.8c0,4.713,3.821,8.533,8.533,8.533
			s8.533-3.821,8.533-8.533v-34.133c0.001-2.263-0.898-4.434-2.499-6.035C396.968,419.032,394.797,418.133,392.533,418.133z"/>
		<path d="M392.533,341.333c-2.263-0.001-4.434,0.898-6.035,2.499c-1.6,1.6-2.499,3.771-2.499,6.035V384
			c0,4.713,3.821,8.533,8.533,8.533s8.533-3.82,8.533-8.533v-34.133c0.001-2.263-0.898-4.434-2.499-6.035
			C396.968,342.232,394.797,341.333,392.533,341.333z"/>
		<path d="M256,418.133c-2.263-0.001-4.434,0.898-6.035,2.499c-1.6,1.6-2.499,3.771-2.499,6.035V460.8
			c0,4.713,3.821,8.533,8.533,8.533c4.713,0,8.533-3.821,8.533-8.533v-34.133c0.001-2.263-0.898-4.434-2.499-6.035
			S258.263,418.133,256,418.133z"/>
		<path d="M290.133,418.133c-2.263-0.001-4.434,0.898-6.035,2.499c-1.6,1.6-2.499,3.771-2.499,6.035V460.8
			c0,4.713,3.82,8.533,8.533,8.533s8.533-3.821,8.533-8.533v-34.133c0.001-2.263-0.898-4.434-2.499-6.035
			C294.568,419.032,292.397,418.133,290.133,418.133z"/>
		<path d="M452.267,264.533H435.2c-9.421,0.011-17.056,7.645-17.067,17.067v17.067c0.011,9.421,7.645,17.056,17.067,17.067h17.067
			c9.421-0.011,17.056-7.645,17.067-17.067V281.6C469.323,272.179,461.688,264.544,452.267,264.533z M452.267,298.667H435.2V281.6
			h17.067V298.667z"/>
		<path d="M392.533,264.533c-2.263-0.001-4.434,0.898-6.035,2.499c-1.6,1.6-2.499,3.771-2.499,6.035V307.2
			c0,4.713,3.821,8.533,8.533,8.533s8.533-3.821,8.533-8.533v-34.133c0.001-2.263-0.898-4.434-2.499-6.035
			C396.968,265.432,394.797,264.533,392.533,264.533z"/>
		<path d="M358.4,264.533c-2.263-0.001-4.434,0.898-6.035,2.499c-1.6,1.6-2.499,3.771-2.499,6.035V307.2
			c0,4.713,3.821,8.533,8.533,8.533c4.713,0,8.533-3.821,8.533-8.533v-34.133c0.001-2.263-0.898-4.434-2.499-6.035
			C362.834,265.432,360.663,264.533,358.4,264.533z"/>
		<path d="M298.667,315.733h17.067c9.421-0.011,17.056-7.645,17.067-17.067V281.6c-0.011-9.421-7.645-17.056-17.067-17.067h-17.067
			c-9.421,0.011-17.056,7.645-17.067,17.067v17.067C281.611,308.088,289.246,315.723,298.667,315.733z M298.667,281.6h17.067v17.067
			h-17.067V281.6z"/>
		<path d="M196.267,298.667V281.6c-0.011-9.421-7.645-17.056-17.067-17.067h-17.067c-9.421,0.011-17.056,7.645-17.067,17.067v17.067
			c0.011,9.421,7.645,17.056,17.067,17.067H179.2C188.621,315.723,196.256,308.088,196.267,298.667z M162.133,281.6H179.2v17.067
			h-17.067V281.6z"/>
		<path d="M76.8,264.533H59.733c-9.421,0.011-17.056,7.645-17.067,17.067v17.067c0.011,9.421,7.645,17.056,17.067,17.067H76.8
			c9.421-0.011,17.056-7.645,17.067-17.067V281.6C93.856,272.179,86.221,264.544,76.8,264.533z M76.8,298.667H59.733V281.6H76.8
			V298.667z"/>
		<path d="M110.933,273.067V307.2c0,4.713,3.821,8.533,8.533,8.533c4.713,0,8.533-3.821,8.533-8.533v-34.133
			c0-4.713-3.821-8.533-8.533-8.533C114.754,264.533,110.933,268.354,110.933,273.067z"/>
		<path d="M256,264.533c-2.263-0.001-4.434,0.898-6.035,2.499c-1.6,1.6-2.499,3.771-2.499,6.035V307.2
			c0,4.713,3.821,8.533,8.533,8.533c4.713,0,8.533-3.821,8.533-8.533v-34.133c0.001-2.263-0.898-4.434-2.499-6.035
			C260.434,265.432,258.263,264.533,256,264.533z"/>
		<path d="M221.867,264.533c-2.263-0.001-4.434,0.898-6.035,2.499c-1.6,1.6-2.499,3.771-2.499,6.035V307.2
			c0,4.713,3.821,8.533,8.533,8.533s8.533-3.821,8.533-8.533v-34.133c0.001-2.263-0.898-4.434-2.499-6.035
			C226.301,265.432,224.13,264.533,221.867,264.533z"/>
		<path d="M426.667,392.533c2.263,0.001,4.434-0.898,6.035-2.499c1.6-1.6,2.499-3.771,2.499-6.035v-34.133
			c0-4.713-3.82-8.533-8.533-8.533s-8.533,3.82-8.533,8.533V384c-0.001,2.263,0.898,4.434,2.499,6.035
			C422.233,391.635,424.403,392.534,426.667,392.533z"/>
		<path d="M460.8,341.333c-2.263-0.001-4.434,0.898-6.035,2.499c-1.6,1.6-2.499,3.771-2.499,6.035V384
			c0,4.713,3.82,8.533,8.533,8.533s8.533-3.82,8.533-8.533v-34.133c0.001-2.263-0.898-4.434-2.499-6.035
			C465.234,342.232,463.063,341.333,460.8,341.333z"/>
		<path d="M460.8,187.733c-2.263-0.001-4.434,0.898-6.035,2.499c-1.6,1.6-2.499,3.771-2.499,6.035V230.4
			c0,4.713,3.82,8.533,8.533,8.533s8.533-3.821,8.533-8.533v-34.133c0.001-2.263-0.898-4.434-2.499-6.035
			C465.234,188.632,463.063,187.733,460.8,187.733z"/>
	</g>
</g>
<g>
</g>
<g>
</g>
<g>
</g>
<g>
</g>
<g>
</g>
<g>
</g>
<g>
</g>
<g>
</g>
<g>
</g>
<g>
</g>
<g>
</g>
<g>
</g>
<g>
</g>
<g>
</g>
<g>
</g>
</svg>
