<?xml version="1.0" encoding="iso-8859-1"?>
<!-- Generator: Adobe Illustrator 19.0.0, SVG Export Plug-In . SVG Version: 6.00 Build 0)  -->
<svg version="1.1" id="Capa_1" xmlns="http://www.w3.org/2000/svg" xmlns:xlink="http://www.w3.org/1999/xlink" x="0px" y="0px"
	 viewBox="0 0 503.847 503.847" style="enable-background:new 0 0 503.847 503.847;" xml:space="preserve">
<g transform="translate(-1)">
	<g transform="translate(2 2)">
		<path style="fill:#2296F3;" d="M418.808,65.388H185.722l6.463,33.574h218.229c4.63,0.014,8.38,3.764,8.393,8.393v218.229h33.574
			V98.961c0.003-8.905-3.534-17.446-9.831-23.743S427.713,65.385,418.808,65.388z"/>
		<g>
			<rect x="418.808" y="258.437" style="fill:#3F51B5;" width="33.574" height="67.148"/>
			<polygon style="fill:#3F51B5;" points="250.939,65.388 250.939,98.961 192.185,98.961 185.722,65.388 			"/>
		</g>
		<path style="fill:#2296F3;" d="M318.087,384.338H141.824c-4.63-0.014-8.38-3.764-8.393-8.393V199.683H99.857v184.656
			c-0.002,8.905,3.534,17.446,9.831,23.743c6.297,6.297,14.838,9.833,23.743,9.831h184.656V384.338z"/>
		<g>
			<rect x="99.857" y="199.683" style="fill:#3F51B5;" width="33.574" height="92.328"/>
			<rect x="208.972" y="384.338" style="fill:#3F51B5;" width="67.148" height="33.574"/>
		</g>
		<path style="fill:#37474F;" d="M212.581,91.995c-1.264-12.389-4.523-24.492-9.652-35.84c-4.039-8.624-9.453-16.533-16.031-23.418
			c-9.206-9.176-20.409-16.1-32.734-20.228c-5.533-1.975-11.237-3.436-17.039-4.365c-9.285-1.605-18.748-1.915-28.118-0.923
			c-5.588,0.439-11.123,1.394-16.535,2.854c-24.668,6.084-46.095,21.329-59.929,42.639c-5.235,8.275-9.09,17.347-11.415,26.859
			c-1.865,6.745-2.658,13.741-2.35,20.732c0.084,0.671,0.084,1.343,0.168,1.93c0.365,2.778,0.926,5.527,1.679,8.226
			c0.588,2.686,1.343,5.288,1.93,8.142c1.01,4.317,1.461,8.746,1.343,13.178c-0.504,19.641-29.965,37.77-8.561,41.967
			c2.26-0.062,4.448,0.797,6.062,2.38c1.614,1.583,2.516,3.753,2.5,6.013c0,12.506,0,16.703,4.281,20.9
			c4.281,4.197,8.477,0,8.477,8.393c0,8.142-3.945,16.283,7.386,20.564h0.084c0.342,0.19,0.71,0.331,1.091,0.42
			c9.403,1.37,18.99,0.711,28.118-1.93c6.108-1.396,12.133-3.133,18.046-5.204l0.168,0.42c3.581,5.442,6.115,11.506,7.47,17.878
			c0.88,3.786,4.255,6.465,8.142,6.463h82.508c2.887,0.02,5.58-1.455,7.118-3.899c1.538-2.444,1.703-5.509,0.437-8.104
			c-6.7-13.385-11.233-27.749-13.43-42.555v-0.084c8.167-14.91,15.236-30.395,21.151-46.332c2.807-8.39,4.996-16.974,6.547-25.684
			c0.868-4.828,1.429-9.706,1.679-14.605C213.349,103.179,213.153,97.571,212.581,91.995z M174.055,96.947
			c0.084,0.336,0.168,0.755,0.252,1.091c-0.145-0.63-0.342-1.248-0.588-1.847C173.803,96.443,173.971,96.695,174.055,96.947z"/>
		<path style="fill:#607D8B;" d="M191.514,91.995c-0.602-6.272-1.754-12.479-3.441-18.55c-1.578-5.929-3.656-11.713-6.211-17.29
			c-4.039-8.624-9.453-16.533-16.031-23.418c-9.206-9.176-20.409-16.1-32.734-20.228c-5.533-1.975-11.237-3.436-17.039-4.365
			c-2.332-0.431-4.686-0.74-7.05-0.923c-1.427,0.084-2.77,0.252-4.197,0.42c-2.266,0.252-4.449,0.671-6.631,1.091
			c-1.93,0.42-3.777,0.839-5.708,1.343c-24.668,6.084-46.095,21.329-59.929,42.639c-5.235,8.275-9.09,17.347-11.415,26.859
			c-1.865,6.745-2.658,13.741-2.35,20.732c0.084,0.671,0.084,1.343,0.168,1.93c0.365,2.778,0.926,5.527,1.679,8.226
			c0.588,2.686,1.343,5.288,1.93,8.142c1.01,4.317,1.461,8.746,1.343,13.178c-0.504,19.641-29.965,37.77-8.561,41.967
			c2.26-0.062,4.448,0.797,6.062,2.38c1.614,1.583,2.516,3.753,2.5,6.013c0,12.506,0,16.703,4.281,20.9
			c4.281,4.197,8.477,0,8.477,8.393c0,8.142-3.945,16.283,7.386,20.564h0.084c8.903-1.497,17.663-3.744,26.188-6.715l0.168,0.42
			c1.086,1.511,2.04,3.111,2.854,4.784c6.108-1.396,12.133-3.133,18.046-5.204l0.168,0.42c3.581,5.442,6.115,11.506,7.47,17.878
			c0.88,3.786,4.255,6.465,8.142,6.463h61.44c2.887,0.02,5.58-1.455,7.118-3.899s1.703-5.509,0.437-8.104
			c-6.7-13.385-11.233-27.749-13.43-42.555v-0.084c8.167-14.91,15.236-30.395,21.151-46.332c0.671-1.93,1.259-3.861,1.847-5.875
			c1.916-6.515,3.485-13.127,4.7-19.809c0.868-4.828,1.429-9.706,1.679-14.605C192.281,103.179,192.085,97.571,191.514,91.995z
			 M152.652,96.191c0.084,0.252,0.252,0.504,0.336,0.755c0.084,0.336,0.168,0.755,0.252,1.091
			C153.094,97.407,152.898,96.79,152.652,96.191z"/>
		<path style="fill:#2E7D32;" d="M213.169,108.782c-0.25,4.899-0.811,9.777-1.679,14.605c-1.551,8.71-3.739,17.294-6.547,25.684
			c-6.791-0.357-13.391-2.374-19.221-5.875c1.916-6.515,3.485-13.127,4.7-19.809c0.868-4.828,1.429-9.706,1.679-14.605
			c0.18-5.602-0.016-11.211-0.588-16.787c-0.602-6.272-1.754-12.479-3.441-18.55c-1.578-5.929-3.656-11.713-6.211-17.29
			c-4.039-8.624-9.453-16.533-16.031-23.418c-9.206-9.176-20.409-16.1-32.734-20.228c-5.533-1.975-11.237-3.436-17.039-4.365
			c-2.332-0.431-4.686-0.74-7.05-0.923c9.37-0.992,18.833-0.681,28.118,0.923c5.802,0.928,11.505,2.389,17.039,4.365
			c12.325,4.129,23.529,11.052,32.734,20.228c6.578,6.885,11.993,14.794,16.031,23.418c5.129,11.348,8.389,23.451,9.652,35.84
			C213.153,97.571,213.349,103.179,213.169,108.782z"/>
		<path style="fill:#4CAF50;" d="M192.101,108.782c-0.25,4.899-0.81,9.777-1.679,14.605c-1.215,6.681-2.784,13.293-4.7,19.809
			c-8.981-6.211-10.156-16.451-10.24-29.377c-0.084-2.014-0.084-4.029-0.084-6.127c0.062-3.627-0.39-7.244-1.343-10.744
			c-4.113-13.849-18.13-20.312-50.109-22.159c-5.288-0.336-11.163-0.588-17.458-0.588c-2.182-0.084-4.365-0.084-6.631-0.084
			c-7.652-0.12-15.261-1.163-22.662-3.106c-5.573-1.37-11.066-3.052-16.451-5.036c-9.806-3.502-19.25-7.944-28.202-13.262
			c13.834-21.31,35.261-36.555,59.929-42.639c1.847-0.504,3.777-0.923,5.708-1.343c2.182-0.42,4.365-0.839,6.631-1.091
			c1.427-0.168,2.77-0.336,4.197-0.42c2.365,0.184,4.718,0.492,7.05,0.923c5.802,0.929,11.505,2.39,17.039,4.365
			c12.325,4.129,23.529,11.052,32.734,20.228c6.578,6.885,11.993,14.794,16.031,23.418c2.556,5.578,4.633,11.362,6.211,17.29
			c1.687,6.071,2.839,12.278,3.441,18.55C192.085,97.571,192.281,103.179,192.101,108.782z"/>
		<path style="fill:#FFB301;" d="M494.349,308.797v167.869c-0.027,9.26-7.527,16.76-16.787,16.787H267.726
			c-9.26-0.027-16.76-7.527-16.787-16.787V350.765c0.027-9.26,7.527-16.76,16.787-16.787h70.001
			c8.906,0.003,17.45-3.529,23.753-9.82l13.933-13.933c6.304-6.292,14.847-9.824,23.753-9.82h86.788
			C490.585,300.418,494.335,304.168,494.349,308.797z"/>
		<path style="fill:#FEC108;" d="M469.169,308.797v167.869c-0.027,9.26-7.527,16.76-16.787,16.787H267.726
			c-9.26-0.027-16.76-7.527-16.787-16.787V350.765c0.027-9.26,7.527-16.76,16.787-16.787h70.001
			c8.906,0.003,17.45-3.529,23.753-9.82l13.933-13.933c6.304-6.292,14.847-9.824,23.753-9.82h61.608
			C465.405,300.418,469.155,304.168,469.169,308.797z"/>
		<path style="fill:#F57C00;" d="M494.349,308.797v58.754H267.726c-9.26,0.027-16.76,7.527-16.787,16.787v-33.574
			c0.027-9.26,7.527-16.76,16.787-16.787h70.001c8.906,0.003,17.45-3.529,23.753-9.82l13.933-13.933
			c6.304-6.292,14.847-9.824,23.753-9.82h86.788C490.585,300.418,494.335,304.168,494.349,308.797z"/>
		<path style="fill:#FF9801;" d="M469.169,308.797v58.754H250.939v-16.787c0.027-9.26,7.527-16.76,16.787-16.787h70.001
			c8.906,0.003,17.45-3.529,23.753-9.82l13.933-13.933c6.304-6.292,14.847-9.824,23.753-9.82h61.608
			C465.405,300.418,469.155,304.168,469.169,308.797z"/>
	</g>
	<path d="M487.955,294.01h-25.18V100.961c-0.027-23.167-18.801-41.94-41.967-41.967H214.243
		c-4.504-11.164-11.075-21.377-19.37-30.102C167.356,3.305,128.512-6.129,92.324,3.986c-26.191,6.623-48.979,22.757-63.926,45.26
		c-0.387,0.348-0.738,0.733-1.05,1.15c-0.12,0.284-0.223,0.574-0.309,0.87c-5.461,8.755-9.524,18.308-12.043,28.314
		c-2.095,7.589-2.961,15.465-2.566,23.328c0.431,4.856,1.323,9.661,2.664,14.348c1.611,5.278,2.413,10.769,2.377,16.287
		c-1.273,6.804-4.229,13.181-8.598,18.55c-5.115,7.697-9.943,14.963-6.738,22.631c2.705,5.137,7.786,8.594,13.557,9.225
		c0.587,0.102,1.183,0.152,1.779,0.152c0,13.516,0,20.299,6.787,26.967c1.696,1.677,3.746,2.953,6,3.734
		c-0.057,0.975-0.164,1.943-0.271,2.902c-1.403,5.225-0.639,10.795,2.12,15.448c2.759,4.654,7.279,7.997,12.536,9.273
		c3.021,0.845,6.152,1.227,9.287,1.135c12.043-0.452,23.966-2.554,35.437-6.249c1.511,3.227,2.68,6.602,3.489,10.072
		c0.226,1.009,0.545,1.995,0.953,2.945c-0.178,0.557-0.293,1.133-0.346,1.715v134.295c0.027,23.167,18.801,41.94,41.967,41.967
		h109.115v50.361c0.015,13.9,11.28,25.165,25.18,25.18h209.836c13.9-0.015,25.165-11.28,25.18-25.18V310.797
		C504.732,301.531,497.222,294.021,487.955,294.01z M487.955,361.158H269.726c-2.866,0.028-5.706,0.552-8.393,1.547v-9.94
		c0.005-4.634,3.76-8.389,8.393-8.393h70.025c11.138,0.031,21.825-4.395,29.68-12.291l13.902-13.91
		c4.714-4.737,11.128-7.392,17.811-7.373l86.811,0.025V361.158z M143.824,377.945V260.437h47.852
		c5.763,0.006,11.125-2.949,14.199-7.824c3.074-4.875,3.429-10.987,0.94-16.185c-5.8-11.892-10.002-24.498-12.495-37.492
		c1.177-2.545,2.652-5.384,4.43-8.693c11.165-19.676,18.927-41.096,22.959-63.357c1.006-5.793,1.569-11.654,1.682-17.533h189.022
		V294.01h-11.27c-11.138-0.031-21.825,4.395-29.68,12.291l-13.902,13.91c-4.714,4.737-11.128,7.392-17.811,7.373h-70.025
		c-13.9,0.015-25.165,11.28-25.18,25.18v25.18H143.824z M110.251,260.437h16.787v25.18h-16.787V260.437z M117.573,50.696
		c-2.165,5.576-3.93,11.3-5.284,17.127c-3.373-0.065-6.84-0.099-10.432-0.099c-6.287-0.142-12.539-0.962-18.65-2.445
		C91.963,55.604,104.531,50.271,117.573,50.696z M135.311,51.55c0.948,0.035,1.896-0.097,2.798-0.39
		c12.68,1.703,24.656,6.829,34.641,14.826c9.021,5.96,19.292,9.768,30.018,11.13c1.475,5.404,2.528,10.915,3.149,16.483
		c-7.253,0.924-14.425,2.401-21.453,4.416c-4.948-19.837-23.798-27.233-55.033-29.464C130.996,62.755,132.961,57.075,135.311,51.55z
		 M222.703,92.568c-0.588-5.656-1.566-11.265-2.925-16.787h24.767v16.787H222.703z M206.604,110.425
		c-0.155,4.501-0.624,8.985-1.403,13.421c-1.202,6.517-2.625,12.372-4.159,17.786c-13.738-3.093-15.1-10.595-15.231-26.515
		C192.593,112.953,199.55,111.383,206.604,110.425z M429.201,294.01v-25.18h16.787v25.18H429.201z M445.988,100.961v151.082h-16.787
		V109.355c-0.011-9.267-7.52-16.776-16.787-16.787H261.333V75.781h159.475C434.708,75.796,445.973,87.061,445.988,100.961z
		 M195.506,58.523c-4.762-1.542-9.289-3.733-13.452-6.513c-11.359-8.78-24.678-14.673-38.815-17.174
		c2.575-4.893,5.111-9.417,7.386-13.26c12.143,3.645,23.216,10.19,32.265,19.069C187.955,45.95,192.206,51.974,195.506,58.523z
		 M96.66,20.203c12-3.164,24.495-4.003,36.81-2.47c-2.741,4.809-5.642,10.231-8.526,16.089c-1.278-0.006-2.567-0.008-3.948-0.008
		h-2.352l-0.019,0.004l-0.178,0.001c-30.534,0.706-45.474,15.579-52.341,26.43c-6.632-2.362-13.102-5.155-19.37-8.359
		C59.486,36.175,77.014,25.05,96.66,20.203z M129.341,202.605c-3.682-2.811-8.946-2.109-11.762,1.57
		c-10.672,13.955-58.262,25.389-67.721,22.291c-3.771-1.234-3.771-1.234-3.172-7.025c0.237-1.983,0.371-3.978,0.402-5.975
		c1.017-6.796-3.613-13.149-10.393-14.262c-0.262-0.061-0.557-0.098-0.672-0.115c-1.566-1.533-1.763-3.217-1.763-14.988
		c0.176-8.725-6.509-16.062-15.213-16.697c1.049-1.869,2.623-4.238,3.811-6.021c6.292-7.892,10.243-17.392,11.402-27.418
		c0.114-5.21-0.429-10.413-1.615-15.488c1.011-0.194,2.028-0.425,3.033-0.545c5.71-0.281,11.424,0.44,16.885,2.131
		c1.893,0.455,3.771,0.902,5.615,1.287c0.566,0.117,1.143,0.176,1.721,0.176c4.299-0.006,7.899-3.26,8.338-7.537
		c0.439-4.277-2.424-8.194-6.633-9.074c-1.689-0.353-3.402-0.762-5.131-1.176c-7.399-2.218-15.143-3.055-22.844-2.467
		c-1.465,0.175-2.937,0.499-4.407,0.787c-0.01-0.123-0.043-0.233-0.052-0.357c-0.248-6.101,0.468-12.204,2.123-18.082
		c1.548-6.035,3.759-11.88,6.593-17.429c9.274,4.81,18.94,8.824,28.893,11.998l0.014,0.01l0.059,0.012
		c11.288,3.839,23.088,5.962,35.007,6.299c62.475,0,67.148,9.971,67.148,25.18c0,20.139,0.087,40.848,26.716,47.828
		c-3.402,8.502-7.331,16.783-11.765,24.795c-2.361,4.393-4.385,8.184-5.902,11.807c-0.44,1.05-0.66,2.179-0.646,3.317l-0.01,0.049
		c2.183,16.07,7.008,31.668,14.279,46.164l-55.82,0.086c-0.149-0.008-0.275-0.086-0.426-0.086c-0.154,0-0.281,0.079-0.433,0.088
		l-25.747,0.039c-0.956-4.195-2.312-8.289-4.049-12.226c9.81-3.605,18.621-9.494,25.705-17.18c1.353-1.768,1.948-4.001,1.655-6.208
		S131.109,203.957,129.341,202.605z M110.251,386.338v-83.934h16.787v75.541c0.011,9.267,7.52,16.776,16.787,16.787h58.754v16.787
		h-67.148C121.53,411.504,110.266,400.239,110.251,386.338z M219.365,411.519v-16.787h25.18v16.787H219.365z M479.562,487.06
		H269.726c-4.634-0.005-8.389-3.76-8.393-8.393v-92.328c0.005-4.634,3.76-8.389,8.393-8.393h218.229v100.721
		C487.951,483.3,484.196,487.055,479.562,487.06z"/>
</g>
<g>
</g>
<g>
</g>
<g>
</g>
<g>
</g>
<g>
</g>
<g>
</g>
<g>
</g>
<g>
</g>
<g>
</g>
<g>
</g>
<g>
</g>
<g>
</g>
<g>
</g>
<g>
</g>
<g>
</g>
</svg>
