<?xml version="1.0" encoding="iso-8859-1"?>
<!-- Generator: Adobe Illustrator 19.0.0, SVG Export Plug-In . SVG Version: 6.00 Build 0)  -->
<svg version="1.1" id="Capa_1" xmlns="http://www.w3.org/2000/svg" xmlns:xlink="http://www.w3.org/1999/xlink" x="0px" y="0px"
	 viewBox="0 0 503.851 503.851" style="enable-background:new 0 0 503.851 503.851;" xml:space="preserve">
<g transform="translate(-1)">
	<g transform="translate(2 2)">
		<path style="fill:#2296F3;" d="M376.843,65.392H185.725l6.463,33.574H368.45c4.63,0.014,8.38,3.764,8.393,8.393v176.262h33.574
			V98.966c0.003-8.905-3.534-17.446-9.831-23.743S385.748,65.39,376.843,65.392z"/>
		<g>
			<rect x="376.843" y="216.474" style="fill:#3F51B5;" width="33.574" height="67.148"/>
			<polygon style="fill:#3F51B5;" points="250.942,65.392 250.942,98.966 192.188,98.966 185.725,65.392 			"/>
		</g>
		<path style="fill:#2296F3;" d="M318.089,384.343H141.827c-4.63-0.014-8.38-3.763-8.393-8.393V199.687H99.86v184.656
			c-0.002,8.905,3.534,17.446,9.831,23.743c6.297,6.297,14.838,9.833,23.743,9.831h184.656V384.343z"/>
		<g>
			<rect x="99.86" y="199.687" style="fill:#3F51B5;" width="33.574" height="92.328"/>
			<rect x="250.942" y="384.343" style="fill:#3F51B5;" width="67.148" height="33.574"/>
		</g>
		<path style="fill:#37474F;" d="M212.584,91.999c-1.264-12.389-4.523-24.492-9.652-35.84c-4.039-8.624-9.453-16.533-16.031-23.418
			c-9.206-9.176-20.409-16.1-32.734-20.228c-5.533-1.975-11.237-3.436-17.039-4.365c-9.285-1.605-18.748-1.915-28.118-0.923
			c-5.588,0.439-11.123,1.394-16.535,2.854c-24.668,6.084-46.095,21.329-59.929,42.639c-5.235,8.275-9.09,17.347-11.415,26.859
			c-1.865,6.745-2.658,13.741-2.35,20.732c0.084,0.671,0.084,1.343,0.168,1.93c0.365,2.778,0.926,5.527,1.679,8.226
			c0.588,2.686,1.343,5.288,1.93,8.142c1.01,4.317,1.461,8.746,1.343,13.178c-0.504,19.641-29.965,37.77-8.561,41.967
			c2.26-0.062,4.448,0.797,6.062,2.38c1.614,1.583,2.516,3.753,2.5,6.013c0,12.506,0,16.703,4.281,20.9
			c4.281,4.197,8.477,0,8.477,8.393c0,8.142-3.945,16.283,7.386,20.564h0.084c0.342,0.19,0.71,0.331,1.091,0.42
			c9.403,1.37,18.99,0.711,28.118-1.93c6.108-1.396,12.133-3.133,18.046-5.204l0.168,0.42c3.581,5.442,6.115,11.506,7.47,17.878
			c0.88,3.786,4.255,6.465,8.142,6.463h82.508c2.887,0.02,5.58-1.455,7.118-3.899c1.538-2.444,1.703-5.509,0.437-8.104
			c-6.7-13.385-11.233-27.749-13.43-42.555v-0.084c8.167-14.91,15.236-30.395,21.151-46.332c2.807-8.39,4.996-16.974,6.547-25.684
			c0.868-4.828,1.429-9.706,1.679-14.605C213.351,103.184,213.155,97.576,212.584,91.999z M174.058,96.952
			c0.084,0.336,0.168,0.755,0.252,1.091c-0.145-0.63-0.342-1.248-0.588-1.847C173.806,96.448,173.974,96.7,174.058,96.952z"/>
		<path style="fill:#607D8B;" d="M191.516,91.999c-0.602-6.272-1.754-12.479-3.441-18.55c-1.578-5.929-3.656-11.713-6.211-17.29
			c-4.039-8.624-9.453-16.533-16.031-23.418c-9.206-9.176-20.409-16.1-32.734-20.228c-5.533-1.975-11.237-3.436-17.039-4.365
			c-2.332-0.431-4.686-0.74-7.05-0.923c-1.427,0.084-2.77,0.252-4.197,0.42c-2.266,0.252-4.449,0.671-6.631,1.091
			c-1.93,0.42-3.777,0.839-5.708,1.343c-24.668,6.084-46.095,21.329-59.929,42.639c-5.235,8.275-9.09,17.347-11.415,26.859
			c-1.865,6.745-2.658,13.741-2.35,20.732c0.084,0.671,0.084,1.343,0.168,1.93c0.365,2.778,0.926,5.527,1.679,8.226
			c0.588,2.686,1.343,5.288,1.93,8.142c1.01,4.317,1.461,8.746,1.343,13.178c-0.504,19.641-29.965,37.77-8.561,41.967
			c2.26-0.062,4.448,0.797,6.062,2.38c1.614,1.583,2.516,3.753,2.5,6.013c0,12.506,0,16.703,4.281,20.9
			c4.281,4.197,8.477,0,8.477,8.393c0,8.142-3.945,16.283,7.386,20.564h0.084c8.903-1.497,17.663-3.744,26.188-6.715l0.168,0.42
			c1.086,1.511,2.04,3.111,2.854,4.784c6.108-1.396,12.133-3.133,18.046-5.204l0.168,0.42c3.581,5.442,6.115,11.506,7.47,17.878
			c0.88,3.786,4.255,6.465,8.142,6.463h61.44c2.887,0.02,5.58-1.455,7.118-3.899c1.538-2.444,1.703-5.509,0.437-8.104
			c-6.7-13.385-11.233-27.749-13.43-42.555v-0.084c8.167-14.91,15.236-30.395,21.151-46.332c0.671-1.93,1.259-3.861,1.847-5.875
			c1.916-6.515,3.485-13.127,4.7-19.809c0.868-4.828,1.429-9.706,1.679-14.605C192.284,103.184,192.088,97.576,191.516,91.999z
			 M152.654,96.196c0.084,0.252,0.252,0.504,0.336,0.755c0.084,0.336,0.168,0.755,0.252,1.091
			C153.097,97.412,152.9,96.795,152.654,96.196z"/>
		<path style="fill:#2E7D32;" d="M213.171,108.786c-0.25,4.899-0.811,9.777-1.679,14.605c-1.551,8.71-3.739,17.294-6.547,25.684
			c-6.791-0.357-13.391-2.374-19.221-5.875c1.916-6.515,3.485-13.127,4.7-19.809c0.868-4.828,1.429-9.706,1.679-14.605
			c0.18-5.602-0.016-11.211-0.588-16.787c-0.602-6.272-1.754-12.479-3.441-18.55c-1.578-5.929-3.656-11.713-6.211-17.29
			c-4.039-8.624-9.453-16.533-16.031-23.418c-9.206-9.176-20.409-16.1-32.734-20.228c-5.533-1.975-11.237-3.436-17.039-4.365
			c-2.332-0.431-4.686-0.74-7.05-0.923c9.37-0.992,18.833-0.681,28.118,0.923c5.802,0.928,11.505,2.389,17.039,4.365
			c12.325,4.129,23.529,11.052,32.734,20.228c6.578,6.885,11.993,14.794,16.031,23.418c5.129,11.348,8.389,23.451,9.652,35.84
			C213.155,97.576,213.351,103.184,213.171,108.786z"/>
		<path style="fill:#4CAF50;" d="M192.104,108.786c-0.25,4.899-0.81,9.777-1.679,14.605c-1.215,6.681-2.784,13.293-4.7,19.809
			c-8.981-6.211-10.156-16.451-10.24-29.377c-0.084-2.014-0.084-4.029-0.084-6.127c0.062-3.627-0.39-7.244-1.343-10.744
			c-4.113-13.849-18.13-20.312-50.109-22.159c-5.288-0.336-11.163-0.588-17.458-0.588c-2.182-0.084-4.365-0.084-6.631-0.084
			c-7.652-0.12-15.261-1.163-22.662-3.106c-5.573-1.37-11.066-3.052-16.451-5.036c-9.806-3.502-19.25-7.944-28.202-13.262
			c13.834-21.31,35.261-36.555,59.929-42.639c1.847-0.504,3.777-0.923,5.708-1.343c2.182-0.42,4.365-0.839,6.631-1.091
			c1.427-0.168,2.77-0.336,4.197-0.42c2.365,0.184,4.718,0.492,7.05,0.923c5.802,0.929,11.505,2.39,17.039,4.365
			c12.325,4.129,23.529,11.052,32.734,20.228c6.578,6.885,11.993,14.794,16.031,23.418c2.556,5.578,4.633,11.362,6.211,17.29
			c1.687,6.071,2.839,12.278,3.441,18.55C192.088,97.576,192.284,103.184,192.104,108.786z"/>
		<path style="fill:#607D8B;" d="M494.351,308.802v134.295c0,27.782-45.073,50.361-100.721,50.361c-4.281,0-8.477-0.168-12.59-0.42
			c-49.689-3.106-88.131-24.257-88.131-49.941V308.802c0-25.684,38.442-46.835,88.131-49.941c4.113-0.252,8.31-0.42,12.59-0.42
			C449.279,258.441,494.351,281.02,494.351,308.802z"/>
		<path style="fill:#CFD8DC;" d="M469.171,308.802v134.295c0,25.684-38.442,46.835-88.131,49.941
			c-49.689-3.106-88.131-24.257-88.131-49.941V308.802c0-25.684,38.442-46.835,88.131-49.941
			C430.729,261.967,469.171,283.118,469.171,308.802z"/>
	</g>
	<path d="M420.81,253.617V100.966c-0.027-23.167-18.801-41.94-41.967-41.967H214.247c-4.505-11.165-11.079-21.378-19.375-30.102
		C167.363,3.303,128.519-6.132,92.335,3.991C66.147,10.611,43.36,26.74,28.41,49.237c-0.392,0.353-0.748,0.744-1.063,1.167
		c-0.121,0.285-0.224,0.577-0.311,0.875c-5.46,8.755-9.522,18.308-12.042,28.313c-2.089,7.589-2.955,15.462-2.566,23.324
		c0.436,4.85,1.328,9.649,2.664,14.332c1.613,5.282,2.416,10.777,2.381,16.299c-1.274,6.806-4.231,13.184-8.602,18.553
		c-5.111,7.693-9.934,14.959-6.738,22.627c2.706,5.138,7.789,8.595,13.562,9.225c0.357,0.07,1.032,0.127,1.393,0.152
		c0.123,0.008,0.279,0.033,0.381,0.049c0,13.484,0.008,20.262,6.791,26.914c1.695,1.679,3.746,2.956,6,3.738
		c-0.062,0.975-0.168,1.943-0.266,2.902c-1.406,5.224-0.644,10.794,2.113,15.448c2.758,4.654,7.277,7.998,12.535,9.273
		c3.021,0.845,6.152,1.228,9.287,1.135c12.043-0.453,23.966-2.556,35.437-6.249c1.512,3.229,2.681,6.608,3.489,10.081
		c0.227,1.001,0.549,1.978,0.961,2.919c-0.18,0.563-0.297,1.144-0.35,1.733v134.295c0.027,23.167,18.801,41.94,41.967,41.967
		h151.082v16.787c0,32.947,47.93,58.754,109.115,58.754c61.188,0,109.115-25.807,109.115-58.754V310.802
		C504.745,282.545,469.448,259.594,420.81,253.617z M487.958,377.95c0,19.848-37.918,41.967-92.328,41.967
		s-92.328-22.119-92.328-41.967v-35.516c19.155,16.401,52.953,27.122,92.328,27.122c39.377,0,73.174-10.722,92.328-27.122V377.95z
		 M143.827,377.95V260.441h47.848c5.763,0.006,11.125-2.947,14.2-7.821c3.075-4.873,3.433-10.984,0.948-16.183
		c-5.799-11.892-10.002-24.499-12.499-37.492c1.176-2.549,2.654-5.395,4.433-8.713c11.161-19.672,18.922-41.086,22.959-63.34
		c1.006-5.793,1.568-11.654,1.682-17.533H370.45v144.258c-48.636,5.977-83.934,28.928-83.934,57.185v67.148H143.827z
		 M110.253,260.441h16.787v25.18h-16.787V260.441z M117.574,50.701c-2.166,5.576-3.932,11.299-5.286,17.126
		c-3.372-0.065-6.838-0.099-10.428-0.099c-6.286-0.142-12.538-0.962-18.649-2.445C91.965,55.608,104.533,50.275,117.574,50.701z
		 M135.338,51.55c0.926,0.025,1.849-0.106,2.731-0.388c12.697,1.695,24.69,6.823,34.689,14.829
		c9.003,6.001,19.283,9.816,30.02,11.143c1.474,5.4,2.525,10.906,3.145,16.469c-7.254,0.925-14.426,2.402-21.455,4.418
		c-4.948-19.837-23.797-27.233-55.032-29.464C131.007,62.758,132.979,57.075,135.338,51.55z M222.71,92.573
		c-0.588-5.656-1.566-11.265-2.926-16.787h24.764v16.787H222.71z M206.611,110.428c-0.155,4.5-0.624,8.984-1.403,13.419
		c-1.202,6.519-2.627,12.376-4.161,17.79c-13.739-3.093-15.102-10.596-15.233-26.516
		C192.597,112.958,199.556,111.387,206.611,110.428L206.611,110.428z M487.958,310.802c0,19.848-37.918,41.967-92.328,41.967
		s-92.328-22.119-92.328-41.967c0-19.848,37.918-41.967,92.328-41.967S487.958,290.954,487.958,310.802z M395.63,252.048
		c-2.838,0-5.616,0.112-8.393,0.221v-25.401h16.787v25.401C401.246,252.16,398.469,252.048,395.63,252.048z M404.024,100.966
		v109.115h-16.787V109.359c-0.009-9.267-7.52-16.778-16.787-16.787H261.335V75.786h117.508
		C392.744,75.801,404.008,87.066,404.024,100.966z M195.507,58.528c-4.762-1.541-9.288-3.732-13.451-6.512
		c-11.359-8.781-24.679-14.675-38.818-17.174c2.577-4.899,5.114-9.421,7.387-13.259c12.142,3.643,23.213,10.187,32.259,19.068
		C187.952,45.954,192.205,51.978,195.507,58.528z M96.671,20.208c11.997-3.163,24.488-4,36.799-2.468
		c-2.738,4.801-5.638,10.221-8.522,16.087c-1.279-0.006-2.568-0.008-3.953-0.008h-2.348l-0.019,0.004l-0.178,0
		c-30.545,0.706-45.479,15.58-52.34,26.43c-6.632-2.362-13.103-5.154-19.372-8.357C59.49,36.181,77.022,25.055,96.671,20.208z
		 M129.339,202.609c-3.685-2.808-8.947-2.106-11.766,1.57c-10.664,13.947-58.279,25.373-67.713,22.291
		c-3.771-1.23-3.771-1.23-3.168-7.025c0.236-1.984,0.368-3.978,0.398-5.975c1.018-6.795-3.609-13.148-10.389-14.262
		c-0.266-0.061-0.557-0.098-0.68-0.119c-1.566-1.537-1.763-3.217-1.763-14.984c0.176-8.725-6.509-16.062-15.213-16.697
		c1.053-1.869,2.627-4.234,3.811-6.021c6.292-7.89,10.241-17.389,11.398-27.414c0.118-5.211-0.422-10.415-1.607-15.491
		c1.012-0.194,2.029-0.426,3.033-0.546c5.711-0.276,11.426,0.445,16.889,2.131c1.889,0.455,3.762,0.902,5.611,1.287
		c0.566,0.117,1.143,0.176,1.721,0.176c4.301-0.003,7.904-3.258,8.343-7.536c0.439-4.279-2.427-8.197-6.639-9.074
		c-1.689-0.353-3.397-0.762-5.127-1.176c-7.4-2.217-15.145-3.054-22.848-2.467c-1.463,0.175-2.934,0.498-4.404,0.786
		c-0.01-0.123-0.043-0.233-0.051-0.356c-0.251-6.101,0.463-12.204,2.115-18.082c1.549-6.035,3.762-11.881,6.596-17.43
		c9.278,4.812,18.949,8.827,28.907,12.002l0.009,0.006l0.037,0.008c11.292,3.841,23.097,5.966,35.02,6.303
		c62.475,0,67.148,9.971,67.148,25.18c0,20.138,0.087,40.846,26.716,47.827c-3.402,8.498-7.331,16.775-11.765,24.784
		c-2.357,4.397-4.39,8.197-5.906,11.82c-0.439,1.052-0.658,2.183-0.643,3.323l-0.009,0.042c2.187,16.068,7.01,31.666,14.275,46.164
		l-55.802,0.089c-0.154-0.008-0.284-0.089-0.44-0.089c-0.158,0-0.29,0.081-0.447,0.09l-25.738,0.041
		c-0.954-4.197-2.309-8.292-4.045-12.23c9.811-3.605,18.622-9.494,25.705-17.18c1.352-1.768,1.947-4.002,1.653-6.208
		C132.267,205.961,131.108,203.961,129.339,202.609z M110.253,386.343v-83.934h16.787v75.541c0.009,9.267,7.52,16.778,16.787,16.787
		h100.721v16.787H135.433C121.533,411.508,110.268,400.243,110.253,386.343z M261.335,411.523v-16.787h25.18v16.787H261.335z
		 M395.63,487.064c-54.41,0-92.328-22.119-92.328-41.967v-35.516c19.155,16.401,52.953,27.122,92.328,27.122
		c39.377,0,73.174-10.722,92.328-27.122v35.516C487.958,464.946,450.04,487.064,395.63,487.064z"/>
</g>
<g>
</g>
<g>
</g>
<g>
</g>
<g>
</g>
<g>
</g>
<g>
</g>
<g>
</g>
<g>
</g>
<g>
</g>
<g>
</g>
<g>
</g>
<g>
</g>
<g>
</g>
<g>
</g>
<g>
</g>
</svg>
