<?xml version="1.0" encoding="iso-8859-1"?>
<!-- Generator: Adobe Illustrator 19.0.0, SVG Export Plug-In . SVG Version: 6.00 Build 0)  -->
<svg version="1.1" id="Capa_1" xmlns="http://www.w3.org/2000/svg" xmlns:xlink="http://www.w3.org/1999/xlink" x="0px" y="0px"
	 viewBox="0 0 512 512" style="enable-background:new 0 0 512 512;" xml:space="preserve">
<g>
	<g transform="translate(1 1)">
		<path style="fill:#607D8B;" d="M144.067,7.533h221.867c18.851,0,34.133,15.282,34.133,34.133v426.667
			c0,18.851-15.282,34.133-34.133,34.133H144.067c-18.851,0-34.133-15.282-34.133-34.133V41.667
			C109.933,22.815,125.215,7.533,144.067,7.533z"/>
		<path style="fill:#CFD8DC;" d="M144.067,7.533h196.267c18.851,0,34.133,15.282,34.133,34.133v426.667
			c0,18.851-15.282,34.133-34.133,34.133H144.067c-18.851,0-34.133-15.282-34.133-34.133V41.667
			C109.933,22.815,125.215,7.533,144.067,7.533z"/>
		<path style="fill:#3F51B5;" d="M295.652,41.667h-81.304c-6.464,0-12.374-3.652-15.265-9.434l-12.35-24.699h136.533l-12.35,24.699
			C308.026,38.014,302.117,41.667,295.652,41.667z"/>
		<path style="fill:#C52828;" d="M365.933,127v204.8c-0.028,9.414-7.652,17.039-17.067,17.067h-25.6
			c9.414-0.028,17.039-7.653,17.067-17.067V127c-0.027-9.414-7.652-17.039-17.067-17.067h25.6
			C358.281,109.961,365.906,117.586,365.933,127z"/>
		<path style="fill:#F44335;" d="M340.333,127v204.8c-0.028,9.414-7.652,17.039-17.067,17.067l-35.84,47.787
			c-2.203,2.941-6.041,4.141-9.526,2.979c-3.486-1.162-5.836-4.425-5.834-8.099v-42.667H161.133
			c-9.414-0.028-17.039-7.653-17.067-17.067V127c0.027-9.414,7.652-17.039,17.067-17.067h162.133
			C332.681,109.961,340.306,117.586,340.333,127z"/>
	</g>
	<g>
		<path d="M264.533,358.371v34.146c-0.073,7.37,4.656,13.93,11.671,16.192c1.782,0.598,3.65,0.905,5.53,0.908
			c5.34-0.009,10.359-2.554,13.521-6.858l33.279-44.388h21.333c14.132-0.015,25.585-11.468,25.6-25.6V128
			c-0.015-14.132-11.468-25.585-25.6-25.6H162.133c-14.132,0.015-25.585,11.468-25.6,25.6v204.771
			c0.015,14.132,11.468,25.585,25.6,25.6H264.533z M153.6,332.771V128c0.006-4.71,3.823-8.527,8.533-8.533h187.733
			c4.71,0.006,8.527,3.823,8.533,8.533v204.771c-0.006,4.71-3.823,8.527-8.533,8.533h-25.6c-2.686,0.001-5.216,1.265-6.829,3.413
			l-35.838,47.8v-42.679c0-4.713-3.821-8.533-8.533-8.533H162.133C157.423,341.298,153.606,337.481,153.6,332.771z"/>
		<path d="M230.4,256h17.067c9.422-0.009,17.057-7.645,17.067-17.067v-17.067c-0.009-9.422-7.645-17.057-17.067-17.067H230.4
			c-9.422,0.009-17.057,7.645-17.067,17.067v17.067C213.343,248.355,220.978,255.991,230.4,256z M230.4,221.867h17.067l0.012,17.067
			H230.4V221.867z"/>
		<path d="M281.6,273.067h-17.067c-9.422,0.009-17.057,7.645-17.067,17.067V307.2c0.009,9.422,7.645,17.057,17.067,17.067H281.6
			c9.422-0.009,17.057-7.645,17.067-17.067v-17.067C298.657,280.712,291.022,273.076,281.6,273.067z M264.533,307.2v-17.067H281.6
			l0.012,17.067H264.533z"/>
		<path d="M187.733,256c4.713,0,8.533-3.82,8.533-8.533v-34.133c0-4.713-3.821-8.533-8.533-8.533s-8.533,3.82-8.533,8.533v34.133
			C179.2,252.18,183.021,256,187.733,256z"/>
		<path d="M290.133,204.8c-4.713,0-8.533,3.82-8.533,8.533v34.133c0,4.713,3.821,8.533,8.533,8.533c4.713,0,8.533-3.82,8.533-8.533
			v-34.133C298.667,208.621,294.846,204.8,290.133,204.8z"/>
		<path d="M324.267,256c4.713,0,8.533-3.82,8.533-8.533v-34.133c0-4.713-3.82-8.533-8.533-8.533s-8.533,3.82-8.533,8.533v34.133
			C315.733,252.18,319.554,256,324.267,256z"/>
		<path d="M324.267,324.267c4.713,0,8.533-3.821,8.533-8.533V281.6c0-4.713-3.82-8.533-8.533-8.533s-8.533,3.82-8.533,8.533v34.133
			C315.733,320.446,319.554,324.267,324.267,324.267z"/>
		<path d="M221.867,324.267c4.713,0,8.533-3.821,8.533-8.533V281.6c0-4.713-3.821-8.533-8.533-8.533
			c-4.713,0-8.533,3.82-8.533,8.533v34.133C213.333,320.446,217.154,324.267,221.867,324.267z"/>
		<path d="M187.733,324.267c4.713,0,8.533-3.821,8.533-8.533V281.6c0-4.713-3.821-8.533-8.533-8.533s-8.533,3.82-8.533,8.533v34.133
			C179.2,320.446,183.021,324.267,187.733,324.267z"/>
		<path d="M264.533,187.733H281.6c9.422-0.009,17.057-7.645,17.067-17.067V153.6c-0.009-9.422-7.645-17.057-17.067-17.067h-17.067
			c-9.422,0.009-17.057,7.645-17.067,17.067v17.067C247.476,180.088,255.112,187.724,264.533,187.733z M264.533,153.6H281.6
			l0.012,17.067h-17.079V153.6z"/>
		<path d="M324.267,187.733c4.713,0,8.533-3.82,8.533-8.533v-34.133c0-4.713-3.82-8.533-8.533-8.533s-8.533,3.821-8.533,8.533V179.2
			C315.733,183.913,319.554,187.733,324.267,187.733z"/>
		<path d="M221.867,187.733c4.713,0,8.533-3.82,8.533-8.533v-34.133c0-4.713-3.821-8.533-8.533-8.533
			c-4.713,0-8.533,3.821-8.533,8.533V179.2C213.333,183.913,217.154,187.733,221.867,187.733z"/>
		<path d="M187.733,187.733c4.713,0,8.533-3.82,8.533-8.533v-34.133c0-4.713-3.821-8.533-8.533-8.533s-8.533,3.821-8.533,8.533
			V179.2C179.2,183.913,183.021,187.733,187.733,187.733z"/>
		<path d="M366.933,512c23.553-0.028,42.639-19.114,42.667-42.667V42.667C409.572,19.114,390.486,0.028,366.933,0H145.067
			c-23.553,0.028-42.639,19.114-42.667,42.667v426.667c0.028,23.553,19.114,42.639,42.667,42.667H366.933z M310.458,17.067
			l-6.175,12.35c-1.437,2.897-4.395,4.727-7.629,4.717h-81.308c-3.234,0.01-6.192-1.819-7.629-4.717l-6.175-12.35H310.458z
			 M119.467,469.333V42.667c0.015-14.132,11.468-25.585,25.6-25.6h37.392l9.992,19.983c4.312,8.694,13.191,14.182,22.896,14.15
			h81.308c9.705,0.032,18.584-5.456,22.896-14.15l9.992-19.983h37.392c14.132,0.015,25.585,11.468,25.6,25.6v426.667
			c-0.015,14.132-11.468,25.585-25.6,25.6H145.067C130.935,494.918,119.482,483.465,119.467,469.333z"/>
		<path d="M307.2,460.8H204.8c-4.713,0-8.533,3.821-8.533,8.533c0,4.713,3.821,8.533,8.533,8.533h102.4
			c4.713,0,8.533-3.821,8.533-8.533C315.733,464.621,311.913,460.8,307.2,460.8z"/>
	</g>
</g>
<g>
</g>
<g>
</g>
<g>
</g>
<g>
</g>
<g>
</g>
<g>
</g>
<g>
</g>
<g>
</g>
<g>
</g>
<g>
</g>
<g>
</g>
<g>
</g>
<g>
</g>
<g>
</g>
<g>
</g>
</svg>
