<?xml version="1.0" encoding="iso-8859-1"?>
<!-- Generator: Adobe Illustrator 19.0.0, SVG Export Plug-In . SVG Version: 6.00 Build 0)  -->
<svg version="1.1" id="Capa_1" xmlns="http://www.w3.org/2000/svg" xmlns:xlink="http://www.w3.org/1999/xlink" x="0px" y="0px"
	 viewBox="0 0 512 512" style="enable-background:new 0 0 512 512;" xml:space="preserve">
<g>
	<g transform="translate(1 1)">
		<path style="fill:#607D8B;" d="M144.067,7.533h221.867c18.851,0,34.133,15.282,34.133,34.133v426.667
			c0,18.851-15.282,34.133-34.133,34.133H144.067c-18.851,0-34.133-15.282-34.133-34.133V41.667
			C109.933,22.815,125.215,7.533,144.067,7.533z"/>
		<path style="fill:#CFD8DC;" d="M144.067,7.533h196.267c18.851,0,34.133,15.282,34.133,34.133v426.667
			c0,18.851-15.282,34.133-34.133,34.133H144.067c-18.851,0-34.133-15.282-34.133-34.133V41.667
			C109.933,22.815,125.215,7.533,144.067,7.533z"/>
		<path style="fill:#3F51B5;" d="M295.652,41.667h-81.304c-6.464,0-12.374-3.652-15.265-9.434l-12.35-24.699h136.533l-12.35,24.699
			C308.026,38.014,302.117,41.667,295.652,41.667z"/>
		<g>
			<path style="fill:#2296F3;" d="M331.8,340.333h8.533c14.138,0,25.6,11.462,25.6,25.6V434.2H144.067v-68.267
				c0-14.138,11.462-25.6,25.6-25.6H331.8z"/>
			<rect x="229.4" y="246.467" style="fill:#2296F3;" width="51.2" height="85.333"/>
		</g>
		<g>
			<path style="fill:#FFEB3A;" d="M178.2,169.667v68.267c-18.851,0-34.133-15.282-34.133-34.133S159.349,169.667,178.2,169.667z"/>
			<path style="fill:#FFEB3A;" d="M331.8,237.933v-68.267c18.851,0,34.133,15.282,34.133,34.133S350.651,237.933,331.8,237.933z"/>
		</g>
		<path style="fill:#0377BC;" d="M195.267,144.067h119.467c9.426,0,17.067,7.641,17.067,17.067v85.333
			c0,9.426-7.641,17.067-17.067,17.067H195.267c-9.426,0-17.067-7.641-17.067-17.067v-85.333
			C178.2,151.708,185.841,144.067,195.267,144.067z"/>
		<path style="fill:#02A9F4;" d="M195.267,144.067h93.867c9.426,0,17.067,7.641,17.067,17.067v85.333
			c0,9.426-7.641,17.067-17.067,17.067h-93.867c-9.426,0-17.067-7.641-17.067-17.067v-85.333
			C178.2,151.708,185.841,144.067,195.267,144.067z"/>
		<circle style="fill:#FFEB3A;" cx="237.933" cy="92.867" r="17.067"/>
		<path style="fill:#0377BC;" d="M331.8,331.8v102.4H178.2V331.8c0.027-9.414,7.652-17.039,17.067-17.067h119.467
			C324.148,314.761,331.773,322.386,331.8,331.8z"/>
		<path style="fill:#02A9F4;" d="M306.2,331.8v102.4h-128V331.8c0.027-9.414,7.652-17.039,17.067-17.067h93.867
			C298.548,314.761,306.173,322.386,306.2,331.8z"/>
		<path style="fill:#FFEB3A;" d="M297.667,357.4v76.8h-85.333v-76.8c0-4.713,3.821-8.533,8.533-8.533h68.267
			C293.846,348.867,297.667,352.687,297.667,357.4z"/>
	</g>
	<g>
		<path d="M306.425,230.4c0-4.713-3.82-8.533-8.533-8.533h-83.783c-4.713,0-8.533,3.82-8.533,8.533s3.82,8.533,8.533,8.533h83.783
			C302.605,238.933,306.425,235.113,306.425,230.4z"/>
		<path d="M221.867,204.8c4.713,0,8.533-3.821,8.533-8.533V179.2c0-4.713-3.821-8.533-8.533-8.533c-4.713,0-8.533,3.821-8.533,8.533
			v17.067C213.333,200.98,217.154,204.8,221.867,204.8z"/>
		<path d="M290.133,204.8c4.713,0,8.533-3.821,8.533-8.533V179.2c0-4.713-3.821-8.533-8.533-8.533c-4.713,0-8.533,3.821-8.533,8.533
			v17.067C281.6,200.98,285.421,204.8,290.133,204.8z"/>
		<path d="M366.933,0H145.067c-23.553,0.028-42.639,19.114-42.667,42.667v426.667c0.028,23.553,19.114,42.639,42.667,42.667h221.867
			c23.553-0.028,42.639-19.114,42.667-42.667V42.667C409.572,19.114,390.486,0.028,366.933,0z M310.458,17.067l-6.175,12.35
			c-1.437,2.897-4.395,4.727-7.629,4.717h-81.308c-3.234,0.01-6.192-1.819-7.629-4.717l-6.175-12.35H310.458z M392.533,469.333
			c-0.015,14.132-11.468,25.585-25.6,25.6H145.067c-14.132-0.015-25.585-11.468-25.6-25.6V42.667
			c0.015-14.132,11.468-25.585,25.6-25.6h37.392l9.992,19.983c4.312,8.694,13.191,14.182,22.896,14.15h81.308
			c9.705,0.032,18.584-5.456,22.896-14.15l9.992-19.983h37.392c14.132,0.015,25.585,11.468,25.6,25.6V469.333z"/>
		<path d="M307.2,460.8H204.8c-4.713,0-8.533,3.821-8.533,8.533c0,4.713,3.821,8.533,8.533,8.533h102.4
			c4.713,0,8.533-3.821,8.533-8.533C315.733,464.621,311.913,460.8,307.2,460.8z"/>
		<path d="M341.333,247.467v-0.862c19.865-4.055,34.133-21.529,34.133-41.804s-14.268-37.749-34.133-41.804v-0.862
			c-0.015-14.132-11.468-25.585-25.6-25.6H276.6l11.034-11.034c1.86-1.858,2.76-4.471,2.437-7.08
			c-0.322-2.61-1.831-4.925-4.087-6.274L264.016,98.99c2.72-12.423-3.928-24.994-15.727-29.74
			c-11.799-4.745-25.299-0.278-31.939,10.569s-4.476,24.902,5.117,33.25c9.593,8.349,23.812,8.55,33.638,0.477l12.723,7.62
			l-15.363,15.366h-56.2c-14.132,0.015-25.585,11.468-25.6,25.6v0.862c-19.865,4.055-34.133,21.529-34.133,41.804
			s14.268,37.749,34.133,41.804v0.862c0.015,14.132,11.468,25.585,25.6,25.6h27.172c-1.012,2.733-1.544,5.62-1.572,8.533v17.067
			c0.029,2.914,0.561,5.801,1.573,8.533h-27.173c-14.132,0.015-25.585,11.468-25.6,25.6c-18.842,0.022-34.112,15.291-34.133,34.133
			V435.2c0,4.713,3.821,8.533,8.533,8.533h221.867c4.713,0,8.533-3.821,8.533-8.533v-68.267
			c-0.022-18.842-15.291-34.112-34.133-34.133c-0.015-14.132-11.468-25.585-25.6-25.6h-27.172c1.012-2.733,1.544-5.62,1.572-8.533
			V281.6c-0.029-2.914-0.561-5.801-1.572-8.533h27.172C329.865,273.051,341.318,261.599,341.333,247.467z M238.933,102.4
			c-4.713,0-8.533-3.821-8.533-8.533c0-4.713,3.821-8.533,8.533-8.533c4.713,0,8.533,3.821,8.533,8.533
			C247.461,98.577,243.644,102.394,238.933,102.4z M358.4,204.8c-0.012,10.845-6.846,20.51-17.067,24.137v-48.275
			C351.554,184.29,358.388,193.955,358.4,204.8z M153.6,204.8c0.012-10.845,6.846-20.51,17.067-24.137v48.275
			C160.446,225.31,153.612,215.645,153.6,204.8z M187.733,247.467v-85.333c0.006-4.71,3.823-8.527,8.533-8.533h119.467
			c4.71,0.006,8.527,3.823,8.533,8.533v85.333c-0.006,4.71-3.823,8.527-8.533,8.533H196.267
			C191.556,255.994,187.739,252.177,187.733,247.467z M153.6,366.933c0.009-9.422,7.645-17.057,17.067-17.067v76.8H153.6V366.933z
			 M221.867,426.667V358.4h68.267v68.267H221.867z M358.4,366.933v59.733h-17.067v-76.8
			C350.755,349.876,358.391,357.512,358.4,366.933z M324.267,332.8v93.867H307.2V358.4c-0.009-9.422-7.645-17.057-17.067-17.067
			h-68.267c-9.422,0.009-17.057,7.645-17.067,17.067v68.267h-17.067V332.8c0.006-4.71,3.823-8.527,8.533-8.533h119.467
			C320.444,324.273,324.261,328.09,324.267,332.8z M273.067,281.6v17.067c-0.006,4.71-3.823,8.527-8.533,8.533h-17.067
			c-4.71-0.006-8.527-3.823-8.533-8.533V281.6c0.006-4.71,3.823-8.527,8.533-8.533h17.067
			C269.244,273.073,273.061,276.89,273.067,281.6z"/>
	</g>
</g>
<g>
</g>
<g>
</g>
<g>
</g>
<g>
</g>
<g>
</g>
<g>
</g>
<g>
</g>
<g>
</g>
<g>
</g>
<g>
</g>
<g>
</g>
<g>
</g>
<g>
</g>
<g>
</g>
<g>
</g>
</svg>
