<?xml version="1.0" encoding="iso-8859-1"?>
<!-- Generator: Adobe Illustrator 19.0.0, SVG Export Plug-In . SVG Version: 6.00 Build 0)  -->
<svg version="1.1" id="Capa_1" xmlns="http://www.w3.org/2000/svg" xmlns:xlink="http://www.w3.org/1999/xlink" x="0px" y="0px"
	 viewBox="0 0 512.003 512.003" style="enable-background:new 0 0 512.003 512.003;" xml:space="preserve">
<g>
	<g transform="translate(1 1)">
		<rect x="434.201" y="92.87" style="fill:#607D8B;" width="34.133" height="102.4"/>
		<polygon style="fill:#37474F;" points="178.201,331.803 178.201,476.87 58.734,476.87 75.801,331.803 		"/>
		<polygon style="fill:#607D8B;" points="152.601,331.803 152.601,476.87 58.734,476.87 75.801,331.803 		"/>
		<polygon style="fill:#37474F;" points="212.334,101.403 169.667,263.536 101.401,263.536 144.067,101.403 		"/>
		<g>
			<polygon style="fill:#607D8B;" points="195.267,101.403 144.067,263.536 101.401,263.536 144.067,101.403 			"/>
			<rect x="227.182" y="33.136" style="fill:#607D8B;" width="186.027" height="68.267"/>
		</g>
		<path style="fill:#1566C0;" d="M195.267,263.536v68.267c-0.014,4.707-3.826,8.519-8.533,8.533H67.267
			c-23.564,0-42.667-19.103-42.667-42.667s19.103-42.667,42.667-42.667h119.467C191.441,255.017,195.253,258.829,195.267,263.536z"
			/>
		<path style="fill:#2296F3;" d="M169.667,263.536v68.267c-0.014,4.707-3.826,8.519-8.533,8.533H67.267
			c-23.564,0-42.667-19.103-42.667-42.667s19.103-42.667,42.667-42.667h93.867C165.841,255.017,169.653,258.829,169.667,263.536z"/>
		<path style="fill:#1566C0;" d="M229.401,485.403c-0.068,9.397-7.669,16.998-17.067,17.067H24.601
			c-9.414-0.028-17.039-7.653-17.067-17.067c-0.024-4.528,1.793-8.871,5.035-12.032c3.161-3.241,7.504-5.059,12.032-5.035h187.733
			C221.748,468.364,229.373,475.989,229.401,485.403z"/>
		<g>
			<path style="fill:#2296F3;" d="M203.801,485.403c-0.068,9.397-7.669,16.998-17.067,17.067H24.601
				c-9.414-0.028-17.039-7.653-17.067-17.067c-0.024-4.528,1.793-8.871,5.035-12.032c3.161-3.241,7.504-5.059,12.032-5.035h162.133
				C196.148,468.364,203.773,475.989,203.801,485.403z"/>
			<circle style="fill:#2296F3;" cx="178.201" cy="67.27" r="59.733"/>
		</g>
		<circle style="fill:#3F51B5;" cx="178.201" cy="67.27" r="25.6"/>
		<circle style="fill:#2296F3;" cx="451.267" cy="67.27" r="51.2"/>
		<circle style="fill:#3F51B5;" cx="451.267" cy="67.27" r="17.067"/>
		<path style="fill:#2296F3;" d="M502.467,222.629v6.774c0,9.426-7.641,17.067-17.067,17.067c-9.426,0-17.067-7.641-17.067-17.067
			v-7.495c0.206-8.586-5.745-16.096-14.151-17.859c-4.961-0.845-10.041,0.537-13.891,3.778c-3.85,3.241-6.077,8.011-6.091,13.043
			v8.533c0,9.426-7.641,17.067-17.067,17.067c-9.426,0-17.067-7.641-17.067-17.067v-8.533c0.013-14.746,6.376-28.772,17.465-38.493
			c11.088-9.721,25.827-14.195,40.448-12.277C483.849,174.038,502.842,196.464,502.467,222.629z"/>
	</g>
	<g>
		<path d="M179.201,102.403c18.851,0,34.133-15.282,34.133-34.133s-15.282-34.133-34.133-34.133s-34.133,15.282-34.133,34.133
			C145.089,87.112,160.358,102.381,179.201,102.403z M179.201,51.203c9.426,0,17.067,7.641,17.067,17.067
			s-7.641,17.067-17.067,17.067c-9.426,0-17.067-7.641-17.067-17.067C162.144,58.848,169.779,51.212,179.201,51.203z"/>
		<path d="M512.001,68.27c0.023-24.041-14.382-45.748-36.543-55.067s-47.75-4.431-64.915,12.4H232.407
			c-16.22-20.276-42.545-29.584-67.905-24.011c-25.36,5.574-45.356,25.063-51.579,50.272s2.406,51.764,22.259,68.499L96.095,247.47
			H68.267c-28.038-0.013-50.866,22.538-51.196,50.574s21.96,51.118,49.991,51.765L52.263,460.803H25.601
			c-14.138,0-25.6,11.462-25.6,25.6s11.462,25.6,25.6,25.6h187.733c14.138,0,25.6-11.462,25.6-25.6s-11.462-25.6-25.6-25.6h-25.6
			V349.87c9.422-0.009,17.057-7.645,17.067-17.067v-26.317c23.122-3.018,85.333-18.84,85.333-101.683
			c0-86.954,36.983-93.867,85.333-93.867h35.075c4.721,4.602,10.169,8.393,16.125,11.221v45.853
			c-20.896,9.773-34.216,30.79-34.133,53.859v8.533c0,14.139,11.462,25.6,25.6,25.6c14.138,0,25.6-11.461,25.6-25.6v-8.533
			c0.008-2.514,1.124-4.897,3.05-6.512c1.925-1.649,4.49-2.344,6.983-1.892c4.277,1.096,7.207,5.03,7.033,9.442v7.496
			c0,14.139,11.462,25.6,25.6,25.6c14.138,0,25.6-11.461,25.6-25.6v-6.775c0.158-23.531-13.081-45.103-34.133-55.617v-45.854
			C498.684,112.279,511.965,91.311,512.001,68.27z M494.934,68.27c0,23.564-19.103,42.667-42.667,42.667
			c-23.564,0-42.667-19.103-42.667-42.667s19.103-42.667,42.667-42.667C475.82,25.631,494.906,44.717,494.934,68.27z M398.379,42.67
			c-7.794,16.177-7.794,35.023,0,51.2H242.441c6.701-16.409,6.701-34.791,0-51.2H398.379z M128.001,68.27
			c0-28.277,22.923-51.2,51.2-51.2s51.2,22.923,51.2,51.2s-22.923,51.2-51.2,51.2C150.937,119.439,128.032,96.534,128.001,68.27z
			 M150.099,129.93c15.406,7.351,33.018,8.618,49.317,3.548L164.363,247.47h-50.412L150.099,129.93z M221.867,486.403
			c-0.006,4.71-3.823,8.527-8.533,8.533H25.601c-4.713,0-8.533-3.82-8.533-8.533s3.821-8.533,8.533-8.533h187.733
			C218.044,477.876,221.861,481.693,221.867,486.403z M170.667,460.803H69.48L84.272,349.87h86.396V460.803z M179.201,332.803
			H68.267c-18.851,0-34.133-15.282-34.133-34.133c0-18.851,15.282-34.133,34.133-34.133h119.467l0.006,34.103l-0.006,0.031
			l0.006,0.031l0.006,34.103H179.201z M273.067,204.803c0,67.913-48.176,81.768-68.267,84.597v-24.864
			c-0.009-9.422-7.645-17.057-17.067-17.067h-5.513l38.475-125.117c4.344-3.326,8.275-7.159,11.711-11.416h72.448
			C285.722,125.871,273.067,153.604,273.067,204.803z M494.934,223.628v6.775c0,4.713-3.821,8.533-8.533,8.533
			c-4.713,0-8.533-3.821-8.533-8.533v-7.496c0.294-6.964-2.269-13.746-7.095-18.774c-4.826-5.029-11.498-7.868-18.468-7.859
			c-14.141,0.004-25.611,11.455-25.637,25.596v8.533c0,4.713-3.821,8.533-8.533,8.533s-8.533-3.821-8.533-8.533v-8.533
			c0.01-18.204,11.568-34.396,28.78-40.321l0.215-0.079c6.205-2.102,12.809-2.753,19.305-1.904c2.758,0.365,5.47,1.015,8.093,1.941
			l0.038,0.017C483.609,188.022,495.187,204.889,494.934,223.628z M460.801,162.763c-0.25-0.035-0.491-0.099-0.742-0.131
			c-5.427-0.663-10.919-0.586-16.325,0.228v-35.539c5.653,0.908,11.414,0.908,17.067,0V162.763z"/>
		<path d="M452.267,93.87c14.138,0,25.6-11.462,25.6-25.6s-11.462-25.6-25.6-25.6c-14.138,0-25.6,11.462-25.6,25.6
			C426.683,82.402,438.135,93.854,452.267,93.87z M452.267,59.736c4.713,0,8.533,3.821,8.533,8.533c0,4.713-3.821,8.533-8.533,8.533
			c-4.713,0-8.533-3.82-8.533-8.533C443.74,63.559,447.557,59.742,452.267,59.736z"/>
	</g>
</g>
<g>
</g>
<g>
</g>
<g>
</g>
<g>
</g>
<g>
</g>
<g>
</g>
<g>
</g>
<g>
</g>
<g>
</g>
<g>
</g>
<g>
</g>
<g>
</g>
<g>
</g>
<g>
</g>
<g>
</g>
</svg>
