<?xml version="1.0" encoding="iso-8859-1"?>
<!-- Generator: Adobe Illustrator 19.0.0, SVG Export Plug-In . SVG Version: 6.00 Build 0)  -->
<svg version="1.1" id="Capa_1" xmlns="http://www.w3.org/2000/svg" xmlns:xlink="http://www.w3.org/1999/xlink" x="0px" y="0px"
	 viewBox="0 0 512.121 512.121" style="enable-background:new 0 0 512.121 512.121;" xml:space="preserve">
<g transform="translate(-1 -1)">
	<g transform="translate(1 2)">
		<g>
			<circle style="fill:#FF9801;" cx="76.864" cy="485.413" r="17.067"/>
			<circle style="fill:#FF9801;" cx="435.264" cy="485.413" r="17.067"/>
			<circle style="fill:#FF9801;" cx="230.464" cy="485.413" r="17.067"/>
			<circle style="fill:#FF9801;" cx="298.731" cy="485.413" r="17.067"/>
			<circle style="fill:#FF9801;" cx="298.731" cy="417.146" r="17.067"/>
		</g>
		<path style="fill:#607D8B;" d="M503.531,246.479c-0.017,47.121-38.212,85.317-85.333,85.333h-25.6
			c47.128,0,85.333-38.205,85.333-85.333s-38.205-85.333-85.333-85.333h-1.024l0.085-1.28c0.658-5.236,0.971-10.51,0.939-15.787
			c0.035-70.461-53.58-129.363-123.733-135.936c4.254-0.416,8.526-0.615,12.8-0.597c36.214-0.01,70.948,14.371,96.555,39.978
			c25.607,25.607,39.989,60.341,39.978,96.555c0.032,5.277-0.281,10.551-0.939,15.787l-0.085,1.28h1.024
			C465.319,161.163,503.514,199.358,503.531,246.479z"/>
		<path style="fill:#CFD8DC;" d="M477.931,246.479c-0.017,47.121-38.212,85.317-85.333,85.333H93.931
			c-42.694,0.04-78.841-31.494-84.595-73.798s20.657-82.347,61.811-93.711c-4.453-12.254-3.597-25.809,2.363-37.405
			c5.96-11.596,16.483-20.182,29.039-23.694c4.129-1.209,8.412-1.813,12.715-1.792c3.594-0.011,7.177,0.419,10.667,1.28
			c8.425,1.937,16.14,6.194,22.272,12.288c12.695-58.07,61.482-101.267,120.661-106.837
			c70.153,6.573,123.768,65.475,123.733,135.936c0.033,5.277-0.281,10.551-0.939,15.787l-0.085,1.28h1.024
			C439.719,161.163,477.914,199.358,477.931,246.479z"/>
		<rect x="196.331" y="152.613" style="fill:#FF9801;" width="119.467" height="119.467"/>
		<path style="fill:#FFEB3A;" d="M247.531,195.279h17.067c4.713,0,8.533,3.821,8.533,8.533v17.067c0,4.713-3.82,8.533-8.533,8.533
			h-17.067c-4.713,0-8.533-3.82-8.533-8.533v-17.067C238.997,199.1,242.818,195.279,247.531,195.279z"/>
	</g>
	<g>
		<path d="M427.472,154.975c0.175-2.829,0.258-5.779,0.258-8.896C427.71,74.475,375.462,13.59,304.691,2.701
			s-138.906,31.472-160.452,99.758c-18.767-10.985-42.224-9.984-59.986,2.561s-26.55,34.317-22.472,55.677
			c-42.42,16.006-67.332,60.05-59.192,104.652s47.003,77.008,92.342,76.998h8.533v47.667l-31.633,31.634
			c-1.6,1.6-2.5,3.77-2.5,6.033v35.706c-11.755,4.156-18.806,16.176-16.698,28.465s12.763,21.271,25.231,21.271
			s23.123-8.982,25.231-21.271c2.108-12.289-4.943-24.309-16.698-28.465v-32.172l31.633-31.633c1.6-1.6,2.5-3.77,2.5-6.034v-51.2
			h25.6v51.2c0,4.713,3.82,8.533,8.533,8.533s8.533-3.82,8.533-8.533v-51.2h25.6v34.133c0.001,2.263,0.9,4.433,2.5,6.033
			l31.633,31.634v49.239c-11.755,4.156-18.806,16.176-16.698,28.465c2.108,12.289,12.763,21.271,25.231,21.271
			c12.468,0,23.123-8.982,25.231-21.271c2.108-12.289-4.943-24.309-16.698-28.465v-52.772c-0.001-2.263-0.9-4.433-2.5-6.033
			l-31.633-31.634v-30.6h56.2l29.133,29.133v23.639c-10.22,3.564-17.067,13.203-17.067,24.027c0,10.824,6.847,20.463,17.067,24.027
			v20.212c-11.755,4.156-18.806,16.176-16.698,28.465c2.108,12.289,12.763,21.271,25.231,21.271s23.123-8.982,25.231-21.271
			c2.108-12.289-4.943-24.309-16.698-28.465v-20.212c10.22-3.565,17.067-13.204,17.067-24.028s-6.847-20.463-17.067-24.028v-27.172
			c-0.001-2.263-0.9-4.433-2.5-6.033l-19.566-19.567h64.733v76.8c0,4.713,3.82,8.533,8.533,8.533s8.533-3.82,8.533-8.533v-76.8h25.6
			v42.667c0.001,2.263,0.9,4.433,2.5,6.033l31.633,31.634v40.706c-11.755,4.156-18.806,16.176-16.698,28.465
			c2.108,12.289,12.763,21.271,25.231,21.271c12.468,0,23.123-8.982,25.231-21.271c2.108-12.289-4.943-24.309-16.698-28.465v-44.239
			c-0.001-2.263-0.9-4.433-2.5-6.033l-31.633-31.634v-39.133h8.533c50.231-0.001,91.559-39.545,93.776-89.727
			S477.508,159.404,427.472,154.975z M77.864,495.946c-4.713,0-8.533-3.82-8.533-8.533s3.821-8.533,8.533-8.533
			s8.533,3.82,8.533,8.533C86.393,492.123,82.575,495.941,77.864,495.946z M231.464,495.946c-4.713,0-8.533-3.82-8.533-8.533
			s3.82-8.533,8.533-8.533s8.533,3.82,8.533,8.533C239.993,492.123,236.175,495.941,231.464,495.946z M299.731,495.946
			c-4.713,0-8.533-3.82-8.533-8.533s3.82-8.533,8.533-8.533s8.533,3.82,8.533,8.533
			C308.259,492.123,304.442,495.941,299.731,495.946z M299.731,427.679c-4.713,0-8.533-3.82-8.533-8.533s3.82-8.533,8.533-8.533
			s8.533,3.82,8.533,8.533C308.259,423.857,304.442,427.675,299.731,427.679z M436.264,495.946c-4.713,0-8.533-3.82-8.533-8.533
			s3.82-8.533,8.533-8.533s8.533,3.82,8.533,8.533C444.793,492.123,440.975,495.941,436.264,495.946z M473.497,302.775
			c-14.369,14.451-33.921,22.555-54.3,22.504H94.931c-38.419,0.041-70.95-28.328-76.138-66.395s18.567-74.106,55.596-84.346
			c2.301-0.625,4.235-2.185,5.334-4.301c1.099-2.116,1.262-4.595,0.45-6.837c-6.129-16.865,0.255-35.726,15.368-45.402
			c15.113-9.675,34.914-7.578,47.666,5.048c2.215,2.188,5.445,2.997,8.43,2.111c2.985-0.886,5.25-3.327,5.912-6.369
			c13.955-63.879,73.8-106.98,138.808-99.97s114.291,61.876,114.308,127.261c0.024,5.093-0.285,10.181-0.925,15.233l-0.033,0.767
			l-0.017,0.121c-2.553,20.034-9.809,39.18-21.175,55.875c-2.653,3.894-1.648,9.201,2.246,11.854s9.201,1.648,11.854-2.246
			c11.415-16.788,19.188-35.78,22.817-55.754c29.832,2.426,55.536,21.964,65.857,50.059S494.665,281.614,473.497,302.775
			L473.497,302.775z"/>
		<path d="M265.597,239.946c9.421-0.011,17.056-7.645,17.067-17.067v-17.067c-0.011-9.421-7.645-17.056-17.067-17.067h-17.067
			c-9.421,0.011-17.056,7.645-17.067,17.067v17.067c0.011,9.421,7.645,17.056,17.067,17.067H265.597z M248.531,205.813h17.067
			l0.009,17.067h-17.075V205.813z"/>
		<path d="M333.864,171.679c4.713,0,8.533-3.821,8.533-8.533s-3.82-8.533-8.533-8.533h-17.067v-17.067
			c0-4.713-3.82-8.533-8.533-8.533s-8.533,3.821-8.533,8.533v17.067h-17.067v-17.067c0-4.713-3.82-8.533-8.533-8.533
			s-8.533,3.821-8.533,8.533v17.067h-17.067v-17.067c0-4.713-3.82-8.533-8.533-8.533s-8.533,3.821-8.533,8.533v17.067h-17.067
			v-17.067c0-4.713-3.821-8.533-8.533-8.533c-4.713,0-8.533,3.821-8.533,8.533v17.067h-17.067c-4.713,0-8.533,3.821-8.533,8.533
			s3.821,8.533,8.533,8.533h17.067v17.067h-17.067c-4.713,0-8.533,3.82-8.533,8.533s3.821,8.533,8.533,8.533h17.067v17.067h-17.067
			c-4.713,0-8.533,3.821-8.533,8.533c0,4.713,3.821,8.533,8.533,8.533h17.067v17.067h-17.067c-4.713,0-8.533,3.82-8.533,8.533
			s3.821,8.533,8.533,8.533h17.067v17.067c0,4.713,3.821,8.533,8.533,8.533c4.713,0,8.533-3.82,8.533-8.533v-17.067h17.067v17.067
			c0,4.713,3.821,8.533,8.533,8.533s8.533-3.82,8.533-8.533v-17.067h17.067v17.067c0,4.713,3.82,8.533,8.533,8.533
			s8.533-3.82,8.533-8.533v-17.067h17.067v17.067c0,4.713,3.82,8.533,8.533,8.533s8.533-3.82,8.533-8.533v-17.067h17.067
			c4.713,0,8.533-3.82,8.533-8.533s-3.82-8.533-8.533-8.533h-17.067v-17.067h17.067c4.713,0,8.533-3.821,8.533-8.533
			c0-4.713-3.82-8.533-8.533-8.533h-17.067v-17.067h17.067c4.713,0,8.533-3.821,8.533-8.533s-3.82-8.533-8.533-8.533h-17.067
			v-17.067H333.864z M214.397,171.679h85.333v85.333h-85.333V171.679z"/>
		<path d="M163.197,461.813v-34.133c0-4.713-3.821-8.533-8.533-8.533s-8.533,3.82-8.533,8.533v34.133
			c0,4.713,3.82,8.533,8.533,8.533S163.197,466.525,163.197,461.813z"/>
		<path d="M367.997,461.813v-8.533c0-4.713-3.82-8.533-8.533-8.533s-8.533,3.82-8.533,8.533v8.533c0,4.713,3.82,8.533,8.533,8.533
			S367.997,466.525,367.997,461.813z"/>
	</g>
</g>
<g>
</g>
<g>
</g>
<g>
</g>
<g>
</g>
<g>
</g>
<g>
</g>
<g>
</g>
<g>
</g>
<g>
</g>
<g>
</g>
<g>
</g>
<g>
</g>
<g>
</g>
<g>
</g>
<g>
</g>
</svg>
