<?xml version="1.0" encoding="iso-8859-1"?>
<!-- Generator: Adobe Illustrator 19.0.0, SVG Export Plug-In . SVG Version: 6.00 Build 0)  -->
<svg version="1.1" id="Capa_1" xmlns="http://www.w3.org/2000/svg" xmlns:xlink="http://www.w3.org/1999/xlink" x="0px" y="0px"
	 viewBox="0 0 512 512" style="enable-background:new 0 0 512 512;" xml:space="preserve">
<g>
	<g transform="translate(1 7)">
		<g>
			<path style="fill:#FF5722;" d="M135.533,377H152.6c9.426,0,17.067,7.641,17.067,17.067l0,0c0,9.426-7.641,17.067-17.067,17.067
				h-17.067c-9.426,0-17.067-7.641-17.067-17.067l0,0C118.467,384.641,126.108,377,135.533,377z"/>
			<path style="fill:#FF5722;" d="M451.267,189.267H58.733c-14.138,0-25.6,11.462-25.6,25.6v68.267c0,14.138,11.462,25.6,25.6,25.6
				h392.533c14.138,0,25.6-11.461,25.6-25.6v-68.267C476.867,200.728,465.405,189.267,451.267,189.267z"/>
		</g>
		<polygon style="fill:#02A9F4;" points="268.312,163.667 299.288,138.587 246.381,79.699 212.333,95.4 251.075,138.587 
			220.867,162.719 221.72,163.667 		"/>
		<circle style="fill:#FFEB3A;" cx="220.867" cy="78.333" r="25.6"/>
		<path style="fill:#0377BC;" d="M289.133,342.867c9.426,0,17.067,7.641,17.067,17.067c0,9.426-7.641,17.067-17.067,17.067
			c9.426,0,17.067,7.641,17.067,17.067c0,9.426-7.641,17.067-17.067,17.067c9.426,0,17.067,7.641,17.067,17.067
			c0,9.426-7.641,17.067-17.067,17.067h85.333c6.792-0.009,13.309,2.685,18.112,7.488c4.803,4.803,7.497,11.32,7.488,18.112v25.6
			H109.933l0-25.6c-0.009-6.792,2.685-13.309,7.488-18.112c4.803-4.803,11.32-7.497,18.112-7.488h84.309
			c-9.032-0.558-16.066-8.057-16.043-17.107s7.093-16.514,16.129-17.026c-9.051-0.512-16.128-8.001-16.128-17.067
			c0-9.066,7.077-16.554,16.128-17.067c-9.23-0.516-16.374-8.282-16.12-17.523c0.254-9.241,7.814-16.603,17.059-16.61h-85.333
			c-6.792,0.009-13.309-2.685-18.112-7.488c-4.803-4.803-7.497-11.32-7.488-18.112V180.733c-0.009-6.792,2.685-13.309,7.488-18.112
			c4.803-4.803,11.32-7.497,18.112-7.488h238.933c6.792-0.009,13.309,2.685,18.112,7.488c4.803,4.803,7.497,11.32,7.488,18.112
			v136.533c0.009,6.792-2.685,13.309-7.488,18.112c-4.803,4.803-11.32,7.497-18.112,7.488H289.133z"/>
		<g>
			<path style="fill:#02A9F4;" d="M374.467,470.867l0,25.6H109.933l0-25.6c-0.009-6.792,2.685-13.309,7.488-18.112
				c4.803-4.803,11.32-7.497,18.112-7.488h84.309c-0.175,0.014-0.351-0.016-0.512-0.085c0.509,0.071,1.023,0.1,1.536,0.085h128
				c6.792-0.009,13.309,2.685,18.112,7.488C371.782,457.558,374.476,464.074,374.467,470.867z"/>
			<path style="fill:#02A9F4;" d="M219.501,411.219c0.041,0.098,0.145,0.153,0.248,0.132c0.104-0.021,0.178-0.112,0.178-0.218
				c0-0.106-0.075-0.197-0.178-0.218c-0.104-0.021-0.208,0.035-0.248,0.132c0.451,0.074,0.909,0.102,1.365,0.085
				C220.41,411.116,219.952,411.145,219.501,411.219z"/>
			<path style="fill:#02A9F4;" d="M219.501,377.085c0.041,0.098,0.145,0.153,0.248,0.132c0.104-0.021,0.178-0.112,0.178-0.218
				c0-0.106-0.075-0.197-0.178-0.218c-0.104-0.021-0.208,0.035-0.248,0.132c0.451,0.074,0.909,0.102,1.365,0.085
				C220.41,376.983,219.952,377.012,219.501,377.085z"/>
			<path style="fill:#02A9F4;" d="M135.533,155.133h213.333c14.138,0,25.6,11.462,25.6,25.6v136.533c0,14.138-11.462,25.6-25.6,25.6
				H135.533c-14.138,0-25.6-11.462-25.6-25.6V180.733C109.933,166.595,121.395,155.133,135.533,155.133z"/>
		</g>
		<path style="fill:#1566C0;" d="M289.133,411.133c9.426,0,17.067,7.641,17.067,17.067c0,9.426-7.641,17.067-17.067,17.067h-25.6
			c9.213-0.009,16.76-7.322,17.059-16.53c0.299-9.208-6.756-16.995-15.949-17.603c8.981-0.604,15.957-8.065,15.957-17.067
			s-6.976-16.463-15.957-17.067c9.045-0.603,16.047-8.163,15.956-17.228c-0.091-9.065-7.242-16.483-16.297-16.905h24.832
			c9.426,0,17.067,7.641,17.067,17.067S298.559,377,289.133,377c9.426,0,17.067,7.641,17.067,17.067
			S298.559,411.133,289.133,411.133z"/>
		<path style="fill:#2296F3;" d="M264.643,411.133c9.193,0.608,16.249,8.395,15.949,17.603c-0.299,9.208-7.846,16.521-17.059,16.53
			h-42.667c-0.513,0.014-1.027-0.014-1.536-0.085c-1.791-0.153-3.547-0.585-5.205-1.28c-0.387-0.165-0.758-0.365-1.109-0.597
			c-1.774-0.893-3.365-2.108-4.693-3.584c-0.69-0.691-1.292-1.465-1.792-2.304c-0.555-0.796-1.014-1.655-1.365-2.56
			c-0.065-0.068-0.097-0.162-0.085-0.256c-0.44-0.951-0.756-1.955-0.939-2.987v-0.085c-0.455-2.195-0.455-4.461,0-6.656v-0.085
			c0.222-1.022,0.536-2.021,0.939-2.987c-0.011-0.094,0.02-0.188,0.085-0.256c0.386-0.888,0.842-1.745,1.365-2.56
			c0.349-0.575,0.749-1.117,1.195-1.621l0.256-0.256c0.261-0.334,0.546-0.647,0.853-0.939c0.6-0.685,1.289-1.288,2.048-1.792
			c0.802-0.592,1.66-1.107,2.56-1.536c1.156-0.529,2.355-0.957,3.584-1.28c0.703-0.162,1.415-0.276,2.133-0.341h0.341
			c0.451-0.074,0.909-0.102,1.365-0.085c-0.457,0.017-0.914-0.012-1.365-0.085h-0.341c-0.575-0.037-1.146-0.123-1.707-0.256
			c-1.392-0.274-2.741-0.733-4.011-1.365c-0.9-0.429-1.758-0.944-2.56-1.536c-0.845-0.59-1.619-1.278-2.304-2.048
			c-0.177-0.22-0.377-0.42-0.597-0.597c-0.085-0.085-0.171-0.256-0.256-0.341c-0.446-0.504-0.845-1.046-1.195-1.621
			c-0.523-0.815-0.98-1.671-1.365-2.56c-0.065-0.068-0.097-0.162-0.085-0.256c-0.402-0.965-0.716-1.965-0.939-2.987v-0.085
			c-0.455-2.195-0.455-4.461,0-6.656v-0.085c0.222-1.022,0.536-2.021,0.939-2.987c-0.011-0.094,0.02-0.188,0.085-0.256
			c0.386-0.888,0.842-1.745,1.365-2.56c0.349-0.575,0.749-1.117,1.195-1.621l0.256-0.256c0.261-0.334,0.546-0.647,0.853-0.939
			c0.6-0.685,1.289-1.288,2.048-1.792c0.802-0.592,1.66-1.107,2.56-1.536c1.156-0.529,2.355-0.957,3.584-1.28
			c0.703-0.162,1.415-0.276,2.133-0.341h0.341c0.451-0.074,0.909-0.102,1.365-0.085c-0.457,0.017-0.914-0.012-1.365-0.085h-0.341
			c-0.575-0.037-1.146-0.123-1.707-0.256c-1.392-0.274-2.741-0.733-4.011-1.365c-0.9-0.429-1.758-0.944-2.56-1.536
			c-0.845-0.59-1.619-1.278-2.304-2.048c-0.177-0.22-0.377-0.42-0.597-0.597c-0.085-0.085-0.171-0.256-0.256-0.341
			c-0.446-0.504-0.845-1.046-1.195-1.621c-0.523-0.815-0.98-1.671-1.365-2.56c-0.065-0.068-0.097-0.162-0.085-0.256
			c-0.402-0.965-0.716-1.965-0.939-2.987v-0.085c-0.24-1.093-0.355-2.209-0.342-3.328c0.027-9.414,7.652-17.039,17.067-17.067
			h43.435c9.056,0.422,16.207,7.84,16.297,16.905c0.091,9.065-6.911,16.624-15.956,17.228c8.981,0.604,15.957,8.065,15.957,17.067
			S273.624,410.529,264.643,411.133z"/>
		<path style="fill:#CFD8DC;" d="M203.8,342.867l-39.205-64.256c-0.569-0.9-0.532-2.057,0.094-2.919
			c0.626-0.862,1.713-1.256,2.746-0.994c40.26,11.248,134.87,11.248,175.131,0c1.032-0.262,2.12,0.132,2.746,0.994
			c0.626,0.862,0.663,2.018,0.094,2.919L306.2,342.867H203.8z"/>
		<g>
			<path style="fill:#FFEB3A;" d="M178.2,189.267h17.067c9.426,0,17.067,7.641,17.067,17.067V223.4
				c0,9.426-7.641,17.067-17.067,17.067H178.2c-9.426,0-17.067-7.641-17.067-17.067v-17.067
				C161.133,196.908,168.774,189.267,178.2,189.267z"/>
			<path style="fill:#FFEB3A;" d="M314.733,189.267H331.8c9.426,0,17.067,7.641,17.067,17.067V223.4
				c0,9.426-7.641,17.067-17.067,17.067h-17.067c-9.426,0-17.067-7.641-17.067-17.067v-17.067
				C297.667,196.908,305.308,189.267,314.733,189.267z"/>
		</g>
	</g>
	<g>
		<path d="M409.6,324.267h42.667c18.843-0.02,34.113-15.29,34.133-34.133v-68.267c-0.02-18.843-15.29-34.113-34.133-34.133V179.2
			C452.154,80.277,371.99,0.112,273.067,0h-34.133C140.01,0.112,59.846,80.277,59.733,179.2v8.533
			c-18.843,0.02-34.113,15.29-34.133,34.133v68.267c0.02,18.843,15.29,34.113,34.133,34.133V384
			c0.015,14.132,11.468,25.585,25.6,25.6h27.173c3.592,10.199,13.214,17.033,24.027,17.067H153.6c14.138,0,25.6-11.462,25.6-25.6
			c0-14.138-11.462-25.6-25.6-25.6h-17.067c-10.813,0.033-20.435,6.868-24.028,17.067H85.333c-4.711-0.005-8.529-3.822-8.533-8.533
			v-59.733h25.6c0.02,18.843,15.29,34.113,34.133,34.133h61.306c-3.296,8.807-1.326,18.721,5.086,25.6
			c-8.878,9.646-8.878,24.487,0,34.133c-6.413,6.879-8.382,16.793-5.085,25.6h-61.306c-18.843,0.02-34.113,15.29-34.133,34.133v25.6
			c-0.001,2.263,0.898,4.434,2.499,6.035c1.6,1.6,3.771,2.499,6.035,2.499h289.425c0.126,0,0.23-0.066,0.354-0.071
			c0.124,0.005,0.229,0.071,0.354,0.071c2.263,0.001,4.434-0.898,6.035-2.499c1.6-1.6,2.499-3.771,2.499-6.035v-25.6
			c-0.02-18.843-15.29-34.113-34.133-34.133h-61.306c3.296-8.807,1.326-18.721-5.086-25.6c8.878-9.646,8.878-24.487,0-34.133
			c6.412-6.879,8.382-16.793,5.086-25.6h61.306C394.31,358.38,409.58,343.11,409.6,324.267z M136.533,392.533H153.6
			c4.713,0,8.533,3.82,8.533,8.533s-3.821,8.533-8.533,8.533h-17.067c-4.713,0-8.533-3.821-8.533-8.533
			S131.821,392.533,136.533,392.533z M469.333,221.867v68.267c-0.011,9.421-7.645,17.056-17.067,17.067H409.6V204.8h42.667
			C461.688,204.811,469.323,212.445,469.333,221.867z M76.8,179.2c0.102-89.502,72.632-162.032,162.133-162.133h34.133
			C362.568,17.168,435.098,89.698,435.2,179.2v8.533h-25.6c-0.02-18.843-15.29-34.113-34.133-34.133H295.55l9.758-7.096
			c2.02-1.466,3.296-3.744,3.491-6.232c0.196-2.488-0.709-4.937-2.475-6.701l-50.559-50.555
			c-1.198-18.188-16.505-32.208-34.729-31.807s-32.899,15.081-33.296,33.304c-0.397,18.223,13.627,33.527,31.815,34.721
			l19.368,19.308L217.931,153.6h-81.398c-18.843,0.02-34.113,15.29-34.133,34.133H76.8V179.2z M247.206,153.6l9.844-7.063
			c2.039-1.461,3.331-3.744,3.533-6.244c0.202-2.5-0.706-4.962-2.483-6.731l-18.994-18.936c4.978-2.938,9.129-7.092,12.064-12.073
			l36.022,36.022L266.537,153.6H247.206z M221.867,102.4c-9.426,0-17.067-7.641-17.067-17.067s7.641-17.067,17.067-17.067
			c9.426,0,17.067,7.641,17.067,17.067C238.923,94.755,231.288,102.389,221.867,102.4z M59.733,307.2
			c-9.421-0.011-17.056-7.645-17.067-17.067v-68.267c0.011-9.421,7.645-17.056,17.067-17.067H102.4v102.4H59.733z M119.467,324.267
			V187.733c0.011-9.421,7.645-17.056,17.067-17.067h238.933c9.421,0.011,17.056,7.645,17.067,17.067v136.533
			c-0.011,9.421-7.645,17.056-17.067,17.067h-53.064l31.288-51.275c2.412-3.921,2.163-8.921-0.625-12.583
			c-2.725-3.649-7.419-5.239-11.8-3.996c-39.05,10.908-131.492,10.913-170.542-0.004c-4.38-1.232-9.065,0.358-11.792,4
			c-2.788,3.662-3.037,8.663-0.625,12.583l31.288,51.275h-53.064C127.112,341.323,119.477,333.688,119.467,324.267z
			 M209.589,341.333l-29.456-48.271c50.297,7.533,101.436,7.533,151.733,0l-29.456,48.271H209.589z M392.533,477.867v17.067H119.467
			v-17.067c0.011-9.421,7.645-17.056,17.067-17.067h238.933C384.888,460.811,392.523,468.445,392.533,477.867z M221.867,443.733
			c-4.713,0-8.533-3.821-8.533-8.533s3.821-8.533,8.533-8.533c4.713,0,8.533-3.82,8.533-8.533s-3.821-8.533-8.533-8.533
			c-4.713,0-8.533-3.821-8.533-8.533s3.821-8.533,8.533-8.533c4.713,0,8.533-3.82,8.533-8.533s-3.821-8.533-8.533-8.533
			c-4.713,0-8.533-3.82-8.533-8.533s3.821-8.533,8.533-8.533h68.267c4.713,0,8.533,3.82,8.533,8.533s-3.821,8.533-8.533,8.533
			c-4.713,0-8.533,3.821-8.533,8.533s3.821,8.533,8.533,8.533c4.713,0,8.533,3.82,8.533,8.533s-3.821,8.533-8.533,8.533
			c-4.713,0-8.533,3.82-8.533,8.533s3.821,8.533,8.533,8.533c4.713,0,8.533,3.82,8.533,8.533s-3.821,8.533-8.533,8.533H221.867z"/>
		<path d="M179.2,256h17.067c14.132-0.015,25.585-11.468,25.6-25.6v-17.067c-0.015-14.132-11.468-25.585-25.6-25.6H179.2
			c-14.132,0.015-25.585,11.468-25.6,25.6V230.4C153.615,244.532,165.068,255.985,179.2,256z M170.667,213.333
			c0.005-4.711,3.822-8.529,8.533-8.533h17.067c4.711,0.005,8.529,3.822,8.533,8.533V230.4c-0.005,4.711-3.822,8.529-8.533,8.533
			H179.2c-4.711-0.005-8.529-3.822-8.533-8.533V213.333z"/>
		<path d="M315.733,256H332.8c14.132-0.015,25.585-11.468,25.6-25.6v-17.067c-0.015-14.132-11.468-25.585-25.6-25.6h-17.067
			c-14.132,0.015-25.585,11.468-25.6,25.6V230.4C290.149,244.532,301.601,255.985,315.733,256z M307.2,213.333
			c0.005-4.711,3.822-8.529,8.533-8.533H332.8c4.711,0.005,8.529,3.822,8.533,8.533V230.4c-0.005,4.711-3.822,8.529-8.533,8.533
			h-17.067c-4.711-0.005-8.529-3.822-8.533-8.533V213.333z"/>
	</g>
</g>
<g>
</g>
<g>
</g>
<g>
</g>
<g>
</g>
<g>
</g>
<g>
</g>
<g>
</g>
<g>
</g>
<g>
</g>
<g>
</g>
<g>
</g>
<g>
</g>
<g>
</g>
<g>
</g>
<g>
</g>
</svg>
