<?xml version="1.0" encoding="iso-8859-1"?>
<!-- Generator: Adobe Illustrator 19.0.0, SVG Export Plug-In . SVG Version: 6.00 Build 0)  -->
<svg version="1.1" id="Capa_1" xmlns="http://www.w3.org/2000/svg" xmlns:xlink="http://www.w3.org/1999/xlink" x="0px" y="0px"
	 viewBox="0 0 512.01 512.01" style="enable-background:new 0 0 512.01 512.01;" xml:space="preserve">
<g>
	<g transform="translate(1 1)">
		<path style="fill:#4CAF50;" d="M237.938,144.068V75.801c-0.014-4.707-3.826-8.52-8.533-8.533h-102.4l1.28-34.133h101.12
			c9.238-0.037,18.232,2.961,25.6,8.533c7.368-5.572,16.362-8.57,25.6-8.533l110.933,0v34.134H280.605
			c-4.707,0.014-8.52,3.826-8.533,8.533v68.267H237.938z"/>
		<g>
			<rect x="237.938" y="92.868" style="fill:#009688;" width="34.133" height="51.2"/>
			<polygon style="fill:#009688;" points="186.738,33.134 186.738,67.268 127.005,67.268 128.285,33.134 			"/>
			<rect x="331.805" y="33.134" style="fill:#009688;" width="59.733" height="34.133"/>
		</g>
		<path style="fill:#607D8B;" d="M297.672,144.068v51.2h-85.333v-51.2c0.028-9.414,7.652-17.039,17.067-17.067h51.2
			C290.019,127.028,297.644,134.653,297.672,144.068z"/>
		<path style="fill:#CFD8DC;" d="M272.072,144.068v51.2h-59.733v-51.2c0.028-9.414,7.652-17.039,17.067-17.067h25.6
			C264.419,127.028,272.044,134.653,272.072,144.068z"/>
		<g>
			<path style="fill:#607D8B;" d="M340.35,502.468c-21.76-7.168-19.029-38.229-17.579-48.128H187.25
				c1.451,9.899,4.181,40.96-17.579,48.128H340.35z"/>
			<path style="fill:#607D8B;" d="M356.99,294.596c7.284-9.152,20.478-10.956,29.952-4.096c4.432,4.801,5.932,11.617,3.925,17.835
				c-2.466,9.76-5.896,19.25-10.24,28.331c-2.364,8.583-6.08,16.735-11.008,24.149c-2.188,2.878-5.48,4.709-9.079,5.05
				c-3.599,0.34-7.176-0.841-9.865-3.258H159.346c-2.689,2.417-6.266,3.598-9.865,3.258c-3.599-0.34-6.891-2.172-9.079-5.05
				c-4.928-7.414-8.644-15.566-11.008-24.149c-4.344-9.081-7.774-18.571-10.24-28.331c-2.007-6.218-0.506-13.034,3.925-17.835
				c9.474-6.86,22.668-5.056,29.952,4.096H356.99z"/>
		</g>
		<path style="fill:#37474F;" d="M357.405,272.068c0,12.117-0.427,24.32-1.024,36.437c-0.512,10.24-1.195,20.48-2.389,30.635
			c-1.877,16.213-4.864,32.256-7.083,48.384c-1.754,15.266-5.483,30.239-11.093,44.544c-3.672,9.741-9.34,18.606-16.64,26.027
			c-6.691,5.942-13.76,11.443-21.163,16.469c-7.083,5.035-13.483,11.093-20.651,15.787c-6.966,3.276-14.716,4.518-22.357,3.584
			c-4.267-0.171-8.619,0.085-12.8-0.427c-3.396-0.255-6.678-1.339-9.557-3.157c-7.168-4.693-13.568-10.752-20.651-15.787
			c-7.403-5.026-14.472-10.528-21.163-16.469c-7.3-7.421-12.968-16.286-16.64-26.027c-5.61-14.305-9.339-29.278-11.093-44.544
			c-2.219-16.128-5.205-32.171-7.083-48.384c-1.109-10.155-1.877-20.395-2.389-30.635c-0.597-12.117-1.024-24.32-1.024-36.437
			c0-63.317,28.757-90.709,55.808-102.4h93.184C328.648,181.358,357.405,208.75,357.405,272.068z"/>
		<path style="fill:#607D8B;" d="M331.805,272.068c0,12.117-0.427,24.32-1.024,36.437c-0.512,10.24-1.195,20.48-2.389,30.635
			c-1.877,16.213-4.864,32.256-7.083,48.384c-1.754,15.266-5.483,30.239-11.093,44.544c-3.672,9.741-9.34,18.606-16.64,26.027
			c-6.691,5.942-13.76,11.443-21.163,16.469c-7.083,5.035-13.483,11.093-20.651,15.787c-2.862,1.855-6.153,2.943-9.557,3.157
			c-3.396-0.255-6.678-1.339-9.557-3.157c-7.168-4.693-13.568-10.752-20.651-15.787c-7.403-5.026-14.472-10.528-21.163-16.469
			c-7.3-7.421-12.968-16.286-16.64-26.027c-5.61-14.305-9.339-29.278-11.093-44.544c-2.219-16.128-5.205-32.171-7.083-48.384
			c-1.109-10.155-1.877-20.395-2.389-30.635c-0.597-12.117-1.024-24.32-1.024-36.437c0-63.317,28.757-90.709,55.808-102.4h67.584
			c23.04,9.984,47.275,31.317,54.016,76.544v0.085C331.258,254.83,331.857,263.444,331.805,272.068z"/>
		<path style="fill:#2E7D32;" d="M357.405,272.068c-7.747-9.952-16.987-18.645-27.392-25.771v-0.085
			c-6.741-45.227-30.976-66.56-54.016-76.544h25.6C328.648,181.358,357.405,208.75,357.405,272.068z"/>
		<path style="fill:#4CAF50;" d="M330.013,246.212c-2.169-1.412-4.42-2.694-6.741-3.84c-5.269-2.78-11.111-4.299-17.067-4.437
			c-5.815-0.037-11.591,0.945-17.067,2.901c-5.94,2.38-11.652,5.294-17.067,8.704c-5.109,3.292-10.996,5.176-17.067,5.461
			c-6.071-0.286-11.958-2.17-17.067-5.461c-5.415-3.41-11.127-6.324-17.067-8.704c-5.476-1.956-11.252-2.938-17.067-2.901
			c-5.956,0.139-11.798,1.658-17.067,4.437c-13.246,7.52-24.852,17.618-34.133,29.696c0-63.317,28.757-90.709,55.808-102.4h67.584
			C299.037,179.652,323.272,200.985,330.013,246.212z"/>
		<path style="fill:#9E9E9E;" d="M485.405,7.534v170.667h-102.4c-9.414-0.028-17.039-7.653-17.067-17.067V24.601
			c0.028-9.414,7.652-17.039,17.067-17.067H485.405z"/>
		<path style="fill:#F5F5F5;" d="M459.805,7.534v170.667h-76.8c-9.414-0.028-17.039-7.653-17.067-17.067V24.601
			c0.028-9.414,7.652-17.039,17.067-17.067H459.805z"/>
		<path style="fill:#0377BC;" d="M502.472,7.534v119.467c-0.028,9.414-7.653,17.039-17.067,17.067H365.938V24.601
			c0.028-9.414,7.652-17.039,17.067-17.067H502.472z"/>
		<path style="fill:#02A9F4;" d="M476.872,7.534v119.467c-0.028,9.414-7.652,17.039-17.067,17.067h-93.867V24.601
			c0.028-9.414,7.652-17.039,17.067-17.067H476.872z"/>
		<path style="fill:#C52828;" d="M167.112,114.372c5.399,7.006,6.7,16.341,3.425,24.557c-3.276,8.216-10.643,14.094-19.382,15.464
			c-0.102,0.606-0.244,1.205-0.427,1.792c-0.035,0.38-0.121,0.753-0.256,1.109c-0.256,0.768-0.512,1.451-0.768,2.219
			c-0.221,0.556-0.477,1.098-0.768,1.621c-0.107,0.328-0.25,0.643-0.427,0.939c-0.16,0.459-0.39,0.891-0.683,1.28
			c-0.131,0.219-0.245,0.447-0.341,0.683c-0.491,0.801-1.033,1.571-1.621,2.304c-0.341,0.512-0.683,0.939-1.024,1.365
			c-1.457,1.731-3.119,3.278-4.949,4.608c-0.349,0.311-0.719,0.596-1.109,0.853c-1.203,0.793-2.457,1.506-3.755,2.133
			c-0.853,0.427-1.707,0.768-2.56,1.109c-0.512,0.171-1.109,0.341-1.621,0.512c-0.386,0.153-0.786,0.267-1.195,0.341
			c-0.956,0.248-1.925,0.448-2.901,0.597c-0.341,0.085-0.683,0.085-1.109,0.171c-1.109,0.085-2.219,0.171-3.328,0.171
			c-4.432,0.022-8.81-0.971-12.8-2.901c1.27-0.628,2.495-1.341,3.669-2.133c0.39-0.257,0.761-0.543,1.109-0.853
			c1.831-1.33,3.493-2.877,4.949-4.608c0.341-0.427,0.683-0.853,1.024-1.365c0.589-0.733,1.13-1.503,1.621-2.304
			c0.096-0.236,0.21-0.464,0.341-0.683c0.292-0.389,0.523-0.821,0.683-1.28c0.177-0.296,0.32-0.611,0.427-0.939
			c0.291-0.523,0.547-1.065,0.768-1.621c0.256-0.768,0.512-1.451,0.768-2.219c0.135-0.357,0.221-0.73,0.256-1.109
			c0.182-0.587,0.325-1.186,0.427-1.792c8.738-1.37,16.106-7.248,19.382-15.464c3.276-8.216,1.974-17.551-3.425-24.557
			c6.975-4.937,11.113-12.958,11.093-21.504c-0.024-10.089-5.737-19.301-14.763-23.808c5.137-9.208,3.534-20.708-3.925-28.16
			c-4.397-4.439-10.392-6.929-16.64-6.912v-1.451c0.021-8.821-4.619-16.998-12.203-21.504c7.734-4.583,17.331-4.669,25.145-0.224
			s12.645,12.738,12.658,21.728v1.451c12.997,0.026,23.526,10.555,23.552,23.552c0.004,4.032-1.024,7.998-2.987,11.52
			c9.026,4.507,14.738,13.719,14.763,23.808C178.225,101.413,174.087,109.434,167.112,114.372z"/>
		<path style="fill:#F44335;" d="M141.512,114.372c5.399,7.006,6.7,16.341,3.425,24.557c-3.276,8.216-10.643,14.094-19.382,15.464
			c-0.102,0.606-0.244,1.205-0.427,1.792c-0.035,0.38-0.121,0.753-0.256,1.109c-0.256,0.768-0.512,1.451-0.768,2.219
			c-0.221,0.556-0.477,1.098-0.768,1.621c-0.107,0.328-0.25,0.643-0.427,0.939c-0.16,0.459-0.39,0.891-0.683,1.28
			c-0.131,0.219-0.245,0.447-0.341,0.683c-0.491,0.801-1.033,1.571-1.621,2.304c-0.341,0.512-0.683,0.939-1.024,1.365
			c-1.457,1.731-3.119,3.278-4.949,4.608c-0.349,0.311-0.719,0.596-1.109,0.853c-1.174,0.793-2.4,1.505-3.669,2.133h-0.085
			c-10.132-4.961-16.555-15.258-16.555-26.539c0.019,7.814-3.077,15.313-8.602,20.838c-5.525,5.525-13.024,8.621-20.838,8.602
			c-1.109,0-2.219-0.085-3.328-0.171c-0.427-0.085-0.768-0.085-1.109-0.171c-0.977-0.149-1.945-0.349-2.902-0.597
			c-0.409-0.074-0.809-0.188-1.195-0.341c-0.512-0.171-1.109-0.341-1.621-0.512c-0.853-0.341-1.707-0.683-2.56-1.109h-0.085
			c-1.27-0.628-2.495-1.341-3.669-2.133c-0.39-0.257-0.761-0.543-1.109-0.853c-1.831-1.33-3.493-2.877-4.949-4.608
			c-0.341-0.427-0.683-0.853-1.024-1.365c-0.589-0.733-1.13-1.503-1.621-2.304c-0.096-0.236-0.21-0.464-0.341-0.683
			c-0.292-0.389-0.523-0.821-0.683-1.28c-0.177-0.296-0.32-0.611-0.427-0.939c-0.291-0.523-0.547-1.065-0.768-1.621
			c-0.256-0.768-0.512-1.451-0.768-2.219c-0.135-0.357-0.221-0.73-0.256-1.109c-0.182-0.587-0.325-1.186-0.427-1.792
			c-8.738-1.37-16.106-7.248-19.382-15.464c-3.276-8.216-1.974-17.551,3.425-24.557c-6.975-4.937-11.113-12.958-11.093-21.504
			c0.024-10.089,5.737-19.301,14.763-23.808c-4.071-7.299-3.974-16.208,0.253-23.417s11.955-11.643,20.312-11.655v-1.451
			c-0.016-6.636,2.613-13.005,7.305-17.698s11.061-7.321,17.698-7.305c4.273-0.029,8.48,1.059,12.203,3.157
			c7.898,4.436,12.791,12.786,12.8,21.845c-0.021-8.821,4.619-16.998,12.203-21.504c7.583,4.506,12.223,12.683,12.203,21.504v1.451
			c12.997,0.026,23.526,10.555,23.552,23.552c0.004,4.032-1.024,7.998-2.987,11.52c9.026,4.507,14.738,13.719,14.763,23.808
			C152.625,101.413,148.487,109.434,141.512,114.372z"/>
	</g>
	<g>
		<path d="M247.372,332.976c0.057-4.661-3.608-8.521-8.267-8.704c-7.727-1.172-15.172-3.761-21.958-7.637
			c-9.009-5.233-19.045-8.451-29.417-9.434c-4.627,0.008-8.388,3.732-8.442,8.358c-0.057,4.661,3.608,8.521,8.267,8.704
			c7.727,1.172,15.172,3.761,21.958,7.637c9.009,5.233,19.045,8.451,29.417,9.434C243.556,341.326,247.318,337.602,247.372,332.976z
			"/>
		<path d="M324.263,307.201c-10.372,0.982-20.408,4.201-29.417,9.433c-6.743,3.834-14.122,6.42-21.783,7.633
			c-4.713,0-8.533,3.821-8.533,8.533c0,4.713,3.82,8.533,8.533,8.533c10.372-0.982,20.408-4.201,29.417-9.433
			c6.787-3.862,14.224-6.449,21.942-7.633c4.68-0.089,8.415-3.931,8.372-8.612C332.75,310.975,328.944,307.203,324.263,307.201
			L324.263,307.201z"/>
		<path d="M267.055,395.009c-2.987,3.093-6.844,5.206-11.059,6.059c-4.212-0.849-8.066-2.959-11.05-6.05
			c-3.341-3.3-8.721-3.279-12.037,0.046c-3.316,3.325-3.322,8.705-0.013,12.037c6.168,6.273,14.344,10.179,23.1,11.034
			c8.756-0.855,16.932-4.76,23.1-11.034c3.325-3.328,3.33-8.719,0.011-12.052C275.787,391.715,270.396,391.697,267.055,395.009
			L267.055,395.009z"/>
		<path d="M503.472,0.001H384.005c-14.132,0.015-25.585,11.468-25.6,25.6h-76.809c-9.001,0.002-17.838,2.41-25.596,6.975
			c-7.758-4.565-16.595-6.973-25.596-6.975h-79.047c-2.917-12.1-12.313-21.578-24.387-24.599
			c-12.074-3.022-24.827,0.913-33.099,10.212C85.346,1.655,72.12-2.212,59.788,1.248S38.172,14.89,35.863,27.488
			c-8.277,2.126-15.363,7.467-19.686,14.838s-5.525,16.163-3.339,24.424C5.478,72.778,0.886,81.54,0.119,91.022
			s2.357,18.868,8.653,26c-3.822,8.62-3.845,18.45-0.063,27.089s11.02,15.289,19.947,18.328c0.133,0.367,0.258,0.683,0.367,0.929
			c0.285,0.796,0.616,1.575,0.992,2.333c0.125,0.343,0.281,0.673,0.467,0.987c0.255,0.568,0.545,1.121,0.867,1.654
			c0.075,0.133,0.567,0.971,0.642,1.096c0.658,1.084,1.358,2.116,2.042,3.025c0.425,0.571,0.85,1.104,1.392,1.766
			c1.85,2.206,3.95,4.188,6.258,5.908c0.5,0.379,1,0.729,1.533,1.096c2.513,1.683,5.211,3.072,8.042,4.137
			c0.7,0.263,1.4,0.483,2.092,0.7c0.6,0.192,1.242,0.371,1.417,0.4c1.26,0.344,2.54,0.61,3.833,0.796
			c0.558,0.092,1.158,0.179,1.358,0.188c1.489,0.193,2.99,0.286,4.492,0.28c11.417,0.003,22.227-5.142,29.425-14.004
			c7.198,8.862,18.008,14.007,29.425,14.004c1.376,0.011,2.751-0.068,4.117-0.237c0.575-0.05,1.175-0.138,1.633-0.212
			c1.183-0.164,2.354-0.399,3.508-0.704c0.6-0.138,1.242-0.317,1.825-0.504c0.708-0.221,1.408-0.442,2.15-0.721
			c1.084-0.401,2.146-0.857,3.183-1.367c1.687-0.803,3.311-1.732,4.858-2.779c0.492-0.341,0.992-0.692,1.408-1.008
			c2.383-1.772,4.548-3.82,6.45-6.1c0.433-0.533,0.858-1.067,1.233-1.579c0.706-0.929,1.362-1.894,1.967-2.892l0.475-0.788
			c0.307-0.457,0.57-0.943,0.783-1.45c0.32-0.539,0.599-1.102,0.833-1.683c0.312-0.614,0.588-1.245,0.825-1.892
			c0.2-0.467,0.383-0.938,0.542-1.379c8.927-3.039,16.165-9.69,19.947-18.328c3.782-8.638,3.759-18.468-0.063-27.089
			c9.912-11.108,11.59-27.318,4.163-40.221h47.262v42.667c-14.132,0.015-25.585,11.468-25.6,25.6v18.338
			c-27.549,12.334-59.733,41.336-59.733,109.662c0,2.277,0.023,4.618,0.052,6.982c-1.66-0.502-3.358-0.867-5.077-1.091
			c-7.623-0.986-15.322,1.148-21.35,5.917c-7.103,6.699-9.779,16.854-6.9,26.183c2.194,9.193,5.324,18.137,9.342,26.692l1.4,3.258
			c0.95,2.221,1.741,4.571,2.558,6.929c1.966,7.115,5.341,13.763,9.925,19.55c4.165,4.971,10.275,7.899,16.758,8.033
			c0.569,0,1.136-0.107,1.704-0.156c0.745,4.774,1.505,9.543,2.163,14.343c1.881,15.973,5.799,31.639,11.658,46.617
			c3.197,8.051,7.502,15.617,12.79,22.478c1.141,9.611,2.152,31.866-12.089,36.559c-2.906,0.944-5.086,3.37-5.714,6.361
			c-0.628,2.991,0.391,6.089,2.673,8.122c2.281,2.033,5.476,2.691,8.375,1.725c14.207-4.679,22.666-17.903,24.195-36.731
			c2.917,2.197,5.854,4.339,8.747,6.41l1.775,1.267c2.992,2.129,5.858,4.454,8.717,6.767c3.898,3.264,7.958,6.327,12.167,9.179
			c6.652,3.897,14.354,5.621,22.033,4.933c1.575,0.012,3.092-0.009,5.417,0.062c1.533-0.075,3.083-0.071,4.642-0.062
			c7.668,0.686,15.359-1.029,22.008-4.908c4.219-2.86,8.291-5.932,12.2-9.204c2.859-2.313,5.725-4.637,8.75-6.787l1.867-1.338
			c2.854-2.043,5.745-4.155,8.618-6.318c1.521,18.821,9.984,32.045,24.207,36.73c4.476,1.473,9.298-0.962,10.771-5.438
			c1.473-4.476-0.962-9.298-5.438-10.771c-14.398-4.743-13.068-28.087-12.081-36.593c5.266-6.836,9.556-14.37,12.747-22.386
			c5.875-15.003,9.799-30.698,11.675-46.7c0.659-4.78,1.417-9.549,2.161-14.32c0.575,0.049,1.147,0.157,1.722,0.157
			c6.489-0.137,12.602-3.072,16.767-8.05c4.589-5.789,7.965-12.444,9.925-19.567c0.808-2.35,1.6-4.688,2.542-6.896l1.4-3.267
			c4.016-8.538,7.146-17.465,9.342-26.642c2.889-9.348,0.209-19.525-6.908-26.238c-6.023-4.779-13.728-6.909-21.35-5.9
			c-1.717,0.224-3.412,0.588-5.069,1.09c0.03-2.375,0.053-4.719,0.053-6.985c0-68.326-32.184-97.328-59.733-109.662v-18.338
			c-0.015-14.132-11.468-25.585-25.6-25.6V76.801h76.809v85.333c0.015,14.132,11.468,25.585,25.6,25.6h102.4
			c2.263,0.001,4.434-0.898,6.035-2.499c1.6-1.6,2.499-3.771,2.499-6.035v-27.172c10.199-3.592,17.033-13.214,17.067-24.028V8.534
			c0.001-2.263-0.898-4.434-2.499-6.035C507.906,0.899,505.735,0,503.472,0.001z M171.705,42.668h16.033v17.067h-11.843
			c0.015-0.393,0.076-0.781,0.076-1.175C175.968,52.979,174.496,47.499,171.705,42.668z M163.147,108.463
			c-1.886,1.352-3.14,3.414-3.475,5.71c-0.335,2.296,0.279,4.63,1.7,6.465c2.228,2.861,3.431,6.387,3.417,10.013
			c-0.05,8.095-5.929,14.975-13.917,16.287c-3.549,0.558-6.368,3.281-7.05,6.808c-0.083,0.404-0.167,0.771-0.283,1.158
			c-0.067,0.237-0.292,0.967-0.333,1.208c-0.102,0.357-0.227,0.706-0.375,1.046c-0.058,0.15-0.575,1.392-0.625,1.542
			c-0.142,0.229-0.45,0.842-0.567,1.083c-0.025,0.033-0.458,0.775-0.483,0.812c-0.349,0.582-0.73,1.144-1.142,1.683l-0.725,0.942
			c-1.051,1.248-2.245,2.366-3.558,3.333l-0.767,0.546c-0.874,0.586-1.79,1.106-2.742,1.554c-0.554,0.27-1.121,0.512-1.7,0.725
			l-1.242,0.412l2.55,8.142l-3.5-7.887c-0.603,0.16-1.215,0.281-1.833,0.362l1.275,8.438l-2.25-8.308
			c-0.738,0.092-1.481,0.135-2.225,0.129c-11.532-0.014-20.878-9.359-20.892-20.892c0-4.713-3.821-8.533-8.533-8.533
			c-4.713,0-8.533,3.821-8.533,8.533c-0.014,11.532-9.359,20.878-20.892,20.892c-0.744,0.006-1.487-0.037-2.225-0.129
			c-0.125-0.017-0.85-0.117-0.975-0.129c-0.618-0.081-1.231-0.202-1.833-0.363c-0.142-0.038-0.808-0.221-0.95-0.254l-1.2-0.396
			c-0.641-0.238-1.27-0.507-1.883-0.808c-0.888-0.424-1.743-0.913-2.558-1.463l-0.892-0.633c-1.239-0.915-2.368-1.969-3.367-3.142
			l-0.883-1.129c-0.461-0.623-0.89-1.269-1.283-1.937c-0.092-0.171-0.567-1.087-0.667-1.25c-0.117-0.283-0.675-1.608-0.817-1.875
			c-0.148-0.34-0.273-0.689-0.375-1.046c-0.009-0.05-0.325-1.158-0.333-1.208c-0.117-0.387-0.2-0.754-0.283-1.158
			c-0.681-3.528-3.501-6.25-7.05-6.808c-7.988-1.313-13.866-8.193-13.917-16.287c-0.014-3.626,1.189-7.152,3.417-10.012
			c1.421-1.835,2.035-4.168,1.7-6.465s-1.589-4.358-3.475-5.71c-5.145-3.669-7.981-9.775-7.465-16.073
			c0.516-6.299,4.308-11.861,9.982-14.644c2.108-1.04,3.694-2.904,4.384-5.152c0.689-2.248,0.421-4.68-0.742-6.723
			c-1.271-2.226-1.932-4.749-1.917-7.313c0.014-8.296,6.745-15.013,15.041-15.009c2.362,0,4.618-0.979,6.232-2.703
			c1.614-1.724,2.441-4.04,2.285-6.397l-0.017-0.905c0-9.101,7.378-16.479,16.479-16.479s16.479,7.378,16.479,16.479
			c0,4.713,3.821,8.533,8.533,8.533s8.533-3.821,8.533-8.533c0-9.101,7.378-16.479,16.479-16.479s16.479,7.378,16.479,16.479
			l-0.01,0.556l-0.006,0.032l0.005,0.027l-0.005,0.29c-0.149,2.361,0.685,4.677,2.305,6.401c1.62,1.724,3.88,2.701,6.245,2.699
			c8.285,0.01,14.998,6.724,15.008,15.008c0.016,2.564-0.645,5.086-1.917,7.313c-1.163,2.043-1.431,4.476-0.742,6.723
			c0.689,2.248,2.275,4.111,4.384,5.152c5.674,2.783,9.466,8.345,9.982,14.644S168.292,104.794,163.147,108.463z M141.23,342.397
			c-0.95-2.75-1.892-5.483-3-8.079l-1.425-3.317c-3.552-7.511-6.336-15.362-8.308-23.433c-1.091-3.128-0.746-6.578,0.942-9.429
			c2.469-1.871,5.585-2.673,8.65-2.225c2.771,0.315,5.388,1.435,7.529,3.221c0.135,3.447,0.292,7.022,0.479,10.795
			c0.542,10.871,1.358,21.346,2.433,31.192c0.667,5.736,1.481,11.452,2.332,17.129c-1.215-0.37-2.289-1.099-3.082-2.091
			C144.76,352.019,142.539,347.351,141.23,342.397z M339.447,387.334c-1.666,14.552-5.204,28.828-10.525,42.475
			c-3.189,8.625-8.162,16.481-14.592,23.054c-5.818,5.202-11.97,10.018-18.417,14.417l-1.849,1.329
			c-3.283,2.333-6.433,4.871-9.567,7.408c-3.477,2.919-7.098,5.662-10.85,8.217c-3.909,1.894-8.28,2.622-12.592,2.096
			c-1.808-0.013-3.633,0-4.683,0.079c-1.517-0.067-3.042-0.079-4.575-0.079h-0.858c-4.325,0.571-8.722-0.166-12.625-2.116
			c-3.74-2.55-7.35-5.285-10.817-8.196c-3.133-2.537-6.283-5.075-9.533-7.388l-1.758-1.258c-6.499-4.432-12.701-9.284-18.567-14.525
			c-6.435-6.585-11.407-14.453-14.592-23.091c-5.281-13.631-8.812-27.876-10.508-42.396c-0.908-6.646-1.95-13.283-3-19.921
			c-1.458-9.279-2.967-18.871-4.05-28.225c-1.033-9.454-1.817-19.592-2.342-30.129c-0.629-12.719-0.941-23.295-0.994-33.084
			c7.832-9.621,26.544-28.533,42.644-28.533c9.604,0.2,18.936,3.223,26.833,8.692c7.181,5.011,15.622,7.913,24.367,8.375
			c8.744-0.465,17.184-3.366,24.367-8.375c7.896-5.471,17.229-8.494,26.833-8.692c16.099,0,34.812,18.911,42.644,28.532
			c-0.054,9.632-0.366,20.204-0.994,33.076c-0.617,12.242-1.342,21.517-2.342,30.083c-1.092,9.425-2.6,19.033-4.067,28.325
			C341.397,374.105,340.355,380.726,339.447,387.334z M373.905,295.917c3.06-0.465,6.178,0.33,8.642,2.204
			c1.701,2.866,2.048,6.337,0.95,9.483c-1.976,8.055-4.76,15.891-8.308,23.388l-1.425,3.333c-1.1,2.583-2.042,5.304-2.983,8.046
			c-1.31,4.957-3.531,9.627-6.55,13.771c-0.798,0.996-1.879,1.727-3.101,2.097c0.853-5.671,1.666-11.382,2.326-17.106
			c1.05-8.942,1.8-18.567,2.442-31.212c0.185-3.776,0.341-7.348,0.474-10.779C368.513,297.354,371.132,296.233,373.905,295.917z
			 M348.137,249.611c-7.038-6.477-15.107-11.735-23.874-15.559v-12.184c-0.001-2.263-0.9-4.433-2.5-6.033l-6.033-6.033v-5.001
			c0-4.713-3.82-8.533-8.533-8.533s-8.533,3.821-8.533,8.533v8.533c0.001,2.263,0.9,4.433,2.5,6.033l6.033,6.033v5.001
			c-5.78-0.024-11.532,0.811-17.067,2.478v-11.011c-0.001-2.263-0.9-4.433-2.5-6.033l-6.033-6.033v-13.534
			c0-4.713-3.82-8.533-8.533-8.533c-4.713,0-8.533,3.82-8.533,8.533v17.067c0.001,2.263,0.9,4.433,2.5,6.033l6.033,6.033v15.27
			c-0.416,0.24-0.852,0.486-1.258,0.721c-4.641,3.385-10.095,5.481-15.808,6.075c-5.717-0.594-11.174-2.692-15.817-6.079
			c-0.404-0.233-0.837-0.479-1.25-0.717v-15.271l6.033-6.033c1.6-1.6,2.5-3.77,2.5-6.034v-17.067c0-4.713-3.821-8.533-8.533-8.533
			c-4.713,0-8.533,3.82-8.533,8.533v13.533l-6.033,6.033c-1.6,1.6-2.5,3.77-2.5,6.033v11.011
			c-5.535-1.667-11.286-2.502-17.067-2.478v-5l6.033-6.033c1.6-1.6,2.5-3.77,2.5-6.033v-8.533c0-4.713-3.82-8.533-8.533-8.533
			c-4.713,0-8.533,3.821-8.533,8.533v5l-6.033,6.033c-1.6,1.6-2.5,3.77-2.5,6.033v12.184c-8.767,3.824-16.835,9.082-23.873,15.56
			c4.787-34.445,20.531-58.191,47.357-70.41h89.566C327.606,191.421,343.35,215.166,348.137,249.611z M290.13,145.068v17.067
			h-68.267v-17.067c0.005-4.711,3.822-8.529,8.533-8.533h51.2C286.307,136.539,290.125,140.357,290.13,145.068z M247.472,119.468
			v-17.067h17.058v17.067H247.472z M264.53,76.801v8.533h-17.058v-8.533c-0.011-9.421-7.645-17.056-17.067-17.067h-25.6V42.668h25.6
			c7.376-0.045,14.561,2.344,20.442,6.796c0.31,0.191,0.632,0.361,0.964,0.508c0.29,0.177,0.59,0.335,0.899,0.474
			c1.034,0.469,2.152,0.726,3.287,0.755l0.004-0.001l0.004,0.001c1.135-0.029,2.253-0.286,3.287-0.755
			c0.309-0.139,0.609-0.298,0.899-0.474c0.333-0.147,0.655-0.317,0.964-0.508c5.881-4.452,13.065-6.841,20.441-6.796h34.142v17.067
			h-34.142C272.175,59.745,264.54,67.38,264.53,76.801z M332.805,59.734V42.668h25.6v17.067H332.805z M384.005,170.668
			c-4.711-0.005-8.529-3.822-8.533-8.533v-8.533h102.4v17.067H384.005z M494.938,128.001c-0.005,4.711-3.822,8.529-8.533,8.533
			H375.472V25.601c0.005-4.711,3.822-8.529,8.533-8.533h110.933V128.001z"/>
		<path d="M426.672,34.134h-25.6c-4.713,0-8.533,3.821-8.533,8.533s3.82,8.533,8.533,8.533h25.6c4.713,0,8.533-3.821,8.533-8.533
			S431.384,34.134,426.672,34.134z"/>
		<path d="M466.864,36.609c-2.441-2.462-6.129-3.201-9.331-1.872c-3.202,1.329-5.281,4.464-5.261,7.931
			c0.03,2.26,0.914,4.424,2.475,6.059c1.627,1.572,3.796,2.459,6.059,2.475c2.27,0.022,4.453-0.87,6.058-2.475
			c1.605-1.605,2.497-3.788,2.475-6.058c-0.013-1.116-0.245-2.219-0.683-3.246C468.222,38.389,467.617,37.438,466.864,36.609z"/>
	</g>
</g>
<g>
</g>
<g>
</g>
<g>
</g>
<g>
</g>
<g>
</g>
<g>
</g>
<g>
</g>
<g>
</g>
<g>
</g>
<g>
</g>
<g>
</g>
<g>
</g>
<g>
</g>
<g>
</g>
<g>
</g>
</svg>
