<?xml version="1.0" encoding="iso-8859-1"?>
<!-- Generator: Adobe Illustrator 19.0.0, SVG Export Plug-In . SVG Version: 6.00 Build 0)  -->
<svg version="1.1" id="Capa_1" xmlns="http://www.w3.org/2000/svg" xmlns:xlink="http://www.w3.org/1999/xlink" x="0px" y="0px"
	 viewBox="0 0 512 512" style="enable-background:new 0 0 512 512;" xml:space="preserve">
<g>
	<g transform="translate(1 1)">
		<polygon style="fill:#2296F3;" points="208.579,118.467 239.555,93.387 186.648,34.499 152.6,50.2 191.341,93.387 161.133,117.52 
			161.987,118.467 		"/>
		<path style="fill:#FFEB3A;" d="M297.667,255c23.564,0,42.667-19.103,42.667-42.667s-19.103-42.667-42.667-42.667H50.2
			c-23.564,0-42.667,19.103-42.667,42.667S26.636,255,50.2,255H297.667z"/>
		<path style="fill:#0377BC;" d="M220.867,297.667c9.426,0,17.067,7.641,17.067,17.067c0,9.426-7.641,17.067-17.067,17.067
			c9.426,0,17.067,7.641,17.067,17.067c0,9.426-7.641,17.067-17.067,17.067h93.867c6.792-0.009,13.309,2.685,18.112,7.488
			c4.803,4.803,7.497,11.32,7.488,18.112v110.933H50.2l0-110.933c-0.009-6.792,2.685-13.309,7.488-18.112s11.32-7.497,18.112-7.488
			h76.203c-9.189-0.328-16.469-7.872-16.469-17.067c0-9.195,7.28-16.739,16.469-17.067c-9.305-0.328-16.631-8.051-16.468-17.36
			c0.163-9.309,7.755-16.771,17.066-16.773H75.8c-6.792,0.009-13.309-2.685-18.112-7.488c-4.803-4.803-7.497-11.32-7.488-18.112
			V135.533c-0.009-6.792,2.685-13.309,7.488-18.112s11.32-7.497,18.112-7.488h238.933c6.792-0.009,13.309,2.685,18.112,7.488
			c4.803,4.803,7.497,11.32,7.488,18.112v136.533c0.009,6.792-2.685,13.309-7.488,18.112c-4.803,4.803-11.32,7.497-18.112,7.488
			H220.867z"/>
		<path style="fill:#02A9F4;" d="M204.653,297.667c9.086,0.466,16.214,7.969,16.214,17.067c0,9.098-7.128,16.601-16.214,17.067
			c9.25,0.468,16.44,8.224,16.209,17.483c-0.231,9.259-7.801,16.645-17.062,16.651h85.333c6.792-0.009,13.309,2.685,18.112,7.488
			c4.803,4.803,7.497,11.32,7.488,18.112v110.933H50.2l0-110.933c-0.009-6.792,2.685-13.309,7.488-18.112s11.32-7.497,18.112-7.488
			h84.565c-0.065-0.009-0.125-0.039-0.171-0.085c-0.832,0.004-1.661-0.082-2.475-0.256c-1.888-0.398-3.702-1.089-5.376-2.048
			l-1.024-0.768c-1.248-0.863-2.368-1.897-3.328-3.072c-0.617-0.741-1.161-1.542-1.621-2.389c-0.482-0.751-0.883-1.552-1.195-2.389
			c-0.414-1.101-0.7-2.247-0.853-3.413c-0.342-1.747-0.342-3.544,0-5.291c0.153-1.167,0.439-2.312,0.853-3.413
			c0.312-0.837,0.712-1.638,1.195-2.389v-0.085c0.471-0.815,1.013-1.586,1.621-2.304c0.423-0.594,0.942-1.113,1.536-1.536
			c0.211-0.297,0.471-0.557,0.768-0.768c0.32-0.283,0.663-0.54,1.024-0.768l1.024-0.768c1.674-0.959,3.488-1.65,5.376-2.048
			c0.698-0.174,1.414-0.26,2.133-0.256c0.043,0.169,0.206,0.28,0.379,0.259c0.173-0.022,0.304-0.169,0.304-0.344
			c0-0.175-0.13-0.322-0.304-0.344c-0.174-0.022-0.336,0.089-0.379,0.259c-0.663,0.005-1.323-0.082-1.963-0.256
			c-1.949-0.374-3.823-1.066-5.547-2.048l-1.024-0.768c-1.248-0.863-2.368-1.897-3.328-3.072c-0.608-0.718-1.151-1.489-1.621-2.304
			v-0.085c-0.482-0.751-0.883-1.552-1.195-2.389c-0.414-1.101-0.7-2.247-0.853-3.413c-0.174-0.871-0.26-1.757-0.256-2.645
			c0.027-9.414,7.652-17.039,17.067-17.067H75.8c-6.792,0.009-13.309-2.685-18.112-7.488c-4.803-4.803-7.497-11.32-7.488-18.112
			V135.533c-0.009-6.792,2.685-13.309,7.488-18.112s11.32-7.497,18.112-7.488h213.333c6.792-0.009,13.309,2.685,18.112,7.488
			c4.803,4.803,7.497,11.32,7.488,18.112v136.533c0.009,6.792-2.685,13.309-7.488,18.112c-4.803,4.803-11.32,7.497-18.112,7.488
			H204.653z"/>
		<path style="fill:#1566C0;" d="M246.467,348.867c-0.028,9.414-7.653,17.039-17.067,17.067h-25.6
			c9.261-0.005,16.831-7.392,17.062-16.651c0.231-9.259-6.959-17.014-16.209-17.483c9.086-0.466,16.214-7.969,16.214-17.067
			c0-9.098-7.128-16.601-16.214-17.067H229.4c9.426,0,17.067,7.641,17.067,17.067c0,9.426-7.641,17.067-17.067,17.067
			C238.814,331.828,246.439,339.453,246.467,348.867z"/>
		<path style="fill:#2296F3;" d="M220.867,348.867c-0.028,9.414-7.653,17.039-17.067,17.067h-43.435
			c-0.065-0.009-0.125-0.039-0.171-0.085c-0.832,0.004-1.661-0.082-2.475-0.256c-1.888-0.398-3.702-1.089-5.376-2.048l-1.024-0.768
			c-1.248-0.863-2.368-1.897-3.328-3.072c-0.617-0.741-1.161-1.542-1.621-2.389c-0.482-0.751-0.883-1.552-1.195-2.389
			c-0.414-1.101-0.7-2.247-0.853-3.413c-0.342-1.747-0.342-3.544,0-5.291c0.153-1.167,0.439-2.312,0.853-3.413
			c0.312-0.837,0.712-1.638,1.195-2.389v-0.085c0.471-0.815,1.013-1.586,1.621-2.304c0.423-0.594,0.942-1.113,1.536-1.536
			c0.211-0.297,0.471-0.557,0.768-0.768c0.32-0.283,0.663-0.54,1.024-0.768l1.024-0.768c1.674-0.959,3.488-1.65,5.376-2.048
			c0.698-0.174,1.414-0.26,2.133-0.256c0.043,0.169,0.206,0.28,0.379,0.259c0.173-0.022,0.304-0.169,0.304-0.344
			s-0.13-0.322-0.304-0.344c-0.174-0.022-0.336,0.089-0.379,0.259c-0.663,0.005-1.323-0.082-1.963-0.256
			c-1.949-0.374-3.823-1.066-5.547-2.048l-1.024-0.768c-1.248-0.863-2.368-1.897-3.328-3.072c-0.608-0.718-1.151-1.489-1.621-2.304
			v-0.085c-0.482-0.751-0.883-1.552-1.195-2.389c-0.414-1.101-0.7-2.247-0.853-3.413c-0.174-0.871-0.26-1.757-0.256-2.645
			c0.028-9.414,7.652-17.039,17.067-17.067h43.52c9.086,0.466,16.214,7.969,16.214,17.067c0,9.098-7.128,16.601-16.214,17.067
			C213.717,332.314,220.818,339.789,220.867,348.867z"/>
		<g>
			<path style="fill:#FFEB3A;" d="M118.467,144.067h17.067c9.426,0,17.067,7.641,17.067,17.067V178.2
				c0,9.426-7.641,17.067-17.067,17.067h-17.067c-9.426,0-17.067-7.641-17.067-17.067v-17.067
				C101.4,151.708,109.041,144.067,118.467,144.067z"/>
			<circle style="fill:#FFEB3A;" cx="161.133" cy="33.133" r="25.6"/>
		</g>
		<g>
			<rect x="101.4" y="263.533" style="fill:#F5F5F5;" width="187.733" height="34.133"/>
			<path style="fill:#F5F5F5;" d="M289.133,246.467v17.067H101.4v-17.067c0.028-9.414,7.652-17.039,17.067-17.067h153.6
				C281.481,229.428,289.106,237.053,289.133,246.467z"/>
		</g>
		<path style="fill:#FDD834;" d="M306.2,418.685v83.782H84.333v-83.782c-0.38-9.837,7.234-18.143,17.067-18.618h187.733
			C298.966,400.542,306.58,408.848,306.2,418.685z"/>
		<path style="fill:#FFEB3A;" d="M280.6,418.685v83.782H84.333v-83.782c-0.38-9.837,7.234-18.143,17.067-18.618h162.133
			C273.366,400.542,280.98,408.848,280.6,418.685z"/>
		<path style="fill:#2296F3;" d="M50.2,400.067v102.4H7.533v-59.733C7.542,419.173,26.639,400.075,50.2,400.067z"/>
		<rect x="383" y="459.8" style="fill:#0377BC;" width="59.733" height="42.667"/>
		<path style="fill:#009688;" d="M452.291,380.269l-76.373,33.195l-1.621,0.683c-4.496,1.959-9.346,2.976-14.251,2.987h-39.424
			c-4.904-0.011-9.755-1.027-14.251-2.987l-0.512-0.171l-31.915-13.909l-78.763-34.133l-8.448-3.669V161.133l119.637,51.883
			c4.496,1.959,9.346,2.976,14.251,2.987h39.424c4.904-0.011,9.755-1.027,14.251-2.987l119.637-51.883v201.131l-9.728,4.181"/>
		<g>
			<polygon style="fill:#00695C;" points="493.933,165.4 492.739,366.445 468.333,377.027 468.333,178.2 467.48,176.323 			"/>
			<path style="fill:#00695C;" d="M365.933,215.491v201.131c-1.944,0.34-3.914,0.511-5.888,0.512h-39.424
				c-1.974-0.001-3.944-0.172-5.888-0.512V215.491c1.944,0.34,3.914,0.511,5.888,0.512h39.424
				C362.019,216.002,363.989,215.83,365.933,215.491z"/>
		</g>
		<g>
			<path style="fill:#F5F5F5;" d="M481.304,166.595l-107.008,46.421c-2.682,1.148-5.488,1.978-8.363,2.475
				c-0.79,0.156-1.587,0.269-2.389,0.341c-0.537,0.069-1.079,0.097-1.621,0.085c-0.623,0.069-1.25,0.098-1.877,0.085h-19.457
				c1.155-14.847,10.175-27.937,23.637-34.304l87.04-37.632L481.304,166.595z"/>
			<path style="fill:#F5F5F5;" d="M340.077,216.003h-19.456c-0.599,0.014-1.197-0.014-1.792-0.085
				c-0.57,0.012-1.141-0.016-1.707-0.085c-0.802-0.072-1.599-0.186-2.389-0.341c-2.874-0.497-5.681-1.327-8.363-2.475
				l-107.008-46.421l30.037-22.528l87.04,37.632C329.902,188.065,338.922,201.156,340.077,216.003z"/>
		</g>
		<path style="fill:#02A9F4;" d="M502.467,391.192l-5.888,8.875l-40.192,60.843l-4.779,7.253l-11.093,0.085l-56.576,0.256h-9.131
			l-5.717-8.448l-28.587-42.581l3.157-0.341h16.384c4.904-0.011,9.755-1.027,14.251-2.987l1.024-0.427l0.683-0.085l9.813,12.885
			l5.973,7.851l9.216-0.085H415l10.923-0.085l5.375-6.741l21.59-27.392l6.912-8.704L454.253,383l-1.877-2.816l-0.085-0.085
			l-35.243-52.309c-4.797-7.194-2.892-16.91,4.267-21.76c2.573-1.73,5.604-2.651,8.704-2.645c5.034-0.094,9.791,2.3,12.715,6.4
			l41.387,56.405l0.171,0.256L496.493,383L502.467,391.192z"/>
	</g>
	<g>
		<path d="M119.467,204.8h17.067c14.132-0.015,25.585-11.468,25.6-25.6v-17.067c-0.015-14.132-11.468-25.585-25.6-25.6h-17.067
			c-14.132,0.015-25.585,11.468-25.6,25.6V179.2C93.882,193.332,105.335,204.785,119.467,204.8z M110.933,162.133
			c0.006-4.71,3.823-8.527,8.533-8.533h17.067c4.71,0.006,8.527,3.823,8.533,8.533V179.2c-0.006,4.71-3.823,8.527-8.533,8.533
			h-17.067c-4.71-0.006-8.527-3.823-8.533-8.533V162.133z"/>
		<path d="M8.533,512h332.8c4.713,0,8.533-3.82,8.533-8.533v-57.15l18.5,27.75c0.126,0.19,0.299,0.332,0.439,0.509
			c0.144,0.183,0.291,0.35,0.451,0.522c0.662,0.735,1.448,1.348,2.322,1.812l0.071,0.056c0.347,0.152,0.703,0.281,1.067,0.385
			c0.246,0.084,0.478,0.203,0.732,0.265c0.657,0.163,1.331,0.247,2.008,0.25l0.004-0.001l0.004,0.001v25.6
			c0,4.713,3.82,8.533,8.533,8.533h59.733c4.713,0,8.533-3.82,8.533-8.533v-25.6l0.005-0.001l0.003,0.001l0.03-0.005
			c0.803-0.013,1.6-0.139,2.367-0.377c0.231-0.068,0.447-0.173,0.674-0.261c0.58-0.225,1.134-0.514,1.651-0.861
			c0.126-0.084,0.269-0.113,0.392-0.205c0.071-0.054,0.102-0.137,0.171-0.192c0.698-0.535,1.308-1.176,1.808-1.9l51.2-76.8
			c0.282-0.607,0.564-1.214,0.845-1.822c0.305-0.822,0.48-1.687,0.518-2.563c0.005-0.122,0.07-0.225,0.07-0.349l-0.015-0.076
			c-0.02-1.016-0.223-2.021-0.599-2.966c-0.127-0.285-0.269-0.562-0.428-0.83c-0.167-0.398-0.365-0.782-0.592-1.15l-11.976-16.466
			c3.082-1.362,5.072-4.414,5.076-7.784V162.133c0-2.875-1.448-5.557-3.852-7.135s-5.44-1.839-8.078-0.695l-8.069,3.499
			l-26.081-19.561c-2.45-1.839-5.697-2.224-8.509-1.009l-87.033,37.629c-4.383,1.927-8.427,4.546-11.979,7.757v-46.086
			c-0.022-18.842-15.291-34.112-34.133-34.133h-79.914l9.756-7.096c2.018-1.468,3.293-3.745,3.488-6.233
			c0.195-2.488-0.71-4.936-2.475-6.7l-50.555-50.555c-1.198-18.188-16.505-32.208-34.728-31.807s-32.899,15.08-33.296,33.303
			c-0.397,18.223,13.626,33.528,31.815,34.721l19.365,19.309l-20.99,15.058H76.8c-18.842,0.022-34.112,15.291-34.133,34.133v26.371
			C18.038,167.04,0,188.36,0,213.333s18.038,46.293,42.667,50.429v9.304c0.022,18.842,15.291,34.112,34.133,34.133h52.772
			c-3.296,8.807-1.326,18.721,5.086,25.6c-6.413,6.879-8.382,16.793-5.085,25.6H76.8c-18.842,0.022-34.112,15.291-34.133,34.133
			v0.771C18.061,397.479,0.042,418.776,0,443.733v59.733c0,2.263,0.899,4.434,2.499,6.034C4.1,511.101,6.27,512,8.533,512z
			 M110.933,290.133v-17.067H179.2v17.067H110.933z M357.278,426.667h3.768c1.862-0.075,3.716-0.268,5.553-0.58
			c0.118,0.005,0.216,0.068,0.334,0.068c0.355-0.047,0.706-0.118,1.052-0.212c1.972-0.339,3.92-0.812,5.828-1.415l8.723,11.583
			l-8.127,16.254L357.278,426.667z M397.808,443.733h24.593l12.8,17.067h-45.926L397.808,443.733z M451.856,454.565l-14.398-19.197
			l27.441-34.301h22.621L451.856,454.565z M486.706,384h-21.34l-39.963-59.946c-2.168-3.315-1.26-7.758,2.033-9.958
			c3.219-2.014,7.443-1.237,9.733,1.792L486.706,384z M450.238,392.075l-27.671,34.592h-25.779l-6.555-8.705l59.914-26.023
			L450.238,392.075z M358.4,409.6h-34.133V225.538H358.4V409.6z M321.621,208.471c-3.736-0.015-7.429-0.792-10.854-2.283
			l-93.548-40.569l14.34-10.755l82.504,35.675c7.641,3.516,13.521,9.99,16.288,17.933H321.621z M179.2,256h-68.267v-8.533
			c0.006-4.71,3.823-8.527,8.533-8.533H179.2V256z M199.511,359.075l-0.013-0.005l-3.232-1.403V175.133l107.704,46.713
			c1.036,0.45,2.159,0.655,3.229,1.025v182.952l-28.687-12.453c-0.167-0.078-0.327-0.15-0.5-0.217L199.511,359.075z
			 M298.667,420.675v74.259h-204.8v-76.8c0.006-4.71,3.823-8.527,8.533-8.533h170.732L298.667,420.675z M315.733,494.933v-68.779
			c0.121,0,0.221-0.064,0.341-0.069c1.835,0.312,3.687,0.506,5.547,0.581H332.8v68.267H315.733z M435.2,494.933h-42.667v-17.067
			H435.2V494.933z M451,305.888c-7.833-10.231-22.169-12.813-33.079-5.958c-11.116,7.431-14.121,22.457-6.717,33.592l29.327,43.993
			l-65.064,28.274V222.87c1.068-0.37,2.19-0.574,3.225-1.024L486.4,175.133V354.56L451,305.888z M368.613,190.533l82.496-35.67
			l14.34,10.756l-93.552,40.569c-3.423,1.492-7.116,2.269-10.85,2.283h-8.73C355.086,200.526,360.969,194.05,368.613,190.533z
			 M145.067,34.133c0-9.426,7.641-17.067,17.067-17.067S179.2,24.708,179.2,34.133S171.559,51.2,162.133,51.2
			C152.712,51.191,145.076,43.555,145.067,34.133z M198.367,82.363l-18.995-18.938c4.978-2.938,9.129-7.092,12.064-12.072
			l36.022,36.022L206.804,102.4h-19.331l9.844-7.063c2.036-1.462,3.327-3.746,3.529-6.244S200.141,84.133,198.367,82.363
			L198.367,82.363z M17.067,213.333c0.047-15.521,10.569-29.052,25.6-32.922v65.843C27.636,242.386,17.114,228.854,17.067,213.333z
			 M59.733,273.067V136.533c0.009-9.422,7.645-17.057,17.067-17.067h238.933c9.422,0.009,17.057,7.645,17.067,17.067v46.084
			c-3.549-3.208-7.591-5.825-11.971-7.751l-87.041-37.634c-2.811-1.216-6.059-0.831-8.508,1.008l-26.081,19.562l-8.069-3.499
			c-2.638-1.144-5.674-0.883-8.078,0.695c-2.404,1.578-3.851,4.259-3.851,7.135v59.733h-59.733
			c-14.132,0.015-25.585,11.468-25.6,25.6v42.667H76.8C67.378,290.124,59.743,282.489,59.733,273.067z M145.067,349.867
			c0.006-4.71,3.823-8.527,8.533-8.533c4.713,0,8.533-3.821,8.533-8.533s-3.821-8.533-8.533-8.533c-4.713,0-8.533-3.82-8.533-8.533
			s3.821-8.533,8.533-8.533h25.6v51.2h-25.6C148.89,358.394,145.073,354.577,145.067,349.867z M59.733,392.533
			c0.009-9.422,7.645-17.057,17.067-17.067h117.63l39.351,17.067H102.4c-14.132,0.015-25.585,11.468-25.6,25.6v76.8H59.733V392.533z
			 M17.067,443.733c0.047-15.521,10.569-29.052,25.6-32.922v84.122h-25.6V443.733z"/>
	</g>
</g>
<g>
</g>
<g>
</g>
<g>
</g>
<g>
</g>
<g>
</g>
<g>
</g>
<g>
</g>
<g>
</g>
<g>
</g>
<g>
</g>
<g>
</g>
<g>
</g>
<g>
</g>
<g>
</g>
<g>
</g>
</svg>
