<?xml version="1.0" encoding="iso-8859-1"?>
<!-- Generator: Adobe Illustrator 19.0.0, SVG Export Plug-In . SVG Version: 6.00 Build 0)  -->
<svg version="1.1" id="Capa_1" xmlns="http://www.w3.org/2000/svg" xmlns:xlink="http://www.w3.org/1999/xlink" x="0px" y="0px"
	 viewBox="0 0 512 512" style="enable-background:new 0 0 512 512;" xml:space="preserve">
<g>
	<g transform="translate(11)">
		<g>
			<path style="fill:#AD1457;" d="M355.933,170.667l29.594,22.195c2.858,2.143,4.54,5.507,4.54,9.079v0.043
				c0,3.01-1.196,5.897-3.324,8.025c-2.128,2.128-5.015,3.324-8.025,3.324H111.283c-6.268,0-11.349-5.081-11.349-11.349v-0.043
				c0-3.572,1.682-6.936,4.54-9.079l29.594-22.195H355.933z"/>
			<path style="fill:#AD1457;" d="M355.933,110.933V435.2c0.005,18.107-7.186,35.474-19.989,48.277
				c-12.804,12.804-30.17,19.994-48.277,19.989h-85.333c-18.107,0.005-35.474-7.186-48.277-19.989
				c-12.804-12.804-19.994-30.17-19.989-48.277V110.933c-0.046-35.527,18.332-68.536,48.555-87.211
				C197.565,14.5,214.651,9.325,232.2,8.704c1.417-0.144,2.842-0.201,4.267-0.171h17.067c27.171-0.042,53.242,10.733,72.454,29.946
				C345.201,57.692,355.976,83.762,355.933,110.933z"/>
		</g>
		<path style="fill:#E91E63;" d="M330.333,110.933V435.2c0.005,18.107-7.186,35.474-19.989,48.277
			c-12.804,12.804-30.17,19.994-48.277,19.989h-59.733c-18.107,0.005-35.474-7.186-48.277-19.989
			c-12.804-12.804-19.994-30.17-19.989-48.277V110.933c-0.046-35.527,18.332-68.536,48.555-87.211
			C197.565,14.5,214.651,9.325,232.2,8.704c17.545,0.646,34.625,5.819,49.579,15.019C312.001,42.397,330.38,75.407,330.333,110.933z
			"/>
		<g>
			<path style="fill:#00BCD4;" d="M321.8,128v85.333c0-9.387-34.424-17.067-76.8-17.067s-76.8,7.68-76.8,17.067V128
				c0-9.387,34.424-17.067,76.8-17.067S321.8,118.613,321.8,128z"/>
			<path style="fill:#00BCD4;" d="M321.8,384v68.267c0,9.387-34.424,17.067-76.8,17.067s-76.8-7.68-76.8-17.067V384H321.8z"/>
		</g>
		<path style="fill:#F5F5F5;" d="M287.667,384l-51.115,85.248c-13.536-0.191-27.034-1.475-40.363-3.84L245,384H287.667z"/>
		<g>
			<path style="fill:#FFEB3A;" d="M193.8,46.933c-0.018,16.487-13.379,29.849-29.867,29.867c-7.733,0.041-15.164-2.999-20.651-8.448
				c8.454-18.411,22.134-33.931,39.339-44.629C189.691,29.351,193.807,37.897,193.8,46.933z"/>
			<path style="fill:#FFEB3A;" d="M346.717,68.352c-5.487,5.449-12.918,8.489-20.651,8.448c-12.668,0.025-23.967-7.96-28.175-19.909
				s-0.402-25.251,9.487-33.169C324.583,34.421,338.263,49.941,346.717,68.352z"/>
		</g>
		<path style="fill:#00BCD4;" d="M168.2,273.067v54.101c0.003,9.055-3.588,17.741-9.984,24.149l-24.149,24.149V230.4l20.48,15.36
			C163.144,252.204,168.203,262.322,168.2,273.067z"/>
		<path style="fill:#00838F;" d="M355.933,230.4v145.067l-24.149-24.149c-6.396-6.409-9.987-15.095-9.984-24.149v-54.101
			c-0.004-10.745,5.056-20.863,13.653-27.307L355.933,230.4z"/>
	</g>
	<g>
		<path d="M365.475,64.796c-1.144-2.497-2.375-4.943-3.691-7.335c-9.229-16.777-22.625-30.893-38.896-40.986l-0.013-0.005
			l-0.029-0.02C305.302,5.683,285.117-0.01,264.533,0h-17.067c-20.418-0.028-40.447,5.58-57.882,16.206l-0.054,0.031
			c-0.137,0.084-0.282,0.154-0.418,0.238c-18.652,11.569-33.472,28.39-42.6,48.35l-0.102,0.262l-0.049,0.124
			c-6.491,14.368-9.842,29.955-9.827,45.722v55.468l-26.175,19.632c-6.849,5.141-9.644,14.085-6.94,22.21
			c2.704,8.126,10.301,13.612,18.865,13.623h14.25V435.2c0.049,42.395,34.405,76.751,76.8,76.8h85.333
			c42.395-0.049,76.751-34.405,76.8-76.8V221.867h14.25c8.563-0.011,16.159-5.495,18.864-13.62
			c2.705-8.124-0.088-17.068-6.935-22.21l-26.18-19.636v-55.468C375.487,95.015,372.079,79.28,365.475,64.796z M341.333,307.2H358.4
			v47.667l-9.571-9.571c-4.782-4.812-7.476-11.316-7.496-18.1V307.2z M341.333,290.133v-17.067
			c0.019-8.055,3.809-15.635,10.242-20.483l6.825-5.118v42.668H341.333z M319.428,35.01c1.257,0.914,2.56,1.771,3.767,2.741
			c0.973,0.782,1.965,1.545,2.904,2.363c3.076,2.647,5.979,5.49,8.689,8.51l0.182,0.185c2.702,3.111,5.196,6.396,7.467,9.834
			c0.699,1.043,1.333,2.131,1.992,3.202c0.813,1.323,1.502,2.725,2.25,4.091c-2.971,1.536-6.268,2.336-9.612,2.33
			c-11.776-0.014-21.319-9.557-21.333-21.333C315.732,42.677,317.02,38.52,319.428,35.01z M192.491,35.068
			c2.431,3.482,3.748,7.619,3.776,11.865c-0.014,11.776-9.557,21.32-21.333,21.333c-3.338-0.015-6.624-0.834-9.579-2.388
			C172.017,53.733,181.284,43.212,192.491,35.068z M153.6,307.2h17.067v19.996c-0.02,6.784-2.714,13.288-7.496,18.1l-9.571,9.571
			V307.2z M170.667,290.133H153.6v-42.668l6.825,5.118c6.432,4.848,10.223,12.429,10.242,20.483V290.133z M122.283,204.8
			c-1.217-0.012-2.292-0.796-2.673-1.952c-0.382-1.156,0.015-2.426,0.986-3.16l15.938-11.954V204.8H122.283z M298.667,494.933
			h-85.333c-32.974-0.037-59.696-26.759-59.733-59.733V379l21.637-21.637c8.027-7.983,12.527-18.846,12.496-30.167v-54.129
			c-0.031-13.422-6.347-26.055-17.067-34.133L153.6,226.134V110.933c-0.012-10.037,1.587-20.01,4.736-29.541
			c5.159,2.562,10.837,3.91,16.597,3.941c21.198-0.023,38.377-17.202,38.4-38.4c0.005-7.356-2.122-14.555-6.125-20.726
			c12.577-5.991,26.328-9.113,40.258-9.141h17.067c13.928,0.04,27.674,3.166,40.25,9.153c-3.997,6.168-6.122,13.363-6.116,20.714
			c0.023,21.198,17.202,38.377,38.4,38.4c5.76-0.03,11.437-1.378,16.596-3.94c3.149,9.53,4.749,19.503,4.738,29.54v115.201
			l-17.067,12.799c-10.719,8.078-17.036,20.711-17.067,34.133v54.129c-0.031,11.321,4.469,22.184,12.496,30.167L358.4,379v56.2
			C358.363,468.175,331.641,494.896,298.667,494.933z M391.408,199.692c0.715,0.544,1.132,1.393,1.125,2.292
			c-0.001,1.555-1.262,2.816-2.817,2.817h-14.25v-17.066L391.408,199.692z"/>
		<path d="M324.479,215.242c0.972,4.231,4.965,7.059,9.279,6.571c4.314-0.488,7.574-4.137,7.575-8.479V128
			c0-23.754-65.317-25.6-85.333-25.6s-85.333,1.846-85.333,25.6v85.333c0.001,4.342,3.261,7.99,7.575,8.479
			c4.314,0.488,8.307-2.339,9.279-6.571c4.754-3.787,28.762-10.442,68.479-10.442S319.725,211.454,324.479,215.242z
			 M187.733,129.746c5.225-3.813,29.117-10.279,68.267-10.279s63.042,6.467,68.267,10.279v66.617
			c-20.787-7.792-54.792-8.629-68.267-8.629s-47.479,0.837-68.267,8.629V129.746z"/>
		<path d="M332.8,375.467H179.2c-4.713,0-8.533,3.82-8.533,8.533v68.267c0,20.762,49.893,24.786,75.829,25.471
			c0.318,0.061,0.639,0.104,0.962,0.129c0.252,0,0.494-0.072,0.744-0.094c2.988,0.065,5.688,0.094,7.798,0.094
			c20.017,0,85.333-1.846,85.333-25.6V384C341.333,379.287,337.513,375.467,332.8,375.467z M242.797,460.53
			c-8.099-0.32-15.285-0.936-21.713-1.708l39.747-66.289h22.764L242.797,460.53z M187.733,392.533h53.203l-37.936,63.27
			c-5.343-0.914-10.501-2.698-15.266-5.282V392.533z M324.267,450.521c-4.915,3.586-26.531,9.453-61.647,10.144l40.879-68.131
			h20.768V450.521z"/>
		<path d="M259.242,333.479c-0.484-0.246-1.002-0.417-1.537-0.508c-1.123-0.258-2.29-0.258-3.413,0
			c-0.535,0.091-1.053,0.263-1.537,0.508c-0.543,0.188-1.058,0.448-1.533,0.771c-0.448,0.314-0.876,0.656-1.279,1.025
			c-0.773,0.814-1.383,1.769-1.796,2.813c-0.906,2.068-0.906,4.42,0,6.487c0.414,1.045,1.024,2.001,1.796,2.817
			c0.425,0.341,0.85,0.683,1.279,1.021c0.475,0.323,0.991,0.582,1.533,0.771c0.485,0.245,1.003,0.418,1.537,0.513
			c1.126,0.228,2.286,0.228,3.413,0c0.535-0.095,1.053-0.268,1.537-0.513c0.544-0.187,1.062-0.447,1.538-0.771
			c0.425-0.337,0.85-0.679,1.279-1.021c3.3-3.365,3.3-8.752,0-12.117c-0.405-0.367-0.833-0.709-1.279-1.025
			C260.303,333.926,259.786,333.667,259.242,333.479z"/>
		<path d="M271.267,319.404c3.936,0.004,7.363-2.684,8.298-6.507c0.935-3.823-0.867-7.789-4.36-9.601
			c-12.086-6.058-26.322-6.058-38.409,0c-2.706,1.404-4.458,4.145-4.596,7.19s1.36,5.933,3.929,7.575
			c2.569,1.642,5.818,1.788,8.525,0.385c7.136-3.6,15.556-3.6,22.692,0C268.557,319.075,269.902,319.404,271.267,319.404z"/>
		<path d="M286.542,288.854c3.948,0.005,7.384-2.698,8.308-6.537c0.924-3.838-0.906-7.809-4.424-9.601
			c-21.666-10.858-47.184-10.858-68.85,0c-4.186,2.147-5.845,7.277-3.709,11.469c2.136,4.192,7.261,5.864,11.459,3.74
			c16.793-8.392,36.557-8.392,53.35,0C283.872,288.536,285.198,288.855,286.542,288.854z"/>
		<path d="M301.817,258.217c3.959,0.003,7.4-2.718,8.311-6.571s-0.949-7.826-4.49-9.596c-31.286-15.458-67.989-15.458-99.275,0
			c-4.216,2.106-5.926,7.23-3.821,11.446c2.106,4.216,7.23,5.926,11.446,3.821c26.482-13.075,57.543-13.075,84.025,0
			C299.193,257.909,300.496,258.217,301.817,258.217z"/>
		<path d="M400.996,263.467c-3.463,3.197-3.679,8.595-0.483,12.058c5.876,6.268,9.128,14.55,9.088,23.142
			c0.001,7.918-2.749,15.59-7.779,21.704c-1.94,2.352-2.479,5.561-1.412,8.417c1.067,2.856,3.576,4.927,6.583,5.431
			c3.007,0.504,6.055-0.634,7.995-2.986c16.279-19.753,15.453-48.498-1.933-67.283c-1.535-1.663-3.668-2.649-5.929-2.739
			C404.864,261.12,402.659,261.932,400.996,263.467z"/>
		<path d="M426.054,240.367c-1.657,1.543-2.633,3.68-2.713,5.942c-0.08,2.262,0.741,4.464,2.284,6.12
			c24.234,26.187,24.132,66.644-0.233,92.708c-3.224,3.438-3.05,8.839,0.388,12.063c3.438,3.224,8.839,3.05,12.063-0.388
			c30.505-32.615,30.625-83.257,0.275-116.017c-1.543-1.657-3.68-2.633-5.942-2.713
			C429.912,238.003,427.711,238.824,426.054,240.367z"/>
		<path d="M448.725,370.096c-2.176,2.171-3.017,5.344-2.201,8.307c0.816,2.963,3.163,5.259,6.144,6.009s6.135-0.16,8.257-2.384
			c44.443-45.414,45.451-117.706,2.292-164.342c-3.203-3.456-8.602-3.662-12.058-0.458c-3.456,3.203-3.662,8.602-0.458,12.058
			C487.672,269.249,486.804,331.186,448.725,370.096L448.725,370.096z"/>
		<path d="M85.333,298.667c0.003,11.881,4.131,23.392,11.679,32.567c1.94,2.352,4.988,3.49,7.995,2.986
			c3.007-0.504,5.517-2.575,6.583-5.431c1.067-2.856,0.529-6.065-1.412-8.417c-5.031-6.114-7.781-13.786-7.779-21.704
			c-0.041-8.592,3.211-16.873,9.087-23.142c3.196-3.463,2.98-8.862-0.483-12.058c-3.463-3.196-8.862-2.98-12.058,0.483
			C90.196,273.394,85.334,285.793,85.333,298.667z"/>
		<path d="M73.883,240.796c-30.35,32.759-30.23,83.402,0.275,116.017c2.086,2.224,5.199,3.166,8.168,2.472
			c2.969-0.694,5.342-2.919,6.225-5.837c0.883-2.918,0.143-6.086-1.943-8.31c-24.365-26.065-24.467-66.521-0.233-92.708
			c3.213-3.45,3.02-8.85-0.429-12.063C82.497,237.154,77.096,237.346,73.883,240.796z"/>
		<path d="M48.783,217.688C5.624,264.323,6.632,336.615,51.075,382.029c3.308,3.299,8.653,3.326,11.993,0.059
			c3.34-3.267,3.432-8.612,0.206-11.992C25.196,331.187,24.327,269.25,61.3,229.287c2.094-2.232,2.832-5.415,1.934-8.341
			c-0.898-2.926-3.294-5.147-6.28-5.82C53.968,214.453,50.85,215.43,48.783,217.688z"/>
	</g>
</g>
<g>
</g>
<g>
</g>
<g>
</g>
<g>
</g>
<g>
</g>
<g>
</g>
<g>
</g>
<g>
</g>
<g>
</g>
<g>
</g>
<g>
</g>
<g>
</g>
<g>
</g>
<g>
</g>
<g>
</g>
</svg>
