<?xml version="1.0" encoding="iso-8859-1"?>
<!-- Generator: Adobe Illustrator 19.0.0, SVG Export Plug-In . SVG Version: 6.00 Build 0)  -->
<svg version="1.1" id="Capa_1" xmlns="http://www.w3.org/2000/svg" xmlns:xlink="http://www.w3.org/1999/xlink" x="0px" y="0px"
	 viewBox="0 0 512.005 512.005" style="enable-background:new 0 0 512.005 512.005;" xml:space="preserve">
<g>
	<g transform="translate(1)">
		<path style="fill:#F44335;" d="M492.058,183.81c0.447,2.277,0.675,4.592,0.683,6.912c0.016,17.029-12.43,31.507-29.269,34.048
			c-0.339,0.057-0.685,0.057-1.024,0c-3.573,19.387-18.511,34.691-37.805,38.733c-19.295,4.042-39.119-3.979-50.173-20.301
			c-5.573-8.237-8.546-17.958-8.533-27.904c0.013,9.946-2.96,19.667-8.533,27.904c-11.043,16.296-30.827,24.32-50.102,20.319
			c-19.275-4.001-34.231-19.235-37.877-38.581c-0.346-0.027-0.688-0.084-1.024-0.171c-16.839-2.541-29.285-17.019-29.269-34.048
			c0.007-2.32,0.236-4.635,0.683-6.912c0.49-2.218,1.175-4.388,2.048-6.485c0.298-0.855,0.669-1.683,1.109-2.475
			c0.341-0.597,0.683-1.109,1.024-1.707c0-0.085,0.171-0.171,0.171-0.171c0.696-1.286,1.495-2.513,2.389-3.669
			c0-0.023,0.008-0.045,0.024-0.061c0.016-0.016,0.038-0.025,0.061-0.024c-10.804-7.367-17.259-19.606-17.238-32.683
			c0-1.28,0.085-2.475,0.171-3.669c0-0.341,0.085-0.683,0.085-0.939c0.094-0.889,0.236-1.772,0.427-2.645
			c0.576-3.089,1.521-6.097,2.816-8.96c0.341-0.853,0.768-1.707,1.109-2.475c0.085-0.085,0.085-0.171,0.171-0.171
			c0.515-1.043,1.114-2.042,1.792-2.987c0.605-0.944,1.26-1.856,1.963-2.731c0.512-0.683,1.109-1.28,1.707-1.963
			c0.085-0.085,0.171-0.256,0.256-0.341c0.597-0.597,1.28-1.28,1.963-1.877c2.055-1.946,4.315-3.663,6.741-5.12
			c0,0,0.085-0.171,0.171-0.085c1.638-0.961,3.35-1.788,5.12-2.475c0-0.085-0.085-0.085-0.085-0.171
			c-3.232-5.29-4.917-11.38-4.864-17.579c-0.056-18.916,15.218-34.304,34.133-34.389c1.628-0.014,3.254,0.1,4.864,0.341V47.96
			c-0.083-13.987,7.332-26.948,19.432-33.965s27.031-7.018,39.131,0c12.1,7.018,19.514,19.978,19.432,33.965
			c-0.155-14.035,7.243-27.071,19.373-34.134c12.13-7.063,27.119-7.063,39.249,0c12.13,7.063,19.528,20.099,19.373,34.134v0.341
			c1.61-0.241,3.236-0.355,4.864-0.341c18.916,0.086,34.189,15.473,34.133,34.389c0.053,6.199-1.632,12.289-4.864,17.579
			c0,0.085-0.085,0.085-0.085,0.171c1.77,0.686,3.482,1.514,5.12,2.475c0.085-0.085,0.171,0.085,0.171,0.085
			c2.426,1.457,4.687,3.174,6.741,5.12c0.683,0.597,1.365,1.28,1.963,1.877c0.085,0.085,0.171,0.256,0.256,0.341
			c0.597,0.683,1.195,1.28,1.707,1.963c0.702,0.875,1.357,1.786,1.963,2.731c0.678,0.945,1.277,1.944,1.792,2.987
			c0.085,0,0.085,0.085,0.171,0.171c0.341,0.768,0.768,1.621,1.109,2.475c1.295,2.863,2.24,5.871,2.816,8.96
			c0.191,0.873,0.333,1.756,0.427,2.645c0,0.256,0.085,0.597,0.085,0.939c0.085,1.195,0.171,2.389,0.171,3.669
			c0.021,13.077-6.434,25.315-17.237,32.683c0.023,0,0.045,0.008,0.061,0.024c0.016,0.016,0.025,0.038,0.024,0.061
			c0.894,1.157,1.693,2.384,2.389,3.669c0,0,0.171,0.085,0.171,0.171c0.341,0.597,0.683,1.109,1.024,1.707
			c0.44,0.791,0.812,1.619,1.109,2.475C490.883,179.422,491.569,181.592,492.058,183.81z"/>
		<g>
			<circle style="fill:#E91E63;" cx="33.136" cy="384.002" r="25.6"/>
			<circle style="fill:#E91E63;" cx="272.069" cy="384.002" r="25.6"/>
		</g>
		<g>
			<circle style="fill:#FFEB3A;" cx="365.936" cy="384.002" r="25.6"/>
			<circle style="fill:#FFEB3A;" cx="109.936" cy="477.869" r="25.6"/>
			<circle style="fill:#FFEB3A;" cx="109.936" cy="290.136" r="25.6"/>
		</g>
		<g>
			<circle style="fill:#4CAF50;" cx="195.269" cy="477.869" r="25.6"/>
			<circle style="fill:#4CAF50;" cx="195.269" cy="290.136" r="25.6"/>
		</g>
		<g>
			<path style="fill:#C52828;" d="M492.058,183.81c0.447,2.277,0.675,4.592,0.683,6.912c0.016,17.029-12.43,31.507-29.269,34.048
				c-0.339,0.057-0.685,0.057-1.024,0c-4.297,23.02-24.369,39.723-47.787,39.765c-4.267,0.001-8.515-0.573-12.629-1.707
				c17.881-5.062,31.362-19.799,34.816-38.059c0.339,0.057,0.685,0.057,1.024,0c16.839-2.541,29.285-17.019,29.269-34.048
				c-0.007-2.32-0.236-4.635-0.683-6.912c-0.489-2.218-1.175-4.388-2.048-6.485c-0.298-0.855-0.669-1.683-1.109-2.475
				c-0.341-0.597-0.683-1.109-1.024-1.707c0-0.085-0.171-0.171-0.171-0.171c-0.696-1.286-1.495-2.513-2.389-3.669
				c0-0.023-0.008-0.045-0.024-0.061c-0.016-0.016-0.038-0.025-0.061-0.024c10.804-7.367,17.258-19.606,17.237-32.683
				c0-1.28-0.085-2.475-0.171-3.669c0-0.341-0.085-0.683-0.085-0.939c-0.094-0.889-0.236-1.772-0.427-2.645
				c-0.576-3.089-1.521-6.097-2.816-8.96c-0.341-0.853-0.768-1.707-1.109-2.475c-0.085-0.085-0.085-0.171-0.171-0.171
				c-0.515-1.043-1.114-2.042-1.792-2.987c-0.605-0.944-1.26-1.856-1.963-2.731c-0.512-0.683-1.109-1.28-1.707-1.963
				c-0.085-0.085-0.171-0.256-0.256-0.341c-0.597-0.597-1.28-1.28-1.963-1.877c-2.055-1.946-4.315-3.663-6.741-5.12
				c0,0-0.085-0.171-0.171-0.085c-1.638-0.961-3.35-1.788-5.12-2.475c0-0.085,0.085-0.085,0.085-0.171
				c3.232-5.29,4.917-11.38,4.864-17.579c0.056-18.916-15.218-34.304-34.133-34.389c-1.628-0.014-3.254,0.1-4.864,0.341V47.96
				c0.077-16.714-10.436-31.644-26.197-37.205c4.104-1.482,8.436-2.232,12.8-2.219c10.401,0.05,20.356,4.234,27.671,11.629
				c7.315,7.395,11.39,17.394,11.327,27.795v0.341c1.61-0.241,3.236-0.355,4.864-0.341c18.916,0.086,34.189,15.473,34.133,34.389
				c0.053,6.199-1.632,12.289-4.864,17.579c0,0.085-0.085,0.085-0.085,0.171c1.77,0.686,3.482,1.514,5.12,2.475
				c0.085-0.085,0.171,0.085,0.171,0.085c2.426,1.457,4.687,3.174,6.741,5.12c0.683,0.597,1.365,1.28,1.963,1.877
				c0.085,0.085,0.171,0.256,0.256,0.341c0.597,0.683,1.195,1.28,1.707,1.963c0.702,0.875,1.357,1.786,1.963,2.731
				c0.678,0.945,1.277,1.944,1.792,2.987c0.085,0,0.085,0.085,0.171,0.171c0.341,0.768,0.768,1.621,1.109,2.475
				c1.295,2.863,2.24,5.871,2.816,8.96c0.191,0.873,0.333,1.756,0.427,2.645c0,0.256,0.085,0.597,0.085,0.939
				c0.085,1.195,0.171,2.389,0.171,3.669c0.021,13.077-6.434,25.315-17.237,32.683c0.023,0,0.045,0.008,0.061,0.024
				c0.016,0.016,0.025,0.038,0.024,0.061c0.894,1.157,1.693,2.384,2.389,3.669c0,0,0.171,0.085,0.171,0.171
				c0.341,0.597,0.683,1.109,1.024,1.707c0.44,0.791,0.812,1.619,1.109,2.475C490.883,179.422,491.569,181.592,492.058,183.81z"/>
			<path style="fill:#C52828;" d="M365.936,47.96v167.339c0.013,9.946-2.96,19.667-8.533,27.904
				c-11.653,17.196-32.949,25.084-52.992,19.627c11.168-3.09,20.875-10.045,27.392-19.627c5.573-8.237,8.546-17.958,8.533-27.904
				V47.96c0.04-16.702-10.459-31.613-26.197-37.205c4.104-1.481,8.436-2.232,12.8-2.219C348.573,8.703,366.003,26.325,365.936,47.96
				z"/>
		</g>
	</g>
	<g>
		<path d="M29.52,417.669l47.615,63.486c1.512,16.466,14.666,29.448,31.15,30.745s31.505-9.47,35.573-25.497h19.49
			c4.068,16.026,19.089,26.792,35.573,25.496s29.637-14.278,31.15-30.743l47.615-63.486c13.655-1.872,24.832-11.796,28.307-25.133
			h28.023c4.129,16.101,19.277,26.87,35.841,25.481c16.564-1.389,29.706-14.531,31.095-31.095
			c1.389-16.564-9.38-31.711-25.481-35.841v-94.704c14.25,14.239,34.954,19.906,54.47,14.91
			c19.516-4.997,34.948-19.917,40.602-39.252c12.128-3.21,22.228-11.596,27.612-22.927c5.384-11.331,5.507-24.458,0.336-35.888
			c-0.325-0.759-0.643-1.526-1.011-2.216c10.73-10.387,15.977-25.2,14.178-40.025c-0.076-0.668-0.198-1.32-0.301-1.98
			c-0.177-1.121-0.378-2.23-0.631-3.323c-0.186-0.816-0.392-1.62-0.619-2.42c-0.245-0.854-0.525-1.691-0.816-2.524
			c-0.316-0.917-0.622-1.834-0.992-2.726c-0.147-0.351-0.327-0.683-0.481-1.03c-1.003-2.261-2.181-4.439-3.525-6.516
			c-0.183-0.283-0.35-0.576-0.538-0.854c-0.67-0.99-1.39-1.936-2.133-2.872c-0.341-0.431-0.689-0.855-1.043-1.273
			c-0.703-0.824-1.414-1.634-2.173-2.409c-0.664-0.683-1.368-1.32-2.07-1.963c-0.523-0.472-1.011-0.977-1.557-1.427
			c-1.449-1.199-2.967-2.312-4.547-3.332l-0.029-0.021c4.281-12.597,2.502-26.466-4.82-37.575
			c-7.322-11.109-19.366-18.212-32.63-19.245c-0.026-0.147-0.087-0.282-0.115-0.428c-0.452-2.388-1.085-4.738-1.896-7.03
			c-0.15-0.431-0.303-0.856-0.466-1.28c-0.847-2.229-1.861-4.392-3.031-6.47c-0.194-0.343-0.406-0.67-0.608-1.008
			c-1.244-2.106-2.646-4.114-4.195-6.007c-0.115-0.139-0.245-0.263-0.361-0.401c-1.573-1.853-3.285-3.584-5.119-5.179
			c-0.172-0.15-0.328-0.313-0.502-0.461c-1.862-1.559-3.84-2.974-5.917-4.232c-0.336-0.206-0.664-0.418-1.006-0.617
			c-2.067-1.194-4.221-2.23-6.445-3.098c-0.394-0.154-0.789-0.295-1.188-0.439c-2.301-0.84-4.665-1.497-7.07-1.966
			c-0.327-0.062-0.66-0.097-0.989-0.153c-18.192-3.227-36.577,4.566-46.908,19.883c-10.322-15.306-28.689-23.101-46.869-19.89
			c-0.334,0.057-0.671,0.091-1.003,0.155c-2.404,0.467-4.768,1.123-7.07,1.961c-0.379,0.137-0.753,0.271-1.127,0.417
			c-2.267,0.879-4.463,1.933-6.568,3.151c-0.247,0.144-0.483,0.298-0.727,0.446c-11.819,7.147-19.983,19.042-22.403,32.64
			c-13.275,1.017-25.334,8.115-32.668,19.227c-7.334,11.112-9.118,24.991-4.833,37.597l-0.029,0.021
			c-1.58,1.021-3.098,2.133-4.547,3.332c-0.545,0.449-1.034,0.954-1.557,1.427c-0.703,0.643-1.407,1.28-2.07,1.963
			c-0.759,0.775-1.47,1.585-2.173,2.409c-0.355,0.419-0.703,0.844-1.043,1.273c-0.742,0.936-1.463,1.883-2.133,2.872
			c-0.188,0.278-0.355,0.572-0.538,0.854c-1.344,2.076-2.522,4.255-3.525,6.516c-0.155,0.347-0.334,0.679-0.481,1.03
			c-0.37,0.892-0.676,1.809-0.992,2.726c-0.291,0.834-0.57,1.67-0.816,2.524c-0.227,0.801-0.432,1.604-0.619,2.42
			c-0.253,1.094-0.454,2.203-0.631,3.323c-0.102,0.66-0.225,1.311-0.301,1.98c-1.798,14.824,3.445,29.635,14.17,40.025
			c-0.391,0.746-0.726,1.528-1.056,2.313c-5.101,11.43-4.936,24.522,0.452,35.82s15.456,19.667,27.549,22.899
			c5.654,19.336,21.087,34.255,40.602,39.252s40.22-0.671,54.47-14.91v94.704c-11.947,3.112-21.276,12.442-24.388,24.388H305.99
			c-3.474-13.337-14.651-23.261-28.306-25.133L230.07,286.85c-1.512-16.466-14.665-29.449-31.15-30.745
			c-16.484-1.296-31.506,9.471-35.573,25.498h-19.49c-4.068-16.026-19.089-26.792-35.573-25.496s-29.637,14.278-31.15,30.743
			L29.52,350.336c-16.892,2.228-29.518,16.628-29.518,33.667S12.628,415.441,29.52,417.669z M48.672,353.241l33.571-44.761
			c7.259,11.459,20.639,17.5,34.035,15.367c13.396-2.133,24.238-12.031,27.579-25.178h19.49
			c3.341,13.146,14.183,23.045,27.579,25.177s26.776-3.908,34.035-15.367l33.571,44.761c-11.955,5.575-19.597,17.571-19.597,30.761
			c0,13.191,7.642,25.187,19.597,30.761l-33.571,44.761c-7.259-11.459-20.639-17.5-34.035-15.367
			c-13.396,2.133-24.238,12.031-27.579,25.177h-19.49c-3.341-13.146-14.183-23.045-27.579-25.177
			c-13.396-2.133-26.776,3.908-34.035,15.367l-33.572-44.761c11.955-5.575,19.597-17.571,19.597-30.761
			C68.269,370.812,60.627,358.816,48.672,353.241z M110.936,494.936c-9.426,0-17.067-7.641-17.067-17.067
			s7.641-17.067,17.067-17.067s17.067,7.641,17.067,17.067C127.991,487.29,120.357,494.925,110.936,494.936z M196.269,494.936
			c-9.426,0-17.067-7.641-17.067-17.067s7.641-17.067,17.067-17.067c9.426,0,17.067,7.641,17.067,17.067
			C213.325,487.29,205.69,494.925,196.269,494.936z M405.944,17.069c8.162,0.084,15.957,3.407,21.67,9.238
			c5.712,5.831,8.874,13.692,8.79,21.855c-0.014,2.528-0.33,5.046-0.943,7.499c-0.752,2.953,0.129,6.084,2.311,8.211
			c2.182,2.128,5.333,2.93,8.267,2.104c2.934-0.826,5.204-3.154,5.956-6.107c0.263-1.029,0.399-2.088,0.592-3.134
			c7.572,0.86,14.375,5.03,18.576,11.388c4.201,6.358,5.369,14.251,3.19,21.554c-3.251-0.701-6.566-1.055-9.892-1.058
			c-17.033,0.055-32.741,9.199-41.2,23.983c-2.343,4.091-0.925,9.307,3.167,11.65s9.307,0.925,11.65-3.167
			c5.406-9.484,15.467-15.357,26.383-15.4c3.835,0.015,7.63,0.768,11.181,2.218c0.073,0.032,0.119,0.102,0.194,0.132
			c1.082,0.453,2.135,0.971,3.154,1.552c0.436,0.242,0.887,0.458,1.31,0.721c0.87,0.545,1.711,1.134,2.519,1.766
			c0.606,0.468,1.19,0.959,1.759,1.47c0.697,0.624,1.394,1.25,2.03,1.935c0.63,0.679,1.189,1.42,1.757,2.154
			c0.829,1.07,1.587,2.194,2.27,3.363c0.535,0.886,1.025,1.798,1.468,2.733c0.328,0.718,0.591,1.465,0.864,2.208
			c0.379,1.032,0.702,2.083,0.968,3.15c0.164,0.654,0.332,1.306,0.454,1.973c1.856,9.61-1.062,19.523-7.829,26.594
			c-7.542-6.387-17.092-9.913-26.974-9.961c-4.713,0-8.533,3.82-8.533,8.533c0,4.713,3.82,8.533,8.533,8.533
			c8.16,0.036,15.806,3.987,20.555,10.623c0.378,0.48,0.721,0.986,1.029,1.514c0.042,0.084,0.1,0.163,0.144,0.246
			c0.588,0.945,1.115,1.927,1.577,2.94c0.083,0.192,0.158,0.336,0.245,0.552c1.354,3.179,2.051,6.599,2.05,10.054
			c-0.016,9.487-5.189,18.215-13.503,22.785c-1.621-8.329-5.091-16.188-10.155-22.997c-2.835-3.765-8.185-4.518-11.95-1.683
			c-3.765,2.835-4.518,8.185-1.683,11.95c4.217,5.628,6.869,12.272,7.685,19.256c-2.224,21.361-20.858,37.193-42.298,35.937
			c-21.44-1.256-38.098-19.156-37.812-40.63V47.919C375.386,30.993,389.018,17.193,405.944,17.069z M318.177,256.002
			c-20.389,0.063-37.569-15.207-39.9-35.463c0.739-7.171,3.399-14.01,7.7-19.795c2.835-3.765,2.081-9.115-1.684-11.95
			c-3.765-2.835-9.115-2.081-11.95,1.684c-5.063,6.809-8.533,14.668-10.154,22.997c-11.765-6.415-16.696-20.743-11.371-33.039
			c0.157-0.392,0.329-0.627,0.49-0.961c0.377-0.798,0.795-1.577,1.251-2.332c0.044-0.083,0.102-0.161,0.143-0.244
			c0.186-0.345,0.395-0.678,0.596-0.984c4.726-6.954,12.579-11.127,20.987-11.154c4.713,0,8.533-3.821,8.533-8.533
			c0-4.713-3.82-8.533-8.533-8.533c-9.883,0.048-19.432,3.575-26.974,9.962c-6.767-7.071-9.685-16.984-7.829-26.594
			c0.121-0.667,0.289-1.318,0.453-1.971c0.267-1.069,0.591-2.122,0.97-3.156c0.272-0.741,0.535-1.485,0.862-2.201
			c1.038-2.154,2.29-4.197,3.738-6.099c0.568-0.734,1.126-1.475,1.757-2.154c0.637-0.685,1.333-1.311,2.03-1.935
			c0.57-0.511,1.153-1.003,1.759-1.47c0.808-0.632,1.649-1.221,2.518-1.766c0.424-0.263,0.876-0.48,1.314-0.722
			c1.018-0.58,2.071-1.098,3.152-1.551c0.074-0.03,0.12-0.101,0.194-0.132c3.55-1.449,7.346-2.202,11.181-2.218
			c10.916,0.043,20.977,5.916,26.383,15.4c1.515,2.647,4.328,4.284,7.378,4.295c3.05,0.011,5.874-1.606,7.408-4.242
			c1.534-2.636,1.546-5.89,0.031-8.537c-8.459-14.784-24.167-23.928-41.2-23.983c-3.325,0.003-6.641,0.358-9.892,1.058
			c-2.179-7.303-1.011-15.196,3.19-21.554c4.201-6.358,11.004-10.529,18.576-11.388c0.193,1.046,0.329,2.105,0.592,3.134
			c1.162,4.566,5.805,7.325,10.371,6.162c4.566-1.162,7.325-5.805,6.162-10.371c-0.637-2.531-0.959-5.131-0.958-7.742
			c-0.135-10.977,5.644-21.178,15.128-26.706s21.209-5.528,30.693,0c9.484,5.528,15.263,15.729,15.128,26.706v167.388
			C358.508,237.643,340.513,255.849,318.177,256.002z M366.936,366.936c9.426,0,17.067,7.641,17.067,17.067
			s-7.641,17.067-17.067,17.067s-17.067-7.641-17.067-17.067C349.88,374.581,357.514,366.947,366.936,366.936z M290.136,384.002
			c0,9.426-7.641,17.067-17.067,17.067c-9.426,0-17.067-7.641-17.067-17.067s7.641-17.067,17.067-17.067
			C282.49,366.947,290.125,374.581,290.136,384.002z M196.269,273.069c9.426,0,17.067,7.641,17.067,17.067
			s-7.641,17.067-17.067,17.067c-9.426,0-17.067-7.641-17.067-17.067C179.213,280.715,186.848,273.08,196.269,273.069z
			 M110.936,273.069c9.426,0,17.067,7.641,17.067,17.067s-7.641,17.067-17.067,17.067s-17.067-7.641-17.067-17.067
			C93.88,280.715,101.514,273.08,110.936,273.069z M34.136,366.936c9.426,0,17.067,7.641,17.067,17.067s-7.641,17.067-17.067,17.067
			s-17.067-7.641-17.067-17.067C17.08,374.581,24.714,366.947,34.136,366.936z"/>
		<path d="M337.494,189.186c-0.435-0.339-0.926-0.6-1.45-0.771c-0.51-0.258-1.059-0.43-1.625-0.508
			c-2.502-0.513-5.101,0.133-7.072,1.757c-1.971,1.624-3.102,4.052-3.078,6.606c0.014,1.115,0.246,2.216,0.683,3.242
			c0.413,1.044,1.021,2,1.792,2.817c1.636,1.558,3.799,2.441,6.058,2.475c0.542-0.016,1.083-0.073,1.617-0.171
			c0.566-0.082,1.115-0.255,1.625-0.512c0.524-0.171,1.015-0.432,1.45-0.771c0.49-0.291,0.949-0.633,1.367-1.021
			c3.3-3.365,3.3-8.752,0-12.117C338.436,189.869,338.002,189.528,337.494,189.186z"/>
		<path d="M337.494,146.519c-0.435-0.339-0.926-0.6-1.45-0.771c-0.51-0.258-1.059-0.43-1.625-0.508
			c-2.783-0.561-5.661,0.303-7.675,2.304c-0.772,0.814-1.38,1.769-1.792,2.813c-0.438,1.027-0.67,2.13-0.683,3.246
			c0.014,2.263,0.9,4.433,2.475,6.059c1.636,1.558,3.8,2.441,6.059,2.475c0.542-0.016,1.083-0.073,1.617-0.171
			c0.566-0.082,1.115-0.255,1.625-0.512c0.524-0.171,1.015-0.432,1.45-0.771c0.508-0.337,0.942-0.679,1.367-1.021
			c3.3-3.365,3.3-8.752,0-12.117C338.442,147.156,337.984,146.812,337.494,146.519z"/>
		<path d="M337.494,95.319c-0.435-0.339-0.926-0.6-1.45-0.771c-0.51-0.258-1.059-0.43-1.625-0.508
			c-2.78-0.518-5.64,0.34-7.675,2.304c-0.79,0.8-1.4,1.759-1.792,2.813c-0.438,1.027-0.67,2.13-0.683,3.246
			c0.014,2.263,0.9,4.433,2.475,6.059c1.636,1.558,3.8,2.441,6.059,2.475c0.542-0.016,1.083-0.073,1.617-0.171
			c0.566-0.082,1.115-0.255,1.625-0.513c0.524-0.171,1.015-0.432,1.45-0.771c0.508-0.337,0.942-0.679,1.367-1.021
			c3.3-3.365,3.3-8.752,0-12.117C338.436,96.002,338.002,95.661,337.494,95.319z"/>
		<path d="M337.494,52.652c-0.435-0.339-0.926-0.6-1.45-0.771c-0.51-0.258-1.059-0.43-1.625-0.508
			c-2.78-0.518-5.64,0.34-7.675,2.304c-1.561,1.634-2.445,3.799-2.475,6.059c0.014,1.115,0.246,2.216,0.683,3.242
			c0.413,1.044,1.021,2,1.792,2.817c1.636,1.558,3.799,2.441,6.058,2.475c0.542-0.016,1.083-0.073,1.617-0.171
			c0.566-0.082,1.115-0.255,1.625-0.513c0.524-0.171,1.015-0.432,1.45-0.771c0.49-0.291,0.949-0.633,1.367-1.021
			c3.3-3.365,3.3-8.752,0-12.117C338.436,53.336,338.002,52.994,337.494,52.652z"/>
		<path d="M396.286,203.348c0.477,0.324,0.996,0.583,1.542,0.771c0.483,0.245,1,0.418,1.533,0.513
			c0.565,0.098,1.136,0.155,1.708,0.171c0.542-0.016,1.083-0.073,1.617-0.171c0.566-0.082,1.115-0.255,1.625-0.512
			c0.543-0.188,1.059-0.447,1.533-0.771c0.425-0.338,0.858-0.679,1.283-1.021c3.313-3.34,3.298-8.73-0.032-12.052
			s-8.721-3.322-12.052,0s-3.345,8.712-0.033,12.052C395.436,202.669,395.861,203.01,396.286,203.348z"/>
		<path d="M401.069,162.136c3.472,0.014,6.609-2.068,7.944-5.273c1.335-3.205,0.604-6.898-1.851-9.353
			c-2.455-2.455-6.148-3.186-9.353-1.851c-3.205,1.335-5.287,4.472-5.273,7.944c-0.022,2.27,0.87,4.453,2.475,6.058
			C396.616,161.266,398.799,162.158,401.069,162.136z"/>
		<path d="M395.01,108.461c1.627,1.572,3.796,2.459,6.059,2.475c2.259-0.035,4.421-0.918,6.059-2.475
			c0.753-0.83,1.359-1.783,1.792-2.817c0.437-1.026,0.669-2.127,0.683-3.242c0-4.713-3.82-8.533-8.533-8.533
			s-8.533,3.821-8.533,8.533c-0.031,1.119,0.203,2.23,0.683,3.242C393.651,106.678,394.257,107.631,395.01,108.461z"/>
		<path d="M401.069,68.269c3.45-0.014,6.556-2.096,7.879-5.282c1.323-3.187,0.606-6.856-1.82-9.31
			c-0.425-0.341-0.858-0.683-1.283-1.025c-0.475-0.324-0.99-0.583-1.533-0.771c-0.51-0.258-1.059-0.43-1.625-0.508
			c-1.093-0.258-2.232-0.258-3.325,0c-0.534,0.091-1.051,0.263-1.533,0.508c-0.546,0.187-1.064,0.447-1.542,0.771l-1.275,1.025
			c-2.462,2.441-3.201,6.129-1.872,9.331S397.602,68.289,401.069,68.269z"/>
	</g>
</g>
<g>
</g>
<g>
</g>
<g>
</g>
<g>
</g>
<g>
</g>
<g>
</g>
<g>
</g>
<g>
</g>
<g>
</g>
<g>
</g>
<g>
</g>
<g>
</g>
<g>
</g>
<g>
</g>
<g>
</g>
</svg>
