<?xml version="1.0" encoding="iso-8859-1"?>
<!-- Generator: Adobe Illustrator 19.0.0, SVG Export Plug-In . SVG Version: 6.00 Build 0)  -->
<svg version="1.1" id="Capa_1" xmlns="http://www.w3.org/2000/svg" xmlns:xlink="http://www.w3.org/1999/xlink" x="0px" y="0px"
	 viewBox="0 0 512.007 512.007" style="enable-background:new 0 0 512.007 512.007;" xml:space="preserve">
<g transform="translate(0 -1)">
	<g transform="translate(1 1)">
		<path style="fill:#F44335;" d="M484.38,350.727c0.691,3.945,1.033,7.942,1.024,11.947c-0.025,35.706-26.002,66.098-61.269,71.68
			c-0.336,1.812-0.763,3.607-1.28,5.376c-0.205,1.044-0.49,2.072-0.853,3.072c-0.598,2.18-1.34,4.318-2.219,6.4
			c-0.603,1.667-1.316,3.291-2.133,4.864c-0.327,0.885-0.727,1.741-1.195,2.56c-0.569,1.267-1.225,2.493-1.963,3.669
			c-0.341,0.683-0.768,1.365-1.195,2.048c-1.417,2.354-2.955,4.632-4.608,6.827c-1.024,1.365-2.048,2.645-3.072,3.925
			c-4.217,5.001-8.999,9.496-14.251,13.397c-1.109,0.853-2.219,1.621-3.328,2.389c-3.427,2.312-7.021,4.365-10.752,6.144
			c-2.392,1.175-4.841,2.229-7.339,3.157c-1.621,0.597-3.242,1.109-4.864,1.621c-1.109,0.341-2.304,0.682-3.413,0.939
			c-2.75,0.74-5.543,1.31-8.363,1.707c-1.024,0.171-2.133,0.341-3.243,0.427c-3.226,0.417-6.476,0.616-9.728,0.597
			c-32.725-0.022-62.558-18.75-76.8-48.213c-5.635-11.562-8.553-24.258-8.533-37.12c0.02,12.862-2.899,25.558-8.533,37.12
			c-14.242,29.464-44.075,48.192-76.8,48.213c-3.252,0.019-6.502-0.181-9.728-0.597c-1.109-0.085-2.219-0.256-3.243-0.427
			c-2.82-0.396-5.613-0.966-8.363-1.707c-1.109-0.256-2.304-0.597-3.413-0.939c-1.621-0.512-3.243-1.024-4.864-1.621
			c-2.498-0.929-4.947-1.982-7.339-3.157c-3.731-1.779-7.325-3.832-10.752-6.144c-1.109-0.768-2.218-1.536-3.328-2.389
			c-5.251-3.901-10.033-8.397-14.251-13.397c-1.024-1.28-2.048-2.56-3.072-3.925c-1.653-2.194-3.191-4.473-4.608-6.827
			c-0.427-0.683-0.853-1.365-1.195-2.048c-0.738-1.177-1.393-2.403-1.963-3.669c-0.468-0.819-0.867-1.675-1.195-2.56
			c-0.817-1.573-1.53-3.197-2.133-4.864c-0.879-2.082-1.62-4.22-2.219-6.4c-0.363-1-0.649-2.027-0.853-3.072
			c-0.517-1.769-0.944-3.564-1.28-5.376c-35.268-5.582-61.245-35.973-61.27-71.68c-0.009-4.005,0.333-8.002,1.024-11.947
			c0.26-1.637,0.601-3.261,1.024-4.864c0.473-2.352,1.129-4.663,1.963-6.912c0.597-1.877,1.365-3.755,2.133-5.547
			c1.606-3.556,3.489-6.98,5.632-10.24c1.024-1.621,2.133-3.157,3.328-4.693C19.51,304.08,7.523,280.807,7.537,256.007
			c0-1.536,0.085-3.072,0.171-4.523c0.001-1.114,0.086-2.227,0.256-3.328c0.085-1.28,0.256-2.56,0.427-3.84
			c0.256-1.621,0.597-3.243,0.939-4.779c0.335-1.736,0.791-3.447,1.365-5.12c3.247-11.379,9.155-21.821,17.237-30.464
			c0.667-0.781,1.379-1.522,2.133-2.219c5.934-5.994,12.827-10.954,20.395-14.677c-5.798-10.192-8.828-21.725-8.789-33.451
			c-0.005-18.107,7.186-35.474,19.989-48.277s30.17-19.994,48.277-19.989h0.085c-0.085-1.451-0.085-2.816-0.085-4.267
			c-0.013-33.297,22.654-62.322,54.961-70.379s65.949,6.927,81.572,36.331c5.622,10.467,8.554,22.167,8.533,34.048
			c-0.021-11.881,2.911-23.581,8.533-34.048c15.623-29.404,49.265-44.388,81.572-36.331s54.974,37.082,54.961,70.379
			c0,1.451,0,2.816-0.085,4.267h0.085c18.107-0.005,35.474,7.186,48.277,19.989c12.804,12.804,19.994,30.17,19.989,48.277
			c0.039,11.726-2.991,23.258-8.789,33.451c7.568,3.723,14.461,8.684,20.395,14.677c0.754,0.697,1.466,1.438,2.133,2.218
			c8.082,8.643,13.991,19.085,17.237,30.464c0.574,1.673,1.03,3.384,1.365,5.12c0.341,1.536,0.683,3.157,0.939,4.779
			c0.171,1.28,0.341,2.56,0.427,3.84c0.17,1.101,0.255,2.214,0.256,3.328c0.085,1.451,0.171,2.987,0.171,4.523
			c0.013,24.8-11.973,48.073-32.171,62.464c1.195,1.536,2.304,3.072,3.328,4.693c2.143,3.26,4.026,6.684,5.632,10.24
			c0.768,1.792,1.536,3.669,2.133,5.547c0.833,2.249,1.49,4.56,1.963,6.912C483.778,347.466,484.12,349.089,484.38,350.727z"/>
		<g>
			<circle style="fill:#4CAF50;" cx="152.604" cy="170.674" r="17.067"/>
			<circle style="fill:#4CAF50;" cx="152.604" cy="238.94" r="17.067"/>
			<circle style="fill:#4CAF50;" cx="203.804" cy="290.14" r="17.067"/>
			<circle style="fill:#4CAF50;" cx="161.137" cy="401.074" r="17.067"/>
			<circle style="fill:#4CAF50;" cx="357.404" cy="349.874" r="17.067"/>
			<circle style="fill:#4CAF50;" cx="357.404" cy="281.607" r="17.067"/>
			<circle style="fill:#4CAF50;" cx="306.204" cy="230.407" r="17.067"/>
			<circle style="fill:#4CAF50;" cx="306.204" cy="110.94" r="17.067"/>
			<circle style="fill:#4CAF50;" cx="203.804" cy="93.874" r="17.067"/>
		</g>
		<g>
			<path style="fill:#C52828;" d="M484.38,350.727c0.691,3.945,1.033,7.942,1.024,11.947c-0.025,35.706-26.002,66.098-61.269,71.68
				c-0.336,1.812-0.763,3.607-1.28,5.376c-0.205,1.044-0.49,2.072-0.853,3.072c-0.598,2.18-1.34,4.318-2.219,6.4
				c-0.603,1.667-1.316,3.291-2.133,4.864c-0.327,0.885-0.727,1.741-1.195,2.56c-0.569,1.267-1.225,2.493-1.963,3.669
				c-0.341,0.683-0.768,1.365-1.195,2.048c-1.417,2.354-2.955,4.632-4.608,6.827c-1.024,1.365-2.048,2.645-3.072,3.925
				c-4.217,5.001-8.999,9.496-14.251,13.397c-1.109,0.853-2.219,1.621-3.328,2.389c-3.427,2.312-7.021,4.365-10.752,6.144
				c-2.392,1.175-4.841,2.229-7.339,3.157c-1.621,0.597-3.242,1.109-4.864,1.621c-1.109,0.341-2.304,0.682-3.413,0.939
				c-2.75,0.74-5.543,1.31-8.363,1.707c-1.024,0.171-2.133,0.341-3.243,0.427c-3.226,0.417-6.476,0.616-9.728,0.597
				c-4.287,0.005-8.568-0.337-12.8-1.024h0.171c2.82-0.396,5.613-0.966,8.363-1.707c1.109-0.256,2.304-0.597,3.413-0.939
				c1.621-0.512,3.243-1.024,4.864-1.621c2.498-0.929,4.947-1.982,7.339-3.157c3.731-1.779,7.325-3.832,10.752-6.144
				c1.109-0.768,2.219-1.536,3.328-2.389c5.251-3.901,10.033-8.397,14.251-13.397c1.024-1.28,2.048-2.56,3.072-3.925
				c1.653-2.194,3.191-4.473,4.608-6.827c0.427-0.683,0.853-1.365,1.195-2.048c0.738-1.177,1.393-2.403,1.963-3.669
				c0.468-0.819,0.867-1.675,1.195-2.56c0.817-1.573,1.53-3.197,2.133-4.864c0.879-2.082,1.62-4.22,2.219-6.4
				c0.363-1,0.649-2.027,0.853-3.072c0.517-1.769,0.944-3.564,1.28-5.376c35.268-5.582,61.245-35.973,61.27-71.68
				c0.009-4.005-0.333-8.002-1.024-11.947c-0.26-1.637-0.601-3.261-1.024-4.864c-0.473-2.352-1.129-4.663-1.963-6.912
				c-0.597-1.877-1.365-3.755-2.133-5.547c-1.606-3.556-3.489-6.98-5.632-10.24c-1.024-1.621-2.133-3.157-3.328-4.693
				c20.198-14.391,32.184-37.664,32.171-62.464c0-1.536-0.085-3.072-0.171-4.523c-0.001-1.114-0.086-2.227-0.256-3.328
				c-0.085-1.28-0.256-2.56-0.427-3.84c-0.256-1.621-0.597-3.243-0.939-4.779c-0.335-1.736-0.791-3.447-1.365-5.12
				c-3.247-11.379-9.155-21.821-17.237-30.464c-0.667-0.781-1.379-1.521-2.133-2.218c-5.934-5.994-12.827-10.954-20.395-14.677
				c5.798-10.193,8.828-21.725,8.789-33.451c0.005-18.107-7.186-35.474-19.989-48.277c-12.804-12.804-30.17-19.994-48.277-19.989
				h-0.085c0.085-1.451,0.085-2.816,0.085-4.267c-0.037-35.067-25.142-65.092-59.648-71.339c4.192-0.79,8.449-1.19,12.715-1.195
				c40.048,0.027,72.507,32.485,72.533,72.533c0,1.451,0,2.816-0.085,4.267h0.085c18.107-0.005,35.474,7.186,48.277,19.989
				c12.804,12.804,19.994,30.17,19.989,48.277c0.039,11.726-2.991,23.258-8.789,33.451c7.568,3.723,14.461,8.684,20.395,14.677
				c0.754,0.697,1.466,1.438,2.133,2.218c8.082,8.643,13.991,19.085,17.237,30.464c0.574,1.673,1.03,3.384,1.365,5.12
				c0.341,1.536,0.683,3.157,0.939,4.779c0.171,1.28,0.341,2.56,0.427,3.84c0.17,1.101,0.255,2.214,0.256,3.328
				c0.085,1.451,0.171,2.987,0.171,4.523c0.013,24.8-11.973,48.073-32.171,62.464c1.195,1.536,2.304,3.072,3.328,4.693
				c2.143,3.26,4.026,6.684,5.632,10.24c0.768,1.792,1.536,3.669,2.133,5.547c0.833,2.249,1.49,4.56,1.963,6.912
				C483.778,347.466,484.12,349.089,484.38,350.727z"/>
			<path style="fill:#C52828;" d="M255.004,81.074V418.14c0.02,12.862-2.899,25.558-8.533,37.12
				c-14.242,29.464-44.075,48.192-76.8,48.213c-3.252,0.019-6.502-0.181-9.728-0.597c-1.024-0.085-2.133-0.256-3.072-0.427
				c41.68-6.336,72.493-42.151,72.533-84.309V81.074c-0.044-35.124-25.24-65.172-59.819-71.339c4.25-0.79,8.563-1.19,12.885-1.195
				c26.807,0.012,51.421,14.813,64,38.485C252.092,57.492,255.025,69.192,255.004,81.074z"/>
		</g>
	</g>
	<path d="M510.833,243.53c-0.323-2.026-0.696-4.029-1.16-6.004c-0.335-1.446-0.698-2.874-1.107-4.293
		c-0.45-1.547-0.971-3.06-1.505-4.571c-0.569-1.626-1.109-3.256-1.774-4.838l-0.015-0.032c-1.976-4.623-4.362-9.06-7.13-13.257
		c-0.347-0.533-0.672-1.079-1.031-1.604c-1.273-1.864-2.631-3.656-4.053-5.416c-0.473-0.586-0.962-1.156-1.451-1.73
		c-1.463-1.715-2.946-3.405-4.55-5.005c-0.31-0.311-0.652-0.588-0.967-0.894c-2.74-2.645-5.653-5.103-8.721-7.358
		c-1.33-0.987-2.658-1.973-4.046-2.884c-0.525-0.342-0.988-0.753-1.522-1.085c4.043-9.467,6.107-19.66,6.067-29.954
		c0-2.562-0.139-5.093-0.385-7.592c-0.082-0.83-0.242-1.634-0.351-2.457c-0.217-1.65-0.432-3.298-0.752-4.914
		c-0.193-0.976-0.461-1.922-0.691-2.885c-0.341-1.426-0.674-2.854-1.095-4.248c-0.304-1.009-0.671-1.988-1.015-2.98
		c-0.451-1.298-0.898-2.595-1.416-3.861c-0.412-1.009-0.875-1.99-1.329-2.977c-0.55-1.197-1.104-2.389-1.713-3.552
		c-0.517-0.987-1.071-1.947-1.63-2.909c-0.64-1.103-1.291-2.194-1.983-3.261c-0.618-0.953-1.262-1.882-1.921-2.806
		c-0.721-1.011-1.46-2.004-2.228-2.978c-0.717-0.909-1.452-1.801-2.206-2.676c-0.791-0.915-1.606-1.805-2.439-2.682
		c-0.813-0.857-1.633-1.701-2.484-2.519c-0.851-0.818-1.732-1.604-2.621-2.383c-0.907-0.796-1.815-1.588-2.759-2.341
		c-0.899-0.717-1.83-1.39-2.761-2.066c-1.003-0.729-1.999-1.462-3.038-2.143c-0.938-0.614-1.909-1.174-2.874-1.748
		c-1.091-0.649-2.169-1.311-3.294-1.907c-0.978-0.518-1.994-0.969-2.996-1.446c-1.168-0.555-2.319-1.135-3.517-1.631
		c-1.02-0.423-2.079-0.765-3.12-1.144c-1.23-0.448-2.441-0.935-3.699-1.321c-1.223-0.375-2.489-0.647-3.738-0.963
		c-1.984-0.501-3.995-0.923-6.033-1.268c-1.42-0.239-2.827-0.516-4.271-0.676c-1.702-36.892-28.144-67.962-64.289-75.54
		s-72.84,10.253-89.218,43.354C239.627,12.985,202.933-4.848,166.787,2.73s-62.589,38.647-64.291,75.539
		c-1.965,0.216-3.891,0.554-5.808,0.916c-0.418,0.079-0.85,0.113-1.265,0.199c-2.405,0.495-4.765,1.111-7.083,1.826
		c-0.791,0.244-1.546,0.56-2.326,0.829c-1.518,0.523-3.038,1.041-4.511,1.655c-0.905,0.377-1.77,0.821-2.657,1.232
		c-1.298,0.6-2.601,1.192-3.858,1.861c-0.918,0.489-1.796,1.033-2.691,1.557c-1.172,0.687-2.344,1.368-3.475,2.114
		c-0.886,0.583-1.735,1.213-2.596,1.831c-1.079,0.777-2.153,1.556-3.189,2.387c-0.834,0.668-1.636,1.369-2.441,2.07
		c-0.994,0.866-1.974,1.741-2.921,2.656c-0.772,0.745-1.517,1.512-2.257,2.289c-0.906,0.949-1.789,1.916-2.645,2.911
		c-0.702,0.815-1.385,1.643-2.051,2.486c-0.816,1.032-1.6,2.085-2.364,3.159c-0.621,0.874-1.232,1.753-1.818,2.654
		c-0.723,1.112-1.403,2.251-2.069,3.402c-0.534,0.924-1.067,1.845-1.564,2.793c-0.629,1.198-1.201,2.426-1.766,3.661
		c-0.439,0.956-0.886,1.905-1.286,2.882c-0.527,1.289-0.984,2.61-1.442,3.933c-0.338,0.975-0.698,1.936-0.997,2.929
		c-0.424,1.407-0.761,2.848-1.105,4.288c-0.227,0.95-0.492,1.883-0.683,2.846c-0.323,1.624-0.538,3.283-0.756,4.943
		c-0.107,0.816-0.267,1.615-0.348,2.438c-0.246,2.5-0.385,5.031-0.385,7.594c-0.04,10.292,2.024,20.484,6.067,29.95
		c-0.547,0.34-1.021,0.76-1.559,1.111c-1.344,0.882-2.629,1.839-3.918,2.794c-3.146,2.305-6.131,4.822-8.933,7.535
		c-0.272,0.265-0.568,0.504-0.836,0.773c-1.612,1.609-3.103,3.307-4.574,5.032c-0.48,0.565-0.961,1.125-1.427,1.702
		c-1.426,1.765-2.789,3.564-4.066,5.433c-0.354,0.518-0.674,1.057-1.018,1.583c-3.695,5.669-6.694,11.764-8.931,18.15
		c-0.533,1.507-1.052,3.017-1.502,4.562c-0.408,1.42-0.772,2.847-1.107,4.294c-0.464,1.976-0.836,3.979-1.16,6.004
		c-0.184,1.172-0.402,2.329-0.538,3.515c-3.434,27.872,7.215,55.627,28.41,74.049c-3.777,6.176-6.703,12.833-8.7,19.791
		c-0.112,0.384-0.225,0.767-0.332,1.153c-0.882,3.206-1.566,6.464-2.048,9.754c-0.078,0.536-0.128,1.078-0.195,1.617
		c-0.447,3.404-0.682,6.832-0.702,10.266c-0.168,37.764,25.89,70.589,62.708,78.992c0.245,0.948,0.576,1.856,0.848,2.792
		c0.267,0.912,0.533,1.82,0.827,2.719c0.671,2.064,1.423,4.084,2.229,6.078c0.259,0.638,0.493,1.286,0.765,1.918
		c3.447,8.01,7.999,15.498,13.522,22.246c0.343,0.42,0.706,0.818,1.056,1.231c1.476,1.743,3.004,3.432,4.599,5.06
		c0.534,0.546,1.079,1.079,1.626,1.613c1.486,1.444,3.017,2.836,4.594,4.176c0.647,0.553,1.288,1.109,1.949,1.644
		c1.601,1.291,3.254,2.51,4.937,3.694c0.662,0.467,1.303,0.961,1.978,1.412c2.303,1.533,4.661,2.987,7.096,4.316
		c0.492,0.269,1.014,0.488,1.511,0.749c1.984,1.036,3.994,2.026,6.055,2.921c1.054,0.459,2.14,0.85,3.213,1.271
		c1.563,0.611,3.131,1.206,4.731,1.735c1.172,0.388,2.357,0.734,3.549,1.075c1.604,0.46,3.223,0.878,4.856,1.252
		c1.168,0.268,2.335,0.53,3.519,0.754c1.837,0.348,3.695,0.614,5.565,0.852c1.011,0.129,2.011,0.292,3.033,0.388
		c2.916,0.276,5.856,0.447,8.833,0.447c36.754-0.055,70.099-21.543,85.333-54.991c15.235,33.448,48.579,54.936,85.333,54.991
		c2.977,0,5.917-0.172,8.833-0.447c1.021-0.096,2.021-0.259,3.033-0.388c1.869-0.238,3.728-0.503,5.565-0.852
		c1.184-0.223,2.351-0.486,3.519-0.754c1.635-0.375,3.254-0.792,4.856-1.252c1.192-0.341,2.377-0.688,3.55-1.075
		c1.6-0.529,3.168-1.124,4.731-1.735c1.074-0.421,2.159-0.812,3.213-1.271c2.06-0.895,4.07-1.885,6.055-2.921
		c0.497-0.261,1.019-0.48,1.511-0.749c2.435-1.329,4.793-2.782,7.096-4.316c0.674-0.451,1.315-0.945,1.978-1.412
		c1.683-1.184,3.335-2.403,4.937-3.694c0.662-0.535,1.303-1.092,1.949-1.644c1.577-1.343,3.108-2.735,4.594-4.176
		c0.547-0.533,1.092-1.066,1.626-1.613c1.596-1.628,3.123-3.318,4.599-5.06c0.35-0.413,0.713-0.811,1.056-1.231
		c5.523-6.748,10.074-14.236,13.522-22.246c0.272-0.632,0.506-1.28,0.765-1.918c0.806-1.994,1.557-4.014,2.229-6.078
		c0.294-0.899,0.559-1.808,0.827-2.719c0.273-0.935,0.604-1.844,0.848-2.792c36.82-8.4,62.879-41.226,62.708-78.992
		c-0.02-3.432-0.255-6.86-0.702-10.264c-0.068-0.542-0.117-1.085-0.196-1.624c-0.482-3.29-1.167-6.546-2.048-9.752
		c-0.107-0.386-0.219-0.768-0.331-1.152c-1.998-6.96-4.926-13.619-8.704-19.796c21.198-18.417,31.849-46.171,28.415-74.041
		C511.234,245.86,511.017,244.702,510.833,243.53z M170.67,495.94c-2.48,0-4.927-0.142-7.348-0.372
		c-0.876-0.084-1.733-0.234-2.601-0.347c-1.52-0.198-3.037-0.407-4.528-0.693c-1.029-0.198-2.04-0.446-3.055-0.685
		c-1.303-0.306-2.6-0.628-3.876-0.999c-1.045-0.305-2.078-0.638-3.106-0.985c-1.225-0.414-2.435-0.858-3.631-1.332
		c-0.992-0.393-1.98-0.794-2.952-1.225c-1.233-0.548-2.439-1.143-3.636-1.754c-0.87-0.443-1.748-0.873-2.6-1.349
		c-1.388-0.776-2.733-1.615-4.067-2.473c-0.602-0.386-1.223-0.743-1.814-1.146c-3.938-2.687-7.619-5.731-10.997-9.095
		c-0.128-0.127-0.244-0.266-0.37-0.394c-1.541-1.559-3.015-3.181-4.423-4.866c-0.26-0.312-0.503-0.64-0.758-0.957
		c-1.237-1.533-2.424-3.108-3.542-4.734c-0.286-0.416-0.558-0.841-0.836-1.264c-1.032-1.566-2.007-3.17-2.927-4.813
		c-0.277-0.496-0.549-0.996-0.817-1.499c-0.855-1.615-1.646-3.267-2.386-4.947c-0.244-0.554-0.495-1.104-0.727-1.665
		c-0.697-1.69-1.316-3.418-1.894-5.166c-0.189-0.573-0.401-1.136-0.577-1.716c-0.581-1.909-1.068-3.857-1.501-5.825
		c-0.093-0.422-0.215-0.831-0.301-1.256c-4.353-21.479,0.678-43.794,13.828-61.326c2.83-3.769,2.069-9.119-1.7-11.95
		c-3.769-2.83-9.119-2.069-11.95,1.7c-12.241,16.224-18.835,36.009-18.775,56.333c0,1.69,0.165,3.337,0.254,5.005
		c-25.781-8.885-43.04-33.203-42.92-60.471c-0.001-3.513,0.284-7.02,0.851-10.487c0.066-0.408,0.217-0.786,0.291-1.191
		c1.8-9.945,5.974-19.309,12.166-27.297c0.055-0.07,0.064-0.163,0.116-0.234c8.057-10.433,19.149-18.111,31.751-21.978
		c4.506-1.385,7.035-6.161,5.65-10.667c-1.385-4.506-6.161-7.035-10.667-5.65c-13.218,4.051-25.18,11.418-34.746,21.399
		c-14.281-12.935-22.443-31.293-22.479-50.561c0.022-2.863,0.221-5.722,0.596-8.56c0.113-0.905,0.264-1.799,0.413-2.693
		c0.319-1.941,0.738-3.85,1.219-5.739c0.246-0.956,0.452-1.927,0.739-2.866c0.71-2.34,1.545-4.64,2.504-6.89
		c0.558-1.307,1.209-2.563,1.846-3.827c0.529-1.057,1.077-2.103,1.66-3.13c0.784-1.373,1.587-2.735,2.461-4.047
		c0.503-0.756,1.064-1.472,1.597-2.208c1.661-2.288,3.461-4.471,5.39-6.538c0.755-0.807,1.501-1.621,2.297-2.392
		c1.045-1.015,2.127-1.992,3.234-2.94c1.22-1.039,2.492-2.027,3.792-2.985c1.029-0.763,2.052-1.527,3.123-2.232
		c1.982-1.294,4.029-2.486,6.132-3.572c9.656-5.023,20.38-7.647,31.264-7.649c4.713,0,8.533-3.821,8.533-8.533
		c0-4.713-3.821-8.533-8.533-8.533c-10.156,0.02-20.225,1.866-29.728,5.449c-2.937-7.142-4.434-14.794-4.406-22.516
		c0.008-21.146,11.192-40.713,29.409-51.452s40.752-11.05,59.258-0.819c4.118,2.259,9.287,0.765,11.567-3.341
		s0.812-9.283-3.283-11.583c-8.813-4.857-18.495-7.932-28.496-9.05c1.984-34.562,31.107-61.272,65.711-60.266
		c34.604,1.005,62.127,29.36,62.102,63.979v4.267h-18.639c-4.156-11.755-16.176-18.806-28.465-16.698
		c-12.289,2.108-21.271,12.763-21.271,25.231s8.982,23.123,21.271,25.231c12.289,2.108,24.309-4.943,28.465-16.698h18.639v31.403
		l-37.05,51.868l-31.343-13.752c0.021-0.424,0.126-0.823,0.126-1.253c0.125-12.491-8.695-23.286-20.96-25.653
		c-12.265-2.367-24.469,4.372-29,16.012c-4.531,11.641-0.094,24.856,10.544,31.404c10.638,6.548,24.435,4.556,32.787-4.732
		l30.988,13.598c2.148,0.944,4.47,1.431,6.817,1.429c5.521,0.006,10.707-2.651,13.925-7.138l23.167-32.432v67.244h-69.839
		c-4.156-11.755-16.176-18.806-28.465-16.698c-12.289,2.108-21.271,12.763-21.271,25.231c0,12.468,8.982,23.123,21.271,25.231
		c12.289,2.108,24.309-4.943,28.465-16.698h69.839v34.133h-18.639c-4.156-11.755-16.176-18.806-28.465-16.698
		c-12.289,2.108-21.271,12.763-21.271,25.231c0,12.468,8.982,23.123,21.271,25.231c12.289,2.108,24.309-4.943,28.465-16.698h18.639
		v34.133h-69.808c-8.128,0.02-15.122,5.754-16.733,13.721l-6.019,30.112c-11.816,3.598-19.337,15.168-17.828,27.427
		c1.509,12.259,11.612,21.66,23.948,22.284c12.336,0.624,23.336-7.708,26.075-19.753c2.739-12.044-3.575-24.315-14.968-29.087
		l5.525-27.638h69.808v68.267C247.423,461.536,213.066,495.892,170.67,495.94z M213.337,94.874c0,4.713-3.821,8.533-8.533,8.533
		c-4.713,0-8.533-3.821-8.533-8.533c0-4.713,3.821-8.533,8.533-8.533C209.515,86.345,213.332,90.163,213.337,94.874z
		 M153.604,180.207c-4.713,0-8.533-3.821-8.533-8.533s3.82-8.533,8.533-8.533s8.533,3.821,8.533,8.533
		C162.132,176.384,158.315,180.202,153.604,180.207z M162.137,239.94c0,4.713-3.821,8.533-8.533,8.533s-8.533-3.821-8.533-8.533
		c0-4.713,3.82-8.533,8.533-8.533C158.315,231.412,162.132,235.229,162.137,239.94z M213.337,291.14
		c0,4.713-3.821,8.533-8.533,8.533c-4.713,0-8.533-3.821-8.533-8.533c0-4.713,3.821-8.533,8.533-8.533
		C209.515,282.612,213.332,286.429,213.337,291.14z M162.137,393.54c4.713,0,8.533,3.82,8.533,8.533s-3.821,8.533-8.533,8.533
		c-4.713,0-8.533-3.82-8.533-8.533C153.608,397.363,157.426,393.545,162.137,393.54z M472.458,307.568
		c-9.566-9.981-21.528-17.348-34.746-21.399c-4.506-1.385-9.281,1.144-10.667,5.65c-1.385,4.506,1.144,9.281,5.65,10.667
		c12.589,3.863,23.673,11.532,31.727,21.951c0.059,0.082,0.07,0.186,0.132,0.266c6.247,8.045,10.444,17.488,12.229,27.516
		c0.058,0.327,0.181,0.631,0.234,0.959c0.569,3.47,0.854,6.98,0.852,10.496c0.122,27.27-17.138,51.588-42.92,60.472
		c0.089-1.668,0.254-3.316,0.254-5.006c0.06-20.324-6.534-40.109-18.775-56.333c-2.83-3.769-8.181-4.53-11.95-1.7
		c-3.769,2.83-4.53,8.181-1.7,11.95c13.15,17.532,18.181,39.847,13.828,61.326c-0.086,0.424-0.208,0.834-0.301,1.256
		c-0.433,1.968-0.92,3.916-1.501,5.825c-0.177,0.58-0.387,1.145-0.577,1.719c-0.577,1.744-1.195,3.469-1.891,5.156
		c-0.233,0.567-0.487,1.121-0.733,1.681c-0.74,1.676-1.528,3.326-2.382,4.937c-0.267,0.504-0.539,1.004-0.817,1.5
		c-0.918,1.643-1.893,3.247-2.927,4.813c-0.278,0.422-0.55,0.848-0.836,1.264c-1.118,1.626-2.305,3.202-3.542,4.734
		c-0.256,0.317-0.498,0.645-0.758,0.957c-1.405,1.685-2.879,3.307-4.423,4.866c-0.127,0.128-0.243,0.267-0.37,0.394
		c-3.378,3.364-7.059,6.409-10.997,9.095c-0.591,0.403-1.212,0.759-1.814,1.146c-1.333,0.858-2.679,1.697-4.067,2.473
		c-0.853,0.475-1.731,0.907-2.602,1.35c-1.196,0.61-2.401,1.204-3.631,1.752c-0.974,0.433-1.965,0.834-2.958,1.227
		c-1.195,0.473-2.404,0.916-3.628,1.33c-1.028,0.347-2.061,0.681-3.106,0.986c-1.276,0.371-2.572,0.693-3.876,0.999
		c-1.015,0.239-2.026,0.487-3.055,0.685c-1.491,0.286-3.008,0.494-4.528,0.693c-0.868,0.114-1.725,0.264-2.601,0.347
		c-2.42,0.231-4.867,0.372-7.347,0.372c-42.396-0.048-76.752-34.404-76.8-76.8v-31.403l37.05-51.868l31.343,13.752
		c-0.021,0.423-0.126,0.823-0.126,1.252c-0.125,12.491,8.695,23.286,20.96,25.653s24.469-4.372,29-16.012
		c4.531-11.641,0.094-24.856-10.544-31.404c-10.638-6.548-24.435-4.556-32.787,4.732l-30.988-13.598
		c-7.396-3.219-16.035-0.841-20.742,5.709l-23.167,32.431V291.14h69.84c4.156,11.755,16.177,18.805,28.465,16.697
		c12.288-2.109,21.27-12.764,21.27-25.231c0-12.468-8.983-23.122-21.271-25.23c-12.288-2.108-24.308,4.943-28.464,16.698h-69.839
		V239.94h18.64c4.156,11.755,16.177,18.805,28.465,16.697c12.288-2.109,21.27-12.764,21.27-25.231
		c0-12.468-8.983-23.122-21.271-25.23c-12.288-2.108-24.308,4.943-28.464,16.698h-18.639v-42.667h27.142
		c8.128-0.02,15.122-5.754,16.733-13.721l6.02-30.112c11.818-3.597,19.34-15.168,17.832-27.428
		c-1.508-12.261-11.611-21.663-23.948-22.288c-12.337-0.625-23.339,7.708-26.078,19.753c-2.74,12.045,3.574,24.317,14.968,29.09
		l-5.526,27.639h-27.142V82.074c-0.02-34.618,27.507-62.969,62.111-63.969c34.604-1,63.723,25.714,65.702,60.275
		c-10.457,1.164-20.563,4.468-29.687,9.707c-4.06,2.37-5.44,7.577-3.085,11.647s7.557,5.468,11.635,3.128
		c18.485-10.658,41.25-10.649,59.727,0.022c18.477,10.672,29.86,30.387,29.865,51.724c0.029,7.722-1.468,15.374-4.405,22.516
		c-9.503-3.583-19.573-5.429-29.729-5.449c-4.713,0-8.533,3.821-8.533,8.533c0,4.713,3.82,8.533,8.533,8.533
		c10.885,0.002,21.608,2.626,31.265,7.649c2.103,1.086,4.15,2.279,6.132,3.572c1.071,0.705,2.095,1.47,3.123,2.232
		c1.301,0.958,2.572,1.946,3.792,2.985c1.107,0.948,2.189,1.924,3.234,2.94c0.796,0.771,1.542,1.585,2.297,2.392
		c1.929,2.066,3.729,4.25,5.39,6.538c0.533,0.736,1.094,1.452,1.597,2.208c0.874,1.312,1.678,2.673,2.461,4.047
		c0.583,1.027,1.131,2.072,1.66,3.13c0.637,1.264,1.288,2.52,1.846,3.827c0.958,2.25,1.794,4.55,2.504,6.89
		c0.286,0.939,0.493,1.91,0.739,2.866c0.481,1.889,0.9,3.798,1.219,5.739c0.149,0.894,0.299,1.787,0.413,2.693
		c0.375,2.838,0.574,5.697,0.596,8.56C494.901,276.275,486.739,294.634,472.458,307.568z M358.404,342.34
		c4.713,0,8.533,3.821,8.533,8.533c0,4.713-3.82,8.533-8.533,8.533s-8.533-3.821-8.533-8.533
		C349.875,346.163,353.693,342.345,358.404,342.34z M349.87,282.607c0-4.713,3.82-8.533,8.533-8.533s8.533,3.82,8.533,8.533
		s-3.82,8.533-8.533,8.533C353.693,291.135,349.875,287.318,349.87,282.607z M298.67,231.407c0-4.713,3.82-8.533,8.533-8.533
		s8.533,3.821,8.533,8.533s-3.82,8.533-8.533,8.533C302.493,239.935,298.675,236.118,298.67,231.407z M307.204,120.474
		c-4.713,0-8.533-3.821-8.533-8.533c0-4.713,3.82-8.533,8.533-8.533s8.533,3.821,8.533,8.533
		C315.732,116.651,311.915,120.469,307.204,120.474z"/>
</g>
<g>
</g>
<g>
</g>
<g>
</g>
<g>
</g>
<g>
</g>
<g>
</g>
<g>
</g>
<g>
</g>
<g>
</g>
<g>
</g>
<g>
</g>
<g>
</g>
<g>
</g>
<g>
</g>
<g>
</g>
</svg>
