<?xml version="1.0" encoding="iso-8859-1"?>
<!-- Generator: Adobe Illustrator 19.0.0, SVG Export Plug-In . SVG Version: 6.00 Build 0)  -->
<svg version="1.1" id="Capa_1" xmlns="http://www.w3.org/2000/svg" xmlns:xlink="http://www.w3.org/1999/xlink" x="0px" y="0px"
	 viewBox="0 0 512 512" style="enable-background:new 0 0 512 512;" xml:space="preserve">
<g>
	<g transform="translate(1 1)">
		<path style="fill:#2E7D32;" d="M41.667,7.533h426.667c18.851,0,34.133,15.282,34.133,34.133v426.667
			c0,18.851-15.282,34.133-34.133,34.133H41.667c-18.851,0-34.133-15.282-34.133-34.133V41.667
			C7.533,22.815,22.815,7.533,41.667,7.533z"/>
		<path style="fill:#4CAF50;" d="M41.667,7.533h401.067c18.851,0,34.133,15.282,34.133,34.133v426.667
			c0,18.851-15.282,34.133-34.133,34.133H41.667c-18.851,0-34.133-15.282-34.133-34.133V41.667
			C7.533,22.815,22.815,7.533,41.667,7.533z"/>
		<path style="fill:#607D8B;" d="M408.6,118.467v273.067c0,9.426-7.641,17.067-17.067,17.067H118.467
			c-9.426,0-17.067-7.641-17.067-17.067V118.467c0-9.426,7.641-17.067,17.067-17.067h273.067
			C400.959,101.4,408.6,109.041,408.6,118.467z"/>
		<path style="fill:#CFD8DC;" d="M383,118.467v273.067c0,9.426-7.641,17.067-17.067,17.067H118.467
			c-9.426,0-17.067-7.641-17.067-17.067V118.467c0-9.426,7.641-17.067,17.067-17.067h247.467C375.359,101.4,383,109.041,383,118.467
			z"/>
		<g>
			<path style="fill:#FFEB3A;" d="M144.067,67.267h17.067c4.713,0,8.533,3.821,8.533,8.533v25.6h-34.133V75.8
				C135.533,71.087,139.354,67.267,144.067,67.267z"/>
			<path style="fill:#FFEB3A;" d="M212.333,67.267H229.4c4.713,0,8.533,3.821,8.533,8.533v25.6H203.8V75.8
				C203.8,71.087,207.621,67.267,212.333,67.267z"/>
			<path style="fill:#FFEB3A;" d="M280.6,67.267h17.067c4.713,0,8.533,3.821,8.533,8.533v25.6h-34.133V75.8
				C272.067,71.087,275.887,67.267,280.6,67.267z"/>
			<path style="fill:#FFEB3A;" d="M348.867,67.267h17.067c4.713,0,8.533,3.821,8.533,8.533v25.6h-34.133V75.8
				C340.333,71.087,344.154,67.267,348.867,67.267z"/>
			<path style="fill:#FFEB3A;" d="M365.933,442.733h-17.067c-4.713,0-8.533-3.821-8.533-8.533v-25.6h34.133v25.6
				C374.467,438.913,370.646,442.733,365.933,442.733z"/>
			<path style="fill:#FFEB3A;" d="M297.667,442.733H280.6c-4.713,0-8.533-3.821-8.533-8.533v-25.6H306.2v25.6
				C306.2,438.913,302.38,442.733,297.667,442.733z"/>
			<path style="fill:#FFEB3A;" d="M229.4,442.733h-17.067c-4.713,0-8.533-3.821-8.533-8.533v-25.6h34.133v25.6
				C237.933,438.913,234.113,442.733,229.4,442.733z"/>
			<path style="fill:#FFEB3A;" d="M161.133,442.733h-17.067c-4.713,0-8.533-3.821-8.533-8.533v-25.6h34.133v25.6
				C169.667,438.913,165.846,442.733,161.133,442.733z"/>
			<path style="fill:#FFEB3A;" d="M67.267,365.933v-17.067c0-4.713,3.821-8.533,8.533-8.533h25.6v34.133H75.8
				C71.087,374.467,67.267,370.646,67.267,365.933z"/>
			<path style="fill:#FFEB3A;" d="M67.267,297.667V280.6c0-4.713,3.821-8.533,8.533-8.533h25.6V306.2H75.8
				C71.087,306.2,67.267,302.38,67.267,297.667z"/>
			<path style="fill:#FFEB3A;" d="M67.267,229.4v-17.067c0-4.713,3.821-8.533,8.533-8.533h25.6v34.133H75.8
				C71.087,237.933,67.267,234.113,67.267,229.4z"/>
			<path style="fill:#FFEB3A;" d="M67.267,161.133v-17.067c0-4.713,3.821-8.533,8.533-8.533h25.6v34.133H75.8
				C71.087,169.667,67.267,165.846,67.267,161.133z"/>
			<path style="fill:#FFEB3A;" d="M442.733,144.067v17.067c0,4.713-3.821,8.533-8.533,8.533h-25.6v-34.133h25.6
				C438.913,135.533,442.733,139.354,442.733,144.067z"/>
			<path style="fill:#FFEB3A;" d="M442.733,212.333V229.4c0,4.713-3.821,8.533-8.533,8.533h-25.6V203.8h25.6
				C438.913,203.8,442.733,207.621,442.733,212.333z"/>
			<path style="fill:#FFEB3A;" d="M442.733,280.6v17.067c0,4.713-3.821,8.533-8.533,8.533h-25.6v-34.133h25.6
				C438.913,272.067,442.733,275.887,442.733,280.6z"/>
			<path style="fill:#FFEB3A;" d="M442.733,348.867v17.067c0,4.713-3.821,8.533-8.533,8.533h-25.6v-34.133h25.6
				C438.913,340.333,442.733,344.154,442.733,348.867z"/>
		</g>
		<path style="fill:#F44335;" d="M362.605,288.28c2.208,4.211,3.351,8.899,3.328,13.653c-0.024,14.831-10.922,27.4-25.6,29.525
			c0-1.284-0.086-2.567-0.256-3.84c-2.307,22.598-21.921,39.423-44.607,38.262c-22.686-1.16-40.481-19.898-40.47-42.614
			c0.011,22.716-17.784,41.454-40.47,42.614c-22.686,1.16-42.3-15.664-44.607-38.262c-0.17,1.273-0.256,2.556-0.256,3.84
			c-14.678-2.126-25.576-14.695-25.6-29.525c-0.023-4.755,1.12-9.442,3.328-13.653c0.282-0.531,0.595-1.043,0.939-1.536
			c0.638-1.22,1.411-2.365,2.304-3.413c-9.445-6.333-15.109-16.959-15.104-28.331c-0.007-1.918,0.165-3.831,0.512-5.717
			c0.101-0.691,0.244-1.374,0.427-2.048c0.403-1.878,1.004-3.709,1.792-5.461c0.403-1.018,0.859-2.015,1.365-2.987
			c0.928-1.811,2.074-3.502,3.413-5.035c0.494-0.664,1.036-1.292,1.621-1.877c0.597-0.683,1.195-1.195,1.792-1.792
			c1.214-1.165,2.528-2.221,3.925-3.157l2.048-1.28c0.768-0.427,1.451-0.853,2.219-1.195c0.719-0.443,1.494-0.787,2.304-1.024
			c-2.882-4.602-4.391-9.93-4.352-15.36c0.018-16.487,13.379-29.849,29.867-29.867c1.43-0.017,2.858,0.097,4.267,0.341V178.2
			c0-18.851,15.282-34.133,34.133-34.133S255,159.349,255,178.2c0-18.851,15.282-34.133,34.133-34.133s34.133,15.282,34.133,34.133
			v0.341c1.409-0.244,2.837-0.358,4.267-0.341c16.487,0.018,29.849,13.379,29.867,29.867c0.039,5.43-1.47,10.758-4.352,15.36
			c0.81,0.237,1.585,0.581,2.304,1.024c0.768,0.341,1.451,0.768,2.219,1.195l2.048,1.28c1.398,0.936,2.711,1.993,3.925,3.157
			c0.597,0.597,1.195,1.109,1.792,1.792c0.585,0.586,1.127,1.213,1.621,1.877c1.339,1.533,2.485,3.223,3.413,5.035
			c0.506,0.971,0.962,1.968,1.365,2.987c0.788,1.752,1.389,3.583,1.792,5.461c0.183,0.674,0.325,1.357,0.427,2.048
			c0.347,1.886,0.519,3.8,0.512,5.717c0.005,11.372-5.659,21.997-15.104,28.331c0.893,1.048,1.666,2.193,2.304,3.413
			C362.01,287.237,362.324,287.749,362.605,288.28z"/>
	</g>
	<g>
		<path d="M469.333,0H42.667C19.114,0.028,0.028,19.114,0,42.667v426.667C0.028,492.886,19.114,511.972,42.667,512h426.667
			c23.553-0.028,42.639-19.114,42.667-42.667V42.667C511.972,19.114,492.886,0.028,469.333,0z M494.933,469.333
			c-0.015,14.132-11.468,25.585-25.6,25.6H42.667c-14.132-0.015-25.585-11.468-25.6-25.6V42.667
			c0.015-14.132,11.468-25.585,25.6-25.6h426.667c14.132,0.015,25.585,11.468,25.6,25.6V469.333z"/>
		<path d="M382.965,246.875c-0.536-2.507-1.3-4.961-2.281-7.33c-0.054-0.13-0.119-0.251-0.175-0.38
			c-2.078-4.853-5.053-9.269-8.77-13.017c-0.216-0.22-0.439-0.426-0.659-0.641c-1.704-1.669-3.546-3.19-5.508-4.547
			c-0.147-0.102-0.268-0.238-0.416-0.339c1.186-3.737,1.786-7.634,1.779-11.555c-0.024-19.865-15.176-36.442-34.958-38.246
			l-0.034-0.116c-0.073-0.361-0.224-0.69-0.306-1.047c-0.5-2.226-1.178-4.407-2.03-6.523c-0.339-0.829-0.788-1.587-1.177-2.389
			c-0.726-1.553-1.545-3.06-2.453-4.514c-0.545-0.848-1.161-1.628-1.763-2.433c-0.94-1.277-1.95-2.5-3.025-3.665
			c-0.713-0.761-1.455-1.473-2.22-2.18c-1.147-1.058-2.351-2.052-3.607-2.978c-0.839-0.62-1.673-1.223-2.557-1.781
			c-1.364-0.845-2.775-1.612-4.226-2.297c-0.906-0.439-1.785-0.903-2.725-1.278c-1.658-0.633-3.355-1.161-5.079-1.58
			c-0.849-0.22-1.659-0.518-2.527-0.686c-16.099-3.23-32.604,3.22-42.246,16.511c-9.637-13.287-26.135-19.738-42.229-16.512
			c-0.887,0.171-1.715,0.474-2.581,0.7c-1.692,0.413-3.357,0.931-4.985,1.551c-0.993,0.394-1.921,0.882-2.876,1.347
			c-1.37,0.652-2.704,1.377-3.996,2.172c-0.984,0.617-1.914,1.284-2.842,1.977c-1.109,0.83-2.167,1.701-3.19,2.633
			c-0.927,0.842-1.817,1.698-2.667,2.617c-0.851,0.924-1.625,1.903-2.394,2.9c-0.83,1.073-1.654,2.133-2.381,3.283
			c-0.6,0.954-1.09,1.971-1.616,2.974c-0.72,1.283-1.371,2.603-1.952,3.954c-0.386,0.968-0.619,2.005-0.936,3.007
			c-0.516,1.427-0.954,2.881-1.311,4.355c-19.791,1.793-34.955,18.373-34.98,38.245c-0.007,3.92,0.593,7.818,1.779,11.555
			c-0.148,0.101-0.269,0.236-0.416,0.339c-1.962,1.356-3.805,2.877-5.508,4.547c-0.22,0.215-0.444,0.421-0.659,0.641
			c-3.717,3.748-6.693,8.165-8.77,13.017c-0.056,0.129-0.121,0.251-0.175,0.38c-0.981,2.369-1.744,4.823-2.281,7.33
			c-0.095,0.433-0.164,0.87-0.245,1.308c-0.501,2.576-0.766,5.193-0.79,7.817c-0.006,11.286,4.468,22.113,12.438,30.104
			c-0.241,0.488-0.454,0.992-0.665,1.496c-4.475,10.15-4.307,21.745,0.46,31.761c4.767,10.016,13.66,17.459,24.359,20.387
			c5.939,18.796,22.155,32.502,41.677,35.227s38.872-6.017,49.731-22.467c10.859,16.451,30.209,25.193,49.731,22.467
			c19.522-2.725,35.738-16.431,41.677-35.227c19.375-5.326,31.306-24.76,27.287-44.448c-0.553-2.67-1.392-5.273-2.503-7.764
			c-0.206-0.485-0.41-0.975-0.634-1.429c7.973-7.991,12.448-18.82,12.442-30.108c-0.025-2.624-0.289-5.241-0.79-7.817
			C383.128,247.745,383.06,247.308,382.965,246.875z M213.333,358.4c-17.142,0.149-31.682-12.555-33.835-29.562
			c0.637-5.976,2.881-11.668,6.493-16.471c2.853-3.751,2.126-9.105-1.625-11.958c-3.751-2.853-9.105-2.126-11.958,1.625
			c-4.235,5.587-7.247,12.002-8.841,18.829c-8.913-5.52-12.406-16.758-8.192-26.358c0.123-0.307,0.256-0.484,0.381-0.743
			c0.324-0.679,0.683-1.34,1.077-1.981c0.054-0.099,0.122-0.192,0.172-0.293c0.135-0.243,0.271-0.459,0.392-0.652
			c3.971-5.776,10.529-9.229,17.538-9.236c4.713,0,8.533-3.82,8.533-8.533s-3.821-8.533-8.533-8.533
			c-8.546,0.035-16.83,2.948-23.517,8.269c-5.201-5.795-7.382-13.695-5.891-21.338c0.103-0.559,0.245-1.106,0.385-1.654
			c0.222-0.875,0.49-1.738,0.804-2.584c0.233-0.626,0.456-1.256,0.737-1.86c0.349-0.759,0.771-1.473,1.19-2.19
			c0.6-1.023,1.27-2.004,2.005-2.934c0.455-0.577,0.898-1.161,1.4-1.695c0.544-0.58,1.138-1.109,1.735-1.636
			c0.465-0.412,0.942-0.808,1.436-1.186c0.689-0.533,1.405-1.03,2.145-1.489c0.336-0.206,0.695-0.375,1.042-0.566
			c0.866-0.489,1.761-0.925,2.679-1.306c0.067-0.026,0.108-0.09,0.173-0.118c2.991-1.207,6.184-1.833,9.41-1.845
			c9.145,0.02,17.591,4.897,22.179,12.809c2.361,4.08,7.583,5.473,11.663,3.112c4.08-2.361,5.473-7.583,3.112-11.663
			c-8.964-15.768-27.008-24.036-44.804-20.531c-0.433-1.653-0.662-3.352-0.684-5.06c0.029-10.495,7.695-19.407,18.068-21.003
			c0.126,0.595,0.19,1.201,0.341,1.791c1.171,4.566,5.822,7.317,10.388,6.146c4.566-1.171,7.317-5.822,6.146-10.388
			c-2.484-9.607,0.807-19.784,8.445-26.118c7.638-6.334,18.249-7.684,27.23-3.465c8.981,4.219,14.716,13.248,14.717,23.171v145.067
			C247.445,343.109,232.176,358.378,213.333,358.4z M348.433,320.862c-1.594-6.827-4.606-13.242-8.841-18.829
			c-1.846-2.426-4.846-3.684-7.87-3.298c-3.024,0.385-5.613,2.355-6.792,5.167c-1.178,2.812-0.767,6.039,1.079,8.465
			c3.525,4.643,5.76,10.136,6.479,15.921c-2.108,17.94-17.843,31.122-35.875,30.055c-18.032-1.067-32.102-16.012-32.08-34.076V179.2
			c0.04-9.893,5.78-18.877,14.74-23.072c8.96-4.195,19.535-2.849,27.159,3.456c7.624,6.305,10.931,16.44,8.492,26.028
			c-1.171,4.566,1.58,9.216,6.146,10.388c4.566,1.171,9.216-1.58,10.388-6.146c0.151-0.589,0.215-1.196,0.341-1.791
			c10.373,1.596,18.039,10.508,18.068,21.003c-0.022,1.708-0.251,3.408-0.684,5.06c-17.797-3.506-35.842,4.765-44.804,20.535
			c-2.333,4.078-0.932,9.274,3.136,11.626c4.067,2.351,9.27,0.973,11.639-3.084c4.589-7.909,13.035-12.785,22.179-12.804
			c3.225,0.012,6.419,0.638,9.41,1.845c0.066,0.028,0.107,0.092,0.173,0.118c0.919,0.381,1.815,0.817,2.681,1.307
			c0.346,0.191,0.704,0.359,1.039,0.565c0.741,0.459,1.457,0.956,2.146,1.489c0.494,0.378,0.971,0.774,1.436,1.186
			c0.597,0.527,1.192,1.057,1.735,1.636c0.502,0.535,0.945,1.119,1.4,1.695c0.736,0.932,1.407,1.915,2.008,2.94
			c0.417,0.715,0.838,1.425,1.186,2.182c0.282,0.607,0.506,1.239,0.74,1.868c0.313,0.844,0.58,1.705,0.802,2.578
			c0.14,0.548,0.282,1.096,0.385,1.655c1.491,7.643-0.69,15.543-5.891,21.338c-6.687-5.321-14.972-8.234-23.517-8.269
			c-4.713,0-8.533,3.82-8.533,8.533s3.82,8.533,8.533,8.533c6.81,0.016,13.2,3.292,17.188,8.812c0.269,0.345,0.516,0.705,0.741,1.08
			c0.055,0.112,0.133,0.217,0.193,0.327c0.482,0.765,0.914,1.56,1.294,2.381c0.073,0.168,0.139,0.294,0.217,0.488
			c1.123,2.604,1.701,5.41,1.7,8.246C358.358,310.22,354.599,316.98,348.433,320.862z"/>
		<path d="M435.2,179.2c9.422-0.009,17.057-7.645,17.067-17.067h17.067c4.713,0,8.533-3.821,8.533-8.533s-3.821-8.533-8.533-8.533
			h-17.067c-0.009-9.422-7.645-17.057-17.067-17.067h-17.067v-8.533c-0.015-14.132-11.468-25.585-25.6-25.6H384V76.8
			c-0.009-9.422-7.645-17.057-17.067-17.067V42.667c0-4.713-3.82-8.533-8.533-8.533s-8.533,3.821-8.533,8.533v17.067
			c-9.422,0.009-17.057,7.645-17.067,17.067v17.067h-17.067V76.8c-0.009-9.422-7.645-17.057-17.067-17.067V42.667
			c0-4.713-3.821-8.533-8.533-8.533c-4.713,0-8.533,3.821-8.533,8.533v17.067c-9.422,0.009-17.057,7.645-17.067,17.067v17.067
			h-17.067V76.8c-0.009-9.422-7.645-17.057-17.067-17.067V42.667c0-4.713-3.821-8.533-8.533-8.533c-4.713,0-8.533,3.821-8.533,8.533
			v17.067c-9.422,0.009-17.057,7.645-17.067,17.067v17.067H179.2V76.8c-0.009-9.422-7.645-17.057-17.067-17.067V42.667
			c0-4.713-3.821-8.533-8.533-8.533s-8.533,3.821-8.533,8.533v17.067C135.645,59.743,128.009,67.378,128,76.8v17.067h-8.533
			c-14.132,0.015-25.585,11.468-25.6,25.6V128H76.8c-9.422,0.009-17.057,7.645-17.067,17.067H42.667
			c-4.713,0-8.533,3.82-8.533,8.533s3.821,8.533,8.533,8.533h17.067c0.009,9.422,7.645,17.057,17.067,17.067h17.067v17.067H76.8
			c-9.422,0.009-17.057,7.645-17.067,17.067H42.667c-4.713,0-8.533,3.821-8.533,8.533c0,4.713,3.821,8.533,8.533,8.533h17.067
			c0.009,9.422,7.645,17.057,17.067,17.067h17.067v17.067H76.8c-9.422,0.009-17.057,7.645-17.067,17.067H42.667
			c-4.713,0-8.533,3.821-8.533,8.533c0,4.713,3.821,8.533,8.533,8.533h17.067c0.009,9.422,7.645,17.057,17.067,17.067h17.067V332.8
			H76.8c-9.422,0.009-17.057,7.645-17.067,17.067H42.667c-4.713,0-8.533,3.82-8.533,8.533s3.821,8.533,8.533,8.533h17.067
			c0.009,9.422,7.645,17.057,17.067,17.067h17.067v8.533c0.015,14.132,11.468,25.585,25.6,25.6H128V435.2
			c0.009,9.422,7.645,17.057,17.067,17.067v17.067c0,4.713,3.82,8.533,8.533,8.533s8.533-3.821,8.533-8.533v-17.067
			c9.422-0.009,17.057-7.645,17.067-17.067v-17.067h17.067V435.2c0.009,9.422,7.645,17.057,17.067,17.067v17.067
			c0,4.713,3.821,8.533,8.533,8.533c4.713,0,8.533-3.821,8.533-8.533v-17.067c9.422-0.009,17.057-7.645,17.067-17.067v-17.067
			h17.067V435.2c0.009,9.422,7.645,17.057,17.067,17.067v17.067c0,4.713,3.821,8.533,8.533,8.533c4.713,0,8.533-3.821,8.533-8.533
			v-17.067c9.422-0.009,17.057-7.645,17.067-17.067v-17.067H332.8V435.2c0.009,9.422,7.645,17.057,17.067,17.067v17.067
			c0,4.713,3.82,8.533,8.533,8.533s8.533-3.821,8.533-8.533v-17.067c9.422-0.009,17.057-7.645,17.067-17.067v-17.067h8.533
			c14.132-0.015,25.585-11.468,25.6-25.6V384H435.2c9.422-0.009,17.057-7.645,17.067-17.067h17.067c4.713,0,8.533-3.82,8.533-8.533
			s-3.821-8.533-8.533-8.533h-17.067c-0.009-9.422-7.645-17.057-17.067-17.067h-17.067v-17.067H435.2
			c9.422-0.009,17.057-7.645,17.067-17.067h17.067c4.713,0,8.533-3.821,8.533-8.533c0-4.713-3.821-8.533-8.533-8.533h-17.067
			c-0.009-9.422-7.645-17.057-17.067-17.067h-17.067v-17.067H435.2c9.422-0.009,17.057-7.645,17.067-17.067h17.067
			c4.713,0,8.533-3.821,8.533-8.533c0-4.713-3.821-8.533-8.533-8.533h-17.067c-0.009-9.422-7.645-17.057-17.067-17.067h-17.067
			V179.2H435.2z M435.2,145.067v17.067h-17.067v-17.067H435.2z M349.867,76.8h17.067v17.067h-17.067V76.8z M281.6,76.8h17.067
			v17.067H281.6V76.8z M213.333,76.8H230.4v17.067h-17.067V76.8z M145.067,76.8h17.067v17.067h-17.067V76.8z M76.8,162.133v-17.067
			h17.067v17.067H76.8z M76.8,230.4v-17.067h17.067V230.4H76.8z M76.8,298.667V281.6h17.067v17.067H76.8z M76.8,366.933v-17.067
			h17.067v17.067H76.8z M162.133,435.2h-17.067v-17.067h17.067V435.2z M230.4,435.2h-17.067v-17.067H230.4V435.2z M298.667,435.2
			H281.6v-17.067h17.067V435.2z M366.933,435.2h-17.067v-17.067h17.067V435.2z M401.067,392.533
			c-0.006,4.71-3.823,8.527-8.533,8.533H119.467c-4.71-0.006-8.527-3.823-8.533-8.533V119.467c0.006-4.71,3.823-8.527,8.533-8.533
			h273.067c4.71,0.006,8.527,3.823,8.533,8.533V392.533z M435.2,349.867v17.067h-17.067v-17.067H435.2z M435.2,281.6v17.067h-17.067
			V281.6H435.2z M435.2,213.333V230.4h-17.067v-17.067H435.2z"/>
		<path d="M130.475,142.592c3.365,3.3,8.752,3.3,12.117,0c0.752-0.831,1.358-1.783,1.792-2.817c0.911-2.066,0.911-4.421,0-6.487
			c-0.434-1.032-1.04-1.983-1.792-2.813c-3.421-3.158-8.695-3.158-12.117,0c-0.754,0.828-1.362,1.78-1.796,2.813
			c-0.906,2.068-0.906,4.42,0,6.487C129.113,140.81,129.72,141.762,130.475,142.592z"/>
		<path d="M144.383,372.221c-0.188-0.543-0.448-1.058-0.771-1.533c-0.337-0.429-0.679-0.854-1.021-1.279
			c-3.421-3.158-8.695-3.158-12.117,0c-0.369,0.404-0.711,0.831-1.025,1.279c-0.323,0.475-0.582,0.991-0.771,1.533
			c-0.246,0.484-0.417,1.002-0.508,1.537c-0.096,0.565-0.153,1.136-0.171,1.708c0.032,2.259,0.916,4.423,2.475,6.059
			c0.801,0.788,1.76,1.399,2.813,1.792c1.027,0.438,2.13,0.67,3.246,0.683c2.27,0.022,4.453-0.87,6.058-2.475
			c1.605-1.605,2.497-3.788,2.475-6.058c-0.02-0.573-0.077-1.143-0.171-1.708C144.801,373.224,144.628,372.706,144.383,372.221z"/>
		<path d="M381.525,130.475c-2.493-2.347-6.116-3.046-9.304-1.796c-2.139,0.784-3.824,2.469-4.608,4.608
			c-0.906,2.068-0.906,4.42,0,6.487c0.434,1.034,1.041,1.987,1.795,2.818c0.815,0.771,1.77,1.379,2.813,1.792
			c1.027,0.438,2.13,0.67,3.246,0.683c2.259-0.034,4.422-0.918,6.059-2.475c0.752-0.831,1.358-1.783,1.792-2.817
			c0.911-2.066,0.911-4.421,0-6.487C382.883,132.256,382.277,131.305,381.525,130.475z"/>
		<path d="M383.317,372.221c-0.188-0.543-0.448-1.058-0.771-1.533c-0.312-0.448-0.653-0.876-1.021-1.28
			c-3.421-3.158-8.695-3.158-12.117,0c-0.341,0.425-0.683,0.85-1.025,1.279c-0.323,0.475-0.582,0.991-0.771,1.533
			c-0.246,0.484-0.417,1.002-0.508,1.537c-0.096,0.565-0.153,1.136-0.171,1.709c0.032,2.259,0.916,4.423,2.475,6.059
			c0.815,0.771,1.77,1.379,2.813,1.792c2.066,0.911,4.421,0.911,6.487,0c1.054-0.394,2.013-1.005,2.817-1.792
			c1.557-1.637,2.441-3.8,2.475-6.059c-0.02-0.573-0.077-1.143-0.171-1.708C383.734,373.224,383.562,372.706,383.317,372.221z"/>
	</g>
</g>
<g>
</g>
<g>
</g>
<g>
</g>
<g>
</g>
<g>
</g>
<g>
</g>
<g>
</g>
<g>
</g>
<g>
</g>
<g>
</g>
<g>
</g>
<g>
</g>
<g>
</g>
<g>
</g>
<g>
</g>
</svg>
